<svg id="Calque_1" data-name="Calque 1" xmlns="http://www.w3.org/2000/svg" viewBox="0 0 1018.83 400.34"><defs><style>.cls-1{fill:#fff;}</style></defs><title>anim_white</title><path class="cls-1" d="M555.29,412.87v-8.31c0-62.82.07-125.64-.13-188.46,0-5.45,1.57-6.72,6.79-6.61,15.86.33,31.73.26,47.59,0,4.28-.06,5.86.8,5.85,5.53q-.21,152.13,0,304.25c0,4.32-.88,5.91-5.57,5.83q-24.43-.45-48.88,0c-4.21.07-6.52-1.34-8.73-4.8Q484.72,415.17,417.05,310.15c-.9-1.4-1.86-2.76-2.9-4.3-1.85,1.82-.9,3.82-.9,5.55q-.09,103.56.07,207.12c0,5.41-1.45,6.74-6.75,6.62-15.86-.38-31.73-.26-47.6,0-4.17,0-6-.64-6-5.5q.23-152.45,0-304.88c0-3.79.82-5.24,4.93-5.19,19.94.2,39.88.23,59.82,0,4.15-.05,5.49,2.4,7.24,5.09q58.57,90.25,117.2,180.47c3.92,6.05,7.87,12.07,11.81,18.11Z" transform="translate(-77.22 -209.11)"/><path class="cls-1" d="M1015.12,316.87c-32.52,54.82-65,109.65-98,165.29-2.13-3.66-3.91-6.64-5.62-9.67Q868.76,396.71,826,321a18.75,18.75,0,0,1-2.56-9.69c.1-31.09,0-62.17.21-93.26,0-2.57-2.7-6.65,2.2-8,4.61-1.27,6.23,2,8.09,5.33q37.2,66.73,74.54,133.39c3.13,5.59,6.29,11.17,9.78,17.35l23.89-40.86q32.22-55.17,64.38-110.37c2-3.51,4.12-5.32,8.48-5,7.25.53,16-2.13,21.4,1.13s7.32,12.06,10.58,18.53c9,18,17.94,36,27,53.94a21,21,0,0,1,2.27,9.84q-.09,112.89.08,225.77c0,5.16-1.39,6.36-6.37,6.25-15.43-.34-30.87-.38-46.3,0-5.67.14-7.49-1.1-7.47-7.21.25-65.82.16-131.64.16-197.47v-3.58Z" transform="translate(-77.22 -209.11)"/><path class="cls-1" d="M79.83,525.19c3.31-7.09,6.23-13.45,9.22-19.77q68.1-144.23,136.09-288.5c2.77-5.91,5.84-8.11,12.4-7.78,12,.62,24,.3,36,.11,4-.07,5.64.79,5.54,5.3-.32,13.72-.21,27.45-.06,41.17,0,3.39-.55,5.46-4.49,4.78-3-.52-4.54.78-5.83,3.54q-33.81,72.4-67.79,144.73a4.41,4.41,0,0,0-.15,1.35c1.23,1.72,3.09.84,4.62.84,22.73.05,45.46.11,68.18-.08,4.07,0,5.6.84,5.51,5.27-.3,13.5-.33,27,0,40.51.12,4.74-1.56,5.64-5.86,5.61-30.23-.18-60.46,0-90.69-.25-4.48,0-6.82,1.24-8.71,5.43-8,17.75-16.48,35.27-24.55,53-1.66,3.66-3.71,4.89-7.73,4.85C121.26,525.07,101,525.19,79.83,525.19Z" transform="translate(-77.22 -209.11)"/><path class="cls-1" d="M690,367.16c0-50.15.08-100.29-.13-150.44,0-5.26,1.16-6.88,6.6-6.76,16.49.37,33,.25,49.5,0,4,0,5.49.75,5.48,5.21q-.21,152.37,0,304.73c0,4.64-1.74,5.16-5.6,5.12-16.72-.16-33.44-.3-50.15.07-5.16.11-5.83-1.73-5.81-6.25Q690.12,443,690,367.16Z" transform="translate(-77.22 -209.11)"/><path class="cls-1" d="M77.32,576.22c0-9,.18-18-.08-27-.11-3.75.59-5.39,4.83-5.17,7.26.38,14.56.13,21.84.13,7.11,0,12.41,3.15,15.42,9.54,2.84,6,3,12.07-1.88,17.26-1.74,1.85-1.08,2.32.54,3.75,7.22,6.36,9,13.42,5.86,21.81-3,8-9,12-18.44,12.13-7.7.11-15.42-.2-23.12.11-3.92.15-5.2-.92-5.06-5C77.53,594.64,77.32,585.42,77.32,576.22Zm21.36,3c-12,0-12,0-12,11.92,0,1.49.11,3,0,4.48-.25,2.71.74,3.85,3.59,3.76,5.34-.17,10.69.12,16-.14,5.72-.26,9.41-4.38,9.44-10,0-5.86-3.83-9.77-10-10C103.38,579.18,101,579.26,98.68,579.26Zm-1.44-9.69h6.43c5.51,0,7.7-3.5,7.71-8.24,0-4.9-2.56-8-8-8-4.29,0-8.58.2-12.86-.05-3.25-.18-3.82,1.18-3.92,4.13C86.23,569.59,86.12,569.58,97.24,569.57Z" transform="translate(-77.22 -209.11)"/><path class="cls-1" d="M472.09,564.34c0,14.23-.17,26.85.1,39.46.08,4-1.16,5-5.06,5.06-4.21.07-4.9-1.51-4.86-5.25.17-18.2,0-36.39.13-54.59,0-1.86-1.31-4.72,1.94-5.24,3-.49,5.6,0,7.65,3.11,8,12.1,16.38,24,24.62,36,1,1.47,2.05,2.93,4.11,5.87,0-14.12.06-26.43,0-38.73,0-3.58-.51-6.42,5-6.41,5.87,0,4.66,3.47,4.67,6.7,0,17.55.06,35.11-.07,52.66,0,2,1.67,5.15-2.07,5.72-3,.45-5.61.08-7.68-3-8.5-12.81-17.3-25.42-26-38.11C474.09,566.87,473.58,566.26,472.09,564.34Z" transform="translate(-77.22 -209.11)"/><path class="cls-1" d="M177.14,544.28c3.21,0,6.42-.16,9.62,0,18.11,1,30.33,14.12,30.25,32.28s-12.35,31.22-30.54,32.07c-6.83.32-13.69-.08-20.53.12-3.05.09-4.07-.81-4.05-3.94q.2-28.23,0-56.47c0-3.41,1-4.51,4.36-4.25,3.61.27,7.26.06,10.9.06ZM171.35,577v9.61c0,12.54,0,12.54,12.64,12.44,14.53-.12,23.5-8.87,23.4-22.84-.09-13.6-9.13-22.31-23.25-22.39-3,0-6,.2-9-.06-3.2-.27-4,1-3.89,4C171.49,564.15,171.35,570.56,171.35,577Z" transform="translate(-77.22 -209.11)"/><path class="cls-1" d="M989.9,576.54A32.69,32.69,0,0,1,957,609.45a33.07,33.07,0,1,1,32.93-32.91Zm-55.94,0C934,589.45,944.51,600,957.14,600s23.18-10.68,23.27-23.45c.09-13-10.81-24-23.61-23.76A23.44,23.44,0,0,0,934,576.58Z" transform="translate(-77.22 -209.11)"/><path class="cls-1" d="M1037.27,566c0,12.62-.17,25.25.09,37.87.09,4.06-1.18,5-5.08,5-4.08,0-4.39-1.76-4.37-5,.11-18,0-36,.13-54,0-2-1.55-5.13,1.59-6,3.3-.92,5.89.31,8,3.54,8.27,12.46,16.86,24.71,25.42,37,.66,1,.82,2.52,3.23,2.83,0-12.81.25-25.5-.13-38.16-.15-4.94,1.82-5.59,5.93-5.38,2.79.15,3.7,1,3.69,3.73-.09,19.28,0,38.56,0,57.84,0,1.46.31,3.36-1.85,3.4-2.63.05-5.35.84-7.37-2.29-4.87-7.54-10.13-14.83-15.23-22.22l-12.93-18.75Z" transform="translate(-77.22 -209.11)"/><path class="cls-1" d="M1056.47,209.91c12.61,0,24.33.14,36-.07,4.32-.07,3.47,2.64,3.47,5.09,0,23.73,0,47.47-1,71.77C1082.28,261.44,1069.63,236.18,1056.47,209.91Z" transform="translate(-77.22 -209.11)"/><path class="cls-1" d="M253.89,576.29c0-9,.17-18-.07-27-.1-3.71.56-5.35,4.82-5.21,10.06.33,20.15.36,30.21,0,4.46-.16,4.64,1.79,4.75,5.3.12,3.84-1.33,4.62-4.8,4.5-7.07-.24-14.15.08-21.22-.14-3.11-.11-3.87.86-4,3.92-.51,14-.62,14,13.13,14,3.43,0,6.87.09,10.29,0s5.94-.45,5.92,4.7c0,5-2.3,4.93-5.83,4.84-6.21-.16-12.44.24-18.64-.15-4.14-.26-4.87,1.27-4.88,5,0,13-.17,13,12.85,13,4.5,0,9,.23,13.5-.07,4.3-.28,3.52,2.53,3.59,5,.08,2.69.34,5-3.77,4.87-10.71-.27-21.44-.21-32.15,0-3.42.06-3.8-1.51-3.76-4.3C254,595.15,253.89,585.72,253.89,576.29Z" transform="translate(-77.22 -209.11)"/><path class="cls-1" d="M570.79,609.21c-9.39-.75-17.57-3.67-21.85-13-.88-1.93-2.55-5.37.08-6s6.32-2.54,8.75,2c4.46,8.32,16.29,10.2,23.84,4.27,2.68-2.11,4.34-4.77,3.78-8.31-.6-3.75-3.43-5.32-6.73-5.94-5.45-1-11-1.54-16.43-2.69-7.25-1.54-12.43-5.61-13.86-13.3s1.94-14.8,8.88-19.12c11.89-7.41,28.88-3.85,34.21,7.36.81,1.71,3.53,4.67.47,5.78-2.43.88-6,2.32-8.76-1-5.68-6.89-12.43-8.37-19.73-4.79-3.8,1.86-6.14,4.78-5.71,9.12s3.52,6.19,7.35,6.93c5,1,10.18,1.39,15.15,2.58,9.39,2.24,14,7.12,14.66,14.64.67,8.28-3.44,15.05-11.64,18.81A26.4,26.4,0,0,1,570.79,609.21Z" transform="translate(-77.22 -209.11)"/><path class="cls-1" d="M684.16,608.38c-7.32,2.07-10.95,0-13.32-7-4-11.74-4.51-11.56-16.1-11.56s-11.46,0-16,11.17c-3.49,8.63-3.49,8.63-13.15,7.42Q638,577.12,650.23,546a3.74,3.74,0,0,1,4.4-2.66c1.85.17,3.61-.31,4.61,2.24C667.45,566.54,675.82,587.43,684.16,608.38Zm-37-27.8h15.42c-2.48-7.06-4.82-13.75-7.67-21.86Z" transform="translate(-77.22 -209.11)"/><path class="cls-1" d="M409.17,544.32c3.64,0,7.29.12,10.93,0s5.87-.14,5.86,4.87c0,5.32-3,4.9-6.14,4.52-4.87-.58-6.59.91-6.37,6.15.46,11.13.54,22.32,0,33.44-.29,5.78,2.33,6.43,6.67,5.8s6,1,5.79,5.57c-.17,3.48-1.27,4.33-4.54,4.25-8.36-.2-16.74-.34-25.08,0-4.58.21-4-2.39-4-5.22s-.25-5.5,3.84-4.61c7.75,1.7,8.44-2.42,8.15-8.73-.49-10.27-.44-20.59,0-30.86.21-4.94-1.25-6.66-6-5.79-4.53.83-6.6-.54-6.13-5.67.29-3.2,1.27-3.94,4.2-3.79C400.58,544.48,404.88,544.31,409.17,544.32Z" transform="translate(-77.22 -209.11)"/><path class="cls-1" d="M839.32,544.66c7.89-2.21,12.34.28,15.65,6.89,3.51,7,8.22,13.43,12.74,20.63,5.24-8.42,10.56-16.11,14.94-24.3,3-5.58,7.67-4,11.71-3.7,3,.23.44,2.66-.17,3.66-5.58,9.12-11.06,18.31-17.11,27.1-3.44,5-5.18,10-4.64,16.1.36,4-.09,8.15.11,12.21.18,3.65-.08,5.72-4.93,5.79-5.26.08-5.1-2.7-4.62-6,2.07-14.37-2.17-26.73-10.91-38.13C847.33,558.74,843.69,551.69,839.32,544.66Z" transform="translate(-77.22 -209.11)"/><path class="cls-1" d="M781.77,576.35c0-9.21.2-18.43-.1-27.64-.12-3.94,1.45-4.52,4.85-4.5s4.94.49,4.88,4.48c-.24,15,.1,30-.22,45-.1,4.63,1.31,5.76,5.71,5.51,6.83-.38,13.72.18,20.56-.2,4.49-.25,4.06,2.3,4.11,5.2s0,4.82-3.93,4.72q-15.75-.42-31.5,0c-4,.12-4.48-1.61-4.42-4.92C781.88,594.78,781.77,585.57,781.77,576.35Z" transform="translate(-77.22 -209.11)"/></svg>