<?xml version="1.0" encoding="UTF-8"?><svg width="2000" height="2000" version="1.1" viewBox="0 0 2000 2000" xmlns="http://www.w3.org/2000/svg" xmlns:xlink="http://www.w3.org/1999/xlink"><!--Generated by IJSVG (https://github.com/curthard89/IJSVG)--><g transform="scale(3.52777)"><g fill="#08090A"><path d="M9.21,2.04277e-07c1,0.35 2.12,0.78 3.23,1.08c1.11,0.3 1.29,0.82 1.33,1.86c0.14,3.51 0.42,7 0.65,10.51l-3.79196e-07,-2.61242e-06c0.0488648,0.336648 0.115626,0.670454 0.2,1l4,-11.08l5.34,1.88l-8.76,24.47c-0.58,-0.18 -1,-0.3 -1.38,-0.44c-3.22,-1.12 -3.2,-1.12 -3.37,-4.57c-0.12,-2.4 -0.29,-4.8 -0.47,-7.2l1.27731e-07,-1.14291e-06c0.0745534,-0.667088 -0.111777,-1.33716 -0.520001,-1.87l-3.82,10.5l-2.15632e-06,-4.24463e-07c-1.67809,-0.330326 -3.31231,-0.853811 -4.87,-1.56c-0.77,-0.27 -0.33,-0.89 -0.16,-1.39c1.44,-4 2.87,-8.1 4.31,-12.15c1.16,-3.24 2.34,-6.47 3.51,-9.7l5.62706e-08,-3.14569e-07c0.0938538,-0.524669 0.370123,-0.999285 0.780002,-1.34Z" transform="translate(150.36, 415.41)"></path><path d="M5.63,26.51l-5.63,-1.09l4.91,-25.42c1.54,0 2.92,0.55 4.36,0.69c0.7,0.06 0.62,0.66 0.72,1.11c0.59,2.64 1.16,5.28 1.77,7.92l-9.93695e-07,-6.25466e-06c0.205524,1.29364 0.54054,2.56335 0.999997,3.78999l2.25,-11.59l1.58069e-07,1.60505e-08c1.88541,0.191447 3.74966,0.552917 5.57,1.08l-4.94,25.46l2.98976e-06,7.38672e-07c-1.1641,-0.287612 -2.34236,-0.514584 -3.53,-0.68c-0.94,-0.09 -1.23,-0.57 -1.4,-1.38c-0.72,-3.3 -1.49,-6.59 -2.24,-9.89c-0.11,-0.47 -0.11,-1 -0.62,-1.26Z" transform="translate(206.15, 430.88)"></path><path d="M5.63,26.67l-5.63,-0.9l4.16,-25.37c0.44,-0.4 0.73,-0.14 1,-0.1c1.27,0.2 2.83,0.06 3.73,0.75c0.9,0.69 0.85,2.48 1.19,3.78c0.72,2.73 1.35,5.49 2.14,8.26c1,-3.65 1.28,-7.45 2.14,-11.22c1.82,0 3.53,0.55 5.54,0.81l-4.18,25.46c-1.47,0.23 -2.7,-0.37 -4,-0.39c-0.85,0 -0.85,-0.76 -1,-1.33c-0.94,-3.56667 -1.88,-7.13 -2.82,-10.69l2.92407e-07,7.99702e-07c-0.0898025,-0.2456 -0.193297,-0.485974 -0.309997,-0.719993Z" transform="translate(216.7, 464.23)"></path><path d="M1.06953e-07,1.67l-1.06953e-07,5.21701e-08c0.440789,-0.215011 0.931059,-0.308231 1.42,-0.27c1.16,-0.14 2.49,-0.77 3.43,-0.16c0.94,0.61 1.15,1.82 1.72,2.82c1.41,2.58 2.8,5.16 4.34,7.72c0.2,-3.71 -0.55,-7.35 -0.66,-11c1.8,-0.62 3.63,-0.19 5.57,-0.78l2.33,25.79l-3.06495e-07,1.06902e-07c-1.39547,0.486726 -2.87624,0.680758 -4.35,0.57c-0.67,0 -0.72,-0.6 -0.94,-1c-1.51,-2.68 -3,-5.39 -4.5,-8.06c-0.28,-0.5 -0.37,-1.22 -1.36,-1.37l1.06,11l-5.69,0.57c-0.87,-8.69 -1.55,-17.25 -2.37,-25.83Z" transform="translate(306, 467.94)"></path><path d="M0,17.3437l2.79133e-08,-1.50159e-06c0.0723771,-3.89351 1.14693,-7.70267 3.12,-11.06l-3.47989e-07,6.52641e-07c1.23053,-2.30782 3.31623,-4.04172 5.81,-4.83l-6.09915e-07,1.82976e-07c4.84557,-1.45369 9.95213,1.29598 11.4058,6.14155c0.0710702,0.236898 0.132516,0.476578 0.184188,0.718449l5.71005e-07,2.98487e-06c1.07838,5.63712 -0.260506,11.468 -3.69,16.07c-2.5,3.56 -6.09,4.58 -10.28,3.3l-3.0651e-08,-8.35047e-09c-3.75694,-1.02354 -6.37811,-4.41635 -6.42,-8.31Zm6,1l-8.65482e-08,8.99583e-07c-0.107011,1.11227 0.0684057,2.23356 0.51,3.26l-1.19624e-07,-2.96738e-07c0.534821,1.32667 2.04386,1.9686 3.37053,1.43378c0.225882,-0.0910598 0.437792,-0.213524 0.629468,-0.363775l-4.6257e-08,3.5118e-08c0.788536,-0.598651 1.42278,-1.37688 1.85,-2.27l2.20285e-07,-4.17942e-07c1.46679,-2.78291 2.2968,-5.85701 2.43,-9l4.07262e-08,-4.55745e-07c0.099543,-1.11393 -0.137331,-2.23211 -0.68,-3.21l1.07227e-07,2.23857e-07c-0.62032,-1.29504 -2.17303,-1.84201 -3.46807,-1.22169c-0.167265,0.0801192 -0.325477,0.177905 -0.471935,0.291689l5.55814e-07,-3.90891e-07c-0.811631,0.570801 -1.46532,1.33803 -1.9,2.23l1.01055e-06,-1.99482e-06c-1.38581,2.73558 -2.14744,5.74454 -2.23,8.81Z" transform="translate(186.25, 425.916)"></path><path d="M20.6001,16.5324l4.07181e-08,1.88689e-06c0.0480818,2.22813 -0.402933,4.43878 -1.32,6.47c-2.17,4.89 -10.77,7 -15,1.76l-8.55923e-07,-1.10396e-06c-2.35606,-3.03882 -3.74912,-6.71301 -4,-10.55l-1.23246e-07,-9.15971e-07c-0.280059,-2.08142 -0.174978,-4.19659 0.31,-6.24c1.07,-4.12 3.68,-6.65 7.48,-7.19l-3.76534e-07,7.5745e-08c3.88947,-0.78242 7.82769,1.10108 9.66,4.62l5.21788e-09,9.47074e-09c1.87833,3.40925 2.8655,7.23756 2.87,11.13Zm-6,1l-2.04024e-07,-7.66577e-06c-0.0712357,-2.67652 -0.574384,-5.32396 -1.49,-7.84l9.86694e-08,2.65765e-07c-0.322328,-0.868188 -0.803912,-1.66857 -1.42,-2.36l1.53814e-08,2.03837e-08c-0.921482,-1.22117 -2.65844,-1.46411 -3.87961,-0.542625c-0.423755,0.319762 -0.7467,0.754556 -0.930392,1.25263l-2.34192e-07,4.78553e-07c-0.215916,0.441209 -0.361026,0.913659 -0.43,1.4l-2.04766e-07,1.51079e-06c-0.522338,3.85388 0.177154,7.77453 2,11.21l3.23643e-07,6.14325e-07c0.230096,0.436759 0.527009,0.834892 0.88,1.18c1.61,1.67 3.66,1.31 4.6,-0.79l-1.06405e-07,3.00051e-07c0.402303,-1.13445 0.618429,-2.32651 0.640001,-3.52999Z" transform="translate(334.61, 431.888)"></path><path d="M6.35,18.63c-0.21,2.28 -0.42,4.15 -0.54,6c-0.12,1.85 -0.1,2 -2,1.92c-0.68,0 -1.36,0 -2,-0.11c-0.64,-0.11 -1.08,-0.19 -1.81,-0.33c0.17,-2 0.33,-4 0.51,-6c0.31,-3.5 0.64,-7 1,-10.49c0.25,-2.82 0.51,-5.65 0.74,-8.47c0,-0.51 0.23,-0.85 0.76,-0.84c3,0 5.92,-0.31 8.83,0.47c3.63,1 5.53,3.32 5.91,7.33l2.93425e-07,3.11036e-06c0.209224,2.21782 -0.074199,4.45447 -0.830001,6.55l1.2544e-07,-4.43124e-07c-0.57962,2.04754 -2.1567,3.66226 -4.19,4.29l3.42,8.64c-2,0.13 -3.73,-0.42 -5.51,-0.36c-0.71,0 -0.85,-0.54 -1,-1.08c-0.69,-1.9 -1.43,-3.79 -2.13,-5.69l2.4344e-07,6.5902e-07c-0.253069,-0.685087 -0.648416,-1.30878 -1.16,-1.83Zm0.51,-4.12c2.57,0.68 3.67,0.13 4.56,-2.16l2.82056e-07,-8.00008e-07c0.492129,-1.39584 0.599212,-2.89847 0.31,-4.35l1.22735e-07,1.01503e-06c-0.170043,-1.40627 -1.35362,-2.47021 -2.77,-2.49c-1.19,-0.14 -1.46,0 -1.53,1.2c-0.170001,2.57 -0.640001,5.11 -0.570001,7.8Z" transform="translate(243.27, 436.11)"></path><path d="M21.69,24.4354l-4.9,1.22l-4.34756e-08,1.35481e-08c-0.759734,0.236751 -1.58327,-0.0720749 -2,-0.75c-1.51,-2 -3.14,-3.94 -4.86,-5.85l8.35392e-07,6.00343e-06c0.359969,2.58686 0.867463,5.15104 1.52,7.68l-2.8633e-06,9.59336e-07c-1.81354,0.60762 -3.67281,1.06909 -5.56,1.38l-5.89,-25.21c3.13,-1.18 6.19,-2.49 9.53,-2.67l1.40155e-07,-1.30304e-08c2.53256,-0.235456 4.98526,0.960042 6.36,3.1l3.27233e-07,4.93308e-07c1.95286,2.94395 2.75706,6.50236 2.26,10l4.64291e-08,-2.53407e-07c-0.287475,1.56902 -1.15052,2.97414 -2.42,3.94Zm-15.06,-18.23c0.59,2.48 1.13,4.88 1.72,7.27c0.4,1.6 0.79,1.77 2.27,1.11l6.43195e-08,-2.79411e-08c0.805714,-0.35001 1.40138,-1.05668 1.61,-1.91l3.01913e-08,-1.17973e-07c0.385541,-1.5065 0.251658,-3.09901 -0.38,-4.52c-0.97,-2.61 -2.42,-3.16 -5.22,-1.95Z" transform="translate(354.12, 428.455)"></path><path d="M8.51997,18.82l-3.3,7.07l1.27113e-06,4.95382e-07c-1.77911,-0.693354 -3.5214,-1.47772 -5.21997,-2.34999l10.84,-23.54c3,1 6,1.74 8.71,3.44c3,1.91 4,4.67 3.33,8.29l7.52463e-08,-3.73513e-07c-0.389063,1.93126 -1.14249,3.77072 -2.22,5.42c-1.43,2.23 -3.26,3.87 -6.32,3.78c0.17,3.08 0.43,6.07 0.31,9.23l-1.15835e-07,-4.0263e-08c-1.78637,-0.620926 -3.52444,-1.37297 -5.2,-2.25c-0.52,-0.24 -0.33,-0.74 -0.34,-1.15c-0.05,-2.1 -0.06,-4.2 -0.13,-6.29c-0.0200299,-0.520015 0.23997,-1.12001 -0.46003,-1.65001Zm5.57,-12.14c-1.05,2.27 -2.06,4.44 -3.06,6.61c-0.74,1.61 0,2.68 1.8,2.59l2.45238e-08,-1.226e-09c0.685445,-0.0342664 1.33842,-0.302515 1.85,-0.76l-4.01661e-07,3.49176e-07c1.02618,-0.892092 1.79016,-2.0467 2.21,-3.34c0.99,-2.85 0.33,-4.19 -2.79,-5.09Z" transform="translate(119.78, 402.91)"></path><path d="M0.2,26.7c-0.2,-8.6 0.36,-17.15 0.38,-25.88c3.23,-0.06 6.29,-0.82 9.45,-0.23l6.14825e-08,7.60701e-09c3.23821,0.40065 5.81132,2.9124 6.29,6.14l-1.42379e-07,-6.71678e-07c0.490162,2.31236 0.449132,4.7058 -0.12,7l-1.02594e-07,6.19798e-07c-0.37231,2.24922 -1.88737,4.14304 -4,5l4,8.35c-2,0 -3.81,0 -5.62,0c-0.77,0 -0.88,-0.6 -1.09,-1.06c-0.89,-1.89 -1.72,-3.81 -2.59,-5.71c-0.19,-0.43 -0.25,-1 -0.8,-1.14c-0.61,2.53 -0.06,5.15 -0.54,7.74l1.31489e-06,-9.59293e-08c-1.7889,0.130512 -3.58679,0.060072 -5.36,-0.209999Zm6.13,-21.06l-1.58886e-06,1.56357e-05c-0.25081,2.46819 -0.334334,4.95051 -0.249999,7.42998c0,1.69 1,2.32 2.58,1.61l2.02409e-07,-9.156e-08c0.681605,-0.308324 1.22612,-0.856401 1.53,-1.54l-9.33465e-08,1.88486e-07c0.659023,-1.33071 0.892926,-2.83187 0.67,-4.3c-0.45,-2.66999 -1.56,-3.46999 -4.52,-3.20999Z" transform="translate(268.59, 469.03)"></path><path d="M18.3899,24.73l-5.82,1.14c-0.89,-1.44 -0.92,-3.2 -1.79,-4.63c-1.26,0.22 -2.46,0.46 -3.66,0.62c-0.85,0.11 -1.14,0.5 -1.08,1.35l2.25653e-07,1.17715e-06c0.236149,1.23191 0.333423,2.48641 0.29,3.74l3.75201e-06,-9.83733e-07c-1.97409,0.517583 -3.97775,0.914977 -5.99995,1.18999l2.39229e-08,2.46304e-07c-0.187194,-1.9273 -0.24399,-3.86504 -0.17,-5.8c-0.11,-6.3 -0.12,-12.6 -0.16,-18.9c0,-1.69 0,-1.67 1.61,-2c2.36,-0.45 4.71,-0.92 7.33,-1.44Zm-9.05,-8.08c-0.65,-2 -1.16,-3.88 -1.82,-5.66c-0.66,-1.78 -0.89,-3.57 -2.09,-5c-0.26,3.73 0.25,7.37 0.37,11.06c1.25,0.12 2.2,-0.49 3.54,-0.4Z" transform="translate(343.22, 463.08)"></path><path d="M7.96,20.5192l0.69,6.11c-1.75,0.74 -3.68,0.48 -5.65,0.92l-3,-25.76c3,-0.75 6,-1.65 9.17,-1.67l2.38606e-07,-1.01736e-08c2.79543,-0.119191 5.40287,1.4054 6.67,3.9l4.57773e-07,7.98092e-07c1.92805,3.36141 2.43555,7.35306 1.41,11.09l1.39584e-07,-6.42171e-07c-0.726722,3.34337 -3.79678,5.64698 -7.21,5.41c-0.620001,3.08929e-08 -1.23,3.08929e-08 -2.08,3.08929e-08Zm-1.75,-14.65c0.36,2.86 0.68,5.6 1,8.33l-9.91776e-09,-4.87062e-07c0.0174273,0.855864 0.72537,1.53555 1.58123,1.51812c0.210189,-0.00427992 0.417311,-0.0512739 0.608766,-0.138123l1.06285e-07,-3.36553e-08c0.952356,-0.301567 1.69843,-1.04764 2,-2l8.39922e-08,-2.67338e-07c0.631655,-2.01049 0.481671,-4.18526 -0.42,-6.09c-0.86,-2.29 -2.39,-2.77 -4.77,-1.61Z" transform="translate(315.25, 435.481)"></path><path d="M0,6.18l5.81,-2.12l8.57,15.63l0.38,-0.14l-3.5,-17.39c1.85,-0.87 3.76,-1.45 5.75,-2.16l3.84,26.18c-2.1,1 -4.39,1.65 -6.79,2.58Z" transform="translate(394.41, 414.11)"></path><path d="M21,23.96l-11,4.55l-10,-24l10.83,-4.51l1.87064e-06,3.51902e-06c0.767073,1.44301 1.43527,2.93644 1.99999,4.46999c-1.66,1.13 -3.65,1.5 -5.38,2.52l-2.28878e-06,-6.46095e-06c0.591494,1.66972 1.28959,3.29973 2.08999,4.87998l5,-2l5.89854e-07,1.04443e-06c0.786162,1.39202 1.45514,2.84704 2,4.35l-5.2,2.25l2.05,5l5.4,-2.19c1.01002,1.32003 1.39002,2.99003 2.21002,4.68003Z" transform="translate(412.52, 409.1)"></path><path d="M9.76,0.0597768l-1.27811e-07,1.52071e-08c0.502403,-0.0597768 1.0102,0.0530669 1.44,0.32l9.63,3.92l-1.9,4.67l-5.4,-2.14l-1.26506e-06,2.30649e-06c-0.864277,1.57577 -1.57746,3.22981 -2.13,4.93999l5.17,2.2l-1.75,4.29c-1.86,-0.37 -3.44,-1.35 -5.3,-2l-2,4.84c1.6,1.11 3.6,1.42 5.33,2.45l-1.0705e-06,3.47949e-06c-0.504834,1.64089 -1.12299,3.24474 -1.85,4.8l-11,-4.45Z" transform="translate(136.93, 410.34)"></path><path d="M3.42,21.9l-1.23525e-06,-1.34687e-06c0.729371,0.795282 1.57987,1.47028 2.52,2l-3.66144e-07,-1.90468e-07c0.822933,0.42809 1.74303,0.634854 2.67,0.6l1.86377e-08,8.61746e-11c1.22054,0.00564314 2.21455,-0.979222 2.22019,-2.19976c0.000937701,-0.202812 -0.026047,-0.404789 -0.0801942,-0.600241l1.14003e-07,6.5412e-07c-0.216838,-1.24416 -1.04851,-2.29411 -2.21,-2.79l-4.17179e-07,-1.81793e-07c-0.731715,-0.318858 -1.48738,-0.579662 -2.26,-0.78c-3.29,-0.81 -4.91,-2.94 -5.36,-6.25c-0.92,-6.75 5.1,-11.88 11.47,-9.69c1.6,0.55 1.6,0.57 1.51,2.18c-0.09,1.61 -0.16,3.33 -0.24,5c-0.71,0.09 -0.79,-0.64 -1.18,-0.95l1.76001e-08,1.80172e-08c-0.980423,-1.00365 -2.4871,-1.28014 -3.76,-0.69l-9.32502e-08,4.26504e-08c-1.21821,0.55718 -1.96044,1.81419 -1.86,3.15l1.36976e-08,-2.8614e-07c-0.0648789,1.35531 0.788015,2.58545 2.08,3c1.14667,0.446667 2.29667,0.876667 3.45,1.29c4.49,1.6 5.26,7.81 3.26,11l1.29244e-07,-2.08494e-07c-0.686108,1.10681 -1.75301,1.92477 -3,2.3l4.45506e-07,-1.33158e-07c-2.67911,0.800763 -5.54322,0.730736 -8.18,-0.199999l-1.37424e-07,-2.97479e-08c-0.671686,-0.145399 -1.11145,-0.791854 -1,-1.47c2.6541e-06,-1.54 -0.0499973,-3.04 -0.0499973,-4.9Z" transform="translate(298.38, 435.24)"></path><path d="M12.5837,7.84189c-0.49,-0.47 -0.81,-0.81 -1.18,-1.11l-7.45729e-08,-6.71328e-08c-1.03578,-0.932441 -2.5549,-1.09001 -3.76,-0.39l4.87736e-08,-2.48199e-08c-1.11422,0.567004 -1.77146,1.75479 -1.66,3l-3.18506e-08,6.10377e-07c-0.0702372,1.34601 0.808832,2.55838 2.11,2.91c1.16,0.39 2.33,0.77 3.52,1.06c4.69,1.16 6.05,7.23 4.29,10.74l-9.93189e-08,1.85453e-07c-0.738741,1.37941 -2.0112,2.39521 -3.52,2.81l-1.09045e-06,3.45797e-07c-2.42238,0.768171 -5.01343,0.830605 -7.47,0.179999c-0.71,-0.17 -1.14,-0.46 -1.17,-1.35l5.64663e-07,4.75962e-06c-0.18233,-1.53689 -0.282473,-3.08241 -0.3,-4.62998c0.54,-0.14 0.67,0.38 1,0.6l2.7282e-07,2.24818e-07c1.20285,0.991208 2.74758,1.469 4.3,1.33l1.11809e-07,-4.44891e-09c1.18095,-0.0469903 2.10021,-1.04244 2.05322,-2.22339c-0.00531497,-0.133575 -0.0231344,-0.266358 -0.0532246,-0.396609l7.88992e-08,6.51367e-07c-0.151789,-1.25312 -0.954043,-2.33293 -2.11,-2.84l-1.20787e-06,-4.8519e-07c-0.968572,-0.389067 -1.97355,-0.680511 -3,-0.87c-3.56,-0.85 -5.36,-3 -5.48,-6.66l-4.75089e-08,-3.9815e-07c-0.153715,-1.28821 -0.0894838,-2.59311 0.19,-3.86l-3.44101e-07,1.20331e-06c0.852393,-2.9808 3.33518,-5.21103 6.39,-5.74l-6.3591e-07,1.57941e-07c1.6182,-0.401914 3.31893,-0.318443 4.89,0.24c0.64,0.23 1.07,0.5 1,1.28c-0.0699968,1.88997 -0.0399968,3.77997 -0.0399968,5.91997Z" transform="translate(324.356, 465.658)"></path><path d="M12.19,11.15l-1.44633e-07,-4.06682e-06c0.0549019,1.54374 -0.0220437,3.08935 -0.229999,4.62c-1.79,0.33 -3.56,-0.11 -5.44,-0.1c-0.42,1.73 -0.12,3.51 -0.53,5.32c2.08,0.29 4,0.09 5.91,0.52v4.88l-1.6648e-06,3.37628e-08c-3.97296,0.080573 -7.94711,-0.0830688 -11.9,-0.49l1.17,-25.9c4,0.47 7.87,0.18 11.77,0.69l3.71444e-08,1.18214e-06c0.0506823,1.61298 -0.0195141,3.2275 -0.21,4.83h-5.93v5.17l-2.91135e-06,-4.83197e-07c1.78166,0.295702 3.58398,0.44952 5.38999,0.460003Z" transform="translate(262.03, 437.85)"></path><path d="M12.99,9.88995c-0.6,-0.17 -0.71,-0.71 -1,-1.07l4.78777e-08,5.75915e-08c-0.903523,-1.08684 -2.39332,-1.48732 -3.72,-1l1.83408e-07,-6.69183e-08c-1.25937,0.459497 -2.09533,1.65943 -2.09,3l2.20552e-08,-1.74124e-07c-0.161107,1.27193 0.540942,2.49643 1.72,3c1.15,0.58 2.36,1.05 3.5,1.66c3.87,2.06 5,7.95 2.23,11.35l2.37332e-07,-2.924e-07c-0.8681,1.06952 -2.09994,1.78157 -3.46,2l6.00432e-07,-1.08185e-07c-2.50543,0.451426 -5.08781,0.173751 -7.44,-0.799999c-0.8,-0.33 -1.3,-0.72 -1.16,-1.78l-9.68454e-07,3.83671e-05c0.0383532,-1.51947 0.192127,-3.03383 0.459992,-4.52999l-4.24079e-07,-5.02383e-07c0.894825,1.06005 2.02016,1.90149 3.29,2.46c1.55,0.53 2.93,0.34 3.54,-0.61l1.1949e-07,-2.9452e-07c0.518314,-1.27755 0.304005,-2.73562 -0.56,-3.81l2.56913e-07,2.86414e-07c-0.414587,-0.462193 -0.917901,-0.836277 -1.48,-1.1c-0.55,-0.27 -1.13,-0.48 -1.7,-0.71c-3.85,-1.59 -5.12,-3.59 -4.9,-7.69c0.35,-6.47 6.4,-10.26 12.28,-7.69c1.35,0.59 1.49,0.83 1.28,2.24c-0.269993,1.69995 -0.529993,3.37995 -0.789993,5.07995Z" transform="translate(276.06, 435.98)"></path><path d="M1.7,0l11.66,0.79l7.65897e-07,1.13353e-05c0.0879622,1.30185 0.0879617,2.60815 -1.5318e-06,3.91c0,0.9 -0.47,1.13 -1.31,1.06c-1.54,-0.12 -3.08,-0.16 -4.69,-0.24c-0.49,1.74 0,3.48 -0.56,5.2l-2.80701e-06,-4.67211e-07c1.8985,0.315995 3.81622,0.503089 5.74,0.56l-0.31,4.66c-1.91,0.25 -3.73,-0.26 -5.6,-0.23c-0.4,1.8 -0.15,3.58 -0.39,5.42c2,0.21 3.93,0 5.89,0.59c-0.25,1.67 0,3.32 -0.4,5l-11.73,-0.82Z" transform="translate(253.85, 468.92)"></path><path d="M12.4438,6.47559c-1.3,-0.58 -2.57,-1.22 -4,-0.37l-1.55813e-07,7.78753e-08c-1.25711,0.628302 -1.93427,2.02368 -1.65,3.4c0.41,1.76 1.4,2.73 3,2.79c1.36,0.06 2.72,0 4.08,0c4.87,-0.05 7.76,5.56 6.79,9.53l-5.99749e-09,1.9708e-08c-0.419069,1.37708 -1.33033,2.55175 -2.56,3.3l-1.09777e-07,7.09921e-08c-2.07871,1.34429 -4.46906,2.1296 -6.94,2.28l2.26528e-08,-4.60665e-09c-0.702492,0.142857 -1.39059,-0.301078 -1.55,-1c-0.5,-1.44 -1.1,-2.85 -1.67,-4.28c0.57,-0.41 0.93,0.15 1.35,0.28l4.83829e-07,1.78328e-07c1.3393,0.493632 2.8107,0.493632 4.15,-3.56655e-07l1.63672e-08,-4.51519e-09c1.13933,-0.314302 1.80815,-1.4927 1.49385,-2.63204c-0.0671229,-0.243318 -0.176762,-0.472843 -0.323849,-0.677963l1.4752e-07,2.93828e-07c-0.631481,-1.25778 -1.93309,-2.03719 -3.34,-2c-1,0 -2.1,0 -3.14,0.1l1.85898e-07,-1.85269e-08c-2.47516,0.246678 -4.83776,-1.0908 -5.9,-3.34l5.22982e-07,8.85176e-07c-0.658152,-1.11396 -1.13415,-2.32589 -1.41,-3.59l-1.63734e-07,-9.3637e-07c-0.823821,-4.7113 2.3276,-9.1984 7.03891,-10.0222c0.548305,-0.0958769 1.10458,-0.138667 1.66109,-0.127777l-1.37676e-07,1.98035e-08c0.803588,-0.115589 1.54873,0.442144 1.66432,1.24573c0.00211825,0.0147263 0.00401281,0.0294839 0.00568302,0.0442677l6.3079e-07,1.76321e-06c0.576905,1.61259 1.05447,3.259 1.43,4.93Z" transform="translate(426.476, 403.274)"></path><path d="M13.19,21.4772l-1.7,6l1.3465e-07,-2.1261e-08c-1.42661,0.225259 -2.88147,0.201576 -4.3,-0.07l-1.00745e-06,-1.99549e-07c-3.84742,-0.762075 -6.6591,-4.07969 -6.78,-8c-0.41,-6.1 1,-11.66 5.51,-16.06l-5.99919e-07,5.67645e-07c3.22129,-3.048 8.16459,-3.34721 11.73,-0.710001c1.46,1.05 1.54,1.48 0.83,3.09c-0.64,1.46 -1.3,2.91 -1.94,4.36c-0.68,-0.07 -0.48,-0.65 -0.63,-1c-1,-2.41 -3.13,-3 -5.24,-1.45l-3.08167e-07,2.21756e-07c-0.351703,0.253085 -0.670787,0.548658 -0.95,0.88l-3.00153e-07,3.51434e-07c-2.63918,3.09008 -3.85842,7.14695 -3.36,11.18c0.28,2.49 2.37,3.6 4.78,2.79l-6.65772e-07,2.50246e-07c0.714782,-0.268668 1.40142,-0.606961 2.05,-1.01Z" transform="translate(170.81, 422.073)"></path><path d="M17.48,26.22l-5.77,1.65l-5.7,-19.93c-0.93,-0.26 -1.69,0.31 -2.51,0.46l-1.5093e-06,3.48114e-07c-0.801401,0.184841 -1.5925,0.411821 -2.36999,0.679996l9.93904e-07,2.93256e-06c-0.543619,-1.60397 -0.922244,-3.2592 -1.13,-4.94l8.71,-2.51c1.65,-0.48 3.31,-0.94 5,-1.43c0.69,-0.2 1.14,-0.12 1.4,0.68c0.39,1.22 0.91,2.4 1.43,3.76l-4.71,1.47Z" transform="translate(370.59, 423.24)"></path><path d="M2.76,26.21l2.27,-20.39c-1.63,-0.79 -3.31,-0.39 -4.92,-0.9c-0.11,-1.63 0.5,-3.13 0.78,-4.92l15,1.67v4.91c-1.6,0.44 -3.15,-0.59 -4.88,-0.1l-2.32,20.58c-2.05,-0.37 -4.03,-0.16 -5.93,-0.85Z" transform="translate(237.54, 467.1)"></path><path d="M8.13,27.14c-2,0.15 -3.83,-0.5 -6,-0.58l2.91,-20.81l-4.91,-0.75c-0.13,-1.68 0.68,-3.13 0.8,-5l15.08,2.12v4.83c-1.68,0.48 -3.21,-0.51 -5,-0.17Z" transform="translate(227.46, 434.05)"></path><path d="M5.88,26.68l-5.88,-1.19l5.21,-25.49l5.87,1.19Z" transform="translate(207.54, 462.57)"></path><path d="M13.7,24.8l-5.7,1.84l-8,-24.64c1.82,-0.87 3.67,-1.26 5.66,-2Z" transform="translate(387.3, 420.63)"></path><path d="M1.3,26.24l-1.3,-25.85l6,-0.39l1.3,25.81c-1.93,0.58 -3.93,0.34 -6,0.43Z" transform="translate(297.7, 469.47)"></path><path d="M8.49,0v4.63h-8.49v-4.63Z" transform="translate(287, 482.15)"></path><path d="M0.15,0c0.15,0 0.3,0.09 0.25,0.19c-0.05,0.1 -0.29,0.13 -0.4,-0.06Z" transform="translate(438.93, 409.62)"></path><path d="M2,9.8263e-07l1.0793e-07,-9.8263e-07c-0.169813,1.54603 -0.877753,2.98315 -2,4.06l-6.86665e-07,1.94337e-06c0.504357,-1.42741 1.17568,-2.7902 2,-4.06Z" transform="translate(186.24, 394)"></path><path d="M0.5,1.16c-0.5,-0.29 -0.31,-0.74 -0.28,-1.16c0.45,0.3 0.28,0.75 0.28,1.16Z" transform="translate(373.22, 110.13)"></path><path d="M0.33,0c0,0.27 0,0.54 -0.25,0.7c-0.07,-0.29 -0.08,-0.55 0.25,-0.7Z" transform="translate(353.38, 109.85)"></path><path d="M0.420009,1.28136e-07c0,0.33 0,0.63 -0.38,0.76l-3.60395e-08,-2.76627e-07c-0.0400087,-0.307094 0.110319,-0.60775 0.38,-0.76Z" transform="translate(191.58, 386.6)"></path><use transform="translate(191.164, 387.36)" xlink:href="#path-1"></use><use transform="translate(190.794, 388.1)" xlink:href="#path-1"></use><use transform="translate(190.424, 388.84)" xlink:href="#path-1"></use><path d="M0.44,0.59l-0.44,-0.28c0.12,-0.1 0.29,-0.31 0.34,-0.28c0.22,0.14 0.14,0.36 0.1,0.56Z" transform="translate(429.28, 98.83)"></path><use transform="translate(190.054, 389.59)" xlink:href="#path-1"></use><use transform="translate(189.684, 390.33)" xlink:href="#path-1"></use><use transform="translate(189.314, 391.07)" xlink:href="#path-1"></use><use transform="translate(188.944, 391.81)" xlink:href="#path-1"></use><use transform="translate(188.584, 392.56)" xlink:href="#path-1"></use><use transform="translate(188.204, 393.3)" xlink:href="#path-1"></use><path d="M0.46,0.369343l2.88899e-08,-5.32631e-09c-0.211821,0.0390525 -0.415194,-0.101004 -0.454247,-0.312825c-0.00287487,-0.0155933 -0.00479611,-0.0313475 -0.00575301,-0.0471747l-1.19729e-09,5.06333e-11c0.220965,-0.00934291 0.415965,0.143266 0.46,0.36Z" transform="translate(137.8, 98.9907)"></path><path d="M0.65,0.39h-0.54l-1.71784e-08,-3.10707e-08c-0.0313898,-0.0567751 -0.06823,-0.110361 -0.11,-0.16l3.0579e-08,-4.2649e-08c0.0636007,-0.0887051 0.141295,-0.166399 0.23,-0.23l1.37579e-08,2.46233e-09c0.20428,0.0365613 0.368428,0.188984 0.42,0.39Z" transform="translate(406.22, 82.29)"></path><path d="M0.354833,0l2.00375e-08,1.29443e-07c0.0376846,0.243444 -0.0881445,0.482925 -0.31,0.59l1.74334e-08,9.51067e-08c-0.0448331,-0.244584 0.08315,-0.488165 0.31,-0.59Z" transform="translate(184.145, 401.64)"></path><path d="M15.52,72.0427c2.39,0 4.56,-0.88 6.73,-1.68l-2.42773e-06,9.44331e-07c2.96814,-1.15454 5.84326,-2.53526 8.6,-4.13l-6.11018e-07,4.47742e-07c0.634235,-0.464755 1.36044,-0.78865 2.13,-0.95c0.33,4.87 0.59,9.7 0.7,14.54l5.5756e-08,-3.1476e-08c-0.914744,0.516402 -1.90271,0.890681 -2.93,1.11l1.67209e-06,-4.18169e-07c-5.31905,1.33023 -10.7612,2.10768 -16.24,2.32l2.30127e-07,-2.01468e-08c-1.42143,0.124442 -2.82669,-0.375612 -3.85,-1.37l2.93847e-06,2.68651e-06c-4.09353,-3.74252 -7.56381,-8.11412 -10.28,-12.95c-0.38,-4.22 1.41,-7.69 4,-10.8l-9.69228e-07,1.12551e-06c4.03314,-4.68346 8.6162,-8.86362 13.65,-12.45c14.1,-10.59 29.22,-19.33 45.86,-25.33l3.20355e-06,-1.11919e-06c8.11813,-2.83615 16.4081,-5.15414 24.8199,-6.93998c4.62,-1 9.23,-2.12 13.92,-2.8c4.21,-0.61 8.42,-1.17 12.65,-1.66c5.51,-0.63 11,-1.19 16.56,-1.73c4.6,-0.45 9.21,-0.84 13.82,-1.25c5.28,-0.466667 10.5633,-0.923333 15.85,-1.37c3.57,-0.3 7.13,-0.57 10.7,-0.85c6.08667,-0.473333 12.1733,-0.943333 18.26,-1.41c3.87,-0.29 7.75,-0.55 11.63,-0.82c6.66667,-0.473333 13.31,-0.94 19.93,-1.4l-4.38404e-07,8.10667e-08c0.663798,-0.122745 1.34641,-0.0988539 2,0.0699997l2.63749e-07,-1.20511e-06c-0.203334,0.929066 -0.293988,1.87925 -0.27,2.83l-2.07,15.2h-1c-18.47,0 -36.94,-0.22 -55.41,0.3c-8.14,0.23 -16.28,0.44 -24.42,0.74c-10.3,0.386667 -20.5767,1.05333 -30.83,2c-2.35,0.21 -4.69,0.56 -7.22,0.86l1.75,2.85c0.39,1.29 1.18,2.55 0.41,4c-1.4,2.23 -2.77,4.48 -4.19,6.69l-29.06,45.12l-2.3914e-07,2.85451e-07c-0.431855,0.515488 -0.718372,1.13685 -0.83,1.8c0.86,-0.52 1.65,-0.4 2.24,-0.9c0.19,0 0.39,0.08 0.45,-0.2h0.06l1.11958e-06,-2.68944e-07c3.49898,-0.840519 6.93153,-1.9368 10.27,-3.27999l-6.96355e-06,2.42017e-06c3.24595,-1.12812 6.41584,-2.46422 9.48997,-3.99998c0.61,1.19 -0.27,2.06 -0.36,3l7.07545e-07,-1.5091e-06c-2.273,4.848 -5.3119,9.29831 -9,13.18l1.04119e-08,-1.14449e-08c-0.74353,0.817294 -1.7156,1.39217 -2.79,1.65c-4.67,1.09 -9.41,1.82 -14.13,2.64l2.91589e-07,-8.21441e-08c-0.472998,0.133249 -0.959291,0.213739 -1.45,0.24c-2.58,-0.15 -3.89,1.46 -5.21,3.37c-3.37,4.88 -5.91,10.21 -8.71,15.4c-2.39,4.43 -4.77,8.87 -7.07,13.35l1.25798e-07,-2.69204e-07c-0.414533,0.887088 -1.19643,1.54841 -2.14,1.81c-4.16,1.33 -8.43,2.24 -12.65,3.32l-1.9436e-06,3.86849e-07c-1.4461,0.287828 -2.86974,0.678827 -4.25999,1.17l-1.44,0.26c1.21,-2.83 2.66,-5.42 4,-8.06c1.13,-2.25 2.47,-4.39 3.42,-6.72c2,-3.21 3.56,-6.68 5.44,-10c1,-1.81 2,-3.66 3,-5.51c0.25,-0.48 0.64,-0.92 0.54,-1.53v0l-1.75703e-10,2.36469e-11c0.209964,-0.0282433 0.376582,-0.190797 0.41,-0.4l9.05432e-07,-1.23352e-06c0.755177,-1.02882 1.3988,-2.13504 1.92,-3.3c-3.48,0.43 -6.76,0.88 -10,1.21l2.79572e-06,-4.41934e-07c-2.49172,0.393879 -5.00776,0.614409 -7.53,0.66l-7.54628e-09,-5.85244e-08c-0.0946997,-0.734436 0.0233019,-1.48062 0.34,-2.15l-1.29876e-06,2.93503e-06c0.920692,-2.08065 2.08554,-4.04444 3.47,-5.85l-6.48412e-08,8.59543e-08c0.749228,-0.993186 1.88946,-1.61612 3.13,-1.71c5.37,-0.69 10.7,-1.6 16,-2.58l9.42771e-08,-9.56442e-09c0.723234,-0.0733722 1.36702,-0.49016 1.73,-1.12c12.75,-20.55 27.31,-39.8 42.32,-58.73l-6.81642e-08,1.04258e-07c0.0662326,-0.101303 0.123133,-0.208409 0.17,-0.32c0.9,-1.27 2.35,-2.21 2.62,-4.1c-0.56,0.06 -0.86,0.07 -1.15,0.13l-9.50063e-06,2.1027e-06c-4.56573,1.0105 -9.06704,2.29277 -13.4799,3.83996l-8.64548e-07,3.12323e-07c-15.2481,5.50849 -29.6639,13.0932 -42.84,22.54l1.10901e-05,-7.52563e-06c-7.15319,4.85408 -13.8327,10.3718 -19.95,16.48l3.00756e-06,-2.88302e-06c-1.65476,1.58624 -3.14561,3.33506 -4.44999,5.21999l5.18469e-08,6.22175e-08c0.543091,0.651723 1.46597,0.838803 2.21998,0.450021Z" transform="translate(171.25, 260.067)"></path><path d="M1.18144e-08,0.81c0,-0.81 0.57,-0.74 1.09,-0.76l-2.77277e-09,1.15693e-08c-0.118158,0.493006 -0.586547,0.819589 -1.09,0.76Z" transform="translate(415.68, 360.95)"></path><path d="M0.41,0.13l1.88578e-09,-8.24571e-10c-0.0967772,0.0423186 -0.197187,0.0757886 -0.3,0.1c0,0 -0.07,-0.08 -0.11,-0.13l2.89778e-08,-1.25677e-08c0.0968911,-0.0420218 0.197274,-0.0754828 0.3,-0.1c0,0 0.07,0.07 0.11,0.13Z" transform="translate(202.88, 394.87)"></path><path d="M0.19,0l-0.19,0.19c0,0 0,-0.1 0,-0.12l-1.91091e-08,1.20059e-08c0.0495655,-0.0311413 0.103489,-0.054733 0.16,-0.07Z" transform="translate(216.25, 389.22)"></path><path d="M2.12428e-07,8.3258l-2.12428e-07,1.08202e-06c0.251795,-1.28254 0.644163,-2.53342 1.17,-3.73l-1.04305e-07,2.7647e-07c0.251384,-0.666315 0.922104,-1.0778 1.63,-1l2.35315e-07,-8.54818e-09c0.846546,-0.0307521 1.66328,-0.32045 2.34,-0.83c-0.07,-0.76 -0.92,-0.62 -1.16,-1.24l-7.22312e-08,3.31023e-07c0.199994,-0.916535 1.07037,-1.5258 2,-1.4c0.29,1.28 0.29,1.28 1.42,1.56c0.06,0 0.17,0 0.17,0c0.28,1.9 2.35,1.08 3.2,2.1l7.71436e-08,7.8979e-08c0.254539,0.260595 0.528675,0.5013 0.82,0.72l-0.27,0.32l5.87153e-07,3.28846e-07c-1.34714,-0.754493 -2.80516,-1.29113 -4.32,-1.59l1.63523e-08,-1.91508e-07c-0.150453,1.76202 0.296927,3.52336 1.27,5l-1.35184e-07,-2.51761e-07c0.618752,1.15234 2.04627,1.59705 3.21,1l2.41476e-07,-1.52525e-07c1.08064,-0.682567 1.44779,-2.0856 0.84,-3.21c-0.07,-0.17 -0.15,-0.34 -0.23,-0.51l0.24,-0.22c1.35,1.55 1.37,2.7 0.08,4l8.82238e-09,-8.77367e-09c-1.17481,1.16833 -3.0743,1.16307 -4.24262,-0.0117408c-0.012572,-0.0126417 -0.025031,-0.0253953 -0.0373756,-0.0382591c-1.24,-1.19 -1.35,-2.84 -1.8,-4.36l5.62418e-08,3.0173e-07c-0.0689054,-0.369668 -0.109026,-0.744125 -0.12,-1.12c-2.05,1.12 -2.68,3.58 -5,4.6c0.67,-1.7 2.33,-2.41 2.9,-3.92c-1.84,-0.2 -2.17,0.06 -2.74,1.66c-0.279999,0.799999 -0.359999,1.81 -1.37,2.22Z" transform="translate(327.75, 83.3342)"></path><path d="M1.26,2.36c-0.18,0.45 -0.26,0.83 0.44,0.86l-4.55357e-07,-1.11548e-08c1.86495,0.0456852 3.6811,-0.598868 5.1,-1.81l7.15109e-08,-8.09155e-08c0.600471,-0.67944 1.38575,-1.16937 2.26,-1.41l-9.02049e-08,1.28454e-07c-1.08463,1.54454 -2.63267,2.70382 -4.42,3.31l1.93034e-07,-5.33269e-08c-1.05479,0.291394 -1.93516,1.01897 -2.42,2c-0.25,0.46 -0.39,1 -1.08,1.24c-0.12,-1 0.92,-1.57 0.94,-2.5c-0.61,-0.45 -1.4,-0.38 -2.08,-0.71c0.11,-0.66 0.59,-0.93 1,-1.24l5.40489e-08,6.96402e-08c0.0754438,0.0972068 0.162794,0.184556 0.260002,0.259999Z" transform="translate(315.58, 97.32)"></path><path d="M2.07,0.89c0.6,0 0.68,-0.89 1.58,-0.79l-1.41511e-06,2.32724e-06c-1.00576,1.65405 -2.13215,3.23166 -3.37,4.72c-0.28,-0.88 0.19,-1.25 0.47,-1.64l1.99172e-08,-2.05359e-08c0.630036,-0.64961 1.09326,-1.44223 1.35,-2.31Z" transform="translate(325.29, 91.89)"></path><path d="M4.0611e-08,0.59l-4.0611e-08,9.50708e-08c0.113334,-0.265317 0.324682,-0.476666 0.59,-0.59l0.24,0.31l-2.04424e-08,5.76948e-08c-0.0941164,0.265626 -0.309754,0.47011 -0.58,0.55l4.76319e-08,3.9986e-08c-0.0943131,-0.0791737 -0.178304,-0.169884 -0.25,-0.27Z" transform="translate(316.6, 98.82)"></path><path d="M0.58,0.21l1.59999e-08,-1.14224e-07c-0.0263227,0.187919 -0.158776,0.343747 -0.34,0.4l-0.24,-0.31l0.31,-0.3l4.7264e-08,2.25751e-08c0.104087,0.0497159 0.196192,0.121353 0.27,0.21Z" transform="translate(317.19, 98.52)"></path><path d="M0.23,0l9.60654e-10,1.55296e-10c0.195486,0.0315983 0.344117,0.192615 0.36,0.39l-0.24,0.22l-0.35,-0.36Z" transform="translate(339.47, 88.24)"></path><path d="M0.27,0l2.47452e-08,3.93324e-09c0.192175,0.0305461 0.344341,0.178708 0.38,0.37l-0.24,0.24l-0.41,-0.29Z" transform="translate(339.05, 87.86)"></path><path d="M8.45,1.74l5.38121e-07,1.0486e-07c-2.80167,-0.545944 -5.69061,-0.450216 -8.45,0.279999c1.72,-1.87 6.39,-2.02 8.45,-0.279999Z" transform="translate(198.61, 100.13)"></path><path d="M7.84,1.81l1.22527e-06,2.91822e-07c-2.59411,-0.617836 -5.30911,-0.500094 -7.84,0.339998c1.73,-2.04 5.72,-2.15 7.84,-0.339999Z" transform="translate(198.92, 101.56)"></path><path d="M0,1.85c2.27,-1.83 5.5,-1.85 7.19,0c-1.32,0 -2.42,-0.66 -3.62,-0.62c-1.2,0.04 -2.23,0.83 -3.57,0.62Z" transform="translate(199.31, 103.06)"></path><path d="M2.09,0c0.31,1.71 -1,2.72 -1.61,4c-0.46,-0.26 -0.48,-0.5 -0.34,-0.83l1.37369e-07,-2.51746e-07c0.548232,-1.0047 1.03902,-2.0397 1.47,-3.1c0,-0.06 0.34,0 0.51,-0.06Z" transform="translate(208.03, 103.51)"></path><path d="M0.24,0.03c0.12,0 0.33,0 0.35,0c0.57,1.26 1.55,2.33 1.74,3.77c-1,-1.08 -2.33,-2 -2.07,-3.8Z" transform="translate(195.41, 103.87)"></path><path d="M0.85,0c0.83,1.6 0.2,2.64 -0.51,3.74c-0.34,-0.74 -0.17,-2.08 0.51,-3.74Z" transform="translate(209.89, 108)"></path><path d="M1.21,3.58c0,-1.13 -1.21,-2.1 -0.42,-3.58l4.28605e-07,8.38583e-07c0.504944,0.987944 0.881336,2.03647 1.12,3.12c0.19,0.53 -0.41,0.41 -0.73,0.43Z" transform="translate(194.47, 108.49)"></path><path d="M15.38,6.6c-0.76,0.09 -1.66,0 -2.09,1.11c-0.24,0.65 -1.22,0.59 -1.85,0.33l3.95788e-07,1.87253e-07c-2.13331,-1.0093 -4.60669,-1.0093 -6.74,-3.74505e-07l-2.87408e-08,1.7149e-08c-0.381923,0.227885 -0.858077,0.227885 -1.24,-3.42981e-08c-0.8,-0.64 -1.41,-1.5 -2.5,-1.77c-0.31,-0.08 -0.33,-0.58 -0.22,-0.82l8.26939e-08,-1.75379e-07c0.473447,-1.0041 0.162133,-2.20307 -0.74,-2.85c0.34,-0.69 0.79,-1.13 1.46,-1.06l-6.19208e-07,-4.14053e-08c1.60131,0.107077 3.20518,-0.16709 4.68,-0.8c2,-0.74 3.77,-0.12 5.54,0.5l-6.09086e-08,-2.47153e-08c1.01944,0.413663 2.10984,0.624271 3.21,0.62c0.48,0 1,-0.09 1.31,0.46l2.17749e-08,4.28579e-08c0.234331,0.461218 0.0782008,1.02502 -0.36,1.3c-0.53,0.41 -0.47,0.88 -0.3,1.46l4.62638e-08,1.43744e-07c0.163047,0.506596 0.104956,1.05846 -0.16,1.52Zm-0.71,-3.55l-1.12536e-06,-1.1284e-07c-1.33383,-0.133743 -2.64472,-0.439619 -3.9,-0.91l-9.42058e-08,-4.38193e-08c-1.51394,-0.704199 -3.24767,-0.769079 -4.81,-0.18l-1.11052e-06,4.13042e-07c-1.20692,0.448896 -2.48238,0.685717 -3.77,0.7c-0.16,0 -0.24,0.06 -0.22,0.25c0.1,0.65 0.85,0.21 1.16,0.63c-0.24,0.67 -1.25,0.94 -1.21,1.95l4.87207e-07,-1.95934e-07c2.01649,-0.810945 4.16666,-1.23827 6.34,-1.26c2,0 4.05,0.81 6.24,1.3c-0.38,-0.74 -0.91,-1.12 -1,-1.72c0.210004,-0.52 0.910004,-0.28 1.17,-0.77Zm-2.15,3.79c-0.73,-1.19 -2,-1.17 -3.15,-1.21c-1.88,-0.06 -3.89,-0.48 -5.78,0.94c1.72,0.36 3,-0.71 4.47,-0.66c1.47,0.05 2.89,0.81 4.46,0.93Z" transform="translate(392.69, 93.16)"></path><path d="M3.36,1.71l2.57094e-08,-4.7601e-07c-0.0499584,0.92498 -0.728555,1.69461 -1.64,1.86l-4.42205e-08,-8.00456e-09c-0.849571,-0.153785 -1.52596,-0.79871 -1.72,-1.64l-6.65342e-08,2.29511e-06c0.0289092,-0.997248 0.788339,-1.82068 1.78,-1.93l2.9068e-08,1.3882e-09c0.905111,0.0432257 1.60833,0.804301 1.58,1.71Z" transform="translate(402.7, 89.43)"></path><path d="M1.87605,0.0715311l-1.17102e-07,9.05487e-09c0.925077,-0.0715311 1.73299,0.620405 1.80452,1.54548c0.0715311,0.925077 -0.620405,1.73299 -1.54548,1.80452c-0.0862169,0.00666667 -0.17282,0.00666668 -0.259037,1.81097e-08l-2.93308e-08,2.26798e-09c-0.925077,0.071531 -1.73299,-0.620405 -1.80452,-1.54548c-0.071531,-0.925077 0.620405,-1.73299 1.54548,-1.80452c0.0862169,-0.00666667 0.17282,-0.00666666 0.259037,4.53596e-09Z" transform="translate(395.604, 89.3385)"></path><path d="M2.42931,3.84l6.9871e-08,2.25039e-09c-1.32677,-0.0427322 -2.38463,-1.12263 -2.4,-2.45l9.78781e-09,1.52079e-07c-0.0293073,-0.455364 0.306159,-0.852627 0.76,-0.9c0.72,-0.1 1.42,-0.49 2.18,-0.19c0.76,0.3 1.59,-0.13 1.67,1l-1.84803e-08,-6.43979e-07c0.0306559,1.06825 -0.608062,2.0423 -1.6,2.44l7.6668e-08,-2.02578e-08c-0.199669,0.052758 -0.403938,0.0862447 -0.61,0.1Zm1.06,-2.17l-1.5579e-07,-6.30687e-08c-0.729679,-0.295397 -1.55,-0.269989 -2.26,0.0700001c1.09,1.24 1.18,1.24 2.26,-0.0700001Z" transform="translate(164.401, 99.76)"></path><path d="M3.60337,1.78l-3.11,2l-2.09147e-07,-6.58899e-07c-0.38739,-1.22044 -0.493374,-2.51275 -0.31,-3.78l-6.19983e-09,-1.42217e-09c1.27312,0.29204 2.45041,0.904782 3.42,1.78Z" transform="translate(159.497, 85.77)"></path><path d="M0,2.16l8.43097e-07,-7.52343e-07c1.03533,-0.923885 2.22739,-1.65538 3.52,-2.16l6.48265e-07,4.18646e-06c0.190111,1.22773 0.217011,2.47521 0.0799992,3.71c-1.46,-0.0300007 -2,-1.46 -3.6,-1.55Z" transform="translate(170.14, 85.67)"></path><path d="M1.44,9.01l-2.25704e-08,5.85615e-08c0.812503,-2.10814 2.12314,-3.98832 3.82,-5.48l-2.25425e-07,2.06402e-07c1.18701,-1.08684 2.61154,-1.88129 4.16,-2.32c0.47,-0.12 1,-0.33 1.27,0.3c0.07,0.14 0.21,0.41 0.33,0.25c1.29,-1.76 2.6,-0.14 3.44,0.31l1.71309e-07,9.1936e-08c2.98374,1.60128 5.15996,4.37958 6,7.66c0.86,3.13 0.93,6.37 1.32,9.57c-1.06,0.11 -1.15,-0.76 -1.45,-1.28l3.53564e-08,6.49304e-08c-0.965112,-1.77238 -2.04056,-3.48241 -3.22,-5.12c-0.8,-1.06 -2.07,-1.78 -2.39,-3.2c0,-0.09 -0.18,-0.24 -0.25,-0.22c-1.78,0.42 -3.48,-1.28 -5.32,-0.16l6.52255e-09,-5.85804e-09c-0.423775,0.3806 -1.03397,0.471144 -1.55,0.23c-0.5,-0.3 -0.51,0.31 -0.72,0.56l1.15278e-06,-1.35187e-06c-2.34765,2.75309 -4.36163,5.77405 -6,8.99999l1.06816e-08,-2.95038e-08c-0.134243,0.370796 -0.485655,0.618381 -0.88,0.62c0.19,-3.28 0.65,-6.44 1.12,-9.6v0c0.489995,-0.31999 0.409995,-0.71999 0.319995,-1.11999Zm4.8,-2.34c2.17,1.35 3,1.46 3.68,0.66c1.17,-1.38 1.07,-2.14 -0.71,-4.63c-1.22,1.23 -0.71,2.88 -1.18,4.34c-0.88,-0.51 -1,-1.73 -2,-2c-2.11,1.61 -3.7,5.46 -3.57,8.28c1.37,-2.22 3.98,-3.5 3.83,-6.65Zm8.21,0.27c1.16,-0.58 1,0.26 1.19,0.92l4.22382e-08,4.03599e-07c0.0700785,0.669621 0.303588,1.31177 0.68,1.87c1,1.11 2,2.24 3.27,3.64c-0.41,-3.56 -1.45,-6.41 -4.21,-8.77c-0.0900002,0.96 -0.79,1.33 -0.88,2.34Zm-2.1,-4.05l-1.08,2c-0.51,1 0.17,1.63 0.6,2.33l-1.49114e-07,-2.03697e-07c0.409652,0.559603 1.11673,0.816363 1.79,0.65c0.38,0 1,-0.42 0.61,-0.78c-1,-0.88 -0.65,-2.05 -0.86,-3.07c-0.0899998,-0.62 -0.2,-1.03 -0.97,-1.13Z" transform="translate(352.56, 102.68)"></path><path d="M2.83716,0c1.09,1.69 2.41,3.08 1.5,5.26c-0.22,0.52 0.34,1.35 0.52,2.05c0.24,1 0.38,2 -0.6,2.66l-2.67926e-08,1.26784e-08c-1.06647,0.504659 -2.30883,0.474991 -3.35,-0.08l9.75412e-08,6.82672e-08c-0.638617,-0.446956 -0.907165,-1.26074 -0.66,-2l9.70852e-08,-4.26278e-07c0.287282,-1.26139 0.454693,-2.5471 0.5,-3.83999l-2.27303e-07,2.02526e-06c0.175197,-1.561 0.919224,-3.00278 2.09,-4.05001Zm-0.16,4.76l-4.81089e-07,6.5055e-07c-0.700959,0.947869 -1.15774,2.05376 -1.33,3.22c-0.17,0.9 0.29,1.34 1.25,1.4c0.96,0.06 1.4,-0.36 1.28,-1.31l2.56764e-08,3.40507e-07c-0.0899056,-1.19228 -0.504947,-2.33711 -1.2,-3.31Z" transform="translate(238.163, 88.5)"></path><path d="M0.778619,2.96306e-08c0.54,0.05 0.94,0.26 1,0.87c0.06,0.61 -0.31,0.63 -0.7,0.65c-0.39,0.02 -1.07,0 -1.05,-0.66l-2.64704e-08,-4.10667e-07c-0.0286187,-0.443996 0.306237,-0.827964 0.75,-0.86Z" transform="translate(243.611, 93.89)"></path><path d="M0,0.35c0.84,-0.19 1.56,-0.35 1.87,0.6l3.12465e-08,1.02117e-07c0.0840303,0.27462 -0.0704728,0.565363 -0.345092,0.649393c-0.0341684,0.0104551 -0.0693234,0.0173606 -0.104908,0.0206069c-0.97,0.19 -1.26,-0.38 -1.42,-1.27Z" transform="translate(236.05, 93.65)"></path><path d="M0.41,0c0,0.4 0.12,0.8 -0.3,1.07c0.04,-0.38 -0.11,-0.81 0.3,-1.07Z" transform="translate(353.59, 111.69)"></path><path d="M65.7124,30.98l5.42737e-07,-6.83411e-09c3.08927,-0.0388997 6.09964,-0.980943 8.66,-2.71l1.24798e-07,-9.26902e-08c0.544137,-0.404143 0.904174,-1.00901 1,-1.68c3.91,-12.78 12.3,-21.1 25,-25.06l-2.58868e-07,7.11348e-08c0.888331,-0.244106 1.78976,-0.437748 2.69997,-0.579996c5,-0.95 8.33,1.71 11.27,5.19l-1.08693e-07,-1.15409e-07c1.76356,1.87252 2.54494,4.46479 2.11,7l-3.7217e-08,7.66671e-08c-1.34362,2.76786 -3.337,5.16952 -5.81,7l5.04029e-06,-3.89628e-06c-5.58883,4.32032 -11.6512,7.99059 -18.07,10.94c-2,1 -2.83,2.1 -2.44,4.2v0.18c-0.42,2.09 1,3.3 3.18,3.26l1.03355e-06,-1.96209e-08c3.82395,-0.072594 7.5829,-1.00208 11,-2.72l3.22172e-06,-1.64989e-06c4.99696,-2.55901 9.55683,-5.89369 13.51,-9.87999c1.9,-1.85 3.82,-3.67 5.7,-5.47l3.21,3.36c-0.07,0.3 -0.78,0.5 -1,1.07c-0.23,0.2 -0.47,0.38 -0.68,0.59l2.93278e-06,-3.00442e-06c-5.14293,5.26856 -10.843,9.96276 -17,14l4.11738e-08,-2.72527e-08c-5.87839,3.89087 -12.5821,6.35939 -19.58,7.21l3.98238e-07,-8.51731e-08c-1.3331,0.285117 -2.71962,0.188061 -4,-0.28c-5.43,-2.62 -9.81,-6.12 -10.52,-12.69c0,0 0,0 -0.09,0c-0.51,0.21 -1,0.45 -1.52,0.65l-8.67996e-07,3.79645e-07c-3.80757,1.66536 -8.03438,2.12259 -12.11,1.31l1.0447e-07,2.49768e-08c-0.66935,-0.160029 -1.36605,0.125898 -1.73,0.71l1.6673e-07,-1.87315e-07c-1.35455,1.52179 -2.82205,2.93915 -4.39,4.24c-3.13,2.71 -6.37,5.27 -10.37,6.62l3.4649e-07,-1.55981e-07c-1.35511,0.610034 -2.88345,0.716415 -4.31,0.3c-4,-1.44 -7.38,-3.62 -9.4,-7.52l-0.13,-1.78v-3.25c-2.42,2.11 -4.72,4.16 -7.07,6.14l-8.51341e-07,7.50327e-07c-3.23654,2.85252 -6.79375,5.31907 -10.6,7.34999l1.12553e-07,-6.28674e-08c-2.08506,1.16463 -4.62494,1.16463 -6.71,1.25735e-07l-5.51627e-07,-2.73405e-07c-2.04463,-1.01339 -3.82244,-2.49318 -5.19,-4.32l4.51582e-08,1.60897e-07c-0.332407,-1.18435 -0.269207,-2.44484 0.18,-3.59l4.31441e-06,-1.60669e-05c2.26231,-8.42485 5.00002,-16.7148 8.19999,-24.83c1,-2.57 1.94,-5.17 3.17,-7.65c0.88,-1.77 0.91,-1.8 2.61,-1l5.75886e-08,2.70034e-08c2.51591,1.17971 4.85508,2.70438 6.95,4.53l-6.94427e-08,-5.11656e-08c1.24634,0.918306 1.71497,2.56262 1.14,4c-1.49,4.56 -3.26,9 -4.91,13.5c-1,2.77 -2,5.54 -2.84,8.39l1.71208e-07,-6.12679e-07c-0.215022,0.769472 -0.365543,1.55553 -0.45,2.35c0.46,0.44 0.88,0.2 1.34,0l1.19244e-06,-6.429e-07c1.628,-0.877732 3.15967,-1.92343 4.56999,-3.12c3.61,-2.81 6.94,-5.95 10.39,-8.94l1.54753e-07,-1.47416e-07c0.62438,-0.594775 1.02663,-1.38516 1.14,-2.24c1.63,-7.34 4.49,-14.27 7,-21.31c2.73,0.28 9.94,4.25 12.78,7l2.95357e-06,-7.01718e-06c-3.45447,8.20721 -6.10357,16.7306 -7.91,25.45l-9.01429e-08,5.01091e-07c-0.163277,0.907635 -0.246929,1.8278 -0.25,2.75c0,0.88 0.45,1.2 1.31,1.05l1.32675e-07,-2.59081e-08c0.665016,-0.129861 1.30161,-0.377049 1.88,-0.73l1.34013e-06,-8.13694e-07c3.0695,-1.86372 5.75712,-4.29344 7.92,-7.16c0.32,-0.4 0.61,-0.74 0.33,-1.31c-1.17,-2.36 -0.88,-4.8 -0.29,-7.23l-3.39548e-06,1.43589e-05c1.35968,-5.74984 3.64986,-11.2388 6.77999,-16.25c1.16,-1.83 1.21,-1.8 3.22,-0.83l1.25059e-06,5.99858e-07c2.21596,1.06291 4.2428,2.4817 5.99999,4.19999c1.25,1.23 2.2,2.53 1.45,4.41l-9.16158e-08,3.93498e-07c-0.0564253,0.242351 -0.0766447,0.491724 -0.0599999,0.74l-2.83605e-07,6.93462e-07c-2.11396,5.16899 -4.96338,10.0056 -8.46,14.36l-1.87726e-07,-5.40374e-08c0.71252,0.205101 1.46443,0.232571 2.19002,0.0800084Zm38.58,-18.57c0.14,-0.06 0.24,-0.13 0.17,-0.31l0.1,-0.39c0.09,-0.36 0.16,-0.72 0.26,-1.08l-9.79867e-09,2.39517e-08c0.285087,-0.696859 0.10089,-1.49772 -0.46,-2l2.52249e-08,1.67485e-08c-0.691962,-0.459441 -1.60152,-0.419016 -2.25,0.0999999l-1.23465e-06,7.4327e-07c-0.89534,0.539003 -1.7016,1.2137 -2.39,2l-3.63671e-06,4.40485e-06c-3.25863,3.94691 -5.75138,8.46776 -7.34999,13.33c-0.12,0.34 -0.56,0.68 -0.08,1.18l1.58,-1.26l-1.06804e-08,7.08394e-09c2.71294,-1.79941 5.16875,-3.95917 7.3,-6.42l2.00242e-07,-2.04314e-07c1.42374,-1.4527 2.49165,-3.21543 3.12,-5.14999Z" transform="translate(264.288, 304.41)"></path><path d="M12.59,33.75c0,0.68 -0.05,1.36 -0.05,2c0,16.12 0,32.2367 0,48.35c0,0.74 0,1.48 0,2.22l-1.00671e-05,6.76763e-06c-3.90239,2.6234 -7.63638,5.48902 -11.18,8.57997c-0.4,0.33 -0.68,0.92 -1.36,0.77c0,-13.84 0,-27.6833 0,-41.53c0,-17.3333 0,-34.6367 0,-51.91v-2.15h12.48v17.8h30.42v-17.88h12.35c0,0.68 0.06,1.36 0.06,2c0,19.5267 0,39.0533 0,58.58l-1.84398e-07,1.39621e-06c-0.0883208,0.668738 -0.0441477,1.34832 0.13,2l-0.22,0.78c-1.21,0.44 -2.42,0.85 -3.61,1.32c-2.89,1.16 -5.77,2.34 -8.66,3.52c0,-10.8267 0,-21.6567 0,-32.49c0,-0.68 0,-1.35 -0.06,-2l1.24505e-07,-8.17155e-07c0.162862,-1.0689 0.115304,-2.15933 -0.14,-3.21h-30.16Z" transform="translate(176.82, 210)"></path><path d="M47.9646,19.4375h8.86v24.13c-0.65,0.35 -1.3,0.69 -1.94,1l4.09326e-07,-2.41401e-07c-13.0856,7.71723 -29.2124,8.19277 -42.73,1.26c-5.52,-2.91 -9.46,-7.17 -11.15,-13.33c-0.51,-1.85 -0.39,-3.77 -0.86,-5.62l-2.59382e-07,-6.19023e-06c-0.1446,-3.45093 0.364333,-6.89809 1.5,-10.16l-1.2886e-06,3.1725e-06c1.99165,-4.90338 5.69381,-8.91821 10.42,-11.3l-1.57666e-06,8.36622e-07c4.8406,-2.56857 10.1501,-4.13317 15.61,-4.6l-3.61285e-07,4.10832e-08c7.18918,-0.817511 14.4694,0.115679 21.22,2.72l-1.54979e-06,-5.87044e-07c1.71135,0.648242 3.34753,1.47975 4.87999,2.48c-0.16,0.91 -0.87,1.43 -1.08,2.2l-5.26,8.43c-1.53,-0.69 -2.87,-1.46 -4.33,-2l-1.69904e-06,-5.61331e-07c-5.77234,-1.90707 -11.951,-2.22827 -17.89,-0.929999l-1.94754e-06,3.25545e-07c-3.16955,0.529813 -6.18002,1.76339 -8.81,3.61c-3,2.23 -3.66,5.34 -3.33,8.82l-5.49506e-07,4.39481e-05c-0.019185,1.53455 0.2001,3.06276 0.650013,4.53l-1.72413e-07,-8.19354e-07c0.437446,2.07886 1.96927,3.7562 4,4.38l2.00351e-06,8.03722e-07c4.09367,1.6422 8.41283,2.65372 12.81,3l1.88055e-06,1.11897e-07c4.29547,0.25559 8.60063,-0.30079 12.69,-1.64c0.9,-0.29 1.34,-0.78 1,-1.76l1.27048e-08,-8.42762e-08c0.150344,-0.997294 0.119857,-2.01351 -0.09,-3h-16.57v-12.21h18.18l1.14988e-07,1.54404e-08c0.736927,0.098954 1.48399,0.0955889 2.22,-0.00999979Z" transform="translate(270.525, 208.642)"></path><path d="M17.51,82.42c0.32,-0.53 0.85,-0.56 1.28,-0.74l-2.07009e-07,7.36932e-08c2.31839,-0.825326 4.0806,-2.74093 4.71,-5.12l-2.86525e-07,7.96711e-07c0.522094,-1.45173 0.858104,-2.96378 1,-4.5c0.05,-4 -1.83,-6.67 -5.38,-8.29c-1.18,-0.54 -2.35,-1.1 -3.52,-1.65l-5.5236e-07,-2.53077e-07c-0.734004,-0.336302 -1.39354,-0.815656 -1.94,-1.41l-1.58451e-07,-1.84781e-07c-1.24391,-1.45061 -1.07634,-3.63494 0.374265,-4.87884c0.0281946,-0.024177 0.0567766,-0.0478986 0.085735,-0.0711553l-1.77865e-08,1.72867e-08c0.760414,-0.739047 1.97597,-0.721725 2.71501,0.0386897c0.305771,0.314612 0.494575,0.724454 0.534986,1.16131l-3.45941e-07,-2.88768e-06c0.110116,0.919176 0.163551,1.84426 0.16,2.77h7c0.62,0 0.83,-0.4 0.88,-1l-2.59282e-08,1.8814e-07c0.245787,-1.78347 0.081625,-3.59951 -0.48,-5.31l1.17957e-07,3.05773e-07c-0.965582,-2.50302 -3.31996,-4.19817 -6,-4.32l4.32112e-07,5.2519e-08c-2.14841,-0.261118 -4.32277,-0.220727 -6.46,0.119999c-3.63,0.6 -5.74,2.88 -7.07,6.1l4.2617e-08,-1.1435e-07c-0.64765,1.73778 -0.986091,3.57551 -1,5.43l-7.74884e-09,8.78526e-08c-0.29929,3.39321 1.58291,6.60378 4.69,8c1.09,0.58 2.25,1 3.38,1.51l-4.5375e-07,-1.84487e-07c0.862345,0.350615 1.65743,0.847969 2.35,1.47l1.32038e-07,1.30507e-07c1.34729,1.33167 1.35995,3.50338 0.0282841,4.85067c-0.0759304,0.0768211 -0.155447,0.150013 -0.238284,0.21933l3.65327e-09,-3.51235e-09c-0.871903,0.838263 -2.25827,0.810992 -3.09653,-0.0609113c-0.325612,-0.338679 -0.533678,-0.773093 -0.593471,-1.23909l-1.91486e-07,-1.32444e-06c-0.117837,-0.815034 -0.184633,-1.63663 -0.2,-2.46c-2.38,-0.27 -4.71,0 -7,-0.07c-0.77,0 -0.77,0.66 -0.8,1.22c-0.23,3.57 0.5,6.65 4.21,8.27h-7.13c0,-2.68 0.26,-5.31 0.29,-7.94c0,-4.25 0.25,-8.51 0.47,-12.76c0.33,-6.53 0.48,-13.06 0.76,-19.59c0.27,-6.34 0.47,-12.69 0.74,-19c0.27,-6.31 0.55,-12.93 0.73,-19.4c0,-1.2 0.23,-2.39 0.37,-3.77c2,1.72 3.83,3.34 5.71,4.91l1.04983e-06,8.52871e-07c6.876,5.58598 14.6541,9.95864 23,12.93c1.7,0.64 1.67,0.62 1.43,2.44c-0.66,5.05 -1.26,10.12 -1.93,15.17c-0.56,4.14 -1.22,8.26 -1.78,12.4c-0.56,4.14 -1,8.17 -1.55,12.25c-0.41,3.17 -0.86,6.33 -1.28,9.5c-0.42,3.17 -0.89,6.57 -1.3,9.85l-6.52944e-07,2.49804e-06c-0.256036,0.979544 -0.387077,1.98755 -0.389999,3Z" transform="translate(293.36, 113.83)"></path><path d="M12.55,33.75v11.55c-4.17,0.57 -8.36,0.81 -12.55,1v-46.21h12.45v17.81h30.4v-17.9h12.34c0,0.31 0.07,0.61 0.07,0.92c0,13.4067 0,26.81 0,40.21l2.02914e-09,9.35657e-09c0.0940014,0.433458 -0.0377109,0.885043 -0.35,1.2c-3.88,0.22 -7.91,0.73 -12,0.7l-0.09,-9.29l1.24505e-07,-8.17155e-07c0.162862,-1.0689 0.115304,-2.15933 -0.14,-3.21h-30.13Z" transform="translate(340.45, 210)"></path><path d="M4.69636e-06,1.07013e-06l-4.69636e-06,-1.07013e-06c10.9335,2.49134 22.1864,3.27729 33.36,2.33c2.18667,9.70667 4.32333,19.4567 6.41,29.25c2.08,9.73 4.3,19.43 6.52,29.4c-2.78,0 -5.24,0 -7.7,0c-1.1,0 -2.43,0.43 -3.25,-0.22c-0.82,-0.65 -0.36,-2.09 -0.45,-3.18c-0.62,-7.25333 -1.21,-14.51 -1.77,-21.77c-0.21,-2.65 -0.34,-5.3 -0.53,-7.95c-0.1,-1.33 -0.41,-1.79 -1.68,-1.63c-3.16,0.38 -6.28,-0.26 -9.42,-0.17l1.8995e-07,-6.38904e-08c-0.155925,0.052446 -0.306585,0.119406 -0.45,0.2c1.5,11.43 3.38,22.9 5,34.68c-2.12,0.1 -4.13,0.09 -6.14,0c-0.83,0 -0.75,-0.9 -0.92,-1.43c-1.81,-5.57 -3.58,-11.16 -5.38,-16.74c-4.41333,-13.72 -8.83,-27.44 -13.25,-41.16c-0.119995,-0.4 -0.219995,-0.83 -0.349995,-1.61Z" transform="translate(180.87, 135.36)"></path><path d="M30.2,6.41421e-10l-9.54799e-10,-6.41421e-10c0.270143,0.181472 0.419698,0.49592 0.39,0.82c0.16,4.68 0.3,9.37 0.49,14c0.2,5 0.55,10.09 0.66,15.14c0.1,4.32 0.37,8.62 0.49,12.94c0.18,6.16 0.53,12.31 0.74,18.47c0.2,5.91 0.69,11.81 0.67,17.73c0,0.8 0.51,1.54 0.16,2.39c-0.54,0.39 -1.14,0.24 -1.87,0.07c-0.16,-2.49 -0.36,-5 -0.49,-7.51c-0.426667,-8.14 -0.84,-16.2767 -1.24,-24.41c0,-0.75 -0.12,-1.36 -1.09,-1.35c-2.27,0 -4.54,0 -7.08,0l1.42,19.42c-0.77,-0.17 -0.66,-0.86 -0.81,-1.32c-1.83,-5.56 -3.61,-11.14 -5.42,-16.71c-0.54,-1.67 -0.55,-1.69 -2.31,-1.7c-2.52,0 -5,0 -7.83,0c0.82,11.26 2.83,22.3 3.34,33.5c-0.48,0.41 -1,0.26 -1.58,0.13l-1.09501e-07,-3.63245e-07c-0.477554,-1.58418 -0.76951,-3.21846 -0.87,-4.86999c-0.68,-4.37 -1.24,-8.75 -1.82,-13.13c-0.54,-4.08 -1,-8.16 -1.58,-12.24c-0.58,-4.08 -1.17,-8 -1.73,-12c-0.44,-3.16 -0.8,-6.34 -1.23,-9.5c-0.43,-3.16 -0.92,-6.31 -1.37,-9.47c-0.06,-0.43 0,-0.86 -0.11,-1.29c-0.13,-1 0.25,-1.38 1.2,-1.71l-3.43957e-06,1.19241e-06c3.42473,-1.18726 6.76562,-2.6038 10,-4.24l1.92664e-07,-9.47643e-08c6.08749,-2.99421 11.7201,-6.8357 16.73,-11.41c0.18,-0.17 0.36,-0.34 0.55,-0.5Z" transform="translate(239.23, 114.57)"></path><path d="M0,60.59l12.71,-58.47l-4.8898e-06,-4.21677e-07c11.1834,0.964411 22.4481,0.249835 33.42,-2.11999l-18.31,57.53h-0.38l-4,-32l-7,0.49l-3.14013e-08,7.66104e-09c-0.358272,0.0874085 -0.722645,0.14758 -1.09,0.18c-1.06,-0.09 -1.47,0.41 -1.81,1.38c-2.3,6.5 -4.79,12.93 -7,19.46c-1.43,4.2 -3,8.35 -4.45,12.52c-0.379955,0.91999 -0.769955,1.55999 -2.08996,1.02999Z" transform="translate(339.29, 135.52)"></path><path d="M26.61,0.12v1.8c0,22.3867 0,44.77 0,67.15l-5.37229e-08,-4.97543e-06c0.0126027,1.16713 -0.27676,2.31769 -0.839998,3.34c-1.81,3.37 -3.56,6.77 -5.34,10.15c-0.19,0.36 -0.25,0.83 -0.9,1v-19.14h-19.53l26.31,-64.42Z" transform="translate(389.08, 131.88)"></path><path d="M26.06,62.85h-19v20.18l-0.27,0.07c-0.39,-0.67 -0.81,-1.32 -1.17,-2c-1.67,-3.16 -3.3,-6.34 -5,-9.49l3.2683e-07,5.68411e-07c-0.399109,-0.694115 -0.612639,-1.47936 -0.62,-2.28c0,-22.86 0,-45.72 0,-68.58l-2.53729e-07,1.7343e-06c0.0369317,-0.252437 0.0869996,-0.502777 0.15,-0.75Z" transform="translate(151.15, 133.45)"></path><path d="M0,59.02c0,-8.45333 0,-16.9067 0,-25.36c0,-10.5533 0,-21.1067 0,-31.66v-2h12.28c0,0.68 0.07,1.35 0.07,2c0,17.2 0,34.3967 0,51.59l4.77544e-08,-3.59751e-07c-0.0888424,0.669281 -0.0412186,1.34962 0.14,2l-0.17,0.43c-1.19,0.28 -2.37,0.6 -3.57,0.85c-2.94,0.71 -5.78,1.7 -8.75,2.15Z" transform="translate(245.37, 209.98)"></path><path d="M0,0.00999973c1.72,0 3.17,0.9 4.72,1.46c1.74,0.62 3.43,1.36 5.14,2.06l1.68418e-07,4.6816e-08c0.597983,0.166225 1.08982,0.591998 1.34,1.16c1.26,3.18 2.59,6.34 4,9.79c-3.35,-1.64 -6.43,-3.12 -9.61,-4.4l1.23266e-07,4.66222e-08c-0.345412,-0.130643 -0.627961,-0.388156 -0.79,-0.72c-1.58,-3.13 -3.43,-6.11 -4.78,-9.36Z" transform="translate(240.91, 373.65)"></path><path d="M0,14.17c0.6,-2.53 2,-4.75 2.72,-7.23l-4.48622e-08,1.88616e-07c0.476896,-2.00503 2.01124,-3.58924 4,-4.13c2.22,-0.72 4.33,-1.75 6.56,-2.47l-1.2214e-07,6.12125e-08c0.497441,-0.249301 1.05937,-0.340048 1.61,-0.26v0c-0.94,2.74 -2.7,5.06 -3.83,7.7l5.76668e-08,-1.51984e-07c-0.564154,1.48686 -1.77533,2.63545 -3.29,3.12c-2.13,0.75 -4.12,1.87 -6.18,2.81c-0.49,0.22 -0.94,0.61 -1.55,0.45Z" transform="translate(311.07, 373.57)"></path><path d="M10.79,15.36l-6.83,-4.56l-1.79296e-07,-9.74192e-08c-0.380358,-0.206665 -0.677238,-0.538887 -0.84,-0.94c-1,-3.19 -2,-6.39 -3.12,-9.86c2,0.87 3.45,2.1 5.1,3l2.85379e-07,1.29707e-07c2.55181,1.15981 4.2636,3.62387 4.46,6.42l-1.90769e-06,-1.26343e-05c0.302107,2.0008 0.712707,3.9837 1.22998,5.93994Z" transform="translate(260.21, 382.03)"></path><path d="M0.59,14.93c-0.59,-1.24 0.06,-2.3 0.26,-3.31c0.32,-1.61 0.67,-3.22 1,-4.82l-2.40382e-08,1.25382e-07c0.196496,-1.02491 0.817785,-1.9187 1.71,-2.46c2.27,-1.44 4.44,-3 7,-4.34c0.22,1.2 -0.38,2.12 -0.62,3c-0.58,2.18 -1.41,4.29 -2.1,6.44l3.74479e-09,-1.56466e-08c-0.100467,0.419776 -0.344553,0.791211 -0.69,1.05c-2.17,1.53 -4.34,2.98 -6.56,4.44Z" transform="translate(295.84, 382.07)"></path><path d="M0.31,0l6.34,18.4l1.73287e-06,-1.95092e-07c-1.58697,0.178667 -3.18694,0.212139 -4.77999,0.100001c-0.40001,-1.43 -1.87001,-16.59 -1.56001,-18.5Z" transform="translate(255.69, 177.79)"></path><path d="M0.0708074,13.46c0,-2.31 0,-4.35 0,-6.39l3.10939e-08,2.45093e-07c-0.0708074,-0.558128 0.0799772,-1.12178 0.42,-1.57l-4.60543e-06,5.29204e-06c1.72675,-1.98418 3.61305,-3.82366 5.64,-5.5c0.32,1.67 -0.32,3.07 -0.35,4.53l4.45547e-07,-6.01202e-06c-0.0730478,0.985675 -0.196543,1.96696 -0.369999,2.94l-6.60123e-09,8.16187e-08c-0.0700855,0.866552 -0.48866,1.66762 -1.16,2.22c-1.41,1.17 -2.78,2.47 -4.18,3.77Z" transform="translate(285.529, 392.84)"></path><path d="M8.06,0.0400138v6.53h-7.54c-0.52,-0.82 0.13,-1.53 0.24,-2.28c0.14,-1 0.52,-1.89 0.7,-2.85l-3.96688e-08,1.33977e-06c0.0238637,-0.805983 0.696587,-1.44002 1.50257,-1.41615c0.0325359,0.000963329 0.0650304,0.00301445 0.0974292,0.00614992c1.61,0.0200001 3.18,0.0100001 5,0.0100001Z" transform="translate(349.33, 189.62)"></path><path d="M1.43048e-06,9.80654e-07l-1.43048e-06,-9.80654e-07c2.14685,1.47175 4.09026,3.22015 5.78,5.2l1.91711e-08,2.02543e-08c0.213277,0.225328 0.349792,0.512359 0.39,0.82c0.17,2.31 0,4.62 0.4,6.92l-0.35,0.14l-4.73,-4.25l-3.11456e-09,-3.07386e-09c-0.220825,-0.217942 -0.352707,-0.51022 -0.37,-0.82c-0.37,-2.67 -0.74,-5.34 -1.12,-8.01Z" transform="translate(275.08, 393.17)"></path><path d="M3.55,0l2.80655e-06,2.8065e-05c0.42825,4.28242 0.578564,8.58809 0.449998,12.89l4.18581e-07,-5.86223e-08c-1.32686,0.185826 -2.67314,0.185826 -4,1.17244e-07c1.17,-4.35998 2.48,-8.57998 3.55,-12.89Z" transform="translate(353.35, 169.12)"></path><path d="M0.218321,62.58l-2.22368e-07,-8.3212e-07c-0.174148,-0.651678 -0.218321,-1.33126 -0.13,-2c0,-19.5267 0,-39.0533 0,-58.58c0,-0.68 0,-1.36 -0.06,-2c0.59,0.31 0.35,0.87 0.35,1.32c0,20.14 0,40.28 0,60.42l-4.53778e-09,-4.31236e-08c0.0304784,0.289644 -0.0251784,0.581842 -0.16,0.84Z" transform="translate(232.052, 210.09)"></path><path d="M0.228842,55.59l1.0248e-08,3.67788e-08c-0.181218,-0.650377 -0.228842,-1.33072 -0.14,-2c0,-17.2 0,-34.3967 0,-51.59c0,-0.68 0,-1.35 -0.07,-2c0.77,0.47 0.38,1.22 0.39,1.83c0,8.08 0,16.16 0,24.24c0,9.25333 0,18.5067 0,27.76l-3.55307e-08,-1.77655e-07c0.118284,0.591422 0.0555555,1.20477 -0.18,1.76Z" transform="translate(257.611, 210.08)"></path><path d="M0.14,0.18l1.61704e-08,6.77363e-09c-0.049761,-0.0208444 -0.0967785,-0.0477115 -0.14,-0.08c0,0 0,-0.06 0,-0.1l0.12,0.2Z" transform="translate(240.8, 373.46)"></path><path d="M0.06,0.29c-0.06,-0.12 0,-0.29 0.08,-0.25c0.3,0.22 0,0.17 -0.11,0.22Z" transform="translate(325.85, 373.36)"></path><path d="M0.14,0l-0.14,0.19c0,0 0,-0.09 0,-0.1l-6.49158e-09,3.84136e-09c0.0438781,-0.025965 0.0909368,-0.0461331 0.14,-0.06Z" transform="translate(310.86, 387.72)"></path><path d="M0,0.3c0.09,-0.21 0.23,-0.3 0.45,-0.2c-0.06,0.28 -0.26,0.22 -0.45,0.2Z" transform="translate(244.28, 341.39)"></path><path d="M0.00581016,0.400654l-7.09508e-09,-2.62928e-07c-0.00581015,-0.215313 0.164025,-0.394568 0.379338,-0.400378c0.0102218,-0.000275833 0.0204505,-0.000149545 0.0306624,0.000378569l1.10555e-09,-6.92086e-09c-0.0334182,0.209203 -0.200036,0.371757 -0.41,0.4Z" transform="translate(211.644, 361.439)"></path><use transform="translate(327.77, 91.64)" xlink:href="#path-2"></use><path d="M0,0v0v0v0v0Z" transform="translate(333.69, 83.49)"></path><path d="M0.0508274,0.31l-1.66067e-08,-3.60579e-08c-0.0508274,-0.110361 -0.0025661,-0.241029 0.107795,-0.291857c0.019726,-0.00908495 0.0406885,-0.015199 0.0622055,-0.0181433c0.07,0.18 -0.03,0.26 -0.17,0.31Z" transform="translate(368.529, 316.51)"></path><path d="M0.0718413,0.0500001l-0.07,-0.05l4.7304e-09,-6.84269e-08c-0.00184128,0.0266349 -0.00184128,0.0533651 -9.46073e-09,0.08Z" transform="translate(327.318, 92.7)"></path><use transform="translate(189.72, 391.07)" xlink:href="#path-3"></use><use transform="translate(195.68, 103.87)" xlink:href="#path-4"></use><use transform="translate(190.1, 390.33)" xlink:href="#path-5"></use><use transform="translate(188.98, 392.56)" xlink:href="#path-6"></use><use transform="translate(190.47, 389.59)" xlink:href="#path-2"></use><path d="M296.067,23.5801c-5.89,5 -11.23,10.52 -17.65,15c-0.3,-3.74 -0.52,-7.25 -0.88,-10.75l4.711e-08,3.45759e-07c-0.133093,-0.976821 0.195853,-1.95996 0.89,-2.66c1.11,-1.22 2.11,-2.47 3.11,-3.7l5,-6.06c-4.38,-1 -8.55,-2.09 -12.75,-3l-2.5635e-08,-4.47289e-09c-0.782812,-0.136577 -1.45842,-0.627592 -1.83,-1.33c-2.05,-3.37 -4.16,-6.7 -6.24,-10.06c-0.19,-0.3 -0.51,-0.56 -0.38,-1h-0.37c-2.15,3.59 -4.34,7.15 -6.43,10.77l1.55367e-07,-2.94049e-07c-0.51537,0.975389 -1.44633,1.66349 -2.53,1.87c-4,0.94 -8,2 -12.22,3c0.58,0.71 1.05,1.31 1.55,1.89c2.25,2.63 4.46,5.29 6.8,7.84l-3.14758e-08,-3.3855e-08c0.749287,0.805911 1.07857,1.91586 0.89,3c-0.36,4.05 -0.62,8.11 -0.92,12.19c0.59,0.23 1,-0.13 1.4,-0.3c3.46,-1.44 6.93,-2.88 10.36,-4.38l-3.50607e-07,1.66827e-07c0.888917,-0.422968 1.92108,-0.422968 2.81,-3.33654e-07c3.22,1.36 6.48,2.63 9.75,3.94c-7.09,6.13 -26.92,14.46 -35.19,14.75c0,-1.14 0,-2.28 0,-3.42l1.7676e-06,-0.000145298c0.0375437,-3.08654 -0.260889,-6.16801 -0.890029,-9.18999l2.9595e-08,1.10631e-07c-0.17157,-0.641372 0.0156874,-1.32543 0.49,-1.79c2.19,-2.51 4.36,-5.06 6.53,-7.59l2.05,-2.42l-9,-2.29c-1.61,-0.41 -3.48,-0.47 -4.74,-1.37c-1.26,-0.9 -1.78,-2.6 -2.62,-4c-1.35,-2.21 -2.68,-4.43 -4,-6.64c-0.28,-0.46 -0.44,-1 -1,-1.3c-2.25,3.61 -4.52,7.2 -6.72,10.84l1.41135e-08,-2.63917e-08c-0.408226,0.763356 -1.14658,1.29497 -2,1.44c-4.13,0.93 -8.25,1.95 -12.36,2.93c-0.06,0.69 0.46,1 0.8,1.43c2.26,2.7 4.46,5.46 6.82,8.07l1.18282e-07,1.18735e-07c0.965352,0.96904 1.34577,2.3766 1,3.7l-2.857e-06,1.64923e-05c-0.494126,2.85239 -0.827982,5.73024 -0.999998,8.62c-0.1,1 0.49,2 0,3.19l-2.80637e-06,-4.61774e-07c-12.8498,-2.11438 -25.0253,-7.21062 -35.55,-14.88c0.1,-0.6 0.61,-0.58 1,-0.73c3.29,-1.37 6.6,-2.7 9.88,-4.11l1.48004e-07,-7.14226e-08c0.713941,-0.344531 1.54606,-0.344531 2.26,1.42845e-07c3.5,1.5 7,2.93 10.56,4.38c0.44,0.18 0.89,0.35 1.4,0.54c0.22,-2.21 -0.32,-4.28 -0.36,-6.37c-0.04,-2.09 -0.28,-4.44 -0.55,-6.64l3.93211e-08,2.56651e-07c-0.120302,-0.78525 0.135209,-1.58141 0.69,-2.15c2.82,-3.27 5.59,-6.57 8.52,-10l-7.29,-1.83l1.01525e-06,3.08647e-07c-1.40951,-0.428508 -2.84602,-0.762581 -4.29997,-0.999995l1.24341e-07,1.41627e-08c-1.59606,-0.181799 -2.97495,-1.19882 -3.62,-2.67c-1.8,-3.16 -3.74,-6.23 -5.62,-9.34h-1.18c-2.13,3.53 -4.3,7 -6.38,10.6l7.86167e-09,-1.18416e-08c-0.450718,0.678927 -1.18778,1.11379 -2,1.18c-3.76,0.92 -7.53,1.81 -11.3,2.7l2.03927e-08,-1.87902e-09c-0.334827,0.0308558 -0.648956,0.175567 -0.89,0.41c0,0.5 0.44,0.77 0.72,1.11c2.5,2.98667 5.01,5.96 7.53,8.92l1.88593e-08,1.83727e-08c0.483972,0.471463 0.726898,1.13767 0.66,1.81c-0.38,4 -0.67,8 -1,12.28l1.91882e-06,1.43614e-06c-6.58989,-4.93221 -12.4305,-10.793 -17.34,-17.3999c-4.93,-6.6 -8.35,-14.05 -12.06,-21.34c-0.68,0.29 -0.75,0.9 -1,1.37c-3,5.85 -5.81,11.82 -9.52,17.29l-3.74555e-07,5.48787e-07c-5.09232,7.46113 -11.3367,14.0666 -18.5,19.57l2.48438e-08,-2.80506e-08c-0.393717,0.444529 -0.932287,0.735073 -1.52,0.82c-0.17,-3 -0.17,-6 -0.55,-9l1.04355e-07,6.07379e-07c-0.483676,-2.81509 0.5587,-5.67592 2.74,-7.52l2.59876e-06,-2.60658e-06c1.83253,-1.83805 3.57139,-3.76715 5.21,-5.78l-1.29878e-07,1.14975e-07c0.526962,-0.466491 0.949508,-1.03897 1.24,-1.68c-4.15,-1.14 -8.28,-2.3 -12.43,-3.38l-2.32298e-07,-3.97504e-08c-0.726083,-0.124249 -1.35773,-0.568602 -1.72,-1.21c-2,-3.59 -4.08,-7.16 -6.12,-10.74h-1.11c-2.2,3.42 -4.41,6.84 -6.58,10.28l9.36307e-08,-1.76117e-07c-0.345776,0.6504 -0.966866,1.10979 -1.69,1.25c-4.22,0.86 -8.42,1.8 -12.63,2.71c-0.13,0.61 0.35,0.89 0.63,1.25c2.43,3 4.84,6.1 7.33,9.09l-8.76953e-08,-1.01885e-07c0.561387,0.652234 0.796757,1.52384 0.64,2.37c-0.46,4.11 -0.9,8.22 -1.34,12.33c0,0.11 0.08,0.22 0.15,0.41l1.66873e-06,-4.27266e-07c1.23335,-0.315791 2.43507,-0.744259 3.59,-1.28c2.82,-1 5.63,-2.14 8.43,-3.25l-3.64598e-08,2.04254e-08c0.593737,-0.33262 1.30466,-0.383923 1.94,-0.14c3.75,1.7 7.52,3.37 11.3,5.06c-5.8,5.85 -26.25,14.26 -35.87,14.78c-0.39,-0.37 -0.3,-0.9 -0.33,-1.36c-0.27,-3.76 -0.49,-7.52 -0.79,-11.28l-5.66761e-08,-4.74266e-07c-0.116539,-0.975196 0.210052,-1.9513 0.89,-2.66c2.79,-3.14 5.5,-6.34 8.36,-9.65c-2,-0.79 -4.09,-1.06 -6,-1.67c-1.91,-0.61 -4.26,-0.7 -6.12,-1.9c-2,0.36 -2.37,-1.31 -3.09,-2.49c-1.64,-2.68 -3.22,-5.4 -4.86,-8.08c-0.31,-0.51 -0.47,-1.15 -1.21,-1.51l-2.82,4.49c-1.31,2.09 -2.66,4.16 -3.92,6.27l7.53535e-08,-1.44348e-07c-0.400902,0.767964 -1.14365,1.29903 -2,1.43c-3.61,0.76 -7.19,1.65 -10.78,2.5c-0.58,0.14 -1.15,0.31 -1.87,0.51c2.5,3 4.84,6 7.34,8.76l1.02331e-07,9.94442e-08c1.23778,1.20288 1.83783,2.91782 1.62,4.63c-0.46,3.85 -0.74,7.72 -1.1,11.72l-1.01121e-05,-1.91967e-06c-12.2205,-2.31992 -23.8092,-7.20765 -34,-14.34c0.21,-0.7 0.8,-0.68 1.2,-0.86c2.59,-1.13 5.23,-2.15 7.8,-3.33l1.38105e-07,-6.90952e-08c1.15194,-0.576321 2.50806,-0.576321 3.66,1.3819e-07c3.09,1.37 6.23,2.63 9.36,3.9l3.20993e-07,1.95974e-07c0.562926,0.343679 1.21046,0.523743 1.87,0.52c0.11,-2.87 -0.41,-5.72 -0.55,-8.59c-0.08,-1.6 -0.23,-3.2 -0.42,-4.8c-0.09,-0.75 0.4,-1.13 0.78,-1.59c2.42,-2.89 4.85,-5.77 7.27,-8.66c0.34,-0.41 0.87,-0.72 0.89,-1.4c-4.23,-1.05 -8.44,-2.13 -12.68,-3.12l-1.4678e-07,-1.76415e-08c-0.602564,-0.0724246 -1.13965,-0.414538 -1.46,-0.93c-2.25,-3.68 -4.52,-7.35 -6.77,-11c-0.06,-0.09 0,-0.24 0,-0.36h-0.37c-2.18,3.64 -4.41,7.25 -6.53,10.93l-8.27968e-08,1.54505e-07c-0.462585,0.863207 -1.28873,1.47272 -2.25,1.66c-1.62,0.38 -3.23,0.76 -4.84,1.16l-7.59,1.9c2.64,3.1 5.06,6.07 7.64,8.9c1.26,1.38 2,2.7 1.45,4.6l-1.57946e-07,9.80303e-07c-0.118215,0.733709 -0.16177,1.47751 -0.13,2.22c-0.17,2.31 -0.36,4.62 -0.56,7.23c-6.59,-4.58 -11.94,-10.17 -18,-15.27c0,1 0,1.66 0,2.34v200.87c0,14.84 0,29.68 0,44.52l3.98242e-07,-2.80394e-05c-0.0868202,6.11271 0.985423,12.1865 3.15999,17.9c3.19,8.15 8.73,14.39 15.87,19.28c8.35,5.72 17.56,9.63 27.16,12.68c1.43,0.46 2.89,0.84 4.41,1.28l-9.74,20.32l6.45196e-09,1.07684e-08c0.125763,0.209878 0.393814,0.28458 0.61,0.17c15.04,-4.19333 30.0767,-8.39 45.11,-12.59l-1.81122e-07,5.28698e-08c0.878339,-0.256389 1.81166,-0.256389 2.69,-3.56979e-07l-8.87147e-07,-2.38098e-07c4.68865,1.25837 9.30546,2.7706 13.83,4.53l-1.23824e-05,-4.68524e-06c15.7521,5.96023 29.9357,15.4376 41.47,27.71l-1.23699e-06,-1.53702e-06c1.07495,1.33567 2.29962,2.54357 3.65,3.6c0.59,-0.6 1.12,-1.12 1.63,-1.66l9.70486e-06,-1.05728e-05c5.14065,-5.6004 10.7954,-10.7061 16.89,-15.25c17.71,-12.9 37.77,-19.55 59.14,-22.9c5.89,-0.93 11.79,-1.66 17.58,-3.27l6.59545e-06,-1.73908e-06c9.57912,-2.52581 18.8389,-6.1358 27.6,-10.76l-2.76817e-07,1.44692e-07c5.09708,-2.66422 9.74377,-6.11296 13.77,-10.22c7.83,-8.23 11.35,-18.21 11.36,-29.42c0.0333333,-82.2333 0.0333333,-164.467 0,-246.7l1.77142e-07,-1.25138e-06c0.104701,-0.739627 0.0327346,-1.49354 -0.210006,-2.2Zm-50.82,-7.43l9.49,-2.41c0.59,-0.15 1.19,-0.3 1.79,-0.39l2.80124e-09,-3.66526e-10c1.02984,-0.134929 1.94799,-0.716548 2.51,-1.59l4.18571e-06,-8.0948e-06c1.11861,-2.16329 2.35031,-4.2662 3.69,-6.3l-1.00011e-06,1.89661e-06c0.707253,-1.34123 1.52332,-2.62219 2.44,-3.83c2,3.35 4.29,6.37 5.82,9.84l3.89591e-08,4.91673e-09c0.195365,0.0246529 0.360957,0.155586 0.43,0.34l2.26742e-07,3.02825e-07c0.506447,0.67638 1.23639,1.1512 2.06,1.34001c3.81,0.8 7.59,1.78 11.67,2.77l-8.08,9.69c-1.72,-4.8 -4.17,-9.15 -6.2,-13.7l-1.71785e-08,-3.10702e-08c-0.0313898,-0.0567751 -0.06823,-0.110361 -0.11,-0.16l-9.61372e-08,-6.98401e-08c-2.22138,-1.61379 -5.06598,-2.10513 -7.7,-1.33l1.88327e-07,-5.97038e-08c-1.17251,0.371715 -2.23662,1.02391 -3.1,1.9l2.34235e-06,-5.65445e-06c-1.21938,2.94361 -2.63247,5.80319 -4.22997,8.55994l2.72626e-07,-4.58746e-07c-0.958883,1.6135 -1.63527,3.37886 -2,5.22Zm7.89,23.45c0,-4.34 0.54,-8.48 0.88,-12.64l1.78468e-07,5.32809e-07c0.952417,2.8434 3.25844,5.02569 6.15,5.82l1.99636e-07,3.9734e-08c0.757178,0.150702 1.33542,0.765086 1.44,1.53c0,1 0.64,1 1.31,1.16Zm12.24,-5.45v0c-0.49,0 -1,0 -1.48,0l8.15453e-08,-1.57506e-08c-0.618655,0.119498 -1.23394,-0.221858 -1.46,-0.81l3.80805e-08,7.39092e-08c-0.458604,-0.890099 -1.29132,-1.52839 -2.27,-1.74l-1.06716e-07,-3.12693e-08c-0.884682,-0.259226 -1.70783,-0.694612 -2.42,-1.28l2.50602e-08,1.59798e-08c-2.34033,-1.49227 -3.1987,-4.49657 -2,-7c0.57,-1.46 1.51,-2.78 2.23,-4.19c0.89,-1.74 1.73,-3.51 2.59,-5.26l1.06211e-08,-2.30757e-08c0.664597,-1.44379 2.13161,-2.34687 3.72,-2.29l-3.10807e-07,2.23445e-08c1.231,-0.0884991 2.4683,-0.0145304 3.68,0.219999l2.93363e-07,4.38422e-08c0.929326,0.138885 1.73989,0.705173 2.19,1.53c1.63,3.82 3.85,7.37 5.17,11.32l-4.47508e-08,-1.50978e-07c0.645106,2.17649 -0.202082,4.51943 -2.09,5.78l5.13526e-07,-3.86774e-07c-0.734975,0.553565 -1.55591,0.982612 -2.43,1.27l2.07274e-08,-3.56886e-09c-1.17397,0.202127 -2.19676,0.916982 -2.79,1.95l-2.6972e-08,6.60202e-08c-0.162144,0.396858 -0.576905,0.629124 -1,0.56c-0.48,-0.0599983 -1.08,-0.0599983 -1.64,-0.0599983Zm2.44,1.31c0.84,-0.2 1.4,-0.28 1.31,-1l-2.84454e-08,-5.95121e-07c-0.0310092,-0.648744 0.421542,-1.22084 1.06,-1.34l1.80095e-07,-4.08245e-08c2.87424,-0.651528 5.28731,-2.59232 6.54,-5.26c0.11,3.83 0.91,7.57 0.91,11.66Zm-19.78,-4.89l-8.11,9.5c-1.3,-4.38 -2.48,-8.62 -5.19,-12.77Zm-19.87,-14.59c1.25,2.24 2.9,4.09 3.66,6.87c-1.13,-0.89 -2,-1.49 -2.75,-2.17l-3.0479e-08,-3.4157e-08c-0.478006,-0.535716 -1.29979,-0.5825 -1.83551,-0.104494c-0.0367846,0.0328219 -0.0716724,0.0677098 -0.104494,0.104494c-0.51,0.44 -1.09,0.81 -1.6,1.25l3.0268e-08,-3.93802e-08c-0.28923,0.376307 -0.803131,0.497471 -1.23,0.29Zm-20.07,14.39l13.23,-3.12l9.51641e-07,-1.66263e-06c-2.28918,3.99946 -4.00273,8.30184 -5.09,12.78Zm7.61,22.68c1.24,-2.33 0.53,-4.95 1.07,-7.39l6.96384e-07,-4.91141e-06c0.247183,-1.74332 0.614728,-3.46744 1.1,-5.16l0.11,-0.8c-0.07,-0.29 -0.08,-0.55 0.25,-0.7l-1.07842e-06,5.72607e-06c0.579646,-3.07773 1.70394,-6.02731 3.32,-8.71l-7.51417e-07,1.67447e-06c0.622621,-1.38746 1.35145,-2.72477 2.18,-4l-7.2383e-08,1.69721e-07c0.320559,-0.751636 0.940434,-1.33526 1.71,-1.61l-3.01843e-08,1.10513e-08c0.594129,-0.21753 1.05029,-0.70336 1.23,-1.31l-4.9622e-09,1.16979e-08c0.286231,-0.674826 0.864031,-1.1827 1.57,-1.38c2.4,2.54 5,4.94 6.34,8.38l3.07618e-07,5.02888e-07c1.326,2.16772 2.30451,4.52964 2.9,7c0.15,0.64 0.33,1.27 0.49,1.9c0.45,0.3 0.28,0.75 0.28,1.16v0.11l2.32802e-07,6.58163e-07c0.528659,1.49459 0.864699,3.05045 0.999999,4.63l7.62244e-07,4.06409e-06c0.363511,1.93815 0.5277,3.90842 0.489999,5.88c-0.09,1 0.79,1.85 0.23,2.94c-3.54,-1.49 -7.1,-3 -10.63,-4.5l1.08852e-07,5.14374e-08c-0.873682,-0.412854 -1.88632,-0.412854 -2.76,-2.38073e-07c-3.54,1.49 -7.11,2.92 -10.61,4.36c-0.289995,-0.320007 -0.369995,-0.600007 -0.269995,-0.800007Zm23.83,1.63l4.55788e-06,-8.74001e-07c-7.84235,1.50382 -15.8878,1.6189 -23.77,0.340002l9.46984e-08,-7.55917e-08c0.533942,-0.426211 1.14512,-0.745379 1.8,-0.94c3.07,-1.25 6.15,-2.48 9.2,-3.78l1.57295e-07,-7.57582e-08c0.767793,-0.369797 1.66221,-0.369797 2.43,1.51516e-07c3.41,1.49 6.87,2.92 10.34,4.38Zm-60.51,-20.89c0.37,-2.26 0,-4.56 0.6,-6.79l-2.64754e-08,9.29394e-08c0.240742,-0.845117 -0.0144612,-1.7538 -0.66,-2.35c-1.07,-1.1 -2,-2.35 -3,-3.65c0.84,-0.26 1.34,0.27 1.91,0.46c0.81,0.27 1.62,0.58 2.44,0.83c2.62,0.8 3.25,2.25 2,4.71l1.12546e-07,-2.55887e-07c-0.0990273,0.225149 -0.18582,0.455484 -0.259999,0.689996l4.66953e-08,2.23044e-08c0.104087,0.0497159 0.196192,0.121353 0.27,0.21c2.35,-2.79 1.39,-5.59 -2.17,-6.33l-2.32218e-07,-5.75728e-08c-1.52133,-0.377172 -2.937,-1.09527 -4.14,-2.1c2.7,-0.76 5.41,-1 8,-1.6l-1.51076e-07,2.91811e-08c0.686747,-0.13265 1.38383,0.174066 1.75,0.77c0.58,0.72 1.2,1.4 1.81,2.09c1.06,1.18 2.24,1.95 3.86,1.06l2.75577e-09,-1.48066e-09c0.1383,-0.0742351 0.309752,-0.0407812 0.41,0.08c-0.26,-0.5 0.47,-0.64 0.45,-1.06c-0.39,-0.35 -0.66,0 -1,0.18c-1.41,0.7 -1.8,0.68 -2.91,-0.42l-1.03527e-06,-1.0461e-06c-0.736133,-0.743832 -1.43371,-1.52485 -2.09,-2.34l-7.43748e-08,-1.06538e-07c-0.576226,-0.825398 -1.60786,-1.20126 -2.58,-0.94c-2.58,0.52 -5.18,0.9 -7.78,1.32c-0.62,0.1 -1.19,0.22 -1.25,1.09l-3.63,-4.35l9.38,-2.3c0.71,-0.17 1.44,-0.31 2.16,-0.47l1.38378e-07,-1.83718e-08c0.911869,-0.121063 1.71281,-0.666146 2.16,-1.47c1.83,-3.47 4.08,-6.69 6.17,-10.26c2.22,3.65 4.54,7.06 6.44,10.73c0.17,0.44 0.74,0.58 0.8,1.09c1.72,-0.3 3.28,0.45 4.88,0.79c2.52,0.54 5,1.23 7.62,1.88l7.20596e-07,-1.05583e-06c-1.06972,1.56737 -2.25644,3.0516 -3.55,4.44l1.18902e-06,-1.53558e-06c-1.25258,1.61767 -2.58769,3.16973 -4,4.65l3.14438e-07,-3.25703e-07c-0.729698,0.755843 -1.05317,1.81549 -0.87,2.85c0.33,3.73 0.64,7.47 1,11.2c-0.57,0.38 -1,0.06 -1.43,-0.12c-3.23,-1.35 -6.47,-2.66 -9.68,-4.05l2.06246e-07,1.01976e-07c-0.762604,-0.377063 -1.6574,-0.377063 -2.42,-2.03952e-07c-3.2,1.4 -6.45,2.7 -9.68,4c-0.43,0.18 -0.84,0.54 -1.48,0.2c0.259998,-1.55999 0.199998,-3.17999 0.459998,-4.72999Zm-73.38,-33l6.64,11.52c-0.52,0.53 -1.12,0.56 -1.57,0.86l6.01358e-09,-4.41469e-09c-0.752403,0.552323 -1.76843,0.580213 -2.55,0.07l4.03608e-07,2.26086e-07c-1.48186,-0.830079 -3.26868,-0.911636 -4.82,-0.22l7.89314e-08,-4.39395e-08c-0.950974,0.529391 -2.12341,0.455137 -3,-0.19l-1.35478e-07,-5.93936e-08c-0.647711,-0.283957 -1.25607,-0.650316 -1.81,-1.09Zm-13.11,37.81l-5.00404e-07,2.0895e-05c0.0512854,-2.1415 0.224901,-4.27831 0.519998,-6.4c0.11,-1.78 0.36,-3.56 0.58,-5.33l8.80391e-09,-5.61522e-08c0.162194,-1.03444 -0.154179,-2.08657 -0.86,-2.86c-2.45,-2.93 -4.8,-6 -7.36,-9.15l11.94,-2.59c-0.27,1.94 0.35,3.36 2.11,4.11l1.48108e-07,-4.29304e-07c-0.470056,1.36249 -0.686958,2.79947 -0.64,4.24l-1.69788e-06,4.85304e-05c-0.105151,3.00557 0.0252491,6.01477 0.390005,8.99998l-1.11497e-07,-2.20277e-06c0.0481427,0.951141 0.708131,1.76094 1.63,2c0.55,0.16 1.23,0.36 1.27,0.92c0.1,1.47 1.17,1.29 2.15,1.56Zm10,-7.44l6.56655e-09,5.3351e-09c-0.40682,-0.330581 -0.60842,-0.851698 -0.53,-1.37l1.08386e-07,-1.84986e-06c0.0521203,-0.889551 -0.437499,-1.72269 -1.24,-2.11l3.02098e-08,1.53486e-08c-0.611525,-0.310686 -0.948366,-0.984368 -0.83,-1.66c0.06,-1.85 0.1,-3.71 0,-5.56l1.06009e-07,1.84306e-06c-0.0936665,-1.62846 0.292256,-3.24864 1.11,-4.66c-1,-0.66 -2.63,-0.65 -2.55,-2.39c0.48,-0.16 0.75,0.13 1,0.3c1.41,0.81 2.71,1.26 4.38,0.29l-3.11447e-07,1.55933e-07c1.2564,-0.629042 2.75605,-0.52165 3.91,0.28l1.12879e-07,7.9277e-08c0.969104,0.680616 2.2609,0.680616 3.23,-1.58552e-07l2.36578e-07,-1.66936e-07c0.454269,-0.320544 0.985941,-0.513879 1.54,-0.56c-0.15,1.26 -0.15,1.26 -2.46,2.41l1.09234e-07,2.07613e-07c0.759018,1.44262 1.06568,3.0805 0.88,4.7c-0.08,1.42 -0.11,2.84 -0.13,4.26c-0.02,1.42 -0.08,2.55 -1.55,3.21c-0.76,0.34 -0.88,1.13 -0.86,1.91c0.02,0.78 -0.4,1.33 -1.25,1.15l1.40775e-06,1.45763e-07c-1.5745,-0.163029 -3.15725,-0.233151 -4.74,-0.210001Zm2.67,2.81l5.76492e-08,-2.07074e-08c0.500187,-0.179672 1.04097,-0.214337 1.56,-0.1c0.76,0.08 1.33,0 1.42,-1c0.07,-0.75 0.74,-0.91 1.34,-1c1.22,-0.28 1.46,-1.14 1.78,-2.24c0.91,-3.11 0.63,-6.29 0.87,-9.44l2.56714e-08,-1.63176e-07c0.0672399,-0.427371 0.0672398,-0.862629 -5.13446e-08,-1.29c-0.35,-1.37 -0.35,-2.52 1.1,-3.36c0.83,-0.49 0.73,-1.6 0.89,-2.64l10.84,2.89c-0.06,0.75 -0.65,1.14 -1.07,1.62c-2.25,2.54 -4.48,5.09 -6.79,7.58l-2.44148e-07,2.65928e-07c-0.582157,0.634089 -0.840299,1.50071 -0.7,2.35c0.26,3.87 0.46,7.74 0.7,12Zm-17.83,-3.75c0,0.87 -0.67,1.32 -1.13,1.86c-2.09,2.43 -4.18,4.87 -6.32,7.27l-3.01505e-07,3.2664e-07c-0.58346,0.632098 -0.867509,1.48425 -0.78,2.34c0.19,3.39 0.38,6.77 0.71,10.15c0,0.48 0,1 0,1.7c-3.27,-1.13 -6.25,-2.64 -9.35,-3.85c-0.1,-0.49 0.33,-0.6 0.52,-0.86c1.21,-1.65 1.21,-1.65 3.14,-0.54c0.47,-0.51 0.94,-1 1.81,-0.55c0.87,0.45 0.79,-0.6 1.13,-0.92l-1.32677e-08,1.06638e-08c0.917658,-0.737495 1.37771,-1.90472 1.21,-3.07l-7.89129e-07,-1.18471e-05c-0.0822135,-1.23427 -0.0420169,-2.47365 0.120002,-3.69999l-1.04728e-07,1.34969e-06c0.1044,-1.34545 -0.20997,-2.69026 -0.899999,-3.85c-0.8,-1.34 -1.15,-2.83 -1.89,-4.33c1.49,-0.82 3,-1.62 2.78,-3.78c3.11,0.540005 5.92,1.46 8.87,2.13Zm-18.57,14.69c-0.87,0 -1.88,0.41 -2.15,-1l-6.10617e-07,1.37704e-07c0.774654,-0.174697 1.57529,-0.201837 2.36,-0.0800002c-0.0399994,0.41 -0.479999,0.69 -0.289999,1.07Zm1.76,2.84c0,0.23 0,0.38 -0.08,0.45c-0.36,0.44 -1,1 -1.36,0.72c-1.19,-0.93 -2.85,0.87 -3.9,-0.85l2.82405e-07,-1.27924e-07c1.65444,-0.749424 3.52692,-0.863339 5.26,-0.32Zm-8.87,-22c2,-3.3 4.1,-6.58 6.13,-9.84c0.68,0.16 0.78,0.71 1,1.11c1.78667,2.94667 3.56333,5.90333 5.33,8.87c0.36,0.61 1,1.24 0.14,1.92c-0.86,0.68 -1.18,1.69 -2.59,1.16l-8.62039e-07,-3.35427e-07c-2.37837,-0.925441 -5.01221,-0.953877 -7.41,-0.0799996c-2.06,0.76 -3.42,0.18 -4.68,-1.78c1.09,0.16 1.53,-0.57 2,-1.33Zm-3.65,1.92c0.7,-0.33 1,0.26 1.37,0.6c0.6,0.51 1.18,1.05 1.78,1.59c-0.13,0.43 -0.92,-0.08 -0.86,0.71c0.72,0.6 1.45,0.07 2.11,-0.22l-4.32094e-07,1.95794e-07c1.16908,-0.529743 2.39803,-0.91589 3.66,-1.15l-3.48118e-08,6.11544e-09c1.99823,-0.351036 4.05596,-0.0859718 5.9,0.76l2.44443e-07,1.63536e-07c0.802907,0.537154 1.83567,0.590904 2.69,0.14c0,-0.66 -0.74,-0.18 -0.9,-0.54c0.56,-0.59 1.13,-1.14 1.65,-1.73l8.66203e-09,-1.07539e-08c0.401918,-0.498893 1.13217,-0.577507 1.63106,-0.175588c0.00636687,0.00512928 0.0126793,0.0103257 0.0189363,0.0155885l9.84346e-08,5.62923e-08c0.565166,0.323209 0.765677,1.04059 0.45,1.61l2.98114e-08,-8.17163e-08c-0.210815,0.577856 -0.652923,1.04171 -1.22,1.28l-3.26472e-08,7.35236e-09c-0.622276,0.140137 -1.20823,0.409267 -1.72,0.79c-0.31,0.44 0.38,0.85 0.16,1.33c1.24,0.85 1.18,2.26 1.44,3.52c0.09,0.42 0,0.87 0.06,1.29c0.06,0.42 0.12,1.14 0.85,0.37c0.16,-0.17 0.65,0.24 0.54,0.59l5.33037e-08,-1.15814e-07c-0.357827,0.777471 -0.357827,1.67253 -1.06607e-07,2.45l2.23772e-08,6.59202e-08c0.0396227,0.116729 0.0396227,0.243271 -1.67856e-08,0.36c-0.44,1.73 -0.44,1.73 -0.11,2.7c-0.4,0.3 -1.31,0.25 -0.83,1.2c0.11,0.22 -1.31,1.54 -1.59,1.54c-0.28,0 -0.36,-0.08 -0.54,-0.1c-0.49,-0.05 -0.87,1 -1.38,0.2c-0.33,-0.51 0.37,-1 0.36,-1.46l-8.75971e-08,2.60857e-06c0.0270758,-0.806314 0.440079,-1.55046 1.11,-2c1,-0.89 2,-1.81 2,-3.51c-1,0.41 -1,1.36 -1.5,1.89l-1.968e-07,2.32018e-07c-0.479216,0.564973 -1.03846,1.05684 -1.66,1.46l4.48035e-08,1.92251e-07c-0.469091,-2.01279 -1.51106,-3.84666 -3,-5.28c-0.46,0.44 -0.1,0.8 0.14,1.12l1.69954e-07,2.39732e-07c0.748001,1.05511 1.36581,2.19671 1.84,3.4c1.24,2.93 0.12,4.49 -3.08,4.32c-0.3,0 -0.62,0 -0.88,-0.33c-0.52,-0.58 0.79,-0.87 0.36,-1.51c0.92,0.2 1.08,-0.45 1.14,-1.12c0.06,-0.67 -0.4,-0.85 -1,-0.85l-1.04381e-06,-5.63259e-08c-0.799418,-0.0431386 -1.60058,-0.0431386 -2.4,1.12653e-07c-1,0.11 -1.34,0.82 -0.75,1.67l2.20127e-07,2.55299e-07c0.239135,0.277341 0.503613,0.531776 0.79,0.76c0.25,0.25 0.75,0.21 0.77,0.73l1.32917e-07,-1.33194e-07c-0.784197,0.785831 -1.93826,1.07435 -3,0.75l3.63179e-08,1.48684e-08c-1.05638,-0.432455 -1.69452,-1.51648 -1.56,-2.65l-2.73858e-07,2.02329e-06c0.213808,-1.57963 0.751721,-3.09805 1.58,-4.46c0.29,-0.55 1,-1 0.49,-1.89l-1.23297e-07,1.16948e-07c-0.751683,0.712982 -1.33573,1.58393 -1.71,2.55c-0.54,0.91 -0.73,1.94 -1.26,2.9c-0.84,-0.51 -1.92,-0.81 -1.69,-2.14c-0.85,0.5 -0.67,-1.19 -1.65,-0.64l-1.95148e-07,-8.10021e-07c0.322697,1.33944 1.1838,2.48637 2.38,3.17c1.4,0.71 1,2.16 1.7,3.1c0.15,0.2 -0.55,0.71 -0.71,0.47c-0.66,-1 -1.3,-0.1 -1.93,-0.09c-0.14,-0.87 -1.26,-1.24 -1,-2.33c0.09,-0.43 -0.59,-0.09 -0.91,-0.31c0,-0.87 1.12,-1.94 -0.32,-2.64c0.62,-1.24 -0.21,-2.61 0.16,-3.92c0.55,0.17 0.31,0.66 0.7,0.73c0.05,-0.05 0.18,-0.11 0.19,-0.19c0.14,-1 0.18,-2.1 0.41,-3.12l-6.37083e-08,1.38981e-06c0.0411887,-0.898541 0.394885,-1.75449 0.999999,-2.42l0.23,-1.25c-0.47,-0.47 -1.12,-0.47 -1.67,-0.71c-0.73,-0.31 -1.48,-0.68 -1.5,-1.67c-0.159993,-0.590006 -0.189993,-1.27001 0.580007,-1.63001Zm-10,2.33c2.87,-0.85 5.53,-1.39 8.27,-2c0.45,0.88 0,1.88 0.61,2.68c0.61,0.8 1.65,0.81 2.33,1.55c-0.39,2.79 -2.09,4.92 -2.68,7.91Zm8.42,10.15l3.36508e-07,8.65884e-08c0.149174,0.0383845 0.296071,0.0851247 0.439998,0.139999c-0.26,1.41 0.5,2.74 0.33,4.15l-6.50307e-08,1.13635e-06c-0.0570258,0.996498 0.385291,1.9561 1.18,2.56c0.45,0.36 0.45,1 1.09,1.22c0.75,-0.31 1.63,-0.74 2.18,0.4c2,-1.52 2,-1.52 3.26,0.86l-8.35,3.42c-0.34,0.14 -0.7,0.22 -1.28,0.4Zm-0.11,13.74c3,-1.25 6,-2.43 9,-3.66l-1.1906e-07,5.55337e-08c1.40406,-0.654895 3.02594,-0.654895 4.43,-1.11067e-07c3.4,1.55 6.87,2.94 10.3,4.58l6.83624e-06,-1.14124e-06c-8.22624,1.37329 -16.6262,1.33609 -24.84,-0.109998c0.219993,-0.660001 0.759993,-0.620001 1.10999,-0.760001Zm-37.29,-14.44l-7.45405e-07,-1.21789e-05c-0.0684853,-1.11895 -0.0684848,-2.24105 1.49082e-06,-3.36c0.23,-1.78 0.29,-3.55 0.36,-5.34l-1.7385e-07,-3.63061e-05c-0.00632587,-1.32221 0.580955,-2.5775 1.60003,-3.41999l0.63,2.48c0.75,0.17 0.74,-0.74 1.33,-0.83c1,1.07 2.11,2.2 3.84,2.19l1.84227e-08,5.29326e-10c0.364358,0.0104652 0.651244,0.314319 0.640779,0.678677c-0.000976606,0.0340017 -0.00458037,0.067877 -0.0107791,0.101323c-0.19,1.8 0.9,2.45 2.47,3Zm24.35,0l-10.88,-4.45c1.63,-0.51 2.72,-1.16 2.55,-3l-2.83726e-08,-3.07622e-07c-0.0390565,-0.423462 0.272566,-0.798407 0.696028,-0.837464c0.0345608,-0.0031876 0.0692976,-0.00403482 0.103973,-0.00253588c1.56,-0.05 2.6,-1 3.66,-2.17c0.53,0.21 0.65,0.86 1.26,0.88l3.42605e-07,-9.381e-07c0.301837,-0.826474 0.483685,-1.69194 0.54,-2.57l1.13414e-07,6.87251e-08c0.721051,0.436928 1.21444,1.16787 1.35,2l6.53199e-08,3.20579e-07c0.0368986,0.181094 0.056984,0.36521 0.0599999,0.55Zm-0.55,-13.88l1.69448e-07,3.26697e-06c-0.0810559,-1.56278 -0.711463,-3.04672 -1.78,-4.19l2.84905e-07,2.24029e-07c-1.03388,-0.812972 -1.36258,-2.23594 -0.79,-3.42c0.62,-1.4 -0.12,-2.9 -0.1,-4.57l10.77,2.56m-20,-14.44l6.82,11.06c-4.46,3.25 -8.87,3 -13.42,-0.12Zm-7.41,12.28l6.53268e-07,1.12147e-07c1.29715,0.222683 2.52163,0.754323 3.57,1.55l1.05454e-07,8.99063e-08c0.618637,0.527416 1.43713,0.757619 2.24,0.63l-3.95921e-08,4.52383e-09c0.245867,-0.0280867 0.494133,-0.0280867 0.74,-9.04583e-09c2.47,0.11 4.91,0.17 7,-1.57l-1.81393e-07,1.02404e-07c0.554548,-0.313067 1.1554,-0.535855 1.78,-0.66l5.89045e-07,2.72914e-06c0.331745,1.53703 0.352147,3.12495 0.0599992,4.67l1.3988e-08,-5.60831e-08c-0.315403,1.2646 0.0654839,2.60151 1,3.51l2.77818e-07,2.87875e-07c1.02569,1.06282 1.66333,2.44026 1.81,3.91c-0.64,0.41 -1.19,-0.4 -1.85,0c-0.5,0.43 0,1 -0.07,1.58l9.7094e-08,4.59067e-08c-0.499289,-0.23607 -1.09542,-0.0226885 -1.33148,0.476601c-0.0144039,0.0304643 -0.0272587,0.0616372 -0.0385152,0.0933993l4.16057e-08,-1.1191e-07c-0.451199,1.21361 -1.6153,2.01368 -2.91,2c0.29,-1.58 -0.89,-2.67 -1.36,-4.16c1.36,-0.32 2.3,-1 1.85,-2.58l2.80463e-07,-1.1123e-07c0.501389,-0.198847 1.04408,-0.270976 1.58,-0.21c0.34,0 0.59,-0.14 0.61,-0.52c0.02,-0.38 -0.12,-0.61 -0.5,-0.62l7.16995e-07,7.62566e-08c-1.16951,-0.124385 -2.35057,-0.0873718 -3.51,0.109999c-1.24,0.31 -1.91,1.91 -1.47,3.35l-9.82109e-08,-4.45554e-07c0.119374,0.541574 0.343589,1.05455 0.66,1.51c1.55,1.85 0.46,3.82 0.35,5.74c0,0.51 -0.4,0.74 -0.86,0.81l2.06874e-07,-4.64843e-08c-0.482617,0.108446 -0.975369,0.165431 -1.47,0.17l-5.05825e-08,1.0823e-10c-0.79571,0.00170984 -1.5874,-0.112833 -2.35,-0.34c-0.91,-0.34 -0.32,-1.33 -0.6,-2l-1.15069e-07,-2.81959e-07c-0.564581,-1.38341 -0.39547,-2.95802 0.45,-4.19l-9.30595e-09,1.50158e-08c0.523912,-0.845341 0.788168,-1.82587 0.76,-2.82l-5.4155e-08,5.45107e-07c0.116299,-1.1706 -0.738384,-2.21384 -1.90899,-2.33014c-0.0535267,-0.00531784 -0.107236,-0.00860616 -0.161011,-0.00985788c-0.86,-0.08 -1.73,0 -2.59,-0.05c-0.44,0 -0.91,0 -0.87,0.65c0.04,0.65 0.43,0.5 0.8,0.53l-1.47216e-07,2.08329e-08c0.474907,-0.0672099 0.959059,0.00941844 1.39,0.22l6.95727e-08,-2.20798e-07c-0.320337,1.01664 0.244123,2.10047 1.26076,2.4208c0.190611,0.0600607 0.389394,0.0901517 0.589241,0.0891971c-0.28,1.5 -1.8,2.49 -1.28,4.17c-1.61,0.14 -2.41,-0.89 -3.06,-2c-0.33,-0.57 -0.56,-0.94 -1.34,-0.43c0,-0.7 0.25,-1.18 0,-1.63c-0.65,-0.46 -1.2,0.3 -1.93,0l-1.96771e-07,2.14513e-06c0.12788,-1.39411 0.727578,-2.70287 1.69999,-3.71c1,-1.18 1.83,-2.3 1.22,-4.12l1.41725e-07,5.86729e-07c-0.335137,-1.38744 -0.304124,-2.83815 0.0900015,-4.21Zm-12.38,2.36l11.13,-2.75c0.19,2.11 -0.24,4 0.27,5.9c0.18,0.67 -0.38,1.31 -0.84,1.78l-5.08266e-07,5.31967e-07c-1.25018,1.30848 -2.0249,2.99878 -2.2,4.8Zm283.13,250c0,9.87 -2.93,18.82 -9.42,26.42l-6.61808e-07,7.44267e-07c-4.27625,4.80906 -9.41037,8.78003 -15.14,11.71l5.20751e-06,-2.73512e-06c-8.54838,4.48984 -17.5843,7.98273 -26.93,10.41l3.4303e-06,-8.58457e-07c-5.134,1.28482 -10.3399,2.26321 -15.59,2.93c-18.47,2.76 -36.17,7.84 -52.36,17.44l1.03847e-06,-6.08756e-07c-9.38658,5.50247 -17.889,12.39 -25.22,20.43c-0.41,0.46 -0.81,0.93 -1.27,1.46c-2.09,-2.08 -4,-4.05 -6,-6l-3.70648e-06,-3.61967e-06c-9.72922,-9.50135 -21.1307,-17.1227 -33.63,-22.48l-4.13253e-06,-1.8007e-06c-6.42766,-2.80078 -13.0646,-5.09444 -19.85,-6.86l-1.09903e-08,-3.04772e-09c-0.875734,-0.242826 -1.80971,-0.161148 -2.63,0.23c-13.1534,5.54001 -26.3034,11.0833 -39.45,16.63c-0.54,0.23 -1,0.67 -1.9,0.37c1.18,-2.48 2.31,-4.89 3.65,-7.21l-5.23869e-10,-6.39193e-09c-0.00879613,-0.10688 0.0515546,-0.207465 0.15,-0.25l1.80553e-08,9.84965e-08c-0.0448331,-0.244584 0.08315,-0.488165 0.31,-0.59l-1.14922e-06,3.15447e-06c0.449166,-1.23291 1.01858,-2.41863 1.7,-3.54l-9.66846e-07,2.73579e-06c0.504443,-1.42738 1.17576,-2.79015 2,-4.06l-0.000196765,0.000393861c0.637103,-1.27528 1.27457,-2.55037 1.91241,-3.82528l-0.000434438,0.000872636c0.370052,-0.743307 0.740052,-1.48664 1.11,-2.23l-3.60395e-08,-2.76627e-07c-0.0400087,-0.307094 0.110319,-0.60775 0.38,-0.76c0,-0.106667 0,-0.216667 0,-0.33c-4,-1.12 -8,-2 -11.88,-3.4c-9.31177,-3.996 -18.7118,-7.996 -26.8118,-14.496l1.53551e-06,1.17812e-06c-8.17743,-6.27414 -13.5093,-15.5554 -14.81,-25.78l-1.6551e-06,-1.18341e-05c-0.410574,-2.93564 -0.621059,-5.8958 -0.629998,-8.86c0,-77.8933 0,-155.787 0,-233.68c0,-0.56 0,-1.11 0,-1.67c0,-0.05 0.05,-0.11 0.09,-0.15c0.04,-0.04 0.16,0 0.24,0.1l-7.21707e-09,2.28354e-10c0.205817,-0.00651226 0.388623,0.130592 0.44,0.33l-2.15431e-06,-1.69447e-06c1.88582,1.48329 3.69169,3.06551 5.41,4.74c11.5,10.23 24.42,17.9 39.38,21.88l5.50491e-07,1.48703e-07c9.0766,2.45184 18.512,3.29791 27.88,2.5l4.76202e-06,-3.89325e-07c18.3872,-1.50327 35.7862,-8.94795 49.57,-21.21l2.77857e-06,-2.40791e-06c8.22394,-7.12686 14.9799,-15.7883 19.89,-25.5c1,-1.92 2.06,-3.78 3.1,-5.66c0.05,-0.1 0.19,-0.15 0.32,-0.24c2,3.61 3.81,7.29 5.93,10.8l-3.8896e-06,-6.58443e-06c10.5648,17.8844 27.2676,31.3213 47,37.81l3.85178e-06,1.331e-06c10.1767,3.5166 20.9596,4.93844 31.7,4.18c21,-1.45 38.87,-10.12 54.53,-23.81c2.09,-1.83 4.16,-3.68 6.24,-5.52l-2.43944e-09,-6.31218e-10c0.064161,0.0166022 0.129633,-0.0219517 0.146235,-0.0861127c0.00286161,-0.011059 0.00412949,-0.0224699 0.00376525,-0.0338873c0.12,-0.1 0.29,-0.31 0.34,-0.28c0.22,0.12 0.14,0.35 0.1,0.56c0,0.68 0.06,1.36 0.06,2c-0.0266656,78.54 -0.0466651,157.067 -0.0599985,235.58Z" transform="translate(135.463, 70.8499)"></path><use transform="translate(188.24, 394.04)" xlink:href="#path-5"></use><use transform="translate(188.61, 393.3)" xlink:href="#path-6"></use><use transform="translate(189.35, 391.81)" xlink:href="#path-3"></use><use transform="translate(138.26, 99.36)" xlink:href="#path-4"></use><use transform="translate(210.15, 103.54)" xlink:href="#path-4"></use><use transform="translate(190.84, 388.85)" xlink:href="#path-2"></use><path d="M0,0c0,0 0,0 0,0v0Z" transform="translate(195.65, 112)"></path><use transform="translate(191.58, 387.36)" xlink:href="#path-5"></use><path d="M0,0v0.01v0v-0.01Z" transform="translate(191.21, 388.1)"></path><use transform="translate(198.229, 107.799)" xlink:href="#path-7"></use><use transform="translate(206.579, 107.799)" xlink:href="#path-7"></use></g></g><defs><path id="path-5" d="M0,0v0v0.01v-0.01Z"></path><path id="path-1" d="M0.41628,0c0,0.32 0,0.62 -0.37,0.75l7.74767e-09,5.07041e-08c-0.0462797,-0.302874 0.101496,-0.602419 0.37,-0.75Z"></path><path id="path-6" d="M0.01,0h-0.01v0h0.01Z"></path><path id="path-2" d="M0,0v0v0v0Z"></path><path id="path-7" d="M1.11894,0.242125c0.242125,0.242125 0.242125,0.634687 0,0.876812c-0.242125,0.242125 -0.634687,0.242125 -0.876812,0c-0.242125,-0.242125 -0.242125,-0.634687 0,-0.876812c0.242125,-0.242125 0.634687,-0.242125 0.876812,0"></path><path id="path-4" d="M0,0v0v0Z"></path><path id="path-3" d="M0.01,0h-0.01v0.01l0.01,-0.01Z"></path></defs></svg>