<?xml version="1.0" encoding="UTF-8"?><svg width="2000" height="2000" version="1.1" viewBox="0 0 2000 2000" xmlns="http://www.w3.org/2000/svg" xmlns:xlink="http://www.w3.org/1999/xlink"><!--Generated by IJSVG (https://github.com/curthard89/IJSVG)--><g transform="scale(3.52777)"><g fill="#FFFFFF"><path d="M191.388,0c1.92,4 4.49,7.55 6.71,11.33c0.27,0.45 0.84,0.45 1.32,0.57c4.12,1 8.24,2 12.54,3.08l-7.46626e-08,1.19557e-07c-0.8399,1.34493 -1.82223,2.59548 -2.93,3.73c-1,1.21 -2,2.36 -3,3.54l-3.16,3.73l1.09,14.25c-4.57,-1.64 -8.82,-3.66 -13.28,-5.38l-12,5l-6.75136e-06,-4.95257e-06c10.6619,7.82118 23.021,13.0122 36.07,15.15c-0.5,-4.81 0.26,-9.44 1.16,-14.21l-9.11,-10.9l13.91,-3.31l7.59,-12.18l7.43,12.26l13.84,3.47001l-9.34,10.91l1.06395e-07,6.11998e-07c0.769007,4.42342 1.10393,8.91141 1,13.4c0.62,0.52 1.29,0.14 1.91,0l2.88555e-06,-5.76115e-07c6.72866,-1.34342 13.2674,-3.5062 19.47,-6.44l-5.43102e-07,2.55943e-07c4.02268,-1.89573 7.90577,-4.07454 11.62,-6.52c0.56,-0.37 1.11,-0.77 1.68,-1.16c-0.29,-0.54 -0.79,-0.58 -1.22,-0.76c-2.68,-1.09 -5.37,-2.14 -8,-3.29l2.53339e-07,1.2409e-07c-0.94629,-0.463509 -2.05371,-0.463509 -3,-2.48179e-07c-3.77,1.65 -7.58,3.22 -11.63,4.92c0,-4.87 0.7,-9.54 0.86,-14.31l-9.3,-10.83l13.95,-3.49998l7.42,-12.26l7.58,12.17l13.91,3.29l-9.18,11l1,11.86c6.51,-4.47 11.77,-10 17.65,-14.95l-5.45606e-09,-1.07739e-08c0.300035,0.592473 0.394997,1.26776 0.27,1.92c0,8.96 0,17.9167 0,26.87c0,73.2667 0,146.537 0,219.81c0,11.22 -3.49,21.26 -11.36,29.52l1.57914e-06,-1.61594e-06c-4.07432,4.16928 -8.78668,7.66304 -13.96,10.35l1.12391e-05,-5.92026e-06c-8.41493,4.43263 -17.2916,7.92694 -26.47,10.42c-6.28,1.77 -12.68,2.61 -19.07,3.63c-15,2.39 -29.42,6.39 -43,13.27l-1.41412e-05,7.13244e-06c-11.5054,5.80301 -21.8978,13.5888 -30.7,23c-1.09,1.17 -2.3,2.23 -3.53,3.42l-1.93418e-06,-1.62007e-06c-1.30427,-1.09246 -2.49679,-2.31178 -3.56,-3.64001l4.95213e-06,5.24909e-06c-12.2177,-12.9503 -27.3603,-22.7848 -44.16,-28.68c-3.6,-1.3 -7.25,-2.44 -10.93,-3.47l-1.12936e-07,-3.34171e-08c-1.00186,-0.296446 -2.06814,-0.296446 -3.07,6.68341e-08c-14.5,4.06 -29.0033,8.10333 -43.51,12.13c-0.58,0.16 -1.17,0.28 -2.1,0.5l9.8,-20.45l1.19725e-07,6.90796e-08c-0.865443,-0.499348 -1.81403,-0.838128 -2.8,-1l2.16426e-06,6.10187e-07c-10.0584,-2.83584 -19.6227,-7.19646 -28.36,-12.93c-7.34,-4.95 -13,-11.34 -16.24,-19.69l-2.79448e-07,-7.54101e-07c-2.14993,-5.80167 -3.19788,-11.9537 -3.09,-18.14c0,-33.42 0,-66.8433 0,-100.27c0,-48.1267 0,-96.2533 0,-144.38v-2c0.8,-0.34 1,0.36 1.4,0.67c4.78,4.19 9.33,8.65 14.4,12.51l8.75682e-07,8.04357e-07c0.66784,0.613444 1.42688,1.11947 2.25,1.5l0.89,-11.82l-9.31,-10.94c4,-1 7.63,-2 11.34,-2.77l-3.86842e-09,5.98675e-10c1.70254,-0.263483 3.17337,-1.33218 3.94998,-2.87001c1.85,-3.34 3.93,-6.55 5.91,-9.8c0.68,0.27 0.83,0.84 1.11,1.3c1.92,3.09 3.86,6.17 5.73,9.29l-1.06622e-07,-2.08435e-07c0.446946,0.873735 1.26796,1.49594 2.23,1.69c3.6,0.8 7.18,1.72 10.77,2.57l1.72799e-07,2.89252e-08c0.579049,0.0969283 1.13511,0.300366 1.64,0.6l-9.06,10.79l1.11,14.34l-13.25,-5.41l-11,4.63l6.19166e-06,4.36032e-06c10.1844,7.1721 21.7718,12.107 34,14.48l1.27,-14.21l-9.16,-11l13.86,-3.27l7.63,-12.15l7.24,12c4.61,1.52 9.22,2.5 14,3.79l-9.33,10.81l0.93,14.33c-3.59,-1.52 -6.93,-2.92 -10.25,-4.35l-7.27599e-08,-3.18964e-08c-1.88348,-0.82568 -4.02652,-0.82568 -5.91,6.37928e-08l-8.55,3.47c-0.39,0.16 -0.87,0.18 -1,0.81c22.65,3.61 43.24,-1.43 62.08,-14.42l7.48709e-08,1.06556e-07c-0.30118,-0.428641 -0.749762,-0.731256 -1.26,-0.85c-3.15,-1.4 -6.32,-2.75 -9.43,-4.24l3.13522e-07,1.53595e-07c-0.993587,-0.48676 -2.15641,-0.48676 -3.15,-3.0719e-07c-3.54,1.42 -7.11,2.76 -10.66,4.14l3.51121e-08,-2.16293e-08c-0.302256,0.186192 -0.67765,0.208715 -1,0.06l1.39,-13.93l-9,-11.14l14,-3c2.06,-3.18 4.14,-6.39 6.23,-9.59c0.4,-0.61 0.86,-1.19 1.29,-1.78h0.74l6.72,11.74l13.84,3.73l-9.47,10.51c-0.1,4.45 0.4,11.86 0.89,13.25c0.42,0 0.65,-0.31 0.93,-0.52l3.20841e-06,-2.4307e-06c8.34097,-6.31914 15.4176,-14.1523 20.86,-23.09c2.68,-4.44 4.89,-9.13 7.28,-13.73c0.27,-0.52 0.35,-1.19 1,-1.46l8.80291e-08,9.34729e-08c0.510054,0.541596 0.904709,1.18121 1.16,1.88c1.35,2.64 2.67,5.29 4,7.93l1.93266e-06,3.78582e-06c5.46692,10.7089 13.1992,20.0996 22.66,27.52l-1.61258e-07,-1.81165e-07c0.395381,0.44419 0.932566,0.737521 1.52,0.83l1,-12.73l-9,-10.74c0.22,-0.42 0.49,-0.37 0.71,-0.42c3.94,-1 7.88,-2 11.83,-2.88l3.25913e-08,-5.40143e-09c0.727353,-0.120545 1.36229,-0.560965 1.73,-1.2c2.14,-3.58 4.31,-7.14 6.47,-10.7Zm0.35,21.75l-0.48,0.36l-2.38067e-07,9.75762e-08c-1.29959,0.532662 -2.79494,0.121852 -3.64,-1c-0.67,-0.73 -1.32,-1.47 -2,-2.22l4.54631e-08,6.82894e-08c-0.35096,-0.527171 -0.972686,-0.806948 -1.6,-0.72c-2.59,0.49 -5.21,0.81 -7.86,1.5l-3.31695e-07,-2.8784e-07c1.14382,0.992594 2.51963,1.6805 4,2c3.5,0.85 4.41,3.5 2.23,6.41c-0.35,0.46 -1,0.79 -0.92,1.54l2.90227e-08,5.32583e-09c1.733,0.318017 3.5172,-0.159238 4.86,-1.3l-2.31987e-07,1.59275e-07c2.19829,-1.50928 4.01604,-3.50846 5.31,-5.84l-2.91277e-09,8.4151e-10c0.0707132,-0.0204289 0.124491,-0.0780476 0.14,-0.15l1.03407e-08,-6.40074e-09c0.245497,-0.151959 0.42419,-0.391408 0.5,-0.67c0.25,-0.2 0.66,-0.32 0.4,-0.79l-2.82108e-08,1.01988e-08c-0.286669,0.103637 -0.518102,0.320606 -0.64,0.6l-4.10017e-09,5.49846e-10c-0.147538,0.0197862 -0.26505,0.133247 -0.289999,0.28Zm32.29,1.62l0.51,-0.63l7.15274e-08,-1.72573e-08c0.249748,-0.0602562 0.450371,-0.245738 0.53,-0.49l-4.8598e-07,4.20404e-07c0.912515,-0.789385 1.92037,-1.46129 3,-2l-2.4526e-07,-1.50439e-07c1.17735,0.722174 2.28245,1.55602 3.29999,2.48999l-8.15179e-07,-1.31374e-06c0.880456,1.41894 1.88435,2.75746 3,4l-1.33363e-08,1.52086e-07c-0.0260167,0.296691 0.117037,0.582799 0.37,0.74l0.35,0.46l2.68,5.38l2,6.91c1.86,-2.13 3.59,-4 5.1,-6.05l-2.01043e-07,1.90003e-07c1.12108,-1.05951 2.09629,-2.2634 2.9,-3.58l-12.63,-3.09l3.0069e-09,4.93912e-09c-0.068925,-0.113218 -0.216581,-0.149125 -0.3298,-0.0802002c-0.032757,0.0199418 -0.0602583,0.0474431 -0.0802002,0.0802002c0.27,-0.44 0.14,-0.69 -0.36,-0.77c-0.32,-1.77 -1.54,-3.05 -2.45,-4.5l-3.67,-6.23l-3.58,5.93l1.47514e-08,-7.72332e-09c-0.243924,0.127709 -0.39202,0.384929 -0.38,0.66l6.46185e-09,-3.70898e-09c-0.297126,0.170542 -0.410877,0.542422 -0.26,0.85c-0.13,-0.06 -0.21,0 -0.24,0.1Zm-163.86,18.42l2.63204e-08,6.37808e-08c0.317365,0.769053 0.988656,1.33592 1.8,1.52c0.5,-1.65 1.4,-3.09 2,-4.66c0.38,-0.18 0.66,-0.89 1.29,-0.08l-6.07973e-07,9.32313e-07c-0.996546,1.52818 -1.7678,3.19193 -2.29,4.94c-0.41,1.51 -0.15,2.44 0.86,3.14c1.01,0.7 2.12,0.56 3.37,-0.31c-0.26,-0.67 -1,-0.88 -1.4,-1.4l-1.67304e-08,-1.49565e-08c-0.452917,-0.404894 -0.491847,-1.10029 -0.0869537,-1.5532c0.205638,-0.230028 0.498431,-0.363116 0.806954,-0.366797l4.27995e-07,-4.27976e-08c0.73755,-0.0737515 1.47927,-0.097139 2.22,-0.0699999l-7.94632e-08,1.18528e-08c0.5053,-0.0753709 1.00292,0.177451 1.24,0.63c0.25,0.53 -0.06,0.94 -0.32,1.37c-0.26,0.43 -1.16,0.72 -1.21,1.43c0.41,0.49 0.87,0.38 1.28,0.4c2.6,0.09 3.58,-1.26 2.72,-3.76l-3.1467e-08,-8.95081e-08c-0.430312,-1.22403 -1.01145,-2.38967 -1.73,-3.47c-0.26,-0.39 -0.69,-0.73 -0.49,-1.33c0.32,-0.29 0.7,0 1,-0.07c0.06,1 0.76,1.63 1.15,2.44c0.39,0.81 0.79,1.6 1.22,2.47l-9.71879e-08,4.53402e-08c0.812476,-0.379038 1.43158,-1.07779 1.71,-1.93c0.34,-0.14 0.37,-0.44 0.36,-0.75c0.32,0 0.58,-0.56 1.06,0c-0.31,1.75 -1.69,2.82 -2.93,4l-0.71,3l-1.00428e-07,7.22228e-08c0.66248,-0.476422 1.46452,-0.719144 2.28,-0.69c1,-0.88 1,-2.14 1.81,-2.79c0.07,-0.65 -0.48,-1.07 -0.37,-1.66c0.09,-0.43 0.74,-0.5 0.63,-1.26l2.47447e-08,5.10993e-08c-0.38111,-0.787017 -0.3359,-1.71381 0.12,-2.46c-0.5,-0.19 -1,0.19 -1.4,-0.54c-0.26,-1.33 0,-3.05 -1.16,-4.67c-0.57,1.92 -1.94,3.2 -2.63,4.92h-1.16c-0.29,-1.05 0.83,-1.18 1.15,-1.78c0.88,-1.64 2,-3.19 2.25,-5.09c0.68,-0.3 1.32,-0.53 1.91,-0.85l9.92911e-08,-5.17167e-08c0.622467,-0.324218 0.989207,-0.99066 0.93,-1.69l5.44267e-08,-0.000365909c0,-0.67931 -0.55069,-1.23 -1.23,-1.23c-0.0101231,0 -0.0202458,0.000124972 -0.0303659,0.000374889l-2.14,2c0.15,0.3 0.72,0.36 0.43,1c-1,0.55 -1.81,-0.08 -2.69,-0.41l-2.61676e-08,-1.05128e-08c-1.82881,-0.734727 -3.81855,-0.976117 -5.77,-0.7l-6.18458e-07,1.0043e-07c-1.33786,0.217252 -2.63351,0.642389 -3.84,1.26c-0.64,0.32 -1.31,0.75 -1.94,0.16c-0.19,-0.57 0.43,-0.62 0.45,-1.15c-0.94,-0.41 -1.41,-1.57 -2.53,-1.87c-1.24,1.32 -1.21,2.4 0.19,3.14l-1.93164e-07,-7.7818e-08c1.12978,0.45514 2.03987,1.3294 2.54,2.44l-1.26851e-07,-3.50618e-07c0.313322,0.866024 0.740397,1.68655 1.27,2.44l-4.86654e-09,-7.14942e-09c0.247531,0.363646 0.313919,0.820982 0.18,1.24c-1.36,-0.61 -1.77,-2 -2.5,-3.25l1.9272e-07,-3.95258e-07c-0.605524,1.2419 -0.871205,2.62206 -0.77,4l-0.21,0.78c-0.35,0.49 -0.92,-0.24 -1.16,0.37l3.14487e-08,7.12776e-08c0.40518,0.918329 0.462057,1.95279 0.16,2.91c0.09,0.39 0.63,0.41 0.69,1l-0.3,1.28l1.77,3.14c0.76,-0.8 1.65,0.27 2.6,-0.2l1.92014e-07,3.50707e-07c-0.406486,-0.742432 -0.661421,-1.55822 -0.75,-2.4c-2.55,-1.94 -3.08,-2.68 -3,-4.06c0.700367,0.109997 0.760367,0.899997 1.30037,1.08Zm157.95,-8.52l3,-5.91l-12.72,3l2.61,3l-7.6933e-09,-4.58885e-08c0.0398938,0.237955 0.216294,0.430036 0.45,0.49l-4.38808e-09,-6.75456e-08c0.00823345,0.126737 0.0906381,0.23661 0.21,0.28l-2.84695e-06,-3.89551e-06c1.41581,1.93727 2.93118,3.79977 4.54,5.58c0.660003,-2.28 1.47,-4.3 1.91,-6.44Zm53.45,-20.39c-0.06,-0.29 -0.12,-0.58 -0.46,-0.68l-1.32451e-08,-1.64909e-07c-0.0348603,-0.43403 -0.210414,-0.844827 -0.5,-1.17c-1.59333,-2.56667 -3.19667,-5.13 -4.81,-7.69c-0.24,-0.38 -0.35,-0.92 -1,-1.08c-1.9,3.14 -3.85,6.27 -5.7,9.46l-6.72571e-09,1.34693e-08c-0.518696,1.03876 -1.49041,1.77771 -2.63,2c-3.13,0.67 -6.23,1.48 -9.32,2.3c-0.53,0.14 -1.24,0 -1.7,0.71l8,9.34l-1.23809e-07,4.69582e-07c0.428875,-1.62664 1.03938,-3.19986 1.82,-4.69l1.37967e-06,-2.27999e-06c1.30673,-2.15946 2.45959,-4.40836 3.44999,-6.72998c0.35,-0.79 0.8,-1.53 1.17,-2.31l1.32325e-07,-2.29027e-07c0.330973,-0.572844 0.86144,-1.00363 1.49001,-1.21002l-1.30001e-06,6.84592e-07c3.15414,-1.66099 7.00783,-1.19074 9.67,1.18l8.32051e-09,-5.87573e-08c-0.0424641,0.299871 0.121519,0.590942 0.4,0.71c1.39,4.39 4.14,8.19 5.49,12.8l8,-9.53c-2.75,-0.65 -5.2,-1.19 -7.63,-1.82c-1.94,-0.519999 -3.93,-0.669999 -5.74,-1.59Zm-75,0.42l-2.6708e-08,3.37508e-09c0.535041,-0.0676135 0.966396,-0.470749 1.07,-1l-6.85,-11.17c-2.38,3.79 -4.7,7.41 -6.81,11.16c-2.39,0.83 -4.89,1.22 -7.32,1.88l-4.32872e-06,8.6216e-07c-1.88786,0.376009 -3.74863,0.877114 -5.57,1.5l1.12545e-06,1.49876e-06c1.06534,1.41871 2.23526,2.75577 3.5,4l-5.64597e-09,1.37438e-08c0.230105,-0.560138 0.774447,-0.926977 1.38,-0.93c2.55,-0.43 5.11,-0.8 7.65,-1.31l1.14442e-08,-2.94909e-09c1.1038,-0.284438 2.26614,0.166019 2.89,1.12l-1.36378e-07,-1.78478e-07c0.637318,0.834058 1.3395,1.61649 2.1,2.34c1,1 1.86,0.91 3,0l2.53245e-07,-2.251e-07c0.744773,-0.662 1.22439,-1.57149 1.35,-2.56c0.27,-1.3 0.94,-2.13 2.38,-2.07l-4.36783e-08,5.16741e-09c0.612052,-0.0724093 1.1946,-0.303358 1.69,-0.67c0.08,0 0.11,-0.18 0.16,-0.28c-0.14,-0.54 -0.88,-0.46 -1,-1l-2.90677e-07,1.37428e-06c0.0472273,-0.223284 0.107327,-0.44365 0.179998,-0.659994c-0.0399943,-0.20001 0.0800057,-0.27001 0.200006,-0.35001Zm-160.86,2.62c-1,-0.06 -1.83,0.53 -2.86,0.37l-6.6225e-08,-7.78942e-09c-1.04307,-0.122687 -2.09692,-0.122687 -3.13999,-7.69015e-07l4.47071e-08,-4.24285e-09c-0.861603,0.0817681 -1.72313,-0.156754 -2.42,-0.67l3.9135e-08,3.24787e-08c-1.00683,-0.835582 -2.23869,-1.35408 -3.54001,-1.49l-4.6469e-07,1.37549e-06c-0.446149,1.3206 -0.491383,2.74373 -0.129999,4.09l4.90971e-08,1.46365e-07c0.478121,1.42534 0.0612387,2.99849 -1.06,4l3.0029e-08,-3.49647e-08c-0.76467,0.890355 -1.3154,1.94393 -1.61,3.08c0,0.15 0,0.33 0.07,0.47c0.54,0.33 1.17,-0.18 1.71,0.36c-0.39,1.25 1.16,1.16 1.55,2l-1.62661e-07,-5.46141e-07c0.3129,1.05057 1.30543,1.74948 2.4,1.69c0.16,-1.43 1.11,-2.47 1.59,-3.84l-1.07569e-07,-2.91685e-08c-1.20406,-0.326495 -2.02967,-1.43281 -2,-2.68c-1.81,-0.2 -1.81,-0.2 -1.82,-1.31l5.92859e-08,-2.92442e-08c0.44284,-0.218441 0.944223,-0.288564 1.43,-0.2l6.1967e-07,-3.19279e-08c0.617025,-0.0317916 1.23559,-0.0150735 1.85,0.0500001l7.74657e-08,4.70504e-09c1.27343,0.0773436 2.24305,1.17236 2.16571,2.44579c-0.0015041,0.0247644 -0.00340707,0.0495029 -0.00570816,0.074206l1.51837e-07,-5.64617e-06c-0.0317919,1.18223 -0.376878,2.33482 -0.999997,3.34l1.5412e-07,-2.29905e-07c-0.450896,0.672617 -0.636188,1.48861 -0.52,2.29c0.23,1 0.38,2 0.55,3l2.06071e-07,1.06928e-07c1.50161,0.779169 3.28839,0.779169 4.79,-2.13857e-07c0.11,-0.64 0.2,-1.31 0.34,-2c0.14,-0.69 0.32,-1.3 0.46,-1.9c-0.31,-0.63 -0.61,-1.17 -0.86,-1.73c-0.25,-0.56 -0.54,-1.25 -0.75,-1.89l9.66564e-08,2.17962e-07c-0.591061,-1.33286 0.0102819,-2.8925 1.34314,-3.48356c0.326729,-0.14489 0.679477,-0.221926 1.03686,-0.226441l-8.01248e-07,6.11695e-08c0.802166,-0.0612397 1.60783,-0.0612397 2.41,-1.22339e-07c0.71,0 1,0.42 0.68,1.1c-0.55,0.56 -1.38,0 -2,0.59c0.28,1.44 -0.94,1.92 -1.9,2.57c0.53,1.33 1.38,2.41 1.37,4c2.33,-0.71 3,-2.65 4.23,-4.09c0.42,-0.42 1.08,0.16 1.53,-0.43l7.69853e-09,1.99682e-07c-0.0524918,-1.36151 -0.650784,-2.6446 -1.66,-3.56l3.75458e-08,3.75787e-08c-0.925463,-0.926276 -1.30403,-2.26641 -1,-3.54l5.05352e-07,-2.75683e-06c0.274271,-1.49622 0.253889,-3.03159 -0.0600007,-4.52c-1.29,0.6 -2.7,0.49 -3.25,1.95Zm184.62,17l-4.8135e-10,4.75836e-10c-0.353912,0.349854 -0.591362,0.800311 -0.68,1.29l-1.89457e-06,4.9624e-06c-1.98494,5.1991 -3.10314,10.6887 -3.31,16.25c0,1.08 -0.85,2.06 -0.32,3.29c3.57,-1.46 7.11,-2.87 10.62,-4.35l-6.52275e-08,3.13721e-08c0.884822,-0.425567 1.91518,-0.425567 2.8,-6.2744e-08c3,1.36 6.11,2.63 9.18,3.9c0.46,0.19 0.92,0.66 1.65,0.27l2.1169e-07,4.7288e-07c-0.52292,-1.16812 -0.769309,-2.44113 -0.72,-3.72l6.9865e-07,1.26389e-05c-0.132687,-2.40036 -0.426682,-4.78908 -0.879994,-7.14998c-0.29,-1.61 -1,-3.08 -1.27,-4.7l3.1901e-07,2.52881e-06c-0.231462,-1.83481 -0.855634,-3.59819 -1.83001,-5.17004l3.02699e-07,7.25751e-07c-0.885782,-2.12375 -1.96359,-4.16221 -3.22,-6.09c-1.1,-1.77 -2.94,-2.81 -4.17,-4.43c0,0 -0.12,0 -0.52,-0.08c-0.8,1.53 -2.59,2.41 -3.64,3.9l6.11409e-07,-8.12709e-07c-1.55436,2.06612 -2.79446,4.35086 -3.68,6.78Zm-164,283.29c-2.58,4.82667 -5.01,9.72667 -7.29,14.7c-1.51,2.45 -2.62,5.09 -4,7.67c0.91,0.39 1.42,-0.1 1.95,-0.32c13.0867,-5.50667 26.17,-11.0267 39.25,-16.56l1.53874e-07,-7.20203e-08c0.888851,-0.416024 1.89963,-0.490765 2.84,-0.21c3,0.86 6.05,1.74 9,2.74c18.81,6.29 35.18,16.4 48.67,31l8.95062e-08,1.1968e-07c0.41269,0.551815 0.941903,1.00591 1.55,1.33c0.56,-0.58 1.08,-1.11 1.58,-1.65l7.54261e-06,-8.10358e-06c9.5338,-10.2428 20.9036,-18.6074 33.52,-24.66c13.29,-6.43 27.37,-10.24 41.9,-12.52c3.84,-0.6 7.79,-0.76 11.53,-1.73c7.16,-1.86 14.38,-3.59 21.23,-6.49l-6.58524e-06,2.596e-06c6.26528,-2.46987 12.2574,-5.5832 17.88,-9.28998c11.81,-8.19 18.07,-19.48 18.09,-33.83c0.0866667,-78.8133 0.0866667,-157.627 0,-236.44l1.12405e-07,-8.38866e-07c0.0712098,-0.531431 0.0372319,-1.07168 -0.1,-1.59l1.49763e-08,7.16923e-10c-0.338828,-0.0162197 -0.646362,0.197004 -0.75,0.52c-1.3,1.13 -2.62,2.24 -3.9,3.4l2.63646e-06,-2.44028e-06c-5.67007,5.24818 -11.8932,9.86523 -18.56,13.77c-16.79,9.69 -34.76,13.78 -54.1,11.3c-27,-3.46 -51.94,-20.86 -64.63,-45.15c-1.23,-2.35 -2.5,-4.67 -3.81,-7.11l-1.75875e-07,1.83979e-07c-0.163928,0.171482 -0.314375,0.355361 -0.45,0.55c-1,1.79 -2,3.57 -2.89,5.38l-1.51803e-06,3.02152e-06c-7.0327,13.998 -17.8396,25.7505 -31.2,33.93c-21.18,13.06 -43.88,16.54 -67.93,9.77c-14.29,-4 -26.63,-11.62 -37.65,-21.46l1.49e-07,1.44871e-07c-1.72351,-1.67576 -3.53259,-3.2612 -5.41997,-4.74998l7.60605e-09,1.09492e-08c-0.0351567,-0.0506093 -0.075363,-0.0975167 -0.12,-0.14c0,0 -0.11,-0.06 -0.13,0c-0.55,0.5 -0.26,1.15 -0.26,1.72c0,77.58 0,155.16 0,232.74c0,1.54 0.0333333,3.08333 0.1,4.63c0.55,13.31 6.08,24 16.89,31.87c8.64,6.27 18.32,10.41 28.5,13.45c2.89,0.86 5.81,1.61 8.54,2.37c0.409962,0.479976 0.169962,0.759976 0.149962,1.05998Zm146.51,-277.39l1.88793e-08,-2.0059e-07c0.099998,-1.06247 0.0765079,-2.13294 -0.07,-3.19c-0.21,-2.89 -0.42,-5.78 -0.69,-8.67l-9.7444e-08,-6.46019e-07c-0.129881,-0.861064 0.155739,-1.73276 0.77,-2.35l-1.474e-07,1.33456e-07c0.636378,-0.576176 1.14702,-1.27746 1.5,-2.06c-3,0.69 -4.32,0 -5.29,-2.77c-0.34,-1 -0.58,-2 -0.86,-3c-0.56,-0.06 -0.84,0.33 -1.08,0.65c-2,2.53 -4.27,4.77 -6.15,7.38l3.31092e-07,-5.07981e-07c-1.53967,2.36224 -3.77647,4.18663 -6.4,5.22l-1.0384e-07,2.91839e-08c-0.944994,0.265588 -1.7356,0.914753 -2.18,1.79c-0.26,0.52 -0.5,1.19 -1.32,1.38c0,-1.11 1,-1.61 0.94,-2.53c-0.52,-0.44 -1.38,-0.21 -1.74,-0.93l1.30291e-08,7.04067e-08c-0.0666172,-0.359984 0.0865413,-0.725209 0.39,-0.93l-2.83076e-08,2.38315e-08c0.519091,-0.437013 0.973613,-0.945404 1.35,-1.51c1.49,-2.24 0.83,-4 -1.77,-4.79l-7.92702e-07,-1.86776e-07c-1.78727,-0.421116 -3.48204,-1.16681 -5,-2.2c1.12,2 3,3.47 4.25,5.44l-1,13l4.19825e-07,-6.52864e-08c0.782316,-0.121657 1.53917,-0.371688 2.24,-0.74c2.91,-1.19 5.82,-2.36 8.69,-3.62l-2.21218e-07,1.07377e-07c0.827186,-0.401507 1.79281,-0.401507 2.62,-2.14754e-07c2.42,1.08 4.88,2.06 7.33,3.05l-1.5803e-06,-7.89078e-07c1.11566,0.557075 2.27647,1.01872 3.47,1.38Zm64.73,-4.54c0.64,-1.54 1.93,-2.07 3.29,-2.57l-5.07344e-08,1.5544e-08c2.102,-0.644011 3.75166,-2.28245 4.41,-4.38l2.68087e-08,-1.07119e-07c0.37772,-1.50925 0.128842,-3.10712 -0.69,-4.43c-1.1,-2.27 -2.37,-4.47 -3.28,-6.82c-1.68,-4.32 -2.66,-4.3 -6.86,-4.3l8.49697e-08,5.79199e-09c-1.7187,-0.117156 -3.32342,0.865737 -4,2.45c-1.36,2.83 -2.75,5.64 -4.3,8.38c-2.37,4.17 -0.12,7.41 3.3,8.86l-1.88767e-08,-5.70631e-09c1.48247,0.448144 2.72674,1.46586 3.46,2.83Zm-182.08,-19.3l8.3,10.35l-1.35,13.23l10.89,-4.2c-0.42,-0.35 -0.88,-0.55 -0.93,-0.83l7.95436e-08,4.35503e-07c-0.182784,-1.00075 -0.991202,-1.76874 -2,-1.9l1.52536e-08,4.18039e-09c-0.622785,-0.17068 -1.07604,-0.707425 -1.14,-1.35c-0.07,-1 -0.5,-2.05 -0.49,-3c0,-3.55 -0.42,-7.14 0.52,-10.73c-1.72,-0.73 -2.2,-2.18 -2.13,-4Zm31.29,24.1l-1.11273e-07,6.1496e-07c0.158225,-0.874448 0.185188,-1.7676 0.0800002,-2.65c-0.153333,-3.14 -0.323333,-6.27667 -0.51,-9.41c0,-0.56 -0.17,-1.13 0.3,-1.56c1.23,-1.12 2,-2.59 3.23,-3.75c1.81,-1.73 3.4,-3.7 5.24,-5.74l-11,-2.94c-0.27,2.3 -0.3,2.34 -2.34,4l2.28704e-07,8.10305e-07c0.362214,1.28333 0.474248,2.62435 0.33,3.95c-0.07,3 0.07,6.1 -0.81,9.09c-0.24,0.82 -0.5,1.62 -1.38,1.78l-1.93256e-07,2.93457e-08c-1.05423,0.160084 -1.89883,0.956873 -2.12,2c-0.5,0.35 -1,0.17 -1.79,0.39Zm-6,-11.7c-0.24,-3.8 0.86,-7.51 -0.65,-11.18c0.8,-0.75 2.51,-0.58 2.46,-2.38l-3.39,1.42l1.54435e-07,1.16459e-07c-2.11001,-1.59116 -4.99274,-1.68325 -7.2,-0.23c-1.26,-0.29 -2.18,-1.25 -3.49,-1.39c0.07,1.65 1.56,1.66 2.45,2.32c-1.73,3.7 -0.73,7.56 -1.13,11.17c0.84,0.71 1.63,1.11 2,1.88c0.23,0.72 -0.09,1.52 0.61,2.33c1.78,-0.2 3.7,0.1 5.89,0.09c-0.27,-2.06 0.81,-3.16 2.47,-4.03Zm-43,-11.67c-2.17,3.46 -4.17,6.64 -6.14,9.84c-0.48,0.77 -0.87,1.59 -2.07,1.73l2.69173e-08,4.05645e-08c0.665202,1.00246 1.60643,1.79087 2.71,2.27l8.26413e-07,-3.35176e-07c3.26833,-1.32557 6.90636,-1.42149 10.24,-0.27l-1.18649e-07,5.245e-08c0.928328,-0.410376 1.69729,-1.11262 2.19,-2Zm-43.21,-3.1c5,3.5 10.18,2.82 13.17,0l-6.63,-10.76Zm87.65,-0.23l-6.58,-11.31l-7.09,11l3.35,1.68l-6.28809e-07,3.76454e-07c2.28977,-1.37084 5.15979,-1.32042 7.4,0.129999l-2.86528e-07,8.02638e-08c0.388873,-0.108933 0.767084,-0.252854 1.13,-0.43c0.520001,-0.32 1.14,-0.4 1.79,-1.07Zm103.63,42.75l-5.0645e-06,-7.7611e-07c7.90212,1.21096 15.9497,1.11299 23.82,-0.289996c-3.64,-1.72 -7.31,-3.26 -11,-4.83l-1.50908e-07,-5.11058e-08c-0.582859,-0.197388 -1.22308,-0.127878 -1.75,0.19l-10.22,4.19c-0.289982,0.159997 -0.729982,0.129997 -0.849982,0.739997Zm-193.57,-41.49l-10.91,2.71l8.13,9.46l-7.4424e-08,4.02452e-07c0.33803,-1.82791 1.19156,-3.5211 2.46,-4.88l5.29494e-08,-4.22423e-08c0.445051,-0.355055 0.675619,-0.914466 0.61,-1.48c-0.499999,-1.81 -0.0699991,-3.66 -0.289999,-5.81Zm56.14,14.43c0.2,2.17 -1,3.19 -2.69,3.9c0.82,2.8 2.63,5.1 3.1,8.27l8.61,-9.92Zm-27.47,-11.89l-10.5,-2.48c0,2.23 0.4,4.2 -0.41,6.07c1,1.89 2.89,3.25 2.88,6Zm-31.95,23.5l10.93,-4.55c-1.88,-0.61 -2.7,-1.67 -2.45,-3.53l7.43535e-08,2.6854e-09c-1.64374,-0.0593661 -3.17574,-0.847359 -4.18,-2.15c-0.72,-0.07 -0.82,0.8 -1.5,0.53c-0.43,-0.55 -0.34,-1.36 -0.77,-2.1c-0.57,0.53 -1.18,1 -1.25,1.78c-0.27,3.19 -0.5,6.47 -0.77,10.02Zm37.23,-11.65l-8.29,1.9c2.86,3.53 5.55,6.79 8.6,10.26c0.56,-3 2.32,-5.07 2.59,-7.69c-2.49,-1.6 -2.49,-1.6 -2.9,-4.47Zm-20.73,3.47c-0.5,2.59 -0.5,2.59 -2.77,3.68c3.63,1.38 7,3 10.53,4.2l7.86364e-08,-2.50494e-07c0.0755875,-0.240782 0.125859,-0.48879 0.15,-0.74c-0.23,-3 -0.47,-6 -0.72,-9l-4.76899e-09,-3.47468e-07c-0.0101925,-0.742623 -0.413721,-1.42405 -1.06,-1.79c-0.55,0.67 -0.17,1.58 -0.83,2.08c-0.58,0.25 -0.71,-0.66 -1.46,-0.44c-0.77,1.26 -2.22,1.76 -3.84,2.02Zm217.47,8.39l9.94,-4.21c-0.48,-0.35 -0.92,-0.24 -1.32,-0.6c-0.15,-1.24 -0.93,-1.87 -2.17,-2.33l5.54847e-07,1.72267e-07c-2.26958,-0.70465 -4.10421,-2.38884 -5,-4.59c-0.08,-0.22 -0.19,-0.48 -0.59,-0.31Zm23.6,-11.29l1.00662e-07,-1.56628e-07c-1.45736,2.26762 -3.71277,3.90564 -6.32,4.59l-1.15067e-07,2.44277e-08c-0.694548,0.147447 -1.21051,0.732471 -1.27,1.44c0,0.7 -0.47,0.9 -1.18,1.17l9.69,3.92Zm-221.34,24.74l9.55,-3.85c-0.3,-0.68 -0.38,-1.29 -0.93,-1.65c-0.86,-0.16 -1.32,0.64 -2.14,0.82c-0.63,-0.71 -1.47,-0.48 -2.18,-0.21c-0.57,-0.27 -0.66,-0.8 -1.05,-1.12l3.1569e-07,2.30661e-07c-0.780983,-0.57063 -1.23893,-1.4828 -1.23,-2.45c0.12,-1.47 -0.66,-2.84 -0.34,-4.31l-0.57,-0.16Zm15.34,-3.64l9,3.79c0.1,-4.13 -0.38,-9.69 -0.92,-10.71c-0.72,0.86 0,1.88 -0.44,2.82l4.54746e-08,-8.72876e-08c-0.471191,0.904441 -1.12096,1.7039 -1.91,2.35l-3.93962e-08,-1.65851e-08c-0.730625,-0.30758 -1.57396,-0.154603 -2.15,0.39c-0.82,-0.19 -1.37,-0.93 -2.19,-0.54Zm139.88,-34l-4.5576e-06,-1.43246e-06c-4.0046,-1.25865 -8.09087,-2.24096 -12.23,-2.94l-3.55005e-08,-6.35491e-07c0.0336862,0.603015 0.281978,1.17409 0.7,1.61h1c-0.06,1.1 0.9,1 1.6,1.34c2.37,1 4.52,2.23 4,5.76Zm-11.2,0.31l-1.04246e-07,2.55035e-06c-0.0742923,1.81754 0.433712,3.61132 1.45,5.12l3.08395e-08,3.58827e-08c0.799154,0.929842 2.20078,1.03578 3.13062,0.236631c0.929842,-0.799154 1.03578,-2.20078 0.236631,-3.13062c-0.0312649,-0.0363777 -0.0637006,-0.0717326 -0.097256,-0.106009l-2.43974e-08,-2.80831e-08c-0.241869,-0.278408 -0.525193,-0.517884 -0.84,-0.71l-7.58926e-08,-4.23112e-08c-1.22176,-0.681148 -2.54545,-1.16065 -3.92,-1.42Zm-128.68,32.12c-3.06,-0.72 -3.54,-0.69 -5.27,0.51c1.43,0.39 2.79,-0.3 4,0.35c0.18,0.1 0.56,-0.15 0.83,-0.29c0.27,-0.14 0.17,-0.31 0.44,-0.57Zm122.63,-28l0.32,0.18c0.9,-1 2.16,-1.77 2.63,-3.24c-1,-0.35 -1.35,1.06 -2.26,0.47Zm-124.2,23.9l2.54633e-08,8.53699e-09c-0.704424,-0.23617 -1.46977,-0.214911 -2.16,0.0599999l-3.81081e-08,3.03051e-07c-0.0613264,0.487693 0.284312,0.932761 0.772004,0.994087c0.0225814,0.00283956 0.0452633,0.0048119 0.0679959,0.00591266c0.699999,0.11 1.03,-0.37 1.32,-1.06Zm34.67,-11.19h3.05l8.6331e-08,6.65649e-08c-0.894674,-0.689832 -2.14081,-0.693931 -3.04,-0.0100001Zm6.07,-2.2c0.5,-0.37 0.61,-0.72 0.24,-1.23l4.15589e-08,-1.80397e-08c-0.379961,0.164932 -0.554277,0.606654 -0.389345,0.986616c0.0378466,0.087189 0.0919214,0.16639 0.159345,0.233384Zm-9,-0.27c0.27,-0.46 0.34,-0.81 -0.22,-1c-0.32,0.36 -0.32,0.65 0.19,0.99Z" transform="translate(135.432, 70.87)"></path><path d="M0.154021,26.85l-1.3422e-06,-2.46728e-05c-0.15402,-2.83124 -0.154019,-5.66876 2.68442e-06,-8.5c0.05,-5.37 0.22,-10.73 0.35,-16.1c0,-0.36 0.07,-0.73 0.11,-1.25c3.38,-0.32 6.73,-1 10.1,-0.15l7.04882e-07,1.4168e-07c2.61943,0.5265 4.70401,2.50996 5.36,5.1l2.88977e-08,9.99139e-08c0.741593,2.56406 0.796767,5.27792 0.16,7.87l-1.09861e-07,6.534e-07c-0.377083,2.24269 -1.85813,4.14475 -3.94,5.06l4.08,8.48h-6.67c0,-0.11 0.16,-0.25 0.13,-0.32l9.06474e-07,2.39597e-06c-1.01673,-2.6874 -2.2404,-5.29188 -3.66,-7.79h-0.07v0.0300214c0,0.37 -0.06,0.73 -0.1,1.1c-0.28,2.26 0.21,4.57 -0.41,6.81Zm5.91,-12.3c2.1,0.75 3.34,0.29 4.15,-1.52l1.70922e-07,-3.81612e-07c0.633905,-1.4153 0.788399,-2.99887 0.44,-4.51c-0.53,-2.43 -1.77,-3.15 -4.36,-2.51c-0.25,2.84 -0.17,5.71 -0.23,8.53Z" transform="translate(268.586, 468.72)"></path><path d="M5.52,0.34l0.1,0.06l-0.06,0.1h-5.56l0.12,-0.5Z" transform="translate(268.63, 495.57)"></path><path d="M5.69,26.47l-2.12204e-06,-2.31997e-07c-1.91636,-0.209511 -3.81704,-0.54355 -5.69,-1c1.54,-8.57 3.27,-17 4.9,-25.47l1.07648e-06,7.44201e-08c1.69218,0.116985 3.36775,0.408533 4.99999,0.869998l2.66,12.07h0.26l2.2,-11.07l1.6572e-06,2.04098e-07c1.89545,0.23344 3.77302,0.594255 5.61998,1.08l-4.95998,25.36c-1.65,0.14 -3.08,-0.48 -4.71,-0.67l-2.78,-11.9l5.4846e-07,-1.24214e-06c-0.718901,1.62816 -1.194,3.35335 -1.41,5.12c-0.38,1.82 -0.71,3.64 -1.09,5.61Z" transform="translate(206.16, 430.69)"></path><path d="M11.04,27.38l-3.16,-11.91h-0.3l-1.87,11.08l-5.71,-0.94l4.2,-25.61l-3.84297e-07,-2.5091e-08c1.68283,0.109873 3.35455,0.3506 5,0.72l2.92,11.63c1.14,-3.46 1.48,-7 2.24,-10.65c1.83,-0.1 3.56,0.57 5.62,0.68c-1.31,8.69 -2.8,17.16 -4.17,25.72l1.17423e-07,5.40729e-09c-1.61064,-0.0741697 -3.20922,-0.315465 -4.77,-0.72Z" transform="translate(216.65, 464.15)"></path><path d="M14.86,29.64l-8.20569e-07,-2.33453e-07c-1.48514,-0.422524 -2.93599,-0.957401 -4.34,-1.6l-0.91,-11.9l-0.36,-0.09l-2.6824e-06,5.96881e-06c-0.731042,1.62669 -1.36221,3.29645 -1.88999,4.99998c-0.64,1.71 -1.26,3.44 -1.94,5.3l-5.42,-2c2.86,-8.2 5.79,-16.27 8.71,-24.35l1.4145e-08,3.23212e-10c0.835131,0.0190838 1.65398,0.23493 2.39,0.63l7.27617e-07,1.7316e-07c0.845708,0.201264 1.65296,0.539025 2.39,0.999999l0.77,12c1.74,-3.27 2.69,-6.85 4.2,-10.41l5,1.78c-2.50193e-06,1.38002 -7.19,21.9 -8.6,24.64Z" transform="translate(150.61, 415.36)"></path><path d="M18.21,25.87l2.56119e-06,-4.71336e-07c-1.5795,0.290675 -3.18428,0.421336 -4.79,0.390001l-5.9,-10.55c-0.23,3.68 0.37,7.27 0.52,11c-1.85,0.6 -3.7,0.29 -5.71,0.83l-2.33,-25.91c1.67,-0.57 3.27,-0.39 5,-0.7l5.64,10.39l5.40922e-07,-2.70845e-06c0.342131,-1.71308 0.342131,-3.47691 -3.38267e-07,-5.19c-0.18,-1.77 -0.3,-3.56 -0.45,-5.43l-1.20974e-06,2.68636e-07c1.81775,-0.403651 3.66899,-0.637986 5.52998,-0.7l3.88054e-07,2.39128e-06c0.46113,2.84159 0.771564,5.7056 0.93,8.58c0.27,2.83 0.52,5.65 0.78,8.48c0.26,2.83 0.500017,5.75 0.780017,8.81Z" transform="translate(305.91, 467.82)"></path><path d="M1.04236e-06,17.4433l-1.04236e-06,0.000566794c0.00682428,-3.73541 0.908577,-7.41481 2.62974,-10.7301l-8.67186e-08,1.67308e-07c0.540082,-1.04199 1.21229,-2.00997 2,-2.88l-7.69376e-07,9.29509e-07c2.27231,-2.74525 5.98511,-3.83376 9.38,-2.75c3.53,1 5.88,3.19 6.54,6.8l-5.53079e-08,-2.77218e-07c1.16506,5.8396 -0.297852,11.8961 -4,16.56c-2.52,3.29 -6,4.1 -9.94,2.89l3.00184e-07,8.17172e-08c-3.62679,-0.987298 -6.2261,-4.16915 -6.47,-7.92c-0.0997365,-0.750505 -0.119737,-1.49051 -0.139737,-1.97051Zm6.07,0.5l-3.57796e-08,4.95325e-07c-0.0761326,1.05396 0.0915356,2.1113 0.49,3.09l-3.35547e-08,-9.93236e-08c0.448983,1.32901 1.89033,2.04242 3.21934,1.59343c0.325232,-0.109874 0.624817,-0.284535 0.880657,-0.513433l-1.7632e-07,1.43287e-07c0.770979,-0.626541 1.38983,-1.41977 1.81,-2.32l2.07156e-07,-4.09046e-07c1.37105,-2.70725 2.16449,-5.66989 2.33,-8.7l2.34586e-07,-5.46429e-06c0.0371629,-0.865656 -0.08834,-1.7306 -0.370002,-2.55c-0.73,-2.25 -2.89,-2.8 -4.67,-1.23l3.84124e-07,-3.49325e-07c-0.595064,0.541155 -1.08349,1.18899 -1.44,1.91l-8.54787e-07,1.69769e-06c-1.36554,2.7121 -2.13283,5.68579 -2.25,8.72Z" transform="translate(186.26, 426.167)"></path><path d="M0.0189984,13.5001l-5.9943e-07,-6.46405e-05c-0.0189978,-2.04909 0.343865,-4.08379 1.07002,-5.99999c2.22,-5.71 11,-7.5 15.26,-2.47l4.86555e-08,5.8305e-08c1.38101,1.6549 2.40266,3.57899 3,5.65l2.45081e-07,7.19827e-07c1.21875,3.57959 1.49428,7.4129 0.8,11.13l-1.731e-07,1.13013e-06c-0.570931,3.72747 -3.48574,6.65846 -7.21,7.25c-4.29,0.79 -7.53,-0.57 -9.85,-4.16l-1.87708e-06,-3.23315e-06c-2.01045,-3.46288 -3.06958,-7.39576 -3.07002,-11.3999Zm6.14,-0.66l-6.73925e-07,-1.52922e-05c0.101809,2.3102 0.494917,4.59829 1.17,6.81l-1.26875e-07,-4.37623e-07c0.326592,1.12649 0.844104,2.18858 1.53,3.14l-9.21662e-08,-1.63793e-07c0.590876,1.05007 1.75266,1.64475 2.95,1.51c1.4,-0.25 2,-1.37 2.33,-2.59l3.02487e-08,-1.2808e-07c0.0427507,-0.181017 0.0728236,-0.364796 0.0899998,-0.549998l3.91431e-07,-2.79382e-06c0.514347,-3.67113 -0.048442,-7.41263 -1.62,-10.77l1.25738e-07,2.65055e-07c-0.157467,-0.331941 -0.34846,-0.646912 -0.57,-0.94l1.07606e-07,2.00426e-07c-0.601211,-1.11981 -1.82853,-1.75531 -3.09,-1.6l-3.49879e-08,7.07342e-09c-1.25674,0.254072 -2.2131,1.27874 -2.38,2.55l-3.09106e-07,1.33322e-06c-0.182717,0.788084 -0.319611,1.58609 -0.409993,2.39002Z" transform="translate(334.531, 430.21)"></path><path d="M0,3.12208c2.9,-0.93 5.6,-2.18 8.58,-2.5l-1.63752e-07,2.97546e-08c3.42357,-0.622079 6.81501,1.23842 8.13,4.46l3.56076e-07,7.16971e-07c1.04806,2.1103 1.59556,4.43378 1.6,6.79l1.38467e-07,1.90657e-06c0.16169,2.22634 -0.826804,4.38065 -2.62,5.71l3,3.51l2.93,3.47l-1.94664e-07,1.13399e-07c-0.920524,0.53624 -1.94184,0.876677 -3,1c-0.95,0.25 -1.91,0.44 -3,0.7l-5.41,-6.72l-0.36,0.14l1.64,7.45c-1.79,0.67 -3.57,0.88 -5.24,1.35c-0.889998,-1.31 -5.25,-19.1 -6.25,-25.36Zm8.66,11.89c2.35,0 3.2,-0.59 3.62,-2.51l2.23606e-07,-1.16476e-06c0.330789,-1.72307 0.00244736,-3.50753 -0.920001,-5c-1.06,-1.92 -2.7,-2.19 -4.63,-0.81Z" transform="translate(354, 427.988)"></path><path d="M12.8,19.17l3.48,8.67l-6.3,-0.5l-3.08,-8.17h-0.37l-0.76,7.56l-1.30021e-06,3.43913e-08c-1.93555,0.0511963 -3.8708,-0.113148 -5.77,-0.49l2.33,-25.75c3.51,-0.09 6.89,-0.49 10.19,0.55l-1.80066e-07,-5e-08c2.50721,0.696193 4.41195,2.74001 4.93,5.29l-3.36719e-07,-1.35941e-06c0.726596,2.93343 0.534605,6.01926 -0.549998,8.84l9.36269e-08,-2.63456e-07c-0.673831,1.89609 -2.18785,3.37318 -4.1,4Zm-5.9,-4.75c2.05,0.92 3.29,0.54 4.24,-1.21l4.1702e-08,-8.09918e-08c0.736961,-1.43129 0.982922,-3.06518 0.7,-4.65c-0.33,-2.3 -1.64,-3.14 -4.18,-2.6Z" transform="translate(243.1, 435.83)"></path><path d="M5.27998,25.98l-3.97242e-07,-1.53256e-07c-1.80387,-0.695934 -3.56671,-1.49388 -5.27998,-2.38999l10.87,-23.59c3.24,1.1 6.49,1.84 9.24,3.83l-1.07524e-07,-7.18401e-08c2.38766,1.59527 3.57325,4.47625 3,7.29l-1.18762e-07,7.39733e-07c-0.40435,2.51857 -1.43603,4.89488 -3,6.91l5.05721e-08,-7.70337e-08c-1.24514,1.89665 -3.37133,3.0276 -5.64,3l0.29,9.41l-5.8,-2.67v-8.51001l-0.46,-0.11Zm5.22,-11.23c2,1.53 3.35,1.44 4.83,-0.18l1.8237e-08,-2.04702e-08c0.862595,-0.968227 1.4769,-2.13163 1.79,-3.39c0.65,-2.42 -0.27,-3.78 -3,-4.27Z" transform="translate(119.81, 402.74)"></path><path d="M18.2,24.72l4.45504e-06,-1.12602e-06c-1.94101,0.490593 -3.91181,0.85469 -5.89998,1.09c-0.89,-1.41 -0.92,-3.1 -1.79,-4.55l-4.52,0.89c-0.23,1.64 0.31,3.15 0.12,4.88l-5.43631e-07,1.31209e-07c-2.01536,0.486422 -4.05483,0.866943 -6.11,1.14v-26.49l8.77,-1.68Zm-9.27,-8.27c-0.92,-4.23 -3,-9.76 -4,-10.47c0.2,3.78 0.37,7.4 0.76,11.07l4.1716e-07,-3.37884e-08c1.0944,-0.0886422 2.17677,-0.289701 3.23,-0.599999Z" transform="translate(343.33, 462.91)"></path><path d="M8.13,20.8683l0.63,5.81l-3.64283e-08,1.25621e-08c-1.84891,0.63759 -3.81345,0.869514 -5.76,0.68l-3,-25.53l-1.28561e-06,3.82262e-07c2.9324,-0.871915 5.94948,-1.4284 8.99999,-1.66l2.60011e-08,-1.52812e-09c2.86393,-0.168316 5.55903,1.36335 6.88,3.91l2.03077e-07,3.62365e-07c1.76921,3.15693 2.33747,6.84705 1.6,10.39c-0.82,4.21 -3.8,6.43 -8.09,6.22l-8.05498e-08,-2.45861e-08c-0.425893,-0.129995 -0.887528,-0.0640466 -1.25999,0.179999Zm-0.69,-5.73c2.27,1 3.79,0.1 4.25,-2.32l-2.75361e-07,1.61742e-06c0.3129,-1.83792 0.0618848,-3.72751 -0.719999,-5.42c-0.88,-2 -2.33,-2.49 -4.59,-1.4Z" transform="translate(315.08, 435.252)"></path><path d="M14.31,17.87l-3.13,-15.63c1.84,-0.94 3.73,-1.43 5.8,-2.24l3.86,26.26c-2.2,1.06 -4.5,1.71 -6.84,2.61l-14,-22.56l-9.69871e-07,4.27331e-07c1.91175,-0.842327 3.87187,-1.57028 5.87,-2.18l7.81,14.33l-2.1356e-07,-7.36074e-07c0.220281,0.759237 0.633747,1.44835 1.2,2l2.47387e-07,5.42668e-05c-0.00407164,-0.893997 -0.198368,-1.77689 -0.569976,-2.59Z" transform="translate(394.29, 413.92)"></path><path d="M13.91,2.61106l-0.87,6.45c-0.7,-0.18 -0.82,-0.73 -1.15,-1.07l-1.20904e-08,-1.43486e-08c-0.864454,-1.02592 -2.26653,-1.42199 -3.54,-1l-1.06003e-08,3.64184e-09c-1.28101,0.440105 -2.14085,1.6455 -2.14,3l-1.10433e-07,8.09459e-07c-0.172683,1.26574 0.51798,2.49177 1.69,3c1.11,0.55 2.26,1 3.35,1.57l4.41851e-07,2.56005e-07c3.75605,2.17623 5.03676,6.98529 2.86053,10.7413c-0.088448,0.152656 -0.182011,0.302292 -0.280529,0.448651l1.62403e-07,-2.17186e-07c-0.821948,1.09922 -2.00423,1.87442 -3.34,2.19l2.12676e-07,-4.99413e-08c-3.04536,0.715122 -6.24959,0.212779 -8.93,-1.4c0,-0.9 0,-1.82 0,-2.73c0,-0.91 0.18,-1.83 0.27,-2.78c0.75,0 0.92,0.61 1.29,0.95l9.80632e-08,9.72581e-08c1.02083,1.01245 2.39251,1.59263 3.83,1.62l-3.28248e-08,-1.83019e-09c1.10286,0.0614894 2.04675,-0.782706 2.10824,-1.88556c0.00342442,-0.0614194 0.00401336,-0.122964 0.00176496,-0.184438l1.082e-07,-1.14326e-06c0.138572,-1.46418 -0.663604,-2.85595 -2,-3.47l1.39298e-06,7.1157e-07c-0.935102,-0.477674 -1.89665,-0.901692 -2.87999,-1.27l2.37511e-08,8.13912e-09c-2.29417,-0.786176 -3.8654,-2.90634 -3.95,-5.33c-0.23,-2.71 0,-5.32 1.89,-7.51l-1.78034e-08,1.98953e-08c3.01999,-3.37487 8.08966,-3.95107 11.79,-1.34001Z" transform="translate(276.02, 436.689)"></path><path d="M9.87,0l10.94,4.47l6.27198e-07,-2.19665e-06c-0.469756,1.64524 -1.11689,3.23457 -1.93,4.74l-5.29,-2.1l-8.48827e-07,1.58412e-06c-0.813829,1.5188 -1.51246,3.09657 -2.09,4.72c1.55,1.08 3.44,1.36 5.07,2.39l2.00699e-07,-6.09331e-07c-0.497148,1.50936 -1.11238,2.97723 -1.84,4.39l-5.07,-2l1.02779e-06,-1.97794e-06c-0.803545,1.54639 -1.47267,3.15899 -2,4.82c1.7,1 3.63,1.35 5.34,2.46l-2,4.78l-11,-4.5Z" transform="translate(136.96, 410)"></path><path d="M10,28.54l-10,-24c3.56,-1.69 7.18,-3 10.69,-4.54l-5.06816e-09,-6.73435e-09c1.02174,1.35762 1.72881,2.92546 2.07,4.59c-1.57,1 -3.51,1.38 -5.23,2.47l1.94,4.67c1.84,-0.37 3.35,-1.39 5.15,-1.87c1,1.23 1.25,2.76 2,4.17c-1.57,1.17 -3.46,1.45 -5.07,2.44l1.61353e-06,4.58692e-06c0.58171,1.65367 1.24928,3.27588 2,4.86l5.31,-2.17c1.05,1.42 1.35,3.08 2.28,4.76c-3.76,1.62 -7.4,3.02 -11.14,4.62Z" transform="translate(412.35, 409)"></path><path d="M6.68,15.85l-9.90365e-07,7.418e-06c-0.22446,1.68124 -0.351339,3.37408 -0.379999,5.07c1.84,0.56 3.78,0.26 5.73,0.68c0.25,1.72 -0.17,3.37 -0.16,5l-3.69213e-07,1.38731e-07c-0.245246,0.0921502 -0.500241,0.155899 -0.759999,0.19l-11.11,-0.79c0.46,-8.67 1.14,-17.22 1.7,-26l11.77,0.79l3.31011e-07,6.58957e-06c0.0831857,1.65601 -0.0174287,3.31615 -0.3,4.94999c-1.92,0.27 -3.74,-0.19 -5.8,-0.12l-1.20731e-06,8.67057e-06c-0.234828,1.68646 -0.351778,3.38725 -0.349999,5.08998c1.78,0.56 3.61,0.2 5.44,0.65c0.24,1.55 -0.2,3 -0.14,4.61c-1.93,0.299999 -3.75,-0.320001 -5.64,-0.120001Z" transform="translate(253.79, 468.73)"></path><path d="M13.2121,3.25l-0.34,6.19c-0.73,0.22 -0.84,-0.43 -1.18,-0.73l1.18113e-07,1.24318e-07c-0.967066,-1.01787 -2.47473,-1.30734 -3.75,-0.72l1.76717e-07,-7.979e-08c-1.22316,0.552271 -1.95611,1.82486 -1.82,3.16l-2.12835e-08,3.19581e-06c-0.00892832,1.34073 0.872861,2.52462 2.16,2.9c1.09,0.43 2.23,0.75 3.3,1.22l5.61115e-07,2.77907e-07c3.90484,1.93398 5.50254,6.66727 3.56856,10.5721c-0.0717847,0.144939 -0.148009,0.287635 -0.228565,0.427888l1.21894e-07,-1.98009e-07c-0.654565,1.0633 -1.6586,1.86582 -2.84,2.27l-6.78063e-07,2.34042e-07c-3.08308,1.06416 -6.45999,0.881144 -9.41,-0.51v-5.52c0.61,-0.16 0.78,0.35 1.09,0.6l-5.1017e-08,-4.49053e-08c1.02838,0.905181 2.33193,1.43717 3.7,1.51l-1.25205e-07,-1.66777e-08c1.22081,0.162616 2.3423,-0.695222 2.50492,-1.91603c0.0487645,-0.366092 0.00584031,-0.738563 -0.124918,-1.08397l-4.17727e-08,-1.66525e-07c-0.291852,-1.16345 -1.13671,-2.10925 -2.26,-2.53c-0.92,-0.36 -1.85,-0.67 -2.8,-1l1.45503e-07,3.75326e-08c-2.53374,-0.653581 -4.3684,-2.85034 -4.56,-5.46l-4.29039e-07,-2.83625e-06c-0.222073,-1.46806 -0.18824,-2.96349 0.100001,-4.42c1.13,-5.42 8.24,-8.21 12.89,-4.96Z" transform="translate(299.108, 434.92)"></path><path d="M12.85,5.48999h-5.81l-7.96941e-08,5.09428e-07c-0.262268,1.6765 -0.336061,3.37708 -0.22,5.06999c1.82,0.53 3.64,0.09 5.42,0.53l1.08083e-06,1.49322e-05c0.110762,1.53023 0.0705672,3.06764 -0.120002,4.58999c-1.81,0.45 -3.65,-0.26 -5.54,0l-3.89985e-07,2.87718e-06c-0.23352,1.72283 -0.310501,3.46328 -0.229999,5.2l5.65,0.36v5.26c-4,-0.23 -7.91,-0.19 -12,-0.61l1.17,-25.89c4,0 7.85,0.27 11.77,0.46l9.91116e-07,1.22342e-05c0.135738,1.67553 0.105591,3.36038 -0.0900003,5.02999Z" transform="translate(261.9, 437.8)"></path><path d="M12.7617,2.07288v6.43c-0.67,-0.08 -0.87,-0.6 -1.25,-0.89l-1.10887e-07,-9.24472e-08c-1.02841,-0.857393 -2.47739,-0.996337 -3.65,-0.35l-3.05602e-07,1.51911e-07c-1.1451,0.569214 -1.80351,1.80172 -1.64,3.07l-1.24609e-07,3.5436e-06c-0.0448853,1.27646 0.776735,2.42261 2,2.79c1.11,0.37 2.25,0.65 3.37,1l5.8238e-08,1.9875e-08c4.09263,1.39669 6.27811,5.84667 4.88142,9.93929c-0.0635307,0.186159 -0.134054,0.369859 -0.211419,0.550707l-9.13074e-08,2.0992e-07c-0.576635,1.32571 -1.65551,2.36862 -3,2.9l-4.17795e-07,1.73261e-07c-2.97915,1.23546 -6.32263,1.26057 -9.32,0.0699999l-0.49,-5.86c0.93,0.62 1.55,1.09 2.23,1.47l-1.41558e-07,-8.46218e-08c0.964415,0.576515 2.09823,0.802571 3.21,0.64l1.03511e-07,-5.95151e-09c1.14686,-0.0659398 2.02312,-1.04911 1.95718,-2.19597c-0.00883917,-0.153735 -0.0347231,-0.306013 -0.0771759,-0.454035l1.20337e-07,7.19596e-07c-0.208192,-1.24496 -1.05491,-2.28911 -2.23,-2.75l-3.21301e-07,-1.25063e-07c-0.970071,-0.37759 -1.9749,-0.658942 -3,-0.84l-4.58068e-07,-7.54393e-08c-2.71704,-0.447471 -4.81182,-2.63598 -5.14,-5.37l2.88841e-07,1.21265e-06c-0.401686,-1.68641 -0.401686,-3.44359 -5.77681e-07,-5.13l-3.37593e-07,1.08529e-06c1.41568,-4.55112 6.25273,-7.09289 10.8039,-5.6772c0.538959,0.16765 1.06017,0.38777 1.55615,0.657198Z" transform="translate(324.038, 464.567)"></path><path d="M9.97103,27.19l-2,-5.17c0.54,-0.45 0.88,0 1.24,0.11l3.44726e-07,1.41895e-07c1.27221,0.523663 2.68794,0.583831 4,0.17l2.15359e-07,-4.17992e-08c1.20361,-0.23361 1.98995,-1.39871 1.75634,-2.60232c-0.0755122,-0.389055 -0.253797,-0.750803 -0.516342,-1.04768l-1.86199e-08,-2.96587e-08c-0.645283,-1.02784 -1.78695,-1.63673 -3,-1.6c-1.17,0 -2.34,0 -3.51,0.07l4.3284e-08,-3.19159e-09c-2.21296,0.163173 -4.32231,-0.961557 -5.42,-2.89l-6.77285e-07,-1.01899e-06c-0.856263,-1.28827 -1.45087,-2.73232 -1.75,-4.25l-2.18658e-07,-1.31798e-06c-0.771031,-4.64746 2.37144,-9.04002 7.0189,-9.81105c1.01836,-0.168949 2.05892,-0.15165 3.0711,0.0510565c0.79,1.92 1.36,4 2,6c-0.57,0.35 -0.87,-0.11 -1.23,-0.25l-1.41052e-08,-7.57598e-09c-1.29765,-0.696974 -2.90078,-0.443418 -3.92,0.62l2.41526e-07,-2.35893e-07c-0.913272,0.891971 -1.16204,2.2642 -0.62,3.42l-3.56327e-08,-1.14941e-07c0.418465,1.34986 1.72227,2.22462 3.13,2.1c0.92,0 1.85,-0.08 2.77,-0.08l4.62798e-07,-7.25191e-09c4.30729,-0.0674935 7.85376,3.36954 7.92125,7.67683c0.00535602,0.34181 -0.0117646,0.683602 -0.051251,1.02317l1.17368e-07,-1.55474e-06c-0.0850894,1.12716 -0.562817,2.18878 -1.35,3c-2.57,2.62 -5.8,3.49 -9.54,3.46Z" transform="translate(426.219, 403.34)"></path><path d="M11.91,27.509l7.46938e-07,-1.46782e-07c-1.66262,0.326726 -3.38023,0.23741 -5,-0.26c-3.27,-1.08 -5.48,-3.3 -6,-6.69c-0.91,-6.5 0.64,-12.42 5.34,-17.19l6.39048e-07,-6.13453e-07c2.96447,-2.84574 7.46131,-3.369 11,-1.28l-6.26359e-08,-2.9865e-08c0.99248,0.473217 1.77573,1.29563 2.2,2.31c-0.87,1.86 -1.55,3.88 -2.59,5.74c-0.67,-0.33 -0.55,-0.92 -0.77,-1.35l1.10899e-07,3.02575e-07c-0.570176,-1.55566 -2.2935,-2.35454 -3.84916,-1.78437c-0.284004,0.104093 -0.550632,0.250538 -0.79084,0.434368l-4.7524e-07,2.99658e-07c-0.839352,0.529246 -1.55271,1.23577 -2.09,2.07l1.32042e-07,-1.96251e-07c-1.69993,2.52656 -2.64354,5.48576 -2.72,8.53l-3.49027e-07,1.0937e-05c-0.0177565,0.556427 0.0258404,1.11312 0.130002,1.66c0.49,2.52 2.4,3.58 4.84,2.74c0.56,-0.19 1,-0.69 1.61,-0.68c0.28,0.25 0.17,0.51 0.11,0.73c-0.440003,1.65999 -0.920003,3.30999 -1.42,5.01999Z" transform="translate(170.41, 421.971)"></path><path d="M2.73585e-07,4.14l14.55,-4.14l-1.05518e-06,-2.0616e-06c0.75104,1.46738 1.39278,2.98817 1.92,4.55c-1.36,1 -3.09,0.85 -4.6,1.74l5.63,19.9l-9.56127e-07,3.51057e-07c-1.90471,0.699344 -3.85617,1.26407 -5.84,1.69l-5.71,-19.94c-1.73,0.08 -3.21,1 -5,1.11l-7.74726e-07,-2.66057e-06c-0.467051,-1.60395 -0.785066,-3.24759 -0.949999,-4.91Z" transform="translate(370.45, 423.06)"></path><path d="M8.75999,27.06l-1.9351e-06,-5.79562e-08c-2.01385,-0.0603151 -4.01994,-0.27764 -5.99999,-0.649998l2.27,-20.54c-1.6,-0.63 -3.26,-0.31 -4.91,-0.87c-0.12,-1.62 0.52,-3.16 0.74,-5l14.93,1.66l1.17741e-07,4.63134e-07c0.416408,1.63794 0.440392,3.35104 0.0699998,5c-1.51,0.26 -3,-0.47 -4.74,-0.15Z" transform="translate(237.52, 466.84)"></path><path d="M0,4.91001l9.60402e-07,-7.34923e-06c0.216704,-1.65827 0.550878,-3.29906 1,-4.91l15.06,2.09001l5.74409e-07,1.53995e-05c0.0616094,1.65171 0.00814608,3.30571 -0.160002,4.95c-1.61,0.3 -3.08,-0.45 -4.86,-0.3l-2.95,20.47l-1.56754e-06,-1.09469e-07c-2.01425,-0.140664 -4.01799,-0.404491 -6,-0.79c0.76,-6.9 2,-13.67 2.79,-20.52c-1.49,-0.630015 -3.16,-0.390015 -4.88,-0.990015Z" transform="translate(227.5, 433.91)"></path><path d="M5.23998,0l2.82256e-06,3.92047e-07c2.00496,0.278486 3.9893,0.689382 5.93998,1.22999l-5.17998,25.35l-4.33486e-06,-5.53195e-07c-2.02271,-0.25813 -4.02681,-0.645588 -5.99998,-1.15999Z" transform="translate(207.47, 462.42)"></path><path d="M8,26.65l-8,-24.71l3.12241e-06,-1.26558e-06c1.87929,-0.761719 3.80276,-1.40955 5.75995,-1.93999l8,24.79Z" transform="translate(387.1, 420.53)"></path><path d="M8.71951,0.14v4.79c-2.75,0.18 -5.54,0.19 -8.42,0.15l-6.17432e-07,-4.04398e-06c-0.242456,-1.58801 -0.299505,-3.19882 -0.169999,-4.8c2.86,-0.0999959 5.63,-0.279996 8.59,-0.139996Z" transform="translate(286.72, 481.7)"></path><path d="M0.67,0l1.98052e-07,4.51756e-07c0.355096,0.80997 0.535679,1.68563 0.53,2.57l-2.91307e-07,-2.83796e-07c-0.566253,-0.551653 -0.979719,-1.24076 -1.2,-2l-1.45733e-07,5.74658e-08c0.28031,-0.110533 0.515977,-0.311025 0.67,-0.57Z" transform="translate(407.93, 431.79)"></path><path d="M0.122464,0c0.34,0.1 0.41,0.39 0.47,0.68l-0.15,0.11l2.76381e-08,1.1816e-08c-0.27848,-0.119058 -0.442464,-0.410129 -0.4,-0.71Z" transform="translate(406.448, 83.06)"></path><path d="M0.0360167,0c0.49,0.08 0.63,0.33 0.36,0.77v0l2.35796e-08,1.46533e-08c-0.252963,-0.157201 -0.396017,-0.443309 -0.37,-0.74Z" transform="translate(369.784, 97.56)"></path><path d="M0.22,0.04l-0.22,0.13c0,-0.14 0.1,-0.17 0.24,-0.1Z" transform="translate(359.25, 94.2)"></path><path d="M0.35,0.118936v0.43l-0.35,-0.46v0l2.41078e-08,-2.1815e-08c0.0982828,-0.0889357 0.250053,-0.0813583 0.338989,0.0169245c0.00382443,0.00422637 0.00749708,0.00858765 0.011011,0.0130755Z" transform="translate(370.24, 98.2011)"></path><path d="M0,0l5.17099e-09,1.14075e-09c0.238077,0.0525218 0.417893,0.248322 0.45,0.49l1.24529e-08,3.1952e-09c-0.233706,-0.0599645 -0.410106,-0.252045 -0.45,-0.49Z" transform="translate(346.4, 104.23)"></path><path d="M0.08,0.04l0.01,0.09l-0.09,-0.04v-0.09l0.08,0.04Z" transform="translate(274.66, 487.91)"></path><path d="M31.38,118.66c2.66667,-4.94667 5.33333,-9.89667 8,-14.85l1.33334e-07,-1.88704e-07c0.494227,-0.69947 0.875539,-1.47222 1.13,-2.29l8.40383e-08,-1.03095e-07c0.802244,-0.984164 1.39747,-2.1202 1.75,-3.34l-14.2,1.65l9.39919e-07,-1.88621e-07c-1.02353,0.205399 -2.0729,0.249264 -3.11,0.130001l-4.87993e-08,-3.26434e-07c-0.0272554,-0.18232 -0.0272554,-0.367679 -9.59724e-09,-0.549999l-5.92497e-07,2.38485e-06c0.821311,-3.30585 2.58221,-6.30319 5.07,-8.63c0.42,-0.42 1,-0.37 1.57,-0.45c5.19,-0.77 10.38,-1.56 15.54,-2.53c0.66,-0.12 1.32,-0.27 1.94,-0.4c2.87,-4.42 5.66,-8.8 8.52,-13.11c10.06,-15.13 21.1,-29.54 32.31,-43.83c0.8,-1 1.58,-2.05 2.36,-3.08c0.78,-1.03 2.14,-2.1 2.48,-3.67l-1.15263e-07,-4.40032e-08c-0.186567,-0.0712246 -0.381484,-0.118274 -0.579999,-0.14c-0.486667,0.08 -0.97,0.173333 -1.45,0.28l-1.02564e-05,2.30677e-06c-6.08187,1.36787 -12.0417,3.23074 -17.82,5.56999l1.34136e-05,-5.41077e-06c-16.1016,6.49506 -31.1964,15.2496 -44.83,26l-8.41323e-06,6.39673e-06c-5.55227,4.22149 -10.6738,8.98128 -15.29,14.21l-1.04027e-07,8.54897e-08c-0.684455,0.56249 -1.16281,1.33629 -1.36,2.2l1.2812e-07,7.62281e-08c0.914754,0.544253 2.04159,0.593083 3,0.13c3.61,-0.42 6.85,-1.92 10.07,-3.46c2.09,-1 4.12,-2.14 6.19,-3.23c0.45,1.3 1.05,12.12 0.85,14.75l-2.10305e-06,8.60254e-07c-1.14101,0.466731 -2.31402,0.851049 -3.51,1.15l-1.67307e-06,3.88333e-07c-4.98831,1.15783 -10.0671,1.88384 -15.18,2.17l-3.74382e-08,4.32561e-09c-1.61035,0.186059 -3.21804,-0.369457 -4.37,-1.51l-2.43278e-06,-2.22321e-06c-4.09923,-3.7461 -7.55821,-8.13739 -10.24,-13c-0.22,-4.14 1.51,-7.56 4,-10.65l4.32319e-06,-5.10926e-06c3.0748,-3.63388 6.53508,-6.92316 10.32,-9.81l-1.3501e-05,1.08941e-05c14.6841,-11.8488 31.1825,-21.2528 48.86,-27.85c9.53,-3.5 19.4,-5.76 29.29,-8c9.89,-2.24 20.22,-3.33 30.41,-4.39c21.25,-2.2 42.54,-3.86 63.84,-5.45c11.76,-0.88 23.52,-1.66 35.28,-2.47c0.42,0 0.85,-0.21 1.3,0.07c0.38,0.56 -0.09,1.17 0,1.76l-3.78045e-08,1.90508e-08c-0.138096,0.0695909 -0.193631,0.237954 -0.12404,0.376051c0.0138323,0.0274488 0.0320898,0.0524328 0.0540399,0.0739493l-0.06,0.75l-2,15h-3.85c-11.11,0.07 -22.22,-0.08 -33.33,0.1c-7.71,0.12 -15.42,0.19 -23.13,0.37c-10.3,0.233333 -20.5933,0.616667 -30.88,1.15c-8.32,0.44 -16.63,1.05 -24.9,2l-4.41032e-07,1.09674e-08c-0.880928,0.0219067 -1.75238,0.187415 -2.58,0.49l1.66,2.8c0.45,1.3 1.06,2.6 0.26,4c-1.27,2 -2.51,4.09 -3.81,6.1c-9.81335,15.1733 -19.61,30.3533 -29.39,45.54l1.46545e-08,-1.70003e-08c-0.385605,0.44733 -0.635405,0.995501 -0.72,1.58l2.63,-0.87l-3.98123e-06,1.09193e-06c6.23764,-1.71079 12.3273,-3.92127 18.21,-6.61c0.45,-0.2 0.89,-0.42 1.35,-0.6c0.08,0 0.22,0.07 0.44,0.14c0.28,0.63 -0.24,1.25 -0.23,1.89c-0.17,0.06 -0.25,0.16 -0.15,0.33l-4.43591e-08,5.30138e-08c-0.167908,0.200668 -0.25048,0.459152 -0.23,0.72l-1.67703e-07,3.38944e-07c-1.75174,3.54043 -3.86284,6.89138 -6.3,10c-3.52,4.33 -3.64,4.47 -9.1,5.49c-4.48,0.84 -9,1.58 -13.49,2.29l-1.70024e-07,2.00021e-08c-0.971771,0.114322 -1.84675,0.642955 -2.4,1.45l-3.32333e-06,4.63587e-06c-3.02085,4.21393 -5.69622,8.66508 -8,13.31c-2.93,5.63 -6,11.2 -8.89,16.84l-5.15772e-09,1.0881e-08c-0.52679,1.11134 -1.51938,1.93178 -2.71,2.24c-3.13,1 -6.31,1.69 -9.48,2.5c-2.33,0.59 -4.66,1.17 -7,1.75l-2.31124e-08,9.48484e-09c-0.458638,0.188215 -0.959263,0.250362 -1.45,0.18c2,-4.49 4.4,-8.74 6.63,-13.09c0.300007,-0.570007 0.560007,-1.12001 0.830007,-1.67001Z" transform="translate(171.44, 259.99)"></path><path d="M0,0.77c0,-0.72 0.56,-0.75 1.09,-0.77l1.26015e-08,-5.49988e-08c-0.11388,0.497028 -0.583491,0.828771 -1.09,0.77Z" transform="translate(415.42, 361.09)"></path><path d="M0.74,5.9923c-0.41,-0.8 0.06,-1.48 0.17,-2.11c-0.25,-0.66 -0.81,-1 -0.91,-1.63l3.16561e-09,-9.57154e-09c0.21001,-0.634985 0.867545,-1.00701 1.52,-0.86l-2.57016e-07,-1.49793e-08c1.17389,0.0684159 2.34842,-0.122788 3.44,-0.56l4.40836e-07,-1.81859e-07c2.01753,-0.832296 4.28247,-0.832296 6.3,3.63718e-07l6.39526e-08,2.89791e-08c1.17894,0.534217 2.46681,0.784256 3.76,0.73l-4.4987e-08,2.66232e-09c0.358299,-0.0212041 0.712542,0.0850689 1,0.3c0.66,1 -0.3,1.49 -0.56,2.13c-0.26,0.64 0.52,1.48 -0.18,2.43c-0.22,0.29 -0.84,0.09 -1.34,0.22c-1.08,1.56 -1.32,1.65 -3,1l-2.81165e-09,-1.18041e-09c-1.84212,-0.773372 -3.91788,-0.773372 -5.76,2.36082e-09c-1.06,0.45 -2,0.39 -2.58,-0.62c-0.499999,-0.73 -1.4,-0.5 -1.86,-1.03Zm13.49,-3.18l-1.08322e-06,-1.33696e-07c-1.38499,-0.170942 -2.74462,-0.506652 -4.05,-1l-4.57828e-07,-1.78074e-07c-1.39895,-0.54413 -2.95105,-0.54413 -4.35,3.56149e-07l-6.33574e-07,2.4195e-07c-1.09636,0.418679 -2.24905,0.671461 -3.42,0.75c-0.09,0 -0.18,0.11 -0.27,0.16c0.12,0.48 0.81,0.29 0.91,0.82c-0.37,0.44 -1,0.74 -1,1.55l1.36169e-06,-3.85716e-07c2.00821,-0.568851 4.0686,-0.934027 6.14999,-1.09c2.07,0 4,0.94 6.14,1.25c-0.17,-0.76 -0.9,-1 -0.92,-1.71c0.0900098,-0.33 0.67001,-0.1 0.81001,-0.73Zm-1.63,3.91c-1.75,-1.69 -6.74,-1.83 -8.92,-0.27c1.62,0.15 2.91,-0.7 4.36,-0.69c1.45,0.01 2.89,0.89 4.56,0.96Z" transform="translate(392.58, 93.4777)"></path><path d="M3.51607,1.78533l9.01457e-08,-5.25344e-06c-0.0165806,0.966356 -0.813408,1.7363 -1.77976,1.71972c-0.966356,-0.0165806 -1.7363,-0.813408 -1.71972,-1.77976c0.0164449,-0.958444 0.800909,-1.72528 1.75948,-1.71995l-6.80375e-08,-4.00786e-09c0.95213,0.0560866 1.70557,0.826841 1.74001,1.78Zm-1.66,-0.38c-0.24,-0.05 -0.31,0.12 -0.36,0.28c-0.05,0.16 0.1,0.3 0.27,0.35l2.64492e-09,8.98325e-10c0.146425,0.0497315 0.305441,-0.0286538 0.355172,-0.175079c0.00929659,-0.027372 0.0142984,-0.0560186 0.0148275,-0.0849214c0.04,-0.2 -0.1,-0.31 -0.28,-0.37Z" transform="translate(402.484, 89.5947)"></path><path d="M3.49027,1.82l2.0008e-08,-2.23382e-07c-0.0848204,0.946986 -0.859922,1.68355 -1.81,1.72l1.85432e-08,1.81858e-09c-0.956942,-0.0938493 -1.68027,-0.908681 -1.66,-1.87l1.07652e-08,-6.80952e-08c0.138094,-0.873506 0.833471,-1.55262 1.71,-1.67l3.98542e-08,3.46701e-09c0.958214,0.0833574 1.7088,0.859531 1.76,1.82Zm-1.46,0c0,-0.23 -0.09,-0.34 -0.28,-0.38c-0.19,-0.04 -0.34,0.09 -0.39,0.28c-0.05,0.19 0.11,0.32 0.29,0.38c0.18,0.06 0.32,-0.08 0.38,-0.25Z" transform="translate(395.6, 89.46)"></path><path d="M7.55,0.887615c0.69,-0.22 1.38,-0.42 2.06,-0.67l-1.51284e-08,6.39221e-09c0.515026,-0.217615 1.11119,-0.0102541 1.38,0.48l0.86,-0.61c0.65,0 1.12,0.6 1.77,0.45l-3.33771e-08,-3.75514e-08c0.2504,0.281716 0.628573,0.414076 1,0.35l0.29,0.28c0,0.11 0.07,0.27 0.15,0.32c4.11,2.42 5.58,6.36 6.2,10.78c0.21,1.53 0.38,3.06 0.56,4.59l1.42154e-07,4.51064e-07c0.179989,0.571119 0.137116,1.1892 -0.12,1.73c-1.33,-0.7 -1.53,-2.15 -2.22,-3.21c-0.69,-1.06 -1.46,-2.28 -2.27,-3.37c-0.81,-1.09 -2,-1.83 -2.35,-3l-7.38955e-07,-3.16878e-07c-2.43607,-1.04463 -5.19393,-1.04463 -7.63,6.33756e-07c-1.08,1.41 -2.38,3 -3.52,4.65c-1.14,1.65 -2.08,3.43 -3.07,5.1c-0.64,-0.17 -0.55,-0.51 -0.52,-0.79l4.59836e-07,-5.1386e-06c0.307825,-3.4399 0.815348,-6.859 1.52,-10.24l-1.7031e-07,5.75909e-07c0.135835,-0.459329 0.348878,-0.892179 0.629999,-1.28l-3.43912e-07,5.47691e-07c1.26532,-2.01507 2.89677,-3.7754 4.81,-5.19v0Zm6.87,5.12c-0.33,0 -0.59,0 -0.64,-0.47c-0.09,-0.86 -0.22,-1.71 -0.32,-2.57c-0.06,-0.47 -0.21,-0.83 -0.8,-0.86c-0.89,0.4 -0.73,1.67 -1.65,2.12c-0.77,-0.58 -0.77,-1.8 -1.8,-2.26c-1.22,1.13 -0.29,2.8 -1.15,4c-0.91,-0.31 -0.94,-1.59 -1.94,-1.84c-2.31,2.18 -3.29,5 -3.72,8.3l-6.86612e-07,8.34379e-07c0.86408,-1.05004 1.78548,-2.05156 2.76,-3c1.06,-0.93 0.92,-2.3 1.3,-3.45c0.94,0.26 1.33,1 2.09,1.13c1.49,0.12 1.69,-1.37 2.44,-2.1c0.56,0.34 0.65,0.88 1,1.26c0.81,1 1.65,1 2.75,0.07l0.71,-0.25c0.64,1.09 0.48,2.46 1.5,3.31l2.82771e-07,2.6915e-07c0.916616,0.87246 1.77827,1.8009 2.57999,2.77999l-1.33082e-07,-5.30937e-06c-0.0797848,-3.18302 -1.47341,-6.19108 -3.85,-8.31Z" transform="translate(352.36, 103.712)"></path><path d="M0.02,0.87c2.06,-0.87 3.06,-0.83 4.61,0.15c-0.14,2 -1,3.09 -2.45,3c-1.45,-0.09 -2.18,-1.27 -2.16,-3.15Zm1.38,1c0.94,1.15 1,1.14 1.82,-0.11l-4.0866e-08,-2.81783e-08c-0.562375,-0.387775 -1.31845,-0.333769 -1.82,0.13Z" transform="translate(164.5, 99.85)"></path><path d="M0.6,1c1,0.13 1.56,-1 2.69,-0.71l1.73019e-07,5.64215e-07c0.380989,1.24241 0.302913,2.58034 -0.22,3.77l-2.8,-1.87c-0.27,-0.61 0.39,-0.81 0.36,-1.24Z" transform="translate(170.52, 85.81)"></path><path d="M3.73,1.67l3.61752e-07,-3.20239e-07c-0.88246,0.781195 -1.8562,1.45274 -2.9,2c-0.83,-1.2 -0.39,-2.41 -0.47,-3.67l1.20582e-07,8.19745e-09c1.30017,0.0883889 2.51217,0.688992 3.37,1.67Z" transform="translate(159.27, 86.05)"></path><path d="M2.53736,1.29c-0.84,-0.22 -1.6,0.65 -2.42,0.28l-2.10693e-08,-4.57408e-08c-0.117358,-0.25478 -0.0521294,-0.556461 0.16,-0.74c1.89,-0.83 3.89,-0.72 5.88,-0.69c0.51,0.38 1.27,0.37 1.63,0.93c-0.21,0.75 -0.89,0.31 -1.23,0.61v0c-0.15,-0.64 -0.72,-0.42 -1.12,-0.55l-2.65863e-07,-9.38077e-08c-0.949402,-0.334989 -1.99321,-0.277399 -2.9,0.16Z" transform="translate(199.033, 102.16)"></path><path d="M6.25,0.06c0.14,0.51 0.92,0.41 1,1.15c-1.26,0.41 -2.39,-0.47 -3.61,-0.43c-1.22,0.04 -2.29,0.8 -3.64,0.66c0.4,-1.21 1.56,-1 2.25,-1.44h2.9l5.94102e-08,2.7599e-08c0.36243,0.168367 0.770779,0.21061 1.16,0.12Z" transform="translate(199.34, 103.79)"></path><path d="M0.59,1.79108c-0.59,-0.38 -0.37,-0.75 0.1,-0.93l3.64143e-07,-1.30988e-07c0.751487,-0.270321 1.52415,-0.477702 2.30999,-0.619999l-1.16822e-06,1.70659e-07c1.65032,-0.241085 3.33277,-0.135507 4.94,0.31l6.13679e-08,6.40559e-09c0.387059,0.0404012 0.698751,0.335689 0.76,0.72c-0.66,0.6 -1.31,-0.23 -1.91,0l3.07232e-07,8.47843e-08c-2.06277,-0.569244 -4.26087,-0.384887 -6.19999,0.519999Z" transform="translate(198.41, 100.699)"></path><path d="M1.47,1.43c-1.12,0.17 -1.47,-0.44 -1.43,-1.43c1.6,0.08 1.6,0.08 1.43,1.43Z" transform="translate(197.77, 107.92)"></path><path d="M5.18,9.06l6.67392e-08,-1.14797e-07c-0.511931,0.880564 -1.49877,1.37202 -2.51,1.25c-1.87,-0.09 -2.67,-1.09 -2.23,-2.94l8.91913e-09,-2.69627e-08c0.383637,-1.15974 0.553063,-2.37961 0.5,-3.6c-0.14,-1.3 0.71,-2.53 2.13,-3.77c1.09,1.52 2.21,3 1.56,5.06l-4.70935e-08,2.61571e-07c-0.122285,0.679206 0.0524753,1.37825 0.48,1.92Zm-2,-6.22l0.19,0.21c0,-0.14 0,-0.2 -0.2,-0.19l-7.93656e-09,1.8153e-08c0.120356,-0.275287 0.0696009,-0.595438 -0.13,-0.82l-8.49633e-09,-2.18161e-09c-0.230304,-0.0591353 -0.470915,0.0487245 -0.58,0.26c-0.1,0.18 -0.33,0.36 -0.12,0.63Zm0.64,6c0.38,-1.43 -0.26,-2.62 -0.93,-4.1c-1,1.47 -1.59,2.7 -1.2,4.18l2.19883e-07,7.5857e-08c0.697661,0.240685 1.45956,0.215763 2.14,-0.0700001Z" transform="translate(238, 88.78)"></path><path d="M0,1.49c0.84,-1.48 1,-1.49 2.07,-0.3c-0.45,1.1 -1.17,0.71 -2.07,0.3Z" transform="translate(236, 93.64)"></path><path d="M1.78,0.199495l2.1742e-08,4.36308e-08c0.191117,0.383524 0.14441,0.842801 -0.12,1.18c-1.57,0.2 -1.66,0.11 -1.28,-1.27l-1.37525e-07,3.2365e-08c0.465266,-0.109495 0.952584,-0.0781677 1.4,0.0899998Z" transform="translate(243.43, 94.1005)"></path><path d="M1.22,0c0,0.71 0.25,1.29 -0.44,1.59c-0.78,-0.84 -0.78,-0.84 0.44,-1.59Z" transform="translate(241.71, 100)"></path><path d="M0.63,1.58659c-0.63,-0.39 -0.46,-0.94 -0.32,-1.52l-7.85953e-08,1.08711e-08c0.481427,-0.0665897 0.925683,0.269703 0.992272,0.75113c0.00407672,0.0294737 0.00665599,0.0591352 0.00772785,0.0888702c0.03,0.39 -0.19,0.67 -0.68,0.68Z" transform="translate(238.14, 99.8734)"></path><path d="M0.07,2.09l-0.07,-2.09l4.91664e-08,6.83993e-08c0.444386,0.618221 0.472025,1.44343 0.0699999,2.09Z" transform="translate(243.11, 95.75)"></path><path d="M1.4,0.67l-5.40697e-08,-2.03228e-08c-0.447416,-0.168168 -0.934734,-0.199495 -1.4,-0.09c0.51,-0.5 0.98,-0.58 1.4,0.09Z" transform="translate(243.81, 93.63)"></path><path d="M1,0.473151l1.04987e-07,-1.81117e-08c-0.371427,0.0640765 -0.7496,-0.068284 -1,-0.35l4.21183e-08,-1.38639e-08c0.37413,-0.123151 0.784326,0.0204179 1,0.35Z" transform="translate(366, 104.117)"></path><path d="M0.46,0.0187516l-0.46,0.36l-4.08937e-09,6.76388e-08c0.0129986,-0.214998 0.197827,-0.378752 0.412825,-0.365753c0.0158272,0.0009569 0.0315814,0.00287813 0.0471747,0.005753Z" transform="translate(359.45, 104.581)"></path><path d="M1.59,2.91c-0.43,0 -0.46,0.33 -0.46,0.65c-0.29,0 -0.61,0.15 -0.89,-0.2c-0.24,-0.59 0.3,-1.1 0.33,-1.7c0.03,-0.6 -0.13,-1.25 0.63,-1.66c0.97,0.88 0.09,1.98 0.39,2.91Z" transform="translate(209.56, 108.35)"></path><path d="M1.07,3.54c-0.11,-1.17 -1.07,-2.16 -0.7,-3.42c0.52,-0.12 0.77,0.13 0.9,0.62c0.22,0.87 0.47,1.72 0.7,2.58c-0.2,0.48 -0.55,0.32 -0.9,0.22Z" transform="translate(194.58, 108.68)"></path><path d="M0.314832,44.6999l-9.79941e-08,-3.12046e-07c-0.314832,-1.00253 -0.314832,-2.07747 1.95988e-07,-3.08l-4.50922e-06,1.70894e-05c2.87998,-10.9148 6.53936,-21.6089 10.95,-31.9999l4.36671e-07,-1.30386e-06c0.299725,-0.894952 0.75318,-1.7308 1.34,-2.47l1.16037e-07,-4.27901e-08c0.453376,-0.167187 0.960383,-0.0958307 1.35,0.19l-4.72348e-07,-2.13289e-07c2.47843,1.11914 4.79572,2.56534 6.89,4.3c1.5,1.24 2.45,2.61 1.65,4.64c-2.34,6.47 -4.91,12.85 -7.08,19.38c-0.41,1.22 -0.75,2.47 -1,3.72c-0.07,0.31 -0.46,0.87 0.29,1v0c0.13,0.3 0.26,0.24 0.4,0l-6.85374e-07,2.24095e-07c1.28782,-0.421077 2.47562,-1.10176 3.49,-2c4.27,-3.17 8.19,-6.76 12.12,-10.33l-1.02809e-07,9.89572e-08c0.489587,-0.471245 0.812515,-1.08902 0.92,-1.76c1.62,-7.11 4.26,-13.89 6.76,-20.72c0.12,-0.34 0.12,-0.75 0.74,-1.07c4.34,1.76 8.7,3.8 12.43,7.1c-1.76,4.31 -3.36,8.58 -4.67,13l1.27047e-06,-4.01797e-06c-1.37736,4.35602 -2.49269,8.79061 -3.33999,13.2799c-0.17,1 -0.55,2 0.23,3l-3.56457e-08,-5.87528e-09c0.860274,0.141793 1.74202,-0.0553458 2.46,-0.55l2.08828e-06,-1.23766e-06c3.42627,-2.03064 6.38976,-4.75569 8.7,-8c-1.47,-2.82 -1.13,-5.69 -0.37,-8.53l-2.15907e-06,8.19909e-06c1.33732,-5.0785 3.35563,-9.95272 6,-14.49l-5.48562e-07,1.08633e-06c0.519888,-1.02955 1.23282,-1.94957 2.1,-2.71l-1.54848e-06,-5.65217e-07c3.4251,1.25021 6.47699,3.34903 8.87,6.1l8.21361e-08,9.25878e-08c0.626024,0.705686 0.865287,1.67395 0.64,2.59c-0.12,0.54 -0.18,1.09 -0.27,1.64l9.62897e-07,-2.3325e-06c-2.09115,5.06555 -4.89989,9.80405 -8.34,14.07l5.29922e-07,2.07954e-07c1.08054,0.42403 2.27417,0.462876 3.38,0.11l1.07923e-07,-9.76218e-09c2.52883,-0.228746 4.96479,-1.06589 7.1,-2.44l-7.77734e-08,5.35235e-08c0.656465,-0.451778 1.10621,-1.14618 1.25,-1.93c4,-12.8 12.46,-21.1 25.29,-25.05c5.5,-1.69 9.8,0 13.34,4.24c1.57,1.88 2.8,3.93 2.68,6.51c-0.19,0.11 -0.19,0.27 -0.1,0.44l-0.15,0.76l3.06437e-07,-5.94679e-07c-1.41897,2.75369 -3.44702,5.14767 -5.93,7l2.03744e-06,-1.58747e-06c-3.79065,2.95348 -7.83661,5.56377 -12.09,7.8c-2.64,1.44 -5.32,2.82 -8,4.23l7.34884e-08,-2.72596e-07c-0.263413,0.977099 -0.331379,1.99658 -0.2,3c0,2.57 0.71,3.31 3.28,3.32l6.4327e-07,-5.77694e-09c3.7783,-0.0339314 7.49668,-0.948119 10.86,-2.67l2.34417e-06,-1.20053e-06c5.0034,-2.56241 9.56986,-5.90035 13.53,-9.88999l5.65,-5.45l-7.41119e-08,-5.42202e-08c1.18217,0.864875 2.27434,1.84648 3.26,2.93c0,0.85 -0.88,1 -1.12,1.68c-0.28,0.24 -0.57,0.46 -0.83,0.71l5.01476e-06,-5.07711e-06c-4.95031,5.01186 -10.4022,9.50208 -16.27,13.4c-6.32,4.06 -13.08,6.9 -20.66,7.56l-9.97792e-08,1.01736e-08c-1.7871,0.182215 -3.58667,-0.195171 -5.15,-1.08l-1.23291e-06,-6.66747e-07c-1.07544,-0.58159 -2.08181,-1.28269 -3,-2.09c-2.9,-2.64 -5.73,-5.34 -5.62,-9.93l-1.45529e-07,7.28839e-08c-2.24087,1.12227 -4.64307,1.88814 -7.12,2.27l1.85139e-06,-3.20795e-07c-2.57034,0.445367 -5.20763,0.312136 -7.72,-0.389999c-0.33,0.41 -0.65,0.87 -1,1.27l-7.28839e-07,7.82283e-07c-2.35721,2.53006 -4.95252,4.82733 -7.75,6.86l2.95329e-07,-2.288e-07c-2.10727,1.63256 -4.47342,2.90014 -7,3.75l3.64445e-08,-1.50103e-08c-1.20594,0.496688 -2.54296,0.577613 -3.8,0.23c-4.14,-1.45 -7.68,-3.65 -9.65,-7.78l-0.12,-1.43l2.28601e-07,-1.85127e-06c0.138598,-1.1224 0.138598,-2.2576 -4.57201e-07,-3.38l-1.14,1c-3.21,2.88 -6.43,5.75 -9.9,8.32l5.34546e-07,-4.092e-07c-2.15328,1.64836 -4.46065,3.08502 -6.89,4.29l3.13596e-07,-1.61264e-07c-1.88282,0.968224 -4.11718,0.968224 -6,3.22528e-07l-4.2016e-08,-1.88152e-08c-2.23025,-0.99873 -4.17828,-2.53451 -5.66997,-4.47005Zm93.63,-20.63l-1.57892e-06,1.04526e-06c3.18281,-2.10705 5.98295,-4.74148 8.28,-7.79l-2.35427e-07,2.71566e-07c1.08965,-1.25691 1.83093,-2.77741 2.15,-4.41c0.09,-0.29 0.2,-0.58 0.27,-0.88c0.16,-0.81 0.25,-1.66 -0.57,-2.15l2.11275e-07,1.01271e-07c-0.74437,-0.3568 -1.62985,-0.234801 -2.25,0.31l8.12616e-07,-5.15612e-07c-0.834635,0.529583 -1.58614,1.17999 -2.23,1.93l-1.29834e-06,1.54487e-06c-2.4558,2.92211 -4.44282,6.20795 -5.89,9.74c-0.63,1.43 -1.16,2.91 -1.74,4.36l1.20005e-07,-2.31878e-08c0.759593,-0.146771 1.45095,-0.536319 1.97,-1.11Z" transform="translate(264.295, 304.08)"></path><path d="M12.6799,33.77c0,0.67 -0.1,1.35 -0.1,2c0,16.1333 0,32.2667 0,48.4c0,0.74 0,1.48 -0.06,2.21l-9.86715e-07,6.87241e-07c-3.81165,2.65479 -7.48322,5.50526 -10.9999,8.53995c-0.45,0.38 -0.79,1 -1.52,0.87c0,-31.14 0,-62.2767 0,-93.41c0,-0.67 0,-1.34 0,-2.14h12.6v17.74h30.21v-17.5c1.48,-0.42 10.62,-0.48 12.64,-0.09c0,20.9467 0,41.92 0,62.92l1.70847e-08,-1.02362e-08c-0.261141,0.156462 -0.531651,0.296726 -0.81,0.42c-3.72,1.4 -7.4,2.9 -11,4.56l7.61357e-08,-2.42637e-08c-0.230174,0.0733544 -0.468767,0.117041 -0.709999,0.13c0,-5.22667 0,-10.4533 0,-15.68c0,-5.66 0,-11.31 0,-17c0,-0.67 -0.06,-1.35 -0.09,-2l2.84772e-07,-1.877e-06c0.150853,-0.994311 0.150853,-2.00569 -5.69544e-07,-3h-30l2.80037e-08,-1.15917e-07c-0.239536,0.991519 -0.293799,2.01876 -0.160058,3.03Z" transform="translate(176.82, 209.91)"></path><path d="M0.244472,30.84l-1.26056e-06,-1.60296e-05c-0.207728,-2.64153 -0.244471,-5.29373 -0.109998,-7.94l8.58849e-08,-1.0246e-06c0.432446,-5.15904 2.82252,-9.95709 6.68,-13.41l2.68463e-06,-2.37336e-06c3.4849,-3.08085 7.64241,-5.30344 12.14,-6.49c10.62,-3 21.09,-2.71 31.31,1.72c1,0.42 1.87,1 2.79,1.45l-1.73384e-07,-1.21136e-07c0.203933,0.14248 0.391711,0.306785 0.56,0.49l-1.18,2.33c-2,2.58 -3.28,5.59 -5.26,8.17c-1.46,-0.64 -2.74,-1.4 -4.14,-1.87l-2.07505e-06,-6.93886e-07c-7.14555,-2.38944 -14.8809,-2.34724 -22,0.120001l3.39683e-08,-1.15574e-08c-1.2246,0.416659 -2.40393,0.956069 -3.52,1.61c-3.72,2.1 -5,5.39 -4.66,9.47l-1.91216e-07,2.89841e-05c-0.0126563,1.91868 0.326274,3.82345 1.00001,5.62l-3.1802e-08,-1.03638e-07c0.442863,1.44322 1.52256,2.60399 2.93,3.15l1.06456e-06,4.80365e-07c5.30862,2.39542 11.0876,3.56762 16.91,3.43l-1.19447e-06,2.04267e-08c3.4826,-0.0595559 6.92272,-0.775399 10.14,-2.11l-9.95226e-09,1.37056e-08c0.24671,-0.339754 0.296113,-0.784377 0.13,-1.17l2.15934e-07,-1.33731e-06c0.16043,-0.993566 0.16043,-2.00643 -4.31868e-07,-3h-1.87c-3.32,0 -6.63,0 -9.95,0l-2.74224e-07,1.46483e-08c-1.59402,0.085148 -3.19226,0.0450248 -4.78,-0.12c0,-2 0,-4.05 0,-6.08c0,-2.03 -0.05,-4.12 0,-6.27h4.66l13.81,-0.09l-2.37777e-07,-3.94894e-08c0.70186,0.116563 1.41814,0.116563 2.12,7.89787e-08h8.41999c0.16,0.38 0.29,0.54 0.29,0.7c0,7.81333 0,15.63 0,23.45c-9,5.66 -18.81,8.2 -29.49,7l-2.40055e-06,-2.40924e-07c-5.729,-0.574974 -11.2727,-2.35017 -16.27,-5.21l-2.69388e-06,-1.46909e-06c-4.49419,-2.45089 -7.91607,-6.48585 -9.6,-11.32c-0.449997,-1.25001 -0.729997,-2.45001 -1.06,-3.63001Z" transform="translate(270.626, 208.24)"></path><path d="M17.76,59.77h7.43c1.82,-5.07 -0.79,-9.64 -6,-10.43l1.28004e-06,1.81094e-07c-2.07965,-0.294219 -4.19035,-0.294219 -6.27,-3.62187e-07l-4.47603e-08,5.62292e-09c-3.13817,0.394225 -5.81684,2.4568 -7,5.39l-8.29124e-07,1.77594e-06c-1.21274,2.59763 -1.62023,5.49879 -1.17,8.33c0.43,3 2.38,4.78 5,6l-1.33191e-06,-5.01959e-07c1.61881,0.610086 3.17861,1.36655 4.66,2.26l3.11326e-08,1.74824e-08c1.3546,0.760675 1.97292,2.38009 1.47,3.85l-2.61105e-09,1.10684e-08c-0.17205,0.729345 -0.610829,1.36789 -1.23,1.79l-3.35617e-08,2.79799e-08c-0.929005,0.774499 -2.30997,0.649247 -3.08447,-0.279757c-0.259657,-0.311456 -0.427743,-0.688887 -0.485533,-1.09024c-0.19,-0.78 0.09,-1.6 -0.24,-2.33l2.18713e-07,1.08822e-07c-0.460832,-0.229288 -0.982568,-0.306323 -1.49,-0.22h-5.83c-1.44,3.75 0,7.18 4.24,9.6h-7.29c-0.47,-1.5 2.66,-79.92 3.14,-82.64l-4.63096e-06,-4.54386e-06c4.24083,4.16106 8.93714,7.83089 14,10.94l-8.92194e-06,-5.31541e-06c5.1516,3.06916 10.5991,5.61198 16.26,7.59c-1.33,10.72 -2.82,21.37 -4.27,32c-1.45,10.63 -2.82,21.23 -4.24,32h-7.74c0.34,-0.55 0.93,-0.59 1.41,-0.79l-1.99875e-07,7.28415e-08c2.31063,-0.842073 4.06256,-2.7621 4.69,-5.14l5.51074e-07,-1.61248e-06c0.5587,-1.63479 0.872102,-3.34334 0.929999,-5.06999c-0.09,-3.65 -2,-6 -5.08,-7.54c-1,-0.49 -2,-0.91 -3,-1.38l4.61681e-07,1.94121e-07c-1.02931,-0.432791 -1.95858,-1.07272 -2.73,-1.88l-1.43809e-07,-1.69955e-07c-1.21621,-1.43734 -1.04188,-3.58737 0.39,-4.81l3.02896e-09,-2.95668e-09c0.790423,-0.77156 2.05666,-0.756269 2.82822,0.0341536c0.260608,0.26698 0.441344,0.601532 0.521779,0.965846l-1.31987e-07,-9.15092e-07c0.136108,0.943659 0.196306,1.89672 0.180015,2.85Z" transform="translate(293.09, 113.77)"></path><path d="M0,46.46c0,-4.82 0,-9.63 0,-14.45c0,-9.82 0,-19.64 0,-29.46v-2c1.31,-0.43 9.78,-0.55 12.58,-0.17v17.77h30.25c0.08,-1.92 0,-3.87 0,-5.82c0,-1.95 0,-4 0,-5.93v-6h12.45l6.87345e-08,3.80771e-07c0.0489555,0.271201 0.0823435,0.544982 0.1,0.82c0,13.7733 0,27.5433 0,41.31l5.16514e-06,-6.59728e-07c-4.14319,0.529198 -8.31339,0.819677 -12.4899,0.87l-0.13,-9.51l2.84772e-07,-1.877e-06c0.150853,-0.994311 0.150853,-2.00569 -5.69544e-07,-3h-30.1001l6.93203e-08,-3.76316e-07c-0.182671,0.991658 -0.182671,2.00834 -1.3864e-07,3c-0.24,2.76 0,5.53 -0.11,8.29c0,1.16667 -0.0266667,2.33333 -0.08,3.5c-3.3,0.26 -6.6,0.54 -9.9,0.79l6.21903e-07,-1.1145e-07c-0.8502,0.152363 -1.72101,0.148976 -2.57,-0.00999717Z" transform="translate(340.34, 209.85)"></path><path d="M46.4,60.73h-11.18c-0.6,-5.66 -0.94,-11.35 -1.37,-17c-0.43,-5.65 -0.87,-11.43 -1.3,-17c-1.24,-0.51 -9.85,-0.79 -11.39,-0.42l5.06,34.41h-6.72l-19.5,-60.72c4,0.41 7.56,1.33 11.19,1.75l-8.70446e-07,-1.01137e-07c3.67212,0.426662 7.3635,0.66697 11.0599,0.719999c3.69,0.05 7.38,0 11.37,0Z" transform="translate(180.78, 135.65)"></path><path d="M10.55,81.67c-0.58,0.5 -1.06,0.33 -1.8,0.28c-3,-21.22 -5.85,-42.45 -8.75,-63.85l-6.10658e-06,2.01421e-06c11.2935,-3.72506 21.6211,-9.90659 30.24,-18.1l1.62603e-07,4.69043e-07c0.478484,1.38023 0.675695,2.84232 0.58,4.3c0,5.06 0.42,10.11 0.56,15.17c0.17,6.29 0.5,12.57 0.76,18.86c0.24,5.85333 0.483333,11.7067 0.73,17.56c0.25,6.22 0.44,12.45 0.79,18.67c0.13,2.4 0.12,4.79 0.27,7.14l-8.98279e-09,6.36311e-09c-0.599124,0.424399 -1.40088,0.424399 -2,-1.27262e-08l-1.85,-33c-2.65,-0.17 -5.19,-0.1 -7.9,-0.15l1.39,19.39l-0.36,0.09c-2.26,-6.46 -4.13,-13 -6.5,-19.62h-9.49c0.870005,11.13 2.84,22.2 3.33,33.26Z" transform="translate(239.15, 114.46)"></path><path d="M27.39,57.68l-3.94,-32.07c-3.14,0.21 -6.13,0.33 -9.34,0.77c-4.39,11.28 -8.13,22.89 -12.35,34.15l5.71912e-08,-4.22941e-08c-0.522936,0.386723 -1.23706,0.386723 -1.76,8.45883e-08l12.64,-58.47c11.13,0.63 22.09,0.5 32.83,-2.06l-4.25559e-08,-7.10878e-08c0.41651,0.695762 0.41651,1.56424 8.51118e-08,2.26c-1.7,5.27 -3.42,10.54 -5.11,15.82c-3.56,11.1533 -7.11,22.3067 -10.65,33.46c-0.54,1.7 -1.07,3.41 -1.62,5.11l3.1289e-08,-4.13867e-07c-0.0335217,0.443401 -0.300073,0.835612 -0.7,1.03Z" transform="translate(339.14, 135.72)"></path><path d="M26.46,0.0700285c0,0.58 0.08,1.16 0.08,1.74c0,22.3533 0,44.7067 0,67.06l-9.42916e-08,-1.70062e-05c0.00613068,1.10545 -0.272845,2.19381 -0.809992,3.16c-2,3.69 -3.9,7.41 -6,11.1l-1.21758e-06,-1.35839e-05c-0.182367,-2.03458 -0.249141,-4.07786 -0.199998,-6.12c0,-2.1 0,-4.2 0,-6.3v-6.55c-2.21,-0.16 -4.35,-0.06 -6.47,-0.08c-2.12,-0.02 -4.2,0 -6.3,0h-6.76l26.17,-64.08Z" transform="translate(388.94, 132.33)"></path><path d="M26.2,62.03h-19c-0.11,6.82 0,13.46 -0.07,20.28l7.02246e-08,5.78115e-08c-0.457458,-0.376596 -0.803256,-0.871087 -1,-1.43c-1.74,-3.27 -3.44,-6.57 -5.19,-9.83l5.75018e-08,1.03586e-07c-0.478708,-0.862365 -0.726708,-1.8337 -0.72,-2.82c0,-22.24 0,-44.4767 0,-66.71c0,-0.45 -0.22,-1 0.43,-1.52Z" transform="translate(151.02, 134.28)"></path><path d="M0.106566,58.9c0,-0.68 0,-1.36 0,-2c0,-18.2667 0,-36.5367 0,-54.81l-1.51899e-07,-1.00032e-06c-0.106566,-0.701782 -0.0413696,-1.41894 0.19,-2.09h12c0.4,0.28 0.34,0.61 0.34,0.91c0,18.3333 0,36.6667 0,55c-3.09,0.78 -6.18,1.58 -9.28,2.34l-5.90958e-07,2.10545e-07c-1.04619,0.372733 -2.14093,0.591681 -3.25,0.650001Z" transform="translate(245.193, 210.19)"></path><path d="M0,0l6.92281e-07,9.12081e-08c0.868879,0.114475 1.71525,0.360631 2.51,0.73c2.44,0.87 4.87,1.79 7.23,2.87l1.24213e-07,3.51126e-08c0.5996,0.169496 1.10037,0.583174 1.38,1.14c1.26,3.13 2.56,6.24 3.84,9.34c-0.52,0.36 -0.82,0 -1.12,-0.13c-2.54,-1.27 -5.11,-2.49 -7.76,-3.53l5.21133e-08,1.75712e-08c-0.646039,-0.217827 -1.18327,-0.676264 -1.5,-1.28c-1.47,-2.85 -3,-5.69 -4.47,-8.53l-7.92241e-08,-2.49116e-07c-0.0628802,-0.197724 -0.0998554,-0.402767 -0.110001,-0.61Z" transform="translate(240.94, 373.45)"></path><path d="M0,14.36c1,-2.57 2.14,-4.92 2.94,-7.36l-3.07439e-07,1.12645e-06c0.523125,-1.91672 1.99713,-3.42853 3.9,-4c2.68,-0.92 5.27,-2.08 8.11,-3l7.73604e-08,6.18428e-07c0.0541215,0.432654 -0.0684485,0.868858 -0.34,1.21c-1.4,2.68 -2.81,5.36 -4.2,8l-1.75179e-08,4.23411e-08c-0.213237,0.515397 -0.618423,0.927755 -1.13,1.15c-2.93,1.17 -5.76,2.54 -8.6,3.91c-0.0899983,0.129999 -0.229998,0.0899992 -0.679998,0.0899992Z" transform="translate(310.83, 373.33)"></path><path d="M8.49338e-07,3.7187e-07l-8.49338e-07,-3.7187e-07c2.89601,1.26797 5.62351,2.89036 8.11999,4.82999l2.20585e-08,1.70831e-08c0.345499,0.267571 0.574691,0.657914 0.64,1.09c0.6,2.83 1.21,5.66 1.81,8.49c0,0.09 -0.08,0.21 -0.17,0.44c-2.31,-1.55 -4.6,-3.07 -6.87,-4.63l-6.80777e-08,-5.92198e-08c-0.27841,-0.242185 -0.477101,-0.562879 -0.57,-0.92c-0.999992,-3.09999 -1.97999,-6.19999 -2.95999,-9.29999Z" transform="translate(260.22, 382.25)"></path><path d="M0.14,14.7957c-0.14,-2 0.67,-3.57 0.83,-5.2c0,-0.24 0.18,-0.47 0.18,-0.71c0,-3.35 2.17,-5.11 4.78,-6.58c0.86,-0.48 1.64,-1.09 2.49,-1.57l1.04006e-07,-8.66745e-08c0.586663,-0.488903 1.33769,-0.735669 2.1,-0.69c-1.11,3.26 -1.89,6.51 -3.14,9.62l2.71621e-08,-5.61291e-08c-0.135285,0.279558 -0.346722,0.515259 -0.61,0.68c-2.11,1.44 -4.24,2.85 -6.63,4.45Z" transform="translate(296, 382.374)"></path><path d="M0.529994,0l6.24,18.19l6.66244e-07,-9.48111e-08c-1.68962,0.240445 -3.40225,0.274026 -5.09999,0.100001l-1.67,-18.17Z" transform="translate(255.62, 178.13)"></path><path d="M7.97,0l1.30872e-06,1.50906e-05c0.18657,2.15131 0.240004,4.3121 0.159998,6.47h-8.13l1.7,-6.47Z" transform="translate(349.37, 190)"></path><path d="M6.04,13.29l-4.4,-4.09l-1.04192e-07,-9.16328e-08c-0.325119,-0.285931 -0.534876,-0.680558 -0.59,-1.11c-0.34,-2.56 -0.71,-5.12 -1.05,-7.67c0,-0.09 0.11,-0.19 0.25,-0.42l-1.32174e-06,-1.129e-06c1.99773,1.70642 3.85998,3.56533 5.56999,5.55999l3.72439e-08,4.94435e-08c0.216935,0.287995 0.332917,0.639454 0.33,1c0.09,2 0.2,4.05 0.29,6.08l2.22049e-08,6.77627e-08c0.0859887,0.262413 -0.0570314,0.544848 -0.319444,0.630837c-0.026271,0.0086086 -0.0532107,0.0150236 -0.0805421,0.0191789Z" transform="translate(275.05, 392.82)"></path><path d="M0.08,13.54c-0.08,-2.66 0.05,-4.85 0.18,-7l3.07646e-08,-7.70057e-07c0.0173874,-0.435215 0.195538,-0.848524 0.500001,-1.16l-4.52688e-06,4.98808e-06c1.7267,-1.90261 3.56671,-3.69922 5.51,-5.38l8.8627e-08,2.98755e-07c0.180048,0.606929 0.180048,1.25307 -1.77254e-07,1.86c-0.22,1.89 -0.53,3.77 -0.73,5.67l-2.88038e-08,3.71867e-07c-0.0665501,0.859186 -0.486616,1.65224 -1.16,2.19c-1.38,1.11 -2.71,2.34 -4.3,3.82Z" transform="translate(285.33, 392.75)"></path><path d="M4,0.09v12.67c-1.18,0.5 -2.49,0.18 -4,0.08l3.49,-12.84Z" transform="translate(353.18, 169.38)"></path><path d="M0.75,24.1c-0.75,-0.14 -0.36,-0.7 -0.29,-1c0.3,-1.25 0.64,-2.5 1,-3.72c2.16,-6.53 4.74,-12.91 7.08,-19.38l-8.60559e-08,-2.43085e-07c0.328681,0.928435 0.328681,1.94156 1.72112e-07,2.87c-2.2,6.78 -5,13.32 -7.25,20.09l-1.26909e-07,3.22536e-07c-0.154132,0.391721 -0.334542,0.772587 -0.539998,1.14Z" transform="translate(278.25, 320.4)"></path><path d="M0.4,0c-0.14,0.23 -0.27,0.29 -0.4,0Z" transform="translate(278.95, 344.5)"></path><path d="M0.1122,0.45l4.01144e-09,3.93214e-09c-0.110432,-0.108251 -0.1122,-0.285528 -0.00394934,-0.39596c0.0215166,-0.0219501 0.0465005,-0.0402076 0.0739493,-0.0540399l4.03179e-09,4.71465e-09c0.107683,0.12592 0.0928992,0.315294 -0.0330213,0.422977c-0.0116196,0.00993677 -0.0239819,0.0189707 -0.0369787,0.0270229Z" transform="translate(394.758, 262.05)"></path><path d="M0.09,0.44c-0.09,-0.18 -0.09,-0.33 0.1,-0.44l-6.78074e-09,-7.83382e-09c0.101205,0.116923 0.0884636,0.293751 -0.0284592,0.394956c-0.0214297,0.018549 -0.0455515,0.0337368 -0.0715408,0.0450442Z" transform="translate(380.65, 316.56)"></path><path d="M0.1,0.33c-0.1,-0.18 0,-0.28 0.15,-0.33l2.46757e-10,5.39103e-10c0.0551732,0.12052 0.00219952,0.262947 -0.11832,0.31812c-0.0102673,0.00470033 -0.0208536,0.00867018 -0.0316799,0.01188Z" transform="translate(264.29, 336.32)"></path><path d="M0,0.02c0.16,0 0.23,0 0.2,0.19l-0.19,-0.21Z" transform="translate(241.18, 91.62)"></path><path d="M0,0.09c0.81,-0.09 1.06,0.07 1,0.54c-0.55,0.4 -0.6,-0.08 -1,-0.54Z" transform="translate(401.6, 95.85)"></path><path d="M0,0.65c0.11,-0.41 0.27,-0.65 0.62,-0.55l1.15879e-08,3.27069e-09c0.15414,0.0435059 0.243828,0.20373 0.200322,0.35787c-0.0050779,0.0179909 -0.0118835,0.0354487 -0.0203217,0.0521296c-0.15,0.3 -0.39,0.4 -0.8,0.14Z" transform="translate(398.82, 95.76)"></path><g transform="translate(-24.71, 16.33)"><g fill="#FFFFFF" transform="rotate(-2.97999)"><path d="M0.45,26.15c-0.248526,0 -0.45,-0.201474 -0.45,-0.45v-25.25c0,-0.248526 0.201474,-0.45 0.45,-0.45h5.41c0.248526,0 0.45,0.201474 0.45,0.45v25.25c0,0.248526 -0.201474,0.45 -0.45,0.45Z" transform="translate(298.27, 469.73)"></path></g></g></g></g></svg>