<svg id="Calque_1" data-name="Calque 1" xmlns="http://www.w3.org/2000/svg" viewBox="0 0 782.37 366.73"><defs><style>.cls-1{fill:#fff;}</style></defs><title>coop_white</title><path class="cls-1" d="M437.81,274.48c-.86-55,46-101.46,100.82-101.6,54-.13,101.73,46,101.7,101.44,0,55.26-46.43,101.13-101.36,101.22C483.61,375.63,437.08,329.62,437.81,274.48ZM539,348c41.76.24,74.32-35.55,74-74.43-.33-38.19-33.13-73.56-74.48-73.46-39.17.09-73.8,33.63-73.61,74.47C465.05,313.35,497.28,348.38,539,348Z" transform="translate(-29.76 -114.28)"/><path class="cls-1" d="M307,375.36c-55.37.87-101.26-45.79-101.31-100.91-.06-54.9,46.16-101.44,101-101.57,54.08-.12,101.72,46.17,101.68,101.47C408.33,329.44,362,376.07,307,375.36ZM306.86,348c42,.29,74.21-35.66,74.12-74s-32.78-73.79-74-73.93c-39.42-.14-74.05,33.36-74.08,74C232.86,313.35,265.3,348.3,306.86,348Z" transform="translate(-29.76 -114.28)"/><path class="cls-1" d="M678.85,175.44c.84-.07,1.84-.21,2.84-.21,22.12,0,44.25-.11,66.37.11,15.18.14,28.48,5.64,40,15.43a69.51,69.51,0,0,1,18.1,22.91,63.59,63.59,0,0,1,6,29.2c-.53,29-15.39,48.53-40.79,60.8a50.87,50.87,0,0,1-21.55,4.8c-13.45.18-26.91.13-40.37.2-1.55,0-3.1.22-5.08.36v63.63c-2.87.85-21.6,1-25.53.37-.08-.09-.16-.16-.23-.25a.67.67,0,0,1-.17-.29,13.76,13.76,0,0,1-.25-2q0-96.61,0-193.23a3.41,3.41,0,0,1,.19-1A4.8,4.8,0,0,1,678.85,175.44Zm26,25.57c-.88,4.3-.72,78.79.11,81.6.91.08,1.91.22,2.91.24,7.18.11,14.35.26,21.53.26,6.49,0,13,0,19.47-.3,20.16-.8,39.74-20.56,37.06-45.27-2.05-18.91-19.14-37.15-41.37-36.58-12,.31-23.93,0-35.9,0Z" transform="translate(-29.76 -114.28)"/><path class="cls-1" d="M194.43,197.44,175.82,216c-18.75-14.62-40.3-19-63.75-13.44-17,4-30.32,13.93-40.9,27.56-20.53,26.48-19.75,65.4,1.51,91,13,15.65,29.36,25.19,49.67,27.16,19.94,1.92,38.25-2.75,53.78-15.19,6.34,6.26,12.41,12.24,18.78,18.51-1.33,1.05-2.69,2.2-4.11,3.25-13.45,9.91-28.28,16.76-44.89,19-32,4.32-60.38-3.42-84.23-25.81-15.5-14.54-26.19-31.95-29.93-53-6.72-37.89,3.49-70.37,32.32-96.48A94.3,94.3,0,0,1,112.59,175a101.09,101.09,0,0,1,20.11-.91c10.3.33,20.43,1.78,30.17,5.37a110.86,110.86,0,0,1,29.82,16.46C193.32,196.37,193.87,196.94,194.43,197.44Z" transform="translate(-29.76 -114.28)"/><path class="cls-1" d="M491.85,172.31c-5.76-.7-11.55-1.14-17.25-2.16-8.62-1.55-15.19-6.62-20.33-13.46a51.88,51.88,0,0,1-8.49-17.78,24.72,24.72,0,0,1-.49-2.68,6.36,6.36,0,0,1,3.06-6.7c4.79-3.25,10.15-5.09,15.68-6.56,11-2.92,21.22-.93,30.7,5.14a45.65,45.65,0,0,1,10.4,9.32,191.32,191.32,0,0,1,16,23,23.58,23.58,0,0,1,1.46,2.71c1,2.19.72,3-1.53,4a36.85,36.85,0,0,1-5.14,1.81A107.35,107.35,0,0,1,491.85,172.31Z" transform="translate(-29.76 -114.28)"/><path class="cls-1" d="M573.15,130.81c.36,7.49-3.13,13.92-9.9,18.91A64.68,64.68,0,0,1,540,160.92c-4.95,1.2-5.65.92-6-4.1-.84-11.27.56-22.13,7.51-31.53,6.52-8.8,15.65-11.62,26.21-10.91,1.7.12,2.29,1.23,2.88,2.5A33.57,33.57,0,0,1,573.15,130.81Z" transform="translate(-29.76 -114.28)"/><path class="cls-1" d="M796.49,408.16q-369.47,0-738.94,0c-.37,0-.74-.33-1.52-.7.79-.35,1.17-.67,1.55-.67q369.45.24,738.91.52Z" transform="translate(-29.76 -114.28)"/><path class="cls-1" d="M284.87,480.17V442.86c5.52-.14,10.87-.82,16.07.69a12.16,12.16,0,0,1,6.27,19.26c-1.27,1.62-3.25,2.7-5.2,4.27l8.37,13.21a44.11,44.11,0,0,1-5.73,0,3.55,3.55,0,0,1-2-1.59,84,84,0,0,1-5.37-8.31c-1.58-3-3.81-3.5-7.09-2.65v12.4Zm5.5-18.34c2.86,0,5.47.1,8.06-.06a5.21,5.21,0,0,0,2.75-1.15,6.7,6.7,0,0,0,2.57-7,6.08,6.08,0,0,0-5.3-5.13,57.16,57.16,0,0,0-8.08-.08Z" transform="translate(-29.76 -114.28)"/><path class="cls-1" d="M618.4,466.52V442.93h5c.71,2.39.93,32.74.24,37.63-2.6-1.46-4.11-3.9-6-5.84s-3.77-4-5.64-6-3.88-4.17-5.83-6.24a66.21,66.21,0,0,0-5.93-5.75c-.66,7.86-.25,15.63-.59,23.55h-5.17V442.77c3.26,2.54,5.52,5.47,8.07,8.06s5,5.26,7.56,7.9,5.11,5.37,7.66,8Z" transform="translate(-29.76 -114.28)"/><path class="cls-1" d="M678.58,443l22.68,23.74.73-.28V442.91h5c.69,2.67.8,34,0,38-7.92-8.14-15.28-16.35-22.94-24.27l-.7.3v23.29h-5.4V443.38Z" transform="translate(-29.76 -114.28)"/><path class="cls-1" d="M506.72,480.36V442.93c6.63-.34,13.06-.87,19,2.45,7.32,4.07,10.54,12.51,8.38,21.54a17.21,17.21,0,0,1-15.43,13.37C514.88,480.68,511,480.36,506.72,480.36Zm5.39-5.53c6.28.52,11.67,0,15.14-5.58a14.92,14.92,0,0,0-.46-15.82c-3.13-4.33-8.63-6.11-14.68-4.68Z" transform="translate(-29.76 -114.28)"/><path class="cls-1" d="M468.06,442.93h5.14c.06,1.38.17,2.6.17,3.81,0,6.15,0,12.3,0,18.46,0,3.82,1.44,6.89,4.79,8.86,6.27,3.67,13.89-.69,14.12-8.2.2-6.27,0-12.54.06-18.8v-4h5.29a15.28,15.28,0,0,1,.28,2.06c0,6.83.11,13.67,0,20.51-.14,8-5,13.67-12.68,15.11A15,15,0,0,1,468.43,470a19.21,19.21,0,0,1-.62-4.39c-.06-6.95,0-13.9,0-20.85A14.23,14.23,0,0,1,468.06,442.93Z" transform="translate(-29.76 -114.28)"/><path class="cls-1" d="M177,468.78v11.44h-4.92c-.8-2.82-.82-34.15,0-37.37,5.34-.08,10.8-.81,16.15.59,5.54,1.46,9.52,7.42,9,13a12.53,12.53,0,0,1-11,11.67C183.39,468.48,180.44,468.55,177,468.78Zm.23-5.69c2.78,0,5.17.13,7.54,0a7.47,7.47,0,0,0,7-6.69,7.35,7.35,0,0,0-5.29-7.79c-3-.76-6.19-.38-9.27-.18Z" transform="translate(-29.76 -114.28)"/><path class="cls-1" d="M385.15,475.33h16v4.57c-2.32.77-15.88,1-21,.37-.78-2.3-1-32.44-.24-37.38,6.9-.48,13.89-.17,21.23-.2.09,1.82.16,3.34.25,5.24-5.41.65-10.63,0-16.13.44a98.31,98.31,0,0,0-.14,10.51H397v5.28c-3.71.86-7.61-.07-11.81.61C385,468.08,385.07,471.43,385.15,475.33Z" transform="translate(-29.76 -114.28)"/><path class="cls-1" d="M256,480.5V442.91h21.25v5.27H261.48v10.53c3.74.75,7.62,0,11.7.5v4.94c-3.71.94-7.73-.17-11.71.69v10.39h15.88v5.1C270.3,480.74,263.3,480.48,256,480.5Z" transform="translate(-29.76 -114.28)"/><path class="cls-1" d="M148.29,459h11.89v5.15c-3.71,1-7.74-.15-11.73.71v10.37H164.3v4.69c-2.33.83-17.62,1-21.38.15V443.35c2.35-.83,16.32-1.07,21.33-.34v5.08H148.43C148.11,451.73,148.31,455.09,148.29,459Z" transform="translate(-29.76 -114.28)"/><path class="cls-1" d="M337.14,458.94H349v5.54H337.32v10.7h15.82v4.69c-2.32.84-17.56,1-21.36.16V442.92c7-.56,14-.18,21.3-.21v5.35H337.3C337,451.71,337.2,455.07,337.14,458.94Z" transform="translate(-29.76 -114.28)"/><path class="cls-1" d="M721.93,464.79v10.46H737.6v5.11H716.71c-.68-2.52-.87-32.79-.21-37.51,6.91-.38,13.88-.2,21.07-.09v5.39H721.91a62,62,0,0,0,0,10.81h11.61v5.18C729.81,465,725.91,464.05,721.93,464.79Z" transform="translate(-29.76 -114.28)"/><path class="cls-1" d="M586.88,479.87c-6.14,2.61-6.71-2.3-8.48-5.5H563.14a31.2,31.2,0,0,0-1.69,3.67,3.17,3.17,0,0,1-3.88,2.41,20.8,20.8,0,0,0-2.37,0c.18-2.63,13.37-34.11,15.84-37.73C576.39,455.25,581.63,467.53,586.88,479.87Zm-10.44-10-5.67-14.1-5.62,14.1Z" transform="translate(-29.76 -114.28)"/><path class="cls-1" d="M248.51,447.6l-3.62,3.27c-8.25-4.17-14.45-3.4-19.14,2.31a13.56,13.56,0,0,0-.09,17c4.54,5.64,11.1,6.51,20,2.06l2.89,3.51c-5.52,6.36-17.87,7-25.2.1a19.13,19.13,0,0,1-.86-27.49C230.11,440.3,242.44,441.33,248.51,447.6Z" transform="translate(-29.76 -114.28)"/><path class="cls-1" d="M412.09,471.59a21,21,0,0,0,2.28,2.42,6,6,0,0,0,8.3-.79,4.34,4.34,0,0,0-.61-6.81,27.74,27.74,0,0,0-4.6-2.18,42.35,42.35,0,0,1-5.3-2.29c-4.82-2.95-6.34-8.08-4.05-13a11,11,0,0,1,12.81-6,9.65,9.65,0,0,1,7.37,7.7c-.72.24-1.47.46-2.21.71-1.55.53-2.78.44-3.81-1.14-1.74-2.69-6.14-2.76-8.29-.05a4.77,4.77,0,0,0,.95,7.17,22.79,22.79,0,0,0,5,2.18,18.2,18.2,0,0,1,7,4.08,8.74,8.74,0,0,1,2.65,7.76c-.62,5-5.41,9.28-10.9,9.65a11.5,11.5,0,0,1-11.43-8.21Z" transform="translate(-29.76 -114.28)"/><path class="cls-1" d="M445.28,448.1h-9.67V443h24.88v5.25h-9.7v32h-5.51Z" transform="translate(-29.76 -114.28)"/><path class="cls-1" d="M640.86,448.11h-9.51V443h24.89v5.24h-9.69v32h-5.42C640.71,469.66,641.15,459.13,640.86,448.11Z" transform="translate(-29.76 -114.28)"/><path class="cls-1" d="M108,442.88h5.17c.39,3.55.14,7,.19,10.52s0,7.06,0,10.59v11.06h16v5.17H108Z" transform="translate(-29.76 -114.28)"/><path class="cls-1" d="M663.82,443h5v37.3h-4.75C663.4,477.71,663.18,448.45,663.82,443Z" transform="translate(-29.76 -114.28)"/><path class="cls-1" d="M204.93,442.91h5c0,12.5,0,24.82,0,37.33h-5C204.17,477.42,204.13,446.24,204.93,442.91Z" transform="translate(-29.76 -114.28)"/><path class="cls-1" d="M547.09,480.24h-4.75c-.75-3.38-.68-34.45.11-37.32h4.23C547.53,445.27,547.86,473.07,547.09,480.24Z" transform="translate(-29.76 -114.28)"/><path class="cls-1" d="M322.61,480.3h-4.5c-.75-2.85-.82-33.89-.1-37.27a6.51,6.51,0,0,1,1.23-.29c1,0,2,0,3,0C323.12,445.24,323.42,474.61,322.61,480.3Z" transform="translate(-29.76 -114.28)"/><path class="cls-1" d="M134.62,452.47H130.5l-1-10.92,5.87-.26A51.75,51.75,0,0,1,134.62,452.47Z" transform="translate(-29.76 -114.28)"/><path class="cls-1" d="M356.22,374.29c22.47-9.42,39.17-24.72,49.51-46.34,6.95,15.4,13.89,30.76,20.93,46.34Z" transform="translate(-29.76 -114.28)"/></svg>