<?xml version="1.0" encoding="UTF-8"?><svg width="567" height="567" version="1.1" viewBox="0 0 567 567" xmlns="http://www.w3.org/2000/svg" xmlns:xlink="http://www.w3.org/1999/xlink"><!--Generated by IJSVG (https://github.com/curthard89/IJSVG)--><g transform="scale(1.00012)"><g fill="#000000"><path d="M5.08,1.05006e-07l-2.74357e-07,-1.05006e-07c1.09178,0.417861 1.99209,1.2221 2.53,2.26c3.8,6.26667 7.62333,12.52 11.47,18.76l1.22107e-07,1.70313e-07c0.638677,0.890822 0.900925,1.99729 0.73,3.08l3.78165e-09,-2.15456e-08c-0.227214,1.29453 -1.18837,2.33774 -2.46,2.67l6.41024e-08,-1.514e-08c-1.25579,0.296598 -2.56056,-0.24303 -3.24,-1.34c-1.89,-2.89 -3.74,-5.8 -5.6,-8.71l-7.03,-11.08c-1.48,-2.32 -0.89,-4.31 1.62,-5.48c0.06,0 0.11,-0.11 0.16,-0.16Z" transform="translate(140.52, 70.87)"></path><path d="M1.20984e-07,2.70504l-1.20984e-07,1.16884e-07c0.164842,-0.159256 0.318537,-0.329657 0.46,-0.51l1.51362e-07,-2.68457e-07c0.859485,-1.52439 2.70164,-2.19504 4.34,-1.58c4.77,1.34 9.52,2.72 14.29,4.08c2.64,0.75 5.29,1.49 7.92,2.26l3.4869e-07,7.93364e-08c1.74851,0.397833 2.90589,2.06239 2.67,3.84l9.57983e-08,-1.24714e-06c-0.129011,1.67952 -1.59511,2.93646 -3.27464,2.80745c-0.215349,-0.0165418 -0.428331,-0.0559112 -0.635363,-0.117446l-23.24,-6.64l6.47652e-08,1.84195e-08c-0.826589,-0.235085 -1.53821,-0.765246 -2,-1.49l-4.88873e-08,-6.08129e-08c-0.159842,-0.198833 -0.337221,-0.382906 -0.53,-0.55Z" transform="translate(92.2, 135.555)"></path><path d="M128.09,320.53l-1.07199e-05,-1.9057e-06c3.8192,0.678948 7.67644,1.12312 11.55,1.33l-7.44909e-07,-3.88993e-08c3.68551,0.192458 7.37949,0.15238 11.06,-0.119997l8.16905e-07,-4.53876e-08c26.6623,-1.48137 49.0603,-20.5697 54.75,-46.66c0.32,-1.43 0.61,-2.86 0.94,-4.46h-1.51c-8.98,0 -17.9567,0 -26.93,0l-2.26476e-08,7.10656e-10c-0.616588,0.0193498 -1.2197,-0.182871 -1.7,-0.57c-11.6733,-9.04 -23.34,-18.0633 -35,-27.07l7.07389e-08,4.72322e-08c-0.543432,-0.362848 -0.85216,-0.987926 -0.81,-1.64c0,-22.62 0,-45.24 0,-67.86v-1c0.3,-0.06 0.56,-0.12 0.81,-0.14c0.25,-0.02 0.62,0 0.93,0c48.6667,0 97.3333,0 146,0l1.56697e-07,-4.3222e-09c0.95948,-0.0264656 1.89649,0.292968 2.64,0.9c11.5,8.94667 23.02,17.8633 34.56,26.75l-2.09765e-08,-1.42745e-08c0.63289,0.430683 0.987519,1.16663 0.93,1.93c0,20.2867 0,40.5733 0,60.86c0,4.47 -0.08,8.94 -0.3,13.4c-0.28,5.78 -0.63,11.55 -1.16,17.31l-1.16187e-06,1.33173e-05c-0.829955,9.51287 -2.28982,18.9602 -4.36998,28.2799l-2.40012e-07,1.09518e-06c-4.2791,19.5255 -13.4572,37.6408 -26.67,52.64l-4.32551e-06,4.99945e-06c-18.6636,21.5715 -43.413,36.9963 -71,44.25l2.91291e-07,-7.74678e-08c-5.96145,1.58543 -12.0167,2.79447 -18.1299,3.61998l9.45905e-06,-1.34558e-06c-9.4871,1.34957 -19.071,1.8982 -28.6501,1.6401l-8.0192e-06,-1.9798e-07c-14.3362,-0.353936 -28.5558,-2.67564 -42.26,-6.9l8.29342e-06,2.65007e-06c-15.4073,-4.92323 -29.8468,-12.4746 -42.68,-22.32l-7.74577e-06,-5.87647e-06c-6.5351,-4.95797 -12.7291,-10.3502 -18.54,-16.14l-9.74934e-08,-9.63505e-08c-0.577575,-0.570804 -1.22624,-1.06487 -1.93,-1.47l2.9159e-06,1.68828e-06c-9.93662,-5.75323 -19.2324,-12.5482 -27.73,-20.27l5.34919e-06,4.72161e-06c-5.47967,-4.83678 -10.5781,-10.089 -15.25,-15.71l-8.30652e-06,-1.00796e-05c-10.7691,-13.0678 -18.1503,-28.5892 -21.49,-45.19c-1,-5.17 -1.74,-10.41 -2.42,-15.64c-0.65,-5 -1.09,-10 -1.57,-15c-0.26,-2.74 -0.41,-5.5 -0.57,-8.25c-0.26,-4.53 -0.51,-9.07 -0.71,-13.61c-0.19,-4.19 -0.34,-8.38 -0.46,-12.57c-0.11,-3.53 -0.21,-7.07 -0.23,-10.6c-0.0866667,-10.72 -0.15,-21.4433 -0.19,-32.17c0,-3.34 0,-6.68 0.08,-10c0.08,-3.32 0.11,-6.6 0.21,-9.9c0.13,-4.35 0.27,-8.69 0.46,-13c0.19,-4.31 0.4,-8.84 0.72,-13.26c0.4,-5.65 0.82,-11.3 1.39,-16.94l-5.63211e-06,6.42627e-05c0.775889,-8.85295 2.07819,-17.6519 3.89999,-26.35l4.01244e-07,-1.82404e-06c3.49351,-15.8813 10.6085,-30.741 20.79,-43.42l3.00417e-06,-3.66414e-06c5.86789,-7.15698 12.3894,-13.7521 19.48,-19.7l1.291e-05,-1.12729e-05c8.75626,-7.64593 18.3508,-14.2749 28.6,-19.76l-9.48273e-06,5.01424e-06c10.2027,-5.39496 21.0928,-9.3749 32.37,-11.83l-1.49665e-08,3.27827e-09c5.63992,-1.23536 11.3459,-2.14685 17.09,-2.73001l-9.63774e-06,1.00098e-06c8.85171,-0.919341 17.7588,-1.19006 26.65,-0.810001c4.77,0.21 9.55,0.45 14.31,0.83l1.18935e-05,9.91336e-07c5.60872,0.467492 11.1895,1.22516 16.7198,2.26997l1.26061e-06,2.26703e-07c7.90682,1.42192 15.6686,3.55732 23.19,6.38l9.73431e-07,3.82537e-07c9.25777,3.6381 18.0631,8.33606 26.24,14l-7.34264e-06,-5.05435e-06c9.41589,6.48148 18.2885,13.7187 26.53,21.64l-2.72755e-07,-2.59979e-07c0.587165,0.559662 1.23443,1.05266 1.93,1.47l1.10356e-05,6.63743e-06c10.6314,6.39432 20.5829,13.8563 29.7,22.27c3.88,3.53 7.59,7.24 11.37,10.87c0.22,0.21 0.42,0.45 0.6,0.64l-55.49,55.31l0.12,0.3c-0.3,-0.28 -0.6,-0.56 -0.89,-0.85c-4.7,-4.76 -9.54,-9.37 -14.68,-13.64l-5.49248e-06,-4.70212e-06c-5.55661,-4.75702 -11.5884,-8.92904 -18,-12.45l4.5978e-06,2.38872e-06c-5.61247,-2.91588 -11.6447,-4.94012 -17.88,-6l1.79719e-06,3.05518e-07c-6.82148,-1.15963 -13.7539,-1.52874 -20.66,-1.1l8.34362e-07,-3.33176e-08c-6.79677,0.271407 -13.5072,1.62159 -19.88,4l1.34087e-06,-4.99631e-07c-6.80457,2.53549 -12.8297,6.80274 -17.48,12.38l3.08429e-06,-3.61913e-06c-6.01674,7.06009 -10.6264,15.2067 -13.58,24l-3.72801e-06,1.13445e-05c-1.44266,4.39007 -2.42789,8.91743 -2.94,13.51c-0.526667,4.66667 -0.98,9.37333 -1.36,14.12c-0.26,3.21 -0.39,6.43 -0.52,9.65c-0.186667,4.30667 -0.346667,8.61 -0.48,12.91c-0.11,3.73 -0.2,7.45 -0.24,11.18c-0.0933333,10.88 -0.163333,21.7567 -0.21,32.63c0,3.77 0,7.54 0.08,11.31c0.05,4 0.13,7.92 0.23,11.88c0.13,4.58 0.27,9.16 0.47,13.73c0.18,4.07 0.4,8.14 0.7,12.2l-2.27699e-06,-3.87103e-05c0.318865,5.42091 0.919677,10.8216 1.8,16.18l-1.984e-06,-1.08726e-05c1.15127,6.30915 3.26599,12.4037 6.27,18.07c0.150163,0.130076 0.270163,0.290076 0.380163,0.460076Zm127.5,-268c-0.21,-0.14 -0.5,-0.38 -0.83,-0.57l6.30212e-06,3.60478e-06c-7.72006,-4.41583 -15.9557,-7.86189 -24.52,-10.26l8.2981e-06,2.22241e-06c-11.3932,-3.05135 -23.0725,-4.91133 -34.85,-5.55c-3.17,-0.21 -6.36,-0.24 -9.55,-0.32l-6.85482e-06,-2.04423e-07c-7.41422,-0.221105 -14.835,0.0160137 -22.22,0.710001c-4.86,0.48 -9.69,1.17 -14.49,2.1l-2.17567e-06,4.09859e-07c-11.4063,2.14875 -22.4432,5.93101 -32.77,11.23l-1.50005e-05,7.81615e-06c-8.09901,4.22006 -15.7627,9.22756 -22.88,14.95l1.35194e-05,-1.05441e-05c-8.03219,6.26447 -15.4339,13.2978 -22.1,21l-5.77943e-06,6.82476e-06c-7.84931,9.26901 -13.9271,19.9025 -17.93,31.37c-3.37,9.58 -4.92,19.53 -6.13,29.55c-0.48,4 -0.85,7.94 -1.2,11.91c-0.4,4.51 -0.74,9 -1.06,13.56c-0.2,2.75 -0.34,5.49 -0.47,8.24c-0.18,3.91 -0.33,7.83 -0.47,11.74c-0.1,2.64 -0.18,5.27 -0.23,7.91c-0.09,4.74 -0.22,9.47 -0.23,14.21c0,8.9 0.06,17.79 0.13,26.69c0,4.54 0.14,9.08 0.23,13.63c0.06,2.79333 0.14,5.58667 0.24,8.38c0.14,3.76 0.28,7.52 0.47,11.27c0.2,4.07 0.42,8.13 0.71,12.19c0.34,4.68 0.75,9.35 1.16,14c0.53,6 1.35,11.94 2.31,17.87l-8.59266e-07,-5.39979e-06c1.49626,9.40279 4.35991,18.5361 8.49999,27.11l-2.60624e-06,-5.32191e-06c4.69037,9.57769 10.8667,18.3529 18.3,26l-2.53764e-07,-2.61288e-07c0.324649,0.334274 0.703278,0.611484 1.12,0.82c3.09,1.54 6.14,3.17 9.29,4.57l-6.11514e-06,-2.68833e-06c11.8713,5.21884 24.4345,8.69476 37.3,10.32l-1.17551e-05,-1.54956e-06c5.38409,0.709732 10.8013,1.14031 16.2299,1.29l-7.65074e-07,-2.81705e-08c5.20252,0.19156 10.4119,0.071345 15.6,-0.36c4,-0.36 8,-0.72 11.91,-1.21l8.97979e-06,-1.15535e-06c6.05665,-0.779254 12.049,-1.99574 17.9301,-3.63992l2.11703e-06,-5.70061e-07c26.3997,-7.10877 50.0097,-22.0861 67.69,-42.94l-1.59618e-06,1.85754e-06c7.60906,-8.85502 13.7502,-18.872 18.19,-29.67l2.43736e-06,-6.09334e-06c3.72034,-9.30074 6.37722,-18.9923 7.92,-28.89l8.00035e-06,-4.89807e-05c1.45532,-8.90997 2.45661,-17.8882 2.99999,-26.8998c0.21,-3.17 0.35,-6.35 0.47,-9.53c0.12,-3.34 0.22,-6.67 0.23,-10c0,-8.78 0,-17.57 0,-26.35c0,-0.33 -0.05,-0.66 -0.08,-1c-1.91,-0.23 -97.39,-0.14 -98.22,0.09v27h31c-0.13,9.46 0.32,18.79 -0.53,28.25h36.89v1.52c0,5.6 0,11.19 0,16.79c0,2.17 -0.13,4.34 -0.22,6.51l-3.33155e-07,6.40596e-06c-0.235592,4.53001 -0.810538,9.03597 -1.72,13.48l3.40363e-06,-1.85352e-05c-1.16431,6.34046 -3.14057,12.5045 -5.87999,18.34l3.23872e-06,-6.62544e-06c-3.97079,8.12303 -9.57815,15.3374 -16.47,21.19l-2.41761e-07,2.09231e-07c-5.09569,4.41005 -10.8267,8.02731 -17,10.73l-4.92448e-06,2.07026e-06c-7.87606,3.3111 -16.291,5.15473 -24.83,5.44l2.75566e-06,-1.81407e-07c-3.99762,0.263167 -8.00961,0.21636 -12,-0.14c-2.85,-0.29 -5.71,-0.53 -8.54,-0.95l-5.1105e-06,-7.33024e-07c-5.68563,-0.815518 -11.2272,-2.43154 -16.46,-4.8l3.1066e-06,1.37778e-06c-5.94774,-2.63783 -11.2759,-6.49424 -15.64,-11.32l-1.19537e-06,-1.32339e-06c-3.41374,-3.77933 -6.46076,-7.87439 -9.1,-12.23l5.49694e-08,9.52473e-08c-0.363063,-0.629092 -0.971855,-1.07844 -1.68,-1.24c-2.08,-0.6 -4.18,-1.18 -6.22,-1.91l1.68154e-06,5.88755e-07c-6.32149,-2.21333 -12.1116,-5.72143 -17,-10.3l-3.26428e-06,-3.18756e-06c-2.61485,-2.55339 -5.01309,-5.31956 -7.16999,-8.26998l3.89064e-06,5.05633e-06c-6.17577,-8.02611 -10.6256,-17.2423 -13.07,-27.07c-1.55999,-6.5001 -2.04999,-13.1501 -2.55999,-19.8701c-0.3,-3.67 -0.51,-7.35 -0.69,-11c-0.2,-4.15 -0.34,-8.3 -0.48,-12.45c-0.1,-3.06 -0.18,-6.13 -0.23,-9.2c-0.1,-6.6 -0.21,-13.2 -0.23,-19.8c-0.02,-6.6 0.07,-13 0.13,-19.46c0.06,-6 0.136667,-11.98 0.23,-17.94c0,-2.91 0.13,-5.82 0.23,-8.73c0.133333,-3.84 0.29,-7.67667 0.47,-11.51c0.12,-2.59 0.31,-5.18 0.46,-7.77c0.29,-5 0.79,-10 1.46,-15l1.3748e-07,-1.10024e-06c1.90162,-15.2185 8.35303,-29.5085 18.51,-41l-4.20842e-06,4.91816e-06c5.39946,-6.31006 12.3267,-11.1302 20.12,-14l2.10253e-06,-7.60453e-07c8.00152,-2.89402 16.4318,-4.42527 24.94,-4.53c2.75,-0.09 5.51,0.08 8.27,0.14l-3.87188e-06,-1.14768e-07c3.6911,0.109409 7.36846,0.500546 11,1.17l7.09823e-06,1.16482e-06c7.35254,1.20655 14.4509,3.63689 21,7.19c9,5 17,11.33 24.55,18.22c1.58,1.43 3.12,2.9 4.64,4.32Zm-199.6,305.79l0.13,-0.15l-1,-1.6l1.41242e-06,2.35611e-06c-6.16006,-10.2758 -10.4783,-21.5485 -12.76,-33.31c-1.48,-7.58 -2.4,-15.23 -3.17,-22.91c-0.48,-4.7 -0.83,-9.42 -1.17,-14.13c-0.29,-4.06 -0.5,-8.12 -0.71,-12.19c-0.19,-3.83 -0.33,-7.67 -0.47,-11.51c-0.0933333,-2.6 -0.17,-5.2 -0.23,-7.8c-0.09,-4.31 -0.23,-8.62 -0.22,-12.93c0,-11.0733 0.0433333,-22.1433 0.13,-33.21c0,-3.84 0.14,-7.68 0.23,-11.52c0.06,-2.6 0.136667,-5.19667 0.23,-7.79c0.14,-3.64 0.28,-7.28 0.47,-10.92c0.206667,-4 0.44,-8 0.7,-12c0.23,-3.52 0.45,-7 0.81,-10.55c0.53,-5.12 1.08,-10.25 1.81,-15.34c0.68,-4.72 1.42,-9.44 2.46,-14.08l-2.38115e-06,1.07237e-05c3.89999,-17.5639 12.2311,-33.837 24.2,-47.27l-2.15795e-05,2.3991e-05c4.12552,-4.58655 8.51636,-8.92731 13.1499,-12.9999l2.05767e-06,-1.85553e-06c5.82909,-5.25647 12.0138,-10.1047 18.51,-14.51l-9.13611e-06,6.24051e-06c12.1844,-8.32271 25.7176,-14.4735 40.0001,-18.18l1.19898e-06,-3.07705e-07c7.66262,-1.96653 15.4659,-3.33729 23.34,-4.1c5,-0.49 10.06,-0.8 15.11,-0.88l1.6358e-06,-3.35456e-08c7.03041,-0.144174 14.0635,0.0828088 21.07,0.68c4.4,0.4 8.81,0.84 13.19,1.39l9.23118e-07,1.18606e-07c8.08313,1.03855 16.0623,2.76822 23.85,5.16999c0.18,0.06 0.38,0.08 0.8,0.17c-0.37,-0.31 -0.53,-0.48 -0.72,-0.61c-3.62,-2.54 -7.19,-5.18 -10.89,-7.6l-5.50777e-06,-3.63868e-06c-9.89436,-6.53665 -20.7723,-11.4455 -32.22,-14.54l3.74864e-06,9.78294e-07c-11.0614,-2.88674 -22.3916,-4.62262 -33.8099,-5.17999c-6,-0.33 -12,-0.35 -18.05,-0.38l-3.41255e-07,4.22119e-10c-4.93509,0.00610569 -9.86603,0.286538 -14.77,0.84l-9.87133e-06,1.03453e-06c-5.28662,0.554045 -10.5405,1.38519 -15.74,2.49l-3.11695e-06,6.5047e-07c-11.255,2.34878 -22.1131,6.30605 -32.24,11.75l-1.80469e-05,9.96398e-06c-11.4747,6.33538 -22.0995,14.1007 -31.62,23.11l-7.83868e-06,7.11706e-06c-5.38427,4.88861 -10.3268,10.2427 -14.77,16l-7.02288e-06,9.26452e-06c-9.46913,12.4916 -15.8433,27.0493 -18.6,42.48c-1.29,7.06 -2.23,14.18 -2.92,21.32c-0.55,5.71 -1,11.44 -1.4,17.17c-0.31,4.34 -0.51,8.68 -0.7,13c-0.2,4.5 -0.34,9 -0.47,13.5c-0.106667,3.60667 -0.183333,7.21667 -0.23,10.83c-0.05,3.65 -0.1,7.3 -0.08,11c0.04,9.16667 0.106667,18.3333 0.2,27.5c0,3.57 0.13,7.14 0.23,10.72c0.14,4.58 0.303333,9.15667 0.49,13.73c0.12,2.98667 0.273333,5.98667 0.46,9c0.3,4.8 0.56,9.61 1,14.4c0.51,5.52 1.16,11 1.8,16.54l-4.64271e-07,-4.0809e-06c0.570038,5.01059 1.43824,9.98274 2.6,14.89l-4.79385e-07,-2.00345e-06c3.42107,14.2973 10.0711,27.6213 19.44,38.95l4.0747e-06,4.82591e-06c6.62359,7.8447 14.0284,14.9949 22.1,21.34l2.97537e-07,1.65029e-07c0.146111,0.0810405 0.29632,0.154461 0.450024,0.219966Zm233.84,-150.4c0,0.56 0,1 0,1.48c-0.0466667,10.14 -0.1,20.28 -0.16,30.42c0,2.68 -0.11,5.35 -0.23,8c-0.2,4.1 -0.38,8.21 -0.71,12.31c-0.38,4.71333 -0.846667,9.41667 -1.4,14.11l6.42288e-06,-5.35701e-05c-0.844846,7.04646 -2.09692,14.0381 -3.74995,20.9398l3.96707e-06,-1.69388e-05c-4.80955,20.5361 -14.9864,39.4266 -29.49,54.7402l-3.52878e-06,3.76999e-06c-7.97455,8.51966 -16.9496,16.0442 -26.73,22.41l-3.26439e-06,2.12369e-06c-14.3159,9.31341 -30.2034,15.951 -46.89,19.59l1.15393e-05,-2.65527e-06c-5.85565,1.34742 -11.7959,2.29626 -17.7799,2.84c-4.25,0.36 -8.5,0.79 -12.76,0.89l1.75294e-06,-7.09255e-08c-8.01096,0.324131 -16.035,0.0265744 -23.9999,-0.889993c-3.53,-0.47 -7.08,-0.87 -10.59,-1.49l-1.20723e-05,-2.09118e-06c-6.75801,-1.17064 -13.4197,-2.8419 -19.9299,-4.99998c-0.29,-0.1 -0.6,-0.15 -0.9,-0.22l-2.01054e-06,-1.97695e-06c0.89589,0.880922 1.86246,1.68695 2.89,2.41l1.31682e-07,9.75066e-08c18.0574,13.3709 39.2225,21.923 61.5,24.85l-9.04162e-06,-1.24904e-06c5.50407,0.760348 11.0458,1.2177 16.6,1.37l-8.3856e-06,-2.47066e-07c8.158,0.240361 16.3227,-0.110557 24.43,-1.05l9.35607e-06,-1.05842e-06c6.32446,-0.715468 12.5948,-1.84793 18.7699,-3.38999l4.87851e-06,-1.19936e-06c28.3014,-6.95779 53.5724,-22.9311 72,-45.51l1.36216e-06,-1.64199e-06c8.85494,-10.674 15.5553,-22.9644 19.73,-36.19c4,-12.6 6,-25.59 7.16,-38.72c0.306667,-3.44 0.55,-6.88667 0.73,-10.34c0.25,-4.73 0.48,-9.46 0.58,-14.2c0.11,-5.52 0.06,-11 0.07,-16.56c0,-13.8 0,-27.5967 0,-41.39c0,-0.45 0,-0.9 0,-1.39Zm-91.91,-111.48l0.21,-0.23l-8.92813e-07,-5.09036e-07c-0.299104,-0.170533 -0.586417,-0.360962 -0.86,-0.57l-1.23636e-06,-1.07897e-06c-3.77526,-3.29466 -7.73141,-6.37612 -11.85,-9.23l3.01813e-07,2.11475e-07c-3.20915,-2.24859 -6.58188,-4.25418 -10.09,-6c-8.18,-4 -16.92,-5.75 -25.92,-6.25l-2.46574e-07,-1.47661e-08c-5.00126,-0.2995 -10.0188,-0.179079 -15,0.359997l-2.87885e-06,2.93922e-07c-4.43062,0.452352 -8.8054,1.34339 -13.06,2.66l2.18368e-06,-6.61774e-07c-6.11483,1.85312 -11.7408,5.04354 -16.47,9.34l4.25165e-06,-4.08524e-06c-2.57872,2.47779 -4.92209,5.1894 -7,8.1l1.56704e-06,-2.07823e-06c-7.26205,9.63103 -11.8316,21.0204 -13.24,33c-0.46,3.88667 -0.85,7.78 -1.17,11.68c-0.346667,4.13333 -0.626667,8.27 -0.84,12.41c-0.21,4 -0.34,8.06 -0.47,12.09c-0.11,3.26 -0.17,6.52 -0.24,9.78c0,2.41 -0.09,4.82 -0.08,7.22c0.07,15 -0.22,30 0.22,45c0.1,3.37 0.14,6.75 0.24,10.12c0.133333,4.06667 0.29,8.13667 0.47,12.21c0.12,2.75 0.25,5.5 0.47,8.24c0.346667,4.28667 0.736667,8.57 1.17,12.85l-2.72446e-06,-2.61485e-05c0.424516,4.07438 1.26215,8.09505 2.49999,12l2.02799e-06,6.22564e-06c2.91823,8.95851 7.5964,17.2439 13.76,24.37l7.84942e-07,9.34027e-07c4.56953,5.43743 10.4769,9.5905 17.14,12.05l3.72774e-07,1.13624e-07c0.272461,0.0830483 0.549616,0.149833 0.83,0.2l-0.56,-1.44l-2.76194e-07,-7.00494e-07c-1.29585,-3.28658 -2.34214,-6.66615 -3.13,-10.11l-3.64056e-06,-1.74547e-05c-1.15661,-5.54538 -1.91521,-11.1664 -2.26999,-16.82c-0.39,-4.83 -0.68,-9.67 -0.92,-14.51c-0.24,-4.84 -0.35,-9.46 -0.49,-14.19c-0.1,-3.41333 -0.17,-6.83 -0.21,-10.25c-0.05,-3.69 -0.09,-7.38 -0.08,-11.07c0.0533333,-12.6667 0.123333,-25.3333 0.21,-38c0,-3.49 0.12,-7 0.23,-10.48c0.13,-4 0.25,-8.07 0.47,-12.1c0.26,-4.92 0.53,-9.84 1,-14.74c0.34,-4 0.82,-7.94 1.4,-11.89l-4.90948e-06,3.32358e-05c1.4219,-9.62587 4.75384,-18.8704 9.79995,-27.19l-7.61327e-07,1.27645e-06c2.79851,-4.69199 6.06159,-9.09079 9.74002,-13.13l6.24717e-07,-6.6978e-07c5.77776,-6.19453 13.0711,-10.7753 21.16,-13.29l2.46848e-06,-7.90557e-07c7.36734,-2.35947 15.0447,-3.60982 22.78,-3.71c2.79,-0.07 5.59,0 8.38,0.16c2.32,0.11 4.64,0.36 7,0.61c1.56001,0.23 3.16001,0.51 4.77001,0.75Zm-64.59,232.31l-1.00444e-07,-2.74267e-07c0.0631896,0.172542 0.140102,0.339743 0.229999,0.499999l-3.25659e-06,-4.58686e-06c1.97941,2.78797 4.19059,5.40392 6.60998,7.81999l4.79267e-07,4.54854e-07c4.49244,4.2636 9.87026,7.48347 15.75,9.43c7.55,2.65 15.39,3.49 23.32,3.68l2.50186e-06,4.12035e-08c3.83979,0.0632379 7.67927,-0.14394 11.49,-0.619996l3.52332e-06,-3.88108e-07c4.27843,-0.471287 8.49514,-1.39306 12.58,-2.74999l-2.15177e-06,7.42695e-07c7.69315,-2.65533 14.7446,-6.89303 20.7,-12.44l-5.83997e-07,5.21555e-07c6.75247,-6.03048 11.9555,-13.5966 15.17,-22.06l3.19365e-06,-8.89395e-06c3.34265,-9.30889 5.1102,-19.1099 5.23,-29c0.1,-3.8 0,-7.62 0,-11.42c0,-0.38 0,-0.75 -0.05,-1.17h-30.4999c-0.08,0.26 -0.17,0.48 -0.21,0.7c-0.26,1.29 -0.48,2.59 -0.76,3.88l7.52902e-08,-3.70018e-07c-1.30133,6.39545 -3.47145,12.5828 -6.45,18.39l-1.58981e-07,2.95424e-07c-8.129,15.1056 -21.6779,26.5714 -37.92,32.09l2.53757e-06,-8.01452e-07c-6.4372,2.03309 -13.1228,3.17372 -19.87,3.39l5.22463e-06,-2.84517e-07c-4.73247,0.257715 -9.47805,0.130633 -14.1899,-0.379992l2.18947e-07,1.99607e-08c-0.375663,-0.034248 -0.752937,-0.0476098 -1.13008,-0.0400237Zm129,-272.15c-1.3,1 -45.54,45.38 -46,46.12l3.11127e-06,1.67809e-06c5.6754,3.06108 11.0667,6.62183 16.11,10.64l3.8006e-07,3.01285e-07c5.0618,4.01264 9.91797,8.27806 14.55,12.78l45.31,-45.08c-4.37,-5.36 -25.21,-22.25 -30,-24.46Zm20.18,123.12c-0.4,0 -0.67,-0.07 -0.94,-0.07l-126.25,0.07l-7.46371e-09,1.44607e-09c-0.0368267,0.00713507 -0.0692497,0.0287504 -0.09,0.06l8.07233e-10,-1.50837e-09c-0.0254881,0.0476261 -0.0456113,0.0979341 -0.06,0.15c0.19,0.16 0.39,0.34 0.59,0.5c8.44667,6.54 16.89,13.08 25.33,19.62l-1.05527e-07,-7.98636e-08c0.492909,0.373035 1.10298,0.557476 1.72,0.52h98.51c0.38,0 0.75,0 1.18,-0.06Zm-105.65,55.3c0,-0.4 0.07,-0.74 0.07,-1.08c0,-8.97333 0,-17.9467 0,-26.92l-1.06991e-08,1.4964e-07c0.0442543,-0.618956 -0.240708,-1.21548 -0.75,-1.57c-9.22667,-7.11333 -18.4433,-14.2367 -27.65,-21.37l-2.61986e-07,-1.77592e-07c-0.257612,-0.174627 -0.524685,-0.334871 -0.799996,-0.479998v51.42Zm31.09,7.48h-23.65c-0.23,2 -0.14,19.93 0.09,20.74c2.79,0.23 22.13,0.12 23,-0.15c0.83,-6.82 0.5,-13.67 0.57,-20.6Zm-55.26,0c1.17,1.24 23.33,18.26 24.12,18.57c0.25,-1.56 0.17,-17.74 -0.1,-18.57Zm137.2,-60.66v18.65c1.44,0.22 23,0.17 24,-0.09Z" transform="translate(116.91, 72.0799)"></path><path d="M3.76151,0l1.82101e-07,8.86007e-09c0.900926,0.0438344 1.75917,0.397023 2.43,1l10,7.67l7.57,5.82c0.31,0.24 0.62,0.47 0.91,0.72l5.09071e-08,3.76262e-08c1.41236,1.04389 1.71105,3.03508 0.667159,4.44744c-0.0282095,0.0381666 -0.05727,0.0756969 -0.0871595,0.112563l2.96859e-08,-4.24504e-08c-1.05496,1.50858 -3.12527,1.89147 -4.65,0.86c-0.68,-0.44 -1.31,-1 -2,-1.47l-16.34,-12.57l2.58869e-08,1.90123e-08c-0.313266,-0.230075 -0.613715,-0.47711 -0.9,-0.74l-2.18451e-07,-1.84996e-07c-1.05211,-0.890981 -1.36151,-2.38435 -0.75,-3.62l-1.05767e-07,2.83369e-07c0.492533,-1.31959 1.74173,-2.20394 3.15,-2.23Z" transform="translate(111.238, 97.85)"></path><path d="M3.82129,0.0347679l-1.37914e-08,-3.66015e-10c0.931848,0.0247308 1.82475,0.379055 2.52,1l11.53,8.87l6.64,5.11l-1.72353e-07,-1.15956e-07c1.06572,0.716994 1.57242,2.02165 1.27,3.27l9.43268e-08,-4.95396e-07c-0.253493,1.33132 -1.24286,2.40216 -2.55,2.76l2.79673e-07,-6.82694e-08c-1.06754,0.26059 -2.19458,-0.0324414 -3,-0.78c-1.67,-1.27 -3.33,-2.55 -5,-3.82l-12.93,-9.86c-0.28,-0.21 -0.56,-0.42 -0.82,-0.65l-7.12919e-08,-5.61735e-08c-1.07692,-0.848542 -1.48129,-2.29621 -1,-3.58l7.9638e-08,-2.29942e-07c0.490782,-1.41705 1.84077,-2.35477 3.34,-2.32Z" transform="translate(429.699, 444.415)"></path><path d="M19.4365,23.2145l1.27556e-07,3.80501e-06c0.0524887,1.56576 -0.866311,3.00163 -2.31,3.61l-2.44282e-07,9.21493e-08c-1.39005,0.524362 -2.95963,0.124979 -3.93,-1l2.19165e-07,2.7856e-07c-0.19176,-0.243728 -0.36555,-0.501072 -0.519999,-0.769998c-3.91333,-6.38 -7.82667,-12.76 -11.74,-19.14l-7.82148e-08,-1.05384e-07c-0.704495,-0.949214 -0.936537,-2.16835 -0.63,-3.31l-2.46605e-07,1.06742e-06c0.288827,-1.25018 1.31142,-2.19746 2.58,-2.39l6.56968e-09,-1.15244e-09c1.22251,-0.214457 2.45085,0.346048 3.09,1.41c2.24667,3.48667 4.49,6.98 6.73,10.48c2,3.14 4,6.27 6,9.43l-1.79939e-07,-3.31276e-07c0.291994,0.537574 0.536265,1.09973 0.730003,1.68Z" transform="translate(406.643, 465.576)"></path><path d="M29.7642,9.9556c0.3,2.55 -2.38,3.72 -4.51,3.09c-2.31,-0.68 -4.62,-1.33 -6.93,-2c-5,-1.44 -10.05,-2.89 -15.09,-4.31l-3.52157e-08,-7.0695e-09c-1.36765,-0.274554 -2.44535,-1.32874 -2.75,-2.69l8.40517e-08,2.8704e-07c-0.484237,-1.65369 0.463792,-3.38682 2.11748,-3.87106c0.59606,-0.17454 1.23065,-0.167208 1.82252,0.0210559l11.39,3.28l11.51,3.28c1.82,0.56 2.43,1.35 2.44,3.2Z" transform="translate(444.946, 414.244)"></path></g></g></svg>