<svg id="Calque_1" data-name="Calque 1" xmlns="http://www.w3.org/2000/svg" viewBox="0 0 5669.29 2267.72"><defs><style>.cls-1{fill-rule:evenodd;}</style></defs><title>2</title><path class="cls-1" d="M665,1351.17l134.28,134.28,134.27-134.28s21.2-21.2,21.2-49.47V1133.86h-79.5V1277c0,12.37-12.37,24.73-12.37,24.73l-63.6,63.61-63.61-63.61s-12.37-12.36-12.37-24.73V1133.86h-79.5V1301.7c0,28.27,21.2,49.47,21.2,49.47Z"/><path class="cls-1" d="M1069.63,1050.82c-10.6,0-12.37,0-12.37-12.36V978.38c0-12.36,1.77-12.36,12.37-12.36h54.77c12.36,0,12.36,0,12.36,12.36v60.07c0,12.36,0,12.36-10.6,12.36Zm-12.37,83h79.5V1466h-79.5V1133.86Z"/><path class="cls-1" d="M2195.07,1259.3c0,12.37,0,12.37-12.36,12.37h-95.41c-12.36,0-12.36,0-12.36-12.37v-54.77c0-12.37,0-12.37,12.36-12.37h95.41c12.36,0,12.36,0,12.36,12.37v54.77ZM2265.74,1466v-70.67H2087.29c-12.36,0-12.36,0-12.36-12.37v-53h190.81V1174.49c0-24.73-15.9-40.63-40.63-40.63h-189c-24.73,0-40.63,15.9-40.63,40.63v250.88c0,24.74,15.9,40.64,40.63,40.64Z"/><path class="cls-1" d="M4884.11,1259.3c0,12.37-1.77,12.37-14.14,12.37h-95.4c-12.37,0-12.37,0-12.37-12.37v-54.77c0-12.37,0-12.37,12.37-12.37H4870c12.37,0,14.14,0,14.14,12.37v54.77ZM4954.78,1466v-70.67H4774.57c-12.37,0-12.37,0-12.37-12.37v-53h192.58V1174.49c0-24.73-17.67-40.63-42.4-40.63H4725.1c-26.5,0-42.4,15.9-42.4,40.63v250.88c0,24.74,15.9,40.64,42.4,40.64Z"/><path class="cls-1" d="M2619.1,1466H2417.69c-24.74,0-42.41-15.9-42.41-40.64V1133.86h79.51V1383c0,12.37,0,12.37,12.36,12.37h102.48c12.37,0,12.37,0,12.37-12.37V1133.86h79.5v291.52c0,24.74-17.67,40.64-42.4,40.64Z"/><path class="cls-1" d="M2970.69,1310.54V1216.9c0-12.37,0-12.37-14.14-12.37h-98.94c-12.36,0-14.14,0-14.14,12.37V1466H2764V1133.86h245.58c21.2,0,40.63,21.2,40.63,40.63v136Z"/><path class="cls-1" d="M3338.18,1216.9V1383c0,12.37,0,12.37-12.37,12.37H3214.5c-12.37,0-12.37,0-12.37-12.37V1216.9c0-12.37,0-12.37,12.37-12.37h111.31c12.37,0,12.37,0,12.37,12.37Zm37.1,249.12c24.73,0,42.4-15.9,42.4-40.64V1174.49c0-24.73-17.67-40.63-42.4-40.63H3202.13V992.52h-79.5V1466Z"/><path class="cls-1" d="M3716.27,1390c0,14.14,0,14.14-12.37,14.14h-95.4c-12.37,0-12.37,0-12.37-12.37v-56.54c0-12.36,0-12.36,12.37-12.36h95.4c12.37,0,12.37,0,12.37,12.36V1390Zm-150.17,76h229.68V1174.49c0-24.73-15.89-40.63-42.4-40.63H3523.69v70.67H3703.9c12.37,0,12.37,0,12.37,12.37v44.17H3566.09c-24.74,0-42.41,15.9-42.41,40.63v123.68c0,24.74,17.67,40.64,42.41,40.64Z"/><path class="cls-1" d="M4112,1466V1216.9c0-12.37,0-12.37-14.14-12.37H3984.82V1466h-79.5V1133.86h243.81c24.73,0,42.4,15.9,42.4,40.63V1466Z"/><path class="cls-1" d="M4500.72,1466V1216.9c0-12.37,0-12.37-14.14-12.37H4373.51V1466H4294V1133.86h243.82c24.73,0,42.4,15.9,42.4,40.63V1466Z"/><polygon class="cls-1" points="1271.04 633.86 1500.73 633.86 1500.73 1633.86 1271.04 1633.86 1271.04 633.86 1271.04 633.86"/><polygon class="cls-1" points="1657.97 633.86 1885.88 633.86 1885.88 1633.86 1657.97 1633.86 1657.97 633.86 1657.97 633.86"/></svg>