<?xml version="1.0" encoding="utf-8"?>
<!-- Generator: Adobe Illustrator 21.1.0, SVG Export Plug-In . SVG Version: 6.00 Build 0)  -->
<svg version="1.1" id="Calque_1" xmlns="http://www.w3.org/2000/svg" xmlns:xlink="http://www.w3.org/1999/xlink" x="0px" y="0px"
	 viewBox="0 0 5669.3 2267.7" style="enable-background:new 0 0 5669.3 2267.7;" xml:space="preserve">
<style type="text/css">
	.st0{fill:#009E79;}
	.st1{fill:#FFFFFF;}
	.st2{fill:#241F20;}
</style>
<title>bnp</title>
<g>
	<path class="st0" d="M708.7,693.5v875.4H1584V693.5H708.7z M915.7,1439.1c-32.5-25.1-51.5-72.8-51.5-72.8
		c-27.4-10.7-66.3-36.7-66.3-36.7s25.5-13.9,47.8-18.1c-8.3-46.9,2.8-110.9,2.8-110.9s7.9,58,35.7,102.1c34.8-7,63.6-9.8,63.6-9.8
		s-18.6,26-28.3,54.7c21.3,21.4,61.2,43.6,76.1,49.2c-32.9-1.9-70-7.9-84-13.4C911.1,1403.3,912,1424.2,915.7,1439.1L915.7,1439.1z
		 M1003.4,1166.3c-19-39.9-31.5-92.3-31.5-92.3s-46.4,28.8-116.4,96.9c40.8-81.2,89.5-132.2,89.5-132.2s-18.1-18.1-84.4-24.1
		c64-22.7,134.5-15.3,134.5-15.3s31.1-26.4,83-41.3c0,0-13.4,18.1-23.7,46.9c73.8,7.9,142.4,51.5,142.4,51.5s-114.1-18.1-162.4-2.8
		C1017.3,1094.8,1007.6,1139.8,1003.4,1166.3L1003.4,1166.3z M1168.6,1396.4c0.6,12.8,5.7,25.8,5.7,25.8s-10.1,1.3-38.6,2
		c-40.2,23.2-89.1,32-89.1,32s31.1-20.4,46.9-36.7c-25.1-3.7-46.9-15.3-46.9-15.3s42-2.9,72.8-10.2c14.4-14.8,41.8-52.9,41.8-52.9
		s1.4,21.4,4.2,35.7c35.7-17.2,65.4-39.4,65.4-39.4S1204.4,1369.8,1168.6,1396.4L1168.6,1396.4z M1449.8,887.8
		c3.5,60.8-9.7,134-31.4,191c0-37.7-3.7-107-26.6-154c-17.9,12.4-63.7,35.3-128,68c9.9-9.9,52.6-60.6,64.9-82.3
		c-44.5,0.6-121.8,6.2-186.2,20.4c42.7-23.5,126.2-51.3,194.2-63.1c-29.1-24.7-84.7-55.7-127.4-76.7c34.6,1.2,166.4,26,210.9,60.6
		c29.7-7.1,68.6-8,68.6-8C1479.8,862.4,1467.3,876.3,1449.8,887.8L1449.8,887.8z"/>
	<g>
		<path class="st1" d="M971.9,1074c0,0,12.5,52.4,31.5,92.3v0c4.2-26.5,13.9-71.5,31-112.8c48.2-15.3,162.4,2.8,162.4,2.8
			s-68.7-43.6-142.4-51.5c10.2-28.8,23.7-46.9,23.7-46.9c-51.9,14.9-83,41.3-83,41.3s-70.5-7.4-134.5,15.3
			c66.3,6,84.4,24.1,84.4,24.1s-48.7,51-89.5,132.2C925.5,1102.7,971.9,1074,971.9,1074z"/>
		<path class="st1" d="M1328.8,910.5c-12.4,21.7-55.1,72.4-64.9,82.3c64.3-32.7,110.1-55.6,128-68c22.9,47,26.6,116.3,26.6,154
			c21.6-56.9,34.9-130.1,31.4-190.9c0,0,0,0,0,0v0c0,0,0,0,0,0c17.5-11.5,30-25.4,39.1-44.1c0,0-38.9,0.9-68.6,8
			c-44.5-34.6-176.3-59.4-210.9-60.6c42.7,21,98.4,52,127.4,76.7c-68,11.8-151.5,39.6-194.2,63.1
			C1207,916.7,1284.3,911.1,1328.8,910.5z"/>
		<path class="st1" d="M864.2,1366.2c0,0,19,47.8,51.5,72.8v0c-3.7-14.8-4.6-35.7-4.2-55.7c14,5.6,51.1,11.6,84,13.4
			c-14.9-5.6-54.8-27.8-76.1-49.2c9.7-28.7,28.3-54.7,28.3-54.7s-28.8,2.8-63.6,9.8c-27.8-44.1-35.7-102.1-35.7-102.1
			s-11.1,64-2.8,110.9c-22.3,4.2-47.8,18.1-47.8,18.1S836.9,1355.6,864.2,1366.2z"/>
		<path class="st1" d="M1230.7,1337.5c0,0-29.7,22.3-65.4,39.4c-2.8-14.4-4.2-35.7-4.2-35.7s-27.4,38.1-41.8,52.9
			c-30.8,7.3-72.8,10.2-72.8,10.2s21.8,11.6,46.9,15.3c-15.8,16.2-46.9,36.7-46.9,36.7s48.9-8.8,89.1-32c28.5-0.7,38.6-2,38.6-2
			s-5-13.1-5.6-25.8c0,0,0,0,0,0l0,0c0,0,0,0,0,0C1204.4,1369.8,1230.7,1337.5,1230.7,1337.5z"/>
	</g>
	<path class="st2" d="M2002.2,1395.6c38.6-9.7,62.4-40.7,62.4-71.7s-31.2-71.1-101-71.1h-153c0,0,3.1,85.1,3.1,155
		s-3.1,158.6-3.1,158.6s91.8,2.4,149.4,2.4s118.8-28.6,118.8-88.1S2016.3,1400.5,2002.2,1395.6z M1939.2,1529.9h-52.3
		c0,0-1.5-74.1-1.5-124s3.1-117.3,3.1-117.3c21.4,0,101-10.9,101,43.1s-66.7,45-66.7,45l-15.9,46.2h31.8c14.1,0,65.5,9.1,65.5,52.9
		S1966.1,1529.9,1939.2,1529.9L1939.2,1529.9z"/>
	<path class="st2" d="M4260.9,1395.6c38.6-9.7,62.4-40.7,62.4-71.7s-31.2-71.1-101-71.1h-153c0,0,3.1,85.1,3.1,155
		s-3.1,158.6-3.1,158.6s91.8,2.4,149.4,2.4s118.8-28.6,118.8-88.1S4275,1400.5,4260.9,1395.6z M4197.9,1529.9h-52.3
		c0,0-1.5-74.1-1.5-124s3-117.3,3-117.3c21.4,0,101-10.9,101,43.1s-66.7,45-66.7,45l-15.9,46.2h31.8c14.1,0,65.5,9.1,65.5,52.9
		S4224.8,1529.9,4197.9,1529.9L4197.9,1529.9z"/>
	<path class="st2" d="M2155.3,1252.8c0,0,4.2,100.9,4.2,137.3s-4.2,178.7-4.2,178.7h67.3c0,0-3.6-94.2-3.6-135.5v-94.8
		c0,0,7.3,20.7,33.9,63.2s103,167.1,103,167.1h55.2c0,0-5.4-73.2-5.4-160s5.4-156,5.4-156h-68.5l7.3,193.9l-118.2-193.9
		L2155.3,1252.8z"/>
	<path class="st2" d="M2628.4,1252.8h-122.6c0,0,3.7,84.2,3.7,158s-3.7,158-3.7,158h81.1c0,0-5.6-63.2-5.6-129.4
		c30.3,0,182,14.2,182-95.9C2763.3,1321.2,2757.8,1252.8,2628.4,1252.8z M2582,1399.2v-107.1c0,0,108.3-11.8,108.3,50.1
		C2690.3,1412.2,2582,1399.2,2582,1399.2z"/>
	<path class="st2" d="M3060.1,1252.8h-122.6c0,0,3.7,84.2,3.7,158s-3.7,158-3.7,158h81.1c0,0-5.6-63.2-5.6-129.4
		c30.3,0,182,14.2,182-95.9C3195.1,1321.2,3189.5,1252.8,3060.1,1252.8z M3013.7,1399.2v-107.1c0,0,108.3-11.8,108.3,50.1
		C3122,1412.2,3013.7,1399.2,3013.7,1399.2L3013.7,1399.2z"/>
	<path class="st2" d="M3378,1252.8h-56.3c0,0-45.1,122.9-127.8,316h70.2l22.3-74.9H3399l26.6,74.9h81.1L3378,1252.8z M3301.9,1451.8
		l40.9-105.2l41.5,105.2H3301.9z"/>
	<path class="st2" d="M4558.2,1252.8h-56.3c0,0-45.1,122.9-127.8,316h70.2l22.3-74.9h112.6l26.6,74.9h81.1L4558.2,1252.8z
		 M4482.1,1451.8l40.9-105.2l41.5,105.2H4482.1z"/>
	<path class="st2" d="M3557.5,1252.8c0,0,4.3,57.9,4.3,143.9s-4.3,172.1-4.3,172.1h79.8c0,0-4.3-83.9-4.3-158s4.3-118.1,4.3-118.1
		s104.6-14.9,104.6,50.8s-81.7,56.3-81.7,56.3l91.6,169h86.7L3750,1427c0,0,65.6-13,65.6-84.8s-84.8-89.5-128.1-89.5L3557.5,1252.8z
		"/>
	<path class="st2" d="M3894.2,1252.8c0,0,6.2,50.5,6.2,147s-6.2,169-6.2,169h81.7c0,0-5.6-75.5-5.6-170.2s5.6-145.8,5.6-145.8
		L3894.2,1252.8z"/>
	<path class="st2" d="M4935.6,1255.4c0,0-42.4-12.9-87.9-12.9s-121.5,18.6-121.5,91.5c0,58.8,62.5,84.1,86.1,95.4
		c22,10.5,78.8,26.5,80.1,60c1.1,28.2-27.4,36-57.2,34.9c-28.6-1.2-74.3-18.2-104.3-36.2v70.8c0,0,54.3,15.5,100,15.5
		s129.6-16.5,129.6-97.5c0-58-52.3-82.7-100.5-102.5c-44.1-18.1-65.6-32-65.6-54.3s30-25.8,44.4-25.8s41.9,0,96.6,29.5
		L4935.6,1255.4z"/>
</g>
</svg>
