<svg id="Calque_1" data-name="Calque 1" xmlns="http://www.w3.org/2000/svg" viewBox="0 0 5669.29 2267.72"><defs><style>.cls-1{fill:#fff;}</style></defs><title>bnp_black</title><path d="M708.66,693.45v875.37H1584V693.45Zm207.07,745.63c-32.47-25.07-51.49-72.84-51.49-72.84-27.37-10.66-66.34-36.66-66.34-36.66s25.51-13.92,47.78-18.08c-8.34-46.86,2.79-110.87,2.79-110.87s7.88,58,35.72,102.07c34.79-7,63.56-9.77,63.56-9.77s-18.56,26-28.3,54.74c21.33,21.36,61.23,43.6,76.08,49.18-32.94-1.86-70.05-7.88-84-13.44C911.09,1403.35,912,1424.23,915.73,1439.08Zm87.68-272.79c-19-39.9-31.54-92.32-31.54-92.32s-46.39,28.75-116.44,96.95c40.82-81.18,89.53-132.21,89.53-132.21s-18.09-18.09-84.43-24.13c64-22.73,134.54-15.31,134.54-15.31s31.08-26.44,83-41.3c0,0-13.45,18.09-23.66,46.87,73.77,7.88,142.42,51.49,142.42,51.49s-114.12-18.09-162.37-2.78C1017.33,1094.85,1007.59,1139.85,1003.41,1166.3Zm165.15,230.1c.61,12.78,5.65,25.84,5.65,25.84s-10.08,1.29-38.59,2c-40.15,23.18-89.07,32-89.07,32s31.09-20.42,46.86-36.66c-25.05-3.71-46.86-15.3-46.86-15.3s42-2.87,72.84-10.22c14.38-14.82,41.75-52.89,41.75-52.89s1.39,21.36,4.17,35.73c35.72-17.16,65.41-39.43,65.41-39.43S1204.42,1369.82,1168.56,1396.4Zm281.26-508.57c3.5,60.8-9.71,134-31.36,190.95,0-37.74-3.7-107-26.6-154-17.94,12.37-63.71,35.26-128,68,9.89-9.89,52.58-60.61,64.95-82.27-44.54.63-121.85,6.19-186.18,20.41,42.68-23.5,126.18-51.34,194.22-63.09-29.07-24.74-84.74-55.67-127.43-76.71,34.64,1.24,166.4,26,210.93,60.63,29.73-7.08,68.59-8,68.59-8C1479.84,862.43,1467.3,876.29,1449.82,887.83Z"/><path d="M2002.19,1395.59c38.56-9.71,62.44-40.72,62.44-71.71s-31.23-71.1-101-71.1h-153s3.06,85.08,3.06,155-3.06,158.63-3.06,158.63,91.83,2.44,149.37,2.44,118.77-28.56,118.77-88.12S2016.26,1400.47,2002.19,1395.59Zm-63,134.32h-52.35s-1.53-74.13-1.53-124,3.06-117.3,3.06-117.3c21.44,0,101-10.94,101,43.14s-66.72,45-66.72,45l-15.92,46.2h31.84c14.08,0,65.5,9.12,65.5,52.86S1966.07,1529.91,1939.14,1529.91Z"/><path d="M4260.92,1395.59c38.57-9.71,62.44-40.72,62.44-71.71s-31.22-71.1-101-71.1h-153s3.06,85.08,3.06,155-3.06,158.63-3.06,158.63,91.82,2.44,149.36,2.44,118.77-28.56,118.77-88.12S4275,1400.47,4260.92,1395.59Zm-63,134.32h-52.34s-1.53-74.13-1.53-124,3-117.3,3-117.3c21.44,0,101-10.94,101,43.14s-66.72,45-66.72,45l-15.93,46.2h31.83c14.08,0,65.5,9.12,65.5,52.86S4224.81,1529.91,4197.88,1529.91Z"/><path d="M2155.27,1252.78s4.25,100.88,4.25,137.35-4.25,178.69-4.25,178.69h67.27s-3.63-94.22-3.63-135.53v-94.81s7.27,20.65,33.93,63.2,103,167.14,103,167.14H2411s-5.45-73.22-5.45-160,5.45-156,5.45-156h-68.48l7.27,193.87-118.18-193.87Z"/><path d="M2628.38,1252.78H2505.82s3.72,84.2,3.72,158-3.72,158-3.72,158h81.09s-5.57-63.17-5.57-129.39c30.33,0,182,14.25,182-95.94C2763.32,1321.2,2757.75,1252.78,2628.38,1252.78ZM2582,1399.19V1292.11s108.33-11.77,108.33,50.14C2690.28,1412.19,2582,1399.19,2582,1399.19Z"/><path d="M3060.15,1252.78H2937.59s3.71,84.2,3.71,158-3.71,158-3.71,158h81.09s-5.57-63.17-5.57-129.39c30.32,0,182,14.25,182-95.94C3195.09,1321.2,3189.52,1252.78,3060.15,1252.78Zm-46.42,146.41V1292.11S3122,1280.34,3122,1342.25C3122,1412.19,3013.73,1399.19,3013.73,1399.19Z"/><path d="M3378,1252.78h-56.32s-45.14,122.94-127.8,316h70.23l22.29-74.92H3399l26.61,74.92h81.1Zm-76.14,199,40.85-105.24,41.48,105.24Z"/><path d="M4558.2,1252.78h-56.33s-45.13,122.94-127.79,316h70.23l22.29-74.92h112.65l26.61,74.92H4687Zm-76.14,199,40.85-105.24,41.48,105.24Z"/><path d="M3557.48,1252.78s4.33,57.9,4.33,143.93-4.33,172.1-4.33,172.1h79.84s-4.33-83.9-4.33-158,4.33-118.07,4.33-118.07,104.61-14.87,104.61,50.75-81.7,56.33-81.7,56.33l91.61,169h86.66L3750,1427s65.62-13,65.62-84.8-84.8-89.47-128.13-89.47Z"/><path d="M3894.21,1252.78s6.18,50.47,6.18,147-6.18,169-6.18,169h81.7s-5.57-75.54-5.57-170.24,5.57-145.79,5.57-145.79Z"/><path d="M4935.63,1255.41s-42.37-12.91-87.85-12.91-121.45,18.61-121.45,91.46c0,58.79,62.52,84.11,86.09,95.36,22,10.51,78.75,26.49,80.1,60,1.14,28.19-27.44,36-57.21,34.86C4806.75,1523,4761,1506,4731,1488v70.8s54.26,15.5,100,15.5,129.65-16.48,129.65-97.5c0-58-52.3-82.72-100.45-102.48-44.13-18.11-65.63-32-65.63-54.27s30-25.84,44.44-25.84,41.86,0,96.65,29.46Z"/><path class="cls-1" d="M1449.82,887.83c3.5,60.8-9.71,134-31.36,190.95,0-37.74-3.7-107-26.6-154-17.94,12.37-63.71,35.26-128,68,9.89-9.89,52.58-60.61,64.95-82.27-44.54.63-121.85,6.19-186.18,20.41,42.68-23.5,126.18-51.34,194.22-63.09-29.07-24.74-84.74-55.67-127.43-76.71,34.64,1.24,166.4,26,210.93,60.63,29.73-7.08,68.59-8,68.59-8C1479.84,862.43,1467.3,876.29,1449.82,887.83Z"/><path class="cls-1" d="M1003.41,1166.3c-19-39.9-31.54-92.32-31.54-92.32s-46.39,28.75-116.44,96.95c40.82-81.18,89.53-132.21,89.53-132.21s-18.09-18.09-84.43-24.13c64-22.73,134.54-15.31,134.54-15.31s31.08-26.44,83-41.3c0,0-13.45,18.09-23.66,46.87,73.77,7.88,142.42,51.49,142.42,51.49s-114.12-18.09-162.37-2.78C1017.33,1094.85,1007.59,1139.85,1003.41,1166.3Z"/><path class="cls-1" d="M915.73,1439.08c-32.47-25.07-51.49-72.84-51.49-72.84-27.37-10.66-66.34-36.66-66.34-36.66s25.51-13.92,47.78-18.08c-8.34-46.86,2.79-110.87,2.79-110.87s7.88,58,35.72,102.07c34.79-7,63.56-9.77,63.56-9.77s-18.56,26-28.3,54.74c21.33,21.36,61.23,43.6,76.08,49.18-32.94-1.86-70.05-7.88-84-13.44C911.09,1403.35,912,1424.23,915.73,1439.08Z"/><path class="cls-1" d="M1168.56,1396.4c.61,12.78,5.65,25.84,5.65,25.84s-10.08,1.29-38.59,2c-40.15,23.18-89.07,32-89.07,32s31.09-20.42,46.86-36.66c-25.05-3.71-46.86-15.3-46.86-15.3s42-2.87,72.84-10.22c14.38-14.82,41.75-52.89,41.75-52.89s1.39,21.36,4.17,35.73c35.72-17.16,65.41-39.43,65.41-39.43S1204.42,1369.82,1168.56,1396.4Z"/></svg>