<svg id="Calque_1" data-name="Calque 1" xmlns="http://www.w3.org/2000/svg" viewBox="0 0 566.93 566.93"><title>DIPC_black</title><path d="M310.86,300.46c6-3.23,11-2,16.66,1.63,16.79,11,34.17,21,51,31.85,7.88,5.06,16.57,5.95,25.37,7a112.62,112.62,0,0,1,48.26,17.38c12.34,7.85,25.29,14.74,37.88,22.18,6.93,4.1,7.37,6,3.72,13.16-3.22,6.28-6.41,12.58-9.72,18.81-2.88,5.42-6.25,7.26-10.65,4.63-20.28-12.13-41.09-23.6-60.22-37.38-10.09-7.27-17-18.91-25.61-28.33a53.11,53.11,0,0,0-11-9.52c-12.32-7.57-25.1-14.39-37.38-22C329.51,313.75,320.3,306.94,310.86,300.46Z"/><path d="M234.76,258.44c-3.44-2.12-6.41-4-9.45-5.81-12.34-7.25-24.9-14.14-37-21.79-7.91-5-16.6-5.89-25.39-6.9a112.74,112.74,0,0,1-48.24-17.41c-12.34-7.84-25.29-14.74-37.88-22.19-6.87-4.06-7.29-6-3.61-13.19,3.22-6.28,6.4-12.59,9.73-18.81,2.89-5.4,6.24-7.17,10.69-4.51,20,11.95,40.59,23.19,59.42,36.81,10.35,7.49,17.51,19.32,26.38,28.95a54.15,54.15,0,0,0,11,9.49c13.57,8.38,27.25,16.61,41.21,24.3C236.54,250.07,236.63,253.09,234.76,258.44Z"/><path d="M235.12,307.05c1.09,4.33,1.88,7.51-3.22,10.28-12.7,6.91-24.89,14.76-37.45,21.94-7.07,4-13.22,8.65-17.85,15.7-12.46,19-30.2,32.12-49.78,43.06-10.48,5.86-20.71,12.15-31.17,18-6.27,3.53-9.55,2.44-12.84-3.8q-5.18-9.79-10.2-19.67c-2.9-5.69-2.35-8.2,3.16-11.47,17-10.06,33.87-20.3,51.16-29.79a90.67,90.67,0,0,1,38.69-10.74c11.4-.64,20.83-5.26,30.12-11.06,11.28-7,22.66-13.91,34.07-20.75C231.28,307.93,233.14,307.69,235.12,307.05Z"/><path d="M336.38,256.43l-3.29-7.49c4.32-2.68,8.42-5.33,12.63-7.81,10.49-6.17,21-12.37,31.59-18.32,5.5-3.08,9.27-7.57,12.72-12.69,12.79-19,30.44-32.36,50.18-43.37,10.49-5.84,20.71-12.15,31.18-18,6.31-3.54,9.48-2.45,12.81,3.9s6.64,12.83,9.93,19.25c3.19,6.25,2.68,8.5-3.42,12.11-16.56,9.8-33,19.73-49.86,29.07-12.22,6.78-25.73,10.14-39.58,11.2a57.94,57.94,0,0,0-26.74,9c-10.9,6.76-22.09,13-33.14,19.57C339.85,253.71,338.48,254.89,336.38,256.43Z"/><path d="M401,192c-2,3-3.48,5.85-5.61,8.1-.66.7-3.31.24-4.6-.48-13.59-7.65-27.1-15.44-40.61-23.23-20.62-11.89-41.19-23.86-61.89-35.61a6.82,6.82,0,0,0-5.71,0q-52.16,29.84-104.15,60c-3.85,2.23-3.4,2.07-5.17-1.84-.92-2-3.67-3.25-6.28-5.4,10-5.76,19.1-11,28.21-16.19q42.46-24.21,84.91-48.42c3.43-2,6.4-2.53,10.09-.41q54.16,31.09,108.45,62C399.36,190.83,400,191.31,401,192Z"/><path d="M140,330.27c0-6.23-.18-12,.11-17.65.08-1.61,1.33-3.29,2.35-4.71,6.92-9.56,13.92-19,21.18-28.95-6.88-6.83-13.4-13.52-20.18-19.94a10.06,10.06,0,0,1-3.58-8.62c.29-4.41.07-8.85.07-13,.6-.53.84-.94,1.08-.94,13.63.07,27.41-1.07,40.87.54C206.44,240,222,260.91,220.5,286.57c-1.51,25.1-19.51,42.87-44.63,43.64C164.23,330.57,152.56,330.27,140,330.27Zm8.41-9.49c10.75,0,20.14.71,29.38-.15,19.14-1.77,30.9-13.83,33.34-33,1.79-14-5.08-29.61-16.32-35.75a8,8,0,0,1-.75,1.59c-14.36,19.62-28.8,39.18-43,58.9C149.58,314.43,149.42,317.4,148.41,320.78Zm20.65-49.16L186.4,248l-.58-1.49H148.39C152,257.78,162.47,262.81,169.06,271.62Z"/><path d="M165.6,372c2.13-2.5,3.63-5,5.81-6.54,1.23-.85,4-.69,5.41.1,15.85,8.63,31.59,17.48,47.36,26.26,19.36,10.77,38.68,21.61,58.15,32.18a8,8,0,0,0,6.58-.15c29.9-16.46,59.68-33.13,89.49-49.75,4.44-2.48,8.93-4.88,13.33-7.44,2.77-1.62,4.75-2.25,6.65,1.47.91,1.77,3.69,2.58,6.4,4.33-17.45,10-32.82,18.91-48.21,27.74-22.11,12.69-44.26,25.32-66.32,38.09-3.17,1.83-5.82,2.18-9.14.27q-56.21-32.42-112.53-64.64C167.73,373.39,166.93,372.83,165.6,372Z"/><path d="M414.65,251.53l-40.13,63.78c11.13,8.56,29.8,7.75,41.72-1.55,1.42-1.11,3.16-2.1,4-3.57,3.5-5.81,8.77-5.3,14.28-4.56-5.2,15.21-28.59,27.12-47.66,24.38-22.06-3.16-39.15-21.66-40.15-43.46-1.1-23.86,13.35-43.62,35.81-49,21.74-5.19,44.07,5,52.71,24.19-5.45.6-10.57,1.5-14.1-4.45C419.86,255.09,417.15,253.68,414.65,251.53ZM367,309.31l38.64-61.49c-14.54-6.81-34.6.29-44.14,15.2C352.14,277.61,354.47,298.71,367,309.31Z"/><path d="M285.1,298.62V330h-9.24c0-7.86.62-15.76-.15-23.52-1.08-10.83,1.64-19.91,9.23-27.71,2.26-2.32,3.88-5.25,6.35-8.68-3.92-3.75-7.69-7.59-11.72-11.13a10.11,10.11,0,0,1-3.78-9c.31-4.37.07-8.78.07-12.82,12.52,0,24.64-1.39,36.3.35,14.71,2.2,24.18,17.66,22.42,33-1.9,16.47-13.33,27.61-29.05,28.08C299,298.78,292.43,298.62,285.1,298.62Zm4.1-9.52c21,2,30.55-1.82,34.82-13.24,3.28-8.78.69-21.63-6.53-25.36Zm20.12-43.42h-24c-.93,9.06,7.5,11.18,11.47,17.06Z"/><path d="M247,236.64V320.7l1.74.41a19,19,0,0,0,1.09-4.4c.08-16.28.05-32.55.05-48.83,0-10.32,0-20.65,0-31.32h9.24c0,2.09,0,4,0,5.91q0,36.5,0,73c0,3.16-.2,6.2,4.66,5.43v9.05h-31v-8.14l4.66-1.42V236.64Z"/><path d="M256,358.91l12.25.85c-3.62,2.79-11.82,3.22-18.88,1.43l9.27-10-7.78-13.05c4.16-3.64,9.72-4.26,13-1.57s3.6,7.3.75,12.15a37.51,37.51,0,0,1-3.89,5.07C259.42,355.41,257.94,356.87,256,358.91Zm4.44-11.36,2.17-.3c-.3-2.48,0-5.28-1.11-7.34-.72-1.33-3.46-1.57-5.3-2.3L255.4,339Z"/><path d="M307.23,361.7l10.17-22.45H304.81l-.95-1.4c1-1,2-2.67,3.05-2.74,4.54-.31,9.12-.13,13.56-.13C321.9,341.49,312,361.59,307.23,361.7Z"/><path d="M421.9,237.56c-6.87-3.06-8.68-5.7-6.81-11.36.62-1.87,3.68-2.93,5.63-4.37l1.18,1.07Z"/><path d="M299.55,335.85c0,7.71.05,15.72-.08,23.73,0,.83-1.09,1.63-1.67,2.45-.58-.82-1.65-1.62-1.67-2.45-.16-5.58-.08-11.18-.14-16.76a9,9,0,0,0-.57-3.81c-.6-1.18-1.83-2-2.79-3,1.83-.27,3.66-.57,5.49-.8C298.38,335.12,298.68,335.42,299.55,335.85Z"/><path d="M422.08,329.14V342c-3-1.22-6.69.13-7.29-4.5C414.12,332.28,417.71,330.87,422.08,329.14Z"/><path d="M148.82,341.71v-7.56a49.45,49.45,0,0,1,6.72,1.35c.4.13.65,2.76.21,3A53.93,53.93,0,0,1,148.82,341.71Z"/><path d="M148.54,224.24c2.88.61,5.06.84,7,1.66.45.19.44,3.28,0,3.45a39.15,39.15,0,0,1-6.68,1.5Z"/><path d="M288.69,340.19c-1.55-4-4.7-5.73-8.89-5.6a7.94,7.94,0,0,0-7.94,6.13,77.33,77.33,0,0,0-1.48,7.89,68.38,68.38,0,0,0,1.85,8.49c1.36,3.93,4.61,5.14,8.59,5.16s6.61-1.62,8-5.28A23,23,0,0,0,288.69,340.19Zm-12.72.26c1-2.81,3.6-3.88,6.47-2.37,2.57,1.35,4,3.3,2.32,6.41-2.43,4.41-4.73,8.89-7.58,14.27C273.58,352,274,346.13,276,340.45ZM287,352.74c-.45,2-1.83,5.55-2.49,6.18-1.75,1.64-4.54.45-4.54.45l6.92-13.1S287.5,350.7,287,352.74Z"/></svg>