<?xml version="1.0" encoding="utf-8"?>
<!-- Generator: Adobe Illustrator 21.1.0, SVG Export Plug-In . SVG Version: 6.00 Build 0)  -->
<svg version="1.1" id="Calque_1" xmlns="http://www.w3.org/2000/svg" xmlns:xlink="http://www.w3.org/1999/xlink" x="0px" y="0px"
	 viewBox="0 0 566.9 566.9" style="enable-background:new 0 0 566.9 566.9;" xml:space="preserve">
<style type="text/css">
	.st0{fill:#FFFFFF;}
</style>
<title>DIPC_white</title>
<g>
	<path class="st0" d="M318.1,300.5c6-3.2,11-2,16.7,1.6c16.8,11,34.2,21,51,31.9c7.9,5.1,16.6,6,25.4,7c17.2,2,33.7,8,48.3,17.4
		c12.3,7.9,25.3,14.7,37.9,22.2c6.9,4.1,7.4,6,3.7,13.2c-3.2,6.3-6.4,12.6-9.7,18.8c-2.9,5.4-6.2,7.3-10.6,4.6
		c-20.3-12.1-41.1-23.6-60.2-37.4c-10.1-7.3-17-18.9-25.6-28.3c-3.2-3.7-6.9-6.9-11-9.5c-12.3-7.6-25.1-14.4-37.4-22
		C336.8,313.8,327.6,306.9,318.1,300.5z"/>
	<path class="st0" d="M242,258.4c-3.4-2.1-6.4-4-9.4-5.8c-12.3-7.2-24.9-14.1-37-21.8c-7.9-5-16.6-5.9-25.4-6.9
		c-17.2-2-33.7-8-48.2-17.4c-12.3-7.8-25.3-14.7-37.9-22.2c-6.9-4.1-7.3-6-3.6-13.2c3.2-6.3,6.4-12.6,9.7-18.8
		c2.9-5.4,6.2-7.2,10.7-4.5c20,11.9,40.6,23.2,59.4,36.8c10.4,7.5,17.5,19.3,26.4,28.9c3.2,3.6,6.9,6.8,11,9.5
		c13.6,8.4,27.2,16.6,41.2,24.3C243.8,250.1,243.9,253.1,242,258.4z"/>
	<path class="st0" d="M242.4,307c1.1,4.3,1.9,7.5-3.2,10.3c-12.7,6.9-24.9,14.8-37.4,21.9c-7.1,4-13.2,8.6-17.9,15.7
		c-12.5,19-30.2,32.1-49.8,43.1c-10.5,5.9-20.7,12.1-31.2,18c-6.3,3.5-9.6,2.4-12.8-3.8c-3.5-6.5-6.9-13.1-10.2-19.7
		c-2.9-5.7-2.3-8.2,3.2-11.5c17-10.1,33.9-20.3,51.2-29.8c11.9-6.4,25.2-10.1,38.7-10.7c11.4-0.6,20.8-5.3,30.1-11.1
		c11.3-7,22.7-13.9,34.1-20.8C238.6,307.9,240.4,307.7,242.4,307z"/>
	<path class="st0" d="M343.7,256.4l-3.3-7.5c4.3-2.7,8.4-5.3,12.6-7.8c10.5-6.2,21-12.4,31.6-18.3c5.5-3.1,9.3-7.6,12.7-12.7
		c12.8-19,30.4-32.4,50.2-43.4c10.5-5.8,20.7-12.1,31.2-18c6.3-3.5,9.5-2.4,12.8,3.9s6.6,12.8,9.9,19.2c3.2,6.2,2.7,8.5-3.4,12.1
		c-16.6,9.8-33,19.7-49.9,29.1c-12.2,6.8-25.7,10.1-39.6,11.2c-9.5,0.8-18.7,3.8-26.7,9c-10.9,6.8-22.1,13-33.1,19.6
		C347.1,253.7,345.8,254.9,343.7,256.4z"/>
	<path class="st0" d="M408.3,192c-2,3-3.5,5.9-5.6,8.1c-0.7,0.7-3.3,0.2-4.6-0.5c-13.6-7.6-27.1-15.4-40.6-23.2
		c-20.6-11.9-41.2-23.9-61.9-35.6c-1.8-0.8-3.9-0.8-5.7,0c-34.8,19.9-69.5,39.9-104.1,60c-3.9,2.2-3.4,2.1-5.2-1.8
		c-0.9-2-3.7-3.2-6.3-5.4c10-5.8,19.1-11,28.2-16.2c28.3-16.1,56.6-32.3,84.9-48.4c3.4-2,6.4-2.5,10.1-0.4
		c36.1,20.7,72.3,41.4,108.5,62C406.6,190.8,407.3,191.3,408.3,192z"/>
	<path class="st0" d="M147.3,330.3c0-6.2-0.2-12,0.1-17.6c0.1-1.6,1.3-3.3,2.4-4.7c6.9-9.6,13.9-19,21.2-29
		c-6.9-6.8-13.4-13.5-20.2-19.9c-2.5-2.1-3.9-5.3-3.6-8.6c0.3-4.4,0.1-8.9,0.1-13c0.6-0.5,0.8-0.9,1.1-0.9
		c13.6,0.1,27.4-1.1,40.9,0.5c24.5,2.9,40.1,23.9,38.6,49.5c-1.5,25.1-19.5,42.9-44.6,43.6C171.5,330.6,159.8,330.3,147.3,330.3z
		 M155.7,320.8c10.8,0,20.1,0.7,29.4-0.1c19.1-1.8,30.9-13.8,33.3-33c1.8-14-5.1-29.6-16.3-35.8c-0.2,0.6-0.4,1.1-0.8,1.6
		c-14.4,19.6-28.8,39.2-43,58.9C156.9,314.4,156.7,317.4,155.7,320.8L155.7,320.8z M176.3,271.6l17.3-23.6l-0.6-1.5h-37.4
		C159.3,257.8,169.8,262.8,176.3,271.6L176.3,271.6z"/>
	<path class="st0" d="M172.9,372c2.1-2.5,3.6-5,5.8-6.5c1.2-0.9,4-0.7,5.4,0.1c15.9,8.6,31.6,17.4,47.4,26.2
		c19.4,10.8,38.7,21.6,58.1,32.2c2.1,0.9,4.5,0.8,6.6-0.1c29.9-16.5,59.7-33.1,89.5-49.8c4.4-2.5,8.9-4.9,13.3-7.4
		c2.8-1.6,4.8-2.2,6.6,1.5c0.9,1.8,3.7,2.6,6.4,4.3c-17.5,10-32.8,18.9-48.2,27.7c-22.1,12.7-44.3,25.3-66.3,38.1
		c-3.2,1.8-5.8,2.2-9.1,0.3c-37.5-21.6-75-43.2-112.5-64.6C175,373.4,174.2,372.8,172.9,372z"/>
	<path class="st0" d="M421.9,251.5l-40.1,63.8c11.1,8.6,29.8,7.8,41.7-1.5c1.4-1.1,3.2-2.1,4-3.6c3.5-5.8,8.8-5.3,14.3-4.6
		c-5.2,15.2-28.6,27.1-47.7,24.4c-22-3.2-39.1-21.7-40.1-43.5c-1.1-23.9,13.4-43.6,35.8-49c21.7-5.2,44.1,5,52.7,24.2
		c-5.5,0.6-10.6,1.5-14.1-4.5C427.1,255.1,424.4,253.7,421.9,251.5z M374.3,309.3l38.6-61.5c-14.5-6.8-34.6,0.3-44.1,15.2
		C359.4,277.6,361.8,298.7,374.3,309.3z"/>
	<path class="st0" d="M292.4,298.6V330h-9.2c0-7.9,0.6-15.8-0.1-23.5c-1.1-10.8,1.6-19.9,9.2-27.7c2.3-2.3,3.9-5.2,6.4-8.7
		c-3.9-3.8-7.7-7.6-11.7-11.1c-2.7-2.2-4.1-5.6-3.8-9c0.3-4.4,0.1-8.8,0.1-12.8c12.5,0,24.6-1.4,36.3,0.4
		c14.7,2.2,24.2,17.7,22.4,33c-1.9,16.5-13.3,27.6-29,28.1C306.3,298.8,299.7,298.6,292.4,298.6z M296.5,289.1
		c21,2,30.5-1.8,34.8-13.2c3.3-8.8,0.7-21.6-6.5-25.4L296.5,289.1z M316.6,245.7h-24c-0.9,9.1,7.5,11.2,11.5,17.1L316.6,245.7z"/>
	<path class="st0" d="M254.3,236.6v84.1l1.7,0.4c0.5-1.4,0.9-2.9,1.1-4.4c0.1-16.3,0-32.5,0-48.8c0-10.3,0-20.6,0-31.3h9.2
		c0,2.1,0,4,0,5.9c0,24.3,0,48.7,0,73c0,3.2-0.2,6.2,4.7,5.4v9h-31v-8.1l4.7-1.4v-83.7H254.3z"/>
	<path class="st0" d="M263.3,358.9l12.2,0.9c-3.6,2.8-11.8,3.2-18.9,1.4l9.3-10l-7.8-13c4.2-3.6,9.7-4.3,13-1.6s3.6,7.3,0.8,12.1
		c-1.2,1.8-2.5,3.5-3.9,5.1C266.7,355.4,265.2,356.9,263.3,358.9z M267.8,347.6l2.2-0.3c-0.3-2.5,0-5.3-1.1-7.3
		c-0.7-1.3-3.5-1.6-5.3-2.3l-0.9,1.4L267.8,347.6z"/>
	<path class="st0" d="M314.5,361.7l10.2-22.5h-12.6l-1-1.4c1-1,2-2.7,3-2.7c4.5-0.3,9.1-0.1,13.6-0.1
		C329.2,341.5,319.3,361.6,314.5,361.7z"/>
	<path class="st0" d="M429.2,237.6c-6.9-3.1-8.7-5.7-6.8-11.4c0.6-1.9,3.7-2.9,5.6-4.4l1.2,1.1V237.6z"/>
	<path class="st0" d="M306.8,335.9c0,7.7,0,15.7-0.1,23.7c0,0.8-1.1,1.6-1.7,2.5c-0.6-0.8-1.6-1.6-1.7-2.5
		c-0.2-5.6-0.1-11.2-0.1-16.8c0.1-1.3-0.1-2.6-0.6-3.8c-0.6-1.2-1.8-2-2.8-3c1.8-0.3,3.7-0.6,5.5-0.8
		C305.7,335.1,306,335.4,306.8,335.9z"/>
	<path class="st0" d="M429.4,329.1V342c-3-1.2-6.7,0.1-7.3-4.5C421.4,332.3,425,330.9,429.4,329.1z"/>
	<path class="st0" d="M156.1,341.7v-7.6c2.3,0.3,4.5,0.7,6.7,1.4c0.4,0.1,0.6,2.8,0.2,3C160.8,339.7,158.5,340.8,156.1,341.7z"/>
	<path class="st0" d="M155.8,224.2c2.9,0.6,5.1,0.8,7,1.7c0.4,0.2,0.4,3.3,0,3.4c-2.2,0.7-4.4,1.2-6.7,1.5L155.8,224.2z"/>
	<path class="st0" d="M296,340.2c-1.5-4-4.7-5.7-8.9-5.6c-3.8-0.1-7.1,2.5-7.9,6.1c-0.6,2.6-1.1,5.2-1.5,7.9
		c0.4,2.9,1.1,5.7,1.9,8.5c1.4,3.9,4.6,5.1,8.6,5.2s6.6-1.6,8-5.3C298.2,351.6,298.2,345.6,296,340.2z M283.3,340.5
		c1-2.8,3.6-3.9,6.5-2.4c2.6,1.4,4,3.3,2.3,6.4c-2.4,4.4-4.7,8.9-7.6,14.3C280.9,352,281.3,346.1,283.3,340.5L283.3,340.5z
		 M294.4,352.7c-0.5,2-1.8,5.5-2.5,6.2c-1.8,1.6-4.5,0.5-4.5,0.5l6.9-13.1C294.2,346.3,294.8,350.7,294.4,352.7L294.4,352.7z"/>
</g>
</svg>
