<?xml version="1.0" encoding="UTF-8"?><svg width="567" height="567" version="1.1" viewBox="0 0 567 567" xmlns="http://www.w3.org/2000/svg" xmlns:xlink="http://www.w3.org/1999/xlink"><!--Generated by IJSVG (https://github.com/curthard89/IJSVG)--><g transform="scale(1.00012)"><g fill="#241F20"><path d="M424.745,0.895351l-5.96409e-08,-5.96944e-08c-0.8939,-0.894701 -2.34385,-0.895351 -3.23855,-0.00145115c-0.000483973,0.000483539 -0.000967728,0.000967295 -0.00145127,0.00145127l-60.83,60.83l3.61714e-06,3.5497e-06c-39.4635,-38.7277 -92.5681,-60.3919 -147.86,-60.32c-116.76,6.59196e-09 -211.46,94.65 -211.46,211.42l-2.20688e-06,0.00176674c-0.0688305,55.2884 21.5957,108.389 60.3212,147.849l-60.7812,60.8287l-9.65917e-09,9.65917e-09c-0.894701,0.894701 -0.894701,2.3453 1.93183e-08,3.24c0.894701,0.894701 2.3453,0.894701 3.24,-1.93183e-08l60.83,-60.83l6.03454e-06,5.92203e-06c39.461,38.7253 92.5616,60.3893 147.85,60.32c116.76,0 211.42,-94.65 211.42,-211.42l2.22169e-06,-0.00177863c0.0688274,-55.2884 -21.5957,-108.389 -60.3212,-147.849l60.83,-60.83l-4.07675e-08,4.07318e-08c0.894692,-0.893909 0.895328,-2.34386 0.00141905,-3.23855c-6.0542e-05,-6.05951e-05 -0.000121087,-0.000121187 -0.000181636,-0.000181775Z" transform="translate(70.6453, 70.6446)"></path><path fill="#FFFFFF" d="M24.33,11.8067c3.64,0 5.46,1.86667 5.46,5.6v22.41h18.87v-22.41c0,-5.20667 -1.5,-9.41 -4.5,-12.61c-3,-3.2 -6.39,-4.79667 -10.17,-4.79c-6.44,0 -11.4767,1.18 -15.11,3.54v-3.54h-18.88v103.22h0.2l1.07044e-07,6.62757e-07c0.313936,1.94372 1.2386,3.737 2.64,5.12l4.63553e-07,4.9387e-07c1.7269,1.83984 4.14685,2.87023 6.67,2.84l-3.86155e-07,-2.55966e-10c4.65487,0.00308547 8.61251,-3.39768 9.31,-8h0.05v-0.4l1.39469e-07,-1.13798e-06c0.0997164,-0.813623 0.0997163,-1.63638 -2.78938e-07,-2.45v-83c0.00666636,-3.68667 1.82667,-5.53 5.46,-5.53Z" transform="translate(188.24, 121.363)"></path><path fill="#FFFFFF" d="M16.4921,104.4c7.42,0 11.8667,-1.5 13.34,-4.5v3.32h18.87v-85.82c0,-11.6 -8.11,-17.4 -24.33,-17.4c-16.22,0 -24.33,5.8 -24.33,17.4v15.78h18.87v-15.78c0,-3.73333 1.82,-5.6 5.46,-5.6c3.64,0 5.46,1.86667 5.46,5.6v14.3c-0.54,1.47333 -3.73333,3.44 -9.58,5.9c-8.40667,4.28 -13.8767,7.84333 -16.41,10.69l-4.30189e-07,4.73317e-07c-2.4845,2.73358 -3.84213,6.3063 -3.8,10v33.1c2.26211e-09,8.68 5.48333,13.0167 16.45,13.01Zm2.43,-49.69c-0.0466667,-3.14667 3.59,-5.31 10.91,-6.49v37.6c0,3.73333 -1.82,5.6 -5.46,5.6c-3.64,0 -5.46,-1.86667 -5.46,-5.6Z" transform="translate(241.508, 121.37)"></path><path fill="#FFFFFF" d="M9.46147,18.9114l2.91535e-07,4.34919e-09c2.51047,0.0374519 4.92463,-0.96513 6.67,-2.77l5.60149e-08,-5.52127e-08c1.82137,-1.79529 2.82015,-4.26328 2.76,-6.82l1.05752e-07,-3.82571e-06c0.0685761,-2.48085 -0.890324,-4.8799 -2.65,-6.63l9.72202e-08,1.00118e-07c-1.68208,-1.73221 -4.00582,-2.69139 -6.42,-2.65l4.80347e-07,2.3901e-09c-2.57523,-0.0128138 -5.04741,1.01065 -6.86,2.84l1.72641e-07,-1.55041e-07c-1.87383,1.68281 -2.94596,4.08145 -2.95,6.6l-2.12875e-07,4.60588e-05c-0.0114694,2.48293 0.984425,4.86439 2.76003,6.59999l1.09108e-07,1.15902e-07c1.73337,1.84131 4.16143,2.86842 6.68997,2.82997Z" transform="translate(295.939, 100.699)"></path><path fill="#FFFFFF" d="M0,0h18.65v103.22h-18.65Z" transform="translate(296.11, 121.37)"></path><path fill="#FFFFFF" d="M5.42,100.42l-1.32095e-06,-8.1196e-07c4.01561,2.4683 8.66914,3.69951 13.38,3.54l-9.31789e-07,-1.3879e-08c3.96696,0.059088 7.83948,-1.2118 11,-3.61v2.88h18.87v-103.23h-18.89v14.3c-3.88667,-2.16 -8.92333,-3.24 -15.11,-3.24l-8.08021e-07,-1.00303e-08c-3.62927,-0.0450515 -7.18295,1.03817 -10.17,3.1c-3,2.06667 -4.5,6.83333 -4.5,14.3v57.36c-3.65041e-07,7.37333 1.80667,12.24 5.42,14.6Zm13.46,-72c0,-3.73333 1.82,-5.6 5.46,-5.6c3.64,0 5.46,1.86667 5.46,5.6v57.36c0,3.73333 -1.82,5.6 -5.46,5.6c-3.64,0 -5.46,-1.86667 -5.46,-5.6Z" transform="translate(320.29, 121.37)"></path><path fill="#FFFFFF" d="M0,0h18.65v103.23h-18.65Z" transform="translate(188.46, 234.32)"></path><path fill="#FFFFFF" d="M48.66,103.237v-85.83c0,-5.20667 -1.5,-9.41 -4.5,-12.61c-3,-3.2 -6.39333,-4.79667 -10.18,-4.79c-6.44,0 -11.48,1.18 -15.12,3.54v-3.54h-18.86v103.23h18.88v-85.83c0,-3.73333 1.82,-5.6 5.46,-5.6c3.64,0 5.46,1.86667 5.46,5.6v85.82Z" transform="translate(212.87, 234.313)"></path><path fill="#FFFFFF" d="M48.66,34.29v-16.89c0,-11.6 -8.11,-17.4 -24.33,-17.4c-16.22,0 -24.33,5.8 -24.33,17.4v12.28c0,4.57333 1.25333,8.17333 3.76,10.8c2.50667,2.62667 7.47333,8.56333 14.9,17.81c7.42,9.24 11.13,18.4333 11.13,27.58c0,3.73333 -1.82,5.6 -5.46,5.6c-3.64,0 -5.46,-1.86667 -5.46,-5.6v-17h-18.87v17c0,12.0933 8.11,18.14 24.33,18.14c16.22,0 24.33,-6.04667 24.33,-18.14v-12.36c0,-5.75333 -4.05667,-13.7533 -12.17,-24c-8.11333,-10.2467 -13.1133,-16.4633 -15,-18.65c-1.91333,-2.16 -2.77333,-6.63333 -2.58,-13.42c0,-3.73333 1.82,-5.6 5.46,-5.6c3.64,0 5.46,1.86667 5.46,5.6v16.88Z" transform="translate(265.81, 234.32)"></path><path fill="#FFFFFF" d="M29.8221,99.91v3.32h18.88v-85.83c0,-11.6 -8.11,-17.4 -24.33,-17.4c-16.22,0 -24.33,5.8 -24.33,17.4v15.78h18.88v-15.78c0,-3.73333 1.82,-5.6 5.46,-5.6c3.64,0 5.46,1.86667 5.46,5.6v14.28c-0.54,1.47333 -3.73667,3.44 -9.59,5.9c-8.40667,4.28 -13.8767,7.84333 -16.41,10.69l-4.30189e-07,4.73317e-07c-2.4845,2.73358 -3.84213,6.3063 -3.8,10v33.11c0,8.66667 5.48,13 16.44,13c7.42667,0.0200002 11.8733,-1.47 13.34,-4.47Zm-10.91,-45.23c-0.0466667,-3.14667 3.59,-5.31 10.91,-6.49v37.6c0,3.73333 -1.82,5.6 -5.46,5.6c-3.64,0 -5.46,-1.86667 -5.46,-5.6Z" transform="translate(319.378, 234.32)"></path><path fill="#FFFFFF" d="M0,0h18.88v103.23h-18.88Z" transform="translate(187.89, 343.48)"></path><path fill="#FFFFFF" d="M29.77,49.93l-10.25,-49.92h-19.52c13.8467,54.76 20.77,83.4667 20.77,86.12c0,2.65333 -0.786667,4.25 -2.36,4.79c-1.57333,0.54 -5.11333,0.81 -10.62,0.81v11.5h14.67c5.01333,0 8.93333,-0.92 11.76,-2.76c2.82667,-1.84 5.07667,-7.11333 6.75,-15.82l16.29,-84.65h-19Z" transform="translate(210.23, 343.47)"></path><path fill="#FFFFFF" d="M24.33,0c-16.22,0 -24.33,5.8 -24.33,17.4v68.43c0,12.0933 8.11,18.14 24.33,18.14c16.22,0 24.33,-6.04667 24.33,-18.14v-68.43c0,-11.6 -8.11,-17.4 -24.33,-17.4Zm5.46,85.83c0,3.73333 -1.82,5.6 -5.46,5.6c-3.64,0 -5.46,-1.86667 -5.46,-5.6v-68.43c0,-3.73333 1.82,-5.6 5.46,-5.6c3.64,0 5.46,1.86667 5.46,5.6Z" transform="translate(269.96, 343.48)"></path><path fill="#FFFFFF" d="M44.17,4.79c-3,-3.19333 -6.39333,-4.79 -10.18,-4.79c-6.44,0 -11.4767,1.18 -15.11,3.54v-3.54h-18.88v103.22h18.88v-85.83c0,-3.73333 1.82,-5.6 5.46,-5.6c3.64,0 5.46,1.86667 5.46,5.6v85.83h18.88v-85.83c-0.0133333,-5.20667 -1.51667,-9.40667 -4.51,-12.6Z" transform="translate(323.71, 343.49)"></path><path fill="#FF6704" d="M7.61267,0.017761l4.89956e-09,-8.07745e-11c1.07755,-0.017761 2.14591,0.20069 3.13,0.64l6.15773e-08,2.78618e-08c0.891662,0.403448 1.68882,0.98939 2.34,1.72l9.73354e-08,1.11194e-07c0.648427,0.740748 1.14758,1.59983 1.47,2.53l2.20399e-07,6.43492e-07c0.682667,1.99317 0.682667,4.15683 -4.40797e-07,6.15l2.81176e-07,-8.1185e-07c-0.32219,0.930271 -0.821367,1.7894 -1.47,2.53l-9.81954e-08,1.10419e-07c-0.649318,0.730143 -1.44712,1.31315 -2.34,1.71l-5.4998e-07,2.30323e-07c-1.99922,0.837241 -4.25078,0.837241 -6.25,-4.60646e-07l-1.36073e-07,-6.0427e-08c-0.893035,-0.396579 -1.69089,-0.979627 -2.34,-1.71l-3.08597e-07,-3.51621e-07c-0.649459,-0.740006 -1.14874,-1.5993 -1.47,-2.53l-3.1013e-08,-9.05478e-08c-0.682667,-1.99317 -0.682667,-4.15683 6.20259e-08,-6.15l1.17825e-07,-3.4105e-07c0.321497,-0.930589 0.820748,-1.78985 1.47,-2.53l-3.3237e-07,3.7291e-07c0.651184,-0.73061 1.44834,-1.31655 2.34,-1.72l1.08477e-07,-4.8458e-08c0.980922,-0.438188 2.04578,-0.656621 3.12,-0.639998Zm0,2.17l-1.9961e-07,-5.48073e-09c-0.746512,-0.0204971 -1.48609,0.148058 -2.15,0.49l1.34692e-08,-7.18677e-09c-0.587323,0.313382 -1.0913,0.762508 -1.47,1.31l1.61259e-07,-2.35798e-07c-0.387004,0.565889 -0.671345,1.1955 -0.84,1.86l-3.00991e-07,1.15697e-06c-0.36337,1.39675 -0.36337,2.86325 6.01981e-07,4.26l7.64758e-08,3.01698e-07c0.168458,0.664568 0.452814,1.29421 0.84,1.86l-3.53097e-07,-5.10484e-07c0.378695,0.547492 0.882676,0.996618 1.47,1.31l-1.7053e-08,-8.21996e-09c1.35538,0.653322 2.93462,0.653322 4.29,1.64399e-08l3.04987e-07,-1.6296e-07c0.587102,-0.3137 1.09101,-0.762765 1.47,-1.31l-6.02085e-08,8.81534e-08c0.38664,-0.566094 0.670951,-1.19564 0.84,-1.86l5.13012e-08,-1.97196e-07c0.36337,-1.39675 0.36337,-2.86325 -1.02602e-07,-4.26l1.82168e-07,7.15018e-07c-0.169244,-0.664292 -0.45354,-1.2938 -0.839999,-1.86l1.45218e-07,2.09946e-07c-0.378695,-0.547492 -0.882676,-0.996618 -1.47,-1.31l1.43812e-08,7.40465e-09c-0.660922,-0.340301 -1.39685,-0.508809 -2.14,-0.490002Z" transform="translate(299.037, 448.892)"></path><path fill="#FF6704" d="M0.0600066,0.301078h2.33v2.13v0l-5.50841e-09,2.17573e-08c0.0798444,-0.315375 0.222714,-0.61132 0.42,-0.87l1.77213e-07,-2.39067e-07c0.217155,-0.292951 0.472787,-0.55531 0.76,-0.78l-3.04797e-07,2.35746e-07c0.303855,-0.235018 0.640845,-0.423732 0.999999,-0.56l2.23424e-07,-8.83048e-08c0.353363,-0.139661 0.730039,-0.210924 1.11,-0.21l9.15948e-08,-5.0776e-09c0.199845,-0.0110785 0.40015,-0.0110786 0.599994,-3.11414e-07h0.34v2.34l-0.53,-0.08l1.89848e-07,1.10031e-08c-0.176519,-0.0102306 -0.353481,-0.0102306 -0.53,-2.20062e-08l1.09476e-07,1.05763e-09c-0.409071,-0.00395198 -0.814437,0.0778024 -1.19,0.24l1.11038e-07,-4.64729e-08c-0.383849,0.160653 -0.725895,0.406925 -1,0.72l-1.68585e-07,2.01538e-07c-0.290825,0.347674 -0.511557,0.748387 -0.65,1.18l-3.32954e-08,1.03377e-07c-0.168492,0.523139 -0.249579,1.07048 -0.24,1.62v5.24h-2.48Z" transform="translate(316.17, 453.169)"></path><path fill="#FF6704" d="M10.0651,8.8015l1.65744e-09,-2.11647e-08c-0.0172432,0.220188 0.0241616,0.441014 0.12,0.64l1.16661e-08,1.48324e-08c0.111867,0.142227 0.290721,0.21453 0.47,0.19h0.26l5.15633e-08,5.33635e-09c0.116356,0.0120418 0.233644,0.0120418 0.35,-1.06727e-08v1.68l-0.34,0.1l-0.42,0.1l-0.44,0.06h-0.37l4.23717e-08,-1.47895e-09c-0.439357,0.0153356 -0.874695,-0.0883164 -1.26,-0.3l1.04485e-07,6.84107e-08c-0.347333,-0.227413 -0.58318,-0.590254 -0.65,-1l-2.45515e-08,2.24221e-08c-0.518417,0.473455 -1.14238,0.816292 -1.82,1l2.46652e-07,-7.54607e-08c-0.674301,0.206295 -1.37487,0.314076 -2.08,0.32l2.33108e-07,-1.34281e-09c-0.493684,0.0028439 -0.985267,-0.0644962 -1.46,-0.2l-1.60916e-07,-4.55927e-08c-0.442388,-0.125343 -0.858899,-0.328519 -1.23,-0.6l-2.93604e-07,-2.16976e-07c-0.356521,-0.263472 -0.647406,-0.60569 -0.85,-1l-3.02189e-07,-6.0003e-07c-0.220024,-0.436883 -0.329881,-0.92094 -0.32,-1.41l-1.49689e-08,-3.44449e-07c-0.0250947,-0.577454 0.106192,-1.15097 0.38,-1.66l-1.63179e-07,2.79039e-07c0.241918,-0.413684 0.586315,-0.758082 0.999999,-1l-2.95963e-07,1.69599e-07c0.432058,-0.247586 0.901526,-0.423215 1.39,-0.52c0.513333,-0.106667 1.03333,-0.19 1.56,-0.25c0.526667,-0.06 0.953333,-0.12 1.28,-0.18l2.47221e-07,-1.89007e-08c0.364621,-0.0278763 0.726043,-0.0881131 1.08,-0.179999l5.83494e-08,-1.36829e-08c0.275913,-0.0647017 0.530668,-0.198964 0.74,-0.39l1.97798e-09,-2.20547e-09c0.195856,-0.218382 0.293466,-0.507597 0.27,-0.8l-2.08206e-08,4.89402e-07c0.0117069,-0.275179 -0.0692844,-0.546324 -0.23,-0.77l-4.75871e-08,-6.25877e-08c-0.149953,-0.197222 -0.345558,-0.355079 -0.57,-0.46l7.3208e-08,3.34672e-08c-0.23755,-0.108597 -0.490596,-0.17945 -0.75,-0.21l1.22689e-07,1.55519e-08c-0.258714,-0.0327943 -0.519214,-0.0494931 -0.779997,-0.05l1.33931e-07,5.02848e-09c-0.602504,-0.0226212 -1.19902,0.126509 -1.72,0.43l-7.78325e-08,4.97387e-08c-0.453415,0.289754 -0.737058,0.782398 -0.76,1.32h-2.48l1.39437e-10,-8.69221e-09c0.0191301,-1.1926 0.660001,-2.28853 1.69,-2.89l-6.33196e-07,3.76319e-07c0.493527,-0.293311 1.0353,-0.496477 1.6,-0.6l-4.47182e-07,8.49384e-08c0.603228,-0.114578 1.21599,-0.171501 1.83,-0.17l-4.19097e-07,4.4389e-10c0.547788,-0.000580227 1.09412,0.0563992 1.63,0.17l4.08261e-07,8.12511e-08c0.510505,0.101599 1.00054,0.287473 1.45,0.55l-2.04624e-08,-1.27371e-08c0.405481,0.252398 0.747602,0.594519 1,1l4.34585e-08,7.11461e-08c0.271641,0.444705 0.407212,0.959179 0.39,1.48Zm-2.49,-3l1.42886e-07,-8.80019e-08c-0.420102,0.258736 -0.897534,0.409866 -1.39,0.44c-0.553333,0.0466667 -1.10333,0.12 -1.65,0.22l-4.42754e-07,7.10991e-08c-0.257394,0.0413333 -0.511408,0.101495 -0.759998,0.179999l1.40915e-07,-4.38017e-08c-0.232026,0.0721225 -0.451344,0.180094 -0.65,0.32l-4.74521e-08,3.37142e-08c-0.191888,0.136335 -0.346591,0.318541 -0.45,0.53l-9.63287e-08,2.11543e-07c-0.114203,0.250795 -0.168958,0.524572 -0.16,0.8l-3.1628e-08,1.06929e-06c-0.00735386,0.248627 0.0782146,0.49107 0.240001,0.68l8.27241e-08,9.65248e-08c0.159724,0.186371 0.357487,0.336397 0.58,0.44l-6.22796e-08,-2.87463e-08c0.234855,0.108401 0.484069,0.182492 0.74,0.22l-1.94207e-07,-3.14092e-08c0.241392,0.0390405 0.485473,0.0591019 0.73,0.06l-1.67684e-07,2.51157e-09c0.299763,-0.00448987 0.598163,-0.0413707 0.889999,-0.11l1.5289e-07,-3.39068e-08c0.317531,-0.0704197 0.621498,-0.192006 0.9,-0.36l6.41211e-08,-3.80051e-08c0.278982,-0.165355 0.520719,-0.386664 0.71,-0.65l-1.29882e-08,1.90142e-08c0.200537,-0.293578 0.298927,-0.644973 0.28,-1Z" transform="translate(323.265, 453.199)"></path><path fill="#FF6704" d="M0,0.399175h2.35v1.62v0l2.98186e-07,-4.90281e-07c0.363442,-0.597576 0.872693,-1.09306 1.48,-1.44l1.51206e-07,-8.5702e-08c0.609612,-0.345522 1.29929,-0.524839 2,-0.52l1.83579e-07,-1.02855e-08c1.05617,-0.0591748 2.0967,0.275792 2.92,0.94l-1.34124e-07,-1.29626e-07c0.756506,0.731131 1.14861,1.76087 1.07,2.81v7.56h-2.48v-6.92l1.1178e-07,-2.851e-06c0.0263815,-0.672879 -0.174389,-1.33507 -0.570002,-1.88l7.29985e-08,7.08952e-08c-0.433336,-0.42085 -1.02822,-0.632528 -1.63,-0.58l8.64873e-09,1.60753e-10c-0.38797,-0.00721186 -0.773073,0.0677641 -1.13,0.22l-5.44752e-08,2.38643e-08c-0.325048,0.142396 -0.615124,0.353981 -0.85,0.62l-2.01616e-07,2.32113e-07c-0.237187,0.273065 -0.420426,0.588643 -0.54,0.93l-2.25178e-07,6.09739e-07c-0.13358,0.361709 -0.201315,0.744414 -0.2,1.13v6.49h-2.42Z" transform="translate(336, 453.071)"></path><path fill="#FF6704" d="M10.9163,10.7219l-2.22194e-08,-2.92147e-07c0.105626,1.38881 -0.419568,2.75137 -1.43,3.71l3.7397e-07,-2.81822e-07c-1.1785,0.888108 -2.63781,1.32129 -4.11,1.22l1.73963e-07,8.8562e-11c-0.574204,-0.000292308 -1.14698,-0.0572348 -1.71,-0.17l-3.04593e-07,-5.69188e-08c-0.550958,-0.102956 -1.08132,-0.295508 -1.57,-0.57l-1.28319e-07,-7.21815e-08c-0.468397,-0.26348 -0.874327,-0.625065 -1.19,-1.06l-2.76379e-07,-3.94713e-07c-0.334516,-0.477742 -0.531661,-1.03805 -0.57,-1.62h2.48l4.76397e-08,2.77657e-07c0.0992886,0.578682 0.471649,1.07392 1,1.33l-3.48401e-07,-1.6919e-07c0.251453,0.12211 0.522089,0.199918 0.8,0.23l2.28071e-07,2.61552e-08c0.302077,0.0346423 0.605942,0.0513383 0.909996,0.05l6.01377e-08,5.32657e-09c0.800937,0.0709412 1.59598,-0.189255 2.2,-0.72l-5.21856e-08,6.01736e-08c0.500265,-0.576841 0.751922,-1.32822 0.7,-2.09v-1.68v0l7.96165e-08,-1.49059e-07c-0.327235,0.612653 -0.819032,1.12177 -1.42,1.47l1.34264e-07,-7.63733e-08c-0.594082,0.337931 -1.26654,0.513804 -1.95,0.51l8.46372e-08,-2.4354e-09c-0.791605,0.0227787 -1.57805,-0.13451 -2.3,-0.459999l3.13518e-07,1.48457e-07c-0.614854,-0.291145 -1.15265,-0.722755 -1.57,-1.26l2.22114e-07,2.89565e-07c-0.419713,-0.547171 -0.725717,-1.17278 -0.9,-1.84l-4.50628e-07,-1.71417e-06c-0.192159,-0.730965 -0.286316,-1.48423 -0.28,-2.24l-1.37374e-07,-2.84059e-05c-0.00347104,-0.718064 0.114877,-1.43151 0.350009,-2.11l-1.98224e-07,5.86344e-07c0.218073,-0.645058 0.557503,-1.24246 0.999999,-1.76l-6.37544e-08,7.31347e-08c0.442954,-0.508127 0.98817,-0.91704 1.6,-1.2l-1.04613e-07,4.76979e-08c0.674451,-0.307514 1.40884,-0.461223 2.15,-0.45l8.49651e-08,-1.46389e-09c0.691918,-0.0119216 1.37697,0.13879 2,0.44l-7.9865e-09,-3.92305e-09c0.59562,0.292576 1.07742,0.77438 1.37,1.37v0v-1.51h2.48Zm-5.51,-1.34l6.58205e-08,1.98747e-09c0.487536,0.0147214 0.970364,-0.099088 1.4,-0.33l1.64727e-09,-9.21261e-10c0.377891,-0.211354 0.700092,-0.509561 0.94,-0.87l3.06473e-08,-4.7029e-08c0.244956,-0.375891 0.421037,-0.792389 0.52,-1.23l1.08101e-07,-4.58653e-07c0.107359,-0.455508 0.161058,-0.922012 0.16,-1.39l1.00259e-07,-2.45279e-05c0.00187411,-0.458747 -0.0552634,-0.91583 -0.170006,-1.36l1.54932e-09,6.13204e-09c-0.105714,-0.418404 -0.28519,-0.814605 -0.53,-1.17l2.73791e-08,3.87792e-08c-0.242167,-0.343001 -0.564982,-0.621172 -0.94,-0.81l-3.94264e-08,-1.9126e-08c-0.429574,-0.208389 -0.902681,-0.311238 -1.38,-0.3l3.16705e-08,1.06121e-09c-0.485745,-0.0162761 -0.966612,0.101346 -1.39,0.34l-1.19351e-07,6.98636e-08c-0.371279,0.217333 -0.686389,0.518742 -0.92,0.88l7.76319e-08,-1.22712e-07c-0.238501,0.376996 -0.407821,0.793523 -0.5,1.23l-1.28251e-07,5.79069e-07c-0.0996339,0.449859 -0.149931,0.909239 -0.15,1.37l6.86047e-08,-1.38141e-05c-0.00222993,0.44889 0.0549314,0.896103 0.169996,1.33l2.23986e-08,8.69974e-08c0.106825,0.414914 0.286261,0.807641 0.53,1.16l-9.50495e-08,-1.35423e-07c0.238719,0.34012 0.54941,0.623497 0.91,0.83l-1.00017e-07,-5.43322e-08c0.413596,0.224678 0.87957,0.335143 1.35001,0.320037Z" transform="translate(347.994, 453.178)"></path><path fill="#FF6704" d="M2.47831,6.48344l1.76524e-08,-2.38906e-06c-0.00310388,0.420061 0.0575875,0.838159 0.179999,1.24l-1.42375e-07,-4.32109e-07c0.120667,0.366224 0.310802,0.705753 0.56,1l-6.75404e-08,-8.00861e-08c0.256332,0.303946 0.577541,0.546561 0.94,0.71l1.70556e-07,7.58416e-08c0.424486,0.188758 0.885567,0.280974 1.35,0.27l-1.45341e-07,-7.17131e-09c0.616774,0.0304324 1.22791,-0.13021 1.75,-0.46l-3.81851e-08,2.73749e-08c0.471338,-0.337902 0.821845,-0.818096 1,-1.37h2.35l9.80638e-08,-4.62843e-07c-0.121241,0.572234 -0.352159,1.11557 -0.679999,1.6l-2.65618e-08,3.93606e-08c-0.309699,0.458927 -0.699198,0.858588 -1.15,1.18l-1.70362e-07,1.19835e-07c-0.459328,0.323096 -0.969804,0.566502 -1.51,0.72l2.20123e-07,-6.28393e-08c-0.56903,0.162443 -1.15825,0.24325 -1.75,0.24l-9.32507e-08,1.53369e-09c-0.80404,0.0132243 -1.60274,-0.13292 -2.35,-0.43l2.9701e-07,1.20283e-07c-0.656491,-0.265865 -1.24694,-0.672009 -1.73,-1.19l-4.48765e-07,-4.88823e-07c-0.483365,-0.526511 -0.848231,-1.15053 -1.07,-1.83l2.67792e-08,8.1973e-08c-0.246702,-0.755173 -0.368306,-1.54559 -0.36,-2.34l-6.84191e-08,-1.32973e-05c-0.00389172,-0.756508 0.124719,-1.50786 0.380005,-2.22l-5.26596e-08,1.48439e-07c0.241511,-0.680778 0.611549,-1.30882 1.09,-1.85l-5.66947e-07,6.39001e-07c0.476262,-0.53679 1.05847,-0.969194 1.71,-1.27l-2.66734e-07,1.20876e-07c0.712508,-0.322888 1.48786,-0.483423 2.27,-0.47l-1.90365e-07,3.06562e-09c0.82514,-0.013288 1.64139,0.171912 2.38,0.54l1.51944e-07,7.71258e-08c0.681749,0.346051 1.27916,0.837635 1.75,1.44l2.84723e-08,3.72362e-08c0.46642,0.609986 0.806395,1.30693 1,2.05l-7.15942e-08,-2.66767e-07c0.208949,0.778565 0.263307,1.59053 0.16,2.39Zm5.79,-1.6l4.8557e-08,6.61991e-07c-0.0278978,-0.38034 -0.112151,-0.754423 -0.25,-1.11l5.93442e-08,1.54357e-07c-0.131573,-0.342227 -0.324766,-0.657436 -0.57,-0.93l2.70779e-08,2.95084e-08c-0.245717,-0.267773 -0.541213,-0.485149 -0.87,-0.64l1.1673e-08,5.36517e-09c-0.357281,-0.164215 -0.746837,-0.246227 -1.14,-0.24l-1.04971e-07,-2.12884e-09c-0.407493,-0.00826405 -0.812396,0.0665921 -1.19,0.22l9.98787e-08,-4.13739e-08c-0.342702,0.141962 -0.652477,0.353017 -0.91,0.62l-1.46976e-07,1.52496e-07c-0.259522,0.269269 -0.46641,0.584689 -0.61,0.93l-6.0399e-09,1.42551e-08c-0.154383,0.364369 -0.239177,0.754423 -0.25,1.15Z" transform="translate(360.882, 453.117)"></path><g mask="url(#mask-1)"><path fill="#FF6704" d="M48.66,39.82h-18.91v-22.42c0,-3.73333 -1.82,-5.6 -5.46,-5.6c-3.64,0 -5.46,1.86667 -5.46,5.6v85.82h-18.83v-103.22h18.87v3.54c3.64,-2.36 8.67667,-3.54 15.11,-3.54c3.78667,0 7.17667,1.59667 10.17,4.79c2.99333,3.19333 4.49333,7.39667 4.5,12.61Z" transform="translate(188.25, 121.37)"></path><path fill="#FF6704" d="M48.6921,103.22h-18.87v-3.32c-1.47333,3 -5.92,4.5 -13.34,4.5c-10.96,0 -16.44,-4.33333 -16.44,-13v-33.1l-3.68558e-07,-3.23125e-05c-0.0421263,-3.6937 1.31552,-7.26642 3.80002,-9.99999c2.53333,-2.84667 8.00333,-6.41 16.41,-10.69c5.84667,-2.45333 9.04,-4.42 9.58,-5.9v-14.3c0,-3.73333 -1.82,-5.6 -5.46,-5.6c-3.64,0 -5.46,1.86667 -5.46,5.6v15.78h-18.88v-15.79c0,-11.6 8.11,-17.4 24.33,-17.4c16.22,0 24.33,5.8 24.33,17.4Zm-18.87,-17.4v-37.6c-7.33333,1.18 -10.97,3.34333 -10.91,6.49v31.11c0,3.73333 1.82,5.6 5.46,5.6c3.64,0 5.45667,-1.86667 5.45,-5.6Z" transform="translate(241.518, 121.37)"></path><path fill="#FF6704" d="M0.0036031,9.48125l-3.32464e-07,0.000208569c0.00398509,-2.51855 1.07605,-4.91722 2.94984,-6.60007l-6.81567e-07,6.87868e-07c1.81259,-1.82935 4.28476,-2.85281 6.86,-2.84l4.89476e-07,-8.39184e-09c2.41418,-0.0413898 4.73792,0.917787 6.42,2.65l6.01321e-08,5.98047e-08c1.75968,1.7501 2.71858,4.14915 2.65,6.63l3.1751e-07,1.34971e-05c0.0601434,2.55672 -0.938635,5.02471 -2.76001,6.82l3.86011e-07,-3.9917e-07c-1.74537,1.80487 -4.15953,2.80745 -6.67,2.77l2.79607e-07,-3.34958e-09c-2.52315,0.0302264 -4.9431,-1.00016 -6.67,-2.84l-5.59686e-07,-5.438e-07c-1.78043,-1.72989 -2.78344,-4.10772 -2.77984,-6.59015Zm18.8,11.21h-18.69v103.21h18.65Z" transform="translate(295.996, 100.689)"></path><path fill="#FF6704" d="M18.8,103.96l4.37006e-08,-1.47969e-09c-4.71086,0.159506 -9.36439,-1.0717 -13.38,-3.54c-3.61333,-2.36 -5.42,-7.22667 -5.42,-14.6v-57.36c0,-7.47333 1.5,-12.24 4.5,-14.3l-1.11338e-06,7.68515e-07c2.98705,-2.06183 6.54073,-3.14505 10.17,-3.1c6.19333,0 11.23,1.08 15.11,3.24v-14.3h18.93v103.22h-18.92v-2.88l1.07604e-06,-8.18025e-07c-3.15652,2.39965 -7.02528,3.67398 -10.99,3.62Zm5.53,-12.53c3.64,0 5.46,-1.86667 5.46,-5.6v-57.37c0,-3.73333 -1.82,-5.6 -5.46,-5.6c-3.64,0 -5.46,1.86667 -5.46,5.6v57.36c0.00666667,3.74 1.82667,5.61 5.46,5.61Z" transform="translate(320.29, 121.37)"></path><path fill="#FF6704" d="M0.0171244,9.48125l-3.32464e-07,0.000208569c0.00398509,-2.51855 1.07605,-4.91722 2.94984,-6.60007l-6.81567e-07,6.87868e-07c1.81259,-1.82935 4.28476,-2.85281 6.86,-2.84l4.89476e-07,-8.39182e-09c2.41418,-0.0413898 4.73792,0.917787 6.42,2.65l-1.22038e-07,-1.21312e-07c1.77259,1.76204 2.73262,4.18185 2.65016,6.67986l3.1751e-07,1.34971e-05c0.0601434,2.55672 -0.938635,5.02471 -2.76001,6.82l3.86011e-07,-3.9917e-07c-1.74537,1.80487 -4.15953,2.80745 -6.67,2.77l2.79607e-07,-3.34961e-09c-2.52315,0.0302264 -4.9431,-1.00016 -6.67,-2.84l-5.62241e-07,-5.46222e-07c-1.79298,-1.74189 -2.79712,-4.14027 -2.77999,-6.64001Zm18.8,11.21h-18.65v103.23h18.65Z" transform="translate(188.303, 213.629)"></path><path fill="#FF6704" d="M48.67,103.23h-18.88v-85.83c0,-3.73333 -1.82,-5.6 -5.46,-5.6c-3.64,0 -5.46,1.86667 -5.46,5.6v85.82h-18.87v-103.22h18.88v3.54c3.64,-2.36 8.68,-3.54 15.12,-3.54c3.78667,0 7.18,1.59667 10.18,4.79c3,3.19333 4.5,7.39667 4.5,12.61Z" transform="translate(212.87, 234.32)"></path><path fill="#FF6704" d="M0.04,68.79h18.88v17c0,3.73333 1.82,5.6 5.46,5.6c3.64,0 5.46,-1.86667 5.46,-5.6c0,-9.14 -3.71,-18.3333 -11.13,-27.58c-7.42,-9.24667 -12.3867,-15.1833 -14.9,-17.81c-2.50667,-2.62667 -3.76,-6.22667 -3.76,-10.8v-12.2c0,-11.6 8.11,-17.4 24.33,-17.4c16.22,0 24.33,5.8 24.33,17.4v16.88h-18.88v-16.88c0,-3.73333 -1.82,-5.6 -5.46,-5.6c-3.64,0 -5.46,1.86667 -5.46,5.6c-0.2,6.78 0.66,11.2533 2.58,13.42c1.92,2.16667 6.92,8.38333 15,18.65c8.11333,10.2733 12.17,18.2733 12.17,24v12.31c0,12.0933 -8.11,18.14 -24.33,18.14c-16.22,0 -24.33,-6.04667 -24.33,-18.14Z" transform="translate(265.77, 234.32)"></path><path fill="#FF6704" d="M48.7021,103.23h-18.87v-3.32c-1.47333,3 -5.92333,4.5 -13.35,4.5c-10.96,0 -16.44,-4.33333 -16.44,-13v-33.09l-3.68558e-07,-3.23125e-05c-0.0421263,-3.6937 1.31552,-7.26642 3.80002,-9.99999c2.53333,-2.84667 8.00333,-6.41 16.41,-10.69c5.84667,-2.46 9.04333,-4.42667 9.59,-5.9v-14.3c0,-3.73333 -1.82,-5.6 -5.46,-5.6c-3.64,0 -5.46,1.86667 -5.46,5.6v15.75h-18.88v-15.78c0,-11.6 8.11,-17.4 24.33,-17.4c16.22,0 24.33,5.8 24.33,17.4Zm-18.88,-17.4v-37.6c-7.33333,1.18 -10.97,3.34333 -10.91,6.49v31.12c0,3.73333 1.82,5.6 5.46,5.6c3.64,0 5.46,-1.87333 5.46,-5.62Z" transform="translate(319.378, 234.32)"></path><path fill="#FF6704" d="M18.88,103.23h-18.88v-103.23h18.88Z" transform="translate(187.9, 343.48)"></path><path fill="#FF6704" d="M57.18,5.68434e-14l-16.29,84.65c-1.67333,8.7 -3.92333,13.9733 -6.75,15.82c-2.82667,1.84667 -6.74667,2.76667 -11.76,2.76h-14.66v-11.5c5.50667,0 9.04667,-0.27 10.62,-0.81c1.57333,-0.54 2.36667,-2.14 2.38,-4.8c0,-2.66667 -6.90667,-31.3733 -20.72,-86.12h19.54l10.18,49.92l8.41,-49.92Z" transform="translate(210.28, 343.48)"></path><path fill="#FF6704" d="M0,85.83v-68.43c0,-11.6 8.11,-17.4 24.33,-17.4c16.22,0 24.33,5.8 24.33,17.4v68.43c0,12.0933 -8.11,18.14 -24.33,18.14c-16.22,0 -24.33,-6.04667 -24.33,-18.14Zm29.79,0v-68.43c0,-3.73333 -1.82,-5.6 -5.46,-5.6c-3.64,0 -5.46,1.86667 -5.46,5.6v68.43c0,3.73333 1.82,5.6 5.46,5.6c3.64,0 5.45,-1.86667 5.43,-5.6Z" transform="translate(270, 343.48)"></path><path fill="#FF6704" d="M48.66,103.25h-18.87v-85.83c0,-3.73333 -1.82,-5.6 -5.46,-5.6c-3.64,0 -5.46,1.86667 -5.46,5.6v85.83h-18.87v-103.23h18.88v3.52c3.64,-2.36 8.67667,-3.54 15.11,-3.54c3.78667,0 7.18,1.59667 10.18,4.79c3,3.19333 4.5,7.39667 4.5,12.61Z" transform="translate(323.72, 343.46)"></path></g></g></g><defs><mask id="mask-1" maskContentUnits="userSpaceOnUse" maskUnits="objectBoundingBox"><g transform="translate(-146.61, 306.75)"><g fill="#FFFFFF" transform="rotate(-45)"><path d="M0,0h354.97v71.8h-354.97Z" transform="translate(119.49, 294.44)"></path></g></g></mask></defs></svg>