<?xml version="1.0" encoding="UTF-8"?><svg width="567" height="567" version="1.1" viewBox="0 0 567 567" xmlns="http://www.w3.org/2000/svg" xmlns:xlink="http://www.w3.org/1999/xlink"><!--Generated by IJSVG (https://github.com/curthard89/IJSVG)--><g transform="scale(1.00012)"><g fill="#FFFFFF"><path d="M5.51,43.2c3.64,0 5.46,-1.86667 5.46,-5.6v-37.6c-7.33333,1.18 -10.97,3.34333 -10.91,6.49v31.12c-0.00666667,3.72667 1.81,5.59 5.45,5.59Z" transform="translate(338.24, 282.55)"></path><path d="M5.46,0c-3.64,0 -5.46,1.86667 -5.46,5.6v68.43c0,3.73333 1.82,5.6 5.46,5.6c3.64,0 5.46,-1.86667 5.46,-5.6v-68.43c0,-3.73333 -1.82,-5.6 -5.46,-5.6Z" transform="translate(288.83, 355.28)"></path><path d="M5.51,43.2c3.63333,0 5.45333,-1.86667 5.46,-5.6v-37.6c-7.33333,1.18 -10.97,3.34333 -10.91,6.49v31.11c-0.00666667,3.73333 1.81,5.6 5.45,5.6Z" transform="translate(260.37, 169.6)"></path><path d="M5.46,68.57c3.64,0 5.46,-1.86667 5.46,-5.6v-57.37c0,-3.73333 -1.82,-5.6 -5.46,-5.6c-3.64,0 -5.46,1.86667 -5.46,5.6v57.36c0,3.74 1.82,5.61 5.46,5.61Z" transform="translate(339.16, 144.23)"></path><path d="M8.43337,1.96479l1.45218e-07,2.09946e-07c-0.378695,-0.547492 -0.882676,-0.996618 -1.47,-1.31l2.95684e-07,1.42883e-07c-1.35504,-0.654794 -2.93496,-0.654794 -4.29,-4.88563e-07l1.34692e-08,-7.18677e-09c-0.587323,0.313382 -1.0913,0.762508 -1.47,1.31l1.61259e-07,-2.35798e-07c-0.387004,0.565889 -0.671345,1.1955 -0.84,1.86l-3.00991e-07,1.15697e-06c-0.36337,1.39675 -0.36337,2.86325 6.01981e-07,4.26l7.64758e-08,3.01698e-07c0.168458,0.664568 0.452814,1.29421 0.84,1.86l-3.53097e-07,-5.10484e-07c0.378695,0.547492 0.882676,0.996618 1.47,1.31l-4.16774e-07,-2.00394e-07c1.35571,0.651858 2.93429,0.651858 4.29,4.00788e-07l3.04987e-07,-1.6296e-07c0.587102,-0.3137 1.09101,-0.762765 1.47,-1.31l-6.02085e-08,8.81534e-08c0.38664,-0.566094 0.670951,-1.19564 0.84,-1.86l5.13012e-08,-1.97196e-07c0.36337,-1.39675 0.36337,-2.86325 -1.02602e-07,-4.26l4.8257e-08,1.89411e-07c-0.169244,-0.664293 -0.453541,-1.29381 -0.840001,-1.86Z" transform="translate(301.827, 450.915)"></path><path d="M4.97,0.888264l-1.47331e-08,-1.6033e-08c-0.245888,-0.267583 -0.541344,-0.48493 -0.87,-0.64l1.1673e-08,5.36517e-09c-0.357281,-0.164215 -0.746837,-0.246227 -1.14,-0.24l-1.04971e-07,-2.12884e-09c-0.407493,-0.00826405 -0.812396,0.0665921 -1.19,0.22l8.96478e-08,-3.72166e-08c-0.342566,0.142214 -0.652292,0.353236 -0.91,0.62l-1.46976e-07,1.52496e-07c-0.259522,0.269269 -0.46641,0.584689 -0.61,0.93l-6.0399e-09,1.42551e-08c-0.154383,0.364369 -0.239177,0.754423 -0.25,1.15h5.79l4.8557e-08,6.61991e-07c-0.0278978,-0.38034 -0.112151,-0.754423 -0.25,-1.11l-2.72884e-08,-7.09782e-08c-0.131573,-0.342227 -0.324766,-0.657437 -0.570001,-0.930001Z" transform="translate(363.36, 455.112)"></path><path d="M424.745,0.895351l-5.96409e-08,-5.96944e-08c-0.8939,-0.894701 -2.34385,-0.895351 -3.23855,-0.00145115c-0.000483973,0.000483539 -0.000967728,0.000967295 -0.00145127,0.00145127l-60.83,60.83l-6.04863e-06,-5.93988e-06c-39.4554,-38.746 -92.561,-60.4286 -147.86,-60.37c-116.76,-8.98024e-09 -211.46,94.7 -211.46,211.47l-2.20688e-06,0.00176674c-0.0688305,55.2884 21.5957,108.389 60.3212,147.849l-60.7812,60.8287l-9.65917e-09,9.65917e-09c-0.894701,0.894701 -0.894701,2.3453 1.93183e-08,3.24c0.894701,0.894701 2.3453,0.894701 3.24,-1.93183e-08l60.83,-60.83l6.03454e-06,5.92203e-06c39.461,38.7253 92.5616,60.3893 147.85,60.32c116.76,0 211.42,-94.65 211.42,-211.42l2.22169e-06,-0.00177863c0.0688274,-55.2884 -21.5957,-108.389 -60.3212,-147.849l60.83,-60.83l-4.07675e-08,4.07318e-08c0.894692,-0.893909 0.895328,-2.34386 0.00141905,-3.23855c-6.0542e-05,-6.05951e-05 -0.000121087,-0.000121187 -0.000181636,-0.000181775Zm-175.1,78.3c0,-7.47333 1.5,-12.24 4.5,-14.3l-1.11338e-06,7.68515e-07c2.98705,-2.06183 6.54073,-3.14505 10.17,-3.1c6.19333,0 11.23,1.08 15.11,3.24v-14.3h18.87v103.21h-18.87v-2.88l4.57897e-07,-3.47451e-07c-3.16052,2.3982 -7.03304,3.66909 -11,3.61l4.37006e-08,-1.47969e-09c-4.71086,0.159506 -9.36439,-1.0717 -13.38,-3.54c-3.61333,-2.36 -5.42,-7.22667 -5.42,-14.6Zm-0.87,142.81l-3.68558e-07,-3.23125e-05c-0.0421263,-3.6937 1.31552,-7.26642 3.80002,-9.99999c2.53333,-2.84667 8.00333,-6.41 16.41,-10.69c5.84667,-2.46 9.04333,-4.42667 9.59,-5.9v-14.3c0,-3.73333 -1.82,-5.6 -5.46,-5.6c-3.64,0 -5.46,1.86667 -5.46,5.6v15.74h-18.89v-15.78c0,-11.6 8.11,-17.4 24.33,-17.4c16.22,0 24.33,5.8 24.33,17.4v85.82h-18.87v-3.32c-1.47333,3 -5.92333,4.5 -13.35,4.5c-10.96,0 -16.44,-4.33333 -16.44,-13Zm-20.51,-189.08l-6.81567e-07,6.87868e-07c1.81259,-1.82935 4.28476,-2.85281 6.86,-2.84l4.89476e-07,-8.39185e-09c2.41418,-0.0413898 4.73792,0.917787 6.42,2.65l6.01321e-08,5.98047e-08c1.75968,1.7501 2.71858,4.14915 2.65,6.63l3.1751e-07,1.34971e-05c0.0601434,2.55672 -0.938635,5.02471 -2.76001,6.82l3.86011e-07,-3.9917e-07c-1.74537,1.80487 -4.15953,2.80745 -6.67,2.77l2.79607e-07,-3.34961e-09c-2.52315,0.0302264 -4.9431,-1.00016 -6.67,-2.84l-2.59507e-08,-2.53661e-08c-1.7756,-1.73561 -2.77148,-4.11707 -2.76,-6.6l-7.58224e-08,0.000108826c0.00173479,-2.51197 1.0661,-4.90596 2.92993,-6.59005Zm-8.77,142.55c-3.64,0 -5.46,1.86667 -5.46,5.6c-0.2,6.78 0.66,11.2533 2.58,13.42c1.92,2.16667 6.92,8.38333 15,18.65c8.11333,10.2733 12.17,18.2733 12.17,24v12.31c0,12.0933 -8.11,18.14 -24.33,18.14c-16.22,0 -24.33,-6.04667 -24.33,-18.14v-17h18.88v17c0,3.73333 1.82,5.6 5.46,5.6c3.64,0 5.46,-1.86667 5.46,-5.6c0,-9.14 -3.71,-18.3333 -11.13,-27.58c-7.42,-9.24667 -12.3867,-15.1833 -14.9,-17.81c-2.50667,-2.62667 -3.76,-6.22667 -3.76,-10.8v-12.19c0,-11.6 8.11,-17.4 24.33,-17.4c16.22,0 24.33,5.8 24.33,17.4v16.88h-18.84v-16.88c0,-3.73333 -1.82,-5.6 -5.46,-5.6Zm6,-21.52v-103.23h18.65v103.22Zm-54.56,-44.9l-3.68558e-07,-3.23125e-05c-0.0421263,-3.6937 1.31552,-7.26642 3.80002,-9.99999c2.53333,-2.84667 8.00333,-6.41 16.41,-10.69c5.84667,-2.45333 9.04,-4.42 9.58,-5.9v-14.3c0,-3.73333 -1.82,-5.6 -5.46,-5.6c-3.64,0 -5.46,1.86667 -5.46,5.6v15.78h-18.9v-15.82c0,-11.6 8.11,-17.4 24.33,-17.4c16.22,0 24.33,5.8 24.33,17.4v85.82h-18.88v-3.32c-1.47333,3 -5.92,4.5 -13.34,4.5c-10.96,0 -16.44,-4.33333 -16.44,-13Zm-4.35,66.42c-3.64,0 -5.46,1.86667 -5.46,5.6v85.82h-18.9v-103.22h18.88v3.54c3.64,-2.36 8.68,-3.54 15.12,-3.54c3.78667,0 7.18,1.59667 10.18,4.79c3,3.19333 4.5,7.39667 4.5,12.61v85.82h-18.89v-85.82c0,-3.73333 -1.82,-5.6 -5.46,-5.6Zm-30.46,200.59h-18.88v-103.23h18.87Zm0.35,-109.16h-18.66v-103.23h18.65Zm0.07,-114.55l2.30695e-07,-2.59452e-05c-0.00365552,0.411173 -0.0303631,0.821818 -0.0799971,1.23v0.4h-0.05l2.11498e-07,-1.39555e-06c-0.697487,4.60232 -4.65513,8.00309 -9.31,8l2.79607e-07,-3.34958e-09c-2.52315,0.0302264 -4.9431,-1.00016 -6.67,-2.84l-4.72131e-08,-4.6593e-08c-1.4014,-1.383 -2.32606,-3.17628 -2.64,-5.12h-0.2v-103.3h18.87v3.54c3.64,-2.36 8.67667,-3.54 15.11,-3.54c3.78667,0 7.17667,1.59667 10.17,4.79c2.99333,3.19333 4.49333,7.39667 4.5,12.61v22.41h-18.89v-22.41c0,-3.73333 -1.82,-5.6 -5.46,-5.6c-3.64,0 -5.46,1.86667 -5.46,5.6v83l1.11988e-07,7.65006e-07c0.0596701,0.407617 0.0963946,0.818264 0.11,1.23Zm44,205.16c-1.67333,8.7 -3.92333,13.9733 -6.75,15.82c-2.82667,1.84667 -6.74667,2.76667 -11.76,2.76h-14.68v-11.5c5.50667,0 9.04667,-0.27 10.62,-0.81c1.57333,-0.54 2.36667,-2.15 2.38,-4.83c0,-2.66667 -6.90667,-31.3733 -20.72,-86.12h19.54l10.18,49.92l8.41,-49.92h19Zm18.8,1.18v-68.46c0,-11.6 8.11,-17.4 24.33,-17.4c16.22,0 24.33,5.8 24.33,17.4v68.43c0,12.0933 -8.11,18.14 -24.33,18.14c-16.22,0 -24.3267,-6.04667 -24.32,-18.14Zm43.59,30.66l2.81176e-07,-8.1185e-07c-0.32219,0.930271 -0.821367,1.7894 -1.47,2.53l-9.81954e-08,1.10419e-07c-0.649318,0.730143 -1.44712,1.31315 -2.34,1.71l-5.4998e-07,2.30323e-07c-1.99922,0.837241 -4.25078,0.837241 -6.25,-4.60646e-07l-1.36073e-07,-6.0427e-08c-0.893035,-0.396579 -1.69089,-0.979627 -2.34,-1.71l-3.08597e-07,-3.51621e-07c-0.649459,-0.740006 -1.14874,-1.5993 -1.47,-2.53l-3.1013e-08,-9.05478e-08c-0.682667,-1.99317 -0.682667,-4.15683 6.20259e-08,-6.15l1.17825e-07,-3.4105e-07c0.321497,-0.930589 0.820748,-1.78985 1.47,-2.53l-3.3237e-07,3.7291e-07c0.651184,-0.73061 1.44834,-1.31655 2.34,-1.72l-3.72607e-07,1.58112e-07c1.99715,-0.847468 4.25285,-0.847468 6.25,-6.76136e-07l6.15774e-08,2.78618e-08c0.891662,0.403448 1.68882,0.98939 2.34,1.72l9.73354e-08,1.11194e-07c0.648427,0.740748 1.14758,1.59983 1.47,2.53l2.20399e-07,6.43492e-07c0.682667,1.99317 0.682667,4.15683 -4.40797e-07,6.15Zm9.24,-4.38l-0.53,-0.08l3.07826e-07,1.78018e-08c-0.176518,-0.0102081 -0.353478,-0.0102082 -0.529995,-3.07818e-07l1.09476e-07,1.05763e-09c-0.409071,-0.00395198 -0.814437,0.0778024 -1.19,0.24l1.11038e-07,-4.64729e-08c-0.383849,0.160653 -0.725895,0.406925 -1,0.72l2.97202e-07,-3.55699e-07c-0.290617,0.347817 -0.511325,0.748487 -0.65,1.18l-3.32954e-08,1.03377e-07c-0.168492,0.523139 -0.249579,1.07048 -0.24,1.62v5.24h-2.48v-11h2.33v2.13v0l-5.50835e-09,2.17573e-08c0.0798444,-0.315375 0.222714,-0.61132 0.42,-0.87l-2.32062e-07,3.12844e-07c0.217247,-0.292872 0.472868,-0.55522 0.76,-0.78l-2.19403e-07,1.69833e-07c0.303773,-0.235141 0.640783,-0.423866 1,-0.56l2.23424e-07,-8.83049e-08c0.353363,-0.139661 0.730039,-0.210924 1.11,-0.21l-3.38092e-07,1.88119e-08c0.199845,-0.0111197 0.400155,-0.0111197 0.6,-3.76239e-08h0.34Zm11.7,8.92l-0.34,0.1l-0.42,0.1l-0.44,0.06h-0.37l4.23717e-08,-1.47895e-09c-0.439357,0.0153356 -0.874695,-0.0883164 -1.26,-0.3l1.04485e-07,6.84107e-08c-0.347333,-0.227413 -0.58318,-0.590254 -0.65,-1l-2.45515e-08,2.24221e-08c-0.518417,0.473455 -1.14238,0.816292 -1.82,1l2.46652e-07,-7.54607e-08c-0.674301,0.206295 -1.37487,0.314076 -2.08,0.32l2.33108e-07,-1.34281e-09c-0.493684,0.0028439 -0.985267,-0.0644962 -1.46,-0.2l-2.63451e-07,-7.47759e-08c-0.442311,-0.125542 -0.858788,-0.328702 -1.23,-0.6l-2.93604e-07,-2.16976e-07c-0.356521,-0.263472 -0.647406,-0.60569 -0.85,-1l-3.02189e-07,-6.0003e-07c-0.220024,-0.436883 -0.329881,-0.92094 -0.32,-1.41l-1.49689e-08,-3.44449e-07c-0.0250947,-0.577454 0.106192,-1.15097 0.38,-1.66l-1.63179e-07,2.79039e-07c0.241918,-0.413684 0.586315,-0.758082 0.999999,-1l1.49168e-08,-8.54084e-09c0.432134,-0.247425 0.901575,-0.423044 1.39,-0.52c0.513333,-0.106667 1.03333,-0.19 1.56,-0.25c0.526667,-0.06 0.953333,-0.12 1.28,-0.18l2.47221e-07,-1.89008e-08c0.364621,-0.0278763 0.726043,-0.0881131 1.08,-0.179999l5.83494e-08,-1.36829e-08c0.275913,-0.0647017 0.530668,-0.198964 0.74,-0.39l1.97798e-09,-2.20547e-09c0.195856,-0.218382 0.293466,-0.507597 0.27,-0.8l-2.08206e-08,4.89402e-07c0.0117069,-0.275179 -0.0692844,-0.546324 -0.23,-0.77l-4.75871e-08,-6.25877e-08c-0.149953,-0.197222 -0.345558,-0.355079 -0.57,-0.46l7.3208e-08,3.34672e-08c-0.23755,-0.108597 -0.490596,-0.17945 -0.75,-0.21l2.10864e-07,2.67501e-08c-0.258711,-0.03282 -0.519213,-0.0495189 -0.779997,-0.05l1.33931e-07,5.02848e-09c-0.602504,-0.0226212 -1.19902,0.126509 -1.72,0.43l-7.78325e-08,4.97387e-08c-0.453415,0.289754 -0.737058,0.782398 -0.76,1.32h-2.47l1.39437e-10,-8.69221e-09c0.0191301,-1.1926 0.660001,-2.28853 1.69,-2.89l-6.33196e-07,3.76319e-07c0.493527,-0.293311 1.0353,-0.496477 1.6,-0.6l-4.47182e-07,8.49384e-08c0.603228,-0.114578 1.21599,-0.171501 1.83,-0.17l-4.19097e-07,4.4389e-10c0.547788,-0.000580227 1.09412,0.0563992 1.63,0.17l3.52678e-07,7.00576e-08c0.510557,0.10142 1.00062,0.287304 1.45,0.55l-3.90916e-08,-2.42927e-08c0.405704,0.252116 0.747884,0.594296 1,1l4.34585e-08,7.11461e-08c0.271641,0.444705 0.407212,0.959179 0.39,1.48v5.57l1.65744e-09,-2.11647e-08c-0.0172432,0.220188 0.0241616,0.441014 0.12,0.64l1.16661e-08,1.48324e-08c0.111867,0.142227 0.290721,0.21453 0.47,0.19h0.26l-4.01837e-09,-4.20869e-10c0.116348,0.0121859 0.233652,0.0121859 0.35,8.41737e-10Zm11.37,0h-2.48v-6.92l1.1178e-07,-2.851e-06c0.0263815,-0.672879 -0.174389,-1.33507 -0.570002,-1.88l7.29985e-08,7.08952e-08c-0.433336,-0.42085 -1.02822,-0.632528 -1.63,-0.58l8.64873e-09,1.60753e-10c-0.38797,-0.00721186 -0.773073,0.0677641 -1.13,0.22l-5.44752e-08,2.38643e-08c-0.325048,0.142396 -0.615124,0.353981 -0.85,0.62l-2.01616e-07,2.32113e-07c-0.237187,0.273065 -0.420426,0.588643 -0.54,0.93l-2.25178e-07,6.09739e-07c-0.13358,0.361709 -0.201315,0.744414 -0.2,1.13v6.49h-2.49v-11h2.35v1.62v0l2.98186e-07,-4.90281e-07c0.363442,-0.597576 0.872693,-1.09306 1.48,-1.44l1.51206e-07,-8.5702e-08c0.609612,-0.345522 1.29929,-0.524839 2,-0.52l1.83579e-07,-1.02855e-08c1.05617,-0.0591748 2.0967,0.275792 2.92,0.94l-1.34124e-07,-1.29626e-07c0.756506,0.731131 1.14861,1.76087 1.07,2.81Zm13,-0.57l-2.22195e-08,-2.92147e-07c0.105626,1.38881 -0.419568,2.75137 -1.43,3.71l3.7397e-07,-2.81822e-07c-1.1785,0.888108 -2.63781,1.32129 -4.11,1.22l1.73963e-07,8.8562e-11c-0.574204,-0.000292308 -1.14698,-0.0572348 -1.71,-0.17l-3.04593e-07,-5.69188e-08c-0.550958,-0.102956 -1.08132,-0.295508 -1.57,-0.57l2.66241e-08,1.49969e-08c-0.468213,-0.263737 -0.874093,-0.625277 -1.19,-1.06l-2.76379e-07,-3.94713e-07c-0.334516,-0.477742 -0.531661,-1.03805 -0.57,-1.62h2.48l4.76397e-08,2.77657e-07c0.0992886,0.578682 0.471649,1.07392 1,1.33l-3.48401e-07,-1.6919e-07c0.251453,0.12211 0.522089,0.199918 0.8,0.23l1.74481e-07,1.99688e-08c0.302084,0.0345725 0.605947,0.0512683 0.91,0.05l4.08537e-08,3.67874e-09c0.801073,0.0721338 1.59657,-0.188212 2.2,-0.72l-5.21856e-08,6.01737e-08c0.500265,-0.576841 0.751922,-1.32822 0.7,-2.09v-1.68v0l-1.21745e-08,2.14231e-08c-0.332031,0.584262 -0.81574,1.06797 -1.4,1.4l1.34264e-07,-7.63733e-08c-0.594082,0.337931 -1.26654,0.513804 -1.95,0.51l-2.7058e-07,7.6671e-09c-0.791576,0.02243 -1.57794,-0.134843 -2.3,-0.46l3.13518e-07,1.48457e-07c-0.614854,-0.291145 -1.15265,-0.722755 -1.57,-1.26l2.22114e-07,2.89565e-07c-0.419713,-0.547171 -0.725717,-1.17278 -0.9,-1.84l-4.50628e-07,-1.71417e-06c-0.192159,-0.730965 -0.286316,-1.48423 -0.28,-2.24l-1.37374e-07,-2.84059e-05c-0.00347104,-0.718064 0.114877,-1.43151 0.350009,-2.11l-1.98224e-07,5.86344e-07c0.218073,-0.645058 0.557503,-1.24246 0.999999,-1.76l-2.58906e-07,2.96733e-07c0.443159,-0.507907 0.988325,-0.916781 1.6,-1.2l-1.04613e-07,4.76978e-08c0.674451,-0.307514 1.40884,-0.461223 2.15,-0.45l8.49651e-08,-1.46389e-09c0.691918,-0.0119216 1.37697,0.13879 2,0.44l-7.9865e-09,-3.92305e-09c0.59562,0.292576 1.07742,0.77438 1.37,1.37v0v-1.51h2.48Zm12.72,-4.3h-8.28l1.76524e-08,-2.38906e-06c-0.00310388,0.420061 0.0575875,0.838159 0.179999,1.24l-1.42375e-07,-4.32109e-07c0.120667,0.366224 0.310802,0.705753 0.56,1l-6.75404e-08,-8.00862e-08c0.256332,0.303946 0.577541,0.546561 0.94,0.71l1.70556e-07,7.58416e-08c0.424486,0.188758 0.885567,0.280974 1.35,0.27l-1.45341e-07,-7.17131e-09c0.616774,0.0304324 1.22791,-0.13021 1.75,-0.46l-3.81851e-08,2.73749e-08c0.471338,-0.337902 0.821845,-0.818096 1,-1.37h2.35l9.80638e-08,-4.62843e-07c-0.121241,0.572234 -0.352159,1.11557 -0.679999,1.6l-2.65618e-08,3.93606e-08c-0.309699,0.458927 -0.699198,0.858588 -1.15,1.18l-1.70362e-07,1.19835e-07c-0.459328,0.323096 -0.969804,0.566502 -1.51,0.72l2.46026e-07,-7.0295e-08c-0.569002,0.162576 -1.15824,0.243386 -1.75,0.24l-3.41545e-07,5.50546e-09c-0.804018,0.0129602 -1.60267,-0.133175 -2.35,-0.43l3.29291e-07,1.33181e-07c-0.656645,-0.265579 -1.24715,-0.671763 -1.73,-1.19l-4.48765e-07,-4.88823e-07c-0.483365,-0.526511 -0.848231,-1.15053 -1.07,-1.83l2.67792e-08,8.1973e-08c-0.246702,-0.755173 -0.368306,-1.54559 -0.36,-2.34l-6.84191e-08,-1.32973e-05c-0.00389172,-0.756508 0.124719,-1.50786 0.380005,-2.22l-5.26596e-08,1.48439e-07c0.241511,-0.680778 0.611549,-1.30882 1.09,-1.85l-5.66947e-07,6.39001e-07c0.476262,-0.53679 1.05847,-0.969194 1.71,-1.27l-2.66734e-07,1.20876e-07c0.712508,-0.322888 1.48786,-0.483423 2.27,-0.47l-1.90365e-07,3.06562e-09c0.82514,-0.013288 1.64139,0.171912 2.38,0.54l-2.30011e-09,-1.16626e-09c0.681929,0.345776 1.2794,0.837406 1.75,1.44l2.84723e-08,3.72362e-08c0.46642,0.609986 0.806395,1.30693 1,2.05l-9.50666e-08,-3.38382e-07c0.216388,0.770216 0.280919,1.57516 0.189998,2.37002Zm0.74,-12.89h-18.85v-85.9c0,-3.73333 -1.82,-5.6 -5.46,-5.6c-3.64,0 -5.46,1.86667 -5.46,5.6v85.83h-18.87v-103.23h18.88v3.52c3.64,-2.36 8.67667,-3.54 15.11,-3.54c3.78667,0 7.18,1.59667 10.18,4.79c3,3.19333 4.5,7.39667 4.5,12.61Z" transform="translate(70.6453, 70.6446)"></path><path d="M5.28223,1.12628l1.89807e-08,2.69399e-08c-0.24186,-0.343279 -0.564752,-0.621517 -0.94,-0.81l-3.94264e-08,-1.9126e-08c-0.429574,-0.208389 -0.902681,-0.311238 -1.38,-0.3l3.16705e-08,1.06121e-09c-0.485745,-0.0162761 -0.966612,0.101346 -1.39,0.34l-1.19351e-07,6.98636e-08c-0.371279,0.217333 -0.686389,0.518742 -0.92,0.88l7.76319e-08,-1.22712e-07c-0.238501,0.376996 -0.407821,0.793523 -0.5,1.23l-1.28251e-07,5.79069e-07c-0.0996339,0.449859 -0.149931,0.909239 -0.15,1.37l6.86047e-08,-1.38141e-05c-0.00222993,0.44889 0.0549314,0.896103 0.169996,1.33l-2.07989e-07,-8.06202e-07c0.107024,0.414844 0.286444,0.807537 0.529999,1.16l-9.50494e-08,-1.35423e-07c0.238719,0.34012 0.54941,0.623497 0.91,0.83l5.18277e-08,2.81373e-08c0.410644,0.222938 0.872933,0.333335 1.34,0.32l6.58205e-08,1.98747e-09c0.487536,0.0147214 0.970364,-0.099088 1.4,-0.33l1.64732e-09,-9.21261e-10c0.377891,-0.211354 0.700092,-0.509561 0.94,-0.87l3.06473e-08,-4.7029e-08c0.244956,-0.375891 0.421037,-0.792389 0.52,-1.23l1.08101e-07,-4.58653e-07c0.107359,-0.455508 0.161058,-0.922012 0.16,-1.39l1.00259e-07,-2.45279e-05c0.00187411,-0.458747 -0.0552634,-0.91583 -0.170006,-1.36l1.49407e-07,6.08027e-07c-0.102643,-0.417715 -0.27871,-0.813863 -0.519989,-1.16996Z" transform="translate(350.438, 455.064)"></path><path d="M2.02895,0.62l-5.92137e-07,9.52545e-08c-0.257379,0.0414034 -0.511388,0.101563 -0.759996,0.179999l1.40915e-07,-4.38017e-08c-0.232026,0.0721225 -0.451344,0.180094 -0.65,0.32l-4.74521e-08,3.37142e-08c-0.191888,0.136335 -0.346591,0.318541 -0.45,0.53l-9.63287e-08,2.11543e-07c-0.114203,0.250795 -0.168958,0.524572 -0.16,0.8l-3.1628e-08,1.06929e-06c-0.00735386,0.248627 0.0782146,0.49107 0.240001,0.68l8.27241e-08,9.65248e-08c0.159724,0.186371 0.357487,0.336397 0.58,0.44l-6.22796e-08,-2.87463e-08c0.234855,0.108401 0.484069,0.182492 0.74,0.22l-1.76711e-07,-2.85493e-08c0.241396,0.0389996 0.485472,0.0590608 0.729996,0.06l-1.67684e-07,2.51157e-09c0.299763,-0.00448987 0.598163,-0.0413707 0.889999,-0.11l1.5289e-07,-3.39068e-08c0.317531,-0.0704197 0.621498,-0.192006 0.9,-0.36l9.20277e-08,-5.46559e-08c0.27881,-0.165587 0.520503,-0.386856 0.71,-0.65l-1.29882e-08,1.90142e-08c0.200537,-0.293578 0.298927,-0.644973 0.28,-1v-1.73l1.42886e-07,-8.80019e-08c-0.420102,0.258736 -0.897534,0.409866 -1.39,0.44c-0.553333,0.02 -1.10667,0.08 -1.66,0.18Z" transform="translate(325.761, 459)"></path></g></g></svg>