<?xml version="1.0" encoding="utf-8"?>
<!-- Generator: Adobe Illustrator 23.0.6, SVG Export Plug-In . SVG Version: 6.00 Build 0)  -->
<svg version="1.1" xmlns="http://www.w3.org/2000/svg" xmlns:xlink="http://www.w3.org/1999/xlink" x="0px" y="0px"
	 viewBox="0 0 375 375" style="enable-background:new 0 0 375 375;" xml:space="preserve">
<style type="text/css">
	.st0{font-family:'RobotoCondensed-Bold';}
	.st1{font-size:19.935px;}
	.st2{font-size:19.6275px;}
</style>
<g id="Calque_1">
	<g>
		<g>
			<polygon points="183.27,371.62 182.2,370.98 25.07,280.1 27.2,276.47 183.27,366.72 338.48,277.11 338.48,236.36 342.75,236.36 
				342.75,279.46 			"/>
			<polygon points="28.27,136.51 24,136.51 24,95.33 183.27,3.37 341.68,94.9 339.55,98.53 183.27,8.28 28.27,97.89 			"/>
		</g>
		<g>
			<text transform="matrix(1 0 0 1 68.5313 275.625)" class="st0 st1">S</text>
			<text transform="matrix(1 0 0 1 80.8828 275.625)" class="st0 st1">C</text>
			<text transform="matrix(1 0 0 1 93.8438 275.625)" class="st0 st1">I</text>
			<text transform="matrix(1 0 0 1 100.8281 275.625)" class="st0 st1">E</text>
			<text transform="matrix(1 0 0 1 112.1953 275.625)" class="st0 st1">N</text>
			<text transform="matrix(1 0 0 1 125.9883 275.625)" class="st0 st1">C</text>
			<text transform="matrix(1 0 0 1 138.9492 275.625)" class="st0 st1">E</text>
			<text transform="matrix(1 0 0 1 156.5039 275.625)" class="st0 st1">&amp;</text>
			<text transform="matrix(1 0 0 1 175.8281 275.625)" class="st0 st1">T</text>
			<text transform="matrix(1 0 0 1 188.2383 275.625)" class="st0 st1">E</text>
			<text transform="matrix(1 0 0 1 199.6055 275.625)" class="st0 st1">C</text>
			<text transform="matrix(1 0 0 1 212.5664 275.625)" class="st0 st1">H</text>
			<text transform="matrix(1 0 0 1 226.3945 275.625)" class="st0 st1">N</text>
			<text transform="matrix(1 0 0 1 240.1875 275.625)" class="st0 st1">O</text>
			<text transform="matrix(1 0 0 1 253.8047 275.625)" class="st0 st1">L</text>
			<text transform="matrix(1 0 0 1 264.9375 275.625)" class="st0 st1">O</text>
			<text transform="matrix(1 0 0 1 278.5547 275.625)" class="st0 st1">G</text>
			<text transform="matrix(1 0 0 1 291.8086 275.625)" class="st0 st1">Y</text>
			<text transform="matrix(1 0 0 1 135.5273 303.375)" class="st0 st1">I</text>
			<text transform="matrix(1 0 0 1 142.5117 303.375)" class="st0 st1">N</text>
			<text transform="matrix(1 0 0 1 156.3047 303.375)" class="st0 st1">S</text>
			<text transform="matrix(1 0 0 1 168.6563 303.375)" class="st0 st1">T</text>
			<text transform="matrix(1 0 0 1 181.0664 303.375)" class="st0 st1">I</text>
			<text transform="matrix(1 0 0 1 188.0508 303.375)" class="st0 st1">T</text>
			<text transform="matrix(1 0 0 1 200.4609 303.375)" class="st0 st1">U</text>
			<text transform="matrix(1 0 0 1 213.4336 303.375)" class="st0 st1">T</text>
			<text transform="matrix(1 0 0 1 225.8438 303.375)" class="st0 st1">E</text>
			<text transform="matrix(1 0 0 1 124.9922 99.375)" class="st0 st2">S</text>
			<text transform="matrix(1 0 0 1 138.5273 99.375)" class="st0 st2">I</text>
			<text transform="matrix(1 0 0 1 146.7773 99.375)" class="st0 st2">N</text>
			<text transform="matrix(1 0 0 1 161.7305 99.375)" class="st0 st2">C</text>
			<text transform="matrix(1 0 0 1 175.8516 99.375)" class="st0 st2">E</text>
			<text transform="matrix(1 0 0 1 195.8789 99.375)" class="st0 st2">1</text>
			<text transform="matrix(1 0 0 1 208.7461 99.375)" class="st0 st2">9</text>
			<text transform="matrix(1 0 0 1 221.6133 99.375)" class="st0 st2">5</text>
			<text transform="matrix(1 0 0 1 234.4805 99.375)" class="st0 st2">7</text>
		</g>
		<g>
			<title>IN</title>
			<rect x="69.09" y="131.45" width="23.69" height="90.54"/>
			<polygon points="125.77,131.45 141.06,187.24 141.32,187.24 141.32,131.45 163.48,131.45 163.48,221.98 137.49,221.98 
				121.7,166.07 121.45,166.07 121.45,221.98 99.28,221.98 99.28,131.45 			"/>
			<path d="M206.28,155.41c0-2.7-0.56-5.01-1.66-6.91c-1.1-1.9-2.81-2.86-5.09-2.86c-2.55,0-4.42,0.82-5.6,2.47
				c-1.18,1.6-1.8,3.53-1.79,5.52c0,2.95,0.95,5.3,2.86,7.03s4.31,3.23,7.19,4.5c2.89,1.27,5.99,2.56,9.3,3.87
				c3.31,1.31,6.43,3.04,9.3,5.14c2.89,2.11,5.28,4.88,7.19,8.3c1.91,3.42,2.87,7.88,2.87,13.38c0,9.64-2.76,16.63-8.28,20.98
				c-5.52,4.36-13.51,6.54-23.95,6.53c-4.92,0-9.28-0.4-13.06-1.2c-3.77-0.8-6.96-2.2-9.55-4.19c-2.59-1.99-4.57-4.58-5.92-7.8
				c-1.35-3.23-2.03-7.18-2.03-11.92v-3.18h22.92v2.16c0,3.89,0.72,6.62,2.16,8.18c1.45,1.57,3.31,2.35,5.61,2.35
				c2.47,0,4.34-0.85,5.67-2.54c1.31-1.69,1.97-3.75,1.97-6.22c0-2.95-0.92-5.3-2.75-7.03c-1.82-1.73-4.12-3.22-6.87-4.44
				s-5.75-2.47-8.98-3.74c-3.2-1.25-6.22-2.91-8.99-4.94c-2.76-2.03-5.05-4.7-6.88-8c-1.83-3.29-2.74-7.61-2.74-12.93
				c0-9.21,2.46-16.23,7.39-21.05c4.93-4.82,12.4-7.23,22.41-7.22c10.36,0,17.85,2.22,22.48,6.66c4.63,4.44,6.94,11.52,6.94,21.24
				h-22.16V155.41z"/>
			<path d="M280.16,131.45l22.16,90.54H277.1l-2.43-15.85h-18.85l-2.42,15.84h-24.84l21.79-90.54L280.16,131.45z M265.13,149.96
				l-6.5,38.42h13.25l-6.51-38.42H265.13z"/>
			<polygon points="286.28,131.41 302.33,131.41 302.33,199.39 			"/>
		</g>
	</g>
</g>
<g id="Calque_2">
</g>
</svg>
