<?xml version="1.0" encoding="UTF-8"?><svg width="567" height="567" version="1.1" viewBox="0 0 567 567" xmlns="http://www.w3.org/2000/svg" xmlns:xlink="http://www.w3.org/1999/xlink"><!--Generated by IJSVG (https://github.com/curthard89/IJSVG)--><g transform="scale(1.00012)"><g fill="#FFFFFF"><path d="M0.0800611,170.585l8.91,-1.74c14,-2.76 28,-5.64 42.07,-8.21c5.69,-1 11.51,-1.42 17.59,-2.13v-2.53c0,-31.6867 0,-63.37 0,-95.05l1.21184e-08,2.88008e-07c-0.0617932,-1.46858 0.451167,-2.90344 1.43,-4l-4.0577e-06,4.58494e-06c7.52419,-8.50186 16.1231,-15.9881 25.58,-22.27c22,-15.07 46.2,-24.7 72.27,-29.89l-1.20545e-05,2.37279e-06c17.1174,-3.36937 34.5646,-4.76515 51.9999,-4.16c34.15,1.09 66.53,8.94 96.44,25.86l5.82988e-06,3.21855e-06c12.8616,7.10062 24.6466,15.9966 35,26.42c5.12,5.24 5.09,5.26 5.09,12.57c0,39.6933 0,79.3867 0,119.08c0,0.91 0,1.82 0,3.11l-19.42,-2.66c-0.06,-1.11 -0.16,-2.15 -0.16,-3.18c0,-37.4933 0,-74.99 0,-112.49l1.68452e-07,-3.77471e-06c0.0970699,-2.17518 -0.836758,-4.26888 -2.52,-5.65l-9.04429e-06,-8.14074e-06c-13.4562,-12.1118 -28.8854,-21.8321 -45.62,-28.74l2.67286e-06,1.12365e-06c-15.2813,-6.42415 -31.3542,-10.7728 -47.79,-12.93l1.26832e-05,1.72671e-06c-13.6301,-1.85561 -27.4086,-2.37808 -41.14,-1.56c-29.55,1.78 -57.48,9.26 -83.21,24.19l-9.30383e-06,5.3612e-06c-9.52534,5.48884 -18.4043,12.0298 -26.47,19.5l4.69511e-07,-3.98856e-07c-1.34301,1.14091 -2.08161,2.83969 -2,4.6c0.0466667,37.64 0.0466667,75.2767 0,112.91v3.09l-19.52,2.93v-27.86l-0.42,-0.13c-0.34,0.4 -0.7,0.79 -1,1.21c-6.13,8.33 -12.23,16.69 -18.4,25l7.10821e-08,-9.08802e-08c-0.74083,0.947169 -1.01625,2.17737 -0.75,3.35c1.63333,9.41333 3.25667,18.8267 4.87,28.24c2.2,12.8333 4.39667,25.6667 6.59,38.5c0.67,3.9 1.33,7.81 2.06,12.11l-36.67,5.32c0,-1.77 -0.08,-3.43 0,-5.08c0.49,-8.2 1,-16.4 1.55,-24.61c0.53,-8.56 1,-17.12 1.61,-25.67l1.78298e-07,-1.75416e-06c0.192107,-1.89002 -0.277997,-3.78811 -1.33,-5.37c-8.47,-13.17 -16.84,-26.39 -25.25,-39.59c-0.45,-0.71 -1,-1.38 -1.47,-2.06c0.053374,-0.146666 0.0800611,-0.289998 0.0800611,-0.429998Z" transform="translate(70.7899, 115.675)"></path><path d="M15.68,104.616l-15.68,-89.68l4.06178e-07,-1.59489e-07c0.516957,-0.202987 1.04846,-0.366782 1.59,-0.489999c15.19,-2.26 30.35,-4.74 45.57,-6.7c13.9,-1.78 27.86,-3.11 41.82,-4.43l-5.51152e-06,5.36462e-07c24.2577,-2.36111 48.6316,-3.31604 72.9997,-2.86001c11.68,0.25 23.36,0.9 35,1.54c8.48667,0.466667 16.9633,1.08333 25.43,1.85c10.72,0.966667 21.4267,2.05 32.12,3.25c11.0467,1.22667 22.08,2.56 33.1,4c8.07,1 16.12,2.27 24.17,3.43l4.43448e-07,1.04235e-07c0.44801,0.105307 0.888894,0.238909 1.32,0.4l-16.58,89.27c-2.75,-0.26 -5.41,-0.49 -8.05,-0.75c-8,-0.79 -15.92,-1.62 -23.88,-2.39c-6.98,-0.666667 -13.96,-1.31 -20.94,-1.93c-7.69,-0.66 -15.38,-1.31 -23.08,-1.87c-9.89,-0.71 -19.78,-1.41 -29.68,-2c-17.2,-1 -34.41,-1.56 -51.63,-0.74c-9.34,0.44 -18.68,0.86 -28,1.44c-8.48,0.54 -17,1.27 -25.42,2c-7.13,0.58 -14.26,1.18 -21.38,1.85c-7.89,0.74 -15.78,1.55 -23.67,2.37c-8.17,0.85 -16.33,1.76 -24.49,2.63l-5.73359e-08,-1.00439e-08c-0.219822,-0.0385078 -0.434465,-0.102261 -0.639667,-0.189995Zm89.6,-46.82l-2,-0.35l-1.38,-17.21l1.89,-0.59l-0.63,-7.16l-12.75,1.06l0.59,7l2,0.5l0.46,6l-4.74053e-07,-2.64455e-07c-0.691895,-0.385979 -1.27894,-0.935258 -1.71,-1.6c-2.4,-3.33 -4.78,-6.68 -7.21,-10c-0.39,-0.53 -1,-1.25 -1.54,-1.24c-3.29,0.12 -6.57,0.42 -10,0.67l0.59,7.06l2,0.38l1.39,17.07l-1.88,0.86l0.65,7l12.67,-1.01l-0.6,-7l-1.94,-0.49l-0.48,-5.82l3.03251e-07,1.76463e-07c0.619662,0.360584 1.1469,0.860435 1.54,1.46c2.41,3.33 4.79,6.67 7.23,10c0.39,0.52 1,1.25 1.54,1.23c3.31,-0.13 6.61,-0.44 10.12,-0.7Zm30.66,-26.75v7l1.73,0.64v17l-1.59,0.67v6.75h23.53v-8.51l-6.83553e-08,-4.33499e-09c-0.998989,-0.0633542 -2.00099,-0.0633546 -2.99998,-1.39545e-06c-1.59,0.22 -3.54,-0.88 -4.67,1.2c-0.06,0.11 -0.4,0.1 -0.61,0.1h-4.44v-5.08c2.74,2.1 5.54,1 8.21,1.06v-9.64c-2.83,0.35 -5.63,-0.86 -8.26,1.23v-5.23c2.09,0.5 4.33,-1 6,1.23c0.09,0.12 0.4,0.09 0.61,0.09h6v-8.5Zm95.47,3.69l-1.1,11.7c1.64,2.07 3.27,4.15 5,6.18c0.16,0.19 0.68,0.08 1,0.12c2.39,0.26 4.78,0.53 7.18,0.77l-9.55201e-08,4.51763e-09c0.910252,-0.0430503 1.68306,0.659956 1.72611,1.57021c0.00682119,0.144227 -0.00531821,0.288725 -0.0361071,0.429792l1.33821e-07,-3.53818e-06c-0.0507808,1.34263 -0.201194,2.67964 -0.449997,3.99999c-0.13,0.58 -0.8,1.47 -1.21,1.47l3.75633e-07,-1.31037e-08c-1.60859,0.056115 -3.21416,-0.177607 -4.74,-0.69c-0.53,-0.21 -0.47,-1.87 -0.7,-2.86c0,-0.12 -0.15,-0.23 -0.33,-0.5l-8.28,-0.73c-0.66,3.28 -1.25,6.24 1.65,8.56c0.59,0.48 0.92,1.29 1.51,1.77l9.17491e-08,8.2323e-08c0.601254,0.539481 1.3314,0.914889 2.12,1.09c2.8,0.38 5.7,0.29 8.43,1c3.5,0.85 5.94,-0.42 8.34,-2.69c1.19,-1.12 2.13,-2.11 2.07,-3.89l-4.80828e-07,-9.061e-06c-0.0826619,-1.55774 0.0724515,-3.11898 0.460003,-4.63c1.08,-3.78 -0.17,-6.69 -2.85,-9.3l3.27998e-07,3.814e-07c-0.731578,-0.85069 -1.77116,-1.37588 -2.89,-1.46c-2.33,-0.13 -4.66,-0.35 -7,-0.69c-1.78,-0.26 -2.08,-1 -1.34,-2.86l15.31,1.36002l0.7,-7.31Zm-199.74,26.5c-0.41,4.28 0.75,7.43 4.47,9.26c0.25,0.12 0.43,0.41 0.68,0.5l6.03696e-07,2.92636e-07c0.85184,0.412922 1.77543,0.657401 2.72,0.72c3.73,-0.4 7.43,-1 11.15,-1.48l-1.55193e-07,5.97311e-09c0.993618,-0.0382424 1.90373,-0.566331 2.43,-1.41l2.1273e-07,-3.51188e-07c0.366918,-0.60573 0.799534,-1.16914 1.29,-1.68l1.90973e-07,-1.65983e-07c1.86253,-1.6188 2.56187,-4.20281 1.77,-6.54l2.62828e-07,1.22255e-06c-0.29726,-1.38271 -0.481204,-2.78737 -0.55,-4.2c-0.21,-1.71 -5.13,-6 -6.85,-5.94l-1.18394e-07,-6.82303e-09c-0.139884,-0.00806147 -0.280116,-0.00806146 -0.42,1.3646e-08l-6.94,1c-1.75,0.24 -2.24,-0.11 -2.61,-1.89c-0.49,-2.41 -0.08,-3 2.38,-3.33c0.42,-0.06 0.83,-0.16 1.25,-0.23c2.14,-0.33 2.51,0 2.94,2.18c0.09,0.48 0.27,0.94 0.48,1.66l8.45,-1.13c0.16,-5.39 -0.12,-6 -4,-9l-1.17946e-07,-8.10998e-08c-0.117317,-0.080667 -0.227699,-0.17098 -0.33,-0.27c-1.35,-1.46 -3,-1.58 -4.85,-1.27c-2.72,0.46 -5.45,0.9 -8.2,1.11l7.09893e-08,-4.43293e-09c-2.02989,0.126758 -3.89849,1.14899 -5.1,2.79c-2.05,2.44 -2.27,4.84 -2.09,7.92c0.24,4.1 2.06,6.63 5.33,8.63l-1.15342e-07,-8.23885e-08c0.91206,0.651481 2.04121,0.923911 3.15,0.76c2.24,-0.36 4.49,-0.61 6.73,-0.92l-4.26373e-08,1.1769e-08c0.860921,-0.237637 1.75275,0.261789 2,1.12c0.56,1.65 0.38,3.39 -0.62,3.64l-2.77694e-07,8.43729e-08c-1.53392,0.466056 -3.14651,0.615748 -4.74,0.44c-1.4,-0.24 -1.05,-2 -1.35,-3.08c0,-0.12 -0.17,-0.21 -0.4,-0.46Zm91.71,-17.66h8.7c0.65,-6.55 0.57,-6.75 -3.94,-10.78c-0.21,-0.19 -0.39,-0.46 -0.64,-0.55l6.70772e-07,3.57212e-07c-0.7734,-0.411865 -1.61259,-0.685957 -2.48,-0.81c-2.33,0 -4.67,0.21 -7,0.28c-5.75,0.18 -5.72,0.19 -9.53,4.44l-1.69022e-07,1.7388e-07c-0.776088,0.798396 -1.17603,1.88916 -1.1,3c0.33,6.37 0.58,12.74 0.89,19.1c0.08,1.74 4.93,6.13 6.68,6.07c2.40667,-0.0733333 4.81333,-0.166667 7.22,-0.28c6,-0.27 6,-0.27 10,-4.81l-1.07916e-07,1.07462e-07c0.201482,-0.200634 0.385482,-0.418089 0.55,-0.65l-3.13592e-08,4.2791e-08c0.165163,-0.225371 0.265456,-0.491668 0.29,-0.77c-0.1,-2.16 -0.24,-4.32 -0.37,-6.59l-8.83,0.51c0,0.79 0,1.42 0,2c0.14,2.43 -0.24,2.87 -2.66,2.94h-1.27c-2.34,0 -2.67,-0.25 -2.81,-2.66c-0.2,-3.46 -0.32,-6.93 -0.49,-10.4c-0.26,-5.06 -0.08,-4.59 4.74,-4.68l-7.86092e-08,1.27894e-08c0.88309,-0.143675 1.71545,0.45574 1.85912,1.33883c0.0237327,0.145872 0.0273927,0.294306 0.0108782,0.44117c0.00999933,1.08 0.0799993,2.05 0.179999,2.87Zm78,10.9l-5.01903e-08,2.95737e-07c-0.187534,1.10501 -0.307756,2.22039 -0.359999,3.33999l-2.8343e-08,2.98578e-07c-0.0844113,0.889229 0.0965373,1.78353 0.52,2.57l5.47225e-07,6.5623e-07c1.44058,1.72753 2.97277,3.37656 4.58998,4.93998c0.19,0.19 0.68,0.09 1,0.11l-1.06648e-06,-5.49261e-09c2.5505,0.0131356 5.09687,0.206953 7.61998,0.579997l-5.15911e-07,-1.34181e-07c3.34387,0.869691 6.88877,-0.276842 9.09,-2.94l-1.87227e-07,1.65313e-07c1.09841,-0.96985 1.77625,-2.32912 1.89,-3.79c0.24,-4.74 0.24,-9.54 1.05,-14.19l-7.63647e-08,3.32405e-07c0.853824,-3.71657 -0.480434,-7.59523 -3.44,-10l8.87388e-08,9.48597e-08c-0.717895,-0.767414 -1.70133,-1.23231 -2.75,-1.3c-3.18,-0.17 -6.37,-0.33 -9.53,-0.71l4.91821e-07,6.50733e-08c-1.7978,-0.237869 -3.61269,0.292077 -5,1.46c-2.83,2.09 -3.79,4.57 -4,8l3.38874e-07,-2.89579e-06c-0.33436,2.85722 0.673804,5.70815 2.73,7.72l4.36614e-07,5.42244e-07c1.19492,1.48401 2.99473,2.35086 4.9,2.36c2.45,0 4.9,0.33 7.31,0.51l-1.13101e-07,-7.08792e-07c0.0459404,0.287904 0.0726662,0.578546 0.0800001,0.87c-0.38,5.36 -0.35,4.51 -5.13,4.35l8.02148e-08,-2.92397e-09c-0.982414,0.0358104 -1.80785,-0.731564 -1.84366,-1.71398c-0.0023824,-0.0653582 -0.00116086,-0.130798 0.00365907,-0.196022c0,-0.41 0,-0.82 -0.07,-1.42Zm65.07,-8.68l7.18,0.92l-12.17,23.73l9.27,1.1c0.42,-0.76 0.77,-1.37 1.09,-2c3.65333,-7.10667 7.32,-14.2133 11,-21.32c1.24,-2.41 1.17,-5 1.38,-7.75l-24.43,-2.92l-1,9.19l7,0.85Zm-71.09,18.88v-7.27l-2.87,-0.38l1.1,-24.83l6.51873e-07,1.48397e-08c-0.546134,-0.0124325 -1.09076,-0.0625511 -1.62999,-0.149998c-3.85,-1 -6.58,0.61 -9.37,3.22c-2.32,2.17 -2.66,4.42 -2.34,7.32l3.86,0.49l-0.64,13.65h-4.08v7.16Zm-123.28,-3.92l-2,-0.41l-1.8,-17.11l1.87,-0.67l-0.86,-7.13l-12.67,1.45l0.75,7.1l2,0.32l1.85,17l-1.88,0.88l0.85,6.93l12.67,-1.38Z" transform="translate(126.72, 292.764)"></path><path d="M68.49,12.16c-0.53,0.86 -0.92,1.52 -1.33,2.16c-8.48667,13.3867 -17.0067,26.7667 -25.56,40.14l6.57976e-08,-9.64413e-08c-0.800244,1.17294 -1.17436,2.58469 -1.06,4c1.03333,16.26 2.03333,32.52 3,48.78c0.15,2.39 0.31,4.78 0.48,7.45l-36.9,-5.33c0.76,-4.55 1.48,-8.86 2.21,-13.16c2.36,-13.8067 4.72333,-27.6133 7.09,-41.42c1.33333,-7.88 2.7,-15.7567 4.1,-23.63l1.37232e-07,-5.76614e-07c0.375353,-1.57714 0.00679947,-3.23932 -1,-4.51c-6,-8 -12,-16.18 -17.9,-24.29c-0.45,-0.61 -0.87,-1.25 -1.62,-2.35c3.08,0.23 5.72,0.34 8.34,0.65c19.56,2.34 38.75,6.64 57.95,10.94c0.62,0.110001 1.22,0.300001 2.2,0.570001Z" transform="translate(427.57, 274.42)"></path><path d="M181.38,2.47007c-1.65,1.37 -3.09,2.6 -4.56,3.78l4.51641e-06,-3.61999e-06c-25.5971,20.5166 -53.6209,37.8064 -83.44,51.48l7.41888e-08,-3.88906e-08c-1.66896,0.874887 -3.66104,0.874887 -5.33,7.77812e-08l-2.1131e-05,-9.68433e-06c-28.9306,-13.2589 -56.1791,-29.9162 -81.1699,-49.6199c-2.2,-1.73 -4.35,-3.53 -6.88,-5.59c5.06,-0.49 9.61,-1 14.17,-1.35c4.16,-0.37 8.34,-0.58 12.49,-1l-1.37449e-07,1.72396e-08c1.25417,-0.157305 2.51824,0.203857 3.5,1l-4.70803e-05,-3.42427e-05c15.7543,11.4585 32.3363,21.7333 49.6099,30.7399c3.07,1.61 6.22,3.07 9.27,4.71l-3.44169e-07,-2.07013e-07c1.02756,0.618061 2.31244,0.618061 3.34,4.14026e-07l1.53537e-05,-7.54508e-06c18.242,-8.96447 35.7847,-19.2869 52.48,-30.88c2.39,-1.65 4.71,-3.4 7.11,-5l-1.88761e-07,1.42605e-07c0.606479,-0.458181 1.34026,-0.716751 2.1,-0.74c8.68,0.67 17.36,1.41 26,2.15l5.28152e-07,8.77357e-08c0.444094,0.0737721 0.882026,0.18076 1.31011,0.320064Z" transform="translate(192.62, 392.4)"></path><path d="M35.53,0h18.62v76.69h-21.85l-13.2,-46.58l-0.51,0.05v46.57h-18.59v-76.71h22.3l12.82,46.66h0.42Z" transform="translate(211, 198.13)"></path><path d="M62.62,76.77h-21.33l-2.1,-13.19h-16.1l-2.09,13.19h-21l18.48,-76.77h25.32Zm-31.17,-60.24h-0.57l-5.36,31.68h11.29Z" transform="translate(320.81, 198.08)"></path><path d="M0.11,56.2572h19c0.16,1.68 0.24,3.29 0.47,4.88c0.65,4.46 4.65,6.94 8.73,5.3l-4.16372e-07,1.76223e-07c1.09703,-0.4643 2.04994,-1.21351 2.76,-2.17l-1.36345e-07,1.97139e-07c2.44053,-3.52872 1.86094,-8.32431 -1.35,-11.17l1.54161e-06,1.19856e-06c-1.8934,-1.47207 -3.94629,-2.72661 -6.12,-3.74c-2.66,-1.31 -5.48,-2.28 -8.2,-3.48l7.9639e-07,3.16416e-07c-3.96969,-1.57721 -7.48264,-4.12084 -10.22,-7.4l1.62916e-06,1.97659e-06c-2.63925,-3.20208 -4.10366,-7.21068 -4.15,-11.36l-1.19933e-06,-4.09177e-05c-0.101398,-3.45946 0.146527,-6.92032 0.740008,-10.33c1.73,-8.52 7.2,-13.57 15.61,-15.4l-2.61746e-07,5.67871e-08c6.39376,-1.38716 13.0206,-1.28794 19.37,0.29c8,1.95 12.39,7.24 13.78,15.17c0.4,2.28 0.47,4.62 0.71,7.13h-18.62c-0.06,-0.47 -0.11,-1 -0.19,-1.53l4.97479e-07,6.18161e-06c-0.108281,-1.34549 -0.308751,-2.68196 -0.599999,-4c-1,-3.33 -2.92,-4.73 -6,-4.47l-2.74263e-08,2.68506e-09c-2.86393,0.280378 -5.12552,2.55456 -5.39,5.42c-0.43,3.33 0.42,6.24 3.31,8.19l1.08733e-06,7.40282e-07c1.75148,1.19245 3.5938,2.24568 5.51,3.15c2.95,1.37 6,2.51 9,3.82l-1.19413e-06,-4.92791e-07c3.2847,1.35552 6.28136,3.32389 8.83,5.8l2.40692e-07,2.32253e-07c3.13632,3.02637 5.17082,7.01441 5.78,11.33l-3.99213e-07,-2.69842e-06c0.62322,4.21256 0.467299,8.50377 -0.459999,12.66l-5.57906e-08,2.88745e-07c-1.15677,5.9869 -5.37649,10.9245 -11.11,13l-2.7141e-06,1.05457e-06c-2.8961,1.12528 -5.91827,1.89426 -9,2.29l3.39605e-06,-4.77416e-07c-6.33873,0.891097 -12.7898,0.551567 -19,-0.999999c-7.87,-2.1 -12.59,-7.89 -13.15,-16.07c-0.150002,-1.98997 -0.0400024,-4.03997 -0.0400024,-6.30997Z" transform="translate(269.45, 196.053)"></path><path d="M0,0h19.85v76.7h-19.85Z" transform="translate(185.26, 198.15)"></path><path d="M229.82,155.633c-0.22,-0.28 -0.6,-0.54 -0.64,-0.85l-8.06139e-07,-1.12114e-05c-0.0507456,-0.705752 -0.0507454,-1.41424 7.38136e-07,-2.11999c0,-36.22 0,-72.4433 0,-108.67l6.18412e-08,-1.14304e-06c0.0829422,-1.53307 -0.561909,-3.01548 -1.74,-4c-11.4,-10.26 -24.41,-17.89 -38.44,-23.89l1.74497e-06,7.40773e-07c-14.3457,-6.09002 -29.4382,-10.2432 -44.88,-12.35l1.26848e-05,1.80818e-06c-14.0397,-2.00133 -28.2498,-2.53421 -42.3999,-1.59001c-29.14,2 -56.57,9.56 -81.56,25.07l-1.19573e-05,7.38913e-06c-6.03242,3.72779 -11.7215,7.98453 -16.9999,12.7199l-4.33899e-07,3.56985e-07c-1.18928,0.978464 -1.84566,2.4618 -1.77,4c0.0466667,36 0.0466667,72 0,108v2.71l-0.48,0.22c-0.26,-0.28 -0.68,-0.52 -0.75,-0.84l2.25497e-08,1.53396e-07c-0.0924426,-0.628848 -0.119253,-1.2656 -0.0800002,-1.9c0,-36.22 0,-72.4433 0,-108.67l3.40193e-08,6.85227e-07c-0.0805293,-1.62205 0.60433,-3.18797 1.85,-4.23c10.58,-9.64 22.64,-17 35.61,-22.88l-5.68864e-06,2.55702e-06c16.0322,-7.20644 33.0435,-11.9984 50.48,-14.22l-6.48449e-06,8.54642e-07c12.3721,-1.63061 24.8659,-2.14269 37.3299,-1.53c26.41,1.23004 51.61,7.23004 75.25,19.46l5.27147e-06,2.66709e-06c10.1333,5.12691 19.5475,11.5656 28,19.15l5.78719e-08,4.7959e-08c1.24737,1.03371 1.93929,2.59146 1.87,4.21c-0.0533333,36.5067 -0.0533333,73.0133 0,109.52c0,0.833333 0,1.67 0,2.51Z" transform="translate(168.04, 144.157)"></path><path d="M0,0h13.63v56.83h-0.21Z" transform="translate(369.77, 198)"></path><path d="M93.49,0.969991c-3.61,2.34 -7.2,4.71 -10.84,7l-1.03348e-05,6.51625e-06c-11.0132,6.944 -22.4115,13.2575 -34.14,18.91l3.54702e-07,-1.9402e-07c-1.11536,0.610093 -2.46464,0.610093 -3.58,3.88039e-07l1.41733e-05,6.84414e-06c-15.2306,-7.35473 -29.9119,-15.7966 -43.93,-25.26c-0.33,-0.22 -0.62,-0.49 -1,-0.77c1.26,-0.85 2.08,0 3,0.51c9.14,5.53 18.22,11.16 27.44,16.54c4.64,2.7 9.56,4.91 14.31,7.42l2.50749e-07,1.45757e-07c1.21792,0.707965 2.72208,0.707965 3.94,-2.91514e-07l6.64681e-06,-3.24432e-06c14.4445,-7.05041 28.3963,-15.0686 41.7599,-23.9999c1.43011,-0.910092 1.43011,-0.900092 3.04011,-0.350092Z" transform="translate(236.6, 390.68)"></path><path d="M0,11.92c3.34,-0.5 6.38,-1 9.44,-1.37l-7.24964e-09,2.66255e-10c1.13992,-0.041862 2.14597,-0.757098 2.56,-1.82c1.31,-2.81 2.73,-5.56 4.3,-8.73c1,2 1.87,3.66 2.7,5.32c0.6,1.2 1.25,2.39 1.76,3.62l-8.82752e-08,-2.35604e-07c0.352735,0.941442 1.24481,1.57184 2.25,1.59c3.09,0.38 6.16,0.87 9.53,1.36l5.53531e-07,-7.80538e-07c-0.325479,0.45896 -0.67601,0.899628 -1.05,1.32c-1.91,1.9 -3.81,3.8 -5.78,5.64l7.78982e-08,-6.305e-08c-0.829676,0.671531 -1.17968,1.77267 -0.89,2.8c0.62,3 1.08,6.11 1.68,9.61l2.13011e-06,9.37043e-07c-2.07012,-0.910652 -4.07488,-1.96315 -6,-3.15c-2.91,-2.08 -5.52,-2.07 -8.41,0l1.51845e-06,-9.47442e-07c-1.90121,1.18626 -3.88265,2.2388 -5.92998,3.14999c0.53,-3.1 0.89,-5.88 1.5,-8.6l-4.0682e-08,1.2794e-07c0.541168,-1.7019 -0.0475558,-3.56019 -1.47,-4.64c-2.12002,-1.76999 -4.00002,-3.88999 -6.19002,-6.09999Zm16.33,13.49l9.45,4.91l-1.13843e-07,-1.26384e-06c-0.20737,-2.30213 -0.588454,-4.5853 -1.14,-6.82998c-0.92,-2.79 -0.06,-4.64 2.09,-6.37c1.67,-1.35 3.11,-3 5,-4.81l-10.6,-1.63l-4.75,-9.51l-4.8,9.52l-10.12,1.55998l-0.22,0.53l1.62576e-06,1.67383e-06c1.2194,1.25545 2.5152,2.43437 3.88,3.53c3,2.16 4,4.78 2.7,8.36l1.01497e-07,-4.0137e-07c-0.468575,1.85297 -0.773084,3.7436 -0.909999,5.64999Z" transform="translate(267.31, 153.75)"></path><path d="M1.08,19.75l3.14,-7.43l-4.22,-6.85c2.34,0.19 4.33,0.24 6.26,0.56l4.60029e-08,1.08374e-08c1.11638,0.262998 2.27674,-0.210779 2.89,-1.18c1.21,-1.55 2.51,-3 4,-4.85c0.54,2.35 1.06,4.29 1.42,6.27l-4.34316e-08,-3.77503e-07c0.122699,1.06649 0.883578,1.95022 1.92,2.23c1.86,0.65 3.66,1.47 5.91,2.38c-1.93,1.18 -3.52,2.28 -5.22,3.15l1.32951e-07,-5.68918e-08c-1.18527,0.507198 -1.91396,1.71496 -1.81,3c0,1.88 -0.27,3.77 -0.46,6c-1.71,-1.5 -3.24,-2.73 -4.63,-4.1l1.55282e-07,1.66025e-07c-0.835283,-0.893069 -2.12901,-1.1898 -3.27,-0.75c-1.79,0.59 -3.63,1 -5.93,1.57Zm0.92,-0.8c2.21,-0.53 3.89,-0.81 5.49,-1.35l-5.99351e-09,2.39629e-09c0.99886,-0.399358 2.14115,-0.117809 2.84,0.7c1.25,1.18 2.6,2.26 4.27,3.69c0.13,-2.1 0.26,-3.69 0.31,-5.29l-1.15472e-08,-2.14285e-07c-0.069718,-1.29378 0.67771,-2.49287 1.87,-3c1.47,-0.71 2.81,-1.68 4.5,-2.71l2.8527e-06,1.37786e-06c-1.44905,-0.699895 -2.94221,-1.30451 -4.46998,-1.81l-3.09805e-08,-6.29734e-09c-1.62995,-0.331317 -2.81325,-1.74712 -2.85,-3.41c-0.2,-1.42 -0.63,-2.81 -1,-4.58l8.24247e-07,-8.41358e-07c-0.978426,0.998738 -1.8778,2.07197 -2.69,3.21c-1.25,2.1 -3,2.48 -5.22,2.08c-1.18,-0.22 -2.4,-0.25 -4,-0.41l3.81,6.21Z" transform="translate(311.78, 163.95)"></path><path d="M21.41,19.81c-2.41,-0.61 -4.32,-1.06 -6.21,-1.58l5.60243e-09,2.09593e-09c-1.00912,-0.37752 -2.14631,-0.109017 -2.88,0.68c-1.41,1.37 -3,2.6 -4.78,4.19c-0.12,-1 -0.22,-1.68 -0.27,-2.33c-0.07,-1 -0.17,-2 -0.14,-3l2.30877e-08,-2.14305e-07c0.194382,-1.80429 -0.871915,-3.50706 -2.58,-4.12l3.13428e-06,1.61629e-06c-1.56884,-0.809024 -3.08819,-1.71061 -4.55,-2.7c2.09,-0.86 3.84,-1.65 5.64,-2.29l1.09826e-07,-2.6718e-08c1.25257,-0.304719 2.17043,-1.37557 2.28,-2.66c0.26,-1.86 0.81,-3.68 1.34,-6c1.52,1.81 2.83,3.25 4,4.8l-9.35126e-08,-1.52194e-07c0.638204,1.03869 1.88047,1.53803 3.06,1.23c1.91,-0.33 3.87,-0.35 6.14,-0.53l-4.25847e-07,8.07185e-07c-0.703103,1.33272 -1.50186,2.61273 -2.38999,3.82999l-1.12015e-07,1.14456e-07c-1.67352,1.70999 -1.86392,4.37983 -0.45,6.31l1.50937e-06,3.00388e-06c0.679765,1.35283 1.27751,2.74535 1.78998,4.16999Zm-11.91,-18.62c-0.49,2.22 -0.88,3.87 -1.21,5.52l5.87153e-08,-5.34046e-07c-0.117373,1.06757 -0.874396,1.95539 -1.91,2.24c-1.66,0.54 -3.25,1.29 -5.25,2.11c1.9,1.14 3.43,2.12 5,3l5.42049e-08,2.51323e-08c0.908764,0.421352 1.46215,1.36091 1.39,2.36c0,1.72 0.24,3.44 0.41,5.63c1.68,-1.46 3,-2.52 4.2,-3.67l7.72013e-08,-8.93143e-08c0.702196,-0.812372 1.84071,-1.09299 2.84,-0.7c1.65,0.55 3.38,0.84 5.45,1.33c-0.84,-2 -1.47,-3.72 -2.24,-5.35l-1.21962e-07,-2.22215e-07c-0.449148,-0.818353 -0.366507,-1.82578 0.21,-2.56c1,-1.51 1.91,-3.07 3.06,-4.94c-2.19,0.18 -3.95,0.27 -5.69,0.5l8.35453e-08,-1.41781e-08c-1.05948,0.1798 -2.1235,-0.293096 -2.7,-1.2c-1.03,-1.35 -2.12,-2.59 -3.55,-4.27Z" transform="translate(232.97, 163.89)"></path><path d="M11.17,26.3l1.94,0.39l0.52,5.41l-11,0.86l-0.55,-5.23l1.86,-0.86l-1.54,-18.78l-1.84,-0.26l-0.56,-5.45c3,-0.25 5.89,-0.55 8.76,-0.65c0.5,0 1.13,0.73 1.51,1.26c2.88,3.95 5.71,7.93 8.57,11.89l-4.8964e-08,-7.49866e-08c0.461249,0.706386 1.08103,1.29535 1.81,1.72l-0.75,-10l-1.93,-0.37l-0.53,-5.3l11,-0.93l0.57,5.17l-1.89,1l1.51,18.59l1.94,0.6l0.52,5.24l-9.43,0.85l-10.65,-14.78l-0.53,0.19Zm16.61,-0.44l-1.71,-20.71l2,-0.67l-0.4,-3.42l-9.11,0.72l0.22,3.54l2,0.28l1.26,15.07l-0.31,0.15l-13.17,-18.24l-7.34,0.66l0.17,3.47l1.93,0.51l1.62,20.62l-1.79,0.55l0.27,3.56l9.13,-0.79l-0.21,-3.49l-2,-0.27l-1.17,-14.7l0.36,-0.06l12.76,17.78l7.65,-0.66l-0.2,-3.57Z" transform="translate(200.6, 326.16)"></path><path d="M21.99,0v6.51c-2,-0.2 -4.19,1.21 -6,-0.91l1.85238e-08,1.26682e-08c-0.175638,-0.120117 -0.388499,-0.173333 -0.6,-0.15h-6.22v6.71c1.22,0.14 2.41,0.89 3.1,-0.79c0.08,-0.2 0.61,-0.3 0.94,-0.31c1.4,0 2.8,0 4.41,0v8.16c-1.53,0 -3.06,0 -4.6,0c-0.26,0 -0.69,-0.11 -0.75,-0.27c-0.56,-1.68 -1.81,-0.78 -3,-0.9v6.82h6.31c0.2,0 0.51,0 0.6,-0.15c1.63,-2.26 3.85,-0.63 5.91,-1.19v6.84h-21.78v-5.2l1.53,-0.43v-18.88l-1.84,-0.59v-5.27Zm-13.58,17c1.58,0.09 3.43,-0.37 4.26,0.35c1.42,1.23 2.61,0.86 4,0.68v-6.21c-1.41,0.58 -3,-0.7 -3.88,1.25c-0.07,0.15 -0.51,0.19 -0.78,0.2c-1.18,0 -2.36,0 -3.56,0v-8.77c2.71,0 5.25,0 7.79,0c0.32,0 0.83,0.08 0.94,0.29c1,1.86 2.52,0.73 3.78,0.77v-4.72h-19.98v3.38l1.78,0.68v20.61l-1.84,0.76l0.15,3.09h20.08v-4.76c-1.8,-0.45 -3.31,-0.45 -4.42,1h-8.32Z" transform="translate(263.42, 324.78)"></path><path d="M1.08,21.41l6.57,0.65c0.53,3.2 1,3.66 4,3.95c0.49,0 1,0.15 1.47,0.2l-9.69384e-08,-1.82197e-08c1.47094,0.276464 2.88748,-0.691847 3.16395,-2.16278c0.0104226,-0.0554541 0.0191108,-0.11122 0.0260519,-0.167217l1.32945e-06,-8.3868e-06c0.232524,-1.46687 0.379438,-2.94603 0.439998,-4.42998l-2.93505e-09,-4.12783e-08c-0.0985655,-1.38621 -1.21243,-2.48294 -2.6,-2.56c-2,-0.2 -3.94,-0.4 -5.92,-0.51l-1.38519e-07,-1.26102e-08c-1.46415,-0.13329 -2.82105,-0.824271 -3.79,-1.93c-2.42,-2.28 -2.76,-4.85 -2.21,-7.88c0.38,-2.07 0.47,-4.2 0.72,-6.57l22.79,2.24l-0.56,5.58l-15.18,-1.42001c-1.18,3 -0.38,4.38 2.77,4.74c2.18,0.25 4.37,0.41 6.53,0.76l1.25506e-07,2.10472e-08c0.799165,0.134019 1.53479,0.519345 2.1,1.1c3.06,3.44 3,3.47 2.56,8.09l2.09606e-07,-9.25472e-07c-0.18732,0.827074 -0.284553,1.672 -0.29,2.52c0.49,3.88 -1.69,6.2 -4.62,8l3.09035e-07,-1.80326e-07c-0.653208,0.381155 -1.40529,0.558731 -2.16,0.51c-3.67,-0.27 -7.34,-0.57 -11,-1l-1.84212e-07,-5.58056e-08c-0.908633,-0.275264 -1.74755,-0.742465 -2.46,-1.37c-0.34,-0.23 -0.5,-0.7 -0.82,-1c-2.36,-1.95 -2.61,-4.41 -1.53,-7.34Zm0.83,1c-0.77,2.66 -0.55,2.7 0.65,4.65c1.64,2.66 4,3.54 6.88,3.58l-9.16121e-07,-1.35225e-09c1.41749,0.00209223 2.83122,0.146144 4.22,0.43l-1.0955e-07,-2.86756e-08c2.63888,0.690749 5.44072,-0.182402 7.22,-2.25c0.92,-1 1.7,-1.73 1.68,-3.18l-5.83662e-07,-1.56481e-05c-0.0580769,-1.55707 0.0966865,-3.11479 0.460003,-4.63c0.76,-2.79 -0.12,-4.88 -2.06,-6.86l1.20711e-07,1.4258e-07c-0.771719,-0.911528 -1.88708,-1.46196 -3.08,-1.52c-2.19,-0.11 -4.37,-0.34 -6.55,-0.6l-4.03905e-08,-4.43106e-09c-1.51097,-0.165763 -2.70848,-1.35084 -2.89,-2.86l2.55414e-07,-5.59859e-06c0.0572651,-1.25523 0.177416,-2.5068 0.360001,-3.75l15.66,1.44v-3.76l-20.71,-2l2.5312e-07,-6.39734e-06c-0.0779279,1.96954 -0.295136,3.9311 -0.649996,5.86998c-0.76,2.93 0.41,5 2.34,7l-1.55165e-07,-2.00782e-07c0.685747,0.887347 1.7125,1.44607 2.83,1.54c2.12,0.11 4.22,0.55 6.33,0.63l1.275e-07,4.57851e-09c1.06939,0.0384013 2.04393,0.623881 2.58,1.55c0.93,1.31 0.14,7.45 -1,8.62c-1.45,1.55 -3.19,0.79 -4.8,0.72l-2.32427e-07,8.84773e-09c-1.11048,0.0422722 -2.20801,-0.250403 -3.15,-0.84c-0.86,-0.72 -1.23,-2 -1.94,-3.3Z" transform="translate(356, 328.45)"></path><path d="M23.32,9.15l-6.89,0.8l1.20058e-07,1.03733e-06c-0.0720514,-0.622539 -0.195812,-1.238 -0.37,-1.84l6.55839e-08,2.50863e-07c-0.31846,-1.21813 -1.44193,-2.05034 -2.7,-2l5.57299e-07,-3.31278e-08c-1.12954,0.0671442 -2.25259,0.217553 -3.36,0.45l-1.676e-07,2.56335e-08c-1.43581,0.2196 -2.42175,1.56158 -2.20215,2.99739c0.00371027,0.0242589 0.00775991,0.0484647 0.0121477,0.0726102c0.05,0.49 0.11,1 0.19,1.47l-9.2421e-08,-1.19056e-06c0.10857,1.3986 1.33037,2.44437 2.72896,2.3358c0.090922,-0.00705807 0.181398,-0.0190077 0.271035,-0.0357969c2,-0.2 4.08,-0.45 6.1,-0.8l-3.22369e-07,5.12121e-08c1.45495,-0.231136 2.94193,0.128907 4.13,1c2.68,1.65 4,3.81 3.87,6.92l3.0052e-09,-6.63732e-08c-0.00964569,0.213033 0.0174153,0.426139 0.0799999,0.63c0.87,2.75 0.16,5 -1.75,7.16l-1.26487e-07,1.68039e-07c-1.0547,1.40118 -2.66964,2.27076 -4.42,2.38c-2.75,0.2 -5.47,0.7 -8.2,1.11l1.03798e-07,-1.81137e-08c-1.58914,0.277319 -3.22359,-0.0818997 -4.55,-1l-2.95638e-07,-1.58484e-07c-2.77352,-1.48681 -4.26898,-4.59496 -3.7,-7.69l6.75,-1c0.17,0.62 0.31,1.07 0.42,1.52c0.41,1.62 1.45,2.16 3.57,2c3.95,-0.21 4.62,-1.31 4.7,-2.84c0.13,-2.79 -0.66,-4.66 -4.24,-4.11c-1.89,0.29 -3.79,0.5 -5.67,0.81l1.44877e-07,-1.70586e-08c-1.11704,0.131527 -2.24106,-0.180899 -3.13,-0.87c-2.63,-1.65 -4.4,-3.69 -4.16,-7l3.89131e-08,-3.42456e-07c0.00792853,-0.0697753 0.00792852,-0.140224 -2.34595e-08,-0.21c-0.8,-4.77 -0.62,-5.45 2.72,-9l7.12298e-08,-7.79402e-08c0.470956,-0.515323 1.0949,-0.865853 1.78,-1c3.71,-0.54 7.43,-1 11.16,-1.41l2.42726e-07,3.66975e-09c0.872145,0.013186 1.7288,0.23249 2.5,0.64c0.57,0.24 1,0.84 1.54,1.12c2.91,1.69 2.77,4.44 2.82,7.39Zm-1.13,-0.81c0.52,-2.87 -0.73,-4.42 -2.7,-5.61c-0.54,-0.33 -1,-0.85 -1.54,-1.13l-1.68244e-08,-9.9966e-09c-0.584381,-0.347224 -1.25028,-0.533536 -1.93,-0.54c-3.23,0.35 -6.46,0.8 -9.68,1.28l5.02079e-08,-2.00305e-09c-0.699369,0.0279012 -1.3703,0.284331 -1.91,0.73c-1.76,2.19 -3.86,4 -3,7.59c1,4.52 0.69,4.58 4.39,7.31l-2.06673e-07,-1.76239e-07c0.698058,0.595266 1.63011,0.83841 2.53,0.66c2.09,-0.38 4.2,-0.66 6.31,-0.83l-4.80628e-08,3.99865e-09c0.81518,-0.0678197 1.633,0.0950507 2.36,0.47c1.33,0.74 2.58,4.52 1.83,5.81l1.43971e-07,-2.61298e-07c-0.532273,0.966042 -1.36904,1.72897 -2.38,2.17l4.65484e-08,-1.27525e-08c-1.43409,0.392887 -2.91312,0.597934 -4.4,0.61l1.96578e-07,-9.6498e-09c-1.43954,0.0706653 -2.75071,-0.823869 -3.21,-2.19c-0.14,-0.4 -0.26,-0.8 -0.44,-1.39l-5.06,0.65c0,2.16 0.25,4 2.26,5c0.74,0.4 1.31,1.1 2,1.5l1.14237e-07,6.92571e-08c0.580864,0.352153 1.251,0.529235 1.93,0.51c3.44,-0.39 6.88,-0.88 10.31,-1.37c0.47,-0.07 1.11,-0.14 1.34,-0.46c1.57,-2.21 3.87,-3.87 3.16,-7.36c-0.91,-4.52 -0.6,-4.56 -4.26,-7.4l1.59852e-07,1.40245e-07c-0.798667,-0.700704 -1.8783,-0.9891 -2.92,-0.78c-2.16,0.37 -4.34,0.63 -6.52,0.88l1.93492e-08,-2.52527e-09c-1.5873,0.207157 -3.08462,-0.786794 -3.51,-2.33c-0.79,-3.1 -0.24,-5.56 1.42,-6.27l1.05005e-07,-3.36996e-08c0.200767,-0.0644326 0.409321,-0.101434 0.62,-0.11c1.4,-0.17 2.82,-0.28 4.21,-0.52c1.39,-0.24 2.41,0.71 3.2,1.66l2.67924e-07,5.33969e-07c0.332612,0.662892 0.53944,1.38171 0.61,2.12Z" transform="translate(156.81, 331.66)"></path><path d="M22.8973,10.6459l-6.93,0.42l7.37192e-08,-3.52193e-06c0.0155269,-0.741805 -0.0515529,-1.48303 -0.200001,-2.21l1.14742e-07,4.39948e-07c-0.221517,-0.849352 -0.635535,-1.63633 -1.21,-2.3c-1.17,-1.13 -5.46,-0.76 -6.46,0.52l1.86006e-07,-2.39764e-07c-0.4623,0.59591 -0.718491,1.32588 -0.73,2.08c0.15,4.53 0.4,9.05 0.63,13.58l-1.15947e-07,3.43215e-06c-0.0510916,1.5124 1.13353,2.77986 2.64593,2.83095c0.118138,0.00399092 0.23641,0.000332864 0.354075,-0.0109512h0.42c4.52,-0.19 4.71,-0.37 5.06,-5.15l7.12,-0.36c0.06,2 0.16,3.82 0.14,5.63l1.93405e-08,-8.89089e-08c-0.102615,0.471724 -0.34684,0.900862 -0.7,1.23c-3.4,4 -3.41,4 -8.76,4.14c-2.26,0.06 -4.53,0.19 -6.79,0.37l-4.55719e-08,1.40454e-09c-1.04425,0.0321844 -2.06332,-0.324133 -2.86,-1c-3,-2.05 -4.11,-4.81 -4.07,-8.42c0.05,-5 -0.29,-9.91 -0.54,-14.86l-1.50868e-07,-9.5886e-06c-0.0173049,-1.09991 0.370675,-2.16774 1.09001,-3l5.0622e-07,-8.13839e-07c1.63149,-2.62291 4.64802,-4.04706 7.71,-3.64l-9.85753e-07,-3.73826e-08c2.54807,0.0966302 5.09977,-0.0137314 7.62998,-0.329998l-1.69078e-07,2.64209e-08c1.06174,-0.165912 2.13343,0.231711 2.83,1.05l9.22506e-08,1.18952e-07c0.174899,0.225521 0.388157,0.41847 0.63,0.57c3.55001,1.95001 3.23001,5.28001 2.99001,8.86001Zm-0.88,-0.86c0.41,-2.83 0.21,-5.16 -2.27,-6.73c-0.47,-0.3 -0.8,-0.84 -1.28,-1.1l-1.41455e-07,-9.53983e-08c-0.616285,-0.415627 -1.32219,-0.679485 -2.06,-0.77c-2.55,0 -5.1,0.32 -7.64,0.19l3.73209e-07,2.81423e-08c-2.63577,-0.198754 -5.17263,1.04481 -6.63,3.25l4.55899e-08,-5.17184e-08c-0.874458,0.992007 -1.32032,2.29004 -1.24,3.61c0.33,5.23 0.54,10.46 0.75,15.69c0.13,3.27 3.42,6.49 6.68,6.39c2.26,-0.07 4.54,-0.42 6.78,-0.28c2.8,0.17 4.66,-0.9 6.51,-3c1.85,-2.1 1.37,-3.87 0.95,-6.09l-5.08,0.32c-0.06,0.42 -0.12,0.68 -0.13,1c-0.1,3 -1.11,4 -4,4.11l-2.55,0.07c-2.47,0.06 -3.64,-1 -3.76,-3.49c-0.226667,-4.73333 -0.413333,-9.47 -0.56,-14.21l-6.2886e-08,-4.60893e-07c-0.229965,-1.68542 0.949915,-3.23815 2.63534,-3.46811c0.203645,-0.027786 0.409559,-0.0351182 0.614665,-0.0218871c1.2,-0.05 2.4,-0.13 3.61,-0.16l-6.72542e-08,3.35336e-09c1.67924,-0.0837294 3.13175,1.15815 3.31,2.83c0.08,0.62 0.17,1.23 0.26,1.91Z" transform="translate(235.033, 324.934)"></path><path d="M16.43,18.5546c-3,-0.25 -5.9,-0.59 -8.78,-0.67l7.76719e-08,2.49065e-09c-1.3914,-0.0446179 -2.70654,-0.646342 -3.65,-1.67c-2.43,-2.25 -2.76,-4.76 -2.6,-8l-3.65043e-07,2.25733e-05c0.047003,-2.90677 1.54937,-5.59603 3.99998,-7.16001l2.62984e-07,-2.32888e-07c0.785328,-0.695455 1.81242,-1.05458 2.86,-1c3.81,0.34 7.63,0.57 11.44,0.9l2.66799e-07,7.29091e-08c0.520418,0.142217 1.0114,0.375855 1.45,0.69c0.06,0 0.09,0.11 0.14,0.16c3.62,3.87 3.61,3.95 3.14,9.21c-0.44,4.94 -0.82,9.88333 -1.14,14.83l4.55029e-08,-3.34174e-06c-0.0134019,0.984275 -0.464195,1.91152 -1.23,2.53c-3.94,3.42 -3.92,3.42 -9.1,2.86c-2.39333,-0.26 -4.79333,-0.453333 -7.2,-0.58l1.22086e-07,-2.126e-09c-0.925756,0.0161211 -1.79613,-0.43979 -2.31,-1.21l-1.35573e-07,-2.12017e-07c-0.30587,-0.478338 -0.675996,-0.912395 -1.1,-1.29c-2.08,-1.7 -2.35,-3.87 -1.63,-6.58l6.33,0.34c0.9,1.31 1.37,2.8 2.23,3.07l3.80809e-07,1.07209e-07c1.69045,0.475912 3.46197,0.591742 5.2,0.34l1.0359e-07,-2.34223e-08c1.09107,-0.246698 1.82816,-1.26663 1.72,-2.38c-0.0599826,-1.36001 0.120017,-2.76001 0.230017,-4.39001Zm1,-0.86c-0.13,2.12 -0.17,4 -0.38,5.9c-0.24,2.1 -1.67,3.13 -3.8,2.93l2.11104e-06,2.6761e-07c-1.05462,-0.133691 -2.11696,-0.197165 -3.18,-0.19l1.52786e-07,-1.05696e-08c-1.08535,0.0750837 -2.11415,-0.492128 -2.63,-1.45c-0.39,-0.63 -0.68,-1.32 -1.06,-2.06l-4.7,-0.34c-0.59,2.51 -0.6,2.51 0.77,4.1c0.55,0.64 1.18,1.24 1.67,1.92l-1.60189e-07,-2.19215e-07c0.674582,0.92315 1.76799,1.44543 2.91,1.39c3,0.14 6.07,0.37 9.1,0.67l-2.89348e-07,-5.29465e-08c0.979642,0.17926 1.9855,-0.126223 2.7,-0.82l-1.10463e-06,1.1405e-06c0.591586,-0.610797 1.23759,-1.16643 1.93,-1.66l5.6703e-08,-3.94407e-08c1.17473,-0.817102 1.84704,-2.18061 1.78,-3.61c0.24,-4.66 0.34,-9.36 1,-14l9.42333e-08,-4.85501e-07c0.527739,-2.71898 -0.441531,-5.5123 -2.54,-7.32l7.13341e-08,7.87982e-08c-0.847319,-0.935979 -2.03816,-1.48809 -3.3,-1.53c-2.83,-0.11 -5.67,-0.22 -8.47,-0.58l2.60469e-07,4.05601e-08c-1.32941,-0.207015 -2.67069,0.293123 -3.54,1.32c-0.92,1 -2.57,1.75 -2.75,2.8c-0.54,3.35 -1.77,6.89 1.52,9.86l3.59947e-08,3.99328e-08c1.12181,1.24454 2.68755,1.99869 4.36,2.1c2.7,0.0600002 5.44,0.34 8.58,0.56Z" transform="translate(328.31, 326.635)"></path><path d="M10.33,32.05l-7.22,-0.8l12.16,-23.74l-9.19,-1.19l-0.49,1l-0.38,0.84l-5.21,-0.64l0.81,-7.52l22.6,2.72c0.06,2.19 0.11,4.24 -0.85,6.11c-3.85,7.48 -7.74,14.93 -11.63,22.39l-3.91759e-09,6.24311e-09c-0.181649,0.28948 -0.382078,0.566741 -0.6,0.83Zm6.4,-25.33l-12.07,23.65l5.29,0.54l-2.06487e-08,2.71341e-08c0.178721,-0.234854 0.345595,-0.478491 0.5,-0.73c3.78,-7.36 7.6,-14.69 11.28,-22.1c0.62,-1.26 0.64,-2.81 1,-4.47l-21,-2.51l-0.65,5.67l3.5,0.3l0.64,-1.76Z" transform="translate(386.4, 331.28)"></path><path d="M11.54,26.05l3,0.55v5.39l-14.54,-0.63l0.26,-5.59h4l0.71,-15.39l-3.79,-0.3c-0.4,-2.37 -0.37,-4.45 1.87,-5.86l1.46262e-08,-9.4837e-09c0.536271,-0.34772 1.00966,-0.78391 1.4,-1.29c2.28,-2.93 5.24,-1.83 8.25,-1.65Zm-10.46,4.41l12.43,0.58l0.2,-3.68l-3.18,-0.32l1.14,-24.52c-4.13,-1.83 -6.15,1.11 -8.56,3.19l-4.37454e-08,3.6316e-08c-1.03751,0.861301 -1.43539,2.2738 -1,3.55l3.84,0.45l-0.89,17.2h-4Z" transform="translate(306.81, 324.48)"></path><path d="M10.97,0l0.63,5.34l-1.9,0.71l2,18.83l2,0.35l0.56,5.26l-10.94,1.18l-0.66,-5.31l1.88,-0.64l-2,-18.81l-2,-0.37l-0.54,-5.38Zm-0.73,1l-9.3,1.08l0.53,3.45l1.83,0.3l2.26,20.62l-1.77,0.77l0.4,3.46l9.16,-1l-0.45,-3.5l-1.93,-0.43l-2.24,-20.61l1.8,-0.61Z" transform="translate(184.27, 329.19)"></path><path d="M10.7,0l3.28,6.51l7.33,1.21c-1.52,1.49 -2.78,2.78 -4.1,4l-1.23468e-07,8.49099e-08c-0.885538,0.60899 -1.26081,1.73074 -0.92,2.75l-1.26205e-06,-5.63267e-06c0.418376,1.86725 0.72889,3.75705 0.930001,5.66l-1.22296e-06,-5.49346e-07c-1.52428,-0.684698 -3.00985,-1.45252 -4.45,-2.3l-8.13782e-08,-6.32763e-08c-1.25291,-0.974209 -3.00709,-0.974209 -4.26,1.26553e-07c-1.23,0.8 -2.61,1.37 -4.31,2.24l-2.00124e-06,2.17214e-05c0.14584,-1.58295 0.386268,-3.15575 0.719993,-4.70998l-2.60421e-08,6.76057e-08c0.599897,-1.55734 0.0541066,-3.32289 -1.32,-4.27c-1.16,-0.91 -2.17,-2 -3.6,-3.36l7.38,-1.26Z" transform="translate(272.95, 159.36)"></path><path d="M9.84999,9.46l-0.57,5l-2.3288e-06,-1.71528e-06c-0.781864,-0.575882 -1.52667,-1.20045 -2.22999,-1.86999l7.90766e-08,1.07873e-07c-0.822747,-1.12235 -2.33393,-1.4896 -3.58,-0.87l1.95205e-07,-5.98259e-08c-0.916445,0.280871 -1.85724,0.475056 -2.81,0.58c0.6,-1.68 1.58,-3.15 1.48,-4.54c-0.1,-1.39 -1.29,-2.71 -2.14,-4.33l4.95,0.25l3.20999,-3.68001l5.79604e-07,1.79948e-06c0.288061,0.894332 0.518532,1.8062 0.69,2.73l-4.88058e-08,-2.5579e-06c0.0291803,1.52937 1.14958,2.81825 2.66,3.06l-3.61022e-07,-1.22777e-07c0.86498,0.294164 1.7017,0.665666 2.5,1.11Z" transform="translate(315.84, 168)"></path><path d="M4.33,14.11c0.66,-3.66 -0.7,-6 -4.33,-7l0.18,-0.39l-1.40761e-06,7.89593e-07c0.758492,-0.425474 1.55126,-0.786733 2.36999,-1.08l4.84267e-08,-8.21225e-09c1.36917,-0.232185 2.37568,-1.41136 2.39,-2.8l-1.29183e-06,7.74812e-06c0.16043,-0.962225 0.391045,-1.91142 0.689996,-2.83999c0.85,1 1.57,1.7 2.14,2.52l2.26689e-09,3.89946e-09c0.585217,1.00667 1.78593,1.47867 2.9,1.14l-5.2118e-07,8.37435e-08c1.0462,-0.168105 2.10133,-0.274953 3.16,-0.32l2.58697e-07,-5.07326e-07c-0.471887,0.925409 -1.00647,1.81749 -1.6,2.67l2.08304e-08,-2.28061e-08c-0.884335,0.968215 -0.971856,2.42273 -0.21,3.49l-4.72235e-07,-9.65538e-07c0.43608,0.891616 0.823319,1.8063 1.16,2.74l-7.97985e-07,-1.50333e-07c-0.991382,-0.186767 -1.97265,-0.423739 -2.94,-0.71l1.73807e-07,8.12854e-08c-1.19285,-0.557868 -2.61273,-0.222562 -3.43,0.81l1.29337e-07,-1.30092e-07c-0.626808,0.630466 -1.29496,1.21844 -2,1.76Z" transform="translate(237.59, 168.08)"></path><path d="M5.24397,0.07c1.57,0.38 3.25,-0.07 4.49,1.47c1.37,1.69 0.92,3.57 0.39,5.19l9.87079e-08,-2.64883e-07c-0.54409,1.46007 -2.09843,2.27814 -3.61,1.9l7.9919e-07,1.15901e-07c-0.907039,-0.131541 -1.82402,-0.181741 -2.74,-0.15l8.82121e-08,-4.68299e-09c-1.96888,0.104523 -3.64971,-1.40684 -3.75424,-3.37572c-0.0197377,-0.371797 0.0188067,-0.744393 0.114235,-1.10428c0.34,-1.37 0.26,-2.93 1.85,-3.48l-4.90424e-07,1.19715e-07c1.06847,-0.260819 2.16082,-0.411605 3.25999,-0.45Zm0,7.52v0c0.42,0.05 0.84,0.13 1.26,0.16c1.79,0.11 2.79,-0.89 3,-3c0.21,-2.11 -0.55,-3.21 -2.38,-3.44c-1,-0.13 -2.1,-0.27 -3.15,-0.3l2.98042e-08,-7.02642e-10c-1.28992,0.0304111 -2.40926,0.898311 -2.76,2.14c-0.4,1.79 0.26,3.77 1.54,4.19l-1.09521e-06,-2.31245e-07c0.812018,0.171451 1.64009,0.255265 2.46999,0.25Z" transform="translate(335.926, 331.6)"></path><path d="M3.56,0.08c0.18,0 0.68,0 1.17,0.07c1.93,0.2 2.46,0.78 2.32,2.52c-0.15,1.92 -0.7,2.38 -2.74,2.31c-0.5,0 -1,-0.05 -1.48,-0.11c-2.35,-0.27 -2.83,-0.91 -2.43,-3.18c0.27,-1.49 0.62,-1.69 3.16,-1.61Z" transform="translate(337.57, 333.49)"></path></g></g></svg>