<svg xmlns="http://www.w3.org/2000/svg" viewBox="0 0 143.89 181.93"><defs><style>.cls-1{fill:#e20613;}</style></defs><title>BdE</title><g id="Calque_2" data-name="Calque 2"><g id="Calque_1-2" data-name="Calque 1"><path class="cls-1" d="M143.89,0V174.3a1.17,1.17,0,0,1-.22-.51q-5-14.52-10.07-29a.63.63,0,0,0-.73-.5H.61c-.61,0-.61,0-.61-.59V27.83c0-.22,0-.44,0-.66a33.86,33.86,0,0,1,4.1-12.64A24.47,24.47,0,0,1,17,3.23,47.79,47.79,0,0,1,34.08,0Q89,0,143.89,0ZM95.57,97.08H95.5v-.46q0-14.53,0-29c0-.38-.08-.48-.47-.48q-5.81,0-11.62,0c-.41,0-.52.08-.52.51q0,11.07,0,22.15c0,.13.08.35-.06.39s-.23-.18-.31-.29a13.73,13.73,0,0,0-5.07-4.5,18.62,18.62,0,0,0-12.59-1.58,18.18,18.18,0,0,0-12.49,9.12,25.71,25.71,0,0,0-1.87,4c-.23-.59-.42-1.12-.64-1.63a19.46,19.46,0,0,0-7.29-9.07,17.42,17.42,0,0,0-12.21-2.66C25.67,84.14,21.63,86,18.8,90c-.06.08-.09.21-.22.15s0-.15-.06-.23,0-.2,0-.3q0-11,0-22.06c0-.34-.05-.47-.44-.47-3.91,0-7.83,0-11.75,0-.32,0-.41.07-.41.4q0,31.24,0,62.47c0,.31.06.42.4.41,3.73,0,7.45,0,11.18,0,.33,0,.41-.07.41-.4,0-1.69,0-3.38,0-5.07,0-.12-.07-.28.08-.39l.09,0,.09.14a12.37,12.37,0,0,0,6.38,5.44,22.59,22.59,0,0,0,8.58,1.45,17.11,17.11,0,0,0,12.2-5.05,20.82,20.82,0,0,0,5.06-8.19c.06-.16.06-.34.23-.46a26.07,26.07,0,0,0,1.88,4,18.55,18.55,0,0,0,9.59,8.38,20.73,20.73,0,0,0,10.64,1,14.17,14.17,0,0,0,10.56-6.7c0-.07.09-.16.23-.08,0,1.79,0,3.59,0,5.39,0,.35.1.42.43.42q5.58,0,11.14,0c.34,0,.43-.08.43-.42q0-5.59,0-11.19v-.5l.1.11.13.27a20.63,20.63,0,0,0,13.39,11.85,27.93,27.93,0,0,0,13.8.52,19,19,0,0,0,9.22-4.57,23.08,23.08,0,0,0,6.18-10c.11-.33,0-.32-.27-.32H127.66a.39.39,0,0,0-.45.3,5.53,5.53,0,0,1-1.13,1.89,10,10,0,0,1-3.43,2.57,13.32,13.32,0,0,1-9.11.71,8.73,8.73,0,0,1-6.35-5.68,16.43,16.43,0,0,1-1-4.85c0-.57-.06-.57.49-.57h32c.42,0,.54-.1.55-.52a40.93,40.93,0,0,0-.25-6,27.1,27.1,0,0,0-3.27-10.13,19.92,19.92,0,0,0-11.44-9.47,24,24,0,0,0-11.63-.75A21.86,21.86,0,0,0,96.48,95.23C96.15,95.84,95.87,96.47,95.57,97.08Z"/><path class="cls-1" d="M74.61,169.81v-.52q0-11,0-21.93c0-.37.07-.51.48-.5,2.07,0,4.14,0,6.21,0,.29,0,.39.06.39.38q0,16.75,0,33.5c0,.31-.08.38-.39.38H74.52a.63.63,0,0,1-.62-.34L62.46,162.32l-2.39-3.85c0-.08-.07-.19-.24-.22v22.3c0,.57,0,.57-.58.57H53.18c-.31,0-.42-.05-.42-.39q0-16.72,0-33.46c0-.31.06-.41.4-.41,2.25,0,4.51,0,6.77,0a.58.58,0,0,1,.54.32q6.9,11.15,13.82,22.27C74.37,169.56,74.4,169.71,74.61,169.81Z"/><path class="cls-1" d="M87.09,169.71h3.06c.58,0,.57,0,.61.58a5.49,5.49,0,0,0,3.15,4.83,8,8,0,0,0,2.61.79,11.54,11.54,0,0,0,5.59-.48,4.21,4.21,0,0,0,2.45-1.93,3.42,3.42,0,0,0-1.09-4.48,11.91,11.91,0,0,0-3.79-1.62c-2.39-.68-4.83-1.15-7.19-1.92a16.67,16.67,0,0,1-4.26-2,8,8,0,0,1-3.62-6.75c-.13-4.6,2.53-7.79,6.47-9.46a18.84,18.84,0,0,1,14.18.35,9.76,9.76,0,0,1,5.87,9.15c0,.27-.09.31-.32.31q-3.34,0-6.68,0c-.24,0-.32-.06-.35-.31a4.72,4.72,0,0,0-4.16-4.62,9.2,9.2,0,0,0-5.37.29A3.53,3.53,0,0,0,92,156.6a2.39,2.39,0,0,0,1.33,1.69,13.54,13.54,0,0,0,3.09,1.16c2.62.71,5.25,1.38,7.87,2.1a13.72,13.72,0,0,1,3.81,1.7,8.44,8.44,0,0,1,4.14,6.72,9.8,9.8,0,0,1-3.34,8.6,12.88,12.88,0,0,1-6,2.84,21.41,21.41,0,0,1-11.2-.48,11.81,11.81,0,0,1-6.43-4.62,11,11,0,0,1-1.82-6.26c0-.28.08-.35.34-.34Z"/><path class="cls-1" d="M110.25,181.09l1.51-4q5.65-14.91,11.31-29.81a.54.54,0,0,1,.61-.42c2.29,0,4.57,0,6.86,0a.52.52,0,0,1,.59.4q6.24,16.73,12.5,33.45c.11.29.14.42-.26.41h-7.08a.42.42,0,0,1-.48-.35c-.77-2.3-1.56-4.59-2.33-6.89-.1-.27-.21-.38-.52-.37q-6,0-12,0c-.31,0-.41.1-.51.37-.8,2.31-1.62,4.6-2.43,6.9-.07.2-.12.35-.4.34h-7.16ZM127,155.27a1.62,1.62,0,0,0-.1.23c-1.43,4-2.85,8.05-4.29,12.07-.11.32,0,.34.27.34,2.67,0,5.33,0,8,0,.41,0,.44-.1.31-.46q-1.68-4.87-3.35-9.76Z"/><path class="cls-1" d="M48.92,164q0,8.31,0,16.64c0,.41-.13.49-.51.48H41.79c-.33,0-.4-.08-.4-.41q0-16.72,0-33.45c0-.35.11-.4.41-.4,2.25,0,4.49,0,6.73,0,.34,0,.4.09.4.41Q48.92,155.63,48.92,164Z"/><path class="cls-1" d="M83.35,107.37a22.4,22.4,0,0,1-1.48,8.53,9.08,9.08,0,0,1-6.46,5.83c-3.76.87-7.2.28-10-2.59a13.44,13.44,0,0,1-3.31-6.33,23,23,0,0,1,.37-12.44A11.65,11.65,0,0,1,64.92,96a9.44,9.44,0,0,1,6.58-3.08,10.92,10.92,0,0,1,5.61.91A9.84,9.84,0,0,1,82,99.42a19.62,19.62,0,0,1,1.22,5.82C83.31,106,83.37,106.66,83.35,107.37Zm-13.73,6.15a7.13,7.13,0,0,0-.63-3.18c-.26-.53-.59-1.08-1.3-1.08s-1,.53-1.29,1.08a7.63,7.63,0,0,0,0,6.21c.23.56.59,1.09,1.29,1.09s1-.56,1.32-1.11A7.21,7.21,0,0,0,69.62,113.52Z"/><path class="cls-1" d="M18.08,107.12A20,20,0,0,1,20,98.44a9.35,9.35,0,0,1,6-5.2,9.57,9.57,0,0,1,11.69,5.37,19.17,19.17,0,0,1,1.76,7.06,22.44,22.44,0,0,1-1,8.73,11.56,11.56,0,0,1-4.09,6,9.27,9.27,0,0,1-6.18,1.68,9.28,9.28,0,0,1-8-5.2,17.42,17.42,0,0,1-1.94-6.51A26.8,26.8,0,0,1,18.08,107.12Zm17.79,6.29a7,7,0,0,0-.64-3.08c-.27-.52-.59-1-1.26-1.07s-1,.52-1.31,1.06A6.28,6.28,0,0,0,32,113a6.79,6.79,0,0,0,.77,3.83c.66,1.1,1.65,1.08,2.3,0a5.18,5.18,0,0,0,.3-.63A7.59,7.59,0,0,0,35.87,113.41Z"/><path class="cls-1" d="M116.39,102.56h-9.61c-.62,0-.63,0-.56-.62a10.77,10.77,0,0,1,1.94-5.16,9.23,9.23,0,0,1,6.6-3.81,13.2,13.2,0,0,1,4.85.2,8,8,0,0,1,5.51,4.56,18.66,18.66,0,0,1,1.43,4.51c.06.32,0,.32-.29.32h-9.87Z"/></g></g></svg>