<svg xmlns="http://www.w3.org/2000/svg" viewBox="0 0 28.97 28.97"><defs><style>.cls-1{fill:#e20613;}</style></defs><title>click</title><g id="Calque_2" data-name="Calque 2"><g id="Calque_1-2" data-name="Calque 1"><path d="M28.69,24.51l-5.77-5.77L27,16.36a1,1,0,0,0,.49-.91,1,1,0,0,0-.61-.83L8.57,7.31A1,1,0,0,0,7.31,8.57l7.31,18.34a1,1,0,0,0,.83.61,1,1,0,0,0,.91-.48l2.38-4.12,5.76,5.77a1,1,0,0,0,.69.28,1,1,0,0,0,.68-.28l2.82-2.81A1,1,0,0,0,28.69,24.51Zm-3.5,2.12-6-6a1,1,0,0,0-.69-.28H18.4a1,1,0,0,0-.71.48l-2,3.48L9.94,9.94l14.4,5.74-3.48,2a1,1,0,0,0-.2,1.53l6,6Z"/><path class="cls-1" d="M4.25,2.88A1,1,0,0,0,2.88,4.25L5,6.41a.93.93,0,0,0,.68.28,1,1,0,0,0,.69-.28A1,1,0,0,0,6.41,5Z"/><path class="cls-1" d="M5,9.58a1,1,0,0,0-1-1H1a1,1,0,0,0,0,1.94H4A1,1,0,0,0,5,9.58Z"/><path class="cls-1" d="M4.59,12.57,2.44,14.72a1,1,0,0,0,0,1.37,1,1,0,0,0,.68.29,1,1,0,0,0,.69-.29L6,13.94a1,1,0,1,0-1.37-1.37Z"/><path class="cls-1" d="M9.58,5a1,1,0,0,0,1-1V1A1,1,0,0,0,8.61,1V4A1,1,0,0,0,9.58,5Z"/><path class="cls-1" d="M13.26,6.24A1,1,0,0,0,13.94,6l2.15-2.15a1,1,0,1,0-1.37-1.37L12.57,4.59a1,1,0,0,0,.69,1.65Z"/></g></g></svg>