<svg xmlns="http://www.w3.org/2000/svg" viewBox="0 0 31.67 31.67"><defs><style>.cls-1{fill:#1d1d1b;}.cls-2{fill:#e20613;}</style></defs><title>IG</title><g id="Calque_2" data-name="Calque 2"><g id="Calque_1-2" data-name="Calque 1"><path class="cls-1" d="M21.91,0H9.76A9.76,9.76,0,0,0,0,9.76V21.91a9.76,9.76,0,0,0,9.76,9.76H21.91a9.76,9.76,0,0,0,9.76-9.76V9.76A9.76,9.76,0,0,0,21.91,0Zm6.72,20.75a7.88,7.88,0,0,1-7.88,7.88H10.92A7.88,7.88,0,0,1,3,20.75V10.92A7.88,7.88,0,0,1,10.92,3h9.83a7.88,7.88,0,0,1,7.88,7.88Z"/><path class="cls-2" d="M16.26,7.55a8.34,8.34,0,1,0,8.34,8.34A8.33,8.33,0,0,0,16.26,7.55Zm0,13.36a5,5,0,1,1,5-5A5,5,0,0,1,16.26,20.91Z"/><path class="cls-2" d="M26.15,7.42A2.13,2.13,0,1,1,24,5.3,2.13,2.13,0,0,1,26.15,7.42Z"/></g></g></svg>