<svg xmlns="http://www.w3.org/2000/svg" viewBox="0 0 27.52 32.99"><defs><style>.cls-1{fill:#1d1d1b;}.cls-2{fill:#e20613;}</style></defs><title>YT</title><g id="Calque_2" data-name="Calque 2"><g id="Calque_1-2" data-name="Calque 1"><path class="cls-1" d="M11.08,0,9.82,3.18C9.47,4.07,9.1,5,8.75,5.87a1.08,1.08,0,0,0,0,.36v6.34c0,.35,0,.35-.34.35H7c-.31,0-.31,0-.31-.3,0-2,0-4,0-6a3.2,3.2,0,0,0-.3-1.34C5.67,3.61,5,1.92,4.24.23A1.55,1.55,0,0,1,4.18,0H6.34L7.59,4.3h0L8.87,0Z"/><path class="cls-2" d="M13.75,33c-3.05,0-6.09,0-9.14,0a4.57,4.57,0,0,1-3.2-1.18A4,4,0,0,1,0,28.74c0-3.25,0-6.5,0-9.75a4.08,4.08,0,0,1,2.45-3.75,4.65,4.65,0,0,1,2.16-.49H22.91A4.64,4.64,0,0,1,26.16,16a4.11,4.11,0,0,1,1.36,3.16v9.3a7,7,0,0,1,0,.79,4.12,4.12,0,0,1-2.22,3.19,4.56,4.56,0,0,1-2.35.58C19.86,33,16.8,33,13.75,33Zm1.72-4,.19.12a8.73,8.73,0,0,0,.74.5,1.34,1.34,0,0,0,2-.63,4.13,4.13,0,0,0,.31-1.72q0-2.18,0-4.35a3.89,3.89,0,0,0-.12-1,1.39,1.39,0,0,0-1.74-1.12,4.92,4.92,0,0,0-1,.46l-.16.08c0-.06,0-.13-.05-.19V21c0-.91,0-1.82,0-2.74,0-.19-.05-.26-.25-.25H14.05c-.27,0-.27,0-.27.28v3.6c0,2.5,0,5,0,7.48,0,.35,0,.32.33.32s.65,0,1,0a.24.24,0,0,0,.29-.24A4.57,4.57,0,0,1,15.47,29Zm-4.42-.24h.06c0,.26,0,.52,0,.77s.05.26.24.25c.34,0,.68,0,1,0,.19,0,.23-.07.23-.24,0-.69,0-1.37,0-2.06,0-2,0-4.09,0-6.13,0-.21-.06-.27-.27-.27-.43,0-.87,0-1.31,0s-.31,0-.31.3c0,2,0,4,0,6.06a1.93,1.93,0,0,1,0,.34.73.73,0,0,1-.64.6.51.51,0,0,1-.49-.55c0-.57,0-1.14,0-1.71V22.26c0-.32,0-.65,0-1,0-.12,0-.21-.17-.2H7.86c-.12,0-.17.05-.17.17v.24c0,2,0,4,0,6a13,13,0,0,0,.08,1.39,1,1,0,0,0,.85.92,2.46,2.46,0,0,0,2.17-.75A2.51,2.51,0,0,0,11.05,28.75Zm8.8-3.68h0c0,.59,0,1.19,0,1.79a3.69,3.69,0,0,0,.51,1.88,2.36,2.36,0,0,0,2.79,1,2.51,2.51,0,0,0,1.52-2.84.22.22,0,0,0-.17-.14c-.36,0-.72,0-1.08,0-.12,0-.17,0-.17.17a6.09,6.09,0,0,1,0,.74,1.07,1.07,0,0,1-.12.44,1,1,0,0,1-1.4.26.63.63,0,0,1-.33-.53c0-.69,0-1.37,0-2.06a.14.14,0,0,1,.16-.16h2.87c.13,0,.26,0,.25-.19,0-1.11-.06-2.21-.12-3.32a1.44,1.44,0,0,0-.54-1,2.25,2.25,0,0,0-1.43-.51,2.69,2.69,0,0,0-1.71.48A2.29,2.29,0,0,0,20,22.74C19.92,23.52,19.9,24.3,19.85,25.07Zm-16-.44V29.5c0,.28,0,.28.28.28H5.52c.16,0,.24,0,.22-.21V19.88c0-.34,0-.34.35-.34H7.8c.16,0,.24,0,.23-.22q0-.54,0-1.08c0-.15,0-.21-.21-.21H2.16c-.15,0-.22,0-.22.21q0,.53,0,1.05c0,.16.07.21.22.21.46,0,.92,0,1.37,0s.32,0,.32.31Z"/><path class="cls-1" d="M19.84,12c-.12.14-.23.29-.36.42a1.32,1.32,0,0,1-2.13-.5,2.19,2.19,0,0,1-.16-.75c0-2.46,0-4.93-.05-7.39,0-.2.07-.26.26-.26.41,0,.83,0,1.24,0s.28,0,.28.28v6.58a1.27,1.27,0,0,0,0,.34.67.67,0,0,0,1.28.08,1.54,1.54,0,0,0,.06-.43V3.9c0-.34,0-.34.35-.34h1.1c.19,0,.26.06.25.24a.57.57,0,0,0,0,.13V12.3c0,.34,0,.35-.35.35H20.08c-.25,0-.26,0-.24-.27,0-.1,0-.21,0-.31Z"/><path class="cls-1" d="M16,8c0,.88,0,1.74-.11,2.6a2.5,2.5,0,0,1-1.12,2,2.33,2.33,0,0,1-1.15.31,3.19,3.19,0,0,1-1.37-.19,1.71,1.71,0,0,1-1.09-1.26,8.28,8.28,0,0,1-.21-1.64c0-1.23,0-2.45,0-3.68a5.42,5.42,0,0,1,.19-1.27,2.06,2.06,0,0,1,1.61-1.59,2.66,2.66,0,0,1,2,.27,2.32,2.32,0,0,1,1.14,1.88C15.94,6.28,15.94,7.13,16,8Zm-3.37.1v.82c0,.57,0,1.14,0,1.71a.84.84,0,0,0,.63.78.76.76,0,0,0,.86-.4,1.34,1.34,0,0,0,.16-.6c0-1.53,0-3.07,0-4.6a1.27,1.27,0,0,0,0-.34.88.88,0,0,0-.68-.68.79.79,0,0,0-.84.46,1.25,1.25,0,0,0-.1.51C12.6,6.5,12.61,7.28,12.61,8.06Z"/><path class="cls-2" d="M15.65,25.11c0-.81,0-1.61,0-2.42a.73.73,0,0,1,.52-.76.78.78,0,0,1,1.16.73c0,1.63,0,3.26,0,4.89a.73.73,0,0,1-.53.76.85.85,0,0,1-1-.25,1,1,0,0,1-.17-.5c0-.82,0-1.63,0-2.45Z"/><path class="cls-2" d="M23.3,23.47c0,.16,0,.32,0,.48a.17.17,0,0,1-.19.19q-.73,0-1.47,0c-.14,0-.19-.07-.19-.2,0-.29,0-.58,0-.87a.93.93,0,0,1,1.85.06v.34Z"/></g></g></svg>