<?xml version="1.0" encoding="UTF-8"?><svg width="567" height="567" version="1.1" viewBox="0 0 567 567" xmlns="http://www.w3.org/2000/svg" xmlns:xlink="http://www.w3.org/1999/xlink"><!--Generated by IJSVG (https://github.com/curthard89/IJSVG)--><g transform="scale(1.00012)"><g fill="#241F20"><path d="M30,10.9734l-2.02141e-08,-4.74397e-08c-3.19113,-7.48915 -11.8492,-10.9734 -19.3383,-7.78225c-0.879749,0.374861 -1.72093,0.834445 -2.51165,1.37225c-3.39,2.33 -5.13,5.8 -6.25,9.61c-1.69,5.72 -1.9,11.6 -1.69,17.5l-7.27914e-07,-0.000108994c0.0305128,4.56973 0.824782,9.1022 2.34996,13.41c1.68,4.38 4.36,7.81 9,9.36l7.52192e-07,1.34439e-07c0.925793,0.165467 1.83577,0.409687 2.72,0.73h4.42c0.15,-0.3 0.45,-0.19 0.68,-0.23l-2.32027e-08,3.40253e-09c3.62011,-0.53087 6.85196,-2.55485 8.91,-5.58l2.82462e-07,-4.1857e-07c1.52522,-2.26016 2.62023,-4.7824 3.23,-7.44c1.56,-6.22 1.59,-12.54 1.19,-18.87l1.34026e-06,3.47264e-05c-0.160475,-4.15802 -1.07885,-8.25179 -2.70995,-12.0799Zm-1.76,17.35l8.78938e-07,2.22438e-05c0.189675,4.80026 -0.349794,9.60152 -1.6,14.24l-3.83894e-08,1.42919e-07c-0.632398,2.35433 -1.85415,4.50875 -3.55,6.26c-3.41,3.37 -11.63,3.89 -15.14,-2.66l-3.76127e-07,-7.32162e-07c-1.46633,-2.85432 -2.36943,-5.96425 -2.66,-9.16l-2.76258e-06,-2.12573e-05c-0.869766,-6.69263 -0.667224,-13.4811 0.600005,-20.11l-6.01631e-07,3.82128e-06c0.449145,-2.85276 1.66203,-5.53077 3.51,-7.75l1.59155e-07,-1.72656e-07c3.64592,-3.9552 9.80785,-4.20593 13.7631,-0.560008c0.455241,0.419642 0.869431,0.881737 1.23695,1.38001c2.16,3 2.9,6.48 3.41,10l6.10874e-07,4.56292e-06c0.37088,2.77029 0.514694,5.56625 0.430005,8.35997Z" transform="translate(270.55, 422.087)"></path><path d="M23.3301,26.5603l2.86319e-07,1.30747e-07c-1.47012,-0.671329 -2.97567,-1.2622 -4.50998,-1.76999l-4.32681e-07,-1.21142e-07c-2.86676,-0.802639 -5.64441,-1.89493 -8.29,-3.26l-7.56912e-08,-4.02026e-08c-3.64698,-1.93705 -5.55647,-6.06679 -4.67,-10.1c0.81,-4.21 3.46,-6.75 8,-7.31c5,-0.61 9.22,1.23 10.4,6.84c0.22,1.06 -0.3,2.57 0.69,3.08c0.99,0.51 2.24,0.06 3.38,0.12c0.67,0 1,-0.15 0.86,-0.85c-0.14,-0.7 -0.13,-1.69 -0.23,-2.53c-0.62,-5.44 -3.81,-9.06 -9,-10.24l2.23705e-06,4.79913e-07c-1.76701,-0.379074 -3.57379,-0.540275 -5.38,-0.480001c-7.34,0.16 -12.37,4.38 -13.32,11.43c-0.54,4 0,7.89 2.92,11l8.75797e-07,8.56073e-07c1.87284,1.83066 4.14619,3.20015 6.64,4c3,1.13 6,1.89 8.92,3.2c4.58,2.09 6.37,5 6.17,10l-4.94476e-08,0.000102449c-0.00201586,4.12849 -2.78012,7.73952 -6.7701,8.79992l3.46575e-07,-9.80358e-08c-1.84843,0.522867 -3.7801,0.685819 -5.69,0.48l3.58074e-07,2.00607e-08c-4.00248,-0.224235 -7.36637,-3.08537 -8.23,-7l-7.39918e-07,-2.9592e-06c-0.402712,-1.61059 -0.564469,-3.27198 -0.479999,-4.93c0,-0.7 -0.19,-0.89 -0.87,-0.85l2.40303e-07,-1.6764e-08c-0.955506,0.0666578 -1.91449,0.0666578 -2.87,3.3528e-08c-0.83,-0.07 -1,0.27 -0.94,1c0.1,1.17 0.11,2.35 0.21,3.53c0.55,6.14 4.15,10.39 9.94,11.77l3.16618e-07,3.19702e-08c0.826652,0.0834705 1.64158,0.257857 2.42999,0.519998h4.86c0.15,-0.3 0.45,-0.19 0.68,-0.22c4.53,-0.66 8.27,-2.58 10.57,-6.73l3.52894e-07,-6.84945e-07c1.28696,-2.49791 1.91999,-5.28119 1.84,-8.09l-1.61836e-07,3.11114e-06c0.258097,-4.96165 -2.65618,-9.54185 -7.25992,-11.41Z" transform="translate(234.86, 424.17)"></path><path d="M24.7749,27.4215l-1.83831e-07,-1.04826e-07c-1.69329,-0.965565 -3.47883,-1.75951 -5.33,-2.37c-3.08,-1.08 -6.25,-1.93 -9.12,-3.56c-5.93,-3.35 -5.59,-10.89 -2.63,-14.25c2.6,-3 6,-3.56 9.65,-3l-7.26685e-08,-7.46917e-09c3.26118,0.335195 5.93468,2.73407 6.62,5.94l-1.24792e-07,-4.26395e-07c0.310809,1.06199 0.465759,2.16348 0.46,3.27c0,0.57 0.17,0.78 0.75,0.76l8.92172e-07,-4.52666e-08c1.02934,-0.052226 2.06066,-0.052226 3.09,9.05332e-08c0.75,0 0.88,-0.29 0.82,-0.91c-0.1,-1 -0.12,-2 -0.28,-3c-0.79,-4.77 -3.28,-8.13 -8.05,-9.51l-5.85626e-07,-1.59394e-07c-2.02848,-0.552105 -4.12931,-0.791526 -6.23,-0.71c-7.62,0.16 -12.68,4.56 -13.43,12c-0.64,6.4 1.62,10.88 7.54,13.58c1.1,0.5 2.24,0.93 3.38,1.34c2.69,1 5.46,1.75 8.07,3c6.3,2.91 6.67,9 4.81,13.61c-1.43,3.57 -4.49,4.95 -8.08,5.46c-6.76,1 -11.67,-2.83 -12.12,-9.31c-0.08,-1.14 0.65,-2.72 -0.42,-3.32c-1.07,-0.6 -2.37,-0.08 -3.59,-0.13c-0.58,0 -0.66,0.23 -0.65,0.72l-3.38409e-07,1.56417e-05c-0.0349174,1.61395 0.048641,3.22828 0.250002,4.83l-7.68934e-07,-6.8665e-06c0.593577,5.30059 4.5204,9.62252 9.73999,10.72l-1.01371e-07,-8.76133e-09c0.826172,0.0714049 1.63961,0.249555 2.42,0.53h4.64c0.24,-0.33 0.61,-0.17 0.91,-0.21c5.38,-0.78 9.48,-3.29 11.45,-8.59l4.48584e-07,-1.28257e-06c0.85352,-2.44035 1.17405,-5.03531 0.939999,-7.61l-1.11582e-07,-3.55416e-06c-0.121207,-3.86074 -2.2478,-7.37853 -5.61,-9.28001Z" transform="translate(200.715, 424.138)"></path><path d="M31.2879,35.9591c-1,0 -1.92,0.07 -2.87,0c-0.95,-0.07 -1.15,0.31 -1.22,1.17l-1.10435e-07,3.32502e-06c-0.109354,3.29249 -1.11177,6.4933 -2.9,9.26l-1.13122e-07,1.60573e-07c-3.00262,4.26211 -8.89184,5.28313 -13.154,2.28052c-0.468131,-0.329794 -0.905282,-0.701498 -1.30605,-1.11052l-1.00655e-06,-1.12626e-06c-1.85099,-2.07113 -3.09947,-4.6096 -3.61,-7.34l-1.10498e-06,-5.1929e-06c-1.12796,-5.30092 -1.51165,-10.7332 -1.14,-16.14l-1.51084e-06,0.000117347c0.0503195,-3.90882 0.725501,-7.78444 1.99996,-11.48c1,-2.57 2.33,-4.87 4.83,-6.23c6.28,-3.44 13.38,0.24 14.66,7.53c0.19,1.06 -0.3,2.54 0.57,3.07c0.87,0.53 2.15,0.12 3.25,0.13l-1.03963e-07,6.5603e-09c0.109891,-0.00693437 0.220109,-0.00693437 0.33,-1.31207e-08c0.58,0.08 0.8,-0.17 0.74,-0.75c-0.1,-1 -0.13,-1.91 -0.26,-2.86l4.6828e-07,3.12658e-06c-1.19599,-7.98534 -8.63893,-13.4892 -16.6243,-12.2932c-2.30133,0.344679 -4.48715,1.23371 -6.37573,2.59319c-3.59,2.62 -5.3,6.42 -6.35,10.56l-2.52419e-06,1.10226e-05c-1.44918,6.32826 -1.85787,12.8503 -1.21,19.31l-1.57594e-06,-3.31447e-05c0.194365,4.08787 1.11894,8.10794 2.72998,11.87c1.85,4 4.69,7 9.1,8.21l3.09637e-09,3.73916e-10c0.748224,0.0903614 1.48325,0.268245 2.19,0.53h4.2c0.12,-0.26 0.37,-0.19 0.57,-0.22l3.23693e-07,-4.2183e-08c3.78623,-0.493415 7.15351,-2.6539 9.18,-5.89c2.28,-3.54 3.08,-7.51 3.38,-11.63c-0.0199427,-0.580071 -0.309943,-0.580071 -0.709943,-0.570071Z" transform="translate(310.022, 422.991)"></path><path d="M31.88,0.1l2.44069e-07,-2.11297e-08c-0.918283,0.0794981 -1.84172,0.0794982 -2.76,4.22594e-08c-1,-0.1 -1.39,0.23 -1.63,1.22c-3.33333,13.68 -6.66667,27.3467 -10,41c-0.31,1.25 -0.64,2.5 -1,3.78c-0.33,-0.17 -0.3,-0.37 -0.34,-0.54l-4.63,-18.73c-2.12,-8.6 -4.26,-17.2 -6.35,-25.8c-0.18,-0.73 -0.45,-1 -1.17,-0.93c-1.32,0 -2.65,0 -4,0v0.66l-4.86301e-08,-7.87429e-08c0.0918702,0.148758 0.168907,0.30618 0.23,0.469999c1.18667,4.47333 2.36667,8.95 3.54,13.43c3.14667,11.94 6.29,23.88 9.43,35.82c0.18,0.7 0.43,1 1.16,0.94c1.32,-0.06 2.65,-0.05 4,0c0.71,0 1,-0.19 1.17,-0.91c2.32,-8.93 4.68,-17.84 7,-26.76c2,-7.57 4,-15.14 6,-22.7c0.22,-0.729999 0.17,-1.04 -0.65,-0.949999Z" transform="translate(71.41, 424.99)"></path><path d="M424.93,316.004l-52.36,-136.49c-22.7733,-59.4267 -45.5433,-118.857 -68.31,-178.29c-0.28,-0.74 -0.58,-1.08 -1.46,-1.08c-20.9667,0 -41.9367,0 -62.91,0l9.90229e-09,8.19512e-10c-0.617029,-0.0510653 -1.17847,0.357255 -1.32,0.96c-18.1733,47.46 -36.3567,94.9133 -54.55,142.36c-1.92,5 -3.8,10 -5.7,15c-0.13,0.26 -0.28,0.52 -0.38,0.79l-26.2,68.34l-2.28,5.92c-0.21,-0.53 -0.34,-0.85 -0.47,-1.18l-28.5,-74.23c-20.04,-52.2867 -40.0767,-104.577 -60.11,-156.87l4.60577e-08,2.47097e-07c-0.137145,-0.735779 -0.828747,-1.23356 -1.57,-1.13c-19.6,0 -39.2033,0 -58.81,0v0.44c0.32,0.24 0.33,0.63 0.46,1c3.91333,10.6667 7.82667,21.3667 11.74,32.1c20.12,55.0533 40.2267,110.107 60.32,165.16c14.28,39.35 29.4,78.38 44.3,117.49l-4.79361e-10,-1.9308e-09c0.152468,0.614159 0.742931,1.01498 1.37,0.93c20.86,0 41.7167,0 62.57,0l2.25083e-08,3.15265e-09c0.590239,0.082672 1.14583,-0.299298 1.28,-0.88c2.22,-5.88 4.49,-11.74 6.74,-17.6c7.6,-19.83 15.32,-39.62 22.75,-59.52c8,-21.31 15.65,-42.71 23.45,-64.08c2,-5.52 4,-11.05 6,-16.58c-0.22,0 -0.44,0 -0.66,0c0.22,0 0.44,0 0.66,0c0.1,-0.24 0.21,-0.47 0.3,-0.71l28.29,-77.42c0.59,-1.6 1.19,-3.2 1.85,-5c3.8,10.4 7.51,20.58 11.23,30.76c16.2,44.31 32.26,88.68 48.65,132.92c9.57,25.84 19.66,51.49 29.48,77.24c0.31,0.81 0.79,0.8 1.43,0.8h61.91c1.25,0.02 1.25,0.02 0.81,-1.15Z" transform="translate(71.43, 89.8964)"></path><path d="M28.26,6.86931l-2.26775e-07,-2.4583e-07c-4.95795,-5.37456 -12.8501,-6.86931 -19.43,-3.68l-6.95609e-07,3.13821e-07c-5.30548,2.39354 -8.74737,7.64018 -8.83,13.46l-4.09631e-08,-3.74722e-05c0.00153468,1.40556 0.207005,2.80345 0.609989,4.15c3.14,10.68 17.06,14.69 25.88,7.45l1.04813e-07,-8.23468e-08c6.35792,-4.99513 7.46267,-14.1986 2.46754,-20.5565c-0.22231,-0.282961 -0.454977,-0.55763 -0.697528,-0.823447Z" transform="translate(327.26, 286.701)"></path><path d="M21.25,1.06c-0.21,-0.7 -0.45,-1 -1.26,-1l-6.77701e-07,4.73174e-08c-1.24847,0.0871688 -2.5015,0.0871693 -3.74998,1.49822e-06c-0.87,-0.06 -1.19,0.27 -1.42,1.07c-4.31333,14.6667 -8.64667,29.3333 -13,44c-0.61,2.06 -1.2,4.12 -1.82,6.25c1.35,0 2.57,-0.07 3.78,0c0.91,0.07 1.27,-0.24 1.5,-1.11c1.15,-4.29 2.38,-8.57 3.54,-12.86c0.19,-0.72 0.45,-1 1.25,-1c5.33333,0.04 10.6367,0.04 15.91,0l-9.82575e-08,1.77344e-08c0.586983,-0.105944 1.14871,0.284015 1.25466,0.870998c0.00769855,0.0426537 0.0128224,0.0857323 0.0153438,0.129002c1.19,4.4 2.44,8.78 3.67,13.17c0.11,0.38 0.09,0.82 0.69,0.81c1.46,0 2.92,0 4.49,0c-1.29,-4.34 -2.55,-8.56 -3.79,-12.79c-3.69335,-12.5133 -7.38002,-25.0267 -11.06,-37.54Zm3.72,31.49c-4.64,0 -9.28,0 -13.92,0c-0.6,0 -0.95,0 -0.71,-0.81c2.53,-9.1 5,-18.21 7.5,-27.31c0,-0.17 0.11,-0.35 0.24,-0.74l1.93,7.07c1.9,6.95 3.78,13.9 5.72,20.83c0.24,0.87 0.02,0.97 -0.76,0.96Z" transform="translate(162.97, 425.01)"></path><path d="M21.25,1.06c-0.21,-0.7 -0.47,-1 -1.26,-1l-8.39469e-07,5.63301e-08c-1.25193,0.0840068 -2.50807,0.0840068 -3.76,-1.1266e-07c-0.86,-0.06 -1.18,0.25 -1.42,1.06c-3.04,10.4 -6.10667,20.7967 -9.2,31.19c-1.86,6.3 -3.72,12.61 -5.61,19c1.44,0 2.73,0 4,0c0.71,0 1,-0.17 1.2,-0.89c1.17,-4.36 2.43,-8.71 3.62,-13.07c0.19,-0.72 0.45,-1 1.25,-1c5.33333,0.04 10.64,0.04 15.92,0l-9.82575e-08,1.77344e-08c0.586983,-0.105944 1.14871,0.284015 1.25466,0.870998c0.00769855,0.0426537 0.0128224,0.0857323 0.0153438,0.129002c1.18,4.4 2.44,8.78 3.67,13.17c0.11,0.38 0.08,0.82 0.68,0.81c1.46,0 2.93,0 4.49,0c-1.29,-4.34 -2.54,-8.56 -3.79,-12.79c-3.68667,-12.4733 -7.37333,-24.9667 -11.06,-37.48Zm3.77,31.5c-4.68,0 -9.35,0 -14,0c-0.55,0 -0.88,0 -0.67,-0.76c2.56667,-9.27333 5.11,-18.5567 7.63,-27.85h0.19l3,10.94c1.52,5.56 3,11.13 4.58,16.69c0.16,0.7 0.18,0.99 -0.73,0.98Z" transform="translate(356.68, 425.01)"></path><path d="M26.21,48.63c0.11,-1 -0.22,-1.23 -1.2,-1.22c-6.41,0 -12.82,0 -19.23,0c-0.8,0 -1.06,-0.16 -1.05,-1c0.04,-6.3 0.04,-12.6 0,-18.9c0,-0.8 0.25,-1 1,-1c5.2,0 10.39,0 15.59,0c2.86,0 2.81,0 2.87,-2.86c0,-1 -0.31,-1.12 -1.19,-1.12c-5.75,0 -11.5,0 -17.24,0c-0.85,0 -1,-0.23 -1,-1c0.04,-5.52667 0.04,-11.0533 0,-16.58c0,-0.86 0.26,-1 1.05,-1c5.64,0 11.27,0 16.91,0c2.86,0 2.82,0 2.87,-2.85c0,-0.88 -0.23,-1.1 -1.1,-1.1c-7.77333,0.0333333 -15.5467,0.0333333 -23.32,0c-0.91,0 -1.17,0.22 -1.17,1.15c0,8.14 0,16.29 0,24.43c0,8.14 0,16.43 0,24.65c0,0.87 0.23,1.09 1.1,1.09c7.44,0 14.89,0 22.33,0c0.91,0 2.11,0.42 2.63,-0.2c0.52,-0.62 0.05,-1.63 0.15,-2.49Z" transform="translate(121.06, 425)"></path><path d="M24.91,47.45c-6.41,0 -12.82,0 -19.23,0c-0.81,0 -1.05,-0.18 -1,-1c0.04,-6.3 0.04,-12.6 0,-18.9c0,-0.81 0.26,-1 1,-1c5.16,0 10.32,0 15.48,0c0.94,0 2.2,0.42 2.74,-0.2c0.54,-0.62 0.1,-1.76 0.19,-2.67c0.09,-0.91 -0.18,-1.1 -1.07,-1.1c-5.75,0 -11.5,0 -17.24,0c-0.84,0 -1.11,-0.19 -1.1,-1.07c0.0466667,-5.48667 0.0466667,-10.9767 0,-16.47c0,-0.86 0.21,-1.1 1.09,-1.1c5.64,0 11.27,0 16.91,0c0.9,0 2.06,0.41 2.64,-0.2c0.58,-0.61 0.07,-1.7 0.17,-2.57c0.1,-0.87 -0.22,-1.17 -1.14,-1.16c-7.74,0.04 -15.4767,0.04 -23.21,0c-0.94,0 -1.14,0.28 -1.14,1.17c0,8.14 0,16.29 0,24.43c0,8.14 0,16.21 0,24.32c0,1 0.16,1.42 1.34,1.41c7.37,-0.07 14.74,0 22.11,0c2.71,0 2.66,0 2.72,-2.76c-0.03,-0.88 -0.28,-1.14 -1.26,-1.13Z" transform="translate(470.04, 424.96)"></path><path d="M31.81,0.1l1.90122e-07,-1.20095e-08c-1.0656,0.067311 -2.13438,0.0673115 -3.19998,1.52775e-06c-0.67,0 -0.89,0.24 -1,0.82c-2.22,9.07333 -4.44667,18.1433 -6.68,27.21l-4.53,18.41c-0.16,-0.54 -0.24,-0.78 -0.31,-1c-3.63333,-14.78 -7.26333,-29.5633 -10.89,-44.35c-0.18,-0.73 -0.41,-1.15 -1.28,-1.06l1.08754e-06,-9.47481e-08c-0.918261,0.0800001 -1.84174,0.0800001 -2.76,1.89496e-07c-1,-0.07 -1.16,0.17 -0.9,1.15c2.28,8.52 4.5,17.06 6.74,25.59c2.07333,7.89333 4.14667,15.7867 6.22,23.68c0.16,0.61 0.38,0.92 1.09,0.88l-8.61099e-07,5.73304e-08c1.25194,-0.0833518 2.50804,-0.0833524 3.75997,-1.79028e-06c1,0.07 1.29,-0.28 1.53,-1.18c2.66667,-10.28 5.36667,-20.5567 8.1,-30.83c1.61,-6.12 3.2,-12.24 4.83,-18.35c0.140001,-0.7 0.140001,-1.07 -0.719999,-0.97Z" transform="translate(433.33, 425)"></path><path d="M30.35,0.41c-9,0 -18,0 -27,0c-0.94,0 -2.17,-0.41 -2.76,0.18c-0.59,0.59 -0.1,1.83 -0.2,2.77c-0.1,0.94 0.25,1 1,1c3.72,0 7.44,0 11.16,0c0.9,0 1.07,0.27 1.07,1.11c0,7.52 0,15 0,22.55c0,4.49333 0,8.99 0,13.49c0,3.1 0,6.19 0,9.29c0,0.79 0.22,1 1,1l-5.03129e-07,4.88646e-08c0.771518,-0.074931 1.54848,-0.0749311 2.32,-9.77293e-08c1.06,0.12 1.4,-0.16 1.4,-1.33c0,-14.92 0,-29.85 -0.06,-44.77c0,-1.11 0.32,-1.32 1.35,-1.3c3.06,0.07 6.12,0 9.17,0c2.74,0 2.7,0 2.76,-2.72c0.0100005,-0.98 -0.189999,-1.28 -1.21,-1.27Z" transform="translate(388.43, 424.68)"></path><path d="M4.77,1.23c0,-0.83 -0.16,-1.21 -1.08,-1.11l3.82382e-07,-4.24959e-08c-0.807514,0.0897428 -1.62249,0.0897428 -2.43,8.49918e-08c-1,-0.12 -1.2,0.28 -1.2,1.22c0,16.3133 0,32.6267 0,48.94l8.46189e-08,1.41292e-06c0.00877591,0.146535 0.00877585,0.293465 -1.69238e-07,0.44c-0.06,0.52 0.14,0.72 0.68,0.7l1.13269e-06,-7.28431e-08c0.955673,-0.061459 1.91431,-0.0614593 2.86998,-1.17882e-06c0.94,0.09 1.14,-0.24 1.14,-1.15c0,-8.17 0,-16.35 0,-24.52c0,-8.17 -0.0499808,-16.35 0.0200192,-24.52Z" transform="translate(108.3, 424.98)"></path><path d="M3.52,0.1l-3.60353e-07,3.48831e-08c-0.808111,0.0782272 -1.62189,0.0782271 -2.43,-6.97661e-08c-0.89,-0.09 -1.09,0.23 -1.08,1.09c0,8.14 0,16.28 0,24.42c0,8.14 0,16.5 0,24.75c0,0.79 0.13,1.13 1,1l4.51586e-07,-4.20235e-08c0.881426,-0.0820234 1.76856,-0.0820237 2.64999,-7.57282e-07c0.83,0.07 1,-0.18 1,-1c0,-16.3933 0,-32.7833 0,-49.17c0.0400089,-0.939999 -0.249991,-1.19 -1.13999,-1.09Z" transform="translate(348.04, 425)"></path><path d="M4,0.22c-0.69,0.08 -1.4,0 -2.1,0c-1.71,0 -1.49,-0.22 -1.49,1.44c0,15.3933 0,30.7833 0,46.17c0,1.17 -0.41,2.74 0.19,3.41c0.6,0.67 2.29,0.12 3.48,0.26c0.88,0.11 1,-0.26 1,-1c0,-8.21 0,-16.42 0,-24.63c0,-8.21 0,-16.35 0,-24.52c-0.01,-0.87 -0.2,-1.23 -1.08,-1.13Z" transform="translate(424, 424.88)"></path></g></g></svg>