<?xml version="1.0" encoding="utf-8"?>
<!-- Generator: Adobe Illustrator 24.1.1, SVG Export Plug-In . SVG Version: 6.00 Build 0)  -->
<svg version="1.1" id="Calque_1" xmlns="http://www.w3.org/2000/svg" xmlns:xlink="http://www.w3.org/1999/xlink" x="0px" y="0px"
	 viewBox="0 0 1000 1000" style="enable-background:new 0 0 1000 1000;" xml:space="preserve">
<style type="text/css">
	.st0{fill:#FFFFFF;}
</style>
<g>
	<path class="st0" d="M766.9,136.8c-19.9-12.3-178.5-27.6-267.4-27.6S252,124.5,232.1,136.8c-19.9,12.3-26,19.9-26,46v405.3
		c0,13.8,6.7,43.1,7.7,46c12.3,36.8,76.6,113.4,164,180.9c87.2,67.3,108.7,75,121.7,75s34.5-7.7,121.8-75.1
		c87.4-67.4,151.7-144.1,164-180.9c1-2.9,7.7-32.2,7.7-46V182.7C793,156.8,786.9,149.1,766.9,136.8z M756,569.1
		c0,12.4-6,38.8-6.9,41.4c-11,33.1-68.4,102.1-146.4,162.7c-77.9,60.6-97.1,67.6-108.7,67.6c-11.6,0-30.8-6.9-108.6-67.5
		C307.3,712.6,250,643.7,239,610.6c-0.9-2.6-6.9-29-6.9-41.4V204.7c0-23.5,5.5-30.3,23.2-41.4c17.8-11.1,159.3-24.8,238.7-24.8
		c79.3,0,220.9,13.8,238.7,24.8c17.8,11.1,23.3,18,23.3,41.3V569.1z"/>
</g>
<polygon class="st0" points="519.6,724.7 559.3,730.7 530.3,758.6 536.8,798.3 501.4,779.3 465.6,797.8 472.7,758.2 444.1,729.9 
	484,724.4 502,688.5 "/>
<g>
	<g>
		<path class="st0" d="M400.5,364.1c0.5,0,0.9-0.1,1.4-0.2c0.9-0.3,1.4-0.7,1.4-1.2c0-0.2-0.2-0.6-0.6-1.3c-0.4-0.6-0.8-1.6-1.3-2.8
			c-0.5-1.3-0.9-2.9-1.4-4.9c-0.4-2-0.7-4.4-0.8-7.2c-0.3-6.8-0.3-14.5,0.1-23.2s0.9-17.4,1.7-26c0.8-8.7,1.7-16.8,2.8-24.5
			c1-7.7,2.2-13.9,3.4-18.6c-3.4,0.5-6.9,0.9-10.3,1.3c-3.4,0.4-7,0.6-10.5,0.8c-4.6,0.2-8.8,0.1-12.7-0.4c-3.9-0.5-7.4-1.2-10.3-2
			c-3-0.9-5.3-1.9-7.1-3.1c-1.7-1.2-2.7-2.4-2.7-3.7c0-0.2,0.1-0.5,0.3-0.7c0.1-0.1,0.3-0.2,0.5-0.4c1.8-0.1,2.7-0.2,4.5-0.3
			c0.2,0,0.5,0,0.8,0.1s0.5,0.2,0.8,0.3c0.3,0.2,0.5,0.4,0.8,0.5c0.6,0.1,1.5,0.1,2.3,0c0.8,0,1.7-0.1,2.7-0.1
			c7.7-0.4,15.5-1.4,23.3-3c7.9-1.6,15.8-3.3,23.7-5.1c7.9-1.8,15.8-3.5,23.7-5c7.9-1.5,15.6-2.3,23-2.5c1.7,0,3.1,0,4.1,0.1
			s1.8,0.2,2.2,0.3c0.5,0.1,0.8,0.4,0.9,0.5c0.3,0.3,1,1.1,2.4,2.2c1.3,1.1,2.7,2.3,4.2,3.7c1.4,1.3,2.7,2.6,3.9,3.7
			c1.1,1.1,1.7,1.9,1.7,2.2s-0.1,0.5-0.4,0.5c-0.1,0-0.1,0-0.2,0c-1.1,0-1.7,0-2.8,0c-9.8,0-20.1,1-29.7,2.9
			c-9.3,1.8-18.7,3.5-28.1,5.2c-0.3,0.7-0.5,1.4-0.5,2.2c0.6,17.5,1,35.1,1.2,52.7c0.3,17.2,0.7,34.5,1.2,51.7
			c0,0.2,0.1,0.5,0.2,0.7c0.3,0.6,0.6,0.8,1.1,0.8c1.2,0.2,3,0.3,5.4,0.4s4.8,0.2,7.4,0.3c2.6,0.1,4.9,0.2,7.1,0.4
			c2.2,0.2,3.7,0.4,4.5,0.6c0.2,0.1,0.7,0.4,1.4,0.8c0.7,0.4,1.2,0.8,1.5,1c0.1,0.1,0.5,0.2,1,0.2s1.1,0.1,1.7,0.1s1.1,0.1,1.6,0.2
			s0.8,0.2,1.1,0.3c1.1,1,1.6,1.5,2.7,2.5c0.5,0.7,1.4,1.4,2.7,2.1c1.3,0.7,2.6,1.4,3.9,2.1s3,1.4,5,2.3c0.1,0.1,0.1,0.1,0.2,0.2
			c0,0.1,0,0.2,0.1,0.3c0.1,0.1,0.1,0.2,0.1,0.3c0,0.5-0.3,0.9-1,1.2c-0.7,0.4-1.2,0.5-1.6,0.5c-0.6,0-1.6,0-3.1-0.1
			s-3.2-0.2-5.1-0.2c-1.9-0.1-4-0.1-6-0.2c-2.1-0.1-3.9-0.1-5.6,0c-6.5,0.2-13.5,0.6-21,1.4s-15.1,1.8-22.8,3.1
			c-7.7,1.3-15.2,2.8-22.7,4.5c-7.4,1.7-14.3,3.5-20.5,5.5c-1.6,0.1-3.1-0.1-4.4-0.6s-2.3-1.1-3-1.7c-0.9-0.7-1.8-1.7-2.3-2.8
			c0-0.6,0-1,0.2-1.2s0.8-0.7,1.8-1.3c6.5-3.7,14.2-7.2,23-10.4C383.3,368.7,392,366.1,400.5,364.1z"/>
		<path class="st0" d="M455.6,320.2c-0.4,0.3-0.8,0.5-1.4,0.5c-1.2,0-1.8-0.5-1.8-1.7c0-0.2,0.1-0.5,0.2-0.7
			c2.9-3.6,6.1-6.6,9.4-8.9c3.3-2.4,6.5-3.6,9.6-3.6c2.1,0,3.7,0.4,5,1.4c1.3,0.9,2.3,2.2,3,3.8c0.7,1.6,1.3,3.4,1.6,5.5
			c0.3,2.1,0.5,4.3,0.5,6.7c0,4-0.1,7.9-0.5,11.9s-0.6,7.4-0.7,10.2c1.4-3,2.9-6.3,4.4-10.2c1.5-3.8,3.2-7.6,5-11.4s3.8-7.4,6-10.9
			s4.6-6.4,7.2-8.8c0.5-0.3,1-0.5,1.5-0.5s1.2,0.2,2.2,0.7s1.9,1,2.8,1.5c0.9,0.6,1.7,1.2,2.4,2c0.7,0.7,1,1.3,1,1.8
			c0,0.3-0.1,0.6-0.2,0.8c-1.1,2.4-2.1,5-2.9,8c-0.8,2.9-1.5,6-2,9.2s-0.8,6.3-1.1,9.4c-0.2,3.1-0.4,5.8-0.4,8.3
			c0,5,0.7,9.1,2.2,12.2c1.5,3.2,3.6,4.8,6.3,4.8c2.4,0,5-1.5,8-4.4c0.1,0,0.1,0,0.2,0c0.1,0,0.2,0,0.3-0.1s0.1-0.1,0.3-0.1
			c0.4,0,0.5,0.2,0.5,0.5c0,1.7-0.4,3.4-1.3,5.1c-0.8,1.7-2,3.2-3.4,4.4c-1.4,1.2-3,2.3-4.7,3c-1.7,0.8-3.5,1.2-5.2,1.2
			c-3.9,0-6.9-1.6-9.1-4.9s-3.9-7.1-5-11.5s-1.9-8.7-2.2-13c-0.3-4.3-0.5-7.5-0.5-9.7c-2.1,2.3-4,5.3-5.7,9.1
			c-1.6,3.8-3.1,7.7-4.4,11.9c-1.3,4.2-2.4,8.2-3.4,12.3c-1,4-2,7.5-2.9,10.3c0,0.6-0.3,1-0.8,1.3s-1.1,0.4-1.8,0.4
			c-0.9,0-1.9-0.2-3-0.6s-1.7-0.9-2-1.4c-0.4-0.8-1-1.2-2-1.2c-0.9,0-1.4-0.4-1.4-1.3c0-0.2,0-0.5,0-0.8s0-0.5,0.2-0.8
			c0.3-1.7,0.6-4.7,0.8-9c0.2-4.3,0.6-9.3,0.9-14.6c0.1-1.8,0.2-3.9,0.4-6.4c0.2-2.4,0.4-4.9,0.5-7.5s0.3-5.1,0.3-7.7
			c0.1-2.6,0.1-4.8,0.1-6.9c0-2.6-0.4-4.4-1-5.4s-1.4-1.5-2.4-1.5c-1.3,0-2.9,0.8-4.6,2.2C458.9,316.7,457.2,318.4,455.6,320.2z"/>
		<path class="st0" d="M538.7,261.9c0.1-0.2,0.5-0.4,0.8-0.7c0.3-0.2,0.7-0.3,1.2-0.3c0.4,0,0.6,0.1,0.7,0.2c1,0.7,2.2,1.2,3.7,1.6
			s2.9,0.7,4.2,1.1s2.5,0.8,3.4,1.3s1.4,1.2,1.3,2.2c-0.9,4.1-1.9,7.9-2.8,11.5c-0.9,3.6-1.9,7.8-3,12.5c4.8-0.3,9.4-0.6,14-1.1
			s8.8-0.9,12.6-1.3s7-0.8,9.6-1.1c2.6-0.3,4.3-0.5,5.3-0.4c1.1,0,2.3,0.1,3.5,0.3c1.2,0.2,1.8,0.6,1.8,1.3c0,0.6-0.4,0.9-1.2,1.1
			c-0.8,0.1-1.3,0.4-1.6,0.9c-0.6,0.8-1.1,1.6-1.4,2.3c-0.1,0.3-0.3,0.6-0.4,0.8c-0.9,0.3-2.7,0.8-5.6,1.4
			c-2.9,0.6-6.4,1.3-10.6,2.1c-4.2,0.7-8.7,1.5-13.6,2.3c-4.9,0.8-9.9,1.5-14.9,2.1c-1.8,8.1-3.4,17.2-4.8,27
			c-1.5,10.2-2.2,20.9-2.3,31.3c0,2.6,0.5,4.6,1.5,6s2.3,2.1,3.9,2.1c1.7,0,3.4-0.8,5.4-2.5c1.9-1.7,3.5-4.4,4.8-8
			c0.3-0.7,0.8-1,1.6-1c0.5,0,0.7,0.2,0.8,0.5s0.1,0.6,0.1,0.9c-1.4,6.4-3.5,11.1-6.3,13.9s-5.7,4.2-8.7,4.2c-2.7,0-5-0.9-6.8-2.6
			s-3.3-4.1-4.4-7.1c-1.1-3-1.9-6.6-2.3-10.7c-0.4-4.1-0.6-8.5-0.6-13.3c0-5.8,0.4-12.2,1.2-19.2c0.7-7,1.5-13.6,2.4-19.9
			c-2.1,0.2-4.1,0.4-6,0.5s-3.8,0.1-5.5,0.1c-4.8,0-8.4-0.9-10.7-2.6c-2.3-1.7-3.5-4.9-3.5-9.5c0-0.8,0.1-1.7,0.4-2.6
			c0.2-1,0.7-1.4,1.3-1.4c0.4,0,0.7,0.2,1.1,0.7c2.8,1.1,6.2,1.9,10.1,2.4c4,0.5,8.2,0.7,12.9,0.8c0.7,0,1.1,0,1.8,0
			c1.4-8.1,2.7-14.8,3.8-20C538.1,266.6,538.4,262.7,538.7,261.9z"/>
		<path class="st0" d="M583.8,369.9c1.8,0.1,3.5-0.4,5.2-1.3s3.2-2.2,4.6-3.8c1.4-1.7,2.5-3.6,3.4-5.9s1.4-4.8,1.5-7.5
			c0.1-2.8-0.3-5.9-1.3-9.2c0-0.1,0.1-0.3,0.3-0.6c0.2-0.3,0.8-0.4,1.9-0.4c1.7,0.1,3,0.5,4,1.3s1.8,1.9,2.3,3.2
			c0.5,1.3,0.9,2.7,1.1,4.2c0.2,1.5,0.2,3,0.2,4.5c-0.1,3.1-0.8,6-2.1,8.8s-3,5.3-5.1,7.5s-4.5,3.9-7.4,5.2
			c-2.8,1.3-5.9,1.8-9.2,1.7c-4.6-0.1-8.5-1.2-11.7-3.1s-5.8-4.3-7.8-7.3s-3.5-6.5-4.4-10.4s-1.3-8-1.3-12.4
			c0.1-5.1,0.9-10.2,2.4-15.3c1.5-5.1,3.5-9.7,6.2-13.8c2.6-4.1,5.8-7.3,9.4-9.8c3.6-2.5,7.7-3.6,12-3.5c4.1,0.1,7.2,1.5,9.3,4.1
			s3.1,5.8,2.9,9.8c-0.1,2.6-0.7,5.4-1.9,8.4s-3,6-5.3,9s-5.2,5.9-8.7,8.8s-7.6,5.5-12.3,7.9c0.4,7.2,1.7,12.2,4,15.2
			C578.3,368.2,580.8,369.8,583.8,369.9z M589.8,315.1c0-0.8-0.2-1.5-0.6-2.2c-0.4-0.7-1.1-1.1-2.1-1.1c-2.1-0.1-4,0.8-5.7,2.6
			c-1.7,1.8-3.3,4.2-4.6,7.1s-2.4,6.3-3.2,10c-0.8,3.8-1.3,7.5-1.6,11.3c1.8-1.1,3.7-2.8,5.8-5c2-2.3,3.9-4.7,5.7-7.4
			c1.8-2.7,3.2-5.4,4.4-8.1C589.1,319.6,589.8,317.2,589.8,315.1z"/>
		<path class="st0" d="M625.1,332.4c-1.1-0.1-1.9-0.1-2.5-0.3c-0.6,2.2-1.2,4.8-1.9,7.7c-0.7,2.9-1.4,6-2.3,9.3
			c-0.7,0.6-1.5,1-2.2,0.9c-0.7,0-1.5-0.3-2.5-0.8c-0.5-0.2-0.8-0.5-1-0.7c0.9-3.3,1.6-6.5,2.4-9.7c0.7-3.2,1.5-6.4,2.2-9.5
			c-2.2-1.9-3.8-4.4-4.7-7.3c-0.9-3-1.3-6-1.2-8.9c0.1-3.5,1-6.6,2.6-9.2s3.7-3.8,6.5-3.7c2.8,0.1,4.6,1,5.4,2.5
			c0.8,1.6,1.1,3.4,1,5.6c-0.1,1.8-0.3,3.7-0.7,5.7s-0.6,3.7-0.7,5.3c-0.1,2.7,0.4,4.1,1.4,4.2c0.6,0,2.1-0.4,4.1-1.5
			c1.6-0.9,3.4-2.1,5.3-3.5c1.9-1.4,3.8-2.8,5.6-4.1c1.8-1.4,3.3-2.5,4.6-3.5c1.3-0.9,2.2-1.4,2.5-1.4c0.6,0,1.2,0.3,1.9,0.9
			c0.6,0.5,1.2,1.2,1.8,1.9c0.6,0.7,1,1.5,1.4,2.3s0.5,1.5,0.5,2.1s-0.2,1.1-0.5,1.5c-0.1,0.2-0.2,0.4-0.2,0.7
			c-0.8,1.5-1.5,3-2.1,4.3c-0.5,1.2-1.1,2.4-1.7,3.6c-0.6,1.2-1.1,2.1-1.3,2.7c-2.3,4.6-4,9-5.1,13s-1.8,7.7-1.9,11
			c-0.2,4.5,0.2,8.1,1.5,10.8c1.2,2.7,2.8,4.1,4.8,4.2c1.8,0.1,3.7-0.9,5.9-3c2.1-2.1,4.4-5.6,6.7-10.4c0.3-0.6,0.5-1,0.6-1.5
			c0.1-0.4,0.8-1,2.1-1.7c0.5-0.3,0.9-0.5,1.1-0.4c0.4,0,0.5,0.3,0.5,0.7c0,0.1,0,0.2-0.1,0.2c-0.1,0.1-0.1,0.1-0.1,0.2s0,0.2,0,0.3
			c-0.5,2.5-1.4,5.3-2.6,8.6c-1.2,3.3-2.8,6.3-4.7,9.2c-1.9,2.8-4.3,5.2-6.9,7.2c-2.7,1.9-5.7,2.8-9.1,2.6c-2.5-0.1-4.5-0.8-6-2
			s-2.7-2.8-3.6-4.7c-0.9-1.9-1.4-4.1-1.7-6.6s-0.4-5.1-0.2-7.8c0.1-2.7,0.4-5.5,0.9-8.2c0.4-2.8,1-5.4,1.6-7.9s1.2-4.8,1.9-7
			c0.6-2.1,1.2-3.9,1.6-5.2c-1.5,0.6-3.2,1-5,1.3C628.9,332.4,627,332.4,625.1,332.4z"/>
	</g>
</g>
<g>
	<g>
		<path class="st0" d="M447.8,517.4c-0.1,6-1.1,12-2.9,17.9c-1.8,6-4.5,11.7-8.1,17.1c-3.6,5.4-7.9,10.4-13.1,15.1
			c-5.1,4.7-11.1,8.6-18,11.9c-6.8,3.3-14.4,5.8-22.8,7.5c-8.3,1.7-17.4,2.4-27.2,1.9c-6.2-0.3-11.2-1.1-14.9-2.5
			c-3.8-1.4-6.6-3.1-8.5-5c-0.8,1.3-1.3,2.3-1.5,3.1c-0.3,1-0.5,2.2-0.8,3.4c-0.2,1.2-0.9,1.7-2.1,1.7c-1.4-0.1-2.7-0.6-3.9-1.7
			c-1.2-1.1-2.3-2.3-3.2-3.8c-0.9-1.5-1.7-3-2.2-4.5c-0.6-1.5-0.8-2.7-0.8-3.6c0.2-3.3,0.5-7.2,0.9-11.6c0.4-4.5,0.9-9.2,1.4-14.3
			c0.6-5.1,1.2-10.3,2-15.8c0.7-5.5,1.5-10.9,2.4-16.2c-6.6-0.7-12.3-2.1-17.2-3.9c-4.9-1.9-8.9-4.1-12.1-6.6s-5.5-5.3-6.9-8.4
			c-1.5-3.1-2.1-6.2-1.9-9.4c0.4-6.5,2.8-12.1,7.3-16.9c4.4-4.8,10.1-8.8,17-11.9s14.8-5.3,23.7-6.7s18-1.8,27.4-1.4
			c7.1,0.3,14.1,1.1,21,2.4c7,1.3,13.7,3.1,20,5.5c6.4,2.4,12.4,5.3,17.9,8.9c5.5,3.5,10.3,7.6,14.4,12.3c4,4.7,7.2,10,9.5,15.9
			C446.8,503.7,447.9,510.2,447.8,517.4z M332.4,477.9c0.3-0.9,0.6-1.5,1-1.7c0.4-0.3,1-0.6,1.6-0.7c1.2-0.2,2.4-0.3,3.6-0.5
			c1.1-0.2,2.2-0.3,3.2-0.2c0.2,0,0.3,0.3,0.3,0.8c-0.8,5.3-1.6,10.8-2.3,16.5c-0.7,5.6-1.3,11.4-1.9,17.3c0.9,0.1,1.9,0.2,2.9,0.3
			c1,0,2.1,0.1,3.1,0.1c4.4,0.2,8.9,0,13.4-0.8c4.5-0.7,8.9-2.1,13.3-4.1c0.1,0.1-0.5,0.9-1.7,2.3s-3.3,3-6,4.7
			c-2.8,1.7-6.3,3.2-10.6,4.6c-4.3,1.4-14.1,1.1-15.4,2.3c-2,1.9-1.4,16.4-1.9,24.3c-0.5,7.8-0.9,15.4-1.3,22.5
			c2.4-2.3,5.5-4.2,9.3-5.8c0.4,0.1,0.6,0.2,1,0.3c0.8,0.2,1.2,0.5,1.2,0.8c-0.6,0.7-1.6,1.7-3,3s-2.1,2.8-2.2,4.5
			c-0.1,3.1,4.1,5,12.1,5.2c11,0.2,22.5-0.7,33.2-4.3c8.3-2.8,17.8-7.9,24.5-13.8c6.5-5.8,11.7-12.4,15.2-19.9
			c3.5-7.4,5.3-15,5.5-22.7c0.2-8.5-2.1-15.9-6.7-22.3c-4.7-6.4-10.7-11.7-18.2-16s-15.9-7.6-25.1-9.9c-8.8-2.3-18.6-3.8-27.7-4.1
			c-7-0.3-13.9-0.1-20.4,0.8c-6.5,0.8-12.3,2.2-17.3,4.2s-9.1,4.6-12.1,7.8c-3.1,3.2-4.7,7-5,11.4c-0.3,4.6,1.9,9,6.7,13.2
			c4.7,4.2,11.9,7.4,21.5,9.6c1-5.9,2-11.4,3.1-16.4C330.3,486,331.4,481.6,332.4,477.9z"/>
		<path class="st0" d="M472.9,577.6c1.7,0,3.4-0.4,5.1-1.2c1.6-0.8,3.1-2,4.4-3.5s2.3-3.2,3.2-5.3c0.8-2,1.2-4.2,1.3-6.6
			c0-2.5-0.5-5.2-1.5-8.1c0-0.1,0.1-0.3,0.3-0.5c0.2-0.2,0.8-0.4,1.8-0.4c1.6,0,2.9,0.4,3.9,1.1c1,0.7,1.8,1.6,2.3,2.7
			c0.6,1.1,1,2.3,1.2,3.7c0.2,1.3,0.3,2.7,0.3,4c0,2.7-0.6,5.3-1.8,7.8c-1.2,2.5-2.7,4.7-4.7,6.7s-4.3,3.6-7.1,4.7
			c-2.7,1.2-5.7,1.7-9,1.7c-4.5,0-8.4-0.9-11.6-2.5s-5.8-3.8-7.7-6.4c-2-2.6-3.5-5.7-4.4-9.1c-0.9-3.4-1.4-7.1-1.3-10.8
			c0.1-4.5,0.8-9,2.2-13.5c1.4-4.5,3.3-8.6,5.8-12.2c2.5-3.6,5.4-6.5,8.8-8.7s7.1-3.3,11.3-3.2c3.9,0,6.8,1.2,8.9,3.4
			c2,2.2,3.1,5,3,8.5c0,2.3-0.5,4.8-1.6,7.5c-1,2.7-2.6,5.4-4.8,8c-2.1,2.7-4.9,5.3-8.2,7.9c-3.3,2.6-7.2,5-11.8,7.1
			c0.5,6.3,1.9,10.7,4.1,13.3C467.4,576.3,470,577.6,472.9,577.6z M487.2,482.9c4.3,0.7,7.4,1.7,9.2,2.9c1.9,1.2,2.8,2.5,2.8,3.9
			c0,1.7-1.1,3.5-3.4,5.4s-5.3,3.6-9.1,5.2c-3.8,1.6-8.2,2.9-13.1,4s-10,1.7-15.2,1.8c0.2-1.1,0.3-1.6,0.5-2.7
			c1.1-0.1,3.1-0.6,5.9-1.6s5.7-2.4,8.8-4.2c3.1-1.8,5.9-3.9,8.6-6.3C484.8,488.8,486.5,486,487.2,482.9z M477.4,529.4
			c0-0.7-0.2-1.3-0.6-1.9c-0.4-0.6-1.1-0.9-2-0.9c-1.9,0-3.7,0.8-5.3,2.4c-1.6,1.6-3,3.7-4.3,6.3c-1.2,2.6-2.2,5.5-3,8.8
			c-0.7,3.3-1.2,6.6-1.3,9.9c1.7-1,3.6-2.5,5.5-4.5s3.7-4.2,5.3-6.6c1.6-2.4,3-4.8,4-7.2C476.9,533.3,477.4,531.2,477.4,529.4z"/>
		<path class="st0" d="M522,583.6c-5.1,0-9.1-2.1-12-6.4c-1,19.3-2,38.5-3,57.8c-0.1,2.8-0.9,4.2-2.5,4.2c-0.8,0-1.7-0.4-2.7-1
			c-1-0.7-2-1.5-2.9-2.4s-1.8-1.7-2.6-2.5c-0.8-0.8-1.3-1.3-1.5-1.6c0.5-4.8,1-9.4,1.5-13.9s1.1-9.1,1.5-13.7
			c0.5-4.7,0.9-9.7,1.4-15c0.4-5.3,0.8-11.2,1.2-17.7c0.4-6.5,0.6-13.7,0.8-21.7c0.2-8,0.3-17,0.3-27.2c0-0.3,0.1-0.6,0.2-0.9
			c0.2-0.6,0.5-0.9,0.9-0.9c0.3,0.1,0.4,0.2,0.7,0.3c0.5,0.3,1.2,0.6,2.2,1c1,0.3,2.1,0.7,3.2,1.1c1.1,0.4,2,0.8,2.8,1.3
			s1.2,1,1.2,1.6c0,0.4,0,1.1-0.1,2.1s-0.1,2-0.2,3.1c-0.1,1.1-0.1,2.1-0.2,2.9c-0.1,0.8-0.1,1.3-0.1,1.4c2.4-4.9,5.3-8.5,8.8-11
			s7-3.7,10.5-3.7c2.7,0,5.1,0.6,7.1,1.8s3.7,2.9,5,5.1c1.3,2.2,2.3,4.7,3,7.5s1,5.8,1,9c0,4.5-0.5,9-1.7,13.7
			c-1.2,4.6-2.9,8.9-5.1,12.7c-2.2,3.8-4.9,6.9-8.1,9.3C529.7,582.4,526.1,583.6,522,583.6z M525.9,533.6c-2.8,0-5.4,1.2-8,3.7
			c-2.6,2.4-4.5,6.1-5.8,10.8c-0.5,7-0.8,10.5-1.4,17.5c0.5,4,1.4,7,2.9,9.2c1.5,2.1,3.6,3.2,6.4,3.2c2.4,0,4.6-0.9,6.4-2.6
			c1.8-1.7,3.4-3.9,4.7-6.6c1.3-2.7,2.2-5.7,2.9-9s1-6.5,1-9.7c0-4.5-0.8-8.4-2.2-11.6C531.3,535.2,529,533.5,525.9,533.6z"/>
		<path class="st0" d="M580.2,518.4c4.6-0.1,8,0.9,10.4,3.1c2.4,2.2,3.9,5,4.6,8.5c1.6,0.4,3.3,0.8,4.9,1.4c1.7,0.6,2.5,1.3,2.6,2.2
			c0,1.1,0,2.7-0.2,4.8s-0.4,4.5-0.7,7.1s-0.5,5.4-0.6,8.3c-0.2,2.9-0.2,5.7-0.1,8.4c0.1,3.8,0.6,7,1.4,9.6c0.8,2.6,2.3,3.9,4.5,3.8
			c2-0.1,3.9-0.8,5.9-2.1c1.9-1.3,3.3-2.9,4.2-4.8c0.9-0.2,1.5-0.7,1.9-1.4c0.3-0.7,0.6-1.1,0.8-1.1c0.3,0,0.6,0.2,0.6,0.5
			c0.1,0.3,0.1,0.6,0.1,0.8c0.1,2-0.3,3.9-1.2,5.7s-2,3.5-3.5,4.9s-3.2,2.6-5.1,3.5c-2,0.9-3.9,1.4-5.9,1.4
			c-3.4,0.1-6.6-1.2-9.5-3.9c-3-2.7-5-7.4-6.1-14.2c-2.2,5.3-4.9,9.8-8,13.4c-3.1,3.6-6.4,5.4-9.7,5.5c-3,0.1-5.6-0.5-7.8-1.7
			s-4-2.9-5.4-5.1c-1.4-2.2-2.5-4.7-3.2-7.6c-0.7-2.9-1.1-5.9-1.2-9.1c-0.1-4.7,0.5-9.5,1.7-14.4s2.9-9.4,5.2-13.4
			c2.3-4.1,5.1-7.4,8.3-10.1C572.4,519.8,576,518.5,580.2,518.4z M569.3,576.5c2.4,0,4.6-0.8,6.4-2.4c1.8-1.5,3.5-3.5,4.9-6
			c1.5-2.5,2.7-5.2,3.6-8.3c1-3.1,1.8-6.1,2.5-9.2c0.7-3.1,1.2-6.1,1.7-8.9c0.5-2.8,0.8-5.2,1-7.2c-2.9-3.1-5.7-4.7-8.4-4.6
			c-2.6,0.1-5,1.4-7.1,4.1c-2.1,2.7-3.9,5.9-5.4,9.7s-2.6,7.7-3.4,11.8c-0.8,4.1-1.2,7.6-1.1,10.6c0,3.1,0.5,5.6,1.4,7.5
			C566.3,575.6,567.6,576.6,569.3,576.5z"/>
		<path class="st0" d="M628.8,541.4c-1,0-1.8,0-2.4-0.1c-0.4,2-0.8,4.3-1.2,6.9c-0.4,2.6-1,5.4-1.5,8.3c-0.7,0.6-1.4,0.9-2.1,1
			c-0.7,0-1.5-0.2-2.4-0.5c-0.5-0.2-0.8-0.4-1.1-0.6c0.6-2.9,1.1-5.8,1.6-8.6c0.5-2.9,1-5.7,1.5-8.5c-2.2-1.5-3.9-3.6-4.9-6.1
			c-1.1-2.6-1.6-5.1-1.7-7.7c-0.1-3.1,0.5-5.8,1.8-8.2s3.3-3.6,5.9-3.7c2.6-0.1,4.4,0.5,5.2,1.8s1.3,2.9,1.4,4.8
			c0.1,1.6,0,3.3-0.3,5c-0.2,1.8-0.3,3.3-0.3,4.7c0.1,2.4,0.6,3.6,1.7,3.5c0.6,0,1.9-0.5,3.7-1.6c1.4-0.9,3.1-2.1,4.8-3.5
			s3.4-2.7,4.9-4.1c1.6-1.4,2.9-2.5,4.1-3.4c1.2-0.9,1.9-1.4,2.3-1.4c0.6,0,1.2,0.2,1.8,0.6c0.6,0.4,1.3,0.9,1.9,1.5
			c0.6,0.6,1.1,1.2,1.5,1.9s0.7,1.3,0.7,1.8s-0.1,1-0.3,1.4c-0.1,0.2-0.2,0.4-0.1,0.6c-0.6,1.4-1.1,2.8-1.6,4
			c-0.4,1.1-0.9,2.2-1.3,3.3c-0.5,1.1-0.8,1.9-1,2.5c-1.8,4.3-3,8.2-3.8,11.8c-0.7,3.6-1,6.9-0.9,9.7c0.2,4,0.9,7.1,2.4,9.3
			c1.4,2.2,3.1,3.3,5.1,3.2c1.7-0.1,3.6-1.1,5.4-3.1c1.9-2,3.7-5.3,5.5-9.7c0.2-0.5,0.4-1,0.5-1.4s0.7-1,1.8-1.7
			c0.4-0.3,0.8-0.5,1-0.5c0.3,0,0.5,0.2,0.5,0.6c0,0.1,0,0.2-0.1,0.2c-0.1,0.1-0.1,0.1-0.1,0.2c0,0.1,0,0.2,0,0.3
			c-0.2,2.2-0.8,4.8-1.7,7.8s-2.1,5.8-3.7,8.5c-1.6,2.7-3.7,5-6.1,6.9c-2.4,1.9-5.3,3-8.7,3.1c-2.4,0.1-4.5-0.3-6.1-1.3
			c-1.6-0.9-2.9-2.2-3.9-3.8s-1.7-3.5-2.2-5.7s-0.8-4.5-0.9-6.8c-0.1-2.4,0-4.8,0.2-7.3c0.2-2.4,0.5-4.8,0.9-7.1s0.8-4.3,1.2-6.2
			s0.8-3.5,1.1-4.7c-1.4,0.6-2.9,1.2-4.7,1.5C632.4,541.2,630.6,541.4,628.8,541.4z"/>
		<path class="st0" d="M676.4,479.8c0.1-0.2,0.5-0.4,0.7-0.6c0.3-0.2,0.6-0.3,1.1-0.4c0.3,0,0.6,0,0.7,0.1c0.9,0.6,2.1,0.9,3.5,1.2
			c1.4,0.2,2.7,0.5,3.9,0.7c1.3,0.2,2.3,0.6,3.2,1s1.3,1,1.4,1.8c-0.6,3.6-1.2,7-1.9,10.3c-0.6,3.2-1.3,6.9-2,11.2
			c4.4-0.5,8.8-1.1,13-1.9c4.2-0.7,8.1-1.4,11.6-2.1s6.4-1.2,8.8-1.7c2.4-0.5,4-0.8,4.9-0.8c1-0.1,2.1-0.1,3.2-0.1
			c1.1,0,1.7,0.3,1.8,0.9c0,0.5-0.3,0.8-1,1s-1.2,0.5-1.4,0.9c-0.5,0.7-0.9,1.5-1.1,2.2c-0.1,0.3-0.2,0.6-0.3,0.8
			c-0.8,0.3-2.5,0.9-5.1,1.7c-2.6,0.8-5.9,1.7-9.7,2.7s-8,2-12.6,3s-9.2,2-13.8,2.8c-1.2,7.2-2.3,15.2-3,23.9
			c-0.8,8.7-1,17.9-0.5,27.5c0.1,2.3,0.7,4,1.8,5.1s2.4,1.7,3.9,1.6c1.6-0.1,3.3-0.9,5.1-2.6c1.8-1.6,3.2-4.1,4.1-7.3
			c0.2-0.6,0.7-0.9,1.5-1c0.5,0,0.7,0.1,0.8,0.4c0.1,0.3,0.1,0.5,0.1,0.7c-1,5.7-2.7,9.9-5.3,12.6c-2.5,2.7-5.3,4.1-8.3,4.2
			c-2.7,0.1-4.9-0.5-6.8-1.9c-1.9-1.4-3.4-3.4-4.6-6c-1.2-2.6-2.1-5.7-2.8-9.2c-0.6-3.6-1-7.4-1.2-11.6c-0.2-5.1-0.2-10.7,0.2-16.9
			c0.3-6.2,0.8-12,1.3-17.6c-1.9,0.3-3.8,0.5-5.6,0.7s-3.5,0.3-5.1,0.4c-4.6,0.2-8-0.4-10.2-1.8c-2.2-1.4-3.4-4.1-3.6-8.2
			c0-0.7,0.1-1.5,0.3-2.3c0.2-0.9,0.6-1.3,1.1-1.3c0.3,0,0.7,0.2,1,0.6c2.7,0.9,5.8,1.5,9.6,1.7c3.7,0.2,7.7,0.3,12.1,0.1
			c0.7,0,1,0,1.7-0.1c0.9-7.2,1.7-13.1,2.5-17.8C676.1,484,676.2,480.5,676.4,479.8z"/>
		<path class="st0" d="M704.5,486.5c3.1-1.9,5.4-4.2,7.1-7c1.7-2.8,2.4-5.5,2.2-8.1c-0.1-1.8-0.6-3.1-1.3-4
			c-0.8-0.9-1.6-1.7-2.5-2.3c-0.9-0.6-1.7-1.3-2.4-1.9s-1.1-1.5-1.2-2.6c-0.1-1,0.2-2,0.8-3.1s1.3-2.1,2.3-3c1-1,2.1-1.7,3.4-2.4
			c1.3-0.6,2.8-1,4.3-1.1c2.2-0.1,4,0.5,5.2,2s1.9,3.4,2,5.8c0.1,2.3-0.2,4.9-1,7.7c-0.8,2.8-2,5.6-3.6,8.4
			c-1.6,2.7-3.6,5.3-5.9,7.6c-2.4,2.3-5,4.2-8,5.5C705.4,487.4,705.1,487.1,704.5,486.5z"/>
	</g>
</g>
</svg>
