<?xml version="1.0" encoding="utf-8"?>
<!-- Generator: Adobe Illustrator 24.1.1, SVG Export Plug-In . SVG Version: 6.00 Build 0)  -->
<svg version="1.1" id="Calque_1" xmlns="http://www.w3.org/2000/svg" xmlns:xlink="http://www.w3.org/1999/xlink" x="0px" y="0px"
	 viewBox="0 0 979 1133" style="enable-background:new 0 0 979 1133;" xml:space="preserve">
<style type="text/css">
	.st0{fill:#FFFFFF;}
	.st1{fill:none;stroke:#FFFFFF;stroke-width:5.6693;stroke-linecap:round;stroke-linejoin:round;stroke-miterlimit:10;}
</style>
<g>
	<g id="XMLID_1_">
		<g>
			<path class="st0" d="M792,720.3c1.4,4.5-0.1,5.6-4.4,5.5c-10.8-0.2-21.7-0.2-32.5,0c-4,0.1-6-1.3-7.1-5.2
				c-6.2-22-12.7-43.9-19-65.8c-2.6-9.1-2.5-9.1-12.1-9.1c-30.2,0-60.3,0-90.5,0c-6.6,0-6.8-0.2-4.9-6.4
				c3.4-11.2,6.9-22.3,10.1-33.5c1.1-3.7,3-5,6.8-4.9c11.5,0.2,23,0.1,34.5,0.1c11,0,22,0,33,0c7.2,0,7.7-0.6,5.7-7.4
				c-12.2-42.4-24.4-84.9-36.7-127.3c-1.3-4.5-1.5-8.6-0.2-13.1c4.1-13.9,8-27.9,11.7-41.9c1-3.7,2.6-5.3,6.5-5.1
				c3.8,0.1,6.5,0.4,7.8,4.9c9.9,34.3,20,68.5,30.1,102.7c17.9,60.6,35.8,121.1,53.7,181.7C787,703.7,789.3,712,792,720.3z"/>
			<path class="st0" d="M663.4,406.2c5.6,0,5.9,0.4,4.4,5.7c-10.2,35.5-20.4,71.1-30.5,106.6c-18.8,66-37.6,132-56.5,197.9
				c-0.6,1.9-1.2,3.8-1.7,5.8c-0.5,2.6-2,3.6-4.6,3.5c-5.5-0.1-11,0-16.5,0c0,0,0,0,0,0c-5.2,0-10.3-0.2-15.5,0.1
				c-4.5,0.3-5-1.5-3.8-5.3c5.6-18.3,10.9-36.7,16.4-55c18.1-60.8,36.1-121.6,54.2-182.4c7-23.6,14.2-47.2,21.1-70.9
				c1.3-4.4,3.2-6.3,8-6.1C646.7,406.5,655,406.2,663.4,406.2z"/>
			<path class="st0" d="M502.9,720.1c0,4.4-1.4,5.8-5.7,5.7c-9.3-0.3-18.7-0.3-28,0c-5,0.2-6.1-1.7-6.1-6.4
				c0.1-51.1,0.1-102.3,0.1-153.4c0-51,0-102,0-152.9c0-6.9,0-6.9,6.9-6.9c9,0,18,0.2,27-0.1c4.2-0.1,5.9,1.1,5.9,5.6
				C502.8,514.6,502.8,617.3,502.9,720.1z"/>
			<path class="st0" d="M412,695.3c0,8.4-2,16.1-6.4,23.3c-3.3,5.4-8.2,8.2-14.5,8.3c-4,0.1-8,0-12,0c-6.7,0-6.7,0-6.7-6.6
				c0-40.3,0-80.7,0-121c0-1.5-0.1-3,0-4.5c0.5-4.7-1.6-6-6.1-6c-26.3,0.1-52.7,0.1-79,0.1c-25.7,0-51.3-0.2-77,0.1
				c-9.5,0.1-15.4-4.2-19.2-12.4c-2.6-5.6-4.1-11.6-4.1-17.9c0-41.2,0-82.3,0-123.5c0-8.6,2.4-16.4,7.6-23.4
				c3.3-4.4,7.8-6.7,13.3-6.7c4.3,0,8.7,0.2,13-0.1c4-0.2,5.2,1.5,5.2,5.3c-0.1,11.7-0.1,23.3-0.1,35c0,27.7,0,55.3,0,83
				c0,9.7,0,9.7,10,9.7c49,0,98,0.8,147-0.4c22.2-0.5,27.5,13.8,28.8,28.5c0.6,7.1,0.2,14.3,0.2,21.5
				C411.9,623.6,411.9,659.5,412,695.3z"/>
			<path class="st0" d="M400.6,405.1c4.6,0,6.6,1.1,6.4,6.1c-0.3,11-0.3,22,0,32.9c0.1,4.7-1.7,6-6.1,6c-25.3-0.1-50.6-0.1-75.9-0.1
				c-24.8,0-49.6-0.1-74.4,0.1c-4.7,0-6.5-1.3-6.3-6.2c0.3-11,0.3-22,0-33c-0.1-4.8,1.7-5.9,6.1-5.9
				C300.4,405.2,350.5,405.2,400.6,405.1z"/>
			<path class="st0" d="M355,720.5c0.1,4.1-1.3,5.6-5.5,5.6c-52-0.1-103.9-0.1-155.8,0c-4.6,0-5.7-1.8-5.6-6c0.2-11,0.3-22,0-33
				c-0.1-4.5,1.3-6.1,5.9-6c26,0.2,51.9,0.1,77.9,0.1c25.3,0,50.6,0,75.9,0c7,0,7,0,7.1,6.8C354.9,698.8,354.8,709.7,355,720.5z"/>
		</g>
		<g>
		</g>
	</g>
</g>
<g>
	<polygon class="st1" points="490,3.1 977.9,284 492,1127.9 3.1,847 	"/>
	<polygon class="st1" points="4.3,285.2 490,3.1 165.5,565.5 	"/>
	<polygon class="st1" points="3.1,847 4.3,285.2 165.5,565.5 	"/>
	<polygon class="st1" points="492,1127.9 977.1,846.7 814.5,567.9 	"/>
	<polygon class="st1" points="977.9,284 977.1,846.7 814.5,567.9 	"/>
</g>
</svg>
