<svg id="Calque_1" data-name="Calque 1" xmlns="http://www.w3.org/2000/svg" viewBox="0 0 566.93 226.77"><defs><style>.cls-1{fill:#fff;}</style></defs><title>Plan de travail 1</title><path class="cls-1" d="M333.58,69h1.93v15.7h-1.93Z"/><path class="cls-1" d="M338.08,69h2.51l5.19,13.1h0V69h1.94v15.7H345.1l-5-12.71h0V84.73h-1.93Z"/><path class="cls-1" d="M357,73.1c0-1.65-.59-2.79-2.44-2.79A2.33,2.33,0,0,0,352,72.86c0,4.42,7.41,1.78,7.41,7.52,0,3.63-2.66,4.66-4.88,4.66-3.67,0-4.75-1.89-4.75-5.23h1.94c0,1.76.11,3.65,2.95,3.65a2.65,2.65,0,0,0,2.73-2.77c0-4.44-7.41-1.87-7.41-7.63,0-1.45.62-4.33,4.6-4.33,3,0,4.35,1.5,4.4,4.38Z"/><path class="cls-1" d="M366.21,84.73h-1.94v-14h-3.94V69h9.83v1.71h-4Z"/><path class="cls-1" d="M371.82,69h1.94v15.7h-1.94Z"/><path class="cls-1" d="M381.25,84.73h-1.94v-14h-3.94V69h9.83v1.71h-4Z"/><path class="cls-1" d="M386.77,69h1.93v11c0,2.31.75,3.39,2.66,3.39,2.07,0,2.68-1.19,2.68-3.39V69H396v11c0,3-1.54,5-4.62,5s-4.6-1.74-4.6-5Z"/><path class="cls-1" d="M403.42,84.73h-1.94v-14h-3.94V69h9.83v1.71h-4Z"/><path class="cls-1" d="M414.11,69h2.51l5.19,13.1h0V69h1.93v15.7h-2.66l-5-12.71h0V84.73h-1.93Z"/><path class="cls-1" d="M429.8,69h2.59l4.22,15.7h-2l-1.12-4.31h-5l-1.17,4.31h-2Zm-.95,9.81h4.22l-2-7.59h0Z"/><path class="cls-1" d="M441.52,84.73h-1.94v-14h-3.94V69h9.83v1.71h-4Z"/><path class="cls-1" d="M447.13,69h1.93v15.7h-1.93Z"/><path class="cls-1" d="M461.46,76.88c0,4-.73,8.16-5.06,8.16s-5.06-4.2-5.06-8.16.73-8.16,5.06-8.16S461.46,72.92,461.46,76.88Zm-8.09,0c0,3.63.35,6.58,3,6.58s3-2.95,3-6.58-.35-6.57-3-6.57S453.37,73.25,453.37,76.88Z"/><path class="cls-1" d="M463.76,69h2.51l5.19,13.1h0V69h1.94v15.7h-2.66l-5-12.71h0V84.73h-1.94Z"/><path class="cls-1" d="M479.45,69H482l4.22,15.7h-2l-1.12-4.31h-5l-1.17,4.31h-2Zm-.95,9.81h4.22l-2-7.59h0Z"/><path class="cls-1" d="M487.75,69h1.94V83h6.38v1.72h-8.31Z"/><path class="cls-1" d="M333.78,93.47H338c4.88,0,5.5,3.52,5.5,7.85,0,4-1,7.85-5.3,7.85h-4.4Zm1.93,14.12h2c3.34,0,3.72-3.43,3.72-6.25,0-3-.2-6.29-3.72-6.29h-2Z"/><path class="cls-1" d="M345.74,93.47h8.11v1.71h-6.18v4.93h5.83v1.71h-5.83v5.63h6.44v1.72h-8.38Z"/><path class="cls-1" d="M362.67,97.54c0-1.65-.59-2.79-2.44-2.79a2.33,2.33,0,0,0-2.59,2.55c0,4.42,7.41,1.78,7.41,7.52,0,3.63-2.66,4.66-4.88,4.66-3.67,0-4.75-1.89-4.75-5.23h1.94c0,1.76.11,3.65,2.95,3.65a2.64,2.64,0,0,0,2.73-2.77c0-4.44-7.41-1.87-7.41-7.63,0-1.45.62-4.33,4.6-4.33,3,0,4.35,1.5,4.4,4.38Z"/><path class="cls-1" d="M378.94,97.54c0-1.65-.59-2.79-2.44-2.79a2.33,2.33,0,0,0-2.6,2.55c0,4.42,7.41,1.78,7.41,7.52,0,3.63-2.66,4.66-4.88,4.66-3.67,0-4.75-1.89-4.75-5.23h1.94c0,1.76.11,3.65,2.95,3.65a2.65,2.65,0,0,0,2.73-2.77c0-4.44-7.41-1.87-7.41-7.63,0-1.45.62-4.33,4.6-4.33,3,0,4.35,1.5,4.4,4.38Z"/><path class="cls-1" d="M392.87,103.78c-.18,3-1.34,5.7-4.77,5.7-4.46,0-5.06-4.2-5.06-8.16s.73-8.16,5.06-8.16c3.21,0,4.55,1.8,4.64,4.88h-2c0-1.78-.62-3.3-2.62-3.3-2.68,0-3,2.95-3,6.57s.35,6.58,3,6.58c2.35,0,2.68-2.2,2.75-4.11Z"/><path class="cls-1" d="M394.71,93.47h1.94v15.7h-1.94Z"/><path class="cls-1" d="M399.21,93.47h8.11v1.71h-6.18v4.93H407v1.71h-5.83v5.63h6.44v1.72h-8.38Z"/><path class="cls-1" d="M409.41,93.47h2.51l5.19,13.1h0V93.47h1.93v15.7h-2.66l-5-12.71h0v12.71h-1.93Z"/><path class="cls-1" d="M431.21,103.78c-.18,3-1.34,5.7-4.77,5.7-4.46,0-5.06-4.2-5.06-8.16s.73-8.16,5.06-8.16c3.21,0,4.55,1.8,4.64,4.88h-2c0-1.78-.62-3.3-2.62-3.3-2.68,0-3,2.95-3,6.57s.35,6.58,3,6.58c2.35,0,2.68-2.2,2.75-4.11Z"/><path class="cls-1" d="M433.07,93.47h8.11v1.71H435v4.93h5.83v1.71H435v5.63h6.44v1.72h-8.38Z"/><path class="cls-1" d="M450,97.54c0-1.65-.59-2.79-2.44-2.79A2.33,2.33,0,0,0,445,97.29c0,4.42,7.41,1.78,7.41,7.52,0,3.63-2.66,4.66-4.88,4.66-3.67,0-4.75-1.89-4.75-5.23h1.94c0,1.76.11,3.65,2.95,3.65a2.64,2.64,0,0,0,2.73-2.77c0-4.44-7.41-1.87-7.41-7.63,0-1.45.62-4.33,4.6-4.33,3,0,4.35,1.5,4.4,4.38Z"/><path class="cls-1" d="M336.66,117.91h2.59l4.22,15.7h-2l-1.12-4.31h-5l-1.17,4.31h-2Zm-.95,9.81h4.22l-2-7.59h0Z"/><path class="cls-1" d="M345,117.91h4c1.36,0,4.86,0,4.86,4.51a4.22,4.22,0,0,1-4.53,4.55h-2.4v6.64H345Zm1.94,7.48h2.31c1.41,0,2.59-1,2.59-3.06,0-1.72-.81-2.84-2.73-2.84h-2.18Z"/><path class="cls-1" d="M355.59,117.91h4c1.36,0,4.86,0,4.86,4.51a4.22,4.22,0,0,1-4.53,4.55h-2.4v6.64h-1.94Zm1.94,7.48h2.31c1.41,0,2.6-1,2.6-3.06,0-1.72-.81-2.84-2.73-2.84h-2.18Z"/><path class="cls-1" d="M366.23,117.91h1.93v14h6.38v1.72h-8.31Z"/><path class="cls-1" d="M376.19,117.91h1.94v15.7h-1.94Z"/><path class="cls-1" d="M388.17,133.12a4.44,4.44,0,0,1-2.7.79c-4.33,0-5.06-4.2-5.06-8.16s.73-8.16,5.06-8.16,5.06,4.2,5.06,8.16c0,2.26-.24,4.62-1.28,6.2l1.58,1.45-1.08,1.14Zm-2.79-2.53,1.08-1.19,1.45,1.32a14.4,14.4,0,0,0,.59-5c0-3.63-.35-6.58-3-6.58s-3,2.95-3,6.58.35,6.57,3,6.57a2.6,2.6,0,0,0,1.43-.37Z"/><path class="cls-1" d="M392.67,117.91h1.94v11c0,2.31.75,3.39,2.66,3.39,2.07,0,2.68-1.19,2.68-3.39v-11h1.94v11c0,3-1.54,5-4.62,5s-4.6-1.74-4.6-5Z"/><path class="cls-1" d="M404.38,117.91h8.11v1.71h-6.18v4.93h5.83v1.71h-5.83v5.63h6.44v1.72h-8.38Zm4.53-4h2.16L408.69,117h-1.32Z"/><path class="cls-1" d="M414.57,117.91h8.11v1.71h-6.18v4.93h5.83v1.71h-5.83v5.63H423v1.72h-8.38Z"/><path class="cls-1" d="M431.5,122c0-1.65-.59-2.79-2.44-2.79a2.33,2.33,0,0,0-2.59,2.55c0,4.42,7.41,1.78,7.41,7.52,0,3.63-2.66,4.66-4.88,4.66-3.67,0-4.75-1.89-4.75-5.23h1.94c0,1.76.11,3.65,2.95,3.65a2.64,2.64,0,0,0,2.73-2.77c0-4.44-7.41-1.87-7.41-7.63,0-1.45.62-4.33,4.59-4.33,3,0,4.35,1.5,4.4,4.38Z"/><path class="cls-1" d="M333.45,142.34h3.69v12.71h5.34v3h-9Z"/><path class="cls-1" d="M345.78,151.86l-4-9.52h4.09l1.76,5.83h0l1.8-5.83h4l-4,9.52V158h-3.69Z"/><path class="cls-1" d="M360,158.35c-4.86,0-5.52-3.17-5.52-8.16S355.1,142,360,142c5.23,0,5.52,3.8,5.52,8.16S365.19,158.35,360,158.35Zm0-2.46c1.5,0,1.72-1.38,1.72-5.7s-.22-5.7-1.72-5.7-1.67,1.39-1.67,5.7S358.49,155.89,359.94,155.89Z"/><path class="cls-1" d="M368,142.34h4.24l3,10.2h0v-10.2h3.43V158h-4.18l-3.23-10.82h0V158H368Z"/><rect class="cls-1" x="315.95" y="69.03" width="1.75" height="89.03"/><rect class="cls-1" x="70.87" y="69.07" width="23.29" height="89.01"/><polygon class="cls-1" points="126.59 69.07 141.62 123.92 141.87 123.92 141.87 69.07 163.66 69.07 163.66 158.08 138.12 158.08 122.59 103.11 122.34 103.11 122.34 158.08 100.55 158.08 100.55 69.07 126.59 69.07"/><path class="cls-1" d="M205.74,92.63a13.33,13.33,0,0,0-1.63-6.79,5.39,5.39,0,0,0-5-2.81q-3.76,0-5.51,2.43a9,9,0,0,0-1.76,5.43,8.88,8.88,0,0,0,2.82,6.92,26,26,0,0,0,7.07,4.42q4.26,1.87,9.15,3.8a41,41,0,0,1,9.14,5.05,25.08,25.08,0,0,1,7.07,8.16q2.82,5,2.82,13.15,0,14.21-8.14,20.63t-23.55,6.42a62.58,62.58,0,0,1-12.84-1.18,23.06,23.06,0,0,1-9.39-4.12,18.42,18.42,0,0,1-5.82-7.67,30.13,30.13,0,0,1-2-11.71v-3.12h22.54v2.13q0,5.74,2.13,8a7.15,7.15,0,0,0,5.51,2.31,6.67,6.67,0,0,0,5.58-2.5,9.66,9.66,0,0,0,1.94-6.11,9.09,9.09,0,0,0-2.7-6.91,23.75,23.75,0,0,0-6.76-4.37q-4.08-1.8-8.83-3.68a38.64,38.64,0,0,1-8.84-4.86,24,24,0,0,1-6.76-7.86c-1.8-3.23-2.69-7.48-2.69-12.71q0-13.58,7.27-20.7t22-7.11q15.27,0,22.1,6.55t6.83,20.88H205.74Z"/><path class="cls-1" d="M278.37,69.07l21.79,89H275.37L273,142.5H254.45l-2.38,15.58H227.65l21.42-89ZM263.6,87.27,257.21,125h13l-6.4-37.77Z"/><polygon class="cls-1" points="284.39 69.03 300.17 69.03 300.17 135.87 284.39 69.03"/></svg>