<svg id="Calque_1" data-name="Calque 1" xmlns="http://www.w3.org/2000/svg" viewBox="0 0 5669.29 2267.72"><defs><style>.cls-1{fill:#241f20;}.cls-2{fill:#5f6062;}.cls-3{fill:#bcbec0;}</style></defs><title>IN</title><path class="cls-1" d="M3335.8,690.33h19.35v157H3335.8Z"/><path class="cls-1" d="M3380.8,690.33h25.06l51.9,131h.44v-131h19.35v157h-26.61l-50.36-127.1h-.43v127.1H3380.8Z"/><path class="cls-1" d="M3570.24,731c0-16.49-5.94-27.93-24.41-27.93-16.27,0-25.95,8.79-25.95,25.51,0,44.2,74.1,17.81,74.1,75.2,0,36.28-26.61,46.62-48.82,46.62-36.71,0-47.5-18.91-47.5-52.33H3517c0,17.59,1.1,36.5,29.47,36.5,15.4,0,27.28-11,27.28-27.71,0-44.41-74.11-18.69-74.11-76.3,0-14.51,6.15-43.32,46-43.32,29.9,0,43.53,15,44,43.76Z"/><path class="cls-1" d="M3662.1,847.33h-19.35V707.47h-39.36V690.33h98.29v17.14H3662.1Z"/><path class="cls-1" d="M3718.17,690.33h19.35v157h-19.35Z"/><path class="cls-1" d="M3812.5,847.33h-19.35V707.47h-39.37V690.33h98.29v17.14H3812.5Z"/><path class="cls-1" d="M3867.71,690.33h19.35V800.71c0,23.09,7.48,33.87,26.61,33.87,20.66,0,26.83-11.88,26.83-33.87V690.33h19.35V800.71c0,30.12-15.39,49.7-46.17,49.7-31.44,0-46-17.37-46-49.7Z"/><path class="cls-1" d="M4034.19,847.33h-19.36V707.47h-39.37V690.33h98.29v17.14h-39.57Z"/><path class="cls-1" d="M4141.08,690.33h25.07l51.9,131h.44v-131h19.35v157h-26.6l-50.35-127.1h-.45v127.1h-19.35Z"/><path class="cls-1" d="M4298,690.33H4324l42.22,157H4346l-11.22-43.1h-50.13L4273,847.33h-20.23Zm-9.45,98.07h42.22l-20-75.86h-.44Z"/><path class="cls-1" d="M4415.22,847.33h-19.36V707.47h-39.36V690.33h98.29v17.14h-39.58Z"/><path class="cls-1" d="M4471.29,690.33h19.35v157h-19.35Z"/><path class="cls-1" d="M4614.64,768.83c0,39.58-7.26,81.58-50.58,81.58s-50.58-42-50.58-81.58,7.26-81.58,50.58-81.58S4614.64,729.25,4614.64,768.83Zm-80.93,0c0,36.28,3.52,65.75,30.35,65.75s30.35-29.47,30.35-65.75-3.53-65.75-30.35-65.75S4533.72,732.55,4533.72,768.83Z"/><path class="cls-1" d="M4637.57,690.33h25.08l51.9,131h.43v-131h19.36v157h-26.61l-50.35-127.1h-.44v127.1h-19.36Z"/><path class="cls-1" d="M4794.55,690.33h25.94l42.23,157h-20.23l-11.23-43.1h-50.13l-11.66,43.1h-20.23Zm-9.46,98.07h42.22l-20-75.86h-.44Z"/><path class="cls-1" d="M4877.5,690.33h19.36V830.17h63.77v17.15H4877.5Z"/><path class="cls-1" d="M3337.78,934.7h42c48.82,0,55,35.18,55,78.5,0,39.59-9.89,78.5-53,78.5h-44Zm19.35,141.17h20.24c33.42,0,37.16-34.31,37.16-62.45,0-30.35-2-62.89-37.16-62.89h-20.24Z"/><path class="cls-1" d="M3457.38,934.7h81.14v17.15h-61.79v49.25H3535v17.15h-58.27v56.29h64.42v17.15h-83.77Z"/><path class="cls-1" d="M3626.67,975.38c0-16.49-5.93-27.93-24.41-27.93-16.27,0-25.94,8.79-25.94,25.51,0,44.2,74.11,17.81,74.11,75.2,0,36.28-26.61,46.62-48.82,46.62-36.72,0-47.5-18.91-47.5-52.33h19.35c0,17.59,1.09,36.5,29.47,36.5,15.38,0,27.26-11,27.26-27.71,0-44.41-74.1-18.69-74.1-76.3,0-14.51,6.15-43.32,46-43.32,29.91,0,43.55,15,44,43.76Z"/><path class="cls-1" d="M3789.42,975.38c0-16.49-5.94-27.93-24.41-27.93-16.28,0-26,8.79-26,25.51,0,44.2,74.11,17.81,74.11,75.2,0,36.28-26.61,46.62-48.82,46.62-36.71,0-47.5-18.91-47.5-52.33h19.35c0,17.59,1.1,36.5,29.47,36.5,15.4,0,27.28-11,27.28-27.71,0-44.41-74.11-18.69-74.11-76.3,0-14.51,6.16-43.32,46-43.32,29.91,0,43.53,15,44,43.76Z"/><path class="cls-1" d="M3928.66,1037.82c-1.76,29.68-13.42,57-47.71,57-44.65,0-50.58-42-50.58-81.58s7.26-81.58,50.58-81.58c32.1,0,45.52,18,46.39,48.82h-20.22c-.46-17.82-6.17-33-26.17-33-26.83,0-30.35,29.47-30.35,65.75s3.52,65.75,30.35,65.75c23.53,0,26.83-22,27.48-41.12Z"/><path class="cls-1" d="M3947.14,934.7h19.36v157h-19.36Z"/><path class="cls-1" d="M3992.14,934.7h81.14v17.15h-61.8v49.25h58.28v17.15h-58.28v56.29h64.43v17.15h-83.78Z"/><path class="cls-1" d="M4094.11,934.7h25.07l51.89,131h.45v-131h19.35v157h-26.61L4113.9,964.6h-.45v127.1h-19.35Z"/><path class="cls-1" d="M4312.08,1037.82c-1.77,29.68-13.41,57-47.72,57-44.64,0-50.58-42-50.58-81.58s7.27-81.58,50.58-81.58c32.1,0,45.52,18,46.41,48.82h-20.24c-.43-17.82-6.15-33-26.16-33-26.83,0-30.34,29.47-30.34,65.75s3.52,65.75,30.34,65.75c23.54,0,26.83-22,27.49-41.12Z"/><path class="cls-1" d="M4330.69,934.7h81.14v17.15H4350v49.25h58.28v17.15H4350v56.29h64.43v17.15h-83.78Z"/><path class="cls-1" d="M4500,975.38c0-16.49-5.95-27.93-24.41-27.93-16.27,0-25.95,8.79-25.95,25.51,0,44.2,74.1,17.81,74.1,75.2,0,36.28-26.61,46.62-48.81,46.62-36.72,0-47.5-18.91-47.5-52.33h19.36c0,17.59,1.09,36.5,29.45,36.5,15.4,0,27.28-11,27.28-27.71,0-44.41-74.1-18.69-74.1-76.3,0-14.51,6.15-43.32,46-43.32,29.9,0,43.54,15,44,43.76Z"/><path class="cls-1" d="M3366.58,1179.07h25.95l42.22,157h-20.23L3403.3,1293h-50.13l-11.66,43.1h-20.23Zm-9.46,98.07h42.22l-20-75.86h-.45Z"/><path class="cls-1" d="M3449.55,1179.07h40c13.64,0,48.6,0,48.6,45.07,0,29.25-18.7,45.51-45.3,45.51h-24v66.41h-19.35Zm19.35,74.76H3492c14.08,0,25.94-9.67,25.94-30.56,0-17.15-8.13-28.36-27.26-28.36H3468.9Z"/><path class="cls-1" d="M3555.92,1179.07h40c13.64,0,48.6,0,48.6,45.07,0,29.25-18.69,45.51-45.3,45.51h-24v66.41h-19.35Zm19.35,74.76h23.09c14.07,0,26-9.67,26-30.56,0-17.15-8.14-28.36-27.26-28.36h-21.78Z"/><path class="cls-1" d="M3662.3,1179.07h19.35v139.84h63.77v17.15H3662.3Z"/><path class="cls-1" d="M3761.9,1179.07h19.35v157H3761.9Z"/><path class="cls-1" d="M3881.73,1331.23c-6.82,5.06-15.83,7.92-27,7.92-43.33,0-50.58-42-50.58-81.58s7.26-81.58,50.58-81.58,50.57,42,50.57,81.58c0,22.64-2.41,46.17-12.75,62l15.83,14.52-10.77,11.44Zm-27.93-25.28,10.77-11.88,14.52,13.19c4.83-11.87,5.94-29.68,5.94-49.69,0-36.28-3.52-65.75-30.34-65.75s-30.35,29.47-30.35,65.75,3.52,65.75,30.35,65.75a26,26,0,0,0,14.29-3.74Z"/><path class="cls-1" d="M3926.74,1179.07h19.36v110.38c0,23.09,7.47,33.87,26.6,33.87,20.67,0,26.83-11.88,26.83-33.87V1179.07h19.36v110.38c0,30.12-15.39,49.7-46.18,49.7-31.45,0-46-17.37-46-49.7Z"/><path class="cls-1" d="M4043.75,1179.07h81.13v17.15H4063.1v49.25h58.27v17.15H4063.1v56.29h64.43v17.15h-83.78Zm45.29-39.81h21.55l-23.75,31.23h-13.19Z"/><path class="cls-1" d="M4145.71,1179.07h81.14v17.15h-61.79v49.25h58.27v17.15h-58.27v56.29h64.43v17.15h-83.79Z"/><path class="cls-1" d="M4315,1219.75c0-16.49-5.93-27.93-24.39-27.93-16.28,0-25.95,8.79-25.95,25.51,0,44.19,74.1,17.81,74.1,75.2,0,36.29-26.6,46.62-48.82,46.62-36.73,0-47.5-18.91-47.5-52.33h19.36c0,17.59,1.1,36.5,29.46,36.5,15.4,0,27.27-11,27.27-27.71,0-44.41-74.1-18.69-74.1-76.3,0-14.51,6.16-43.32,45.95-43.32,29.91,0,43.55,15,44,43.76Z"/><path class="cls-1" d="M3334.48,1423.44h36.94v127.09h53.44v29.91h-90.38Z"/><path class="cls-1" d="M3457.81,1518.66l-39.8-95.22h40.9l17.59,58.27h.43l18-58.27h39.58l-39.8,95.22v61.79h-36.94Z"/><path class="cls-1" d="M3599.57,1583.52c-48.59,0-55.19-31.66-55.19-81.58s6.6-81.58,55.19-81.58c52.34,0,55.2,38,55.2,81.58S3651.91,1583.52,3599.57,1583.52Zm-.22-24.63c15,0,17.15-13.85,17.15-57s-2.2-57-17.15-57c-14.51,0-16.71,13.86-16.71,57S3584.85,1558.89,3599.35,1558.89Z"/><path class="cls-1" d="M3679.56,1423.44H3722l30.35,102h.44v-102h34.3v157h-41.77L3713,1472.25h-.44v108.19h-33Z"/><rect class="cls-1" x="3159.5" y="690.28" width="17.46" height="890.29"/><rect class="cls-2" x="708.66" y="690.7" width="232.9" height="890.12"/><polygon class="cls-2" points="1265.91 690.7 1416.2 1239.23 1418.71 1239.23 1418.71 690.7 1636.58 690.7 1636.58 1580.81 1381.14 1580.81 1225.87 1031.08 1223.37 1031.08 1223.37 1580.81 1005.46 1580.81 1005.46 690.7 1265.91 690.7"/><path class="cls-2" d="M2057.44,926.29c0-26.57-5.52-49.24-16.35-67.9s-27.58-28.08-50.05-28.08q-37.63,0-55.09,24.32a90,90,0,0,0-17.55,54.25q0,43.57,28.16,69.16t70.71,44.23q42.63,18.7,91.48,38a410.44,410.44,0,0,1,91.42,50.53q42.55,31.15,70.73,81.62T2299.1,1324q0,142.13-81.38,206.31-81.47,64.35-235.48,64.22-72.63,0-128.4-11.83c-37.09-7.91-68.46-21.62-93.88-41.18s-44.91-45-58.2-76.71-20-70.63-20-117.15v-31.23h225.37v21.27q0,57.43,21.28,80.41c14.23,15.43,32.55,23.13,55.11,23.13,24.25,0,42.71-8.39,55.77-25,12.89-16.61,19.41-36.91,19.41-61.13,0-29-9.06-52.14-27-69.12s-40.48-31.63-67.58-43.7-56.57-24.31-88.26-36.78a386.41,386.41,0,0,1-88.37-48.59q-40.7-30-67.6-78.62c-18-32.31-26.93-74.78-26.93-127.1q0-135.85,72.67-207T1986,673.19q152.72,0,221,65.5t68.27,208.85H2057.44Z"/><path class="cls-2" d="M2783.74,690.66l217.9,890.15h-247.9L2729.89,1425H2544.54l-23.81,155.78h-244.2l214.19-890.15ZM2636,872.71l-63.87,377.69h130.25l-64-377.69Z"/><polygon class="cls-3" points="2843.91 690.27 3001.7 690.27 3001.7 1358.7 2843.91 690.27"/></svg>