<svg id="Calque_1" data-name="Calque 1" xmlns="http://www.w3.org/2000/svg" xmlns:xlink="http://www.w3.org/1999/xlink" viewBox="0 0 500.09 499.99"><defs><style>.cls-1{fill:url(#Dégradé_sans_nom);}.cls-2{fill:url(#Dégradé_sans_nom_2);}.cls-3{fill:url(#Dégradé_sans_nom_3);}.cls-4{fill:url(#Dégradé_sans_nom_4);}.cls-5{fill:url(#Dégradé_sans_nom_5);}.cls-6{fill:url(#Dégradé_sans_nom_6);}.cls-7{fill:url(#Dégradé_sans_nom_7);}.cls-8{fill:url(#Dégradé_sans_nom_8);}.cls-9{fill:url(#Dégradé_sans_nom_9);}.cls-10{fill:url(#Dégradé_sans_nom_10);}.cls-11{fill:url(#Dégradé_sans_nom_11);}.cls-12{fill:url(#Dégradé_sans_nom_12);}.cls-13{fill:url(#Dégradé_sans_nom_13);}.cls-14{fill:url(#Dégradé_sans_nom_14);}.cls-15{fill:url(#Dégradé_sans_nom_15);}.cls-16{fill:url(#Dégradé_sans_nom_16);}.cls-17,.cls-18{fill:none;}.cls-17,.cls-18,.cls-19{stroke-miterlimit:10;}.cls-17{stroke-width:4px;stroke:url(#Dégradé_sans_nom_17);}.cls-18{stroke-width:2px;stroke:url(#Dégradé_sans_nom_18);}.cls-19{fill:url(#Dégradé_sans_nom_19);stroke:url(#Dégradé_sans_nom_20);}.cls-20,.cls-21,.cls-22{opacity:0.2;}.cls-20,.cls-21,.cls-23{isolation:isolate;}.cls-24{fill:#fffbbb;}.cls-25{fill:url(#Dégradé_sans_nom_21);}.cls-26{fill:url(#Dégradé_sans_nom_22);}.cls-27{fill:url(#Dégradé_sans_nom_23);}.cls-28{fill:url(#Dégradé_sans_nom_24);}.cls-29{fill:url(#Dégradé_sans_nom_25);}</style><radialGradient id="Dégradé_sans_nom" cx="316.2" cy="509.04" r="65.03" gradientTransform="matrix(1, 0, 0, -1, -10.75, 544.04)" gradientUnits="userSpaceOnUse"><stop offset="0" stop-color="#200"/><stop offset="0.92" stop-color="#710000"/></radialGradient><radialGradient id="Dégradé_sans_nom_2" cx="446.15" cy="401.59" r="63.67" gradientTransform="matrix(1, 0, 0, -1, -34.05, 524.34)" xlink:href="#Dégradé_sans_nom"/><radialGradient id="Dégradé_sans_nom_3" cx="475.8" cy="238.69" r="65.04" gradientTransform="matrix(1, 0, 0, -1, -34.05, 524.34)" xlink:href="#Dégradé_sans_nom"/><radialGradient id="Dégradé_sans_nom_4" cx="368.4" cy="108.79" r="63.64" gradientTransform="matrix(1, 0, 0, -1, -34.05, 524.34)" xlink:href="#Dégradé_sans_nom"/><radialGradient id="Dégradé_sans_nom_5" cx="205.1" cy="79.04" r="65.36" gradientTransform="matrix(1, 0, 0, -1, -34.05, 524.34)" xlink:href="#Dégradé_sans_nom"/><radialGradient id="Dégradé_sans_nom_6" cx="75.5" cy="186.74" r="63.52" gradientTransform="matrix(1, 0, 0, -1, -34.05, 524.34)" xlink:href="#Dégradé_sans_nom"/><radialGradient id="Dégradé_sans_nom_7" cx="153.2" cy="479.34" r="63.66" gradientTransform="matrix(1, 0, 0, -1, -34.05, 524.34)" xlink:href="#Dégradé_sans_nom"/><radialGradient id="Dégradé_sans_nom_8" cx="45.8" cy="349.29" r="65.04" gradientTransform="matrix(1, 0, 0, -1, -34.05, 524.34)" xlink:href="#Dégradé_sans_nom"/><radialGradient id="Dégradé_sans_nom_9" cx="121.45" cy="154.39" r="58.28" gradientTransform="matrix(1, 0, 0, -1, -34.05, 524.34)" xlink:href="#Dégradé_sans_nom"/><radialGradient id="Dégradé_sans_nom_10" cx="261.35" cy="82.04" r="58.97" gradientTransform="matrix(1, 0, 0, -1, -34.05, 524.34)" xlink:href="#Dégradé_sans_nom"/><radialGradient id="Dégradé_sans_nom_11" cx="400.35" cy="154.79" r="58.03" gradientTransform="matrix(1, 0, 0, -1, -34.05, 524.34)" xlink:href="#Dégradé_sans_nom"/><radialGradient id="Dégradé_sans_nom_12" cx="472.85" cy="294.64" r="59.12" gradientTransform="matrix(1, 0, 0, -1, -34.05, 524.34)" xlink:href="#Dégradé_sans_nom"/><radialGradient id="Dégradé_sans_nom_13" cx="400.05" cy="433.54" r="57.95" gradientTransform="matrix(1, 0, 0, -1, -34.05, 524.34)" xlink:href="#Dégradé_sans_nom"/><radialGradient id="Dégradé_sans_nom_14" cx="260" cy="506.04" r="59.49" gradientTransform="matrix(1, 0, 0, -1, -34.05, 524.34)" xlink:href="#Dégradé_sans_nom"/><radialGradient id="Dégradé_sans_nom_15" cx="121.25" cy="432.99" r="57.88" gradientTransform="matrix(1, 0, 0, -1, -34.05, 524.34)" xlink:href="#Dégradé_sans_nom"/><radialGradient id="Dégradé_sans_nom_16" cx="48.75" cy="293.89" r="58.67" gradientTransform="matrix(1, 0, 0, -1, -34.05, 524.34)" xlink:href="#Dégradé_sans_nom"/><linearGradient id="Dégradé_sans_nom_17" x1="-15.04" y1="896.75" x2="451.01" y2="896.75" gradientTransform="translate(-193.61 -563.43) rotate(-15)" gradientUnits="userSpaceOnUse"><stop offset="0" stop-color="#fffbbb"/><stop offset="0.2" stop-color="#e8bd5f"/><stop offset="0.4" stop-color="#fbf1ac"/><stop offset="0.6" stop-color="#edc971"/><stop offset="0.8" stop-color="#fcf4b1"/><stop offset="1" stop-color="#f0d380"/></linearGradient><linearGradient id="Dégradé_sans_nom_18" x1="-126.25" y1="917.41" x2="299.92" y2="917.41" gradientTransform="translate(-283.72 -505.01) rotate(-29.89)" xlink:href="#Dégradé_sans_nom_17"/><radialGradient id="Dégradé_sans_nom_19" cx="246.18" cy="598.55" r="203.12" gradientTransform="matrix(1, -0.09, 0.09, 1, -50.16, -328.12)" gradientUnits="userSpaceOnUse"><stop offset="0.59" stop-color="#200"/><stop offset="1" stop-color="#580000"/></radialGradient><linearGradient id="Dégradé_sans_nom_20" x1="-278.31" y1="881.42" x2="115.91" y2="881.42" gradientTransform="translate(-317.9 -433.67) rotate(-45)" xlink:href="#Dégradé_sans_nom_17"/><linearGradient id="Dégradé_sans_nom_21" x1="211.23" y1="-301.84" x2="302.11" y2="-392.72" gradientTransform="matrix(1, 0, 0, -1, 23.3, 6.09)" gradientUnits="userSpaceOnUse"><stop offset="0" stop-color="#e8bd5f"/><stop offset="0.5" stop-color="#fffbbb"/><stop offset="1" stop-color="#ebc46a"/></linearGradient><linearGradient id="Dégradé_sans_nom_22" x1="137.09" y1="-203.16" x2="212.27" y2="-203.16" gradientTransform="matrix(1, 0, 0, -1, 23.3, 6.09)" gradientUnits="userSpaceOnUse"><stop offset="0" stop-color="#fffbbb"/><stop offset="0.25" stop-color="#e8bd5f"/><stop offset="0.5" stop-color="#f9e9a1"/><stop offset="0.75" stop-color="#e3bb69"/><stop offset="1" stop-color="#f3dc91"/></linearGradient><linearGradient id="Dégradé_sans_nom_23" x1="223.75" y1="-203.36" x2="313.69" y2="-203.36" xlink:href="#Dégradé_sans_nom_22"/><linearGradient id="Dégradé_sans_nom_24" x1="315.85" y1="-160.7" x2="356.58" y2="-231.27" gradientTransform="matrix(1, 0, 0, -1, 23.3, 6.09)" gradientUnits="userSpaceOnUse"><stop offset="0" stop-color="#e8bd5f"/><stop offset="1" stop-color="#fffbbb"/></linearGradient><linearGradient id="Dégradé_sans_nom_25" x1="332.98" y1="-253.31" x2="406.99" y2="-253.31" xlink:href="#Dégradé_sans_nom_22"/></defs><title>bal19_color</title><g id="Pétales_extérieures" data-name="Pétales extérieures"><polygon class="cls-1" points="282.75 2.15 219.55 19.05 220.05 22.55 389.75 67.85 391.35 64.85 282.75 2.15"/><polygon class="cls-2" points="448.45 97.85 391.35 64.85 389.75 67.85 477.65 220.05 481.05 219.45 448.45 97.85"/><polygon class="cls-3" points="497.95 282.65 481.05 219.45 477.65 220.05 432.15 389.65 435.25 391.25 497.95 282.65"/><polygon class="cls-4" points="402.25 448.35 435.25 391.25 432.15 389.65 280.05 477.45 280.75 480.85 402.25 448.35"/><polygon class="cls-5" points="217.35 497.85 280.75 480.85 280.05 477.45 110.35 432.15 107.95 434.65 217.35 497.85"/><polygon class="cls-6" points="51.65 402.15 107.95 434.65 110.35 432.15 22.45 279.95 19.15 280.65 51.65 402.15"/><polygon class="cls-7" points="97.85 51.65 219.55 19.05 220.05 22.55 67.95 110.35 64.85 108.85 97.85 51.65"/><polygon class="cls-8" points="2.15 217.35 19.15 280.65 22.45 279.95 67.95 110.35 64.85 108.85 2.15 217.35"/></g><g id="Pétales_intérieures" data-name="Pétales intérieures"><polygon class="cls-9" points="110.35 432.15 52.35 331.65 53.45 331.45 168.65 446.55 169.05 447.85 110.35 432.15"/><polygon class="cls-10" points="280.05 477.45 169.05 447.85 168.65 446.55 331.45 446.55 332.55 447.15 280.05 477.45"/><polygon class="cls-11" points="432.15 389.65 332.55 447.15 331.45 446.55 446.55 331.35 447.75 331.55 432.15 389.65"/><polygon class="cls-12" points="477.65 220.05 447.75 331.55 446.55 331.35 446.65 168.55 447.15 167.25 477.65 220.05"/><polygon class="cls-13" points="389.75 67.85 447.15 167.25 446.65 168.55 331.45 53.45 331.95 52.45 389.75 67.85"/><polygon class="cls-14" points="220.05 22.55 331.95 52.45 331.45 53.45 168.65 53.45 166.55 53.45 220.05 22.55"/><polygon class="cls-15" points="67.95 110.35 166.55 53.45 168.65 53.45 53.55 168.65 52.35 168.65 67.95 110.35"/><polygon class="cls-16" points="22.45 279.95 52.35 331.65 53.45 331.45 53.55 168.65 52.35 168.65 22.45 279.95"/></g><polygon id="Grand_Octogone" data-name="Grand Octogone" class="cls-17" points="282.75 2.15 97.85 51.65 2.15 217.35 51.65 402.15 217.35 497.85 402.25 448.35 497.95 282.65 448.45 97.85 282.75 2.15"/><polygon id="Moyen_Octogone" data-name="Moyen Octogone" class="cls-18" points="220.05 22.55 67.95 110.35 22.45 279.95 110.35 432.15 280.05 477.45 432.15 389.65 477.65 220.05 389.75 67.85 220.05 22.55"/><polygon id="Petit_Octogone" data-name="Petit Octogone" class="cls-19" points="168.65 53.45 53.55 168.65 53.45 331.45 168.65 446.55 331.45 446.55 446.55 331.35 446.65 168.55 331.45 53.45 168.65 53.45"/><g id="Calque_3" data-name="Calque 3"><g id="Lettres"><g id="_2020_Ombre" data-name="2020 Ombre" class="cls-20"><path d="M258.37,423.63H244.11v-2.52a6.25,6.25,0,0,1,1-3.28,11.54,11.54,0,0,1,2.47-2.84c1-.82,2.05-1.67,3.2-2.57l3.21-2.49a11.58,11.58,0,0,0,2.46-2.54,4.73,4.73,0,0,0,1-2.73,7.31,7.31,0,0,0-.5-3,3.34,3.34,0,0,0-1.49-1.68,6.82,6.82,0,0,0-2-.7,13.87,13.87,0,0,0-2.43-.18,6,6,0,0,0-3.51,1,6.14,6.14,0,0,0-2.18,3.39l3.89,2.91h-1.77l-3.35-2.52a8.29,8.29,0,0,1,2.45-4.39,6.67,6.67,0,0,1,4.47-1.44c2.64,0,4.54.52,5.72,1.55s1.76,2.71,1.76,5a5.76,5.76,0,0,1-1,3.13,11.61,11.61,0,0,1-2.46,2.74c-1,.79-2.05,1.62-3.21,2.5s-2.22,1.7-3.2,2.46a11.58,11.58,0,0,0-2.47,2.63,5.33,5.33,0,0,0-1,3v1.44h13.18Z" transform="translate(-34.05 -16.05)"/><path d="M276.68,420.48a6.41,6.41,0,0,1-11.42,0q-1.85-3.5-1.85-9.47t1.85-9.47a6.41,6.41,0,0,1,11.42,0,25.06,25.06,0,0,1,0,18.9Zm-.9-18.07q-1.68-3.26-4.81-3.26t-4.81,3.24a23.19,23.19,0,0,0,0,17.28q1.68,3.24,4.81,3.24t4.81-3.26a23.08,23.08,0,0,0,0-17.24Z" transform="translate(-34.05 -16.05)"/><path d="M297.72,423.63H283.46v-2.52a6.25,6.25,0,0,1,1-3.28,11.33,11.33,0,0,1,2.47-2.84c1-.82,2.05-1.67,3.2-2.57l3.21-2.49a11.58,11.58,0,0,0,2.46-2.54,4.73,4.73,0,0,0,1-2.73,7.49,7.49,0,0,0-.5-3,3.36,3.36,0,0,0-1.5-1.68,6.82,6.82,0,0,0-2-.7,13.87,13.87,0,0,0-2.43-.18,6.07,6.07,0,0,0-3.51,1,6.18,6.18,0,0,0-2.17,3.39l3.88,2.91h-1.76l-3.35-2.52a8.29,8.29,0,0,1,2.45-4.39,6.66,6.66,0,0,1,4.46-1.44q4,0,5.73,1.55t1.76,5a5.76,5.76,0,0,1-1,3.13,11.61,11.61,0,0,1-2.46,2.74c-1,.79-2.06,1.62-3.21,2.5s-2.22,1.7-3.2,2.46a11.36,11.36,0,0,0-2.47,2.63,5.33,5.33,0,0,0-1,3v1.44h13.18Z" transform="translate(-34.05 -16.05)"/><path d="M316,420.48a6.4,6.4,0,0,1-11.41,0q-1.85-3.5-1.85-9.47t1.85-9.47a6.4,6.4,0,0,1,11.41,0,24.94,24.94,0,0,1,0,18.9Zm-.9-18.07q-1.67-3.26-4.8-3.26t-4.81,3.24a23.19,23.19,0,0,0,0,17.28q1.68,3.24,4.81,3.24t4.8-3.26a23,23,0,0,0,0-17.24Z" transform="translate(-34.05 -16.05)"/></g><g id="INSA_LYON_ombre" data-name="INSA LYON ombre" class="cls-20"><path d="M207.76,308.36h-1.08v-25.2h1.08Z" transform="translate(-34.05 -16.05)"/><path d="M217.7,307.28h11.16L216,285v23.36h-1.08v-25.2h1.26l13.47,23.29V283.16h1.08v25.2h-13Z" transform="translate(-34.05 -16.05)"/><path d="M237.07,289.39q0-3.5,1.76-5t5.73-1.55a6.66,6.66,0,0,1,4.46,1.44,8.33,8.33,0,0,1,2.45,4.39l-3.35,2.52h-1.76l3.88-2.91a6.18,6.18,0,0,0-2.17-3.39,6.07,6.07,0,0,0-3.51-1,13.87,13.87,0,0,0-2.43.18,7.12,7.12,0,0,0-2,.7,3.36,3.36,0,0,0-1.5,1.68,7.49,7.49,0,0,0-.5,2.95,3.6,3.6,0,0,0,1.46,2.81,13.44,13.44,0,0,0,3.54,2.08l4.2,1.77a11.81,11.81,0,0,1,3.56,2.3,4.4,4.4,0,0,1,1.46,3.24,7.3,7.3,0,0,1-1.78,5.37q-1.78,1.76-6.11,1.76a9.45,9.45,0,0,1-5.54-1.42,7.36,7.36,0,0,1-2.77-4.41l1-.43a6.43,6.43,0,0,0,2.46,4.05,8.91,8.91,0,0,0,4.84,1.13,8.14,8.14,0,0,0,5.13-1.33q1.68-1.33,1.68-4.72a3.63,3.63,0,0,0-1.46-2.81,13.41,13.41,0,0,0-3.56-2.08q-2.11-.87-4.2-1.77a11.83,11.83,0,0,1-3.54-2.3A4.36,4.36,0,0,1,237.07,289.39Z" transform="translate(-34.05 -16.05)"/><path d="M258.67,307.28h13.25l-7.64-21-8,22.07H255.1l9.18-25.24,9.18,25.24H258.67Z" transform="translate(-34.05 -16.05)"/><path d="M303.34,307.28v1.08h-15v-25.2h1.09v24.12Z" transform="translate(-34.05 -16.05)"/><path d="M308.67,283.16h14.58l-9,14.4v10.8h-1.08v-10.8l-9-14.4h1.26l8.28,13.21,7.6-12.13H308.67Z" transform="translate(-34.05 -16.05)"/><path d="M341.11,306q-2,2.72-6.41,2.72T328.29,306q-2-2.72-2-8.48V294q0-5.76,2-8.48t6.41-2.72q4.43,0,6.41,2.72t2,8.48v3.52Q343.09,303.28,341.11,306Zm-3.39-21.67a10.39,10.39,0,0,0-6.05,0,5.68,5.68,0,0,0-2.26,1.53,6.92,6.92,0,0,0-1.52,3.11,21.7,21.7,0,0,0-.5,5v3.52a21.64,21.64,0,0,0,.5,5,6.92,6.92,0,0,0,1.52,3.11,5.68,5.68,0,0,0,2.26,1.53,10.39,10.39,0,0,0,6.05,0,5.71,5.71,0,0,0,2.27-1.53,6.91,6.91,0,0,0,1.51-3.11,21.06,21.06,0,0,0,.51-5V294a21.12,21.12,0,0,0-.51-5,6.91,6.91,0,0,0-1.51-3.11A5.71,5.71,0,0,0,337.72,284.33Z" transform="translate(-34.05 -16.05)"/><path d="M352.23,307.28h11.16L350.5,285v23.36h-1.08v-25.2h1.26l13.47,23.29V283.16h1.08v25.2h-13Z" transform="translate(-34.05 -16.05)"/></g><path id="Noeud_Ombre" data-name="Noeud Ombre" class="cls-21" d="M339.3,389.1l-4.7-.9-14.6-3c-2.9-.6-5.7-1.1-8.5-1.8h0a5.68,5.68,0,0,1-2-1.1c-2.1-1.8-4.2-3.7-6.3-5.5-1.4-1.2-2.9-2.4-4.4-3.6-.9-.8-1.8-1.6-2.6-2.4-1.2-1.1-1.6-1-3.2-.5h0a58.35,58.35,0,0,1-6.1,1.5h0a33.1,33.1,0,0,1-16.8-1.4h0a1.8,1.8,0,0,0-2,.3l-4.5,3.9-6.9,5.9h0c-.6.6-1.1,1.1-1.7,1.6h0a9.47,9.47,0,0,1-2.6,1.4c-4.2.9-8.4,1.8-12.7,2.6l-10.3,2.1c-1.3.3-2.7.5-4,.8h-.8c.2-1.6.4-3.1.6-4.6.3-2.3.7-4.6,1.1-7l1.2-7.5c.5-3.3.8-6.7,1.5-10,.9-4,.1-7.9-.5-11.7s-1.1-7.5-1.7-11.3c-.5-3.3-1.1-6.5-1.6-9.8-.2-1.5-.4-3-.6-4.8h0a20.5,20.5,0,0,1,3.4.5c4.5,1.3,9,2.6,13.6,3.9l15.7,4.5h0a5.16,5.16,0,0,1,1.6.9c2.8,2.5,5.5,5,8.3,7.5,1.3,1.2,1.8,1.3,3.5.7h0a21.48,21.48,0,0,1,4.4-1.1h0a33.14,33.14,0,0,1,7.7-.6c3.8.2,7.5.6,11,2.3h0a2.11,2.11,0,0,0,2.5-.5c3.1-2.8,6.2-5.7,9.3-8.5h0a3.13,3.13,0,0,1,1-.5c3.8-1,7.4-2,11.1-3.1,3.2-.9,6.4-1.8,9.6-2.8s6.6-1.9,9.9-2.8h0l2.4-.3h0a23.22,23.22,0,0,1-.1,2.5c-.4,2.6-.9,5.1-1.3,7.7-.3,1.5-.4,3.1-.6,4.7-.4,2.9-.9,5.8-1.4,8.7-.4,2.4-.7,4.8-1.1,7.2h0a23,23,0,0,0,.4,7.4c.7,4.4,1.3,8.8,2,13.2l2.1,13.2h0A4.45,4.45,0,0,0,339.3,389.1Zm-30.8-32.6H297.7c-1.2,0-1.8.5-1.8,1.6v9.1h0a2.49,2.49,0,0,0,.6,1.4c1.7,1.6,3.5,3.1,5.2,4.7,2.5,2.1,4.9,4.3,7.4,6.4a7.46,7.46,0,0,0,3.2,2.1c7.5,1.6,15.1,3.1,22.7,4.6h1c-.1-.3-.1-.7-.2-1h0l-.3-.6c-1.1-2-2.2-4.1-3.3-6.2-2.4-4.7-4.8-9.4-7.3-14-1.1-2.1-2.3-4.2-3.4-6.4h0a3,3,0,0,0-2.9-1.7c-3.2.1-6.7,0-10.1,0ZM267.3,363h0c0-1.6.1-3.1,0-4.7-.1-1.3-.7-1.8-1.9-1.8h-21a2,2,0,0,0-1.9,1.2c-2.1,4.2-4.3,8.4-6.5,12.5s-4.4,8.4-6.7,12.7a19.94,19.94,0,0,1-1.1,1.9c-.4.6-.2,1.1.7,1a51,51,0,0,0,5.5-.7c5.7-1.1,11.4-2.2,17-3.3h0a5.56,5.56,0,0,0,1.7-.9c1.1-.9,2.2-1.9,3.3-2.8,3.4-3,6.7-6,10-8.9h0a2.74,2.74,0,0,0,.9-2.2c0-1.3.1-2.7,0-4Zm26.6-7.5V345c0-1.9-.5-2.5-2.3-3.1h0a28.53,28.53,0,0,0-7.1-1.2h0a39.33,39.33,0,0,0-11.9.8h0a5.16,5.16,0,0,0-3.1,1.6h0a2.06,2.06,0,0,0-.5,1.3v20.7c0,2.4.6,3.3,3,4h0a36.55,36.55,0,0,0,20-.4c1.6-.6,2-1.1,2-2.8Zm42.4-30.6c-1.2.2-2.2.4-3.1.6l-9.5,2.6c-5.1,1.4-10.1,2.8-15.2,4.3h0a5.94,5.94,0,0,0-2.4,1.4c-1.7,1.5-3.3,3-5,4.5-1.5,1.4-3,2.6-4.4,4.1h0a3.18,3.18,0,0,0-.8,1.8c-.1,2.8,0,5.5,0,8.3,0,1.3.4,1.7,1.7,1.7h22a2.13,2.13,0,0,0,1.9-1.1l1.8-3.3c1.1-2.1,2.2-4.4,3.4-6.5Zm-81.4,29.4h10.4c1.4,0,1.8-.4,2-1.7h0v-1c0-2.3-.1-4.7,0-7h0a4.5,4.5,0,0,0-1.7-3.7c-2.3-2-4.4-4.2-6.7-6.2h0a14.22,14.22,0,0,0-3.5-2.3h0c-1.5-.5-3.1-1-4.7-1.4-4.6-1.3-9.2-2.6-13.8-3.8-2.6-.7-5.2-1.4-7.9-2.1h-1.1a3.78,3.78,0,0,0,.2,1c.5,1,1.1,2,1.6,3,.9,1.6,1.8,3.3,2.6,4.9,3.3,6.3,6.7,12.6,10,18.9h0a2.24,2.24,0,0,0,2.2,1.4c3.5-.1,6.9-.1,10.4,0Zm81.5,28.1.3-.1a3.7,3.7,0,0,0-.1-1.1l-1.6-9.9c-.6-3.8-1.3-7.5-1.7-11.3h0a29.12,29.12,0,0,1-.3-5.9c.2-2,.4-4,.8-6,.3-2.4.7-4.7,1-7,.7-4.1,1.4-8.2,2.1-12.2h0v-.8c-.2.2-.3.2-.3.3l-4.5,8.7c-3,5.7-5.9,11.3-8.9,17h0a3,3,0,0,0,.1,3.3c.6,1.1,1.2,2.3,1.8,3.4l4.3,8.2c1.4,2.7,2.9,5.4,4.3,8.2.7,1.4,1.4,2.9,2.1,4.4h0a1.83,1.83,0,0,1,.6.8ZM227.8,329.1l-.3.1a5.66,5.66,0,0,0,.1,1.3l1.8,11.7c.6,3.7,1.2,7.5,1.8,11.2h0a15.48,15.48,0,0,1,0,4.3c-.2,2-.6,3.9-.9,5.9s-.6,4.4-.9,6.5c-.6,3.5-1.3,7-1.9,10.4h0a7.27,7.27,0,0,0-.1,1.4l.2.1c.2-.3.3-.5.5-.8.9-1.8,1.8-3.6,2.8-5.4.6-1.1,1.3-2.1,1.9-3.2,1-1.7,1.9-3.5,2.8-5.3l5.5-10.6h0a2.75,2.75,0,0,0,0-2.5c-1.8-3.5-3.6-7.1-5.5-10.6-2.4-4.5-4.8-9-7.2-13.6Z" transform="translate(-34.05 -16.05)"/><g id="Bal_Ombre" data-name="Bal Ombre" class="cls-22"><path d="M219.5,210.8l1.8.8c1.8.9,3.6,1.7,5.4,2.6h0a26.29,26.29,0,0,1,7,5.4h0a20.76,20.76,0,0,1,4.4,7.1c.5,1.3,1,2.7,1.4,4h0a25.91,25.91,0,0,1,.4,2.9c0,2.3.1,4.5,0,6.8h0a15.34,15.34,0,0,1-.6,3h0a21.7,21.7,0,0,1-2.1,5.5h0a24.27,24.27,0,0,1-5.9,7.2h0a30.32,30.32,0,0,1-7.4,4.8h0a49.49,49.49,0,0,1-5.3,2.1q-2.85.9-5.7,1.5h0c-1.1.2-2.2.4-3.3.5-2.4.3-4.8.7-7.2.8-3.6.2-7.2.4-10.8.4H166c-1.1,0-1.2-.1-1.2-1.2v-3.3c0-.7.2-1,1-1h31.3a50.54,50.54,0,0,0,5.5-.3h0c2.2-.2,4.4-.6,6.5-1,2.5-.5,4.9-1.3,7.3-1.9h0a28.46,28.46,0,0,0,7.4-3.1h0a18.71,18.71,0,0,0,7.2-7.3h0a25.9,25.9,0,0,0,2.2-5.5h0a7.38,7.38,0,0,0,.2-1.4h0a30.86,30.86,0,0,0,.3-4.3h0a48.35,48.35,0,0,0-.9-5.6h0a17.62,17.62,0,0,0-4.6-7.9h0a25.6,25.6,0,0,0-6.6-4.7h0a55.85,55.85,0,0,0-8.1-3c-1.6-.5-3.1-1-4.7-1.5-.9-.3-1.9-.6-2.8-.9-.2-.1-.6-.3-.6-.5h0a1,1,0,0,1,.4-.7c1.1-.6,2.3-1.1,3.4-1.7,3.4-1.7,7-3.1,10.1-5.3h0a15.77,15.77,0,0,0,5.8-6.7h0c.5-1.4,1-2.7,1.4-4.1h0a18.46,18.46,0,0,0,.3-8.1h0a17.45,17.45,0,0,0-6.5-11.1h0a27.78,27.78,0,0,0-8.5-4.5q-3.3-1-6.6-1.8h0a82.8,82.8,0,0,0-11.2-1.4c-7.4-.5-14.8-.1-22.3-.3-.5,0-.8.1-.7.7h0v83.1c0,.6-.2.9-.8.9h-4.9c-.2,0-.5-.4-.5-.6a20.85,20.85,0,0,1,0-2.5V162.1c0-1.2,0-1.2,1.3-1.2,9.1,0,18.2,0,27.3.1h0a56.22,56.22,0,0,1,7.1.5h0c2.5.3,5,.8,7.4,1.3,2.1.5,4.2,1.3,6.4,1.9h0a29,29,0,0,1,6.7,3h0a27.64,27.64,0,0,1,7.8,6.6h0a24.1,24.1,0,0,1,3.2,5.6h0a25.6,25.6,0,0,1,1.5,7.7h0a28.32,28.32,0,0,1-.4,6.5h0A22.3,22.3,0,0,1,230,202h0A29.12,29.12,0,0,1,219.5,210.8Z" transform="translate(-34.05 -16.05)"/><path d="M332.3,261h0a.87.87,0,0,0-.1-.5c-.8-1.7-1.5-3.4-2.3-5.1a30,30,0,0,1-1.2-3.2l-1.2-2.7c-.6-1.4-1.3-2.9-1.9-4.3-.9-2.2-1.8-4.4-2.8-6.6-.6-1.5-1.4-3-2-4.5-.5-1.1-.9-2.3-1.4-3.4-.7-1.8-1.5-3.6-2.3-5.5s-1.6-3.7-2.4-5.6c-1.1-2.6-2.1-5.1-3.2-7.6-.6-1.5-1.4-3-2-4.4-.9-2.1-1.7-4.2-2.6-6.2s-1.9-4.4-2.8-6.6c-.8-1.9-1.6-3.9-2.5-5.8-.6-1.4-1.2-2.7-1.9-4.1-.8-1.9-1.7-3.9-2.5-5.8-.3-.6-.4-1.2-.7-1.8h0a6.61,6.61,0,0,0-.7-1.1l-.9,2.1c-.7,1.6-1.4,3.2-2,4.8s-1.3,3.2-2,4.8c-.4,1-.9,1.9-1.3,2.9-.8,1.9-1.6,3.7-2.4,5.6-.9,2.2-1.8,4.3-2.8,6.4-.6,1.5-1.4,3.1-2,4.6-.5,1.2-1,2.4-1.5,3.5l-2.4,5.7c-1.1,2.7-2.3,5.4-3.5,8-1,2.3-1.9,4.6-2.8,6.8-.8,1.9-1.6,3.7-2.4,5.6-.5,1.2-1,2.5-1.5,3.7s-1,2.4-1.5,3.5c-.7,1.7-1.4,3.3-2.2,5s-1.4,3.3-2.1,4.9c-.5,1.3-1,2.5-1.6,3.8-.8,1.9-1.7,3.9-2.5,5.8-.3.6-.5,1.3-.8,1.9h0a1.42,1.42,0,0,1-1.4.9h-4.5c-1,0-1.3-.5-.9-1.4.6-1.4,1.3-2.9,1.9-4.3,1.1-2.4,2.1-4.8,3.1-7.2.7-1.7,1.4-3.4,2.1-5,.9-2.2,1.9-4.4,2.8-6.6.8-2,1.6-4,2.5-6.1.5-1.2,1.1-2.3,1.6-3.5s1-2.5,1.5-3.8c.6-1.5,1.2-3.1,1.8-4.6.5-1.1,1-2.1,1.5-3.2.9-2.1,1.7-4.2,2.6-6.2.6-1.5,1.4-3,2-4.6s1.2-3.1,1.9-4.6,1.4-3,2-4.5c.9-2.1,1.7-4.2,2.6-6.3.7-1.6,1.5-3.2,2.2-4.9.6-1.5,1.2-3,1.9-4.5.5-1.2,1.1-2.4,1.5-3.6.8-1.9,1.5-3.8,2.3-5.7.4-1.1,1-2.1,1.5-3.2,1-2.4,2-4.9,3.1-7.3.5-1.3,1.1-2.5,1.7-3.7h0c.1-.3.4-.4.7-.5h0a1,1,0,0,1,.6.5c.8,1.7,1.6,3.4,2.3,5.1,1,2.4,1.9,4.8,2.9,7.2.6,1.5,1.3,3,2,4.4.9,2,1.7,4.1,2.5,6.1l1.5,3.3c.5,1.1.9,2.1,1.3,3.2s1,2.2,1.4,3.3l2.1,5.1c.5,1.1,1,2.3,1.6,3.4.2.4.3.8.5,1.2.4.8.7,1.7,1.1,2.5.5,1.2.9,2.4,1.4,3.6s1,2.2,1.5,3.4.9,2.2,1.4,3.3c.6,1.3,1.2,2.6,1.8,4l2.7,6.6,1.5,3.3c.5,1.1,1,2.4,1.5,3.6l2,4.6c.7,1.6,1.3,3.1,2,4.6l2.1,4.8c.7,1.6,1.4,3.4,2.1,5.1.6,1.4,1.3,2.9,1.9,4.3.4.9.8,1.8,1.1,2.7s.8,2,1.2,3l.9,2.1c.2.5-.1.7-.5.9h0a2.18,2.18,0,0,1-.8.1H268.7c-.7,0-1-.3-1-1v-3.6c0-.5.2-.8.8-.8h62C331.5,261.1,331.8,261,332.3,261Z" transform="translate(-34.05 -16.05)"/><path d="M366.9,206.5v44.1c0,1.2,0,1.2-1.2,1.2h-4.1c-1,0-1.1-.1-1.1-1.1V162.1c0-1,.1-1.2,1.1-1.2h4.3c.9,0,1,.2,1,1v44.6Z" transform="translate(-34.05 -16.05)"/><path d="M397.5,261.1h36c.7,0,1,.3,1,1v3.2c0,1.1-.2,1.2-1.2,1.2H361.5c-.5-.1-1-.3-.9-1.1.1-1.1,0-2.3,0-3.4h0a.77.77,0,0,1,.65-.89H397.5Z" transform="translate(-34.05 -16.05)"/></g><g id="_2020_texte" data-name="2020 texte" class="cls-23"><path class="cls-24" d="M257.14,422.1H242.88v-2.52a6.25,6.25,0,0,1,1-3.28,11.54,11.54,0,0,1,2.47-2.84c1-.82,2-1.67,3.2-2.57l3.21-2.49a11.58,11.58,0,0,0,2.46-2.54,4.73,4.73,0,0,0,1-2.73,7.31,7.31,0,0,0-.5-2.95,3.34,3.34,0,0,0-1.49-1.68,6.82,6.82,0,0,0-2-.7,13.87,13.87,0,0,0-2.43-.18,6,6,0,0,0-3.51,1,6.14,6.14,0,0,0-2.18,3.39l3.89,2.91h-1.77l-3.35-2.52a8.29,8.29,0,0,1,2.45-4.39,6.67,6.67,0,0,1,4.47-1.44c2.64,0,4.54.52,5.72,1.55s1.76,2.71,1.76,5a5.76,5.76,0,0,1-1,3.13,11.61,11.61,0,0,1-2.46,2.74c-1,.79-2.05,1.62-3.21,2.5s-2.22,1.7-3.2,2.46a11.58,11.58,0,0,0-2.47,2.63,5.33,5.33,0,0,0-1,3V421h13.18Z" transform="translate(-34.05 -16.05)"/><path class="cls-24" d="M275.45,419A6.41,6.41,0,0,1,264,419q-1.84-3.5-1.85-9.47T264,400a6.41,6.41,0,0,1,11.42,0,25.06,25.06,0,0,1,0,18.9Zm-.9-18.07q-1.68-3.25-4.81-3.26t-4.81,3.24a23.19,23.19,0,0,0,0,17.28q1.68,3.24,4.81,3.24t4.81-3.26a23.08,23.08,0,0,0,0-17.24Z" transform="translate(-34.05 -16.05)"/><path class="cls-24" d="M296.49,422.1H282.23v-2.52a6.25,6.25,0,0,1,1-3.28,11.33,11.33,0,0,1,2.47-2.84c1-.82,2.05-1.67,3.2-2.57l3.21-2.49a11.58,11.58,0,0,0,2.46-2.54,4.73,4.73,0,0,0,1-2.73,7.49,7.49,0,0,0-.5-2.95,3.36,3.36,0,0,0-1.5-1.68,6.82,6.82,0,0,0-2-.7,13.87,13.87,0,0,0-2.43-.18,6.07,6.07,0,0,0-3.51,1,6.18,6.18,0,0,0-2.17,3.39l3.88,2.91h-1.76l-3.35-2.52a8.29,8.29,0,0,1,2.45-4.39,6.64,6.64,0,0,1,4.46-1.44q4,0,5.73,1.55t1.76,5a5.76,5.76,0,0,1-1,3.13,11.61,11.61,0,0,1-2.46,2.74c-1,.79-2.06,1.62-3.21,2.5s-2.22,1.7-3.2,2.46a11.36,11.36,0,0,0-2.47,2.63,5.33,5.33,0,0,0-1,3V421h13.18Z" transform="translate(-34.05 -16.05)"/><path class="cls-24" d="M314.79,419a6.4,6.4,0,0,1-11.41,0c-1.24-2.33-1.85-5.49-1.85-9.47s.61-7.14,1.85-9.47a6.4,6.4,0,0,1,11.41,0,24.94,24.94,0,0,1,0,18.9Zm-.9-18.07c-1.11-2.17-2.72-3.26-4.8-3.26s-3.69,1.08-4.81,3.24a23.19,23.19,0,0,0,0,17.28q1.68,3.24,4.81,3.24c2.08,0,3.69-1.09,4.8-3.26a23,23,0,0,0,0-17.24Z" transform="translate(-34.05 -16.05)"/></g><g id="INSA_LYON_texte" data-name="INSA LYON texte" class="cls-23"><path class="cls-24" d="M205.8,307h-1.08v-25.2h1.08Z" transform="translate(-34.05 -16.05)"/><path class="cls-24" d="M215.74,305.9H226.9L214,283.62V307h-1.08v-25.2h1.26l13.47,23.29V281.78h1.08V307h-13Z" transform="translate(-34.05 -16.05)"/><path class="cls-24" d="M235.11,288q0-3.5,1.76-5t5.73-1.55a6.66,6.66,0,0,1,4.46,1.44,8.29,8.29,0,0,1,2.45,4.39l-3.35,2.52H244.4l3.88-2.91a6.18,6.18,0,0,0-2.17-3.39,6.07,6.07,0,0,0-3.51-1,13.87,13.87,0,0,0-2.43.18,6.82,6.82,0,0,0-2,.7,3.36,3.36,0,0,0-1.5,1.68,7.49,7.49,0,0,0-.5,2.95,3.6,3.6,0,0,0,1.46,2.81,13.44,13.44,0,0,0,3.54,2.08l4.2,1.77A11.81,11.81,0,0,1,249,297a4.4,4.4,0,0,1,1.46,3.24,7.3,7.3,0,0,1-1.78,5.37q-1.78,1.76-6.11,1.76a9.45,9.45,0,0,1-5.54-1.42,7.36,7.36,0,0,1-2.77-4.41l1-.43a6.43,6.43,0,0,0,2.46,4.05,8.91,8.91,0,0,0,4.84,1.13,8.14,8.14,0,0,0,5.13-1.33q1.68-1.33,1.68-4.72a3.63,3.63,0,0,0-1.46-2.81,13.41,13.41,0,0,0-3.56-2.08q-2.12-.87-4.2-1.77a11.83,11.83,0,0,1-3.54-2.3A4.36,4.36,0,0,1,235.11,288Z" transform="translate(-34.05 -16.05)"/><path class="cls-24" d="M256.71,305.9H270l-7.64-21-8,22.07h-1.16l9.18-25.24L271.5,307H256.71Z" transform="translate(-34.05 -16.05)"/><path class="cls-24" d="M301.38,305.9V307H286.33v-25.2h1.09V305.9Z" transform="translate(-34.05 -16.05)"/><path class="cls-24" d="M306.71,281.78h14.58l-9,14.4V307h-1.08v-10.8l-9-14.4h1.26L311.75,295l7.6-12.13H306.71Z" transform="translate(-34.05 -16.05)"/><path class="cls-24" d="M339.15,304.62q-2,2.72-6.41,2.72t-6.41-2.72q-2-2.72-2-8.48v-3.52q0-5.76,2-8.48t6.41-2.72q4.42,0,6.41,2.72t2,8.48v3.52Q341.13,301.9,339.15,304.62ZM335.76,283a10.39,10.39,0,0,0-6.05,0,5.68,5.68,0,0,0-2.26,1.53,6.92,6.92,0,0,0-1.52,3.11,21.64,21.64,0,0,0-.5,5v3.52a21.64,21.64,0,0,0,.5,5,6.92,6.92,0,0,0,1.52,3.11,5.68,5.68,0,0,0,2.26,1.53,10.39,10.39,0,0,0,6.05,0,5.71,5.71,0,0,0,2.27-1.53,6.91,6.91,0,0,0,1.51-3.11,21.06,21.06,0,0,0,.51-5v-3.52a21.06,21.06,0,0,0-.51-5,6.91,6.91,0,0,0-1.51-3.11A5.71,5.71,0,0,0,335.76,283Z" transform="translate(-34.05 -16.05)"/><path class="cls-24" d="M350.27,305.9h11.16l-12.89-22.28V307h-1.08v-25.2h1.26l13.47,23.29V281.78h1.08V307h-13Z" transform="translate(-34.05 -16.05)"/></g><path id="Noeud" class="cls-25" d="M337.3,386.9l-4.7-.9L318,383c-2.9-.6-5.7-1.1-8.5-1.8h0a5.68,5.68,0,0,1-2-1.1c-2.1-1.8-4.2-3.7-6.3-5.5-1.4-1.2-2.9-2.4-4.4-3.6-.9-.8-1.8-1.6-2.6-2.4-1.2-1.1-1.6-1-3.2-.5h0a58.35,58.35,0,0,1-6.1,1.5h0a33.1,33.1,0,0,1-16.8-1.4h0a1.8,1.8,0,0,0-2,.3l-4.5,3.9-6.9,5.9h0c-.6.6-1.1,1.1-1.7,1.6h0a9.47,9.47,0,0,1-2.6,1.4c-4.2.9-8.5,1.8-12.7,2.6L227.4,386c-1.3.3-2.7.5-4,.8h-.8c.2-1.6.4-3.1.6-4.6.3-2.3.7-4.6,1.1-7l1.2-7.5c.5-3.3.8-6.7,1.5-10,.9-4,.1-7.9-.5-11.7s-1.1-7.5-1.7-11.3c-.5-3.3-1.1-6.5-1.6-9.8-.2-1.5-.4-3-.6-4.8h0a20.5,20.5,0,0,1,3.4.5c4.5,1.3,9,2.6,13.6,3.9l15.7,4.5h0a5.16,5.16,0,0,1,1.6.9c2.8,2.5,5.5,5,8.3,7.5,1.3,1.2,1.8,1.3,3.5.7h0a21.48,21.48,0,0,1,4.4-1.1h0a33.14,33.14,0,0,1,7.7-.6c3.8.2,7.5.6,11,2.3h0a2.11,2.11,0,0,0,2.5-.5c3.1-2.8,6.2-5.7,9.3-8.5h0a3.13,3.13,0,0,1,1-.5c3.8-1,7.4-2,11.1-3.1,3.2-.9,6.4-1.8,9.6-2.8s6.6-1.9,9.9-2.8h0l2.4-.3h0a23.22,23.22,0,0,1-.1,2.5c-.4,2.6-.9,5.1-1.3,7.7-.3,1.5-.4,3.1-.6,4.7-.4,2.9-.9,5.8-1.4,8.7-.4,2.4-.7,4.8-1.1,7.2h0a23,23,0,0,0,.4,7.4c.7,4.4,1.3,8.8,2,13.2l2.1,13.2h0A4.45,4.45,0,0,0,337.3,386.9Zm-30.7-32.6H295.8c-1.2,0-1.8.5-1.8,1.6V365h0a2.49,2.49,0,0,0,.6,1.4c1.7,1.6,3.5,3.1,5.2,4.7,2.5,2.1,4.9,4.3,7.4,6.4a7.46,7.46,0,0,0,3.2,2.1c7.5,1.6,15.1,3.1,22.7,4.6h1c-.1-.3-.1-.7-.2-1h0l-.3-.6c-1.1-2-2.2-4.1-3.3-6.2-2.4-4.7-4.8-9.4-7.3-14-1.1-2.1-2.3-4.2-3.4-6.4h0a3,3,0,0,0-2.9-1.7c-3.3.1-6.7,0-10.1,0Zm-41.2,6.5h0c0-1.6.1-3.1,0-4.7-.1-1.3-.7-1.8-1.9-1.8h-21a2,2,0,0,0-1.9,1.2c-2.1,4.2-4.3,8.4-6.5,12.5s-4.4,8.4-6.7,12.7c-.3.6-.7,1.3-1,1.9s-.2,1.1.7,1a51,51,0,0,0,5.5-.7c5.7-1.1,11.4-2.2,17-3.3h0a5.56,5.56,0,0,0,1.7-.9c1.1-.9,2.2-1.9,3.3-2.8,3.4-3,6.7-6,10-8.9h0a3.18,3.18,0,0,0,1-2.2,26.74,26.74,0,0,1-.2-4Zm26.5-7.5V342.8c0-1.9-.5-2.5-2.3-3.1h0a28.53,28.53,0,0,0-7.1-1.2h0a39.33,39.33,0,0,0-11.9.8h0a5.16,5.16,0,0,0-3.1,1.6h0a2.06,2.06,0,0,0-.5,1.3v20.7c0,2.4.6,3.3,3,4h0a36.55,36.55,0,0,0,20-.4c1.6-.6,2-1.1,2-2.8Zm42.4-30.5c-1.2.2-2.2.4-3.1.6l-9.4,2.6c-5.1,1.4-10.1,2.8-15.2,4.3h0a5.94,5.94,0,0,0-2.4,1.4c-1.7,1.5-3.3,3-5,4.5-1.5,1.4-3,2.6-4.5,4.1h0a3.18,3.18,0,0,0-.8,1.8c-.1,2.8,0,5.5,0,8.3,0,1.3.4,1.7,1.7,1.7h22a2.13,2.13,0,0,0,1.9-1.1l1.8-3.3c1.1-2.1,2.2-4.4,3.4-6.5Zm-81.4,29.3h10.4c1.4,0,1.8-.4,2-1.7h0v-1c0-2.3-.1-4.7,0-7h0a4.5,4.5,0,0,0-1.7-3.7c-2.3-2-4.4-4.2-6.7-6.2h0a14.22,14.22,0,0,0-3.5-2.3h0c-1.5-.5-3.1-1-4.7-1.4-4.6-1.3-9.2-2.6-13.8-3.8-2.6-.7-5.2-1.4-7.9-2.1h-1.1a3.78,3.78,0,0,0,.2,1c.5,1,1.1,2,1.6,3,.9,1.6,1.8,3.3,2.6,4.9,3.3,6.3,6.7,12.6,10,18.9h0a2.24,2.24,0,0,0,2.2,1.4Zm81.5,28.2.3-.1a3.7,3.7,0,0,0-.1-1.1l-1.6-9.9c-.6-3.8-1.3-7.5-1.7-11.3h0a29.12,29.12,0,0,1-.3-5.9c.2-2,.4-4,.8-6,.3-2.4.7-4.7,1-7,.7-4.1,1.4-8.2,2.1-12.2h0V326c-.2.2-.3.2-.3.3l-4.5,8.7c-3,5.7-5.9,11.3-8.9,17h0a3,3,0,0,0,.1,3.3c.6,1.1,1.2,2.3,1.8,3.4l4.3,8.2c1.4,2.7,2.9,5.4,4.3,8.2.7,1.4,1.4,2.9,2.1,4.4h0c.2,0,.4.4.6.8ZM225.8,326.9l-.3.1a5.66,5.66,0,0,0,.1,1.3l1.8,11.7c.6,3.7,1.2,7.5,1.8,11.2h0a15.48,15.48,0,0,1,0,4.3c-.2,2-.6,3.9-.9,5.9s-.6,4.4-.9,6.5c-.6,3.5-1.3,7-1.9,10.4h0a7.27,7.27,0,0,0-.1,1.4l.2.1c.2-.3.3-.5.5-.8.9-1.8,1.8-3.6,2.8-5.4.6-1.1,1.3-2.1,1.9-3.2,1-1.7,1.9-3.5,2.8-5.3l5.5-10.6h0a2.75,2.75,0,0,0,0-2.5c-1.8-3.5-3.6-7.1-5.5-10.6-2.4-4.5-4.8-9-7.2-13.6Z" transform="translate(-34.05 -16.05)"/><g id="Bal"><path class="cls-26" d="M215.3,206.5l1.8.8c1.8.9,3.6,1.7,5.4,2.6h0a26.29,26.29,0,0,1,7,5.4h0a20.76,20.76,0,0,1,4.4,7.1c.5,1.3,1,2.7,1.4,4h0a25.91,25.91,0,0,1,.4,2.9c0,2.3.1,4.5,0,6.8h0a15.34,15.34,0,0,1-.6,3h0a21.7,21.7,0,0,1-2.1,5.5h0a24.27,24.27,0,0,1-5.9,7.2h0a30.32,30.32,0,0,1-7.4,4.8h0a49.49,49.49,0,0,1-5.3,2.1q-2.85.9-5.7,1.5h0c-1.1.2-2.2.4-3.3.5-2.4.3-4.8.7-7.2.8-3.6.2-7.2.4-10.8.4H161.8c-1.1,0-1.2-.1-1.2-1.2v-3.3c0-.7.2-1,1-1h31.3a50.54,50.54,0,0,0,5.5-.3h0c2.2-.2,4.4-.6,6.5-1,2.5-.5,4.9-1.3,7.3-1.9h0a28.46,28.46,0,0,0,7.4-3.1h0a18.71,18.71,0,0,0,7.2-7.3h0a25.9,25.9,0,0,0,2.2-5.5h0a7.38,7.38,0,0,0,.2-1.4h0a30.86,30.86,0,0,0,.3-4.3h0a48.35,48.35,0,0,0-.9-5.6h0a17.62,17.62,0,0,0-4.6-7.9h0a25.6,25.6,0,0,0-6.6-4.7h0a55.85,55.85,0,0,0-8.1-3c-1.6-.5-3.1-1-4.7-1.5-.9-.3-1.9-.6-2.8-.9-.2-.1-.6-.3-.6-.5h0a1,1,0,0,1,.4-.7c1.1-.6,2.3-1.1,3.4-1.7,3.4-1.7,7-3.1,10.1-5.3h0a15.77,15.77,0,0,0,5.8-6.7h0c.5-1.4,1-2.7,1.4-4.1h0a18.46,18.46,0,0,0,.3-8.1h0a17.45,17.45,0,0,0-6.5-11.1h0a27.78,27.78,0,0,0-8.5-4.5q-3.3-1-6.6-1.8h0a82.8,82.8,0,0,0-11.2-1.4c-7.4-.5-14.8-.1-22.3-.3-.5,0-.8.1-.7.7h0v83.1c0,.6-.2.9-.8.9h-4.9c-.2,0-.5-.4-.5-.6a20.85,20.85,0,0,1,0-2.5V157.8c0-1.2,0-1.2,1.3-1.2,9.1,0,18.2,0,27.3.1h0a56.22,56.22,0,0,1,7.1.5h0c2.5.3,5,.8,7.4,1.3,2.1.5,4.2,1.3,6.4,1.9h0a29,29,0,0,1,6.7,3h0a27.64,27.64,0,0,1,7.8,6.6h0a24.1,24.1,0,0,1,3.2,5.6h0a25.6,25.6,0,0,1,1.5,7.7h0a28.32,28.32,0,0,1-.4,6.5h0a22.3,22.3,0,0,1-3.1,7.9h0A29.49,29.49,0,0,1,215.3,206.5Z" transform="translate(-34.05 -16.05)"/><path class="cls-27" d="M328.1,256.6h0a.87.87,0,0,0-.1-.5c-.8-1.7-1.5-3.4-2.3-5.1a30,30,0,0,1-1.2-3.2l-1.2-2.7c-.6-1.4-1.3-2.9-1.9-4.3-.9-2.2-1.8-4.4-2.8-6.6-.6-1.5-1.4-3-2-4.5-.5-1.1-.9-2.3-1.4-3.4-.7-1.8-1.5-3.6-2.3-5.5s-1.6-3.7-2.4-5.6c-1.1-2.6-2.1-5.1-3.2-7.6-.6-1.5-1.4-3-2-4.4-.9-2.1-1.7-4.2-2.6-6.2s-1.9-4.4-2.8-6.6c-.8-1.9-1.6-3.9-2.5-5.8-.6-1.4-1.2-2.7-1.9-4.1-.8-1.9-1.7-3.9-2.5-5.8-.3-.6-.4-1.2-.7-1.8h0a6.61,6.61,0,0,0-.7-1.1l-.9,2.1c-.7,1.6-1.4,3.2-2,4.8s-1.3,3.2-2,4.8c-.4,1-.9,1.9-1.3,2.9-.8,1.9-1.6,3.7-2.4,5.6-.9,2.2-1.8,4.3-2.8,6.4-.6,1.5-1.4,3.1-2,4.6-.5,1.2-1,2.4-1.5,3.5l-2.4,5.7c-1.1,2.7-2.3,5.4-3.5,8-1,2.3-1.9,4.6-2.8,6.8-.8,1.9-1.6,3.7-2.4,5.6-.5,1.2-1,2.5-1.5,3.7s-1,2.4-1.5,3.5c-.7,1.7-1.4,3.3-2.2,5s-1.4,3.3-2.1,4.9c-.5,1.3-1,2.5-1.6,3.8-.8,1.9-1.7,3.9-2.5,5.8-.3.6-.5,1.3-.8,1.9h0a1.42,1.42,0,0,1-1.4.9h-4.5c-1,0-1.3-.5-.9-1.4.6-1.4,1.3-2.9,1.9-4.3,1.1-2.4,2.1-4.8,3.1-7.2.7-1.7,1.4-3.4,2.1-5,.9-2.2,1.9-4.4,2.8-6.6.8-2,1.6-4,2.5-6.1.5-1.2,1.1-2.3,1.6-3.5s1-2.5,1.5-3.8c.6-1.5,1.2-3.1,1.8-4.6.5-1.1,1-2.1,1.5-3.2.9-2.1,1.7-4.2,2.6-6.2.6-1.5,1.4-3,2-4.6s1.2-3.1,1.9-4.6,1.4-3,2-4.5c.9-2.1,1.7-4.2,2.6-6.3.7-1.6,1.5-3.2,2.2-4.9.6-1.5,1.2-3,1.9-4.5.5-1.2,1.1-2.4,1.5-3.6.8-1.9,1.5-3.8,2.3-5.7.4-1.1,1-2.1,1.5-3.2,1-2.4,2-4.9,3.1-7.3.5-1.3,1.1-2.5,1.7-3.7h0c.1-.3.4-.4.7-.5h0a1,1,0,0,1,.6.5c.8,1.7,1.6,3.4,2.3,5.1,1,2.4,1.9,4.8,2.9,7.2.6,1.5,1.3,3,2,4.4.9,2,1.7,4.1,2.5,6.1l1.5,3.3c.5,1.1.9,2.1,1.3,3.2s1,2.2,1.4,3.3L308,195c.5,1.1,1,2.3,1.6,3.4.2.4.3.8.5,1.2.4.8.7,1.7,1.1,2.5.5,1.2.9,2.4,1.4,3.6s1,2.2,1.5,3.4.9,2.2,1.4,3.3c.6,1.3,1.2,2.6,1.8,4L320,223l1.5,3.3c.5,1.1,1,2.4,1.5,3.6l2,4.6c.7,1.6,1.3,3.1,2,4.6l2.1,4.8c.7,1.6,1.4,3.4,2.1,5.1.6,1.4,1.3,2.9,1.9,4.3.4.9.8,1.8,1.1,2.7s.8,2,1.2,3l.9,2.1c.2.5-.1.7-.5.9h0a2.18,2.18,0,0,1-.8.1H264.5c-.7,0-1-.3-1-1v-3.6c0-.5.2-.8.8-.8h62C327.3,256.7,327.7,256.6,328.1,256.6Z" transform="translate(-34.05 -16.05)"/><path class="cls-28" d="M362.7,202.2v44.1c0,1.2,0,1.2-1.2,1.2h-4.1c-1,0-1.1-.1-1.1-1.1V157.8c0-1,.1-1.2,1.1-1.2h4.3c.9,0,1,.2,1,1v44.6Z" transform="translate(-34.05 -16.05)"/><path class="cls-29" d="M393.3,256.7h36c.7,0,1,.3,1,1v3.2c0,1.1-.2,1.2-1.2,1.2H357.3c-.5-.1-1-.3-.9-1.1.1-1.1,0-2.3,0-3.4h0a.77.77,0,0,1,.65-.89H393.3Z" transform="translate(-34.05 -16.05)"/></g></g></g></svg>