<?xml version="1.0" encoding="utf-8"?>
<!-- Generator: Adobe Illustrator 23.1.0, SVG Export Plug-In . SVG Version: 6.00 Build 0)  -->
<svg version="1.1" id="Calque_1" xmlns="http://www.w3.org/2000/svg" xmlns:xlink="http://www.w3.org/1999/xlink" x="0px" y="0px"
	 viewBox="0 0 559.3 539.3" style="enable-background:new 0 0 559.3 539.3;" xml:space="preserve">
<style type="text/css">
	.st0{fill:url(#SVGID_1_);}
	.st1{fill:url(#SVGID_2_);}
	.st2{fill:url(#SVGID_3_);}
	.st3{fill:url(#SVGID_4_);}
	.st4{fill:url(#SVGID_5_);}
	.st5{fill:url(#SVGID_6_);}
	.st6{fill:url(#SVGID_7_);}
	.st7{fill:url(#SVGID_8_);}
	.st8{fill:url(#SVGID_9_);}
	.st9{fill:url(#SVGID_10_);}
	.st10{fill:url(#SVGID_11_);}
	.st11{fill:url(#SVGID_12_);}
	.st12{fill:url(#SVGID_13_);}
	.st13{fill:url(#SVGID_14_);}
	.st14{fill:url(#SVGID_15_);}
	.st15{fill:url(#SVGID_16_);}
	.st16{fill:none;stroke:url(#Grand_Octogone_1_);stroke-width:4;stroke-miterlimit:10;}
	.st17{fill:none;stroke:url(#Moyen_Octogone_1_);stroke-width:2;stroke-miterlimit:10;}
	.st18{fill:url(#Petit_Octogone_1_);stroke:url(#Petit_Octogone_2_);stroke-miterlimit:10;}
	.st19{opacity:0.2;enable-background:new    ;}
	.st20{font-family:'ArialMT';}
	.st21{font-size:36px;}
	.st22{opacity:0.2;}
	.st23{fill:#FFFBBB;}
	.st24{fill:url(#Noeud_1_);}
	.st25{fill:url(#SVGID_17_);}
	.st26{fill:url(#SVGID_18_);}
	.st27{fill:url(#SVGID_19_);}
	.st28{fill:url(#SVGID_20_);}
</style>
<title>logo</title>
<g id="Pétales_extérieures">
	
		<radialGradient id="SVGID_1_" cx="316.2" cy="508.5398" r="65.0305" gradientTransform="matrix(1 0 0 -1 23.3 559.5898)" gradientUnits="userSpaceOnUse">
		<stop  offset="0" style="stop-color:#220000"/>
		<stop  offset="0.92" style="stop-color:#710000"/>
	</radialGradient>
	<polygon class="st0" points="316.8,18.2 253.6,35.1 254.1,38.6 423.8,83.9 425.4,80.9 	"/>
	
		<radialGradient id="SVGID_2_" cx="446.15" cy="401.0898" r="63.6652" gradientTransform="matrix(1 0 0 -1 0 539.8898)" gradientUnits="userSpaceOnUse">
		<stop  offset="0" style="stop-color:#220000"/>
		<stop  offset="0.92" style="stop-color:#710000"/>
	</radialGradient>
	<polygon class="st1" points="482.5,113.9 425.4,80.9 423.8,83.9 511.7,236.1 515.1,235.5 	"/>
	
		<radialGradient id="SVGID_3_" cx="475.8" cy="238.1898" r="65.04" gradientTransform="matrix(1 0 0 -1 0 539.8898)" gradientUnits="userSpaceOnUse">
		<stop  offset="0" style="stop-color:#220000"/>
		<stop  offset="0.92" style="stop-color:#710000"/>
	</radialGradient>
	<polygon class="st2" points="532,298.7 515.1,235.5 511.7,236.1 466.2,405.7 469.3,407.3 	"/>
	
		<radialGradient id="SVGID_4_" cx="368.4" cy="108.2898" r="63.64" gradientTransform="matrix(1 0 0 -1 0 539.8898)" gradientUnits="userSpaceOnUse">
		<stop  offset="0" style="stop-color:#220000"/>
		<stop  offset="0.92" style="stop-color:#710000"/>
	</radialGradient>
	<polygon class="st3" points="436.3,464.4 469.3,407.3 466.2,405.7 314.1,493.5 314.8,496.9 	"/>
	
		<radialGradient id="SVGID_5_" cx="205.1" cy="78.5398" r="65.36" gradientTransform="matrix(1 0 0 -1 0 539.8898)" gradientUnits="userSpaceOnUse">
		<stop  offset="0" style="stop-color:#220000"/>
		<stop  offset="0.92" style="stop-color:#710000"/>
	</radialGradient>
	<polygon class="st4" points="251.4,513.9 314.8,496.9 314.1,493.5 144.4,448.2 142,450.7 	"/>
	
		<radialGradient id="SVGID_6_" cx="75.5" cy="186.2398" r="63.5245" gradientTransform="matrix(1 0 0 -1 0 539.8898)" gradientUnits="userSpaceOnUse">
		<stop  offset="0" style="stop-color:#220000"/>
		<stop  offset="0.92" style="stop-color:#710000"/>
	</radialGradient>
	<polygon class="st5" points="85.7,418.2 142,450.7 144.4,448.2 56.5,296 53.2,296.7 	"/>
	
		<radialGradient id="SVGID_7_" cx="153.2" cy="478.8398" r="63.66" gradientTransform="matrix(1 0 0 -1 0 539.8898)" gradientUnits="userSpaceOnUse">
		<stop  offset="0" style="stop-color:#220000"/>
		<stop  offset="0.92" style="stop-color:#710000"/>
	</radialGradient>
	<polygon class="st6" points="131.9,67.7 253.6,35.1 254.1,38.6 102,126.4 98.9,124.9 	"/>
	
		<radialGradient id="SVGID_8_" cx="45.8" cy="348.7898" r="65.04" gradientTransform="matrix(1 0 0 -1 0 539.8898)" gradientUnits="userSpaceOnUse">
		<stop  offset="0" style="stop-color:#220000"/>
		<stop  offset="0.92" style="stop-color:#710000"/>
	</radialGradient>
	<polygon class="st7" points="36.2,233.4 53.2,296.7 56.5,296 102,126.4 98.9,124.9 	"/>
</g>
<g id="Pétales_intérieures">
	
		<radialGradient id="SVGID_9_" cx="121.45" cy="153.8898" r="58.28" gradientTransform="matrix(1 0 0 -1 0 539.8898)" gradientUnits="userSpaceOnUse">
		<stop  offset="0" style="stop-color:#220000"/>
		<stop  offset="0.92" style="stop-color:#710000"/>
	</radialGradient>
	<polygon class="st8" points="144.4,448.2 86.4,347.7 87.5,347.5 202.7,462.6 203.1,463.9 	"/>
	
		<radialGradient id="SVGID_10_" cx="261.35" cy="81.5398" r="58.97" gradientTransform="matrix(1 0 0 -1 0 539.8898)" gradientUnits="userSpaceOnUse">
		<stop  offset="0" style="stop-color:#220000"/>
		<stop  offset="0.92" style="stop-color:#710000"/>
	</radialGradient>
	<polygon class="st9" points="314.1,493.5 203.1,463.9 202.7,462.6 365.5,462.6 366.6,463.2 	"/>
	
		<radialGradient id="SVGID_11_" cx="400.35" cy="154.2898" r="58.03" gradientTransform="matrix(1 0 0 -1 0 539.8898)" gradientUnits="userSpaceOnUse">
		<stop  offset="0" style="stop-color:#220000"/>
		<stop  offset="0.92" style="stop-color:#710000"/>
	</radialGradient>
	<polygon class="st10" points="466.2,405.7 366.6,463.2 365.5,462.6 480.6,347.4 481.8,347.6 	"/>
	
		<radialGradient id="SVGID_12_" cx="472.85" cy="294.1398" r="59.12" gradientTransform="matrix(1 0 0 -1 0 539.8898)" gradientUnits="userSpaceOnUse">
		<stop  offset="0" style="stop-color:#220000"/>
		<stop  offset="0.92" style="stop-color:#710000"/>
	</radialGradient>
	<polygon class="st11" points="511.7,236.1 481.8,347.6 480.6,347.4 480.7,184.6 481.2,183.3 	"/>
	
		<radialGradient id="SVGID_13_" cx="400.05" cy="433.0398" r="57.95" gradientTransform="matrix(1 0 0 -1 0 539.8898)" gradientUnits="userSpaceOnUse">
		<stop  offset="0" style="stop-color:#220000"/>
		<stop  offset="0.92" style="stop-color:#710000"/>
	</radialGradient>
	<polygon class="st12" points="423.8,83.9 481.2,183.3 480.7,184.6 365.5,69.5 366,68.5 	"/>
	
		<radialGradient id="SVGID_14_" cx="260" cy="505.5398" r="59.49" gradientTransform="matrix(1 0 0 -1 0 539.8898)" gradientUnits="userSpaceOnUse">
		<stop  offset="0" style="stop-color:#220000"/>
		<stop  offset="0.92" style="stop-color:#710000"/>
	</radialGradient>
	<polygon class="st13" points="254.1,38.6 366,68.5 365.5,69.5 202.7,69.5 200.6,69.5 	"/>
	
		<radialGradient id="SVGID_15_" cx="121.25" cy="432.4898" r="57.88" gradientTransform="matrix(1 0 0 -1 0 539.8898)" gradientUnits="userSpaceOnUse">
		<stop  offset="0" style="stop-color:#220000"/>
		<stop  offset="0.92" style="stop-color:#710000"/>
	</radialGradient>
	<polygon class="st14" points="102,126.4 200.6,69.5 202.7,69.5 87.6,184.7 86.4,184.7 	"/>
	
		<radialGradient id="SVGID_16_" cx="48.75" cy="293.3898" r="58.67" gradientTransform="matrix(1 0 0 -1 0 539.8898)" gradientUnits="userSpaceOnUse">
		<stop  offset="0" style="stop-color:#220000"/>
		<stop  offset="0.92" style="stop-color:#710000"/>
	</radialGradient>
	<polygon class="st15" points="56.5,296 86.4,347.7 87.5,347.5 87.6,184.7 86.4,184.7 	"/>
</g>
<linearGradient id="Grand_Octogone_1_" gradientUnits="userSpaceOnUse" x1="-9.1255" y1="855.3958" x2="456.9245" y2="855.3958" gradientTransform="matrix(0.97 -0.26 0.26 0.97 -154.5413 -505.7231)">
	<stop  offset="0" style="stop-color:#FFFBBB"/>
	<stop  offset="0.2" style="stop-color:#E8BD5F"/>
	<stop  offset="0.4" style="stop-color:#FBF1AC"/>
	<stop  offset="0.6" style="stop-color:#EDC971"/>
	<stop  offset="0.8" style="stop-color:#FCF4B1"/>
	<stop  offset="1" style="stop-color:#F0D380"/>
</linearGradient>
<polygon id="Grand_Octogone" class="st16" points="316.8,18.2 131.9,67.7 36.2,233.4 85.7,418.2 251.4,513.9 436.3,464.4 532,298.7 
	482.5,113.9 "/>
<linearGradient id="Moyen_Octogone_1_" gradientUnits="userSpaceOnUse" x1="-106.8584" y1="845.884" x2="319.3116" y2="845.884" gradientTransform="matrix(0.87 -0.5 0.5 0.87 -230.7749 -417.0341)">
	<stop  offset="0" style="stop-color:#FFFBBB"/>
	<stop  offset="0.2" style="stop-color:#E8BD5F"/>
	<stop  offset="0.4" style="stop-color:#FBF1AC"/>
	<stop  offset="0.6" style="stop-color:#EDC971"/>
	<stop  offset="0.8" style="stop-color:#FCF4B1"/>
	<stop  offset="1" style="stop-color:#F0D380"/>
</linearGradient>
<polygon id="Moyen_Octogone" class="st17" points="254.1,38.6 102,126.4 56.5,296 144.4,448.2 314.1,493.5 466.2,405.7 511.7,236.1 
	423.8,83.9 "/>
<radialGradient id="Petit_Octogone_1_" cx="247.5667" cy="578.6542" r="203.1249" gradientTransform="matrix(1 -9.000000e-02 9.000000e-02 1 -15.7001 -292.0398)" gradientUnits="userSpaceOnUse">
	<stop  offset="0.59" style="stop-color:#220000"/>
	<stop  offset="1" style="stop-color:#580000"/>
</radialGradient>
<linearGradient id="Petit_Octogone_2_" gradientUnits="userSpaceOnUse" x1="-237.6362" y1="783.9602" x2="156.5838" y2="783.9602" gradientTransform="matrix(0.71 -0.71 0.71 0.71 -243.5317 -319.5417)">
	<stop  offset="0" style="stop-color:#FFFBBB"/>
	<stop  offset="0.2" style="stop-color:#E8BD5F"/>
	<stop  offset="0.4" style="stop-color:#FBF1AC"/>
	<stop  offset="0.6" style="stop-color:#EDC971"/>
	<stop  offset="0.8" style="stop-color:#FCF4B1"/>
	<stop  offset="1" style="stop-color:#F0D380"/>
</linearGradient>
<polygon id="Petit_Octogone" class="st18" points="202.7,69.5 87.6,184.7 87.5,347.5 202.7,462.6 365.5,462.6 480.6,347.4 
	480.7,184.6 365.5,69.5 "/>
<g id="Calque_3">
	<g id="Lettres">
		<text id="_2020_Ombre" transform="matrix(1 0 0 1 241.81 423.63)" class="st19 st20 st21">2020</text>
		<text id="INSA_LYON_Ombre" transform="matrix(1 0 0 1 203.12 308.36)" class="st19 st20 st21">INSA LYON</text>
		<path id="Noeud_Ombre" class="st19" d="M339.3,389.1l-4.7-0.9l-14.6-3c-2.9-0.6-5.7-1.1-8.5-1.8l0,0c-0.7-0.2-1.4-0.6-2-1.1
			c-2.1-1.8-4.2-3.7-6.3-5.5c-1.4-1.2-2.9-2.4-4.4-3.6c-0.9-0.8-1.8-1.6-2.6-2.4c-1.2-1.1-1.6-1-3.2-0.5l0,0c-2,0.6-4,1.1-6.1,1.5
			l0,0c-5.6,1-11.4,0.5-16.8-1.4l0,0c-0.7-0.3-1.5-0.2-2,0.3l-4.5,3.9l-6.9,5.9l0,0c-0.6,0.6-1.1,1.1-1.7,1.6l0,0
			c-0.8,0.6-1.7,1.1-2.6,1.4c-4.2,0.9-8.4,1.8-12.7,2.6l-10.3,2.1c-1.3,0.3-2.7,0.5-4,0.8h-0.8c0.2-1.6,0.4-3.1,0.6-4.6
			c0.3-2.3,0.7-4.6,1.1-7l1.2-7.5c0.5-3.3,0.8-6.7,1.5-10c0.9-4,0.1-7.9-0.5-11.7s-1.1-7.5-1.7-11.3c-0.5-3.3-1.1-6.5-1.6-9.8
			c-0.2-1.5-0.4-3-0.6-4.8l0,0c1.1,0.1,2.3,0.2,3.4,0.5c4.5,1.3,9,2.6,13.6,3.9l15.7,4.5l0,0c0.6,0.2,1.1,0.5,1.6,0.9
			c2.8,2.5,5.5,5,8.3,7.5c1.3,1.2,1.8,1.3,3.5,0.7l0,0c1.4-0.5,2.9-0.9,4.4-1.1l0,0c2.5-0.5,5.1-0.7,7.7-0.6c3.8,0.2,7.5,0.6,11,2.3
			l0,0c0.9,0.4,1.9,0.2,2.5-0.5c3.1-2.8,6.2-5.7,9.3-8.5l0,0c0.3-0.2,0.6-0.4,1-0.5c3.8-1,7.4-2,11.1-3.1c3.2-0.9,6.4-1.8,9.6-2.8
			s6.6-1.9,9.9-2.8l0,0l2.4-0.3l0,0c0,0.8,0,1.7-0.1,2.5c-0.4,2.6-0.9,5.1-1.3,7.7c-0.3,1.5-0.4,3.1-0.6,4.7
			c-0.4,2.9-0.9,5.8-1.4,8.7c-0.4,2.4-0.7,4.8-1.1,7.2l0,0c-0.3,2.5-0.1,5,0.4,7.4c0.7,4.4,1.3,8.8,2,13.2l2.1,13.2l0,0
			C339.3,387.7,339.2,388.4,339.3,389.1z M308.5,356.5h-10.8c-1.2,0-1.8,0.5-1.8,1.6v9.1l0,0c0.1,0.5,0.3,1,0.6,1.4
			c1.7,1.6,3.5,3.1,5.2,4.7c2.5,2.1,4.9,4.3,7.4,6.4c0.9,1,2,1.7,3.2,2.1c7.5,1.6,15.1,3.1,22.7,4.6h1c-0.1-0.3-0.1-0.7-0.2-1l0,0
			l-0.3-0.6c-1.1-2-2.2-4.1-3.3-6.2c-2.4-4.7-4.8-9.4-7.3-14c-1.1-2.1-2.3-4.2-3.4-6.4l0,0c-0.5-1.1-1.7-1.8-2.9-1.7
			C315.4,356.6,311.9,356.5,308.5,356.5L308.5,356.5z M267.3,363L267.3,363c0-1.6,0.1-3.1,0-4.7c-0.1-1.3-0.7-1.8-1.9-1.8h-21
			c-0.8,0-1.6,0.4-1.9,1.2c-2.1,4.2-4.3,8.4-6.5,12.5s-4.4,8.4-6.7,12.7c-0.3,0.7-0.7,1.3-1.1,1.9c-0.4,0.6-0.2,1.1,0.7,1
			c1.8-0.1,3.7-0.4,5.5-0.7c5.7-1.1,11.4-2.2,17-3.3l0,0c0.6-0.2,1.2-0.5,1.7-0.9c1.1-0.9,2.2-1.9,3.3-2.8c3.4-3,6.7-6,10-8.9l0,0
			c0.6-0.6,1-1.4,0.9-2.2C267.3,365.7,267.4,364.3,267.3,363L267.3,363z M293.9,355.5V345c0-1.9-0.5-2.5-2.3-3.1l0,0
			c-2.3-0.7-4.7-1.1-7.1-1.2l0,0c-4-0.3-8-0.1-11.9,0.8l0,0c-1.2,0.2-2.3,0.7-3.1,1.6l0,0c-0.3,0.4-0.5,0.8-0.5,1.3v20.7
			c0,2.4,0.6,3.3,3,4l0,0c6.6,1.7,13.5,1.6,20-0.4c1.6-0.6,2-1.1,2-2.8L293.9,355.5z M336.3,324.9c-1.2,0.2-2.2,0.4-3.1,0.6
			l-9.5,2.6c-5.1,1.4-10.1,2.8-15.2,4.3l0,0c-0.9,0.3-1.7,0.7-2.4,1.4c-1.7,1.5-3.3,3-5,4.5c-1.5,1.4-3,2.6-4.4,4.1l0,0
			c-0.4,0.5-0.7,1.1-0.8,1.8c-0.1,2.8,0,5.5,0,8.3c0,1.3,0.4,1.7,1.7,1.7h22c0.8,0,1.5-0.4,1.9-1.1l1.8-3.3c1.1-2.1,2.2-4.4,3.4-6.5
			L336.3,324.9z M254.9,354.3h10.4c1.4,0,1.8-0.4,2-1.7l0,0v-1c0-2.3-0.1-4.7,0-7l0,0c0.1-1.4-0.6-2.8-1.7-3.7
			c-2.3-2-4.4-4.2-6.7-6.2l0,0c-1-0.9-2.2-1.7-3.5-2.3l0,0c-1.5-0.5-3.1-1-4.7-1.4c-4.6-1.3-9.2-2.6-13.8-3.8
			c-2.6-0.7-5.2-1.4-7.9-2.1h-1.1c0,0.3,0.1,0.7,0.2,1c0.5,1,1.1,2,1.6,3c0.9,1.6,1.8,3.3,2.6,4.9c3.3,6.3,6.7,12.6,10,18.9l0,0
			c0.4,0.9,1.2,1.5,2.2,1.4C248,354.2,251.4,354.2,254.9,354.3L254.9,354.3z M336.4,382.4l0.3-0.1c0-0.4,0-0.7-0.1-1.1l-1.6-9.9
			c-0.6-3.8-1.3-7.5-1.7-11.3l0,0c-0.3-2-0.4-3.9-0.3-5.9c0.2-2,0.4-4,0.8-6c0.3-2.4,0.7-4.7,1-7c0.7-4.1,1.4-8.2,2.1-12.2l0,0v-0.8
			c-0.2,0.2-0.3,0.2-0.3,0.3l-4.5,8.7c-3,5.7-5.9,11.3-8.9,17l0,0c-0.6,1-0.6,2.3,0.1,3.3c0.6,1.1,1.2,2.3,1.8,3.4l4.3,8.2
			c1.4,2.7,2.9,5.4,4.3,8.2c0.7,1.4,1.4,2.9,2.1,4.4l0,0C336.1,381.8,336.3,382.1,336.4,382.4L336.4,382.4z M227.8,329.1l-0.3,0.1
			c0,0.4,0,0.9,0.1,1.3l1.8,11.7c0.6,3.7,1.2,7.5,1.8,11.2l0,0c0.2,1.4,0.2,2.9,0,4.3c-0.2,2-0.6,3.9-0.9,5.9s-0.6,4.4-0.9,6.5
			c-0.6,3.5-1.3,7-1.9,10.4l0,0c-0.1,0.5-0.1,0.9-0.1,1.4l0.2,0.1c0.2-0.3,0.3-0.5,0.5-0.8c0.9-1.8,1.8-3.6,2.8-5.4
			c0.6-1.1,1.3-2.1,1.9-3.2c1-1.7,1.9-3.5,2.8-5.3l5.5-10.6l0,0c0.4-0.8,0.4-1.7,0-2.5c-1.8-3.5-3.6-7.1-5.5-10.6
			c-2.4-4.5-4.8-9-7.2-13.6L227.8,329.1z"/>
		<g id="Bal_Ombre" class="st22">
			<path d="M219.5,210.8l1.8,0.8c1.8,0.9,3.6,1.7,5.4,2.6l0,0c2.6,1.4,5,3.2,7,5.4l0,0c1.9,2,3.4,4.5,4.4,7.1c0.5,1.3,1,2.7,1.4,4
				l0,0c0.2,1,0.3,1.9,0.4,2.9c0,2.3,0.1,4.5,0,6.8l0,0c-0.1,1-0.3,2-0.6,3l0,0c-0.4,1.9-1.2,3.8-2.1,5.5l0,0
				c-1.5,2.8-3.5,5.2-5.9,7.2l0,0c-2.2,2-4.7,3.6-7.4,4.8l0,0c-1.7,0.8-3.5,1.5-5.3,2.1c-1.9,0.6-3.8,1.1-5.7,1.5l0,0
				c-1.1,0.2-2.2,0.4-3.3,0.5c-2.4,0.3-4.8,0.7-7.2,0.8c-3.6,0.2-7.2,0.4-10.8,0.4H166c-1.1,0-1.2-0.1-1.2-1.2v-3.3c0-0.7,0.2-1,1-1
				h31.3c1.8,0,3.7-0.1,5.5-0.3l0,0c2.2-0.2,4.4-0.6,6.5-1c2.5-0.5,4.9-1.3,7.3-1.9l0,0c2.6-0.7,5.1-1.7,7.4-3.1l0,0
				c3-1.7,5.5-4.2,7.2-7.3l0,0c0.9-1.7,1.7-3.6,2.2-5.5l0,0c0.1-0.5,0.2-0.9,0.2-1.4l0,0c0.2-1.4,0.3-2.9,0.3-4.3l0,0
				c-0.2-1.9-0.5-3.8-0.9-5.6l0,0c-0.8-3-2.4-5.7-4.6-7.9l0,0c-1.9-1.9-4.2-3.5-6.6-4.7l0,0c-2.6-1.2-5.3-2.2-8.1-3
				c-1.6-0.5-3.1-1-4.7-1.5c-0.9-0.3-1.9-0.6-2.8-0.9c-0.2-0.1-0.6-0.3-0.6-0.5l0,0c0-0.3,0.2-0.5,0.4-0.7c1.1-0.6,2.3-1.1,3.4-1.7
				c3.4-1.7,7-3.1,10.1-5.3l0,0c2.5-1.6,4.5-4,5.8-6.7l0,0c0.5-1.4,1-2.7,1.4-4.1l0,0c0.7-2.6,0.8-5.4,0.3-8.1l0,0
				c-0.7-4.4-3-8.4-6.5-11.1l0,0c-2.6-2-5.4-3.5-8.5-4.5c-2.2-0.7-4.4-1.3-6.6-1.8l0,0c-3.7-0.7-7.4-1.2-11.2-1.4
				c-7.4-0.5-14.8-0.1-22.3-0.3c-0.5,0-0.8,0.1-0.7,0.7l0,0v83.1c0,0.6-0.2,0.9-0.8,0.9h-4.9c-0.2,0-0.5-0.4-0.5-0.6
				c-0.1-0.8-0.1-1.7,0-2.5v-85.6c0-1.2,0-1.2,1.3-1.2c9.1,0,18.2,0,27.3,0.1l0,0c2.4,0,4.7,0.2,7.1,0.5l0,0c2.5,0.3,5,0.8,7.4,1.3
				c2.1,0.5,4.2,1.3,6.4,1.9l0,0c2.4,0.7,4.6,1.7,6.7,3l0,0c3,1.7,5.6,3.9,7.8,6.6l0,0c1.3,1.7,2.4,3.6,3.2,5.6l0,0
				c0.9,2.5,1.4,5.1,1.5,7.7l0,0c0.1,2.2,0,4.4-0.4,6.5l0,0c-0.5,2.8-1.6,5.5-3.1,7.9l0,0C227.2,205.7,223.6,208.7,219.5,210.8z"/>
			<path d="M332.3,261L332.3,261c0-0.2,0-0.3-0.1-0.5c-0.8-1.7-1.5-3.4-2.3-5.1c-0.5-1-0.9-2.1-1.2-3.2l-1.2-2.7
				c-0.6-1.4-1.3-2.9-1.9-4.3c-0.9-2.2-1.8-4.4-2.8-6.6c-0.6-1.5-1.4-3-2-4.5c-0.5-1.1-0.9-2.3-1.4-3.4c-0.7-1.8-1.5-3.6-2.3-5.5
				s-1.6-3.7-2.4-5.6c-1.1-2.6-2.1-5.1-3.2-7.6c-0.6-1.5-1.4-3-2-4.4c-0.9-2.1-1.7-4.2-2.6-6.2s-1.9-4.4-2.8-6.6
				c-0.8-1.9-1.6-3.9-2.5-5.8c-0.6-1.4-1.2-2.7-1.9-4.1c-0.8-1.9-1.7-3.9-2.5-5.8c-0.3-0.6-0.4-1.2-0.7-1.8l0,0
				c-0.2-0.4-0.4-0.8-0.7-1.1l-0.9,2.1c-0.7,1.6-1.4,3.2-2,4.8s-1.3,3.2-2,4.8c-0.4,1-0.9,1.9-1.3,2.9c-0.8,1.9-1.6,3.7-2.4,5.6
				c-0.9,2.2-1.8,4.3-2.8,6.4c-0.6,1.5-1.4,3.1-2,4.6c-0.5,1.2-1,2.4-1.5,3.5l-2.4,5.7c-1.1,2.7-2.3,5.4-3.5,8
				c-1,2.3-1.9,4.6-2.8,6.8c-0.8,1.9-1.6,3.7-2.4,5.6c-0.5,1.2-1,2.5-1.5,3.7s-1,2.4-1.5,3.5c-0.7,1.7-1.4,3.3-2.2,5
				c-0.8,1.7-1.4,3.3-2.1,4.9c-0.5,1.3-1,2.5-1.6,3.8c-0.8,1.9-1.7,3.9-2.5,5.8c-0.3,0.6-0.5,1.3-0.8,1.9l0,0
				c-0.2,0.6-0.8,0.9-1.4,0.9h-4.5c-1,0-1.3-0.5-0.9-1.4c0.6-1.4,1.3-2.9,1.9-4.3c1.1-2.4,2.1-4.8,3.1-7.2c0.7-1.7,1.4-3.4,2.1-5
				c0.9-2.2,1.9-4.4,2.8-6.6c0.8-2,1.6-4,2.5-6.1c0.5-1.2,1.1-2.3,1.6-3.5s1-2.5,1.5-3.8c0.6-1.5,1.2-3.1,1.8-4.6
				c0.5-1.1,1-2.1,1.5-3.2c0.9-2.1,1.7-4.2,2.6-6.2c0.6-1.5,1.4-3,2-4.6s1.2-3.1,1.9-4.6c0.7-1.5,1.4-3,2-4.5
				c0.9-2.1,1.7-4.2,2.6-6.3c0.7-1.6,1.5-3.2,2.2-4.9c0.6-1.5,1.2-3,1.9-4.5c0.5-1.2,1.1-2.4,1.5-3.6c0.8-1.9,1.5-3.8,2.3-5.7
				c0.4-1.1,1-2.1,1.5-3.2c1-2.4,2-4.9,3.1-7.3c0.5-1.3,1.1-2.5,1.7-3.7l0,0c0.1-0.3,0.4-0.4,0.7-0.5l0,0c0.3,0.1,0.5,0.3,0.6,0.5
				c0.8,1.7,1.6,3.4,2.3,5.1c1,2.4,1.9,4.8,2.9,7.2c0.6,1.5,1.3,3,2,4.4c0.9,2,1.7,4.1,2.5,6.1l1.5,3.3c0.5,1.1,0.9,2.1,1.3,3.2
				s1,2.2,1.4,3.3l2.1,5.1c0.5,1.1,1,2.3,1.6,3.4c0.2,0.4,0.3,0.8,0.5,1.2c0.4,0.8,0.7,1.7,1.1,2.5c0.5,1.2,0.9,2.4,1.4,3.6
				s1,2.2,1.5,3.4s0.9,2.2,1.4,3.3c0.6,1.3,1.2,2.6,1.8,4l2.7,6.6l1.5,3.3c0.5,1.1,1,2.4,1.5,3.6l2,4.6c0.7,1.6,1.3,3.1,2,4.6
				l2.1,4.8c0.7,1.6,1.4,3.4,2.1,5.1c0.6,1.4,1.3,2.9,1.9,4.3c0.4,0.9,0.8,1.8,1.1,2.7s0.8,2,1.2,3l0.9,2.1c0.2,0.5-0.1,0.7-0.5,0.9
				l0,0c-0.3,0.1-0.5,0.1-0.8,0.1h-70.5c-0.7,0-1-0.3-1-1v-3.6c0-0.5,0.2-0.8,0.8-0.8h62C331.5,261.1,331.8,261,332.3,261z"/>
			<path d="M366.9,206.5v44.1c0,1.2,0,1.2-1.2,1.2h-4.1c-1,0-1.1-0.1-1.1-1.1v-88.6c0-1,0.1-1.2,1.1-1.2h4.3c0.9,0,1,0.2,1,1
				L366.9,206.5L366.9,206.5z"/>
			<path d="M397.5,261.1h36c0.7,0,1,0.3,1,1v3.2c0,1.1-0.2,1.2-1.2,1.2h-71.8c-0.5-0.1-1-0.3-0.9-1.1c0.1-1.1,0-2.3,0-3.4l0,0
				c-0.1-0.4,0.2-0.8,0.6-0.9c0,0,0,0,0.1,0H397.5L397.5,261.1z"/>
		</g>
		<text transform="matrix(1 0 0 1 240.58 422.1)" class="st23 st20 st21">2020</text>
		<text id="INSA_LYON" transform="matrix(1 0 0 1 201.16 306.98)" class="st23 st20 st21">INSA LYON</text>
		
			<linearGradient id="Noeud_1_" gradientUnits="userSpaceOnUse" x1="211.23" y1="-302.3402" x2="302.11" y2="-393.2202" gradientTransform="matrix(1 0 0 -1 23.3 5.5898)">
			<stop  offset="0" style="stop-color:#E8BD5F"/>
			<stop  offset="0.5" style="stop-color:#FFFBBB"/>
			<stop  offset="1" style="stop-color:#EBC46A"/>
		</linearGradient>
		<path id="Noeud" class="st24" d="M337.3,386.9l-4.7-0.9l-14.6-3c-2.9-0.6-5.7-1.1-8.5-1.8l0,0c-0.7-0.2-1.4-0.6-2-1.1
			c-2.1-1.8-4.2-3.7-6.3-5.5c-1.4-1.2-2.9-2.4-4.4-3.6c-0.9-0.8-1.8-1.6-2.6-2.4c-1.2-1.1-1.6-1-3.2-0.5l0,0c-2,0.6-4,1.1-6.1,1.5
			l0,0c-5.6,1-11.4,0.5-16.8-1.4l0,0c-0.7-0.3-1.5-0.2-2,0.3l-4.5,3.9l-6.9,5.9l0,0c-0.6,0.6-1.1,1.1-1.7,1.6l0,0
			c-0.8,0.6-1.7,1.1-2.6,1.4c-4.2,0.9-8.5,1.8-12.7,2.6l-10.3,2.1c-1.3,0.3-2.7,0.5-4,0.8h-0.8c0.2-1.6,0.4-3.1,0.6-4.6
			c0.3-2.3,0.7-4.6,1.1-7l1.2-7.5c0.5-3.3,0.8-6.7,1.5-10c0.9-4,0.1-7.9-0.5-11.7s-1.1-7.5-1.7-11.3c-0.5-3.3-1.1-6.5-1.6-9.8
			c-0.2-1.5-0.4-3-0.6-4.8l0,0c1.1,0.1,2.3,0.2,3.4,0.5c4.5,1.3,9,2.6,13.6,3.9l15.7,4.5l0,0c0.6,0.2,1.1,0.5,1.6,0.9
			c2.8,2.5,5.5,5,8.3,7.5c1.3,1.2,1.8,1.3,3.5,0.7l0,0c1.4-0.5,2.9-0.9,4.4-1.1l0,0c2.5-0.5,5.1-0.7,7.7-0.6c3.8,0.2,7.5,0.6,11,2.3
			l0,0c0.9,0.4,1.9,0.2,2.5-0.5c3.1-2.8,6.2-5.7,9.3-8.5l0,0c0.3-0.2,0.6-0.4,1-0.5c3.8-1,7.4-2,11.1-3.1c3.2-0.9,6.4-1.8,9.6-2.8
			s6.6-1.9,9.9-2.8l0,0l2.4-0.3l0,0c0,0.8,0,1.7-0.1,2.5c-0.4,2.6-0.9,5.1-1.3,7.7c-0.3,1.5-0.4,3.1-0.6,4.7
			c-0.4,2.9-0.9,5.8-1.4,8.7c-0.4,2.4-0.7,4.8-1.1,7.2l0,0c-0.3,2.5-0.1,5,0.4,7.4c0.7,4.4,1.3,8.8,2,13.2l2.1,13.2l0,0
			C337.3,385.5,337.2,386.2,337.3,386.9z M306.6,354.3h-10.8c-1.2,0-1.8,0.5-1.8,1.6v9.1l0,0c0.1,0.5,0.3,1,0.6,1.4
			c1.7,1.6,3.5,3.1,5.2,4.7c2.5,2.1,4.9,4.3,7.4,6.4c0.9,1,2,1.7,3.2,2.1c7.5,1.6,15.1,3.1,22.7,4.6h1c-0.1-0.3-0.1-0.7-0.2-1l0,0
			l-0.3-0.6c-1.1-2-2.2-4.1-3.3-6.2c-2.4-4.7-4.8-9.4-7.3-14c-1.1-2.1-2.3-4.2-3.4-6.4l0,0c-0.5-1.1-1.7-1.8-2.9-1.7
			C313.4,354.4,310,354.3,306.6,354.3L306.6,354.3z M265.4,360.8L265.4,360.8c0-1.6,0.1-3.1,0-4.7c-0.1-1.3-0.7-1.8-1.9-1.8h-21
			c-0.8,0-1.6,0.4-1.9,1.2c-2.1,4.2-4.3,8.4-6.5,12.5s-4.4,8.4-6.7,12.7c-0.3,0.6-0.7,1.3-1,1.9s-0.2,1.1,0.7,1
			c1.8-0.1,3.7-0.4,5.5-0.7c5.7-1.1,11.4-2.2,17-3.3l0,0c0.6-0.2,1.2-0.5,1.7-0.9c1.1-0.9,2.2-1.9,3.3-2.8c3.4-3,6.7-6,10-8.9l0,0
			c0.6-0.6,1-1.4,1-2.2C265.4,363.5,265.4,362.1,265.4,360.8L265.4,360.8z M291.9,353.3v-10.5c0-1.9-0.5-2.5-2.3-3.1l0,0
			c-2.3-0.7-4.7-1.1-7.1-1.2l0,0c-4-0.3-8-0.1-11.9,0.8l0,0c-1.2,0.2-2.3,0.7-3.1,1.6l0,0c-0.3,0.4-0.5,0.8-0.5,1.3v20.7
			c0,2.4,0.6,3.3,3,4l0,0c6.6,1.7,13.5,1.6,20-0.4c1.6-0.6,2-1.1,2-2.8L291.9,353.3z M334.3,322.8c-1.2,0.2-2.2,0.4-3.1,0.6
			l-9.4,2.6c-5.1,1.4-10.1,2.8-15.2,4.3l0,0c-0.9,0.3-1.7,0.7-2.4,1.4c-1.7,1.5-3.3,3-5,4.5c-1.5,1.4-3,2.6-4.5,4.1l0,0
			c-0.4,0.5-0.7,1.1-0.8,1.8c-0.1,2.8,0,5.5,0,8.3c0,1.3,0.4,1.7,1.7,1.7h22c0.8,0,1.5-0.4,1.9-1.1l1.8-3.3c1.1-2.1,2.2-4.4,3.4-6.5
			L334.3,322.8z M252.9,352.1h10.4c1.4,0,1.8-0.4,2-1.7l0,0v-1c0-2.3-0.1-4.7,0-7l0,0c0.1-1.4-0.6-2.8-1.7-3.7
			c-2.3-2-4.4-4.2-6.7-6.2l0,0c-1-0.9-2.2-1.7-3.5-2.3l0,0c-1.5-0.5-3.1-1-4.7-1.4c-4.6-1.3-9.2-2.6-13.8-3.8
			c-2.6-0.7-5.2-1.4-7.9-2.1h-1.1c0,0.3,0.1,0.7,0.2,1c0.5,1,1.1,2,1.6,3c0.9,1.6,1.8,3.3,2.6,4.9c3.3,6.3,6.7,12.6,10,18.9l0,0
			c0.4,0.9,1.2,1.5,2.2,1.4L252.9,352.1z M334.4,380.3l0.3-0.1c0-0.4,0-0.7-0.1-1.1l-1.6-9.9c-0.6-3.8-1.3-7.5-1.7-11.3l0,0
			c-0.3-2-0.4-3.9-0.3-5.9c0.2-2,0.4-4,0.8-6c0.3-2.4,0.7-4.7,1-7c0.7-4.1,1.4-8.2,2.1-12.2l0,0V326c-0.2,0.2-0.3,0.2-0.3,0.3
			l-4.5,8.7c-3,5.7-5.9,11.3-8.9,17l0,0c-0.6,1-0.6,2.3,0.1,3.3c0.6,1.1,1.2,2.3,1.8,3.4l4.3,8.2c1.4,2.7,2.9,5.4,4.3,8.2
			c0.7,1.4,1.4,2.9,2.1,4.4l0,0C334,379.5,334.2,379.9,334.4,380.3L334.4,380.3z M225.8,326.9l-0.3,0.1c0,0.4,0,0.9,0.1,1.3
			l1.8,11.7c0.6,3.7,1.2,7.5,1.8,11.2l0,0c0.2,1.4,0.2,2.9,0,4.3c-0.2,2-0.6,3.9-0.9,5.9s-0.6,4.4-0.9,6.5c-0.6,3.5-1.3,7-1.9,10.4
			l0,0c-0.1,0.5-0.1,0.9-0.1,1.4l0.2,0.1c0.2-0.3,0.3-0.5,0.5-0.8c0.9-1.8,1.8-3.6,2.8-5.4c0.6-1.1,1.3-2.1,1.9-3.2
			c1-1.7,1.9-3.5,2.8-5.3l5.5-10.6l0,0c0.4-0.8,0.4-1.7,0-2.5c-1.8-3.5-3.6-7.1-5.5-10.6c-2.4-4.5-4.8-9-7.2-13.6L225.8,326.9z"/>
		<g id="Bal">
			
				<linearGradient id="SVGID_17_" gradientUnits="userSpaceOnUse" x1="137.09" y1="-203.6602" x2="212.272" y2="-203.6602" gradientTransform="matrix(1 0 0 -1 23.3 5.5898)">
				<stop  offset="0" style="stop-color:#FFFBBB"/>
				<stop  offset="0.25" style="stop-color:#E8BD5F"/>
				<stop  offset="0.5" style="stop-color:#F9E9A1"/>
				<stop  offset="0.75" style="stop-color:#E3BB69"/>
				<stop  offset="1" style="stop-color:#F3DC91"/>
			</linearGradient>
			<path class="st25" d="M215.3,206.5l1.8,0.8c1.8,0.9,3.6,1.7,5.4,2.6l0,0c2.6,1.4,5,3.2,7,5.4l0,0c1.9,2,3.4,4.5,4.4,7.1
				c0.5,1.3,1,2.7,1.4,4l0,0c0.2,1,0.3,1.9,0.4,2.9c0,2.3,0.1,4.5,0,6.8l0,0c-0.1,1-0.3,2-0.6,3l0,0c-0.4,1.9-1.2,3.8-2.1,5.5l0,0
				c-1.5,2.8-3.5,5.2-5.9,7.2l0,0c-2.2,2-4.7,3.6-7.4,4.8l0,0c-1.7,0.8-3.5,1.5-5.3,2.1c-1.9,0.6-3.8,1.1-5.7,1.5l0,0
				c-1.1,0.2-2.2,0.4-3.3,0.5c-2.4,0.3-4.8,0.7-7.2,0.8c-3.6,0.2-7.2,0.4-10.8,0.4h-25.6c-1.1,0-1.2-0.1-1.2-1.2v-3.3
				c0-0.7,0.2-1,1-1h31.3c1.8,0,3.7-0.1,5.5-0.3l0,0c2.2-0.2,4.4-0.6,6.5-1c2.5-0.5,4.9-1.3,7.3-1.9l0,0c2.6-0.7,5.1-1.7,7.4-3.1
				l0,0c3-1.7,5.5-4.2,7.2-7.3l0,0c0.9-1.7,1.7-3.6,2.2-5.5l0,0c0.1-0.5,0.2-0.9,0.2-1.4l0,0c0.2-1.4,0.3-2.9,0.3-4.3l0,0
				c-0.2-1.9-0.5-3.8-0.9-5.6l0,0c-0.8-3-2.4-5.7-4.6-7.9l0,0c-1.9-1.9-4.2-3.5-6.6-4.7l0,0c-2.6-1.2-5.3-2.2-8.1-3
				c-1.6-0.5-3.1-1-4.7-1.5c-0.9-0.3-1.9-0.6-2.8-0.9c-0.2-0.1-0.6-0.3-0.6-0.5l0,0c0-0.3,0.2-0.5,0.4-0.7c1.1-0.6,2.3-1.1,3.4-1.7
				c3.4-1.7,7-3.1,10.1-5.3l0,0c2.5-1.6,4.5-4,5.8-6.7l0,0c0.5-1.4,1-2.7,1.4-4.1l0,0c0.7-2.6,0.8-5.4,0.3-8.1l0,0
				c-0.7-4.4-3-8.4-6.5-11.1l0,0c-2.6-2-5.4-3.5-8.5-4.5c-2.2-0.7-4.4-1.3-6.6-1.8l0,0c-3.7-0.7-7.4-1.2-11.2-1.4
				c-7.4-0.5-14.8-0.1-22.3-0.3c-0.5,0-0.8,0.1-0.7,0.7l0,0v83.1c0,0.6-0.2,0.9-0.8,0.9h-4.9c-0.2,0-0.5-0.4-0.5-0.6
				c-0.1-0.8-0.1-1.7,0-2.5v-85.6c0-1.2,0-1.2,1.3-1.2c9.1,0,18.2,0,27.3,0.1l0,0c2.4,0,4.7,0.2,7.1,0.5l0,0c2.5,0.3,5,0.8,7.4,1.3
				c2.1,0.5,4.2,1.3,6.4,1.9l0,0c2.4,0.7,4.6,1.7,6.7,3l0,0c3,1.7,5.6,3.9,7.8,6.6l0,0c1.3,1.7,2.4,3.6,3.2,5.6l0,0
				c0.9,2.5,1.4,5.1,1.5,7.7l0,0c0.1,2.2,0,4.4-0.4,6.5l0,0c-0.5,2.8-1.6,5.5-3.1,7.9l0,0C223,201.4,219.4,204.4,215.3,206.5z"/>
			
				<linearGradient id="SVGID_18_" gradientUnits="userSpaceOnUse" x1="223.75" y1="-203.8622" x2="313.6851" y2="-203.8622" gradientTransform="matrix(1 0 0 -1 23.3 5.5898)">
				<stop  offset="0" style="stop-color:#FFFBBB"/>
				<stop  offset="0.25" style="stop-color:#E8BD5F"/>
				<stop  offset="0.5" style="stop-color:#F9E9A1"/>
				<stop  offset="0.75" style="stop-color:#E3BB69"/>
				<stop  offset="1" style="stop-color:#F3DC91"/>
			</linearGradient>
			<path class="st26" d="M328.1,256.6L328.1,256.6c0-0.2,0-0.3-0.1-0.5c-0.8-1.7-1.5-3.4-2.3-5.1c-0.5-1-0.9-2.1-1.2-3.2l-1.2-2.7
				c-0.6-1.4-1.3-2.9-1.9-4.3c-0.9-2.2-1.8-4.4-2.8-6.6c-0.6-1.5-1.4-3-2-4.5c-0.5-1.1-0.9-2.3-1.4-3.4c-0.7-1.8-1.5-3.6-2.3-5.5
				s-1.6-3.7-2.4-5.6c-1.1-2.6-2.1-5.1-3.2-7.6c-0.6-1.5-1.4-3-2-4.4c-0.9-2.1-1.7-4.2-2.6-6.2s-1.9-4.4-2.8-6.6
				c-0.8-1.9-1.6-3.9-2.5-5.8c-0.6-1.4-1.2-2.7-1.9-4.1c-0.8-1.9-1.7-3.9-2.5-5.8c-0.3-0.6-0.4-1.2-0.7-1.8l0,0
				c-0.2-0.4-0.4-0.8-0.7-1.1l-0.9,2.1c-0.7,1.6-1.4,3.2-2,4.8s-1.3,3.2-2,4.8c-0.4,1-0.9,1.9-1.3,2.9c-0.8,1.9-1.6,3.7-2.4,5.6
				c-0.9,2.2-1.8,4.3-2.8,6.4c-0.6,1.5-1.4,3.1-2,4.6c-0.5,1.2-1,2.4-1.5,3.5l-2.4,5.7c-1.1,2.7-2.3,5.4-3.5,8
				c-1,2.3-1.9,4.6-2.8,6.8c-0.8,1.9-1.6,3.7-2.4,5.6c-0.5,1.2-1,2.5-1.5,3.7s-1,2.4-1.5,3.5c-0.7,1.7-1.4,3.3-2.2,5
				c-0.8,1.7-1.4,3.3-2.1,4.9c-0.5,1.3-1,2.5-1.6,3.8c-0.8,1.9-1.7,3.9-2.5,5.8c-0.3,0.6-0.5,1.3-0.8,1.9l0,0
				c-0.2,0.6-0.8,0.9-1.4,0.9h-4.5c-1,0-1.3-0.5-0.9-1.4c0.6-1.4,1.3-2.9,1.9-4.3c1.1-2.4,2.1-4.8,3.1-7.2c0.7-1.7,1.4-3.4,2.1-5
				c0.9-2.2,1.9-4.4,2.8-6.6c0.8-2,1.6-4,2.5-6.1c0.5-1.2,1.1-2.3,1.6-3.5s1-2.5,1.5-3.8c0.6-1.5,1.2-3.1,1.8-4.6
				c0.5-1.1,1-2.1,1.5-3.2c0.9-2.1,1.7-4.2,2.6-6.2c0.6-1.5,1.4-3,2-4.6s1.2-3.1,1.9-4.6c0.7-1.5,1.4-3,2-4.5
				c0.9-2.1,1.7-4.2,2.6-6.3c0.7-1.6,1.5-3.2,2.2-4.9c0.6-1.5,1.2-3,1.9-4.5c0.5-1.2,1.1-2.4,1.5-3.6c0.8-1.9,1.5-3.8,2.3-5.7
				c0.4-1.1,1-2.1,1.5-3.2c1-2.4,2-4.9,3.1-7.3c0.5-1.3,1.1-2.5,1.7-3.7l0,0c0.1-0.3,0.4-0.4,0.7-0.5l0,0c0.3,0.1,0.5,0.3,0.6,0.5
				c0.8,1.7,1.6,3.4,2.3,5.1c1,2.4,1.9,4.8,2.9,7.2c0.6,1.5,1.3,3,2,4.4c0.9,2,1.7,4.1,2.5,6.1l1.5,3.3c0.5,1.1,0.9,2.1,1.3,3.2
				s1,2.2,1.4,3.3l2.1,5.1c0.5,1.1,1,2.3,1.6,3.4c0.2,0.4,0.3,0.8,0.5,1.2c0.4,0.8,0.7,1.7,1.1,2.5c0.5,1.2,0.9,2.4,1.4,3.6
				s1,2.2,1.5,3.4s0.9,2.2,1.4,3.3c0.6,1.3,1.2,2.6,1.8,4l2.7,6.6l1.5,3.3c0.5,1.1,1,2.4,1.5,3.6l2,4.6c0.7,1.6,1.3,3.1,2,4.6
				l2.1,4.8c0.7,1.6,1.4,3.4,2.1,5.1c0.6,1.4,1.3,2.9,1.9,4.3c0.4,0.9,0.8,1.8,1.1,2.7c0.3,0.9,0.8,2,1.2,3l0.9,2.1
				c0.2,0.5-0.1,0.7-0.5,0.9l0,0c-0.3,0.1-0.5,0.1-0.8,0.1h-70.5c-0.7,0-1-0.3-1-1v-3.6c0-0.5,0.2-0.8,0.8-0.8h62
				C327.3,256.7,327.7,256.6,328.1,256.6z"/>
			
				<linearGradient id="SVGID_19_" gradientUnits="userSpaceOnUse" x1="315.8477" y1="-161.2073" x2="356.5793" y2="-231.77" gradientTransform="matrix(1 0 0 -1 23.3 5.5898)">
				<stop  offset="0" style="stop-color:#E8BD5F"/>
				<stop  offset="1" style="stop-color:#FFFBBB"/>
			</linearGradient>
			<path class="st27" d="M362.7,202.2v44.1c0,1.2,0,1.2-1.2,1.2h-4.1c-1,0-1.1-0.1-1.1-1.1v-88.6c0-1,0.1-1.2,1.1-1.2h4.3
				c0.9,0,1,0.2,1,1L362.7,202.2L362.7,202.2z"/>
			
				<linearGradient id="SVGID_20_" gradientUnits="userSpaceOnUse" x1="332.98" y1="-253.8102" x2="406.99" y2="-253.8102" gradientTransform="matrix(1 0 0 -1 23.3 5.5898)">
				<stop  offset="0" style="stop-color:#FFFBBB"/>
				<stop  offset="0.25" style="stop-color:#E8BD5F"/>
				<stop  offset="0.5" style="stop-color:#F9E9A1"/>
				<stop  offset="0.75" style="stop-color:#E3BB69"/>
				<stop  offset="1" style="stop-color:#F3DC91"/>
			</linearGradient>
			<path class="st28" d="M393.3,256.7h36c0.7,0,1,0.3,1,1v3.2c0,1.1-0.2,1.2-1.2,1.2h-71.8c-0.5-0.1-1-0.3-0.9-1.1
				c0.1-1.1,0-2.3,0-3.4l0,0c-0.1-0.4,0.2-0.8,0.6-0.9c0,0,0,0,0.1,0H393.3z"/>
		</g>
	</g>
</g>
</svg>
