<?xml version="1.0" encoding="utf-8"?>
<!-- Generator: Adobe Illustrator 23.1.0, SVG Export Plug-In . SVG Version: 6.00 Build 0)  -->
<svg version="1.1" id="Calque_1" xmlns="http://www.w3.org/2000/svg" xmlns:xlink="http://www.w3.org/1999/xlink" x="0px" y="0px"
	 viewBox="0 0 521.6 508.7" style="enable-background:new 0 0 521.6 508.7;" xml:space="preserve">
<style type="text/css">
	.st0{fill:none;stroke:url(#Grand_Octogone_1_);stroke-width:4;stroke-miterlimit:10;}
	.st1{fill:none;stroke:url(#Moyen_Octogone_2_);stroke-width:2;stroke-miterlimit:10;}
	.st2{fill:none;stroke:url(#Petit_Octogone_1_);stroke-miterlimit:10;}
	.st3{opacity:0.2;enable-background:new    ;}
	.st4{font-family:'ArialMT';}
	.st5{font-size:36px;}
	.st6{opacity:0.2;}
	.st7{fill:#FFFBBB;}
	.st8{fill:url(#Noeud_1_);}
	.st9{fill:url(#SVGID_1_);}
	.st10{fill:url(#SVGID_2_);}
	.st11{fill:url(#SVGID_3_);}
	.st12{fill:url(#SVGID_4_);}
</style>
<linearGradient id="Grand_Octogone_1_" gradientUnits="userSpaceOnUse" x1="-13.8449" y1="860.4482" x2="452.2047" y2="860.4482" gradientTransform="matrix(0.9659 -0.2588 0.2588 0.9659 -173.5899 -520.0332)">
	<stop  offset="0" style="stop-color:#FFFBBB"/>
	<stop  offset="0.2" style="stop-color:#E8BD5F"/>
	<stop  offset="0.4" style="stop-color:#FBF1AC"/>
	<stop  offset="0.6" style="stop-color:#EDC971"/>
	<stop  offset="0.8" style="stop-color:#FCF4B1"/>
	<stop  offset="1" style="stop-color:#F0D380"/>
</linearGradient>
<polygon id="Grand_Octogone" class="st0" points="293.5,6.5 108.6,56 12.9,221.7 62.4,406.5 228.1,502.2 413,452.7 508.7,287 
	459.2,102.2 "/>
<linearGradient id="Moyen_Octogone_2_" gradientUnits="userSpaceOnUse" x1="-117.8505" y1="854.0244" x2="308.3214" y2="854.0244" gradientTransform="matrix(0.866 -0.5 0.5 0.866 -248.6861 -437.6173)">
	<stop  offset="0" style="stop-color:#FFFBBB"/>
	<stop  offset="0.2" style="stop-color:#E8BD5F"/>
	<stop  offset="0.4" style="stop-color:#FBF1AC"/>
	<stop  offset="0.6" style="stop-color:#EDC971"/>
	<stop  offset="0.8" style="stop-color:#FCF4B1"/>
	<stop  offset="1" style="stop-color:#F0D380"/>
</linearGradient>
<polygon id="Moyen_Octogone_1_" class="st1" points="230.8,26.9 78.7,114.7 33.2,284.3 121.1,436.5 290.8,481.8 442.9,394 
	488.4,224.4 400.5,72.2 "/>
<linearGradient id="Petit_Octogone_1_" gradientUnits="userSpaceOnUse" x1="-254.9039" y1="793.0885" x2="139.3221" y2="793.0885" gradientTransform="matrix(0.7071 -0.7071 0.7071 0.7071 -259.1289 -347.3068)">
	<stop  offset="0" style="stop-color:#FFFBBB"/>
	<stop  offset="0.2" style="stop-color:#E8BD5F"/>
	<stop  offset="0.4" style="stop-color:#FBF1AC"/>
	<stop  offset="0.6" style="stop-color:#EDC971"/>
	<stop  offset="0.8" style="stop-color:#FCF4B1"/>
	<stop  offset="1" style="stop-color:#F0D380"/>
</linearGradient>
<polygon id="Petit_Octogone" class="st2" points="179.4,57.8 64.3,173 64.2,335.8 179.4,450.9 342.2,450.9 457.3,335.7 457.4,172.9 
	342.2,57.8 "/>
<title>LOGO Vectorisé</title>
<g id="Calque_3">
	<g id="Lettres">
		<text id="_x32_020_Ombre" transform="matrix(1 0 0 1 218.5098 411.9296)" class="st3 st4 st5">2020</text>
		<text id="INSA_LYON_Ombre" transform="matrix(1 0 0 1 179.8169 296.6561)" class="st3 st4 st5">INSA LYON</text>
		<path id="Noeud_Ombre" class="st3" d="M316,377.4l-4.7-0.9l-14.6-3c-2.9-0.6-5.7-1.1-8.5-1.8l0,0c-0.7-0.2-1.4-0.6-2-1.1
			c-2.1-1.8-4.2-3.7-6.3-5.5c-1.4-1.2-2.9-2.4-4.4-3.6c-0.9-0.8-1.8-1.6-2.6-2.4c-1.2-1.1-1.6-1-3.2-0.5l0,0c-2,0.6-4,1.1-6.1,1.5
			l0,0c-5.6,1-11.4,0.5-16.8-1.4l0,0c-0.7-0.3-1.5-0.2-2,0.3c-1.5,1.3-3,2.6-4.5,3.9l-6.9,5.9l0,0c-0.6,0.6-1.1,1.1-1.7,1.6l0,0
			c-0.8,0.6-1.7,1.1-2.6,1.4c-4.2,0.9-8.4,1.8-12.7,2.6c-3.4,0.7-6.9,1.4-10.3,2.1c-1.3,0.3-2.7,0.5-4,0.8l0,0c-0.3,0-0.5,0-0.8,0
			c0.2-1.6,0.4-3.1,0.6-4.6c0.3-2.3,0.7-4.6,1.1-7c0.4-2.5,0.8-5,1.2-7.5c0.5-3.3,0.8-6.7,1.5-10c0.9-4,0.1-7.9-0.5-11.7
			s-1.1-7.5-1.7-11.3c-0.5-3.3-1.1-6.5-1.6-9.8c-0.2-1.5-0.4-3-0.6-4.8l0,0c1.1,0.1,2.3,0.2,3.4,0.5c4.5,1.3,9,2.6,13.6,3.9
			c5.2,1.5,10.5,3,15.7,4.5l0,0c0.6,0.2,1.1,0.5,1.6,0.9c2.8,2.5,5.5,5,8.3,7.5c1.3,1.2,1.8,1.3,3.5,0.7l0,0
			c1.4-0.5,2.9-0.9,4.4-1.1l0,0c2.5-0.5,5.1-0.7,7.7-0.6c3.8,0.2,7.5,0.6,11,2.3l0,0c0.9,0.4,1.9,0.2,2.5-0.5
			c3.1-2.8,6.2-5.7,9.3-8.5l0,0c0.3-0.2,0.6-0.4,1-0.5c3.8-1,7.4-2,11.1-3.1c3.2-0.9,6.4-1.8,9.6-2.8s6.6-1.9,9.9-2.8l0,0
			c0.8-0.1,1.6-0.2,2.4-0.3l0,0c0,0.8,0,1.6-0.1,2.5c-0.4,2.6-0.9,5.1-1.3,7.7c-0.3,1.5-0.4,3.1-0.6,4.7c-0.4,2.9-0.9,5.8-1.4,8.7
			c-0.4,2.4-0.7,4.8-1.1,7.2l0,0c-0.3,2.5-0.1,5,0.4,7.4c0.7,4.4,1.3,8.8,2,13.2s1.4,8.8,2.1,13.2l0,0
			C316,375.8,316,376.6,316,377.4z M285.2,344.8h-10.8c-1.2,0-1.8,0.5-1.8,1.6v9.1l0,0c0,0.5,0.3,1,0.6,1.4c1.7,1.6,3.5,3.1,5.2,4.7
			c2.5,2.1,4.9,4.3,7.4,6.4c0.9,1,2,1.7,3.2,2.1c7.5,1.6,15.1,3.1,22.7,4.6l0,0c0.3,0,0.7,0,1,0c-0.1-0.3-0.1-0.7-0.2-1l0,0
			c-0.1-0.2-0.2-0.4-0.3-0.6c-1.1-2-2.2-4.1-3.3-6.2c-2.4-4.7-4.8-9.4-7.3-14c-1.1-2.1-2.3-4.2-3.4-6.4l0,0
			c-0.5-1.1-1.7-1.8-2.9-1.7C292.1,344.9,288.6,344.8,285.2,344.8L285.2,344.8z M244,351.3L244,351.3c0-1.6,0.1-3.1,0-4.7
			c-0.1-1.3-0.7-1.8-1.9-1.8h-21c-0.8,0-1.6,0.4-1.9,1.2c-2.1,4.2-4.3,8.4-6.5,12.5s-4.4,8.4-6.7,12.7c-0.3,0.6-0.7,1.3-1.1,1.9
			s-0.2,1.1,0.7,1c1.8-0.2,3.7-0.3,5.5-0.7c5.7-1.1,11.4-2.2,17-3.3l0,0c0.6-0.2,1.2-0.5,1.7-0.9c1.1-0.9,2.2-1.9,3.3-2.8
			c3.4-3,6.7-6,10-8.9l0,0c0.6-0.6,1-1.4,0.9-2.2C244,354,244.1,352.6,244,351.3L244,351.3z M270.6,343.8v-10.5
			c0-1.9-0.5-2.5-2.3-3.1l0,0c-2.3-0.7-4.7-1.1-7.1-1.2l0,0c-4-0.3-8-0.1-11.9,0.8l0,0c-1.2,0.2-2.3,0.7-3.1,1.6l0,0
			c-0.3,0.4-0.5,0.8-0.5,1.3v20.7c0,2.4,0.6,3.3,3,4l0,0c3.1,0.9,6.3,1.4,9.6,1.2c3.5,0.1,7.1-0.4,10.4-1.6c1.6-0.6,2-1.1,2-2.8
			L270.6,343.8z M313,313.2c-1.2,0.2-2.2,0.4-3.1,0.6l-9.5,2.6c-5.1,1.4-10.1,2.8-15.2,4.3l0,0c-0.9,0.3-1.7,0.7-2.4,1.4
			c-1.7,1.5-3.3,3-5,4.5c-1.5,1.4-3,2.6-4.4,4.1l0,0c-0.5,0.5-0.7,1.2-0.8,1.8c-0.1,2.8,0,5.5,0,8.3c0,1.3,0.4,1.7,1.7,1.7h22
			c0.8,0,1.5-0.4,1.9-1.1c0.6-1.1,1.2-2.2,1.8-3.3c1.1-2.1,2.2-4.4,3.4-6.5L313,313.2z M231.6,342.6H242c1.4,0,1.8-0.4,2-1.7l0,0
			c0-0.3,0-0.7,0-1c0-2.3-0.1-4.7,0-7l0,0c0.1-1.4-0.6-2.8-1.7-3.7c-2.3-2-4.4-4.2-6.7-6.2l0,0c-1-0.9-2.2-1.7-3.5-2.3l0,0
			c-1.5-0.5-3.1-1-4.7-1.4c-4.6-1.3-9.2-2.6-13.8-3.8c-2.6-0.7-5.2-1.4-7.9-2.1l0,0c-0.4,0-0.7,0-1.1,0l0,0c0,0.3,0.1,0.7,0.2,1
			c0.5,1,1.1,2,1.6,3c0.9,1.6,1.8,3.3,2.6,4.9c3.3,6.3,6.7,12.6,10,18.9l0,0c0.4,0.9,1.3,1.5,2.2,1.4
			C224.7,342.5,228.1,342.5,231.6,342.6L231.6,342.6z M313.1,370.7l0.3-0.1c0-0.4,0-0.8-0.1-1.1l-1.6-9.9c-0.6-3.8-1.3-7.5-1.7-11.3
			l0,0c-0.3-2-0.4-3.9-0.3-5.9c0.2-2,0.4-4,0.8-6c0.3-2.4,0.7-4.7,1-7c0.7-4.1,1.4-8.2,2.1-12.2l0,0c0-0.3,0-0.5,0-0.8
			c-0.2,0.2-0.3,0.2-0.3,0.3l-4.5,8.7c-3,5.7-5.9,11.3-8.9,17l0,0c-0.6,1-0.6,2.3,0.1,3.3c0.6,1.1,1.2,2.3,1.8,3.4l4.3,8.2
			c1.4,2.7,2.9,5.4,4.3,8.2c0.7,1.4,1.4,2.9,2.1,4.4l0,0C312.7,370,312.9,370.3,313.1,370.7L313.1,370.7z M204.5,317.4l-0.3,0.1
			c0,0.4,0,0.9,0.1,1.3l1.8,11.7c0.6,3.7,1.2,7.5,1.8,11.2l0,0c0.2,1.4,0.2,2.8,0,4.3c-0.2,2-0.6,3.9-0.9,5.9
			c-0.3,2.1-0.6,4.4-0.9,6.5c-0.6,3.5-1.3,7-1.9,10.4l0,0c-0.1,0.5-0.1,1-0.1,1.4l0.2,0.1c0.2-0.3,0.3-0.5,0.5-0.8
			c0.9-1.8,1.8-3.6,2.8-5.4c0.6-1.1,1.3-2.1,1.9-3.2c1-1.7,1.9-3.5,2.8-5.3l5.5-10.6l0,0c0.4-0.8,0.4-1.7,0-2.5
			c-1.8-3.5-3.6-7.1-5.5-10.6c-2.4-4.5-4.8-9-7.2-13.6L204.5,317.4z"/>
		<g id="Bal_Ombre" class="st6">
			<path d="M196.2,199.1l1.8,0.8c1.8,0.9,3.6,1.7,5.4,2.6l0,0c2.6,1.4,5,3.2,7,5.4l0,0c1.9,2,3.4,4.4,4.4,7.1c0.5,1.3,1,2.7,1.4,4
				l0,0c0.2,0.9,0.3,1.9,0.4,2.9c0,2.3,0.1,4.5,0,6.8l0,0c-0.1,1-0.3,2-0.6,3l0,0c-0.4,1.9-1.2,3.8-2.1,5.5l0,0
				c-1.5,2.8-3.5,5.2-5.9,7.2l0,0c-2.2,1.9-4.7,3.6-7.4,4.8l0,0c-1.7,0.8-3.5,1.5-5.3,2.1c-1.9,0.6-3.8,1.1-5.7,1.5l0,0
				c-1.1,0.2-2.2,0.4-3.3,0.5c-2.4,0.3-4.8,0.7-7.2,0.8c-3.6,0.2-7.2,0.4-10.8,0.4c-8.5,0-17.1,0-25.6,0c-1.1,0-1.2-0.1-1.2-1.2V250
				c0-0.7,0.2-1,1-1h5.6c8.6,0,17.1,0,25.7,0l0,0c1.9,0,3.7-0.1,5.5-0.3l0,0c2.2-0.2,4.4-0.6,6.5-1c2.5-0.5,4.9-1.3,7.3-1.9l0,0
				c2.6-0.7,5.1-1.7,7.4-3.1l0,0c3-1.7,5.5-4.2,7.2-7.3l0,0c0.9-1.7,1.7-3.6,2.2-5.5l0,0c0.1-0.5,0.2-1,0.2-1.4l0,0
				c0.2-1.4,0.3-2.8,0.3-4.3l0,0c-0.2-1.9-0.5-3.8-0.9-5.6l0,0c-0.8-3-2.4-5.7-4.6-7.9l0,0c-1.9-1.9-4.2-3.5-6.6-4.7l0,0
				c-2.6-1.2-5.3-2.2-8.1-3c-1.6-0.5-3.1-1-4.7-1.5c-0.9-0.3-1.9-0.6-2.8-0.9c-0.2-0.1-0.6-0.3-0.6-0.5l0,0c0-0.3,0.2-0.5,0.4-0.7
				c1.1-0.6,2.3-1.1,3.4-1.7c3.4-1.7,7-3.1,10.1-5.3l0,0c2.5-1.6,4.5-3.9,5.8-6.7l0,0c0.5-1.4,1-2.7,1.4-4.1l0,0
				c0.7-2.6,0.8-5.4,0.3-8.1l0,0c-0.7-4.4-3-8.4-6.5-11.1l0,0c-2.6-2-5.4-3.5-8.5-4.5c-2.2-0.7-4.4-1.3-6.6-1.8l0,0
				c-3.7-0.7-7.4-1.2-11.2-1.4c-7.4-0.5-14.8-0.1-22.3-0.3c-0.5,0-0.8,0.1-0.7,0.7l0,0c0,0.2,0,0.3,0,0.5v82.6
				c0,0.6-0.2,0.9-0.8,0.9H142c-0.2,0-0.5-0.4-0.5-0.6c-0.1-0.8,0-1.6,0-2.5v-85.6c0-1.2,0-1.2,1.3-1.2c9.1,0,18.2,0,27.3,0.1l0,0
				c2.4,0,4.7,0.2,7.1,0.5l0,0c2.5,0.3,5,0.8,7.4,1.3c2.1,0.5,4.2,1.3,6.4,1.9l0,0c2.3,0.7,4.6,1.7,6.7,3l0,0c3,1.7,5.7,4,7.8,6.6
				l0,0c1.3,1.7,2.4,3.6,3.2,5.6l0,0c0.9,2.5,1.4,5.1,1.5,7.7l0,0c0.1,2.2,0,4.4-0.4,6.5l0,0c-0.5,2.8-1.6,5.5-3.1,7.9l0,0
				C203.7,194.2,200.2,197.2,196.2,199.1z"/>
			<path d="M309,249.3L309,249.3c0-0.2,0-0.3-0.1-0.5c-0.8-1.7-1.5-3.4-2.3-5.1c-0.5-1-0.8-2.1-1.2-3.2c-0.4-0.9-0.8-1.8-1.2-2.7
				c-0.6-1.4-1.3-2.9-1.9-4.3c-0.9-2.2-1.8-4.4-2.8-6.6c-0.6-1.5-1.4-3-2-4.5c-0.5-1.1-0.9-2.3-1.4-3.4c-0.7-1.8-1.5-3.6-2.3-5.5
				s-1.6-3.7-2.4-5.6c-1.1-2.6-2.1-5.1-3.2-7.6c-0.6-1.5-1.4-3-2-4.4c-0.9-2.1-1.7-4.2-2.6-6.2s-1.9-4.4-2.8-6.6
				c-0.8-1.9-1.6-3.9-2.5-5.8c-0.6-1.4-1.2-2.7-1.9-4.1c-0.8-1.9-1.7-3.9-2.5-5.8c-0.3-0.6-0.4-1.2-0.7-1.8l0,0
				c-0.2-0.4-0.4-0.7-0.7-1.1l-0.9,2.1c-0.7,1.6-1.4,3.2-2,4.8s-1.3,3.2-2,4.8c-0.4,1-0.9,1.9-1.3,2.9c-0.8,1.9-1.6,3.7-2.4,5.6
				c-0.9,2.2-1.8,4.3-2.8,6.4c-0.6,1.5-1.4,3.1-2,4.6c-0.5,1.2-1,2.4-1.5,3.5c-0.8,1.9-1.6,3.8-2.4,5.7c-1.1,2.7-2.3,5.4-3.5,8
				c-1,2.3-1.9,4.6-2.8,6.8c-0.8,1.9-1.6,3.7-2.4,5.6c-0.5,1.2-1,2.5-1.5,3.7s-1,2.4-1.5,3.5c-0.7,1.7-1.4,3.3-2.2,5
				s-1.4,3.3-2.1,4.9c-0.5,1.3-1,2.5-1.6,3.8c-0.8,1.9-1.7,3.9-2.5,5.8c-0.3,0.6-0.5,1.3-0.8,1.9l0,0c-0.2,0.6-0.8,0.9-1.4,0.9h-4.5
				c-1,0-1.3-0.5-0.9-1.4c0.6-1.4,1.3-2.9,1.9-4.3c1.1-2.4,2.1-4.8,3.1-7.2c0.7-1.7,1.4-3.4,2.1-5c0.9-2.2,1.9-4.4,2.8-6.6
				c0.8-2,1.6-4,2.5-6.1c0.5-1.2,1.1-2.3,1.6-3.5s1-2.5,1.5-3.8c0.6-1.5,1.2-3.1,1.8-4.6c0.5-1.1,1-2.1,1.5-3.2
				c0.9-2.1,1.7-4.2,2.6-6.2c0.6-1.5,1.4-3,2-4.6s1.2-3.1,1.9-4.6s1.4-3,2-4.5c0.9-2.1,1.7-4.2,2.6-6.3c0.7-1.6,1.5-3.2,2.2-4.9
				c0.6-1.5,1.2-3,1.9-4.5c0.5-1.2,1.1-2.4,1.5-3.6c0.8-1.9,1.5-3.8,2.3-5.7c0.4-1.1,1-2.1,1.5-3.2c1-2.4,2-4.9,3.1-7.3
				c0.5-1.3,1.1-2.5,1.7-3.7l0,0c0.1-0.3,0.4-0.4,0.7-0.5l0,0c0.3,0.1,0.5,0.3,0.6,0.5c0.8,1.7,1.6,3.4,2.3,5.1
				c1,2.4,1.9,4.8,2.9,7.2c0.6,1.5,1.3,3,2,4.4c0.9,2,1.7,4.1,2.5,6.1c0.5,1.1,1,2.2,1.5,3.3s0.9,2.1,1.3,3.2s1,2.2,1.4,3.3
				c0.7,1.7,1.4,3.4,2.1,5.1c0.5,1.1,1,2.3,1.6,3.4c0.2,0.4,0.3,0.8,0.5,1.2c0.4,0.8,0.7,1.7,1.1,2.5c0.5,1.2,0.9,2.4,1.4,3.6
				s1,2.2,1.5,3.4s0.9,2.2,1.4,3.3c0.6,1.3,1.2,2.6,1.8,4c0.9,2.2,1.8,4.4,2.7,6.6c0.5,1.1,1,2.2,1.5,3.3s1,2.4,1.5,3.6l2,4.6
				c0.7,1.6,1.3,3.1,2,4.6c0.7,1.6,1.4,3.2,2.1,4.8s1.4,3.4,2.1,5.1c0.6,1.4,1.3,2.9,1.9,4.3c0.4,0.9,0.8,1.8,1.1,2.7
				c0.3,0.9,0.8,2,1.2,3c0.3,0.7,0.6,1.4,0.9,2.1c0.2,0.5-0.1,0.7-0.5,0.9l0,0c-0.3,0.1-0.5,0.1-0.8,0.1h-70.5c-0.7,0-1-0.3-1-1
				c0-1.2,0-2.4,0-3.6c0-0.5,0.2-0.8,0.8-0.8h62C308.2,249.4,308.5,249.3,309,249.3z"/>
			<path d="M343.6,194.8v44.1c0,1.2,0,1.2-1.2,1.2h-4.1c-1,0-1.1-0.1-1.1-1.1v-88.6c0-1,0.1-1.2,1.1-1.2h4.3c0.9,0,1,0.2,1,1
				L343.6,194.8L343.6,194.8z"/>
			<path d="M374.2,249.4h36c0.7,0,1,0.3,1,1v3.2c0,1.1-0.2,1.2-1.2,1.2h-71.1c-0.2,0-0.5,0-0.7,0c-0.5-0.1-1-0.3-0.9-1.1
				c0.1-1.1,0-2.3,0-3.4l0,0c-0.1-0.4,0.2-0.8,0.7-0.9l0,0H374.2L374.2,249.4z"/>
		</g>
		<text transform="matrix(1 0 0 1 217.2805 410.401)" class="st7 st4 st5">2020</text>
		<text id="INSA_LYON" transform="matrix(1 0 0 1 177.8565 295.2799)" class="st7 st4 st5">INSA LYON</text>
		
			<linearGradient id="Noeud_1_" gradientUnits="userSpaceOnUse" x1="211.2335" y1="-334.3438" x2="302.1135" y2="-425.2238" gradientTransform="matrix(1 0 0 -1 0 -38.1102)">
			<stop  offset="1.936395e-07" style="stop-color:#E8BD5F"/>
			<stop  offset="0.5" style="stop-color:#FFFBBB"/>
			<stop  offset="1" style="stop-color:#EBC46A"/>
		</linearGradient>
		<path id="Noeud" class="st8" d="M314,375.2l-4.7-0.9l-14.6-3c-2.9-0.6-5.7-1.1-8.5-1.8l0,0c-0.7-0.2-1.4-0.6-2-1.1
			c-2.1-1.8-4.2-3.7-6.3-5.5c-1.4-1.2-2.9-2.4-4.4-3.6c-0.9-0.8-1.8-1.6-2.6-2.4c-1.2-1.1-1.6-1-3.2-0.5l0,0c-2,0.6-4,1.1-6.1,1.5
			l0,0c-5.6,1-11.4,0.5-16.8-1.4l0,0c-0.7-0.3-1.5-0.2-2,0.3c-1.5,1.3-3,2.6-4.5,3.9l-6.9,5.9l0,0c-0.6,0.6-1.1,1.1-1.7,1.6l0,0
			c-0.8,0.6-1.7,1.1-2.6,1.4c-4.2,0.9-8.5,1.8-12.7,2.6c-3.4,0.7-6.9,1.4-10.3,2.1c-1.3,0.3-2.7,0.5-4,0.8l0,0c-0.3,0-0.5,0-0.8,0
			c0.2-1.6,0.4-3.1,0.6-4.6c0.3-2.3,0.7-4.6,1.1-7c0.4-2.5,0.8-5,1.2-7.5c0.5-3.3,0.8-6.7,1.5-10c0.9-4,0.1-7.9-0.5-11.7
			c-0.6-3.9-1.1-7.5-1.7-11.3c-0.5-3.3-1.1-6.5-1.6-9.8c-0.2-1.5-0.4-3-0.6-4.8l0,0c1.1,0.1,2.3,0.2,3.4,0.5c4.5,1.3,9,2.6,13.6,3.9
			c5.2,1.5,10.5,3,15.7,4.5l0,0c0.6,0.2,1.1,0.5,1.6,0.9c2.8,2.5,5.5,5,8.3,7.5c1.3,1.2,1.8,1.3,3.5,0.7l0,0
			c1.4-0.5,2.9-0.9,4.4-1.1l0,0c2.5-0.5,5.1-0.7,7.7-0.6c3.8,0.2,7.5,0.6,11,2.3l0,0c0.9,0.4,1.9,0.2,2.5-0.5
			c3.1-2.8,6.2-5.7,9.3-8.5l0,0c0.3-0.2,0.6-0.4,1-0.5c3.8-1,7.4-2,11.1-3.1c3.2-0.9,6.4-1.8,9.6-2.8s6.6-1.9,9.9-2.8l0,0
			c0.8-0.1,1.6-0.2,2.4-0.3l0,0c0,0.8,0,1.6-0.1,2.5c-0.4,2.6-0.9,5.1-1.3,7.7c-0.3,1.5-0.4,3.1-0.6,4.7c-0.4,2.9-0.9,5.8-1.4,8.7
			c-0.4,2.4-0.7,4.8-1.1,7.2l0,0c-0.3,2.5-0.1,5,0.4,7.4c0.7,4.4,1.3,8.8,2,13.2s1.4,8.8,2.1,13.2l0,0
			C314,373.6,314,374.4,314,375.2z M283.3,342.6h-10.8c-1.2,0-1.8,0.5-1.8,1.6v9.1l0,0c0,0.5,0.3,1,0.6,1.4c1.7,1.6,3.5,3.1,5.2,4.7
			c2.5,2.1,4.9,4.3,7.4,6.4c0.9,1,2,1.7,3.2,2.1c7.5,1.6,15.1,3.1,22.7,4.6l0,0c0.3,0,0.7,0,1,0c-0.1-0.3-0.1-0.7-0.2-1l0,0
			c-0.1-0.2-0.2-0.4-0.3-0.6c-1.1-2-2.2-4.1-3.3-6.2c-2.4-4.7-4.8-9.4-7.3-14c-1.1-2.1-2.3-4.2-3.4-6.4l0,0
			c-0.5-1.1-1.7-1.8-2.9-1.7C290.1,342.7,286.7,342.6,283.3,342.6L283.3,342.6z M242.1,349.1L242.1,349.1c0-1.6,0.1-3.1,0-4.7
			c-0.1-1.3-0.7-1.8-1.9-1.8h-21c-0.8,0-1.6,0.4-1.9,1.2c-2.1,4.2-4.3,8.4-6.5,12.5c-2.2,4.2-4.4,8.4-6.7,12.7
			c-0.3,0.6-0.7,1.3-1,1.9s-0.2,1.1,0.7,1c1.8-0.2,3.7-0.3,5.5-0.7c5.7-1.1,11.4-2.2,17-3.3l0,0c0.6-0.2,1.2-0.5,1.7-0.9
			c1.1-0.9,2.2-1.9,3.3-2.8c3.4-3,6.7-6,10-8.9l0,0c0.6-0.6,1-1.4,1-2.2C242.1,351.8,242.1,350.4,242.1,349.1L242.1,349.1z
			 M268.6,341.6v-10.5c0-1.9-0.5-2.5-2.3-3.1l0,0c-2.3-0.7-4.7-1.1-7.1-1.2l0,0c-4-0.3-8-0.1-11.9,0.8l0,0c-1.2,0.2-2.3,0.7-3.1,1.6
			l0,0c-0.3,0.4-0.5,0.8-0.5,1.3v20.7c0,2.4,0.6,3.3,3,4l0,0c3.1,0.9,6.3,1.4,9.6,1.2c3.5,0.1,7.1-0.4,10.4-1.6c1.6-0.6,2-1.1,2-2.8
			L268.6,341.6z M311,311.1c-1.2,0.2-2.2,0.4-3.1,0.6l-9.4,2.6c-5.1,1.4-10.1,2.8-15.2,4.3l0,0c-0.9,0.3-1.7,0.7-2.4,1.4
			c-1.7,1.5-3.3,3-5,4.5c-1.5,1.4-3,2.6-4.5,4.1l0,0c-0.5,0.5-0.7,1.2-0.8,1.8c-0.1,2.8,0,5.5,0,8.3c0,1.3,0.4,1.7,1.7,1.7h22
			c0.8,0,1.5-0.4,1.9-1.1c0.6-1.1,1.2-2.2,1.8-3.3c1.1-2.1,2.2-4.4,3.4-6.5L311,311.1z M229.6,340.4H240c1.4,0,1.8-0.4,2-1.7l0,0
			c0-0.3,0-0.7,0-1c0-2.3-0.1-4.7,0-7l0,0c0.1-1.4-0.6-2.8-1.7-3.7c-2.3-2-4.4-4.2-6.7-6.2l0,0c-1-0.9-2.2-1.7-3.5-2.3l0,0
			c-1.5-0.5-3.1-1-4.7-1.4c-4.6-1.3-9.2-2.6-13.8-3.8c-2.6-0.7-5.2-1.4-7.9-2.1l0,0c-0.4,0-0.7,0-1.1,0l0,0c0,0.3,0.1,0.7,0.2,1
			c0.5,1,1.1,2,1.6,3c0.9,1.6,1.8,3.3,2.6,4.9c3.3,6.3,6.7,12.6,10,18.9l0,0c0.4,0.9,1.3,1.5,2.2,1.4
			C222.7,340.4,226.1,340.4,229.6,340.4L229.6,340.4z M311.1,368.6l0.3-0.1c0-0.4,0-0.8-0.1-1.1l-1.6-9.9c-0.6-3.8-1.3-7.5-1.7-11.3
			l0,0c-0.3-2-0.4-3.9-0.3-5.9c0.2-2,0.4-4,0.8-6c0.3-2.4,0.7-4.7,1-7c0.7-4.1,1.4-8.2,2.1-12.2l0,0c0-0.3,0-0.5,0-0.8
			c-0.2,0.2-0.3,0.2-0.3,0.3l-4.5,8.7c-3,5.7-5.9,11.3-8.9,17l0,0c-0.6,1-0.6,2.3,0.1,3.3c0.6,1.1,1.2,2.3,1.8,3.4l4.3,8.2
			c1.4,2.7,2.9,5.4,4.3,8.2c0.7,1.4,1.4,2.9,2.1,4.4l0,0C310.7,367.8,310.9,368.2,311.1,368.6L311.1,368.6z M202.5,315.2l-0.3,0.1
			c0,0.4,0,0.9,0.1,1.3l1.8,11.7c0.6,3.7,1.2,7.5,1.8,11.2l0,0c0.2,1.4,0.2,2.8,0,4.3c-0.2,2-0.6,3.9-0.9,5.9
			c-0.3,2.1-0.6,4.4-0.9,6.5c-0.6,3.5-1.3,7-1.9,10.4l0,0c-0.1,0.5-0.1,1-0.1,1.4l0.2,0.1c0.2-0.3,0.3-0.5,0.5-0.8
			c0.9-1.8,1.8-3.6,2.8-5.4c0.6-1.1,1.3-2.1,1.9-3.2c1-1.7,1.9-3.5,2.8-5.3l5.5-10.6l0,0c0.4-0.8,0.4-1.7,0-2.5
			c-1.8-3.5-3.6-7.1-5.5-10.6c-2.4-4.5-4.8-9-7.2-13.6L202.5,315.2z"/>
		<g id="Bal">
			
				<linearGradient id="SVGID_1_" gradientUnits="userSpaceOnUse" x1="137.0858" y1="-235.6602" x2="212.2747" y2="-235.6602" gradientTransform="matrix(1 0 0 -1 0 -38.1102)">
				<stop  offset="6.051233e-07" style="stop-color:#FFFBBB"/>
				<stop  offset="0.25" style="stop-color:#E8BD5F"/>
				<stop  offset="0.5" style="stop-color:#F9E9A1"/>
				<stop  offset="0.75" style="stop-color:#E3BB69"/>
				<stop  offset="1" style="stop-color:#F3DC91"/>
			</linearGradient>
			<path class="st9" d="M192,194.8l1.8,0.8c1.8,0.9,3.6,1.7,5.4,2.6l0,0c2.6,1.4,5,3.2,7,5.4l0,0c1.9,2,3.4,4.4,4.4,7.1
				c0.5,1.3,1,2.7,1.4,4l0,0c0.2,0.9,0.3,1.9,0.4,2.9c0,2.3,0.1,4.5,0,6.8l0,0c-0.1,1-0.3,2-0.6,3l0,0c-0.4,1.9-1.2,3.8-2.1,5.5l0,0
				c-1.5,2.8-3.5,5.2-5.9,7.2l0,0c-2.2,1.9-4.7,3.6-7.4,4.8l0,0c-1.7,0.8-3.5,1.5-5.3,2.1c-1.9,0.6-3.8,1.1-5.7,1.5l0,0
				c-1.1,0.2-2.2,0.4-3.3,0.5c-2.4,0.3-4.8,0.7-7.2,0.8c-3.6,0.2-7.2,0.4-10.8,0.4c-8.5,0-17.1,0-25.6,0c-1.1,0-1.2-0.1-1.2-1.2
				v-3.3c0-0.7,0.2-1,1-1h5.6c8.6,0,17.1,0,25.7,0l0,0c1.9,0,3.7-0.1,5.5-0.3l0,0c2.2-0.2,4.4-0.6,6.5-1c2.5-0.5,4.9-1.3,7.3-1.9
				l0,0c2.6-0.7,5.1-1.7,7.4-3.1l0,0c3-1.7,5.5-4.2,7.2-7.3l0,0c0.9-1.7,1.7-3.6,2.2-5.5l0,0c0.1-0.5,0.2-1,0.2-1.4l0,0
				c0.2-1.4,0.3-2.8,0.3-4.3l0,0c-0.2-1.9-0.5-3.8-0.9-5.6l0,0c-0.8-3-2.4-5.7-4.6-7.9l0,0c-1.9-1.9-4.2-3.5-6.6-4.7l0,0
				c-2.6-1.2-5.3-2.2-8.1-3c-1.6-0.5-3.1-1-4.7-1.5c-0.9-0.3-1.9-0.6-2.8-0.9c-0.2-0.1-0.6-0.3-0.6-0.5l0,0c0-0.3,0.2-0.5,0.4-0.7
				c1.1-0.6,2.3-1.1,3.4-1.7c3.4-1.7,7-3.1,10.1-5.3l0,0c2.5-1.6,4.5-3.9,5.8-6.7l0,0c0.5-1.4,1-2.7,1.4-4.1l0,0
				c0.7-2.6,0.8-5.4,0.3-8.1l0,0c-0.7-4.4-3-8.4-6.5-11.1l0,0c-2.6-2-5.4-3.5-8.5-4.5c-2.2-0.7-4.4-1.3-6.6-1.8l0,0
				c-3.7-0.7-7.4-1.2-11.2-1.4c-7.4-0.5-14.8-0.1-22.3-0.3c-0.5,0-0.8,0.1-0.7,0.7l0,0c0,0.2,0,0.3,0,0.5v82.6
				c0,0.6-0.2,0.9-0.8,0.9h-4.9c-0.2,0-0.5-0.4-0.5-0.6c-0.1-0.8,0-1.6,0-2.5v-85.6c0-1.2,0-1.2,1.3-1.2c9.1,0,18.2,0,27.3,0.1l0,0
				c2.4,0,4.7,0.2,7.1,0.5l0,0c2.5,0.3,5,0.8,7.4,1.3c2.1,0.5,4.2,1.3,6.4,1.9l0,0c2.3,0.7,4.6,1.7,6.7,3l0,0c3,1.7,5.7,4,7.8,6.6
				l0,0c1.3,1.7,2.4,3.6,3.2,5.6l0,0c0.9,2.5,1.4,5.1,1.5,7.7l0,0c0.1,2.2,0,4.4-0.4,6.5l0,0c-0.5,2.8-1.6,5.5-3.1,7.9l0,0
				C199.6,189.8,196.1,192.8,192,194.8z"/>
			
				<linearGradient id="SVGID_2_" gradientUnits="userSpaceOnUse" x1="223.7474" y1="-235.8602" x2="313.6825" y2="-235.8602" gradientTransform="matrix(1 0 0 -1 0 -38.1102)">
				<stop  offset="6.051233e-07" style="stop-color:#FFFBBB"/>
				<stop  offset="0.25" style="stop-color:#E8BD5F"/>
				<stop  offset="0.5" style="stop-color:#F9E9A1"/>
				<stop  offset="0.75" style="stop-color:#E3BB69"/>
				<stop  offset="1" style="stop-color:#F3DC91"/>
			</linearGradient>
			<path class="st10" d="M304.8,244.9L304.8,244.9c0-0.2,0-0.3-0.1-0.5c-0.8-1.7-1.5-3.4-2.3-5.1c-0.5-1-0.8-2.1-1.2-3.2
				c-0.4-0.9-0.8-1.8-1.2-2.7c-0.6-1.4-1.3-2.9-1.9-4.3c-0.9-2.2-1.8-4.4-2.8-6.6c-0.6-1.5-1.4-3-2-4.5c-0.5-1.1-0.9-2.3-1.4-3.4
				c-0.7-1.8-1.5-3.6-2.3-5.5s-1.6-3.7-2.4-5.6c-1.1-2.6-2.1-5.1-3.2-7.6c-0.6-1.5-1.4-3-2-4.4c-0.9-2.1-1.7-4.2-2.6-6.2
				s-1.9-4.4-2.8-6.6c-0.8-1.9-1.6-3.9-2.5-5.8c-0.6-1.4-1.2-2.7-1.9-4.1c-0.8-1.9-1.7-3.9-2.5-5.8c-0.3-0.6-0.4-1.2-0.7-1.8l0,0
				c-0.2-0.4-0.4-0.7-0.7-1.1l-0.9,2.1c-0.7,1.6-1.4,3.2-2,4.8s-1.3,3.2-2,4.8c-0.4,1-0.9,1.9-1.3,2.9c-0.8,1.9-1.6,3.7-2.4,5.6
				c-0.9,2.2-1.8,4.3-2.8,6.4c-0.6,1.5-1.4,3.1-2,4.6c-0.5,1.2-1,2.4-1.5,3.5c-0.8,1.9-1.6,3.8-2.4,5.7c-1.1,2.7-2.3,5.4-3.5,8
				c-1,2.3-1.9,4.6-2.8,6.8c-0.8,1.9-1.6,3.7-2.4,5.6c-0.5,1.2-1,2.5-1.5,3.7s-1,2.4-1.5,3.5c-0.7,1.7-1.4,3.3-2.2,5
				c-0.7,1.7-1.4,3.3-2.1,4.9c-0.5,1.3-1,2.5-1.6,3.8c-0.8,1.9-1.7,3.9-2.5,5.8c-0.3,0.6-0.5,1.3-0.8,1.9l0,0
				c-0.2,0.6-0.8,0.9-1.4,0.9h-4.5c-1,0-1.3-0.5-0.9-1.4c0.6-1.4,1.3-2.9,1.9-4.3c1.1-2.4,2.1-4.8,3.1-7.2c0.7-1.7,1.4-3.4,2.1-5
				c0.9-2.2,1.9-4.4,2.8-6.6c0.8-2,1.6-4,2.5-6.1c0.5-1.2,1.1-2.3,1.6-3.5s1-2.5,1.5-3.8c0.6-1.5,1.2-3.1,1.8-4.6
				c0.5-1.1,1-2.1,1.5-3.2c0.9-2.1,1.7-4.2,2.6-6.2c0.6-1.5,1.4-3,2-4.6s1.2-3.1,1.9-4.6c0.6-1.5,1.4-3,2-4.5
				c0.9-2.1,1.7-4.2,2.6-6.3c0.7-1.6,1.5-3.2,2.2-4.9c0.6-1.5,1.2-3,1.9-4.5c0.5-1.2,1.1-2.4,1.5-3.6c0.8-1.9,1.5-3.8,2.3-5.7
				c0.4-1.1,1-2.1,1.5-3.2c1-2.4,2-4.9,3.1-7.3c0.5-1.3,1.1-2.5,1.7-3.7l0,0c0.1-0.3,0.4-0.4,0.7-0.5l0,0c0.3,0.1,0.5,0.3,0.6,0.5
				c0.8,1.7,1.6,3.4,2.3,5.1c1,2.4,1.9,4.8,2.9,7.2c0.6,1.5,1.3,3,2,4.4c0.9,2,1.7,4.1,2.5,6.1c0.5,1.1,1,2.2,1.5,3.3
				s0.9,2.1,1.3,3.2s1,2.2,1.4,3.3c0.7,1.7,1.4,3.4,2.1,5.1c0.5,1.1,1,2.3,1.6,3.4c0.2,0.4,0.3,0.8,0.5,1.2c0.4,0.8,0.7,1.7,1.1,2.5
				c0.5,1.2,0.9,2.4,1.4,3.6s1,2.2,1.5,3.4s0.9,2.2,1.4,3.3c0.6,1.3,1.2,2.6,1.8,4c0.9,2.2,1.8,4.4,2.7,6.6c0.5,1.1,1,2.2,1.5,3.3
				s1,2.4,1.5,3.6l2,4.6c0.7,1.6,1.3,3.1,2,4.6c0.7,1.6,1.4,3.2,2.1,4.8s1.4,3.4,2.1,5.1c0.6,1.4,1.3,2.9,1.9,4.3
				c0.4,0.9,0.8,1.8,1.1,2.7c0.3,0.9,0.8,2,1.2,3c0.3,0.7,0.6,1.4,0.9,2.1c0.2,0.5-0.1,0.7-0.5,0.9l0,0c-0.3,0.1-0.5,0.1-0.8,0.1
				h-70.5c-0.7,0-1-0.3-1-1c0-1.2,0-2.4,0-3.6c0-0.5,0.2-0.8,0.8-0.8h62C304,245,304.4,244.9,304.8,244.9z"/>
			
				<linearGradient id="SVGID_3_" gradientUnits="userSpaceOnUse" x1="315.8456" y1="-193.2104" x2="356.5814" y2="-263.7668" gradientTransform="matrix(1 0 0 -1 0 -38.1102)">
				<stop  offset="1.936395e-07" style="stop-color:#E8BD5F"/>
				<stop  offset="1" style="stop-color:#FFFBBB"/>
			</linearGradient>
			<path class="st11" d="M339.4,190.5v44.1c0,1.2,0,1.2-1.2,1.2h-4.1c-1,0-1.1-0.1-1.1-1.1v-88.6c0-1,0.1-1.2,1.1-1.2h4.3
				c0.9,0,1,0.2,1,1L339.4,190.5L339.4,190.5z"/>
			
				<linearGradient id="SVGID_4_" gradientUnits="userSpaceOnUse" x1="332.9836" y1="-285.8102" x2="406.9924" y2="-285.8102" gradientTransform="matrix(1 0 0 -1 0 -38.1102)">
				<stop  offset="6.051233e-07" style="stop-color:#FFFBBB"/>
				<stop  offset="0.25" style="stop-color:#E8BD5F"/>
				<stop  offset="0.5" style="stop-color:#F9E9A1"/>
				<stop  offset="0.75" style="stop-color:#E3BB69"/>
				<stop  offset="1" style="stop-color:#F3DC91"/>
			</linearGradient>
			<path class="st12" d="M370,245h36c0.7,0,1,0.3,1,1v3.2c0,1.1-0.2,1.2-1.2,1.2h-71.1c-0.2,0-0.5,0-0.7,0c-0.5-0.1-1-0.3-0.9-1.1
				c0.1-1.1,0-2.3,0-3.4l0,0c-0.1-0.4,0.2-0.8,0.7-0.9l0,0H370L370,245z"/>
		</g>
	</g>
</g>
</svg>
