<?xml version="1.0" encoding="UTF-8"?><svg width="567" height="567" version="1.1" viewBox="0 0 567 567" xmlns="http://www.w3.org/2000/svg" xmlns:xlink="http://www.w3.org/1999/xlink"><!--Generated by IJSVG (https://github.com/curthard89/IJSVG)--><g transform="scale(1.00012)"><g fill="#FFFFFF"><path d="M336.304,0.08v407.35l-5.07169e-08,-6.53616e-08c-0.267491,-0.34473 -0.446072,-0.749971 -0.52,-1.18c-7.86,-22.6267 -15.7033,-45.26 -23.53,-67.9l4.1006e-08,2.16103e-07c-0.151643,-0.799166 -0.919814,-1.32617 -1.72,-1.18c-103.04,0 -206.077,0 -309.11,0c-1.41,0 -1.41,0 -1.41,-1.36c0,-90.24 0,-180.483 0,-270.73l-2.11962e-07,-7.78747e-06c-0.0138959,-0.510539 0.00280081,-1.02145 0.0500003,-1.52999l9.08776e-08,-7.83328e-07c1.20491,-10.3858 4.45766,-20.4296 9.57,-29.55c6.93,-12.3 16.76,-21.29 30.06,-26.38l2.15946e-06,-8.32507e-07c12.7629,-4.9203 26.3215,-7.45238 40,-7.47c85.5267,-0.126667 171.063,-0.15 256.61,-0.07Zm-112.93,226.88h-0.16v-1.07c0,-22.6333 0,-45.2633 0,-67.89c0,-0.88 -0.19,-1.12 -1.1,-1.12c-9.05333,0.04 -18.1067,0.04 -27.16,0c-1,0 -1.23,0.19 -1.22,1.2c0.0333333,17.2533 0.0333333,34.5067 0,51.76c0,0.32 0.18,0.81 -0.13,0.92c-0.31,0.11 -0.53,-0.42 -0.72,-0.69l4.37744e-07,6.43658e-07c-3.01575,-4.43436 -7.09283,-8.04391 -11.86,-10.5c-9.35,-4.89 -19.25,-5.72 -29.43,-3.69c-13,2.59 -22.51,10 -29.18,21.29l-1.8547e-06,3.20571e-06c-1.72703,2.98504 -3.18607,6.11729 -4.35999,9.35998c-0.54,-1.38 -1,-2.61 -1.5,-3.82c-3.64,-8.7 -9.09,-16 -17.05,-21.19l-1.58964e-06,-1.04469e-06c-8.41094,-5.52752 -18.5713,-7.74342 -28.52,-6.22c-11,1.46 -20.45,5.79 -27.08,15.12c-0.13,0.18 -0.21,0.49 -0.52,0.36c-0.31,-0.13 -0.11,-0.36 -0.12,-0.54c-0.01,-0.18 0,-0.48 0,-0.71c0,-17.1867 0,-34.3733 0,-51.56c0,-0.79 -0.11,-1.09 -1,-1.09c-9.15333,0.04 -18.3067,0.04 -27.46,0c-0.75,0 -1,0.16 -1,0.94c0,48.6667 0,97.3333 0,146c0,0.73 0.12,1 0.92,1c8.71333,-0.0333333 17.4267,-0.0333333 26.14,0c0.76,0 1,-0.18 1,-0.94c0,-3.95 0,-7.89 0,-11.84c0,-0.3 -0.18,-0.67 0.17,-0.91c0.09,0 0.17,0.06 0.2,0.1l7.86175e-08,1.02472e-07c0.0823004,0.107272 0.155869,0.22097 0.22,0.339999l6.59286e-08,1.14116e-07c3.35975,5.81539 8.63816,10.2806 14.93,12.63l8.29724e-07,3.15399e-07c6.39697,2.43165 13.2092,3.58344 20.05,3.39l1.90578e-06,7.21451e-09c10.7025,0.0405147 20.9748,-4.20961 28.52,-11.8l2.49252e-06,-2.48759e-06c5.3835,-5.37286 9.43486,-11.9311 11.83,-19.15c0.13,-0.36 0.14,-0.78 0.53,-1.07l-4.49436e-06,-1.24066e-05c1.18525,3.27186 2.65416,6.43387 4.38998,9.44997c5.28,9 12.53,15.83 22.41,19.59l3.47953e-06,1.2992e-06c7.93681,2.96347 16.5119,3.79443 24.87,2.41c10.51,-1.59 19,-6.41 24.68,-15.66c0.1,-0.16 0.21,-0.37 0.54,-0.19c0,4.17 0,8.39 0,12.6c0,0.82 0.23,1 1,1c8.66667,0 17.3333,0 26,0c0.8,0 1,-0.2 1,-1c0,-8.71 0,-17.42 0,-26.14v-1.17l6.26886e-08,6.02971e-08c0.0782939,0.0753071 0.151772,0.155465 0.22,0.24c0.11,0.21 0.22,0.42 0.31,0.63c6.23,14 16.66,23.27 31.29,27.7l3.21183e-06,9.4505e-07c10.489,3.08627 21.5851,3.4886 32.27,1.17004l3.91578e-06,-7.32723e-07c8.02478,-1.5016 15.4789,-5.19058 21.54,-10.66c7,-6.39 11.43,-14.41 14.45,-23.28c0.27,-0.78 -0.07,-0.75 -0.63,-0.75c-8.1,0 -16.2,0 -24.3,0l2.8386e-08,3.84125e-09c-0.464814,-0.0628999 -0.900003,0.241732 -1,0.7l3.93907e-07,-1.11172e-06c-0.579706,1.6361 -1.47688,3.14158 -2.64,4.43l2.62583e-07,-3.04174e-07c-2.2036,2.55263 -4.93247,4.59928 -8,6c-6.88,3.24 -14,3.47 -21.29,1.67c-7.29,-1.8 -12.17,-6.31 -14.85,-13.28l-7.67682e-07,-2.0976e-06c-1.33114,-3.6372 -2.11306,-7.45239 -2.32,-11.32c-0.1,-1.34 -0.13,-1.33 1.16,-1.33c24.9467,0 49.89,0 74.83,0c1,0 1.26,-0.25 1.28,-1.22l3.20459e-06,-0.000111257c0.134294,-4.66249 -0.0762879,-9.32852 -0.630024,-13.96l8.69746e-07,7.49261e-06c-0.964771,-8.31123 -3.55747,-16.351 -7.63,-23.66c-6.12,-10.73 -14.91,-18.32 -26.74,-22.15l3.11903e-06,9.94723e-07c-8.7867,-2.80226 -18.1279,-3.39982 -27.2,-1.74c-16.91,2.91 -29.55,11.88 -37.82,27c-0.810004,1.40007 -1.42,2.87007 -2.13,4.31007Z" transform="translate(115.306, 70.8)"></path><path d="M51.08,53.7447v-1.23c0,-17.08 0,-34.16 0,-51.24c0,-0.88 0.15,-1.19 1.13,-1.18c4.83,0.06 9.66,0 14.49,0c0.69,0 0.92,0.14 0.92,0.88c0,26.1 0,52.1967 0,78.29c0,0.72 -0.2,0.9 -0.91,0.9c-5.27333,0 -10.5467,0 -15.82,0l1.04625e-08,-1.02341e-09c-0.599547,0.0586488 -1.1742,-0.254436 -1.45,-0.79c-8.89333,-14.3867 -17.8033,-28.7667 -26.73,-43.14c-1.86,-3 -3.72333,-6 -5.59,-9c-0.12,-0.19 -0.17,-0.44 -0.56,-0.53v1.19c0,16.98 0,33.9567 0,50.93c0,1.32 0,1.32 -1.37,1.32c-4.73,0 -9.46,0 -14.19,0c-0.72,0 -1,-0.12 -1,-0.92c0,-26.06 0,-52.1233 0,-78.19c0,-0.73 0.13,-1 0.93,-1c5.27333,0.04 10.5467,0.04 15.82,0l-2.57927e-08,1.66608e-09c0.537225,-0.0347021 1.04099,0.262795 1.27,0.75c10.76,17.3333 21.53,34.6667 32.31,52l-1.72188e-08,-5.8235e-08c0.119302,0.403486 0.387371,0.746614 0.75,0.96Z" transform="translate(238.61, 413.995)"></path><path d="M8.55438,56.4419h7.14c1.37,0 1.34,0 1.43,1.35l-5.38858e-07,-2.33273e-05c0.112138,4.8547 2.95759,9.22936 7.34998,11.3l-1.23945e-06,-6.14288e-07c1.92283,0.952977 3.99127,1.57824 6.12002,1.85001l-2.62657e-06,-4.19428e-07c4.39333,0.701554 8.89171,0.313526 13.1,-1.13l-4.73486e-07,1.406e-07c2.40846,-0.715186 4.45167,-2.32542 5.71,-4.5l4.02156e-07,-7.32447e-07c1.99289,-3.62966 0.886707,-8.18021 -2.55,-10.49l8.44534e-08,5.52524e-08c-2.70519,-1.76983 -5.70095,-3.04938 -8.85,-3.78c-5.58,-1.58 -11.3,-2.68 -16.82,-4.49l-1.06721e-06,-3.23212e-07c-3.51277,-1.06387 -6.85876,-2.61568 -9.94,-4.61c-5.57,-3.78 -8.27,-9.08 -8.46,-15.76c-0.31,-10.76 5.92,-18.22 15.13,-22.11l3.79908e-06,-1.44254e-06c10.7237,-4.0719 22.6153,-3.78475 33.13,0.800003c9,4.31 13.42,11.52 13.72,21.4c0,0.63 -0.21,0.72 -0.75,0.71c-5.20667,0 -10.4133,0 -15.62,0c-0.54,0 -0.74,-0.13 -0.8,-0.72c-0.63,-6.12 -3.7,-9.56 -9.73,-10.79c-4.22,-0.86 -8.45,-1 -12.54,0.67l2.90043e-07,-1.02256e-07c-3.96916,1.39934 -6.24874,5.56205 -5.29,9.66l-1.03717e-07,-4.93961e-07c0.362196,1.72498 1.50867,3.18211 3.1,3.94l-3.23894e-06,-1.69187e-06c2.28987,1.19612 4.71808,2.10628 7.23,2.71c6.13,1.66 12.28,3.22 18.4,4.91l-1.33675e-06,-3.71458e-07c3.15179,0.875826 6.15256,2.22449 8.9,4c5.74,3.68 9.13,8.86 9.67,15.7c0.62,7.92 -1.74,14.77 -7.81,20.11l-1.66412e-07,1.41329e-07c-4.0047,3.40109 -8.8324,5.6908 -14,6.64l4.73115e-06,-1.06979e-06c-8.67048,1.96054 -17.7066,1.57743 -26.18,-1.11c-6.13,-2 -11.36,-5.35 -15,-10.8l-1.81357e-06,-2.75494e-06c-2.85985,-4.34432 -4.34438,-9.44954 -4.26,-14.65c0,-0.64 0.19,-0.8 0.8,-0.79c2.5,3.77323e-07 5.09,-0.0199996 7.67,-0.0199996Z" transform="translate(310.306, 411.058)"></path><path d="M0,80.1156c1.19,-3.16 2.35,-6.26 3.53,-9.36c8.81333,-23.2133 17.6167,-46.43 26.41,-69.65l-6.27267e-10,3.06261e-09c0.136054,-0.664316 0.770005,-1.10456 1.44,-1c5.33333,0.04 10.6667,0.04 16,0l-1.31355e-07,2.16986e-08c0.639467,-0.105634 1.24991,0.307187 1.39,0.94c9.72,26.0667 19.4533,52.1233 29.2,78.17c0.26,0.69 0.34,1 -0.61,1c-5.51,0 -11,0 -16.53,0l1.32737e-08,-1.93796e-09c-0.536719,0.0783627 -1.03806,-0.28544 -1.13,-0.82c-1.8,-5.37 -3.64,-10.73 -5.44,-16.1l-3.02907e-08,-1.8946e-07c-0.0921703,-0.576498 -0.633149,-0.969937 -1.21,-0.88c-9.33333,0 -18.69,0 -28.07,0l9.09495e-08,1.33148e-08c-0.571117,-0.0836106 -1.10264,0.309446 -1.19,0.88c-1.87,5.38 -3.78,10.75 -5.67,16.13c-0.16,0.47 -0.29,0.8 -0.94,0.8c-5.58,0 -11.16,0 -16.74,0c-0.11,-0.0599998 -0.24,-0.0799998 -0.44,-0.11Zm39.23,-60.36c-0.16,0.37 -0.21,0.46 -0.24,0.55c-3.33333,9.4 -6.66667,18.7967 -10,28.19c-0.27,0.77 0,0.81 0.63,0.81c6.23,0 12.45,0 18.68,0c1,0 1,-0.23 0.74,-1.07c-2.63,-7.6 -5.23,-15.21 -7.83,-22.82c-0.64,-1.79 -1.27,-3.6 -1.98,-5.66Z" transform="translate(373, 413.984)"></path><path d="M17.64,40.11c0,12.9667 0,25.93 0,38.89c0,1 -0.29,1.14 -1.18,1.13c-5.17333,-0.04 -10.3467,-0.04 -15.52,0c-0.78,0 -0.94,-0.2 -0.94,-1c0,-26.0667 0,-52.1333 0,-78.2c0,-0.81 0.25,-0.93 1,-0.92c5.24,0 10.48,0 15.72,0c0.78,0 0.94,0.21 0.94,1c-0.0266667,13.0333 -0.0333333,26.0667 -0.02,39.1Z" transform="translate(212.02, 414.04)"></path><path d="M52.0689,34.3088c-0.09,6.83 -0.77,13.56 -3.45,19.93c-2.9,6.9 -7.62,11.91 -15.1,13.64c-8.78,2 -16.84,0.65 -23.39,-6.06l-1.09299e-06,-1.16765e-06c-3.87423,-4.13885 -6.54673,-9.25567 -7.73,-14.8l-2.62617e-06,-1.04838e-05c-2.39893,-9.57666 -2.10477,-19.63 0.850006,-29.05l-5.00191e-07,1.68128e-06c1.13706,-3.822 3.10386,-7.34585 5.76,-10.32l-4.24417e-07,4.67312e-07c3.95574,-4.35555 9.49133,-6.94507 15.37,-7.19l4.94897e-07,-5.06357e-08c4.48365,-0.458747 9.00901,0.272484 13.12,2.12c5.73,2.73 9.24,7.4 11.51,13.16l4.44154e-07,1.17737e-06c1.64358,4.35683 2.60816,8.94027 2.86,13.59c0.0800024,1.65002 0.240002,3.31002 0.200002,4.98002Zm-32.12,14.36l-1.777e-07,6.09243e-06c0.074478,-2.55346 -0.431565,-5.09052 -1.48,-7.42c-0.62,-1.26 -1.39,-2.53 -3,-2.53c-1.61,0 -2.47,1.23 -3,2.52l7.63533e-07,-1.7173e-06c-2.05495,4.62188 -2.05495,9.89812 -1.52707e-06,14.52c0.55,1.29 1.38,2.53 3,2.54c1.62,0.01 2.45,-1.31 3.08,-2.6l1.79889e-07,-4.09926e-07c0.971532,-2.2139 1.44927,-4.61282 1.4,-7.03Z" transform="translate(258.051, 287.501)"></path><path d="M0.0129757,35.38c0.11,-6.5 1.13,-13.65 4.49,-20.29c3,-5.91 7.35,-10.41 13.91,-12.16c10.95,-2.93 21.68,0.89 27.34,12.56l-3.23347e-07,-6.94971e-07c2.41002,5.17987 3.80194,10.7747 4.1,16.48l5.76534e-07,6.64554e-06c0.597721,6.88977 -0.173762,13.8297 -2.27,20.42c-1.84,5.56 -4.72,10.46 -9.56,14l6.78268e-07,-4.80912e-07c-4.19731,2.97602 -9.31341,4.36842 -14.44,3.93c-8.53,-0.48 -14.58,-4.82 -18.64,-12.15l8.22413e-07,1.55886e-06c-2.49636,-4.73177 -4.02928,-9.91174 -4.51,-15.24l-3.1153e-06,-2.66689e-05c-0.292716,-2.50584 -0.432973,-5.02714 -0.419998,-7.54998Zm41.58,14.69l-4.67429e-07,2.47273e-05c0.0468826,-2.48002 -0.4694,-4.93837 -1.50999,-7.19c-0.63,-1.24 -1.37,-2.46 -2.94,-2.5c-1.57,-0.04 -2.41,1.21 -3.06,2.47l-7.31048e-07,1.49777e-06c-0.956622,1.95992 -1.46232,4.10915 -1.48,6.29l-2.38523e-07,2.48832e-06c-0.296736,3.09561 0.32958,6.20979 1.8,8.95c1.53,2.58 3.84,2.54 5.38,0l1.66711e-07,-2.9067e-07c0.268882,-0.46881 0.502849,-0.956798 0.7,-1.46l3.7528e-07,-1.01341e-06c0.776929,-2.09803 1.15343,-4.32318 1.10999,-6.56003Z" transform="translate(157.567, 285.85)"></path><path d="M23.92,22.9695h-22.46c-1.45,0 -1.46,0 -1.3,-1.46l-2.99901e-07,2.99375e-06c0.435182,-4.34419 2.00044,-8.49867 4.54,-12.05c3.79,-5.29 9.07,-8.05 15.41,-8.91l-2.31002e-06,3.36104e-07c3.77681,-0.549519 7.62314,-0.386712 11.34,0.479999l3.8658e-07,8.94466e-08c5.72703,1.32512 10.4976,5.26606 12.88,10.64l-7.12231e-07,-1.54017e-06c1.55276,3.35779 2.67175,6.89959 3.33,10.54c0.15,0.75 -0.1,0.77 -0.68,0.77c-3.47,0 -6.94,0 -10.41,0Z" transform="translate(363.41, 287.59)"></path></g></g></svg>