<svg xmlns="http://www.w3.org/2000/svg" viewBox="0 0 94.89 120"><defs><style>.cls-1{fill:#e30613;}</style></defs><title>BdE_taille_signature</title><g id="Calque_2" data-name="Calque 2"><g id="Calque_1-2" data-name="Calque 1"><path class="cls-1" d="M94.89,0V115h0a.79.79,0,0,1-.14-.34Q91.42,105,88.11,95.46h0a.43.43,0,0,0-.49-.33H.4c-.4,0-.4,0-.4-.38V18.35H0a3.17,3.17,0,0,1,0-.43H0a22.23,22.23,0,0,1,2.7-8.34A16.14,16.14,0,0,1,11.2,2.14h0A31.56,31.56,0,0,1,22.48,0Q58.69,0,94.89,0ZM63,64H63V44.57c0-.24,0-.31-.31-.31-2.55,0-5.11,0-7.66,0-.28,0-.35.05-.35.34q0,7.31,0,14.6c0,.09.05.23,0,.26s-.15-.12-.21-.19h0a9.18,9.18,0,0,0-3.34-3,12.27,12.27,0,0,0-8.31-1,12,12,0,0,0-8.23,6h0a16.23,16.23,0,0,0-1.23,2.64c-.15-.39-.28-.74-.42-1.08a12.86,12.86,0,0,0-4.82-6h0a11.47,11.47,0,0,0-8-1.75,10.49,10.49,0,0,0-7.64,4.27c0,.05-.06.13-.15.1s0-.1,0-.16a1.33,1.33,0,0,1,0-.2V44.57c0-.23,0-.31-.29-.31q-3.87,0-7.75,0c-.21,0-.28,0-.28.26v41.2c0,.21,0,.28.26.28q3.69,0,7.38,0c.21,0,.28,0,.28-.26V82.4c0-.09-.05-.19,0-.26s.05,0,.05,0h0l.07.09h0a8.16,8.16,0,0,0,4.21,3.57h0a14.75,14.75,0,0,0,5.66,1h0a11.19,11.19,0,0,0,8-3.33h0a13.6,13.6,0,0,0,3.34-5.4c0-.1,0-.22.15-.3h0a17.94,17.94,0,0,0,1.24,2.67,12.32,12.32,0,0,0,6.32,5.52h0a13.65,13.65,0,0,0,7,.68,9.37,9.37,0,0,0,7-4.42.1.1,0,0,1,.15,0v3.56c0,.23.06.28.28.28H62.7c.22,0,.28-.06.28-.28V78h0l.06.07.09.18A13.57,13.57,0,0,0,72,86.06h0a18.34,18.34,0,0,0,9.1.33h0a12.4,12.4,0,0,0,6.08-3,15.22,15.22,0,0,0,4.08-6.56c.08-.22,0-.22-.18-.22H84.19a.27.27,0,0,0-.29.2h0a3.6,3.6,0,0,1-.74,1.25h0a6.49,6.49,0,0,1-2.26,1.69,8.77,8.77,0,0,1-6,.48,5.79,5.79,0,0,1-4.19-3.75h0a11.25,11.25,0,0,1-.65-3.2c0-.37,0-.37.33-.37H91.49c.28,0,.36-.07.36-.35h0a25.8,25.8,0,0,0-.18-3.93h0a17.89,17.89,0,0,0-2.15-6.68A13.15,13.15,0,0,0,82,55.69h0a15.87,15.87,0,0,0-7.68-.49,14.35,14.35,0,0,0-10.67,7.62c-.23.39-.4.81-.6,1.21Z"/><path class="cls-1" d="M49.2,112V97.19c0-.25,0-.33.32-.33,1.37,0,2.73,0,4.09,0,.2,0,.26,0,.26.25V119.2c0,.2-.06.25-.26.25H49.15a.41.41,0,0,1-.41-.22Q45,113.14,41.2,107.06c-.53-.85-1.05-1.7-1.58-2.54,0-.06,0-.13-.16-.15v14.7c0,.38,0,.38-.38.38h-4c-.2,0-.28,0-.28-.26V97.12c0-.2,0-.28.26-.28h4.47a.39.39,0,0,1,.36.21L49,111.73h0A.51.51,0,0,0,49.2,112Z"/><path class="cls-1" d="M57.44,111.93h2c.39,0,.38,0,.4.38h0a3.65,3.65,0,0,0,2.08,3.19h0a5.44,5.44,0,0,0,1.72.52h0a7.63,7.63,0,0,0,3.7-.32h0A2.72,2.72,0,0,0,69,114.43h0a2.26,2.26,0,0,0-.72-3h0a7.62,7.62,0,0,0-2.49-1.06c-1.58-.45-3.19-.76-4.75-1.27h0a11.21,11.21,0,0,1-2.81-1.3,5.24,5.24,0,0,1-2.38-4.45,6.37,6.37,0,0,1,4.27-6.24h0a12.33,12.33,0,0,1,9.34.23,6.44,6.44,0,0,1,3.88,6c0,.17-.06.2-.22.2h-4.4c-.16,0-.21,0-.23-.21a3.11,3.11,0,0,0-2.74-3,6,6,0,0,0-3.54.19h0a2.33,2.33,0,0,0-1.5,2.72h0a1.6,1.6,0,0,0,.88,1.11h0a8.83,8.83,0,0,0,2,.77c1.73.47,3.46.91,5.19,1.39h0a8.85,8.85,0,0,1,2.51,1.12A5.57,5.57,0,0,1,74,112.1a6.48,6.48,0,0,1-2.2,5.68h0a8.47,8.47,0,0,1-3.95,1.87h0a14,14,0,0,1-7.39-.31,7.77,7.77,0,0,1-4.23-3h0a7.22,7.22,0,0,1-1.2-4.13c0-.18.05-.23.22-.23Z"/><path class="cls-1" d="M72.71,119.43l1-2.64,7.45-19.65h0a.36.36,0,0,1,.41-.28c1.5,0,3,0,4.51,0h0a.34.34,0,0,1,.39.26q4.13,11,8.24,22.06c.08.2.1.28-.17.28H89.88a.27.27,0,0,1-.32-.23L88,114.69h0a.3.3,0,0,0-.34-.25H79.76a.31.31,0,0,0-.34.25c-.52,1.52-1.06,3-1.6,4.55,0,.13-.08.23-.26.23H72.84A.33.33,0,0,0,72.71,119.43Zm11.07-17c0,.11-.06.13-.07.16l-2.82,8c-.07.22,0,.23.18.23h5.27c.28,0,.28-.06.21-.3-.74-2.15-1.48-4.29-2.21-6.44Z"/><path class="cls-1" d="M32.27,108.16v11c0,.28-.09.32-.34.31q-2.19,0-4.38,0c-.22,0-.26,0-.26-.28V97.11c0-.23.07-.27.28-.26H32c.22,0,.26.06.26.28C32.26,100.81,32.26,104.48,32.27,108.16Z"/><path class="cls-1" d="M55,70.82a14.92,14.92,0,0,1-1,5.62,6,6,0,0,1-4.27,3.85,6.56,6.56,0,0,1-6.6-1.71h0A8.89,8.89,0,0,1,41,74.41h0a15.23,15.23,0,0,1,.24-8.2h0a7.62,7.62,0,0,1,1.63-2.91h0a6.2,6.2,0,0,1,4.34-2h0a7.14,7.14,0,0,1,3.7.6,6.53,6.53,0,0,1,3.25,3.71h0a12.89,12.89,0,0,1,.8,3.83c0,.47.07.94.06,1.41Zm-9.06,4.05h0a4.83,4.83,0,0,0-.42-2.09c-.18-.36-.39-.72-.85-.72a1,1,0,0,0-.85.71h0a5,5,0,0,0,0,4.1c.16.37.39.72.85.72s.69-.37.87-.74h0a4.8,4.8,0,0,0,.4-2Z"/><path class="cls-1" d="M11.93,70.66a13,13,0,0,1,1.26-5.73,6.15,6.15,0,0,1,3.93-3.43A6.31,6.31,0,0,1,24.83,65h0A12.5,12.5,0,0,1,26,69.69h0a14.82,14.82,0,0,1-.64,5.77,7.69,7.69,0,0,1-2.7,4h0a6.09,6.09,0,0,1-4.07,1.1,6.11,6.11,0,0,1-5.26-3.42h0A11.45,11.45,0,0,1,12,72.79h0A16.89,16.89,0,0,1,11.93,70.66ZM23.66,74.8h0a4.61,4.61,0,0,0-.43-2c-.18-.35-.38-.69-.83-.7s-.68.34-.86.69h0a4.23,4.23,0,0,0-.42,1.78h0a4.5,4.5,0,0,0,.51,2.52c.43.73,1.08.72,1.52,0h0c.07-.13.14-.27.2-.41h0A5.29,5.29,0,0,0,23.66,74.8Z"/><path class="cls-1" d="M76.76,67.64H70.42c-.41,0-.41,0-.37-.41h0a7.1,7.1,0,0,1,1.28-3.4,6.1,6.1,0,0,1,4.35-2.51h0a8.61,8.61,0,0,1,3.2.13h0a5.27,5.27,0,0,1,3.63,3h0a11.81,11.81,0,0,1,.94,3c0,.21,0,.22-.19.22h-6.5Z"/></g></g></svg>