<svg xmlns="http://www.w3.org/2000/svg" viewBox="0 0 15 15"><defs><style>.cls-1{fill:#1d1d1b;}.cls-2{fill:#e30613;}</style></defs><title>Insta</title><g id="Calque_2" data-name="Calque 2"><g id="Calque_1-2" data-name="Calque 1"><path class="cls-1" d="M10.38,0H4.62A4.62,4.62,0,0,0,0,4.62v5.76A4.62,4.62,0,0,0,4.62,15h5.76A4.62,4.62,0,0,0,15,10.38V4.62A4.62,4.62,0,0,0,10.38,0Zm3.18,9.83a3.73,3.73,0,0,1-3.73,3.73H5.17A3.73,3.73,0,0,1,1.44,9.83V5.17A3.73,3.73,0,0,1,5.17,1.44H9.83a3.73,3.73,0,0,1,3.73,3.73Z"/><path class="cls-2" d="M7.7,3.58a4,4,0,1,0,4,4A3.95,3.95,0,0,0,7.7,3.58Zm0,6.32a2.38,2.38,0,1,1,2.38-2.37A2.38,2.38,0,0,1,7.7,9.9Z"/><path class="cls-2" d="M12.38,3.51a1,1,0,1,1-1-1A1,1,0,0,1,12.38,3.51Z"/></g></g></svg>