<svg xmlns="http://www.w3.org/2000/svg" viewBox="0 0 15 15"><defs><style>.cls-1{fill:#010101;}.cls-2{fill:#e30613;}</style></defs><title>web</title><g id="Calque_2" data-name="Calque 2"><g id="Calque_1-2" data-name="Calque 1"><path class="cls-1" d="M14.85,12.69l-3-3L14,8.47a.5.5,0,0,0-.07-.9L4.43,3.78a.5.5,0,0,0-.65.65l3.79,9.5a.52.52,0,0,0,.43.32A.53.53,0,0,0,8.47,14L9.7,11.87l3,3A.47.47,0,0,0,13,15a.51.51,0,0,0,.36-.15l1.45-1.45A.5.5,0,0,0,14.85,12.69ZM13,13.79,10,10.7a.49.49,0,0,0-.36-.15H9.53a.51.51,0,0,0-.37.25l-1,1.8-3-7.45,7.45,3-1.8,1a.49.49,0,0,0-.1.79L13.79,13Z"/><path class="cls-2" d="M2.2,1.49a.5.5,0,0,0-.71.71L2.61,3.32A.5.5,0,0,0,3,3.46a.54.54,0,0,0,.36-.14.51.51,0,0,0,0-.71Z"/><path class="cls-2" d="M2.58,5a.5.5,0,0,0-.5-.5H.5a.5.5,0,0,0,0,1H2.08A.5.5,0,0,0,2.58,5Z"/><path class="cls-2" d="M2.38,6.51,1.26,7.62a.51.51,0,0,0,0,.71.51.51,0,0,0,.36.15A.5.5,0,0,0,2,8.33L3.09,7.22a.51.51,0,0,0,0-.71A.5.5,0,0,0,2.38,6.51Z"/><path class="cls-2" d="M5,2.58a.5.5,0,0,0,.5-.5V.5a.5.5,0,0,0-1,0V2.08A.5.5,0,0,0,5,2.58Z"/><path class="cls-2" d="M6.86,3.23a.54.54,0,0,0,.36-.14L8.33,2a.5.5,0,0,0,0-.71.51.51,0,0,0-.71,0L6.51,2.38a.5.5,0,0,0,0,.71A.52.52,0,0,0,6.86,3.23Z"/></g></g></svg>