<svg xmlns="http://www.w3.org/2000/svg" viewBox="0 0 12.51 15"><defs><style>.cls-1{fill:#1d1d1b;}.cls-2{fill:#e30613;}</style></defs><title>YT</title><g id="Calque_2" data-name="Calque 2"><g id="Calque_1-2" data-name="Calque 1"><path class="cls-1" d="M5,0,4.47,1.44c-.17.41-.33.82-.49,1.23a.44.44,0,0,0,0,.16V5.72c0,.16,0,.16-.16.16H3.18C3,5.88,3,5.88,3,5.74c0-.91,0-1.81,0-2.72a1.6,1.6,0,0,0-.14-.61C2.58,1.64,2.25.87,1.93.1a.38.38,0,0,1,0-.1h1l.57,2h0L4,0Z"/><path class="cls-2" d="M6.25,15H2.1a2.1,2.1,0,0,1-1.46-.54A1.82,1.82,0,0,1,0,13.07c0-1.48,0-3,0-4.43A1.86,1.86,0,0,1,1.12,6.93a2.11,2.11,0,0,1,1-.22h8.31a2.09,2.09,0,0,1,1.47.55,1.86,1.86,0,0,1,.62,1.44v4.23a2,2,0,0,1,0,.35,1.89,1.89,0,0,1-1,1.46,2.2,2.2,0,0,1-1.07.26ZM7,13.18l.09.06a4,4,0,0,0,.34.22.6.6,0,0,0,.91-.29,1.74,1.74,0,0,0,.14-.78c0-.66,0-1.31,0-2a1.61,1.61,0,0,0,0-.44.63.63,0,0,0-.79-.51,2.72,2.72,0,0,0-.46.21l-.07,0a.29.29,0,0,0,0-.09V8.31c0-.08,0-.12-.11-.11H6.39c-.13,0-.13,0-.13.12v5c0,.16,0,.15.15.15h.45c.08,0,.12,0,.13-.11S7,13.26,7,13.18Zm-2-.11h0c0,.11,0,.23,0,.35s0,.11.11.11h.47c.08,0,.1,0,.1-.11V9.7c0-.09,0-.12-.12-.12H5c-.13,0-.14,0-.14.13,0,.92,0,1.84,0,2.76v.15a.36.36,0,0,1-.3.28c-.12,0-.21-.09-.22-.25s0-.52,0-.78V10.12c0-.15,0-.29,0-.44s0-.09-.07-.09h-.7s-.08,0-.07.07v.11c0,.91,0,1.82,0,2.73,0,.21,0,.43,0,.63a.47.47,0,0,0,.39.42,1.12,1.12,0,0,0,1-.34A.76.76,0,0,0,5,13.07ZM9,11.4h0c0,.27,0,.54,0,.81a1.7,1.7,0,0,0,.23.86,1.08,1.08,0,0,0,1.27.45,1.14,1.14,0,0,0,.69-1.29.1.1,0,0,0-.08-.06h-.49c-.05,0-.08,0-.07.07s0,.23,0,.34a.46.46,0,0,1-.05.2.48.48,0,0,1-.64.12.29.29,0,0,1-.15-.24v-.94c0-.05,0-.07.07-.07h1.3c.06,0,.12,0,.12-.09,0-.5,0-1-.05-1.51a.67.67,0,0,0-.25-.46,1,1,0,0,0-.65-.23,1.26,1.26,0,0,0-.78.21,1.07,1.07,0,0,0-.42.77C9.06,10.69,9.05,11.05,9,11.4Zm-7.28-.2v2.21c0,.13,0,.13.13.13h.63c.07,0,.11,0,.1-.1V9c0-.16,0-.16.16-.16h.78c.07,0,.1,0,.1-.1V8.29c0-.07,0-.09-.09-.09H1c-.07,0-.1,0-.1.1a3.84,3.84,0,0,1,0,.48c0,.07,0,.1.1.1h.63c.14,0,.14,0,.14.14Z"/><path class="cls-1" d="M9,5.47l-.16.19a.6.6,0,0,1-1-.23,1,1,0,0,1-.07-.34c0-1.12,0-2.24,0-3.36,0-.09,0-.12.12-.11h.56c.13,0,.13,0,.13.13v3a.76.76,0,0,0,0,.15.3.3,0,0,0,.28.24.29.29,0,0,0,.31-.2.65.65,0,0,0,0-.2c0-1,0-2,0-3,0-.15,0-.15.16-.15h.51c.08,0,.11,0,.11.11s0,0,0,.06v3.8c0,.16,0,.16-.16.16H9.13C9,5.75,9,5.75,9,5.63s0-.1,0-.15Z"/><path class="cls-1" d="M7.26,3.62c0,.4,0,.79,0,1.18a1.17,1.17,0,0,1-.51.93,1.1,1.1,0,0,1-.53.14,1.46,1.46,0,0,1-.62-.09.76.76,0,0,1-.49-.57A3.14,3.14,0,0,1,5,4.47c0-.56,0-1.12,0-1.68a2.91,2.91,0,0,1,.09-.58.93.93,0,0,1,.73-.72,1.21,1.21,0,0,1,.91.13,1,1,0,0,1,.51.85C7.25,2.86,7.25,3.24,7.26,3.62Zm-1.53,0V4c0,.26,0,.52,0,.77A.38.38,0,0,0,6,5.17.36.36,0,0,0,6.42,5a.83.83,0,0,0,.07-.27V2.62a.77.77,0,0,0,0-.15.4.4,0,0,0-.31-.31.36.36,0,0,0-.38.21.59.59,0,0,0,0,.23Z"/><path class="cls-2" d="M7.11,11.42c0-.37,0-.74,0-1.1A.35.35,0,0,1,7.35,10a.41.41,0,0,1,.48.14.41.41,0,0,1,0,.19v2.23a.32.32,0,0,1-.24.34.39.39,0,0,1-.45-.11.45.45,0,0,1-.07-.23c0-.37,0-.74,0-1.11Z"/><path class="cls-2" d="M10.59,10.67v.22c0,.06,0,.08-.08.08H9.84c-.07,0-.09,0-.09-.09s0-.26,0-.39a.39.39,0,0,1,.46-.38.39.39,0,0,1,.38.41v.15Z"/></g></g></svg>