<?xml version="1.0" encoding="utf-8"?>
<!-- Generator: Adobe Illustrator 18.0.0, SVG Export Plug-In . SVG Version: 6.00 Build 0)  -->
<!DOCTYPE svg PUBLIC "-//W3C//DTD SVG 1.0//EN" "http://www.w3.org/TR/2001/REC-SVG-20010904/DTD/svg10.dtd">
<svg version="1.0" id="Calque_1" xmlns="http://www.w3.org/2000/svg" xmlns:xlink="http://www.w3.org/1999/xlink" x="0px" y="0px"
	 viewBox="0 0 283.5 283.5" enable-background="new 0 0 283.5 283.5" xml:space="preserve">
<polygon display="none" fill="#1D1D1B" points="258.5,209.1 141.7,276.6 25,209.1 25,74.3 141.7,6.9 258.5,74.3 "/>
<rect x="25" y="74.3" fill="#C3D100" width="233.6" height="134.8"/>
<rect x="25" y="74.3" transform="matrix(0.5 0.866 -0.866 0.5 193.6128 -51.8873)" fill="#52AB32" width="233.6" height="134.8"/>
<rect x="25" y="74.3" transform="matrix(0.5 -0.866 0.866 0.5 -51.8874 193.6269)" fill="#377530" width="233.6" height="134.8"/>
<g>
	<path fill="#FFFFFF" d="M122.8,191.5H109V95.8h13.8V191.5z"/>
	<path fill="#FFFFFF" d="M196.6,95.8V107h-45.4v32.6v11.2v40.8h-13.8V95.8H196.6z M165.2,139.5h24.4v11.2h-24.4V139.5z"/>
</g>
<rect x="25" y="74.3" transform="matrix(0.5 -0.866 0.866 0.5 -51.8707 193.6173)" display="none" fill="#C3D100" width="233.6" height="134.8"/>
<rect x="24.9" y="74.3" transform="matrix(-0.5 -0.866 0.866 -0.5 89.8532 335.3368)" display="none" fill="#C3D100" width="233.6" height="134.8"/>
</svg>
