<?xml version="1.0" encoding="utf-8"?>
<!-- Generator: Adobe Illustrator 18.0.0, SVG Export Plug-In . SVG Version: 6.00 Build 0)  -->
<!DOCTYPE svg PUBLIC "-//W3C//DTD SVG 1.0//EN" "http://www.w3.org/TR/2001/REC-SVG-20010904/DTD/svg10.dtd">
<svg version="1.0" id="Calque_1" xmlns="http://www.w3.org/2000/svg" xmlns:xlink="http://www.w3.org/1999/xlink" x="0px" y="0px"
	 viewBox="0 0 283.5 283.5" enable-background="new 0 0 283.5 283.5" xml:space="preserve">
<g>
	<path fill="#FFFFFF" d="M122.8,191.5H109V95.8h13.8V191.5z"/>
	<path fill="#FFFFFF" d="M196.6,95.8V107h-45.4v32.6v11.2v40.8h-13.8V95.8H196.6z M165.2,139.5h24.4v11.2h-24.4V139.5z"/>
</g>
<g>
	<g>
		<path fill="#FFFFFF" d="M25.9,209.5C49.5,168.8,73,128.1,96.6,87.4C112,60.7,127.4,34,142.9,7.3c0.6-1.1-1.1-2-1.8-0.9
			C117.6,47.1,94,87.8,70.5,128.5c-15.4,26.7-30.9,53.4-46.3,80.1C23.5,209.7,25.3,210.6,25.9,209.5L25.9,209.5z"/>
	</g>
</g>
<g>
	<g>
		<path fill="#FFFFFF" d="M141.5,7.8c38.8,22.5,77.7,44.9,116.5,67.4c0,0,0,0,0,0c1.1,0.6,2-1.1,0.9-1.8
			C220.1,50.9,181.3,28.5,142.5,6c0,0,0,0,0,0C141.3,5.3,140.4,7.1,141.5,7.8L141.5,7.8z"/>
	</g>
</g>
<g>
	<g>
		<path fill="#FFFFFF" d="M257.6,73.9c-23.5,40.7-46.9,81.4-70.4,122.2c-15.4,26.7-30.8,53.4-46.1,80.1c-0.6,1.1,1.1,2,1.8,0.9
			c23.5-40.7,46.9-81.4,70.4-122.2c15.4-26.7,30.8-53.4,46.1-80.1C260,73.6,258.3,72.7,257.6,73.9L257.6,73.9z"/>
	</g>
</g>
<g>
	<g>
		<path fill="#FFFFFF" d="M142.5,275.7c-39-22.5-77.9-45-116.9-67.5c0,0-0.1,0-0.1,0c-1.1-0.6-2,1.1-0.9,1.8
			c39,22.5,77.9,45,116.9,67.5c0,0,0.1,0,0.1,0C142.7,278.1,143.6,276.3,142.5,275.7L142.5,275.7z"/>
	</g>
</g>
<g>
	<g>
		<path fill="#FFFFFF" d="M142.5,277.4c38.8-22.5,77.7-44.9,116.5-67.4c0,0,0,0,0,0c1.1-0.6,0-2.3-1.1-1.7
			c-38.8,22.5-77.7,44.9-116.5,67.4c0,0,0,0,0,0C140.3,276.4,141.4,278,142.5,277.4L142.5,277.4z"/>
	</g>
</g>
<g>
	<g>
		<path fill="#FFFFFF" d="M259.5,209.1c0-44.9,0-89.8,0-134.8c0,0,0-0.1,0-0.1c0-1.3-2-1.2-2,0.1c0,44.9,0,89.8,0,134.8
			c0,0,0,0.1,0,0.1C257.5,210.5,259.5,210.4,259.5,209.1L259.5,209.1z"/>
	</g>
</g>
<g>
	<g>
		<path fill="#FFFFFF" d="M219.5,143c12.7,22.2,25.5,44.4,38.2,66.6c0.6,1.1,2.3,0,1.7-1.1c-12.7-22.2-25.5-44.4-38.2-66.6
			C220.5,140.8,218.8,141.9,219.5,143L219.5,143z"/>
	</g>
</g>
<g>
	<g>
		<path fill="#FFFFFF" d="M64.7,141.2c-13-22.5-26-44.9-38.9-67.4c-0.6-1.1-2.3,0-1.7,1.1c13,22.5,26,44.9,38.9,67.4
			C63.7,143.4,65.4,142.3,64.7,141.2L64.7,141.2z"/>
	</g>
</g>
<g>
	<g>
		<path fill="#FFFFFF" d="M24,74.4C24,119.2,24,164.1,24,209c0,0,0,0.1,0,0.1c0,1.3,2,1.2,2-0.1c0-44.9-0.1-89.8-0.1-134.6
			c0,0,0-0.1,0-0.1C26,73,24,73.1,24,74.4L24,74.4z"/>
	</g>
</g>
<g>
	<g>
		<path fill="#FFFFFF" d="M25.5,75.1c39-22.5,78-44.9,117-67.4c0,0,0.1,0,0.1,0c1.1-0.6,0-2.3-1.1-1.7c-39,22.5-78,44.9-117,67.4
			c0,0-0.1,0-0.1,0C23.3,74.1,24.4,75.8,25.5,75.1L25.5,75.1z"/>
	</g>
</g>
</svg>
