<?xml version="1.0" encoding="UTF-8"?><svg width="2000" height="2000" version="1.1" viewBox="0 0 2000 2000" xmlns="http://www.w3.org/2000/svg" xmlns:xlink="http://www.w3.org/1999/xlink"><!--Generated by IJSVG (https://github.com/curthard89/IJSVG)--><g transform="scale(3.52777)"><g fill="#FFFFFF"><path d="M0,12.53c0,4 2.5,7.7 7,7.7c4.89,0 9.66,-2 14.43,-6.23v-14c-14.54,1.78 -21.43,5.54 -21.43,12.53Z" transform="translate(216, 433.71)"></path><path d="M12.05,0c-7,0 -11.43,4.56 -12.05,12.57h24c-0.02,-7.9 -4.56,-12.57 -11.95,-12.57Z" transform="translate(409.25, 413.86)"></path><path d="M13.77,0c-11.64,0 -13.77,10.49 -13.77,18.06c0,7.57 2.13,18.08 13.77,18.08c11.64,0 13.77,-10.51 13.77,-18.08c0,-7.57 -2.12,-18.06 -13.77,-18.06Z" transform="translate(109.58, 416.3)"></path><path d="M11.85,0c-5.59,0 -11.85,4.09 -11.85,17.42c0,7.28 0.52,19.4 11.95,19.3c11.81,-0.08 12.82,-12.12 12.82,-19.94c5.68434e-14,-9.29 -4.52,-16.78 -12.92,-16.78Z" transform="translate(344.58, 414.43)"></path><path d="M0,0v425.2h425.2v-425.2Zm52.33,390.91c-15.4,0 -29.29,-9.8 -29.29,-31.23c0,-21.43 13.89,-31.23 29.29,-31.23c15.4,0 29.27,9.8 29.27,31.23c0,21.43 -13.86,31.22 -29.25,31.22Zm73.09,-47.4h-0.76c-6.77,0 -14.18,1.05 -16.57,6.32v39.36h-15.8v-59.18h14.82v7c2.83,-3.76 9.78,-8.17 16.3,-8.17l8.21089e-07,-1.65601e-08c0.667668,-0.0134658 1.33554,0.0132492 2,0.0800001Zm56.58,45.7h-13.8l-1.38,-5.18l-1.50261e-06,1.00463e-06c-5.7867,3.86893 -12.5992,5.91685 -19.56,5.88c-11,0 -17.58,-7.35 -17.58,-17.21c0,-13.25 12.18,-20.25 37.27,-23.07v-3.31c0,-4.29 -3.26,-6.81 -9.29,-6.81l-1.75215e-07,-4.61523e-09c-5.62368,-0.148131 -10.9847,2.37839 -14.45,6.81l-10.5,-6c5.51333,-7.72 13.9133,-11.58 25.2,-11.58c15.44,0 24.11,6.69 24.11,17.57c-0.0199999,0.00999986 -0.0199999,42.8 -0.0199999,42.9Zm65.41,-0.08h-15.58v-38.49c0,-7.25 -1.88,-10.51 -7.51,-10.51c-4.64,0 -9.29,2.1 -14.59,6.56v42.43h-15.42v-57.53l12.9,-1.77l1.42,7c7.26,-5.32 13,-8.15 20.31,-8.15c12.18,0 18.47,6.46 18.47,19.25Zm65.89,-3.3c0,9.87 -0.78,26.19 -29,26.34c-11.64,0.08 -22.43,-4.58 -24.58,-14.73l15.36,-2.48c0.64,2.91 2.43,5.8 11.14,5.8c8.07,0 11.95,-3.86 11.95,-13.1v-6.89l-0.21,-0.21c-2.48,4.44 -6.23,8.63 -15.27,8.63c-13.81,0 -24.66,-9.58 -24.66,-29.58c0,-19.79 11.21,-30.88 23.78,-30.9c11.36,0 15.82,4.94 17.07,7.84l1.24,-6.75h13.15Zm64.09,-24h-39.39c0.1,11.23 4.77,16.88 13.93,16.88c5.88,0 9.78,-2.37 13.44,-7.57l11.39,6.31c-5,8.4 -14.05,12.8 -26.21,12.8c-17.44,0 -27.84,-11.23 -27.84,-30.69c0,-19.69 10.53,-30.9 27.59,-30.9c17.06,0 27.22,10.88 27.22,30.11c0,1.05 -0.12,2.06 -0.12,3.07Zm6.25,-51.68h-6.13v17h-3.24v-17h-6.11v-2.6h15.48Zm25.47,17h-3.22v-16.35h-0.1l-6.38,16.33h-2.06l-6.42,-16.33h-0.08v16.32h-3.24v-19.56h5l5.84,14.84l5.74,-14.84h4.93Z" transform="translate(71, 74.68)"></path></g></g></svg>