<?xml version="1.0" encoding="UTF-8"?><svg width="2000" height="2000" version="1.1" viewBox="0 0 2000 2000" xmlns="http://www.w3.org/2000/svg" xmlns:xlink="http://www.w3.org/1999/xlink"><!--Generated by IJSVG (https://github.com/curthard89/IJSVG)--><g transform="scale(3.52777)"><g fill="#241F20"><path d="M425.2,425.19h-425.2v-425.19h425.2Z" transform="translate(80.89, 74.68)"></path><path fill="#FFFFFF" d="M29.29,62.46c-15.4,0 -29.29,-9.8 -29.29,-31.23c0,-21.43 13.89,-31.23 29.29,-31.23c15.4,0 29.27,9.8 29.27,31.23c0,21.43 -13.87,31.23 -29.27,31.23m0,-49.29c-11.64,0 -13.77,10.49 -13.77,18.06c0,7.57 2.13,18.08 13.77,18.08c11.64,0 13.78,-10.5 13.78,-18.07c0,-7.57 -2.13,-18.06 -13.77,-18.06" transform="translate(103.93, 403.12)"></path><path fill="#FFFFFF" d="M0,1.18344h14.83v7c2.83,-3.76 9.78,-8.17 16.3,-8.17l4.18741e-07,-8.43022e-09c0.667665,-0.0134416 1.33553,0.013273 1.99999,0.0799992v14.63h-0.76c-6.77,0 -14.18,1.05 -16.57,6.32v39.36h-15.8v-59.22Z" transform="translate(173.17, 403.507)"></path><path fill="#FFFFFF" d="M37.14,55.29l-1.50261e-06,1.00463e-06c-5.7867,3.86893 -12.5992,5.91685 -19.56,5.88c-11,0 -17.58,-7.35 -17.58,-17.21c0,-13.25 12.18,-20.25 37.27,-23.07v-3.31c0,-4.29 -3.26,-6.81 -9.29,-6.81l-1.75215e-07,-4.61523e-09c-5.62368,-0.148131 -10.9847,2.37839 -14.45,6.81l-10.5,-6c5.51333,-7.72 13.9133,-11.58 25.2,-11.58c15.44,0 24.11,6.69 24.11,17.57c0,0 0,42.78 0,42.89h-13.81l-1.38,-5.18Zm-21.81,-12.47c0,4 2.5,7.7 7,7.7c4.89,0 9.66,-2 14.43,-6.23v-14c-14.55,1.8 -21.44,5.55 -21.44,12.55" transform="translate(210.55, 403.42)"></path><path fill="#FFFFFF" d="M0,2.92l12.9,-1.77l1.42,7c7.26,-5.32 13,-8.15 20.31,-8.15c12.18,0 18.47,6.46 18.47,19.25v41.2h-15.58v-38.48c0,-7.25 -1.88,-10.51 -7.51,-10.51c-4.64,0 -9.29,2.1 -14.59,6.56v42.43h-15.42v-57.53Z" transform="translate(275.19, 403.35)"></path><path fill="#FFFFFF" d="M27.46,47.75c11.81,-0.08 12.82,-12.12 12.82,-19.94c0,-9.29 -4.52,-16.78 -12.92,-16.78c-5.59,0 -11.85,4.09 -11.85,17.42c0,7.28 0.52,19.4 11.95,19.3m27.78,-46.66v56c0,9.87 -0.78,26.19 -29,26.34c-11.64,0.08 -22.43,-4.58 -24.58,-14.73l15.39,-2.45c0.64,2.91 2.43,5.8 11.14,5.8c8.07,0 11.95,-3.86 11.95,-13.1v-6.89l-0.21,-0.21c-2.48,4.44 -6.23,8.63 -15.27,8.63c-13.81,0 -24.66,-9.58 -24.66,-29.58c0,-19.79 11.21,-30.88 23.78,-30.9c11.83,0 16.18,5.36 17.21,8.19h-0.21l1.3,-7.08Z" transform="translate(338.95, 403.39)"></path><path fill="#FFFFFF" d="M27.84,61.59c-17.44,0 -27.84,-11.23 -27.84,-30.69c0,-19.69 10.53,-30.9 27.59,-30.9c17.06,0 27.22,10.88 27.22,30.11c0,1 -0.12,2 -0.12,3.06h-39.4c0.1,11.23 4.77,16.88 13.93,16.88c5.88,0 9.78,-2.37 13.44,-7.57l11.39,6.31c-5,8.4 -14.05,12.8 -26.21,12.8m11.68,-38.51c0,-7.9 -4.54,-12.57 -11.93,-12.57c-7,0 -11.43,4.56 -12.05,12.57Z" transform="translate(403.58, 403.35)"></path><path fill="#FFFFFF" d="M36,0l-5.74,14.84l-5.84,-14.84h-5v19.56h3.24v-16.32h0.08l6.42,16.33h2.06l6.38,-16.33h0.1v16.32h3.24v-19.56Zm-36,0v2.6h6.11v17h3.24v-17h6.13v-2.6Z" transform="translate(449.06, 382.24)"></path></g></g></svg>