<svg id="Calque_1" data-name="Calque 1" xmlns="http://www.w3.org/2000/svg" viewBox="0 0 566.93 566.93"><title>wei_black</title><path d="M421.81,284.6v1.66l.83-.42a3.18,3.18,0,0,1-.42-1.25Z"/><path d="M423.23,294.73l.67-5.55V287.1h-.42a20.3,20.3,0,0,0-1.68,4.08A13.88,13.88,0,0,1,423.23,294.73Z"/><path d="M431,286.26v-.42q-.62-1.25-1.25-1.25V285l.42,2.08A.73.73,0,0,0,431,286.26Z"/><path d="M421.4,285q0-2.08-1.25-2.49v4.57H421Z"/><path d="M444.26,294.16a36.33,36.33,0,0,0,.83,4.57h.42v-.83a36.74,36.74,0,0,0-.83-4.57h-.42Z"/><rect x="409.35" y="281.28" width="0.42" height="2.08"/><rect x="413.09" y="281.69" width="0.42" height="1.25"/><path d="M413.5,284.6v1.25l.83-.42Q414.33,284.71,413.5,284.6Z"/><path d="M421,289.86a1.23,1.23,0,0,0,0-.27v-2.08h-.42l-.3,1.49C420.51,289.28,420.74,289.56,421,289.86Z"/><path d="M440.1,291.67v.42q3.32,12.05,3.74,15.38h.42l.42-2.08q0-4.15-4.16-13.71Z"/><path d="M395.22,270.06l1.25,1.66a147.62,147.62,0,0,1,25.77,7.06h.42l-.42-.83q8.21,2,10.8,3.74l.83-.42v.42q4.15,1,4.16,2.08h-.42l-1.25-.83h-.83q0,.62,5,3.74h.42l-.42-.83a15.17,15.17,0,0,0,3.74,1.25q0-1.45-2.49-6.23-12.36-19.11-33.25-19.12v.83h-.83v-.83h-.83v2.08h-.42v-2.08H406l-.42,1.66h-.42v-1.66q-2.91,0-2.91,1.66h-.42v-1.25q-.73,0-.83.83v2.49h-.42q-.62,2.08-1.25,2.08,0-.52.42-4.16v-.83q-.83,0-.83,2.08h-.42V263H397.3L396,268h-.42v-.42l.42-2.49v-1.66h-.83l-.83,6.23C394.94,269.64,395.22,269.78,395.22,270.06Zm10.8-5.82h.42v.83H406Zm-4.57.83h.42v1.66h-.42Z"/><rect x="443.84" y="296.65" width="0.42" height="1.25"/><rect x="443.42" y="294.99" width="0.42" height="1.66"/><path d="M431.79,293.74h.42v-2.49h-.42a3.2,3.2,0,0,1-.42,1.25C431.65,292.5,431.79,292.91,431.79,293.74Z"/><path d="M430.13,289.17v-.83q0-.73-.83-.83a22.32,22.32,0,0,1-.42,4.16Q430.13,291.35,430.13,289.17Z"/><rect x="428.46" y="285.85" width="0.83" height="1.25"/><path d="M437.19,298.32v-.42q0-3.12-1.25-3.32Q436.36,298.32,437.19,298.32Z"/><rect x="434.7" y="294.58" width="0.42" height="1.25"/><polygon points="414.33 279.2 413.92 279.2 413.92 280.86 414.75 280.86 414.33 279.2"/><path d="M393.56,266.73l.42-2.08v-.42h-.42q-.73,0-.83.83v.83A.73.73,0,0,0,393.56,266.73Z"/><path d="M386.49,268h-.42v1.25a.37.37,0,0,1-.42-.42,2.66,2.66,0,0,0-2.49,1.66h3.32Z"/><path d="M391.06,269.64q.83,0,.83-1.66h.42q0,1.66.83,1.66l.83-.42q-2.08-3.22-2.08-3.74h-.83a3.28,3.28,0,0,0,.42,1.66v.42l-1.66-1.66v.83l-.83-.42a3,3,0,0,1-1.66.83v1.25l-.42,2.08h3.74Q390.65,269.64,391.06,269.64Zm-.83-2.08h.42v1.25h-.42Z"/><rect x="405.19" y="279.2" width="0.42" height="2.08"/><rect x="399.37" y="280.03" width="0.42" height="1.66"/><rect x="374.44" y="282.52" width="0.42" height="1.25"/><path d="M449.66,339.46a34.58,34.58,0,0,0-14.13-18.7q7.58-7.89,7.9-11.64-2.91-14.44-5-19.53H438V290q0,1.87,2.49,19.12v1.25h-.42q0-2-2.08-9.14h-.42v.42a21.91,21.91,0,0,1,.42,3.74v5.82h-.42q-.42-4.57-1.25-10h-.42v.83a26.68,26.68,0,0,0,.83,4.57l-.83-.42v4.57a.73.73,0,0,1-.83.83V301.22h-.42v7.48h-.42q0-14.13-1.25-14.13v3.74q0,3.53-.42,10.39-.73,0-.83-.83v-9.56l-.42-2.08q-.83,0-2.08,9.56h-.42v-.42q.83-6.75,1.25-12.88l-.83.42q-.83,9.14-1.66,9.14L428,300v-1.25h-.42L426.39,307H426v-8.73l-.83.42q0-2.49,2.08-8.73v-1.25c0-.48-.28-.76-.83-.83q0,2.7-2.08,9.14h-.42v-.42a51.16,51.16,0,0,0,1.66-6.65,3.17,3.17,0,0,1-.42-1.25h-.42q-.76,4.11-1.21,7.52a13.75,13.75,0,0,1,.12,1.75c0,8-6.93,14.52-15.47,14.52A15.7,15.7,0,0,1,395,305.62q.66,7.55.66,10.15,0,1.66-.42,7.48a3.2,3.2,0,0,0-1.25.42v-2.08h-.42v2.08h-.42v-3.74h-.42q0,4.57-1.25,4.57A124.37,124.37,0,0,0,392.72,310v-5.82h-.42q-.42,5.2-.42,5.4h-.83v2.91l-2.49,1.66L389,312v-1.25a75.18,75.18,0,0,0-.83-9.14h-.42a16,16,0,0,1-.42,4.16h-.42v-.42q0-4.68.42-12.05v-5h-.42v8.31h-.42v-1.25h-.42a51.56,51.56,0,0,0-.42,5.82h-.42q-.42-11.95-.42-17h-.42v12.05l.42,2.91-.83.42v-3.74q0-6.65-1.25-6.65l-2.49,12.05h-.42v-2.91l-.83.42a16,16,0,0,0-.42-4.16,22.32,22.32,0,0,0,.42-4.16v-.83h-.83q-.42,2.49-1.25,2.49v-3.74h-.42l-.83,5.82h-.42v-.83a45.93,45.93,0,0,1,.83-6.65v-.42h-.42v.83h-.42v-.42l.83-4.16q-.42,0-.42-1.25h-.42v3.32q-1.25,0-1.25,2.91l-.83-.42a23.87,23.87,0,0,0-.83,3.74h-.42v-.42a36.63,36.63,0,0,0,.83-4.57V285q-2.18,0-3.32,12.47,0,12.88,10,23.27Q364,332.81,364.05,351.51a48.65,48.65,0,0,0,3.74,17.87Q381.3,393.9,406,393.9a58.06,58.06,0,0,0,14.13-1.66q17.87-5.82,23.69-17a.37.37,0,0,1-.42-.42v-2.49a41.13,41.13,0,0,1,1.25-11.22h-.42l2.91-9.14h-.42a80.29,80.29,0,0,0,2.91-11.64Zm-78.54,28.26h-1.25v-.83h1.25ZM389,364.39a.73.73,0,0,1-.83.83c-.49,0-.76-.28-.83-.83v-.83L389,364Zm6.23,8.31a3.2,3.2,0,0,0-1.25.42h-.83q0-.62,1.66-1.25h.42Zm5.82,6.65q-3.33-.41-3.32-1.66v-1.25h2.49q.62,0,1.25,1.66A3.2,3.2,0,0,1,401,379.35Zm7.12-6.41c-11.6,0-21-8.76-21-19.57s9.41-19.57,21-19.57,21,8.76,21,19.57S419.76,372.94,408.16,372.94Z"/><path d="M397.3,280a3.63,3.63,0,0,0,1.66-3.32v-.83q-1.14.21-1.66,3.32Z"/><path d="M386.49,277.54q2.18,0,4.16-2.49-.94,0-3.32,1.66h-.42v-.42q6.13-2.6,7.48-4.16l-5-.42h-7.06v.42Q385.24,276.81,386.49,277.54Z"/><path d="M377.76,289.17h.42a24.79,24.79,0,0,1,.83-3.32v-1.66q0-.73-.83-.83l-.42,2.08Z"/><path d="M398.13,281.28a1.1,1.1,0,0,1-1.25,1.25v.83a53.35,53.35,0,0,1-2,7.27,14.72,14.72,0,0,1,2.26-2.76l1.85-6.59Z"/><path d="M396.88,275h.42a3.19,3.19,0,0,1,.42-1.25v-.42l-.83.42Z"/><path d="M403.95,284.06l.64-.16.19-1v-1.25q0-.73-.83-.83Z"/><path d="M394,290.84q2.91-10.08,2.91-11.64v-.42q-.94,0-1.66,4.57h-.42v-.42l.42-2.49v-.83q-.83.21-1.66,2.08h-.42l1.66-3.32h-.42l-3.32,2.91v-.83q5.4-4.68,5.4-6.23v-.42q-.83,0-5.82,3.74h-.42l1.66-1.66q-1.46,0-4.16,2.08h-.42l2.08,5h.42l.83-.42-.42,2.08Q393.35,290.84,394,290.84Z"/><path d="M392.72,270.89h2.08v-.83h-1.25Q392.83,270.06,392.72,270.89Z"/><path d="M401,282.52l-.83.42c-.36,1.19-.7,2.28-1,3.26.31-.21.63-.41,1-.6.27-.82.56-1.7.87-2.66Z"/><path d="M403.53,283.36q0-.73-.83-.83-.21,1.13-.37,2.05c.39-.15.79-.29,1.2-.41Z"/><g id="cul_8" data-name="cul 8"><path d="M445,329.94c0,4.68-.28,9.17-2.88,13.41-2.78,4.55-6.68,8.1-8.73,13.12-4.4,10.77-4,22.82-8,33.7,15.82-6.28,26.9-20.79,26.9-37.69A38.6,38.6,0,0,0,445,329.94Z"/></g><path d="M321.08,263.93h1.25l-.42,2.08q0,4.57,6.23,4.57l.83-1.25v-2.49l-.42-2.91h23.69q6.23,0,6.23,4.16V386.94q0,4.16-6.23,4.16h-8.73q-6.65,0-6.65-5.4V282.63H321.08q-5.4,0-5.4-5.4v-8.31Q315.68,263.93,321.08,263.93Zm-2.49,13.71v.42q.83,0,2.49,1.66h.42a.73.73,0,0,0,.83-.83v-.83q0-.62-1.66-1.66h-.83Q319.21,276.4,318.59,277.64Z"/><path d="M455.44,267.3c0,1.63,1.74,2.95,3.89,2.95"/><path d="M459.05,263.33a8.18,8.18,0,0,0-3.1.4l.85.62a6.4,6.4,0,0,1,1.09.82c.53.62-.25,1.48-.74,1.88s-1.36-.11-1.86-.5a3.62,3.62,0,0,1-1.15-1.45,8.67,8.67,0,0,0-1.28,3.17c-.88,3.79-1.93,7.55-2.79,11.34-.34,1.5-.88,3.26-.43,4.59,1.18,3.5,4.66,2.91,7.34,3.08a4.6,4.6,0,0,0,5-3.82c1-4.12,2-8.21,3.09-12.3C466.47,265.84,464.66,263.48,459.05,263.33ZM458.48,281c-.11.09-.26,0-.3-.12a3.77,3.77,0,0,1-.21-2,.16.16,0,0,1,.14-.14.21.21,0,0,1,.24,0h0A1.35,1.35,0,0,1,458.48,281Z"/><g id="sol"><path d="M240.69,424s55.25-18.4,72.1-17.88,31.63,6,60.15,7.64,78-8.93,78-8.93-55.86,20.38-86.19,18.3-23.52-7-49.09-7.76S240.69,424,240.69,424Z"/></g><path d="M380.6,206.24c.35-.81-.34-.91-.65-1.21-1.87-1.74-3.82-3.4-5-5.73l-1.35-.9h-.2l1.15-.8a39.23,39.23,0,0,1-7.82-7.16c2.93.3,4.85,2.67,8.19,2.61-2.79-3.25-6.66-3.94-9.44-6.26,1.49-1.08,1.29-.93.14-1.93-2-1.77-4.64-2.51-6.69-4.25-2.47-2.08-5-4.12-8.31-4.92-.32-.08-.28-.29-.22-.59a33.79,33.79,0,0,0,4.81-.05c1.46-.21,3.11.56,4.79-1-6.29.19-11.42-2.78-17.16-3.87.77-1.16,2-.36,2.73-1.15-1.42-1-3.27-.22-4.58-1.34l.74-.94c-4.39-2.14-8.81-.1-13.16-.15l4.28-.75c-1.37-1-.25-1.47.17-2.19-.79-.22-2.2,0-.92-1.63h-5.24c.87-.84,1.84-.38,2.37-.69-1.16-.34-2.59.16-4-.62l1.57-1.9h0c.81-.43.41-1.24.71-1.86l-1.65-.36a10.39,10.39,0,0,1,6.14-.33c6.42,1.95,13,3.57,18.29,8.24,2.15,1.9,4.56,3.54,6.82,5.36,4.3,3.47,8.15,7.27,10.76,12.2a20.56,20.56,0,0,0,5.55,6.43c.74-.62.31-1.31.45-1.91,1.13.67,2.25,1.27,3-.17-.1-1.21-1.6-1.62-1.19-2.78a.47.47,0,0,1-.66-.31c0-.58.52-.31.83-.42.25-1-1.5-.9-1.18-1.78.41-.65,1.27,0,1.43-.92a72.28,72.28,0,0,1-7.62-4.78c2.28-1.93-1.54-1.9-1.15-2.8.88-.62,1.7.27,2.79-.7-4.38-2-9-2.9-13-5.46,2.4-.29,4.37,1.45,7.38,1.25l-7.36-3.08a27.69,27.69,0,0,0,9.51-1.29c-3.44-.41-6.41-2.39-10.08-2.47.92-1,2.16-.15,2.92-1.23-4.45-1.13-9-.13-13.38-1.21,2.68.06,5.14-1.14,7.8-1.15.12-1.87-.9-3.22-1.91-4.9,3.53.3,6.13,2.3,9.13,3l0,0c-.07-2-1.06-2.83-3-3.15a27,27,0,0,1-4.85-1.81c1.86-1.09,3.34-.15,4.77,0,.79-.46-.19-1.65,1.18-1.77-5-1.81-10.17-2-14.76-4.31,4,1,7.94,0,11.9.18-.67-.58-1.56-.55-1.93-1.4-1.24-2.81-3.88-2.29-6.15-2.5s-4.84-.23-7.26-.39c-1-.06-2,.11-2.89-.89,4.56-.28,9,.05,13.83-1.14-6.62-2.38-12.83-.79-19.27-1,4.58-2.41,9.82-2.18,14.49-4.92-4.91-.49-9.2.88-14.21.54,3-1.08,5.88-1,8.09-3.47-4.25.61-8.16.34-12.31,1.41.76-1.5,2.76-1,2.64-2.77-.78-.05-1.55-.32-2.2.37-.42-.79,1-1,.61-1.8a4.66,4.66,0,0,0-2.52.53c-1.23.39-2.32,1.39-3.76.95h0c-1.16-.91-2.08.15-3,.51-3,1.22-6,2.6-9,3.92,1.28-1.82,3.44-2.39,4.69-4.11l-.63-.48-4.45,2.67c.51-1.87-.53-3.12-1.24-4.56l-6,2a13.24,13.24,0,0,1,3.49-2.19c.49-.24,1.42-.7,1.4-.72-.93-2.08,1.16-1.87,1.89-2.11,2.05-.67,4.06-2.54,6.34-1.28,1.23.69,2.1.14,3.23.22-.38-1.17-1.44-.86-2.1-1.51,4-.29,6.51,2.69,9.8,4.2-.24-1.91-2.46-1.72-2.81-3.19a3.86,3.86,0,0,1,3.39.74l.45-.56c0-1,.54-.37.87-.23,3.64,1.43,7.31,2.8,10.53,5.1.54.38,1.06,1,1.94.33a18.88,18.88,0,0,0-5.41-3.34c1.1-.44,2,.11,2.92.6a8.13,8.13,0,0,0,2.92,1.12c4,.42,7.05,2.86,10.09,5.14a86.74,86.74,0,0,0,7.7,4.65c.74.45,1.05-.12,1.58-.26-1-1.58-2.77-2-4.22-3.17,2.05-.3,3.42,1.07,5.1,1.22l.76-.63c-.27-.41-1.11-.36-1-1,1.09-.89,2.18.89,3.43-.16-2.84-1.37-5.83-1.6-8.62-2.62,1.76-1.24,3.39,1,5.42-.26-1.18-.17-.65-1.5-1.19-1.55-2.87-.3-5.15-2.22-7.92-2.7,5.8.05,6.14.06,6.66-.91a40.68,40.68,0,0,0-10.94-.71l5-1.06,0-.87-8.13-.57c.62-.18,1.25-.41,1.91-.62-.84-.74-1.68-.17-2.49-.58a16.09,16.09,0,0,0,4.68-1.91c-3.9-.81-7.43,1-11.12.84a21.56,21.56,0,0,0,6.85-2.78c-2.75-.9-2.74-.85-5.86,0-3.55,1-7,2.25-10.75,2.6,2.81-1.54,6.14-1.88,9.2-3.93-1.51-.93-2.42-1.31-3.78-1.1-3.57.55-6.7,2.28-10.05,3.39-.55.18-1.15,1-1.84.19,3-1.82,6.26-3.12,8.8-5.7-1.53.91-3.43.32-4.82,1.16-2.27,1.37-4.83,1.9-7.22,2.91-1,.41-2.87.81-2.31-1.61l-.23-.43c-3.87,3.46-8.52,5.93-12.14,9.94-.34-1.53-1.89-1.6-2.24-3.33l-2.74,6.91c-1.9-1.73-2.45-4.63-1.2-5.7a49.88,49.88,0,0,1,19.15-10.2,31.48,31.48,0,0,1,12.84-.77c3.89.52,7.84,1,11.06,3,3.7,2.19,7.9,2.17,11.66,3.81.3.13,1.88,1,2.66-.31-2.46-2.31-6.28-1.54-8.88-3.86,1.57-.77,3,0,4.65-.71-2.52-1.05-5-.64-7.39-1.35,2-1.73,5-.2,6.91-2.61-3.56-1.32-6.74.75-10,.64,1.91-.95,4.14-.87,6.22-2.16h-4.42c.09-.66,0-1-1.22-1.18-2.78-.47-5,1.45-7.67,1.47,1.13-2.26,4.45-1.18,5.37-3.22-.88-2-2.13-1.29-3.38-.75s-2.48,1-3.72,1.54l-.12-.23,3.47-2.37c-3.4-.4-6.14.68-8.8,2.1a1.49,1.49,0,0,0,.82-2c-1,.43-1.88.78-2.73,1.16-1.6.71-2.82,2.19-4.72,2.27-.31.49-.73.73-1.06.11s.36-.49.64-.65c.5-.8.45-1.28-.67-1.13l-.31-.31c-2.71,1.57-4.91,4-8,5,.34-1.23,1.48-1.8,1.62-3-.38.39-.84.47-1.16,0s.16-.52.41-.7c.23-1.4,1.49-2.44,1.41-4.56-1.64,3.15-3.1,5.78-4.4,8.49a10.45,10.45,0,0,1-4,4.62c-.15.28-.27.6-.69.53l-.38.25,0-.54.56-.92c1.2-2.5,3.09-4.66,3.65-7.51l-3.78,5.66c-.83-1.16-.11-2.5-1-3.56-.75,4.28-4.26,6.61-6.06,10.6-.75-2-.5-3.75-2.06-5.52,1,3.84-1,6-2.59,8.39-.69-.67,0-1.87-1.16-2.1-1.55,1.85-1.48,4.29-2.28,6.48-.9-1.08-2.46-.2-3.15-1.4l-.53.52c.14.83,1.15,1.71-.18,2.52l-.94-3.26a17.6,17.6,0,0,0-.6,6.06c0,1.71.29,3.63-2.55,2.8-.22-.07-.64.55-1,.84-.9-1-1.34-1.19-2.2-1v-.05c-1.41.32-1.7.6-1.56,1.53-.9-1-1.46,1-2.39.25,1.3-2.06,3.38-3.43,4.8-5.23-.33-1-1.39-.34-1.85-1.08l7.78-6.71c-1-.55-1.49,1.07-2.36.18-.12-.89.78-1.13,1.08-1.73.59-1.18.1-1.15-.63-.82,3.28-2.28,5.18-6,8.61-8.16,1.08-.67-.09-1.36-.07-2,1.63-1.48,3.62-2.43,5-4.13l-.31-.38c-.58,0-1,.92-1.72.34.08-1.1,1.14-1.26,1.74-1.83s1.68-1.13-.13-2c4-3.32,7.69-7,11.72-10a50,50,0,0,1,29.92-10.19c4-.09,8-.3,11.87-2.42-2.87-.82-6.1-.25-7.49-3.07-3.69-1.8-6.11,1-8.95,2.39a3.21,3.21,0,0,1-.7.17c-.43.48-.92.35-1.62.07l1.15-.54c.21-.6,1.19-.6,1.15-1.54-1.76.49-3.48,1.32-5.2,1.33a3.61,3.61,0,0,0-2.57.73,5.36,5.36,0,0,1-4.28,1.25c-2.65-.28-4.08,1.28-5.22,3.33,0,0,0,.08,0,.12l-.06-.06c-.35-2.09.83-3.85,1.68-6-1.64.54-1.83,2-2.74,2.5-2.11,1.19-2.74,5-6.45,3.37.14,1.55-.51,2.51-1.83,3.71l1.35-3.11-2-.21c3-.85,4.13-3.58,6.3-5.73-2.8.92-2.9-1.68-4-2.59-.93-.44-2.11,1.45-2.51-.44-3.49,1.6-6.17,4.34-9.62,6.72,1.25-2.55,3.93-3.86,3.27-6.79-1.08-.49-1.67,0-2.19.86-1,1.5-2,2.91-2.9,4.46-.56,1-1.16.32-1.91.23.31,3.19-2,4.66-4.25,6.76.23-2.7,1.64-4.74,1.4-7.51a60,60,0,0,0-3.8,8c-.35.78-.57,1.53-1.64.73a11.53,11.53,0,0,1-.84,4.16c-.46-.16-.73-.65-1.17-.18l-.14,3c-1.53-1.63-1.89-3.75-3.54-5.07-.33,3.29,1.7,5.91,2.23,9.2-2.16-1.25-1.78-3.87-4.07-4.86-.43,2.9,1.66,5.24,1.45,8-3.55-2.23-3.55-2.23-4-1-1-.5-.81-2.56-2.69-2,.8,1.25,1.85,2.44,1.47,3.83-.71,2.6-.84,2.56-.29,4.31a8.44,8.44,0,0,1,.23,4.18c-3.38-3.22-3.38-3.22-4.68-2.65,2.36,2.94,1.41,6.47,1.78,9.78,0,.09-.18.21-.33.36l-1.47-.67-.56.61.74,1.13c-.88.48-.83-1.34-1.77-.67-.66.88.36,1.18.63,1.71s.93.89.84,1.63c-2.06.59-3.57-.37-5.07-1.82,1-.84,1.27-2.54,3.15-2,.76-.29-.48-.82.14-1.13l.79-.58c-.51-1.44-1.28-2.52-2.84-2a31,31,0,0,1-7.05,7.05,22.6,22.6,0,0,1,2-3.55c.73-1.15,1.39-2.35,2.18-3.46,1.39-1.95.4-4.53,1.74-6.48-.26.06-.48-.05-.48-.34s.29-.43.61-.29l0-.48.46,0c-.67-1,.54-1.25.84-1.84.37-.74,1.24-1.29.69-2.31-2.74,1.67-2.74,1.67-3.75,1.5a13.62,13.62,0,0,0,2.47-7c-1.68.06-2.17,2.26-4.08,2.4.09-2.31,2.55-3.47,2.37-5.7L260,92.18c-.79-.47,1.78-1.9-.53-1.82-.14.46-.53.6-.82.31s.14-.47.35-.64l1-2.29c-.72-.33-1.52.18-2.1-.34l.15-1.26c-2-1.19-2.14,2.11-4,1.62.4-1.4,1.34-2.5,1.23-4-1.36.66-3.2,0-3.88,1.8-1-.89.23-1.81-.39-2.69-1.58,2.4-4.81,3.46-4.81,7.3l-1.85-2.57c-.78,1.54,0,2.92-.34,4.4l-4.62-2c1.37,2.5-.91.74-1.09,1.67.34,1.16.4,2.38-1.23,3,.37.54,1.1.61,1.13,1.25-.32.46-1.22,0-1.34,1,2,1,4.37,1.54,6.18,3l-.24.55L235.28,99c.13,1.94,1.52,2.12,2.67,2.6s2.41.55,3.32,1.83c-2.56,0-5.3-.91-6.17,2.51.16.41,1.16,0,1.25.7-.71.93-1.69.08-2.74.56l3.57,2.25c-.24.65-1.53.41-1.17,1,1.33,2.22-1,1.77-1.73,2.49,1.11,1.26,3.33.88,4,2.7-.41.94-2.17.15-2,1.9,1.23.42,2.11,1.57,3.13,2.3-.94-.13-1,.67-1.27,1.45l2.9,1.77c-1.07,1.2-2.47-.58-3.5.81.67.44.49,2.2,2.19.9-1.67,1.37-.31,2.38.34,3a13.41,13.41,0,0,0,3.15,1.77c-2.07-.86-3.2,2-5.26,1.29.12-1.26,1.54-2.49.35-3.79-.93.08-.7,1.2-1.51,1.25,0-.74.73-1.64-.36-2.16-.81.25-.34,1.57-1.62,1.45l-.22-3.17c-.7-.19-.67.95-1.46.64v-2.59a6.64,6.64,0,0,0-1.35.1c-3.49,1-2.91-1.45-3-3.42-.07-1.2.22-2.5-.57-3.66-.94,1-.14,2.6-1.37,3.63-.64-1.4-.18-2.91-1.05-4-1-.29-.54.91-1.1.94-.41-.52.15-1.31-.54-1.72-.82,0-.88,1.45-1.83,1,.13-3.12-2.38-5.12-2.71-8.29-1,1.6-.27,3.11-1,4.23-2.41-.71-2.06-3.22-3.38-5-.29,2.49-.2,4.17.44,5.09-2.25-3-.78-6.76-2.38-10v7.52c-1.56-.68-1-2.47-2.51-3.18l2.59,8.82-.69.25c-3.49-4.26-3.31-10.18-6.05-14.87-.74.58,0,1.54-.93,1.94-.7-1.89-.62-4-2.13-6.31.63,5,.31,9.59,2.2,13.93-4.13-4.31-6.26-10.25-11.86-13.44.9,3.32,3.1,5.7,4.36,8.55.27.71.06.87-.59.49a18.19,18.19,0,0,1-4.63-4.82c-1.38-2.16-2.85-4.27-4.34-6.36-.64-.91-.7-.86-1.11,0l.19,1.07c-.68.11-.6-.39-.77-.65-.36-.09-.72-.4-1.07-.06,1.06,2.29,3.42,3.85,3.88,7.24a62,62,0,0,0-12.71-8.65l2.08,2.54.37,1-.31.12-.53-.68c-1.39-.8-2.81-2.29-4.18-2.25-2.43.07-4-1.4-5.92-2.2l-.39.41c1.32,1.95,3.32,3.23,4.88,4.94.64.34,1.23.71.92,1.63-.94.28-1-.77-1.6-1-2.7-1.21-5.27-2.83-8.38-2.83.24.06.65.05.4.45s-.49,0-.73-.08a2.49,2.49,0,0,0-2.17-.13c2.61,2.05,5.68,3.23,8.41,5,.29.08.59.14.64.52a.82.82,0,0,1-1.06,0,23.32,23.32,0,0,1-3-.91c-4.77-2.16-9.64-3.51-14.87-2l8.69,4.22c-2.64.2-4.53-.46-6.46-.81-2.92-.52-5.87-2.22-9,.16l8.14,2a14.54,14.54,0,0,1-6.51-.1c-2-.43-3.29,1.15-5.27,1.23,2.41,1.2,4.92.47,7.65,1.07-1.82.77-3.35,1.14-4,3.09,7.25-1.25,13.7-4.61,21.14-4.66,6.32,0,12.61-1,18.88.19a2.42,2.42,0,0,0-1.4.64c2.17,2.21,6,0,7.55,3.21-.59.7-1.63-.42-2.15.54l5.46,3.63c-5-.67-9.34-4.22-14.82-3.51.28.87,1.39.87,1.2,2a9.23,9.23,0,0,1-4.32-1.23c-1.07-.5-2-1.73-3.4-1.18.18.32.69.44.52,1.21-2.5-1.24-5.11-.78-7.57-.08a41.39,41.39,0,0,1-6.39,1.52l4.44,1.23c-1,1.11-2.39.67-3.59,1,.53,1.52,1.89.88,2.53,1.26-2.24,1.41-4.89-1.38-7.39.22-.09.53.37.58.5.69-2.42,1.12-5.13.47-7.6,1,.07,2.45,2.25.62,3.4,1.83l-5.59,3.13h2.56c.11.67-.07.9-.89.83a6.68,6.68,0,0,0-4.18.87c1.37.56,2.84-.41,4.09.58l-3.09,1.38v.67c1.8-.9,3.55.21,5.42-.62,4.57-2,8.9-4.54,13.4-6.71,2.1-1,4.09-2.48,6.63-2.2-.87.89-2.42.53-3.43,1.9,1.08-.32,1.83-.59,2.59-.77,4.58-1.09,8.82-3.92,13.87-2.59,4.46,1.17,8.94,2.25,13.68,3.43-.75,1-1.57.74-2.37,1.07l8.61,2.12c-1.24,1.07-1.94,2-1,3.32l-2.24.54-1.63-2.09c-.85.42-1.76.76-1.62,1.74-3.74.13-6.57,2.26-10,3.52,1.17,1.14,2.31.66,2.89.9a47,47,0,0,0-7.13,4.17.84.84,0,0,0,.69,1,.37.37,0,0,0,.14,0,10.22,10.22,0,0,0-.67.93c0,.07.13.26.23.45,1.06.27,2.16-.6,3.34,0-4.92,1.69-9,5.69-14.71,4.92l6.53,1.72c-1.71.89-3.19-.23-4.58.42.45.51,1.49.16,1.65,1.1-2.23,1-4.69,1.6-6.66,3.22,2.19.13,4.33.89,5.87.07-1.09.55-2.7,1.32-4.27,2.18-.33.18-1,.33-.75,1,0,.13.43.13.65.19l-.09.11c-.76.51-2.37.38-2.31,1,.25,2.54-2,3-3.23,4s-.06,2.35-1,2.86c-1.56.83-2.73,1.73-2.56,3.7,0,.11-.57.28-1.07.5l1.75.33c-.87,2.36-3.1,2.63-5.13,3.4,1.89.95,3.89.3,5.84,1.25-2,1.71-4.54.57-6.61,2l2.3.42-4.92,1.17a4.89,4.89,0,0,0,3.48,2.07c-.89.8-1.84.65-2.69.82-1.74.36-3.62.26-5,1.76-.33.37-.72.66-.3,1.38.65.38,1.68-.47,2.38.37-.63.78-1.65.85-2.48,1.25s-1.77.92-1.64,2c.17,1.48,1.41.71,2.2.91-1,.65-2.18,1.19-2.07,2.57,0,.55.1.66-.39,1-2.84,1.78-4.95,4.5-7.89,6.16a1.45,1.45,0,0,0-.93,1.54c.16,1.13,1.23.1,1.7.78-1.85,2.12-4.46,3.57-5.87,6.77l3-1.68c1.58,2.63-2.49,3.38-1.81,5.67a19.74,19.74,0,0,0,7.76-8.17c2-3.86,3.86-8,8.38-9.82l.07,0a4.73,4.73,0,0,0,.79.58l4.26-3.42c.87,1,0,2,.21,3,3.89-5.38,6-12,11.49-16.15.55.45-.16,1,.4,1.34,3.65-4.69,10.46-8.23,13.93-7.21,0,1-1.32.77-1.56,1.56,1.94.24,3.72-1.22,6-.26l-9.67,4c2.13,1.18.31,2-.17,2.51a16.9,16.9,0,0,1-3.3,2.16c.25,1,1.19.61,1.71,1-2.65,2.75-2.89,3.06-2.78,3.63,1.31,0,2.09-1.44,3.71-1.41-1.41,2.87-4.56,3.63-6.2,5.79.23.63,1.1.27,1.09.39L163.14,192c1.68.49,2.51-1.79,4.19-1.24-.39,1.38-1.66,1.72-3.15,2.7a2.43,2.43,0,0,1,2.58,1l-5.5,1.91c2.14.67,3.73-.55,5.89-.18-4.33,1.58-5.88,5.54-9.14,8.13,3,.22,4.89-2.25,7.54-2.53,0,.89-.62,1.06-1.07,1.35-3.45,2.24-6.92,4.45-10.33,6.75-.67.46-1.77.62-1.57,2,.26,1.88,1.73-.54,2.07,1-2.43,2.34-5.39,4.29-8.14,6.62l5.15-1c.25.75.26,1.42-.33,1.84-3,2.11-4.6,5.28-6.59,8.17a2.11,2.11,0,0,0-.53,1.71c.18,1.42,1.39-.34,1.36.64-.32,2.67-2.63,4.67-2.64,7.85a4.94,4.94,0,0,0,2-1.57c-.1.78-1.23,1.92,0,2.63s2.08-.43,2.73-1.37a22.56,22.56,0,0,0,2.6-4.88c1.19-3.13,2.55-6.2,3.94-9.25.88-1.93,2.55-2.4,3.66-1,.8-1.52,1.64-3,3.59-3a4.63,4.63,0,0,1-1.77,3.33c-1.6,1.32-2.77,3.12-4.68,4.12-.62.32-1.16,1-.53,1.77.37.45.67.09.87-.3.45,1.41-.85,1.7-1.54,2.33-1.39,1.27-2.68,2.54-1.83,4.63.8.55,1.35-.84,2.33-.14l-5.78,7.26c.79,1.43,1.49-.37,2.3.4.3,1.76-2.09,2.77-1.74,5.14a29.43,29.43,0,0,0,4.41-5.47,17.89,17.89,0,0,0,.52,1.87c1.26-.21,1.54-1.08,1.75-1.93a51.28,51.28,0,0,1,4.78-12.23c2.69-4.94,5-10,8.1-14.79,2.51-3.93,5.7-7.26,8.33-11.05.31-.45,1-1.19,1.18-1.1,2.66,1.43,5.22-.63,7.83-.13-2.35,1.92-5.53,2.2-8.64,4.17,3.81.67,6.58-1.9,10.26-1.28l-10.51,5.61c.31,1.53,1.11.41,1.62.7.36-.22.82-.38,1.06,0s-.22.49-.52.6c-2.12,1.31-4.29,2.55-5.47,5,2.07.26,3.63-1.12,5.45-1.6.3-.34.74-.44,1-.12s-.18.49-.45.63c-1.2,1.45-3,2-4.45,3.14-1.29,1-3.08,1.39-3.7,3.16,0,0-.09,0-.14,0l0,.05,3.3-.62c.15-.83,1-.69,1.46-1l.55-.4c.27-.34.68-.63,1-.21s-.25.61-.58.78l-.39.32-1.29,1c-1.11,1.44-3.88,2.18-1.63,5,.36.13.59-1.21,1.45-.79.33.3-.42,1.19.59,1.18,1.33-.58,2.15-1.79,3.24-2.67.21-.21.41-.51.73-.14,0-.47.2-.63.42-.6l0,0c.38-.33.36,0,.45.21l.1.07-.08,0a.15.15,0,0,0,.06.06l-.91.32c.08.34-.1.5-.4.57-2.53,4-6.23,7.11-8.92,11.48a5.08,5.08,0,0,0,3.82-1.55c.16-.09.38-.29.49-.24.36.16.2.43,0,.66l-4.12,7.67c3.18-.32.63,1.55,1.26,2.47,2.06-.8,1.78-3.54,3.57-4.64V247c4.63-2.71,2.87-7.93,4.11-12.3l1.09,5.51.22,0c.3-2.87-.94-5.85.38-8.65,2,.12.89,2.14,2,2.76.28-3.89,0-7.76,1.12-12.08l.92,3.3.69.12c1.1-2.12.15-4.74.93-7.15.88.84.63,2,1.11,2.34a17.83,17.83,0,0,0,1.23-9.64c1.56,0,2.35.93,3.33,1.55l.8-2.08c.65.12.57,1.12,1.42,1.16.18-1.6-.66-3-.89-4.44-.14-.27-.23-.55.06-.77,0,0,.28.23.43.36.76.17.95,1.36,2.15,1.08-.87-1.52-.42-3.17-.88-4.76,1.88-.31,2.37,1.94,4.3,1.91-2.17-2.4-.19-4.44-.09-6.68,1.4.44,2.25,1.6,3.63,1.6.08-1.34-1.83-2.59.17-3.89l-1.92-.87c1.88-2.44,4.75-.35,7.1-1.44-1-1.07-2.27-1.11-3.9-1.84,3-1.14,6.09-.9,7.8-3.53l-.65-.76c1.81-.4,3.21-2.35,5.25-.83.44-2.43,6.21-5.26,9.85-4.87-.3,1.16-1.19,2.35.2,3.42-1.59,1.27-3.74.79-5.22,2.09.35.16.74.1.69.66-1.94.67-4.15.38-6.65,1.58h7.88c-2.84,1.69-6.91,1-9.46,3.71l.25.71,5.19-.57c-3,1.45-6.31,1.9-9.38,3.6l3,.31c-1.34,1-2.86.75-4.44,2.19,2.5-.37,4.36-.36,5.86.7-1.72.56-4.38.61-5.3,1.9-1.42,2-3.28,2.15-5.11,2.77-.51.17-1.08.45-1.06.8s.29,1.12,1.08,1c.49-.09.94,0,1.16.76-2.89,1.81-6.72,2.3-8.52,5.7.79.51,1.58-.27,2.43-.26a.92.92,0,0,1,1.19.11l-.85.31-2.2,1.43c4-.22,6.63-3.2,10.29-3.19-4.31,1.67-7.89,4.57-12.22,6.86,2.48.37,3.79-1.89,6.16-1.7-3,2.15-6.19,3.34-8.74,5.62.55.47,1.79-.23,1.78.82,0,1.78-2.32,1.43-2.94,2.87,2.17-.17,3.67-2.18,5.84-2.18.35,1.36-3.37,2-.35,3.51-.6.57-1.52,1.11-.78,2s1.38-.12,2-.53,1.36-1,2-1.5l.74-1.26a.86.86,0,0,1-.06.95l.53.77,1.68-.46c.18,1.22-1,1.34-1.62,1.81-3.3,2.4-5.74,5.67-8.81,8.09,1.08,2.1,2-.13,3,.27.46.63-.74.8-.34,1.37.46.12.93-.58,1.41-.26.14-1.42,1.18-2,2-2.74.21,0,.52,0,.61.16.23.36-.09.53-.36.69a4.67,4.67,0,0,1-2,2.11l.09.12c-1.1,2.32-3.35,3.66-5.26,5.49,1.88.9,2.58-.67,3.88-1.29a17.49,17.49,0,0,0-2.82,7.41l.9-.16c.53-.43.79-.39.66.37a10.8,10.8,0,0,1-1.25,2.29,1.13,1.13,0,0,0-.06,1.6c.73.75,1-.38,1.5-.58l.54-.74a.83.83,0,0,1-.05,1.3c0,.74-1.12,1.38-.32,2.18,1.08,1.09,1.1-1.09,2.15-.68.07,1.52-1.79,2.39-1.58,3.92a1.16,1.16,0,0,0,1.57-.45c-.33.94-.33.94.14,2.25,1.62-2.21,1.75-4.93,3.12-7.14.46,2.39-.81,4.35-.71,6.49l1.26-.22c-.22,1.63.32,3.21-1,4.43,1,.7,1.6-.59,2.35-.11.41.46,0,1.22.86,1.58l1.39-1.66c-.49.82,0,1.86-.27,2.72l-.67.82c-.48.27-1.26.47-1.21,1,.19,2.17-1.62,3.48-2.12,5.33l.45.53c.44,0,.47-.92,1.15-.53.39,2.78-3.43,5.55-.22,8.49.78-.76.68-1.82,1.68-2.44-.16,1.9-1.32,3.59-.36,5.39h2.11c.6.73-.29,2,1.25,2.53.25-2.22.44-4.35.73-6.47s0-4.69,1.2-6c1.39-1.59.86-2.88.89-4.35a13.87,13.87,0,0,1,.41-4.53c.66,3.36-.13,6.41,1.72,9-1.09-5.88-.31-11.73.15-17.58.25,2.42,1.14,5.12,1.94,5.39.7-.6-.15-2,1.29-2.31.66.74.13,2,.78,2.41,3-3.73.92-7.44-.11-11.19-.19-.7-.47-1.38-.67-2.07-.38-1.32-.33-1.75.37-3.78.45,2.93.73,5.67,2.21,8.07.61-1.64-.11-3.11-.41-4.62-.43-2.17-.45-2.16,1-4.12.71,1.31.45,3.07,1.89,4.28.39-4.2-1.47-7.78-2.13-11.76,1,1,.6,2.47,2.37,3.33L219,236a28.1,28.1,0,0,0,4,6.88c.81-1.8-1.16-3.15-.89-5,1.09.15.9,1.46,1.82,1.53.78-.77-.84-1.38.07-2.37.24-.48.55.85,1.06.26.09-2.78-2.28-4.87-2.61-8l-.15.06s-.1-.09-.16-.14l.31-.16.17.16-.07,0,4.58,3.49c-.52-2.16-1.94-3.35-2.7-4.86.41-.63.87.41,1.24-.14-.29-1.64-2.13-2.47-2.22-4.3,1.17,2.32,3.53,3.06,5.68,4.85-.61-2.55-2.11-4.19-2.88-6.22,1.1-.14,1.39,1,2.35.64-.25-1.26-1.51-1.71-2.38-2.77,2.59-.74,4.34,1.69,6.62,1.12-.5-1.37-1.92-2.06-2.6-3.39,1.2-.43,1.94,1,3.08.46-1.21-2.14-4-2.26-5.31-4.17,2.53.36,5.19-2.38,7.7.55-.71-2.43-2.91-2.72-4.73-4,2.61.47,4.77-1.82,7.47.28-1.24-3.69-4.66-2.54-6.68-4.17a4.14,4.14,0,0,1,3.65-.73c2.54.81,4.8-1.09,7.3-.82.07,0,.16-.2.25-.33-2.16.07-3.79-2-6.43-1.29,1.59-2.33,3.58-2.34,5.6-2.15.43,0,.23.47.14.76l.31.3c.72.17,1-1.11,1.86-.56L243.7,203l.46.66c.74-.15,1.09-1.31,2.18-.76l-3.06,5.92c2.8-1.1,4-3.52,6.44-4.73-1,2.94-5.33,3.45-4.51,7.1,2.87.34,2.55-4.19,5.67-3.4-3,3.17-3.57,7.26-4.6,11.24,1,.09,1.31-1,2.18-.66.23.74-1.77,1.06-.7,1.81,1.24.42,1.4-1.29,2.56-.77-.29,1.42-1.33,2.4-1.9,3.61-.2.44-1.47,1.86.63,1.64l.54-.07-.23.5c.5,2.15,1.21-1,1.77.1.57,1.37-1.28,1.61-1.32,2.71.25.06.53.1.44.46,0,.05-.24,0-.42.06.78.27-.87,1.35.66,1.69,1.25.28.66-1.38,1.54-1,.76,1.89-1.06,4.09.59,5.84.94.06,1.05-.69,1.66-1.32-.13.93-.6,1.64,0,2.27l.56.46c.73-.25,1-1.28,2-1.18.6,1-.26,1.58-.56,2.34-.49,1.22-1.69,2.15-1.48,3.65l-.11,0c2.1,1.15,2.25-2,4.24-1.91-.79,1.64-1.4,3.09-2.16,4.45s-.33,2.86-.3,4.6c1.57-1.37,1.87-3.34,4-4.5-1,3.94-2.46,7.53,0,11.26,1.7-1.8,1.34-4,2.25-6,1.65,2,1.74,4.39,3.14,6.19,1.3-2-.53-3.73-.36-5.74a3.37,3.37,0,0,1,2.1,2.57v0a7.34,7.34,0,0,0-.68-5.08c.41-.44,1.08.07,1.38-.7l-1.41-2.79c.68-.41,1.11.08,1.59.32l.53-.7c.21-1.21,1.52-2.43,0-3.62l.41-.69-.37-.51c.1,0,.22-.14.31-.13.55.1,0,.71.39.88l0,0c1.87.63,1.07,2.45,1.57,3.8,2.14-1.45,3.05-3.92,5-5.42.55,1,1,1.78.36,2.83-1.51,2.54-3.58,5-2,8.38a1,1,0,1,1,1.72,1.16c.74.49,1.61-.1,2.12-1,.29-.48.2-1.31,1.07-1.33l0-.07,0,0-2.93,7.34c3.07-1.55.8,1.15,1.83,1.3,1.07,0,.85-1.45,1.65-1.72.89,1.16-2,3.31,1.09,4.08l-.3,3.34,2.07-.95c-.74,1.6-1.29,3.19,0,4.16s1.56-.79,2.11-1.64a6.45,6.45,0,0,1,1.29,2.81q1.61,5.91,3.34,11.79c1,3.52,2.19,7,3.25,10.51,1.85,6.14,3.35,12.37,4.75,18.62.92,4.13,1.82,8.27,2.47,12.45.91,5.83,1.53,11.71,2.36,17.55.2,1.43.61,2.81.71,4.28.34,5.19.71,10.37,1.23,15.55.62,6.21,1.43,12.4,2.1,18.61.23,2.15,0,4.3.31,6.48.58,3.78.89,7.61,1.21,11.43.5,6.14.79,12.3,1.41,18.43.39,3.81-.09,7.7,1.23,11.44a3.48,3.48,0,0,1,.09,2q0,1.67,0,3.34a45.68,45.68,0,0,1,.69,7.54c.21,1.8.32,3.63.35,5.41.21,1.36.46,2.72.57,4.09.57,6.77,1.09,13.54,2,20.27.51,3.63.88,7.27,1.57,10.89.88,4.64.83,9.43,2,14.07a4.44,4.44,0,0,0,1.07,2c1.44,1.73,3.86,1.58,5.34,3.09h3.39c-.48-2.9-1-5.8-1.44-8.71-1.05-7.69-1.81-15.42-3.15-23.05-.66-3.77-.44-7.55-1-11.29-.57-4.05-1-8.13-1.5-12.6a15.9,15.9,0,0,1-.31-3c-.05-1.63-.29-3.25-.33-4.89,0-.07,0-.14,0-.2a30.5,30.5,0,0,1-.28-4.79q0-.32,0-.64h0c-.47-5.45-.65-10.5-1.41-15.47-.58-3.79.17-7.62-.56-11.3s-.57-7.44-1.19-11.13c-.54-3.16-.42-6.42-.77-9.62-.77-7.06-.84-14.2-2.19-21.19-.68-3.54.21-7.18-.71-10.57s-.72-6.81-1.34-10.19c-1.23-6.7-1.53-13.57-2.66-20.29-.43-2.58-.49-5.26-1.36-7.76a72.24,72.24,0,0,1-2.78-11.16A113.54,113.54,0,0,0,299.88,281c-1.11-3.22-1.51-6.57-2.54-9.8-1.24-3.87-3.65-7.45-3.1-11.84a9.34,9.34,0,0,0-1.12-5.88c-.06-.1.06-.29.08-.41.54-.7,1.1.4,1.58.08.32-1.17-1.12-2.18,0-3.23l.38-.33-2-2.55c.72-.32,1.09.26,1.6.42l.22-.65c-.51-.58-.85-1.39.11-1.58,1.31-.26.57-.93.55-1.49l-1.33-1c.78-.33,1.35-.4,1.8.24.6,0,.91,1,1.65.56-.56-.67-.23-1.72-.93-2.33l1.16.29.55-.64-2.65-2.5c1.54-.11,2.49-1.67,4.27-1.11-.68-2.06-3-2.2-3.66-3.87,1.09-.82,1.74.94,2.74.26,0-1.78-2.18-1.43-2.84-2.66,1.33-.51,2.31.34,3.57.79-.31-1.61.82-2.09,1.68-3l-6.46-3c1.7-.29,2.81,1,4.21.71.14-.74-1.18-.56-.78-1.44.86-.54,1.75.68,2.84-.07-3-3.08-7.52-2.46-10.79-4.64,3.31,0,6.55,1.6,9.87.94l.12-.9-10.27-2.74c3-.17,5.88,1.08,9.56.76-2.43-1.38-4.64-.94-6.4-1.79,2.55-.8,5.09,2.23,8.28.06-5.58-2.87-11.76-1.73-16.92-4.55,5.32-.58,10.34,1.64,15.39,1.41-.71-1.22.8-2.3.09-3.49-4.73-.93-9.74-.2-13.77-1.6,3.55-.79,7.93.8,12.23-.65l-5.8-.51c2.11-.47,4.45.43,6.65-.72-6.35-2.69-13.5-1.15-20.14-3.7,6.32-1.28,12.57.09,18.75-1.69-.77-.67-1.67-.26-2.1-.89.35-.54,1.09-.34,1.09-.75a7,7,0,0,0-8.1-3c1.48-1.12,3.65-.85,4.54-2.88l-13.63,1.09c3.8-2.24,8.49-.53,12.7-3.15-3.74-1.5-7.16-.14-10.63-.9,1.56-1.07,3.22-.92,4.75-1.2,2.93-.54,2.94-.5,4-2.3-2.27.12-4.42,1.2-6.86.57,1.53-1.28,3.67-.8,4.81-1.9a4,4,0,0,1-1.61-1.4c-.12.17-.27.32-.35.44-.58,0-.79-.18-.79-.55a.79.79,0,0,1,.59-.88l.13,0c-.51-2,.59-4.47-.85-6.12l.69-.35,3.59,4.47,1.23-.78c-.05-.79-1.19-1-.94-1.86.49-.61,1.26.12,1.83-.4-.51-.88-.1-1.4,1.1-1.66l-6.92-7.46c2.41-.08,3.31,1.22,4.49,2.58,1.5-3.67,4.74-2.69,6.85-3.32,1.52.55-.13,1.52.92,2l0-.07.76-.3c.28.55-.66,1,0,1.52,1.42-.92,1.07-3.37,3.39-3.8-.83,2.37-3,4.28-1.14,7,.69-1.16,1.32-2.36,2.1-3.45s.93-2.75,3-3.09L304,177.41c1.17.59.91-.92,1.58-.82,0,.73,0,1.51.94,1.26a2.42,2.42,0,0,0,1.12-.62,5.72,5.72,0,0,0,.09,1.91c1.35.57.82-1.46,2.09-.88.5,1.35-1.15,2.65-.26,4.08.12,0,.28.12.42.08.51-.13,1-.3,1.53-.46.58.86.37,2.37,1.24,2.55,2.25.46,1.69,2.09,1.85,3.48a7,7,0,0,0,.23.92l1.27-.66c.22,1.58.79,2.82,2.87,2.78l-.84-6.86c2.8,2.49,4,5.48,6.32,7.69,2.29-2.91-1.52-4.46-1.6-7.07,1.75,2,3.69,2.25,5.88,2.27a4.42,4.42,0,0,0,3.42,4.94c.28-1.55-1-3.15-.48-5.05,2.44,2.07,4.12,4.56,6.77,6.06-1.2-2.2-4.22-4-1.44-6.74-.28-1.18-1.42-1.42-1.84-2.31,1.92-.12,1.92-.12,2.41-1.82l-5.76-3.4c1.54-.65,2.72.51,3.86.74.7-.54-.09-1,.18-1.45.52-.49,1.31.57,2-.43l-4.61-2.12a11.81,11.81,0,0,0,2.47.13c-2.77-1.92-6.27-2.43-9-4.69a5.43,5.43,0,0,1,2.89.1c1.78.42,3.71,1.46,5.32,1.1,2.34-.52,3.93.49,5.79,1.28,4.62,2,8.14,5.41,12,8.41,5.61,4.34,10.07,9.71,14.4,15.16S375,208.31,380,213.22c.5.5.82.9,1.53.55.36-.69-.8-1.3,0-2.05.61-.22,1.29.51,2,.08C381.79,210.31,379.34,209.2,380.6,206.24ZM306.84,84.5c.29.52-.15.68-.81,1.19C306.33,85,306.34,84.54,306.84,84.5ZM288.3,91c.21-.2.44-.59.72-.2s-.11.48-.41.54c0,.36-.22.48-.56.38C287.7,91.4,288.14,91.25,288.3,91Zm-.28.77-.24.57a.84.84,0,0,1-.16-.4C287.63,91.66,287.85,91.78,288,91.8Zm-.28.65c-.15.19-.31.36-.48.53C287.17,92.57,287.27,92.33,287.74,92.45Zm-1,.32.41.22h-.47Zm1.45.44c.5-.94,2.58-1.23,1.11-3.15-.3-.39,1.16-2.31,2.77-2.41s2.62-.48,2.71-2.32a2.35,2.35,0,0,1,1.92-1.85,68.93,68.93,0,0,0,7.85-.3,4.54,4.54,0,0,1-1.34,2.67l-1.15-1.59-3.66,6.45-1.9-1.13c-2.39,4.31-2.75,9.58-6.25,13.4a9.68,9.68,0,0,0-.82-7.11c-1.47,2.43.11,5.75-2.93,8a34.74,34.74,0,0,0-1-5.55C284.74,95.28,287.35,94.87,288.23,93.2Zm-4.13,7.42c.28,1.29,1.44,2.6-.72,3.49C283.93,103,282.23,101.56,284.09,100.62Zm-2.79,20.16c.16.06.35.06.39.14.14.27-.07.38-.29.39s-.26-.09-.39-.14Zm-132.36,0c.21-.39.56-.24,1.39,0Zm21.41-5.23c-.08-.34.14-.36.45-.27ZM149,181.45c0-.37.27-.37.88-.27Zm2.52,3.38-.13.09c.37-2.3,2.52-2.8,4.21-3.74A19,19,0,0,1,151.51,184.83ZM146.6,230c-.11.28-.32.62-.61.37s0-.62.27-.85.44-.49.69-.14S146.83,229.88,146.6,230Zm1.23-1.41a.25.25,0,0,1-.22-.42,2.26,2.26,0,0,1,.58-.38l.21.44C148.22,228.39,148,228.6,147.84,228.62Zm.78-1.21,0-.16.13.11Zm6-14.75c-.22-1.07.28-1.09,1-1C155.63,212.47,155.17,212.55,154.66,212.66Zm.75,16.52h0c.41.1.66,0,.54-.48h0C156.08,229.2,155.95,229.42,155.41,229.18Zm.93-.45c.22-.13.38-.45.67-.37C156.91,229,156.62,228.84,156.33,228.73Zm2-1.52c0-.7.44-.5.79-.51Zm3.22-7,0-.27.31.06Zm1.42-8.09a.91.91,0,0,1-.14-.53c.31-.12.68-.35.78.2C163.33,211.74,163.55,212.7,163,212.11Zm.65-.34c-.07-1.72.13-2,2.15-2.73C166,210.75,164.42,211,163.64,211.76Zm19.2.09a6.73,6.73,0,0,1,2.16-1.21ZM194.28,143l-5,2.21c4.41-.44,8.26-3.48,12.85-2.83a12.25,12.25,0,0,0-3.05,1.8,4.71,4.71,0,0,0,2.9.29c-.68.54-.49,1.42.38,3s.85,1.77-1.09,2c-.67-.79.08-2.19-1.23-2.7-.94.61-.91,1.66-.94,2.63-2.93.08-4.35-2.23-6.11-4-.29,1.82.81,3,1.31,4.69a11.28,11.28,0,0,0-4.63-1.52,1.33,1.33,0,0,0-.3.42,19.34,19.34,0,0,0-2.25-3.49A18.29,18.29,0,0,1,194.28,143Zm4.83,12.84c-.88.27-1.28-.34-1.78-1.35l2.16-.15C199.69,155,199.83,155.58,199.11,155.8Zm-6,.92c-1.2-.41-2.49,0-3.44-1.3C191.06,155.09,192.52,154.14,193.07,156.72Zm-3.2-6.49a1.06,1.06,0,0,1,.2,1.1A7.2,7.2,0,0,0,189.87,150.23Zm-18.57-.44a.41.41,0,0,1-.2,0,.54.54,0,0,1-.16-.1l.38,0S171.31,149.79,171.29,149.79Zm4.57,8.36a2.27,2.27,0,0,1,1-.22A1.7,1.7,0,0,1,175.86,158.15Zm-.67-1.78c.38,0,.76-.06,1.15-.06l0,.06Zm-2.59-1.5c4.15-3.4,7.65-7.51,12.28-10.08l-.52,1.66c1,.54,2.33.43,2.78,1.61.37,1,.6,2,1,3.2a17,17,0,0,0-6.36-.12l3,.86.11.92C180.77,153.36,176.9,154.9,172.6,154.87Zm16.22,4.65c-2.1-.51-3.72-.46-5-2.09C186,156.87,187.11,158,188.82,159.52Zm-5.88,4.15c2.64-1,5.12-2.56,8.07-2.33A21.23,21.23,0,0,1,182.94,163.67Zm-5.36,22.47c1.92.4,4.09-.33,6.18-.42-3.07,1.61-6.43,2.13-10.14,2.79C174.63,186.58,175.39,185.69,177.58,186.14Zm13.26,5.08c-2.6,2.46-5.64,0-8.76,1.31a13.11,13.11,0,0,1,3.88-4.38C187,190.17,189.37,189.44,190.84,191.22Zm-.67-4.79a5.35,5.35,0,0,1,3.69-1.57C193.51,187.44,191.88,186.48,190.16,186.43Zm-.94,10.64a9.39,9.39,0,0,1-4.43.88l4.33-3.17C188.81,196,188.83,196.73,189.23,197.07Zm-22.07,12.32c.7-1.84,2.46-1.71,3.92-2.17A8.06,8.06,0,0,1,167.16,209.39Zm1.85-4c.46-1.27,2.78-2.31,6.66-2.91A11,11,0,0,1,169,205.37Zm1.82-3.25c2.52-4.6,3.09-4.86,7.65-3.52Zm8.27-5.84c1-1.22,1-1.22,4.79-.26C180.57,197.2,180.57,197.2,179.11,196.28Zm8.1,7.3a.33.33,0,0,1-.19,0c-.21-.07-.21-.15,0-.19.06,0,.12,0,.18.05S187.23,203.57,187.21,203.58Zm-6.77.37c1.49-4.37,3.32-5.82,6.63-5.25l-1.56,1c2.09.65,3.82-1,5.8-.58C187.67,200.55,184.12,202.15,180.45,203.95Zm11.69-7.15c.8-.25,1.66-.56,2.78-.92A4.25,4.25,0,0,1,192.14,196.8Zm-1.55-1.18a22,22,0,0,1,5.77-4.74c2.37-1.44,4.4.71,6.65.6C198.63,191.79,195.07,194.6,190.59,195.62ZM210.9,171c-1,.27-.42-.65-.46-1.25,1.19.95,1.73-.53,2.8-1C212.48,169.59,211.82,170.79,210.9,171Zm-3-4.68c-.26.23,0,1,0,1.62,1.77.11,2.92-1.19,4.34-1.82.19,0,.5-.11.55,0,.16.26-.07.31-.28.32-.44,1.28-2.47,1.21-2.45,2.87-1-.73-1.75.82-2.74.35l-.47.4c.8,1,2.33,1.4,2.77,3-2.13.9-3.46-1.49-5.36-1.43-.33,1.76,3.56,1.49,1.44,3.79-2.61,0-4.92-1.48-7.45-2.12l-.44.55,2.7,2.15c.11.6-1.7.85-1.11,1.47-2.58-1.06-5.11-.56-7.53-.86,1.14,1.14,2.82.6,4.5,1.6-2.73,0-5.06-.32-7.2.5-.48.89.63,1.24.46,2.22a.58.58,0,0,0,0,.25l-10.84,1.07.07.73c2.32.73,4.75,0,7.32.44-3.1,1.54-6.07.12-9.14.53,7.65-14.93,18.9-22.75,30.71-23.27a2.31,2.31,0,0,0,.6,3.08l6.8-2C212.88,163.78,210,164.47,207.87,166.36Zm3.62-24.21c1.82-.89,3.06-1,4.34-.22Zm-10.2,78.51a.84.84,0,0,1,1.21-.1h0Zm1.28,5.37c0,.57-.23.51-.55.24l.57-.25Zm-.07-5.48c-.42-1,.37-1.08,1-1.34C203.66,220,202.33,219.74,202.51,220.54Zm-2.1,15.06a1.42,1.42,0,0,1,.15-.3l.16.17-.17.29C200.5,235.7,200.4,235.64,200.41,235.6Zm.39,6s-.06,0-.1.05l.25-.34C200.9,241.41,200.85,241.51,200.79,241.6Zm3.9-14.16c-.12.08-.32,0-.49,0,0-.3.15-.41.41-.47C204.7,227.14,205,227.25,204.69,227.44Zm0-.48.35-.67h0C205.25,226.69,205.31,227,204.66,227Zm.6-.4-.22-.27.44,0Zm11.81,32.64a.91.91,0,0,1,0,1.13A.9.9,0,0,1,217.07,259.2Zm5.1-21.49c-.63.47-.65-.3-.83-.66s-.52-.81-.17-1.3c.55,0,.53.46.68.79S222.62,237.37,222.17,237.71Zm1.36-88,2.87-.71A2.61,2.61,0,0,1,223.53,149.67Zm3.79,16.57c-1.12-.17-1.68-1.24-2.29-2.23-.18,0-.46,0-.29-.32,0-.08.37,0,.57,0l2.46,1.85Zm.58,47.64-.23-.2.28,0Zm2-30.31c1.45-1.33,2.59-3,5.05-3.75C233.38,181.8,232.28,183.57,229.91,183.59Zm7.74,21.34h-2C236.19,204.75,236.78,204.26,237.65,204.93Zm6.78-3.13c-.13-.15-.11-.29.09-.4,0,0,.14,0,.2.05Zm14.28,37.35c-.05-.05-.15-.11-.14-.15a1.4,1.4,0,0,1,.15-.3l.16.16Zm1.51,4.78-.28-.17c.05,0,.11-.14.15-.13a1.4,1.4,0,0,1,.3.15Zm-1.86-118.48,4-5.94a2.42,2.42,0,0,1,1.56,1.28C261.5,121.44,261.17,124.46,258.36,125.45Zm4,1.69,1.61-1.52a4.8,4.8,0,0,1,1.24,2.16C264.08,128.79,263.45,127.12,262.38,127.14Zm33.92,106c-.32.49-.61.19-.9,0C295.72,232.75,296,232.77,296.3,233.15Zm.91-8.44a.34.34,0,0,1,.5-.28c.29.11.56.21.57.56s-.22.42-.53.31S297.15,225.09,297.22,224.71Zm-.48-.38c-.42.78-.75,0-1.31.45C295.93,223.76,296.36,224.39,296.74,224.33Zm-2,1c-.88.43-1.36-.32-2.1-.54A2.09,2.09,0,0,1,294.79,225.32Zm-3.18,14.29c.35.36.7.73,1.23,1.3C292.11,240.51,291.48,240.34,291.61,239.61Zm-.39-.58c.11.15.2.3.3.46C291.08,239.58,291.19,239.28,291.22,239Zm-.09-.09c-.32.11-.38,0-.38-.15A2.08,2.08,0,0,0,291.13,238.94Zm-.87-1h0c-.1.45.14.48.47.4-.16.08-.23.38-.53.14S290.24,238.12,290.26,237.95Zm-1.54-2.62.22.21a1.36,1.36,0,0,0-.36.13,1,1,0,0,0,.18-.22S288.74,235.37,288.72,235.32Zm-2.45-1c.5.82.83,1.92,2.15,1.41-.84.78.84,1,.39,1.76-.86-1.09-2.59-1.36-2.55-3.16Zm0,0c-.13.19,0,.63-.5.43-.06,0-.1-.1-.16-.16Zm6.07-23.6a8.2,8.2,0,0,1-4.57-.51Zm-1.21-11.19c-2.46.49-5.73,1.25-9.14.68A34.84,34.84,0,0,1,291.11,199.57ZM278.44,131c1.3.47.73,1.6.8,2.48a8.77,8.77,0,0,1-.18,2.64C279,134.37,278.1,132.77,278.44,131Zm-5.18-21.68.12.16-.14.14c0-.05-.11-.11-.11-.16S273.21,109.34,273.26,109.3Zm2.62,25c.43-.5,1.44-.75,1.07-1.75,1.15,1,1.21,2.94.45,3.38-1.45.83.22,1.34-.2,1.88-1,.22-1,.22-1.86,2.71l-1.09-2.56c-1.2-.22-1.42,1.22-2.65,1C273.09,137.35,274.53,135.85,275.87,134.28Zm0,34.05c-.34.68-.9.57-1.42.5C274.89,168.52,275.28,168.11,275.92,168.33Zm-4.14-27.43c.92.85,1.58,1.53,1,2.87-.71-.85-1.52-1.21-2.7.08A5.39,5.39,0,0,1,271.78,140.9Zm-3.92,34.94a36.12,36.12,0,0,1,11-3C278.75,174.37,272.5,176.1,267.86,175.84Zm2.86,62.28,4-5.08C275.25,235.36,272.57,238.64,270.72,238.12Zm4.54-45.7c1.8-1.07,3.74-.5,5.55-.6A13.44,13.44,0,0,1,275.26,192.43Zm2-5a6.32,6.32,0,0,1,4.28-.85A5.6,5.6,0,0,1,277.23,187.45ZM271.85,178l.1-.65,9.29-2c.55.74.33,1.54.41,2.26C278.34,180,275.1,177.58,271.85,178ZM333,131.19a33.09,33.09,0,0,1-5.58,1.52C329.31,132.34,331,131.21,333,131.19Zm-4-2.76h-1C328.45,128,328.74,128.27,329,128.43Zm-3.58,3.09c.74-.08,1.41-1.05,2.24-.25Zm1.85-2.78c-.56.53-.91.38-1.25,0Zm-1.26,0h0c.32,1.51-.95,1.05-1.85,1.77C324.67,129.24,325.9,129.66,326.06,128.74Zm-2.63-.58c.1.18,0,.29-.2.33-.06,0-.13-.06-.19-.09Zm-14.69-.86c.37,1.58-.76,2.2-1.89,3.25C306.66,128.67,307.29,127.77,308.73,127.3Zm-5.92,2.26c.36,1,1,1.91-.37,2.55-1.18.55-2.14,2.26-3.72.77C300.32,132.11,300.68,129.77,302.81,129.56Zm-4.41,3.56c-.44.7.26,1.77-.55,2.38C297.28,134.12,297.24,134,298.4,133.12Zm-.91-11.3c-.93,2.06-1.57,4.31-3.81,5.58C292.75,125,293.29,124.21,297.49,121.83ZM294,135.11c-.1,2.08-.86,2.88-2.71,1.94ZM292.46,165l-.5-.56c1.14-2.29,3.49-3.23,5.76-4.26Zm4.95-16.3.15-.12.14.13s-.1.11-.15.11S297.45,148.79,297.4,148.74Zm.66,14.43c.22-.42.3-1,1-1.17C298.95,162.66,298.46,162.89,298.07,163.17Zm15.39,20.26.38-3.09C313.85,181.26,314.44,182.38,313.45,183.43Zm9.28-34.55c-.58-.13.18-.87-.33-1.15-1.32.54-1,3-3.12,2.69-.22-.57.71-.89.29-1.42-1.1-.44-1.93.84-3,.47,0,0-.1-.07-.09-.1a1,1,0,0,1,.06-.22h0a4.92,4.92,0,0,0-4.53-.2,13.64,13.64,0,0,1-4.49,1.19c-.63-2.68-2.07-2.87-5.27-.68-.75-1.38-2-1.54-3.36-1.28-.18.1-.36.21-.54.29,0,0-.1-.11-.15-.16l.5-.31c.3-1,1.84-1,2-2.61-2.44,1.4-4.69,2.67-6.92,4-1.36.8-2.15.61-2.24-1.22l-2.56.2c1.21-.21,2.51-.13,3.62-.92l-1.5-1.63c2.33-1.32,2.33-1.32,1.61-2.56,4.79-4,10.39-6.2,16.39-7.67,1.08-.26,1.24.8,1.94.9,2.85-2.55,4.87-2.2,9.72,1.71.33-1.14-.66-1.94-.68-3.06,2.34.2,4.62.43,6.09,2.85l.58-1.5a9.23,9.23,0,0,1,4.75,3.5c1.55,2.34,4.64,2.69,6.28,4.91.18.25.57,0,.65-.41l0,0c2.18-1.33,3.38.22,4.68,1.57,2.51,2.59,5.05,5.15,7.7,7.85a4.76,4.76,0,0,1-3.7.32c-3.79-2.07-7.43-1.52-11.18-.13-.38.14-.91-.14-1.38-.23-.3-1.61,1.05-2.54,1.64-3.81l-.24-.26a19.51,19.51,0,0,1-8.48,1.14c2.89-.84,3.24-3.81,5-5.53-3.81,1.33-5.55,6.21-10.72,6.06l4-3.13C324.28,147.56,323.73,148.82,322.74,148.88Zm.13,9.63,3.16-.78c1.07-.26.58.55.68,1-.76-.48-1.07.43-1.6.64C324.19,159.69,323.43,159.85,322.87,158.5Zm12.73,19.2c-.4.73-.82.25-1.19,0Z"/><path d="M331.41,174.63l0,0-.05,0h0Z"/><path d="M336.84,123.43v.08l-.06,0Z"/><path d="M333.36,106.35a.63.63,0,0,1-.21,0Z"/><path d="M294.69,165.93l0,0V166Z"/><path d="M296.31,164.44h0Z"/><path d="M297.63,163.59l.07,0,0,0Z"/><path d="M283.11,117.44v.09l-.05-.06Z"/><path d="M154.32,242.09l0-.09.08.06Z"/><path d="M159.22,226.64l-.07,0,.16,0Z"/><path d="M182.72,212l0,0V212Z"/><path d="M187,209.54l.08-.07h0l-.07,0Z"/><path d="M188,209v0h0Z"/><path d="M203.48,225.36l-.12,0Z"/><path d="M205.68,265.06l0,0,0-.06v0Z"/><polygon points="276.8 246.24 276.8 246.24 276.8 246.24 276.8 246.24"/><path d="M288.06,234.65s0,.06,0,.09l0,0Z"/><path d="M289.78,236.33l0,0h0Z"/><path d="M199.8,243.16h0Z"/><polygon points="201.67 240.18 201.79 240.18 201.76 240.04 201.67 240.18"/><path d="M334.12,126.18c-1.54-.06-2.09-1.4-2.94-2.34,1.08.66,2.49.91,2.9,2.4Z"/><path d="M328.93,121.66c1.15.2,2.17.52,2,2.1a3.44,3.44,0,0,1-2.48-1.55Z"/><path d="M374.53,197.62c.67.44,2,.73.39,1.69l-1.34-.89c0,.05-.09.06-.2,0Z"/><path d="M297.74,243.52c.42-.06.53.16.5.55-.33-.08-.84,0-.43-.59Z"/><path d="M168.22,91.88a.69.69,0,0,1-.6-.82c.48-.19.71.16,1,.41Z"/><path d="M201.57,275.84c-.29.52-.68.7-1,.12s.28-.52.57-.65Z"/><path d="M264.6,104.83a.84.84,0,0,1-.85.94l.08.09v-.53l-.07,0c.65.36.7-.21.88-.57Z"/><path d="M339.11,112.52l.34.41a6.73,6.73,0,0,1-.81.4s-.28-.25-.26-.36C338.44,112.65,338.66,112.45,339.11,112.52Z"/><path d="M243.82,204l-.86.73.05,0c-.73-.59-.11-.85.28-1.16Z"/><path d="M267.43,115.1l.85.81-.56.61-.77-.72Z"/><path d="M295.43,247.28a.64.64,0,0,1,.38.92c-.62.21-.7-.36-1-.66Z"/><path d="M249.79,228.48c0-.27-.17-.37-.43-.32a.16.16,0,0,0,0,.09c.27.11.39,0,.44-.27l0,0c0,.06-.14.13-.14.18a1.78,1.78,0,0,0,.13.37Z"/><path d="M183.46,104.4c-.16.09-.37.3-.5.26a2.38,2.38,0,0,1-.63-.47,1.89,1.89,0,0,1,.53-.35C183.22,103.76,183.36,104,183.46,104.4Z"/><path d="M202.49,228c-.46,0-1.25.8-1.17-.49l-.05,0,.69-.33Z"/><polygon points="298.9 70.87 298.94 71.09 299.04 70.88 298.9 70.87"/><path d="M203.85,268.46c.32-.51.49-1.68,1.27-.31l-.66.81h0Z"/><path d="M375.77,182.95c.36-.25.6-.11.84.28l-.88.12.09.06v-.52Z"/><path d="M133,199.92l.26.22a2.57,2.57,0,0,1-.43.15s-.12-.09-.18-.15Z"/><path d="M363.71,132.19c.43.09.88.34.54.75s-.89.18-1.3-.13Z"/><path d="M315.51,128c.26-.41.68-.5,1-.19s0,.54-.35.67Z"/><path d="M285.88,123c-.28-.33-.62-.63-.43-1.16.6-.19.72.31,1,.64Z"/><path d="M267.54,252.21l.28-.53c.37.44-.26.3-.29.51Z"/><path d="M254.8,236.44c-.19.22-.35.61-.72.3s-.07-.54.16-.76Z"/><path d="M294.84,247.54l-.11-.11.22-.65.47.5Z"/><path d="M265.89,103.92c-.37-.13-.57,0-.62.38v0a.41.41,0,0,0,.58-.35Z"/><path d="M295.14,249.56c.11.21.49.41.06.63-.08,0-.29-.19-.44-.3Z"/><path d="M269,243.25c.18.23.42.47.18.78s-.5.14-.72-.08Z"/><path d="M298.53,240.84c.19.2.54.37.24.7s-.54.12-.79-.06Z"/><polygon points="254.64 241.27 254.68 241.14 254.75 241.24 254.64 241.27"/><path d="M319.41,102.29c.19-.19.34-.67.68-.26s0,.53-.37.57Z"/><path d="M204.43,269c-.09.32-.3.55-.61.38-.47-.27-.21-.59,0-.88Z"/><path d="M296.54,102.62c.2,0,.5-.12.57,0s0,.35-.25.41Z"/><path d="M265.84,104l-.06-.14.1.07Z"/><path d="M269.61,239.13c0,.19.11.45,0,.57-.22.29-.49.14-.72-.06l.41-.69.33.24Z"/><path d="M318.7,111.75l-.48.49-.43-.36.63-.42Z"/><path d="M318.21,112.24l-.58.39-.23-.43.37-.32Z"/><path d="M267.17,114.82a.79.79,0,0,1,.26.27l-.48.7-.56-.39Z"/><path d="M244.16,203.71a.49.49,0,0,1-.34.29l-.52-.4.4-.55Z"/><path d="M334.08,126.24l.35,0-.13.3-.17-.33Z"/><path d="M298.76,170.37l-.44.21c0-.07,0-.18,0-.22.18-.2.35-.15.49.07Z"/><polygon points="361.96 155.37 361.94 155.24 361.93 155.41 361.96 155.37"/><path d="M361,155.37a.61.61,0,0,0,.93,0l0,0a.64.64,0,0,0-.86,0Z"/><path d="M265.26,104.3a.67.67,0,0,0-.65.53l0,0c.4.1.67,0,.62-.47Z"/><path d="M263.76,105.77c.06.38-.08.57-.49.49l.09.08v-.54l0,.05h.53Z"/><path d="M173.05,107.85l-.14-.48c.07,0,.18,0,.22,0,.17.21.09.37-.14.49Z"/><path d="M318.41,111.46c.19-.16.36-.6.65-.27s-.14.43-.36.56Z"/><path d="M383.47,211.8h0c-.37.14-.19.07,0,0Z"/><path d="M335.87,149.76l1-.47c0,.79-.44.7-.79.73Z"/><path d="M308.51,148.23a5.31,5.31,0,0,1-.9.4.71.71,0,0,1-.28-.49.57.57,0,0,1,.73-.42C308.22,147.75,308.33,148,308.51,148.23Z"/><path d="M338.34,144.45l-.25.58-.23-.29.5-.28Z"/><path d="M316.54,149.14l0,0c-.16-.29-.07-.13,0,0Z"/><path d="M319.61,149c-.19-.13-.18-.25,0-.32.05,0,.13.06.19.09l-.29.18Z"/><path d="M197.73,173.87c-.48-.19-1-.3-1-1,.72-.55,1,.21,1.47.48Z"/><path d="M196.41,172.43c-.09.16-.2.39-.23.38a4.66,4.66,0,0,1-.64-.28c.07-.12.16-.34.2-.33A4.06,4.06,0,0,1,196.41,172.43Z"/><path d="M206.78,170.07c-.1-.19-.32-.49-.26-.55.28-.31.53-.13.73.15Z"/><path d="M207.88,164l.13.16c-.05,0-.11.12-.16.11s-.09-.1-.13-.15Z"/><path d="M199.07,144c-.6.92-1.18.67-1.72.55l-.2-.19A2.93,2.93,0,0,1,199.07,144Z"/><path d="M242.56,202.38c-.16.11-.4.36-.45.32-.43-.28,0-.44.14-.63Z"/><path d="M266.22,116.48l.56,0,0,.55C266.06,117.33,266,117,266.22,116.48Z"/><path d="M217.94,284h45.94q3.7,0,3.7,3.08v8.63q-.39,3.08-3.08,3.08H229.65v24.67h30.83a2.46,2.46,0,0,0,.62,1.54,2.37,2.37,0,0,0-.31.92,2.68,2.68,0,0,1,1.85-.62v-.62q-.31-.92-1.85-.92v-.31H263q3.7,0,3.7,1.23H266v.62h.62l.62-.31.31,2.16v8h-.31l-.62-.31q0,3.39-1.23,3.39a9.54,9.54,0,0,1-2.47.31h-33.3v25h34.22q3.7,0,3.7,3.08v8.63q0,3.08-3.7,3.08H217.94q-4,0-4-4V288.05Q213.93,284,217.94,284Zm-3.39,18.5v.62h.62a.54.54,0,0,0,.62-.62Zm5.86,67.52q-1.85,1.54-1.85,2.16l-.62-.31h-2.16v.92q1.85.16,1.85.92v.92l-.62.92q0,.85,3.08,1.23a2.92,2.92,0,0,0,2.77-1.54v-.62a.55.55,0,0,0-.62-.62h-2.16v-1.23a3.94,3.94,0,0,0,1.23-2.16Zm-1.85-70.3q0,1-1.54,1.54v.62q2-.77,2.16-1.54v-.62ZM221.33,363l.62.31.31-.62v-.31h-.31C221.53,362.41,221.33,362.62,221.33,363Zm5.24-62.28-.62.92.62.31a2.38,2.38,0,0,1,.92-.31V301A2.36,2.36,0,0,1,226.57,300.7Zm8.63,67.21q0,.69-1.54,2.47v.31l.62.31h.92q.46,0,1.23-1.23v-1.23a.55.55,0,0,0-.62-.62ZM252.47,326h.62a.54.54,0,0,0,.62-.62h-.62C252.67,325.41,252.47,325.62,252.47,326Zm.31.62v.62c.05.41.26.62.62.62h.92a.54.54,0,0,0,.62-.62,3.59,3.59,0,0,0-1.85-.62Zm5.86-37,.62.31.31-.62V289h-.31C258.84,289,258.63,289.24,258.63,289.6Zm4.62-1.23L263,289v.31a2.38,2.38,0,0,1,.92-.31A.55.55,0,0,0,263.26,288.36Zm.92,3.7a1.65,1.65,0,0,0,1.23,1.85V293q0-.46-.92-.92Z"/><path d="M274.13,286.2h.31v.31a6,6,0,0,1-1.54,3.08q0,.69-2.77,5.86h.31q.08-.62.62-.62v.31q-.77,2-1.54,2.16V293q.85,0,1.23-1.85h-.31a2.47,2.47,0,0,0-.62,1.54h-.31V289.9a2.81,2.81,0,0,0,.92-1.54H271l-.31,2.16v.31Q271.12,290.83,274.13,286.2Zm10.79,1.85v2.77q-1.7,0-4.62,3.39-6.47,3.7-6.47,4.32t-1.85.62a.27.27,0,0,0-.31-.31q-1.85.77-1.85,1.85h-.31v-.92q6.4-7.86,10.48-9.56A12.1,12.1,0,0,1,284.92,288.05Zm0,4.32v22.2a10.74,10.74,0,0,0-3.08.62v.92q.31.92,1.85.92l1.23-.62v57.35q0,4.62-4,4.62h-6.78a7.68,7.68,0,0,1-3.39-.62l.31-.62q-.92-1.69-1.54-12.33a.54.54,0,0,0,.62-.62,2.45,2.45,0,0,0-.31-1.23,5.27,5.27,0,0,0,.92-2.47v-.31H269.5V359q0-1.23.31-1.23l-.31-2.16V314a3.58,3.58,0,0,1,.62-1.85h-.62v-.31q0-.39,2.77-2.16H272l-2.16.62v-.31a12.31,12.31,0,0,0,2.47-2.16h-.92l-.92.62h-.31q0-.46,1.85-1.54L271,305a19,19,0,0,1,6.17-3.08v-.31h-.92l-1.23.31a2.6,2.6,0,0,1,2.16-1.54v-.62q-1.62,1.31-7.4,3.39Q271,302,271,301.31a2.36,2.36,0,0,0,.92.31,6.78,6.78,0,0,1,3.7-1.54q0-.62-1.85-.62A43.56,43.56,0,0,1,284.92,292.37Zm-14.8-5.24h1.23q0,.46-.92.92l-.31-.62Zm1.23-2.77h1.23v.31q0,.92-1.85,1.85v-1.23A9.29,9.29,0,0,0,272,285v-.31h-.62Zm.62,11.41v.31q0,.46-.92.92v-.31Q271,296.22,272,295.76Zm.92-4h.31q-.85,2.08-1.85,2.47v-.31Q272.12,291.91,272.89,291.75Zm-1.23-5.24h.62v.31h-.62Zm.62,13.87h.31a.54.54,0,0,1-.62.62h-.31Q271.74,300.39,272.28,300.39Zm1.23-6.47h.31a.54.54,0,0,1-.62.62h-.31Q273,293.91,273.51,293.91Zm1.54-9.87h1.54a9.14,9.14,0,0,0,.31,1.23q-1.23.62-1.23,1.54h-.62l-.62-1.85Q275.05,285,275.05,284ZM284,285l.31.62v.31a2.26,2.26,0,0,0-1.23.62h-.31Q283.38,285.13,284,285Zm.31,6.17h.62v.31h-.62Z"/><path d="M145.92,373.71c-.5-6.13-1-12.25-1.5-18.37-.4-5.1,0-10.21-.08-15.3a122.39,122.39,0,0,1,.71-15.83,139.48,139.48,0,0,1,4.15-22.44c1-3.33,4.51-4.17,7-1.63a8.06,8.06,0,0,0,1.78,1.4,22.08,22.08,0,0,1,2-1.6,3.12,3.12,0,0,1,4.7,1.2c1.27,2.22,1.25,4.79,1.64,7.18,1.29,7.87,3.82,15.34,6.57,22.77a143.58,143.58,0,0,0,6.79,15.14c-.63,1.28-1.88,1.69-3,2.13-2.92,1.2-5.94,2.14-8.85,3.36-1.65.69-2.36.1-3-1.33-1.22-2.67-2.54-5.28-3.87-7.89a11.71,11.71,0,0,0-1.41-1.7c.17,3.65.49,6.83.42,10-.18,8.85,1.45,17.5,2.53,26.22.86,7,1.69,13.91,2.69,20.84.95,6.55,1.47,13.14,2.16,19.72.51,4.85-2.31,8-5.59,10.84-1.09-.45-1.41-1.73-3-1.65,2.44,3.2-.13,4.68-2.06,6.16s-4.63.19-5.86-2.5c-1.93-4.24-3.26-8.71-5.2-12.95-2.27-5-4.74-9.81-7-14.77-2-4.42-3.72-9-5.56-13.48-1.3-3.19-2.76-6.31-4-9.53-1.59-4.06-3.62-7.95-5.28-12-3.33-8.1-6.91-16.13-9.7-24.43-2.89-8.6-6-17.13-8.34-25.93-1.51-5.73-2.91-11.48-4.24-17.25a3.89,3.89,0,0,1,4.11-5c2.53.06,5-.65,7.6,0,1.59.42,2.73,1.26,3,2.78a171.94,171.94,0,0,0,6,23.25,249.58,249.58,0,0,0,13.43,33.41c3,6.12,6.1,12.21,9.15,18.31C145,373.36,145.2,373.76,145.92,373.71Zm9.64-1.1c0-.86-.29-1.42-1.09-1.27a3.13,3.13,0,0,0-2.58,2.31.82.82,0,0,0,1.11,1C154.12,374.29,155.47,374.07,155.56,372.61Z"/><path d="M192.16,391.64c-8.62-11.37-16.87-22.66-23.5-34.94,1-1.57,3-.94,4.09-2.53-2-.31-3.45.62-5.08,1-.81-1.14-1-1.84.66-2.36,3.65-1.17,7.49-1.78,10.84-3.82,1.4-.85,2.2,0,2.88,1.26,1.47,2.8,3.08,5.52,4.64,8.27a1,1,0,0,0,1.13.57c0-3.79,0-7.6,0-11.41,0-1.74-.13-3.39,2.2-3.64-.4-1-1.59-.54-1.93-1.56.44-10.59,2.32-21.23,3.65-31.93.93-7.48,1.75-15,3-22.4.62-3.78.86-7.86,4-10.8a4.31,4.31,0,0,0,.73-1.18c3-5.78,6.56-11.24,9.41-17.39,0,4.38.15,8.44,0,12.48-.32,7-.79,14-1.29,21-.59,8.22-1.31,16.44-2.19,24.64-1.11,10.32-2.08,20.66-2.84,31a114.1,114.1,0,0,0-.36,16.62c.52,7.07.83,14.2,2.58,21.13a4.07,4.07,0,0,1-1.76,4.63c-1.53,1.06-2.84,2.71-5.45,1.28C196.35,391,194,389.43,192.16,391.64Z"/></svg>