<?xml version="1.0" encoding="UTF-8"?><svg width="567" height="567" version="1.1" viewBox="0 0 567 567" xmlns="http://www.w3.org/2000/svg" xmlns:xlink="http://www.w3.org/1999/xlink"><!--Generated by IJSVG (https://github.com/curthard89/IJSVG)--><g transform="scale(1.00012)"><g fill="#000000"><path d="M68.44,62.02l2.17,1c2.24,1.07 4.5,2.1 6.71,3.22l3.63474e-06,1.90497e-06c3.26808,1.7128 6.20413,3.99527 8.67,6.74l7.30769e-07,7.66149e-07c2.40827,2.52486 4.26134,5.52588 5.44,8.81c0.57,1.66 1.23,3.31 1.68,5l1.9211e-07,7.94159e-07c0.282792,1.16903 0.427117,2.36726 0.43,3.57c0.06,2.82 0.1,5.65 0,8.47l1.96823e-07,-1.81082e-06c-0.139246,1.28109 -0.397016,2.54651 -0.769998,3.77999l3.80795e-07,-1.62513e-06c-0.561721,2.39727 -1.43586,4.71039 -2.6,6.88l-8.70954e-07,1.57074e-06c-1.89676,3.42075 -4.39707,6.46991 -7.38,9l6.1298e-07,-5.27654e-07c-2.78483,2.39719 -5.87506,4.41475 -9.18999,6l-1.60364e-06,7.57367e-07c-2.15266,1.01666 -4.37494,1.87883 -6.65,2.58c-2.31,0.76 -4.68,1.35 -7.05,1.92l3.09517e-06,-6.78285e-07c-1.33708,0.293013 -2.68907,0.513336 -4.05,0.66c-3,0.38 -5.93,0.87 -8.91,1.05c-4.48,0.28 -8.97,0.433333 -13.47,0.46c-10.63,0.06 -21.26,0 -31.88,0c-1.39,0 -1.51,-0.11 -1.51,-1.46c0,-1.35 0,-2.76 0,-4.14c0,-0.91 0.28,-1.26 1.22,-1.25c2.34,0 4.69,0 7,0c10.66,0 21.32,0 32,-0.07l-2.50537e-07,2.01476e-09c2.29553,-0.0184603 4.58857,-0.155309 6.87,-0.41l-1.70016e-06,1.64212e-07c2.72511,-0.263207 5.4352,-0.663713 8.11995,-1.19999c3.06,-0.65 6.06,-1.6 9.1,-2.38l1.9106e-06,-5.00379e-07c3.22594,-0.844863 6.31884,-2.13385 9.19,-3.83l1.31827e-06,-7.42077e-07c3.78102,-2.1284 6.89676,-5.26492 9,-9.06l7.92162e-07,-1.46633e-06c1.17075,-2.16712 2.07723,-4.46689 2.7,-6.85l5.12535e-08,-2.45293e-07c0.123852,-0.592739 0.197446,-1.19488 0.22,-1.8l-5.18652e-07,3.27637e-06c0.278536,-1.75954 0.415641,-3.53856 0.410001,-5.32l4.15424e-07,5.1844e-06c-0.189304,-2.36247 -0.580736,-4.70438 -1.17,-7l7.76112e-07,2.99096e-06c-0.970311,-3.73937 -2.94488,-7.14213 -5.71,-9.84l1.08986e-06,1.089e-06c-2.39807,-2.39618 -5.18829,-4.36455 -8.25,-5.82l-3.32861e-06,-1.551e-06c-3.24233,-1.5108 -6.60372,-2.75167 -10.05,-3.71c-2,-0.58 -3.9,-1.27 -5.86,-1.89c-1.17,-0.37 -2.36,-0.7 -3.53,-1.09c-0.29,-0.1 -0.72,-0.4 -0.71,-0.58l-2.75905e-08,2.16304e-07c0.0458726,-0.359632 0.246837,-0.681175 0.55,-0.88c1.4,-0.74 2.86,-1.39 4.27,-2.1c4.23,-2.14 8.69,-3.89 12.6,-6.61l-4.28426e-07,2.78055e-07c3.12796,-2.03009 5.61728,-4.90425 7.18,-8.29l9.28336e-07,-2.369e-06c0.661938,-1.68919 1.23604,-3.41149 1.72,-5.16l3.68404e-07,-1.31539e-06c0.919041,-3.28146 1.02884,-6.73681 0.32,-10.07l8.41564e-07,5.47211e-06c-0.83961,-5.45941 -3.74256,-10.3883 -8.10999,-13.77l-6.50663e-07,-5.06691e-07c-3.17669,-2.47378 -6.76981,-4.36009 -10.61,-5.57c-2.71,-0.85 -5.47,-1.58 -8.25,-2.18l1.12455e-05,2.21555e-06c-4.59624,-0.905536 -9.2515,-1.48034 -13.93,-1.72c-9.23,-0.65 -18.46,-0.08 -27.69,-0.33c-0.67,0 -1,0.19 -0.88,0.87l2.3975e-08,3.95276e-07c0.0117157,0.193156 0.0117157,0.386844 -4.79501e-08,0.58c0,34.2267 0,68.4567 0,102.69c0,0.78 -0.24,1.14 -1,1.14c-2,0 -4,0 -6.06,0c-0.24,0 -0.64,-0.5 -0.66,-0.8c-0.08,-1 0,-2.05 0,-3.08c0,-35.5467 0,-71.0933 0,-106.64c0,-1.53 0,-1.54 1.58,-1.53c11.3,0 22.6,0 33.91,0.13l-1.92119e-06,-3.38787e-08c2.94422,0.0519192 5.88275,0.278987 8.8,0.68l2.7961e-06,3.54136e-07c3.11239,0.394196 6.20295,0.944889 9.25995,1.64999c2.67,0.62 5.25,1.63 7.9,2.37l-1.36977e-06,-4.27051e-07c2.91485,0.908755 5.70861,2.16796 8.31999,3.74999l2.5397e-06,1.43542e-06c3.73926,2.1134 7.04421,4.91616 9.74,8.26l8.28139e-07,1.02876e-06c1.68002,2.087 3.00752,4.43463 3.93,6.95l1.64734e-06,4.48747e-06c1.12645,3.06852 1.76748,6.29393 1.9,9.55999l4.77652e-07,1.02126e-05c0.126966,2.71464 -0.0508115,5.43496 -0.530001,8.10999l-5.01822e-09,2.9975e-08c-0.587407,3.50872 -1.92074,6.85059 -3.91,9.8l9.72574e-07,-1.39638e-06c-3.19786,4.59136 -7.51386,8.2913 -12.54,10.75Z" transform="translate(160.15, 200.15)"></path><path d="M101.05,124.27l-1.48798e-08,-1.36631e-05c-0.000213374,-0.195427 -0.0237135,-0.390133 -0.0700032,-0.58c-0.94,-2.12 -1.91,-4.22 -2.82,-6.35c-0.56,-1.3 -1,-2.66 -1.52,-4c-0.46,-1.15 -1,-2.27 -1.47,-3.41c-0.78,-1.79 -1.58,-3.58 -2.35,-5.38c-1.16,-2.76 -2.28,-5.53 -3.46,-8.28c-0.81,-1.89 -1.72,-3.73 -2.55,-5.61c-0.61,-1.39 -1.15,-2.8 -1.73,-4.2c-0.93,-2.27 -1.87,-4.54 -2.82,-6.8c-0.95,-2.26 -2,-4.6 -2.93,-6.91c-1.33,-3.17 -2.63,-6.35 -4,-9.51c-0.79,-1.86 -1.68,-3.67 -2.47,-5.53c-1.09,-2.57 -2.12,-5.17 -3.19,-7.75c-1.14,-2.75 -2.31,-5.48 -3.46,-8.22c-1,-2.39 -2,-4.79 -3.05,-7.17c-0.74,-1.71 -1.54,-3.4 -2.3,-5.11c-1.06667,-2.39333 -2.12,-4.79333 -3.16,-7.2c-0.31,-0.73 -0.52,-1.5 -0.84,-2.23l8.873e-08,1.64167e-07c-0.246988,-0.456975 -0.527769,-0.89486 -0.84,-1.31l-1.1,2.57c-0.84,2 -1.7,3.93 -2.53,5.91c-0.83,1.98 -1.67,4 -2.51,6c-0.51,1.22 -1.07,2.41 -1.59,3.63c-1,2.32 -2,4.65 -2.94,7c-1.13,2.68 -2.26,5.36 -3.41,8c-0.82,1.91 -1.69,3.81 -2.52,5.72c-0.63,1.45 -1.21,2.92 -1.82,4.38c-1,2.36 -2,4.72 -3,7.07c-1.43,3.34 -2.91,6.66 -4.33,10c-1.2,2.81 -2.33,5.65 -3.52,8.46c-1,2.32 -2,4.61 -3,6.93c-0.65,1.53 -1.24,3.09 -1.87,4.62c-0.63,1.53 -1.21,2.92 -1.84,4.37c-0.89,2.07 -1.81,4.12 -2.69,6.19c-0.88,2.07 -1.73,4.08 -2.59,6.12c-0.65,1.56 -1.28,3.12 -1.94,4.67c-1,2.42 -2.06,4.82 -3.09,7.24c-0.34,0.79 -0.66,1.58 -1,2.36l3.81391e-08,-1.01882e-07c-0.267117,0.713559 -0.969618,1.16836 -1.73,1.12c-1.8,0 -3.6,0 -5.39,0c-1.21,0 -1.61,-0.65 -1.12,-1.75c0.79,-1.79 1.62,-3.57 2.39,-5.36c1.33333,-3.00667 2.62667,-6.00667 3.88,-9c0.89,-2.08 1.76,-4.18 2.65,-6.26c1.16,-2.72 2.34,-5.43 3.47,-8.17c1,-2.51 2,-5 3.06,-7.55c0.62,-1.48 1.39,-2.9 2,-4.38c0.61,-1.48 1.28,-3.1 1.9,-4.67c0.75,-1.9 1.45,-3.83 2.25,-5.72c0.57,-1.37 1.3,-2.67 1.89,-4c1.11,-2.58 2.15,-5.18 3.25,-7.76c0.81,-1.91 1.69,-3.78 2.5,-5.69c0.81,-1.91 1.53,-3.85 2.34,-5.76c0.81,-1.91 1.69,-3.74 2.49,-5.63c1.11,-2.61 2.14,-5.24 3.25,-7.85c0.87,-2 1.82,-4 2.7,-6.08c0.8,-1.85 1.53,-3.74 2.31,-5.6c0.62,-1.49 1.3,-3 1.91,-4.45c1,-2.37 1.91,-4.75 2.91,-7.11c0.57,-1.36 1.25,-2.67 1.83,-4c1.29,-3 2.54,-6.06 3.83,-9.08c0.66,-1.55 1.34,-3.08 2.07,-4.6l-6.36561e-09,1.2377e-08c0.164206,-0.319274 0.466996,-0.54452 0.82,-0.61l-2.8434e-08,-7.16665e-09c0.352212,0.0887735 0.645912,0.331076 0.8,0.66c1,2.11 2,4.22 2.91,6.38c1.24,3 2.37,6 3.59,9c0.77,1.86 1.67,3.68 2.45,5.53c1.07,2.53 2.08,5.09 3.14,7.62c0.57,1.37 1.22,2.7 1.81,4.07c0.59,1.37 1.09,2.68 1.65,4c0.56,1.32 1.19,2.71 1.76,4.07c0.89,2.1 1.74,4.21 2.64,6.3c0.62,1.42 1.31,2.81 1.95,4.22c0.22,0.48 0.37,1 0.57,1.47c0.44,1 0.9,2.08 1.33,3.14c0.6,1.49 1.16,3 1.77,4.48c0.61,1.48 1.22,2.78 1.81,4.18c0.59,1.4 1.11,2.74 1.7,4.1c0.72,1.65 1.5,3.28 2.2,4.94c1.15,2.74 2.25,5.5 3.4,8.24c0.58,1.37 1.24,2.69 1.84,4.05c0.6,1.36 1.24,3 1.87,4.43c0.813333,1.92667 1.63,3.85333 2.45,5.78c0.82,1.92667 1.64,3.83333 2.46,5.72c0.86,2 1.74,4 2.58,6c0.84,2 1.73,4.26 2.63,6.38c0.77,1.8 1.62,3.56 2.41,5.35c0.5,1.12 1,2.26 1.43,3.39c0.43,1.13 1,2.52 1.52,3.77c0.37,0.9 0.77,1.79 1.16,2.67c0.27,0.61 -0.07,0.92 -0.56,1.1l-1.77663e-07,5.5275e-08c-0.32352,0.100655 -0.661276,0.14794 -0.999999,0.14h-85.12c-0.83,0 -1.67,0 -2.5,0c-0.83,0 -1.21,-0.37 -1.19,-1.27c0,-1.51 0,-3 -0.06,-4.52c0,-0.65 0.24,-1 0.95,-1c0.93,0 1.86,0 2.79,0h74.36c0.45,-0.0299869 0.88,-0.0899869 1.36,-0.119987Z" transform="translate(267.81, 200.23)"></path><path d="M76.71,0.103718c-0.37,1.87 -0.71,3.62 -1.06,5.36c-1.12,5.59333 -2.24333,11.1867 -3.37,16.78c-0.66,3.27 -1.32,6.54 -2.09,9.79l8.79116e-08,-3.11268e-07c-0.234531,0.830402 -0.655176,1.59646 -1.23,2.24c-2.08,2.44 -4.26,4.8 -6.35,7.23c-1.4,1.62 -2.7,3.34 -4.09,5c-0.89,1 -1.85,2 -2.79,3c-1.26,1.35 -1.21,1.87 -0.64,3.63l1.05172e-06,3.24102e-06c0.742823,2.2891 1.32096,4.6284 1.73,7l-3.22024e-07,-1.7153e-06c0.419574,2.23492 0.613881,4.50629 0.58,6.78c-0.14,4.26 -0.51,8.52 -2.2,12.52l2.62556e-08,-5.38418e-08c-0.378293,0.775758 -0.243424,1.70398 0.34,2.34c1.47333,1.73333 2.95,3.46667 4.43,5.2c2.25333,2.62667 4.51,5.25 6.77,7.87l-1.2134e-07,-1.17955e-07c0.650057,0.631923 1.26435,1.29963 1.84,2l-1.57327e-07,-1.96312e-07c0.714893,0.892037 1.25747,1.90937 1.6,3c1.07,4.82 2,9.68 2.94,14.52c0.8,3.93 1.65,7.85 2.46,11.77c0.32,1.54 0.62,3.08 0.91,4.62l1.37915e-07,3.43461e-06c0.0120827,0.300908 -0.00466054,0.602282 -0.0500007,0.9c-1.8,-0.23 -3.53,-0.44 -5.26,-0.69c-2.66,-0.39 -5.32,-0.8 -8,-1.21c-2.88,-0.45 -5.76,-0.92 -8.65,-1.36c-3.81,-0.58 -7.66,-0.91 -11.41,-1.75c-4.59,-1 -9,-0.12 -13.46,0.54c-4.46,0.66 -8.62,1.31 -12.93,2c-3.73,0.59 -7.46,1.23 -11.19,1.81c-1.73,0.27 -3.48,0.43 -5.54,0.68l4.99142e-07,-6.6032e-06c0.0990618,-1.3105 0.282779,-2.61322 0.550001,-3.9c1.44,-5.19 3,-10.36 4.47,-15.54c1.73,-6 3.42,-12 5.17,-18l-1.0234e-07,3.4602e-07c0.198607,-0.671506 0.539694,-1.29228 1,-1.82c2.84667,-3.17333 5.72333,-6.32333 8.63,-9.45c1.41,-1.52 1.48,-2.11 0.8,-4.06l1.9037e-06,5.64437e-06c-0.550588,-1.63246 -0.978446,-3.30378 -1.28,-5l-1.61376e-06,-7.88041e-06c-0.59259,-2.89376 -0.834332,-5.84839 -0.719998,-8.79999c0.24,-4.34 0.64,-8.64 2.58,-12.63l1.15907e-07,-2.3249e-07c0.491195,-0.985258 0.261777,-2.17741 -0.56,-2.91c-3.25,-3.55 -6.5,-7.09 -9.73,-10.65l7.48371e-08,9.15405e-08c-0.281788,-0.344682 -0.483327,-0.747761 -0.59,-1.18c-1.15,-4.3 -2.35,-8.5 -3.55,-12.73c-1,-3.67 -2.11,-7.34 -3.17,-11c-1.06,-3.66 -2.18,-7.52 -3.22,-11.29l-1.99622e-07,-1.08042e-06c-0.16526,-0.894447 -0.25889,-1.80065 -0.28,-2.70999l4.89988e-07,-1.95072e-09c0.935172,-0.00372309 1.86986,0.0430115 2.8,0.14c2.94,0.47 5.87,1 8.81,1.5c1.77,0.29 3.56,0.45 5.33,0.72c3.33,0.51 6.65,1.07 10,1.59c2.75,0.43 5.51,0.83 8.27,1.27l4.78016e-07,5.12895e-08c2.84295,0.305039 5.71649,0.149713 8.51,-0.459999c5,-0.81 10.08,-1.52 15.12,-2.29c5.04,-0.77 10.05,-1.61 15.09,-2.37l5.61123e-07,-3.71036e-08c0.89236,-0.0590062 1.78764,-0.0590083 2.68,-6.12441e-06Zm-37.38,35.2c0,1.38 0,2.76 0,4.14c0,2.73 0,5.46 0,8.19c0,1.42 0.57,2.08 1.83,2.09c3.47,0 6.94,0 10.4,0l1.26683e-07,-7.22824e-09c0.606759,-0.0346204 1.17968,-0.290835 1.61,-0.72c1.84,-2 3.6,-4 5.37,-6c2.45,-2.81 4.91,-5.6 7.29,-8.46c1,-1.14 2.18,-2.34 2.47,-3.69c1.89,-8.65 3.57,-17.34 5.3,-26l1.08483e-07,-9.09636e-07c0.0463472,-0.388623 0.0463471,-0.781377 -2.16967e-07,-1.17c-0.39,0.08 -0.8,0.13 -1.18,0.24l2.85132e-08,-1.01412e-08c-0.240866,0.0856676 -0.472121,0.196268 -0.69,0.33c-2.35,1.25 -4.7,2.51 -7.06,3.74c-5.35,2.79 -10.72,5.55 -16.07,8.34c-2.45,1.28 -4.85,2.64 -7.29,3.93l-3.02988e-09,1.30777e-09c-1.30837,0.564724 -2.11239,1.89939 -2,3.32c0.07,3.88 0.00999999,7.8 0.00999999,11.72Zm7.41,47.22v0c-1.8,0 -3.6,-0.08 -5.39,0c-1.45,0.09 -2,0.78 -2,2.18c0,8 0,16.0267 0,24.08l2.00349e-09,-3.77238e-08c-0.0506453,0.953604 0.500938,1.83694 1.38,2.21c4.8,2.44667 9.59,4.91333 14.37,7.4c4.87,2.53 9.72,5.09 14.57,7.65c0.74,0.39 1.44,0.85 2.2,1.2c0.76,0.35 1.23,0.18 1.13,-0.76c-0.22,-2.09 -0.39,-4.2 -0.78,-6.27c-1.22,-6.49 -2.52,-13 -3.83,-19.44l-3.62854e-08,-1.43671e-07c-0.181188,-0.717407 -0.523142,-1.38422 -1,-1.95c-1,-1.31 -2.15,-2.55 -3.25,-3.79c-3.4,-3.84 -6.83,-7.66 -10.22,-11.5l5.49505e-08,6.3824e-08c-0.637928,-0.740941 -1.58375,-1.14365 -2.56,-1.09c-1.55,0.0899997 -3.09,0.0799997 -4.63,0.0799997Zm-8.57,-30.44h-12c-2.16,0 -2.86,0.54 -3.61,2.59l4.37013e-07,-1.35268e-06c-0.847504,2.62327 -1.31557,5.35423 -1.39,8.11l3.91154e-07,-4.81434e-06c-0.371916,4.57756 -0.0584627,9.18499 0.929999,13.67l-1.48451e-07,-1.03201e-06c0.194614,1.35293 0.835103,2.60224 1.82,3.55001l-1.44206e-07,-1.18992e-07c0.435884,0.359671 0.97568,0.569981 1.54,0.6c7.89,0 15.79,0 23.68,0c2.78,0 3.75,-0.7 4.63,-3.38l-8.56961e-08,2.84541e-07c1.06844,-3.54758 1.54151,-7.24772 1.4,-10.95c0,-4 -0.3,-8.07 -1.81,-11.91c-0.72,-1.83 -1.25,-2.28 -3.18,-2.28Zm-35,-48.61c0.27,1.39 0.42,2.5 0.7,3.57c1,3.62 2,7.24 3,10.85c1.63,5.81 3.23,11.62 4.93,17.41l2.0519e-08,6.28893e-08c0.32471,0.995216 0.84869,1.91388 1.54,2.7c1.66,1.95 3.44,3.8 5.17,5.69c1.55,1.71 3,3.47 4.68,5.1l1.06792e-07,9.96534e-08c0.576872,0.53831 1.32257,0.859913 2.11,0.91c3.18,0.1 6.36,0.05 9.53,0c1.44,0 1.94,-0.5 1.95,-1.91c0,-8.41333 0,-16.8233 0,-25.23l7.98897e-08,-1.52877e-06c0.0482429,-0.92318 -0.470619,-1.78267 -1.31,-2.17c-1.28,-0.67 -2.53,-1.39 -3.81,-2.05c-2.47,-1.29 -5,-2.55 -7.44,-3.85Zm33.65,93.35c0,-4 0,-7.98 0,-11.94c0,-1.55 -0.47,-2.08 -2,-2.29l-1.81758e-07,-2.22494e-08c-0.381474,-0.0466969 -0.765738,-0.0667455 -1.15,-0.06c-2.67,0 -5.33,0.08 -8,0l2.1834e-07,1.06705e-08c-1.65534,-0.0808979 -3.2471,0.646021 -4.27,1.95c-2.33,2.6 -4.79,5.08 -7.08,7.72l5.6286e-07,-6.25267e-07c-1.07049,1.18918 -1.94782,2.53892 -2.6,4l-2.2475e-06,6.31977e-06c-0.628087,1.76613 -1.14575,3.5696 -1.54999,5.39998c-1.46,5.26 -2.94,10.51 -4.4,15.76c-0.833333,3 -1.64667,6 -2.44,9l-1.50893e-07,1.12635e-06c-0.0569047,0.424769 -0.0569046,0.855231 3.01786e-07,1.28l3.5715e-07,-3.64271e-08c0.396551,-0.0404458 0.786346,-0.131174 1.16,-0.27c1.16,-0.6 2.28,-1.28 3.44,-1.9c1.87,-1 3.76,-2 5.63,-2.94c7.21,-3.81 14.4,-7.65 21.63,-11.42l-2.17086e-07,8.71108e-08c1.03327,-0.414623 1.68009,-1.44953 1.6,-2.56c-0.0300027,-3.88999 -2.69805e-06,-7.80999 -2.69805e-06,-11.73Zm32.25,-93.45l-0.15,-0.34c-0.43,0 -0.87,0.07 -1.29,0.14l-11.33,1.83c-4.33,0.7 -8.66,1.46 -13,2l2.63132e-06,-3.63174e-07c-2.24912,0.310424 -4.52165,0.417524 -6.79,0.32c-2.32,-0.11 -4.63,-0.61 -6.94,-0.95c-2.7,-0.39 -5.4,-0.76 -8.08,-1.21c-4.68,-0.79 -9.35,-1.63 -14,-2.45l-6.82267e-08,-5.06984e-09c-0.302916,-0.0225092 -0.607084,-0.0225092 -0.91,1.01396e-08c0.18,0.22 0.22,0.32 0.29,0.35l10,5.17c6.52,3.39 13,6.76 19.54,10.19l-3.34441e-07,-1.95919e-07c1.18362,0.693376 2.65653,0.662449 3.81,-0.0799996c1.28,-0.73 2.59,-1.4 3.9,-2.08l9.4,-4.87c3.13,-1.63 6.24,-3.29 9.38,-4.9c1.65,-0.85 3.35,-1.61 5,-2.44l1.05196e-06,-5.57198e-07c0.388765,-0.20592 0.765991,-0.432924 1.12999,-0.679997Zm-61.13,124.51l0.1,0.32c0.5,0 1,-0.05 1.49,-0.13l13.39,-2.07c4.28,-0.66 8.54,-1.4 12.83,-2l-7.28307e-07,8.40233e-08c1.62129,-0.187045 3.25871,-0.187045 4.88,-1.68047e-07c2.26,0.23 4.5,0.69 6.75,1c2.47,0.37 5,0.65 7.43,1.06c4,0.67 8,1.43 11.93,2.13l-9.25993e-07,-1.16204e-07c0.544227,0.068296 1.09163,0.10835 1.64,0.12l0.08,-0.28c-0.32,-0.18 -0.63,-0.37 -0.95,-0.53c-2.08,-1.07 -4.17,-2.11 -6.23,-3.21c-1.24,-0.66 -2.41,-1.45 -3.65,-2.12c-2,-1.09 -4,-2.12 -6.05,-3.17l-12.13,-6.3l1.00486e-07,5.64369e-08c-0.884986,-0.497043 -1.96501,-0.497043 -2.85,-1.12874e-07c-4,2.1 -8.1,4.17 -12.13,6.29c-5.2,2.73 -10.37,5.49 -15.56,8.24Z" transform="translate(70.83, 199.996)"></path><path d="M7.99,56.6c0,18.3 0,36.6033 0,54.91c0,1.5 0,1.53 -1.49,1.54h-5.11c-1.25,0 -1.39,-0.14 -1.39,-1.38c0,-16.4733 0,-32.9467 0,-49.42c0,-20.26 0,-40.52 0,-60.78c0,-1.31 0.14,-1.47 1.42,-1.47h5.3c1.09,0 1.28,0.21 1.28,1.3c0,18.4333 0,36.8633 0,55.29Z" transform="translate(403.96, 200.18)"></path><path d="M46.1145,0.0177635h42.09c0.9,0 1.8,0 2.69,0c0.89,0 1.23,0.38 1.23,1.21c0,1.35 0,2.7 0,4c0,1.3 -0.26,1.48 -1.54,1.48h-88.47l1.24716e-07,-1.61911e-08c-0.285469,0.0370604 -0.574531,0.0370604 -0.86,3.23821e-08c-0.66,-0.18 -1.23,-0.41 -1.18,-1.33c0.08,-1.41 0,-2.82 0,-4.24l-1.1727e-08,-8.6119e-08c-0.074518,-0.547234 0.308694,-1.05126 0.855929,-1.12578c0.0775896,-0.0105655 0.156152,-0.0119811 0.234071,-0.00421748h45Z" transform="translate(403.885, 324.592)"></path><path d="M1.83,3.63c0,0.42 -0.11,0.77 -0.11,1.12c0,4.07333 0,8.15 0,12.23c0,0.63 0.05,1.35 -0.78,1.37c-0.83,0.02 -0.94,-0.69 -0.94,-1.42c0,-5.16667 0,-10.3333 0,-15.5c0,-0.56 0,-1.13 0.66,-1.17l5.87181e-08,-1.19275e-09c0.475234,-0.00965331 0.931278,0.187358 1.25,0.54c2.12,3.14 4.17,6.32 6.25,9.48l2.86,4.35l0.3,-0.05c0,-0.61 0.08,-1.21 0.08,-1.82c0,-3.79 0,-7.57 0,-11.36l-2.08835e-08,3.67546e-07c0.0213339,-0.375473 0.17759,-0.7306 0.44,-1c0.45,-0.4 1,-0.12 1.1,0.48l-5.40181e-08,-8.04429e-07c0.0149802,0.223082 0.0149802,0.446918 1.08036e-07,0.67c0,5.2 0,10.4 0,15.6l-1.35408e-08,-1.28395e-06c0.00467045,0.442838 -0.176727,0.867308 -0.499999,1.17c-0.56,0.36 -0.9,-0.14 -1.19,-0.6c-2.99333,-4.61333 -5.99333,-9.22333 -9,-13.83c-0.0600007,-0.119999 -0.180001,-0.169999 -0.420001,-0.259999Z" transform="translate(365.63, 342.28)"></path><path d="M11.17,14.8c0,-0.59 0.1,-1 0.1,-1.31c0,-4 0,-8 0,-12c0,-0.19 -0.08,-0.46 0,-0.56l7.48346e-08,-9.03814e-08c0.250866,-0.302983 0.569432,-0.542764 0.93,-0.7c0.11,0 0.59,0.46 0.59,0.71c0.0333333,5.48667 0.0333333,10.9733 0,16.46c0,0.23 -0.27,0.65 -0.44,0.66c-0.36,0 -0.93,0 -1.08,-0.26c-3.06,-4.62 -6.08,-9.28 -9.1,-13.92l1.8083e-08,2.30243e-08c-0.169388,-0.215675 -0.34962,-0.422608 -0.54,-0.62c-0.07,0.62 -0.16,1 -0.16,1.37c0,4.17333 0,8.34333 0,12.51c0,0.5 0.06,1 -0.69,1c-0.51,0 -0.78,-0.16 -0.76,-0.72c0,-0.83 0,-1.67 0,-2.5c0,-4.52 0,-9 0,-13.57l-4.63775e-08,-1.95634e-06c-0.00975711,-0.411596 0.162153,-0.806621 0.470001,-1.08c0.53,-0.27 1,0 1.34,0.56c2.91333,4.48667 5.84,8.96667 8.78,13.44l-1.65497e-07,-1.74225e-07c0.177133,0.186475 0.364064,0.363392 0.559998,0.530001Z" transform="translate(479.78, 342.66)"></path><path d="M7.95,15.0904c0.69,-1.46 1.35,-2.78 1.95,-4.12c1.26,-2.81 2.48,-5.63 3.72,-8.45c0.34,-0.76 0.24,-1 -0.62,-1c-2.83,0 -5.65,0 -8.48,0h-1c-0.31,-1.25 -0.21,-1.38 1,-1.38h10.5c1,0 1.19,0.26 0.77,1.21c-1,2.24 -2,4.47 -3,6.7c-1.32,3 -2.65,5.92 -3.94,8.89l-9.25041e-08,2.34429e-07c-0.162027,0.410618 -0.243509,0.848584 -0.24,1.29c0,1.73 0,3.47 0,5.2l5.53848e-09,-3.68743e-08c-0.0488492,0.325232 -0.254491,0.605652 -0.55,0.75c-0.56,0.16 -0.81,-0.22 -0.81,-0.76c0,-1.57 -0.09,-3.15 0,-4.72c0.09,-1.57 -0.71,-3 -1.31,-4.34c-1.6,-3.66 -3.29,-7.29 -4.94,-10.93l2.20055e-07,4.54984e-07c-0.345314,-0.713968 -0.645894,-1.44872 -0.9,-2.2c-0.1,-0.32 -0.05,-1 0.12,-1l-1.16002e-08,6.15694e-09c0.434169,-0.23044 0.972941,-0.0652862 1.20338,0.368882c0.022355,0.0421186 0.0412889,0.0859656 0.056619,0.131118c0.893333,2.04 1.79333,4.07667 2.7,6.11c1.15333,2.58 2.31,5.15667 3.47,7.73l3.4622e-08,7.09076e-08c0.0879054,0.180034 0.188144,0.353781 0.299999,0.519998Z" transform="translate(441.22, 342.63)"></path><path d="M8.16321,0c0.61,1.29 1.11,2.3 1.57,3.33c1.68,3.74 3.34667,7.48 5,11.22c0.4,0.9 0.8,1.79 1.2,2.69c0.4,0.9 0.25,1.27 -0.88,1.28h-9.92c-0.61,0 -1.22,0 -1.24,-0.83c-0.02,-0.83 0.6,-0.83 1.21,-0.83c2.7,0 5.39,0 8.09,0c0.76,0 0.81,-0.27 0.52,-0.88c-1.25,-2.7 -2.47,-5.42 -3.7,-8.13c-0.46,-1 -0.89,-2 -1.38,-3l1.63609e-07,2.55973e-07c-0.193288,-0.302408 -0.421527,-0.580994 -0.679998,-0.829998c-0.13,0.26 -0.28,0.51 -0.4,0.78l-3.15,6.85c-1,2.13 -2,4.25 -2.92,6.4l3.26827e-09,-1.29711e-08c-0.0985059,0.390949 -0.495287,0.628021 -0.886236,0.529515c-0.0915185,-0.0230596 -0.177697,-0.0636469 -0.253764,-0.119515l3.44523e-08,3.78466e-08c-0.245983,-0.270218 -0.343216,-0.64419 -0.26,-1c1.16,-2.65 2.39,-5.27 3.58,-7.91c1.19,-2.64 2.46,-5.5 3.7,-8.25l4.07041e-08,-7.66211e-08c0.238947,-0.44979 0.506147,-0.883992 0.799995,-1.3Z" transform="translate(398.297, 342.15)"></path><path d="M15.8031,9.37113c-0.24,2.29 -0.25,4.56 -1.6,6.54l8.88197e-08,-1.45272e-07c-0.883203,1.44455 -2.43747,2.34399 -4.13,2.39l-1.20584e-06,7.56452e-08c-1.4286,0.0896194 -2.8614,0.0896193 -4.29,-1.51291e-07l1.96262e-07,1.08529e-08c-1.95468,-0.108089 -3.66648,-1.34699 -4.38,-3.17l-8.24743e-07,-2.20567e-06c-1.24211,-3.32186 -1.4031,-6.95121 -0.459999,-10.37l4.00642e-08,-1.77655e-07c0.561415,-2.48945 2.72968,-4.28813 5.28,-4.38l-9.59344e-08,1.75197e-08c2.08699,-0.381131 4.24069,-0.112355 6.17,0.77l2.61333e-07,1.34814e-07c1.35062,0.696744 2.31104,1.96995 2.61,3.46c0.350001,1.55 0.540001,3.16 0.800001,4.76Zm-1.43,-0.74l-1.05018e-07,-7.09088e-07c-0.200014,-1.3505 -0.487282,-2.68663 -0.86,-4l1.48156e-07,5.10202e-07c-0.443032,-1.52566 -1.76104,-2.63452 -3.34,-2.81l1.51406e-06,9.91756e-08c-1.23534,-0.0809187 -2.47466,-0.0809188 -3.71,-1.98351e-07c-2.84,0 -4.32,2.63 -4.42,4.55c-0.1,1.92 -0.08,4 0,6l-1.51001e-07,-3.71253e-06c0.0565895,1.39133 0.690821,2.69604 1.75,3.6c1.84,1.65 5.71,1.51 7.31,0.68l6.18585e-07,-3.11022e-07c0.760638,-0.382445 1.4215,-0.937162 1.93,-1.62c1.16,-1.71 1.22,-3.69 1.35,-6.4Z" transform="translate(459.367, 342.429)"></path><path d="M12.27,2.12605c-0.46,0.78 -1,0.93 -1.8,0.39l1.46114e-07,8.17384e-08c-1.34642,-0.753213 -2.90131,-1.04804 -4.43,-0.84l-1.26633e-07,1.28132e-08c-0.877901,0.0888294 -1.74126,0.287032 -2.57,0.59c-1.11,0.35 -1.68,2 -1.65,2.89l-1.07913e-07,-6.9432e-07c0.184152,1.18484 1.01332,2.16827 2.15,2.55c1.69,0.53 3.37,1.08 5,1.68l-7.61025e-07,-2.48657e-07c0.955702,0.312266 1.87712,0.721041 2.75,1.22c1.82,1.12 2,2.91 1.66,4.8l-9.61273e-08,4.18975e-07c-0.322579,1.40597 -1.37718,2.52935 -2.76,2.94l-2.31726e-07,8.00427e-08c-2.45925,0.849475 -5.11017,0.977857 -7.64,0.37l2.29618e-07,6.91072e-08c-0.814212,-0.24505 -1.58639,-0.612592 -2.29,-1.09c-0.21,-0.11 -0.48,-0.54 -0.44,-0.6l-5.799e-08,8.25834e-08c0.19485,-0.277486 0.465706,-0.492782 0.78,-0.62l-9.05703e-08,1.331e-08c0.28483,-0.0418579 0.575286,0.0183586 0.82,0.17l-1.20993e-06,-6.34998e-07c2.53302,1.32938 5.53455,1.42882 8.15,0.270001l-2.79809e-07,9.19932e-08c1.33292,-0.438227 2.17041,-1.75728 2,-3.15l-6.15757e-08,-6.29067e-07c-0.096899,-0.989934 -0.760562,-1.83318 -1.7,-2.16l-2.88125e-06,-1.20865e-06c-1.28723,-0.539976 -2.60245,-1.01065 -3.94,-1.41l9.05513e-07,2.82145e-07c-1.32285,-0.412181 -2.6187,-0.906474 -3.88,-1.48l-3.54041e-07,-1.62196e-07c-1.57418,-0.721173 -2.47997,-2.39812 -2.22,-4.11l-1.32133e-08,2.16087e-07c0.102038,-1.66871 1.17512,-3.12167 2.74,-3.71l5.60681e-07,-2.22374e-07c1.5868,-0.629348 3.31226,-0.826051 5,-0.57l-1.68891e-07,-1.07223e-08c1.33709,0.084887 2.62615,0.530701 3.73,1.29l1.75818e-08,1.32628e-08c0.128383,0.0968454 0.248771,0.203857 0.36,0.32l-2.60989e-08,-2.82438e-08c0.0718926,0.0778012 0.132488,0.165325 0.180007,0.260001Z" transform="translate(382.92, 341.944)"></path><path d="M0.33,8.99c0,-2.54 0,-5.07 0,-7.61c0,-0.5 -0.33,-1.28 0.6,-1.33c0.93,-0.05 0.92,0.74 0.92,1.42c0,4.69 0,9.38 0,14.06c0,0.8 0.21,1.07 1,1.06c2.5,0 5,0 7.51,0c0.54,0 1.09,0 1.06,0.75c-0.03,0.75 -0.57,0.61 -1.06,0.61c-3,0 -6,0 -9.05,0c-0.83,0 -1,-0.27 -1,-1.06c0.08,-2.67 0.02,-5.26 0.02,-7.9Z" transform="translate(428.67, 342.78)"></path><path d="M0.00999977,9.05c0,-2.66 0,-5.32 0,-8c0,-0.51 0,-1.05 0.68,-1c0.68,0.05 0.85,0.44 0.85,1.06c0,5.36 0,10.71 -0.05,16.07l3.36492e-08,-2.5078e-07c-0.0591782,0.441041 -0.34317,0.819697 -0.75,1c-0.57,0.12 -0.74,-0.35 -0.74,-0.93c0,-2.73 0,-5.45 0,-8.18Z" transform="translate(358.84, 342.44)"></path></g></g></svg>