<?xml version="1.0" encoding="utf-8"?>
<!-- Generator: Adobe Illustrator 22.0.1, SVG Export Plug-In . SVG Version: 6.00 Build 0)  -->
<svg version="1.1" xmlns="http://www.w3.org/2000/svg" xmlns:xlink="http://www.w3.org/1999/xlink" x="0px" y="0px"
	 viewBox="0 0 841.9 595.3" style="enable-background:new 0 0 841.9 595.3;" xml:space="preserve">
<style type="text/css">
	.st0{fill:none;}
</style>
<g id="Calque_3">
	<rect class="st0" width="841.9" height="595.3"/>
</g>
<g id="Calque_1">
	<g>
		<path d="M422.1,81.7c1.1-1.7,2.2-3.4,3.3-5.1c-0.1,0-0.1,0-0.2-0.1c0.6-0.4,1.2-0.7,1.6-1.2c0.9-1.1,1.5-2.3,2.3-3.4
			c0.4-0.5,1.1-0.8,1.8-1.2c0.9,2.5-0.8,3.7-1.4,5.5c1.4-1,2.8-2,4-3.1c1.5-1.3,3.2-1.9,5.1-1.5c0.5,0.1,0.9,0.7,1.3,1.1
			c0.7,0.6,1.4,1.1,2.3,1.9c-1.1,1.2-2.5,2.8-3.9,4.3c0.1,0.5,0.2,1.1,0.4,2c0.3-0.8,0.4-1.3,0.6-2c4.2,0.6,4.9-4,8-5.4
			c-0.5,1.5-1,2.9-1.5,4.3c0.1,0.1,0.2,0.3,0.3,0.4c1.3-2.3,3.2-2.8,5.5-2.6c0.5,0.1,1.1-0.2,1.6-0.4c2.6-0.9,5.3-1.8,8.1-2.3
			c-0.4,0.5-0.8,0.9-1.1,1.4c0,0.1,0.1,0.2,0.1,0.3c0.9-0.4,1.8-0.9,2.7-1.3c1.2-0.6,2.3-1.3,3.6-1.6c0.8-0.2,2.2-0.1,2.6,0.4
			c1.6,2.1,3.8,2.2,6,2.5c0.2,0,0.4,0.2,0.9,0.3c-2.5,1.5-5.2,2-7.9,2c-7.1,0.1-14.1,1.1-20.6,4c-4.6,2-8.6,4.9-12.3,8.1
			c-2.2,1.9-4.3,3.8-6.6,5.8c1.7,2.2-1.5,2.1-1.7,3.7c0.6-0.1,1.1-0.2,1.6-0.3c0.1,0.1,0.1,0.2,0.2,0.4c-1.1,0.9-2.2,1.8-3.3,2.6
			c-0.6,0.5-1.5,0.8-1,2c0.1,0.2-0.3,0.7-0.5,1c-2.1,2.1-4.3,4.1-6.3,6.3c-0.7,0.8-1,2-1.7,3.3c0.7-0.1,1.3-0.3,1.8-0.4
			c0.1,0.1,0.1,0.2,0.2,0.2c-2.2,1.9-4.4,3.8-6.6,5.8c0.6,0.3,1,0.6,1.6,1c-1.5,1.5-2.8,2.9-4.2,4.3c0.1,0.1,0.2,0.3,0.2,0.4
			c0.5-0.2,1.2-0.4,1.6-0.8c0.9-1.1,1.9-0.8,2.9-0.4c2.2,0.8,3.6-0.2,3.7-2.6c0-1.7,0.1-3.4,0.2-5.1c0.2,0,0.3,0,0.5,0
			c0.3,0.7,0.5,1.4,0.8,2.1c0.2,0,0.3-0.1,0.5-0.1c-0.2-0.9-0.5-1.8-0.7-2.7c1.2,0.6,2.3,1.1,3.5,1.6c0.7-2,1.3-3.9,1.9-5.7
			c0.2,0,0.4,0,0.6,0c0.2,0.5,0.5,1,0.8,1.6c1.7-1.9,2.9-4,2.7-6.9c0.5,1.3,1,2.7,1.5,4.2c1.9-2.9,3.7-5.7,5.6-8.5
			c0.1,0.6,0.3,1.4,0.6,2.5c1.1-1.5,2-2.8,2.9-4c0.1,0.1,0.3,0.1,0.4,0.2c-1.1,2.1-2.3,4.3-3.6,6.7c2.5-1.3,3.8-3.3,4.9-5.4
			c1-2.2,2.2-4.3,3.7-6.3c-0.2,0.7-0.5,1.4-0.7,2.1c-0.2,0.8-1.3,1.6-0.2,2.6c0.1,0.1-0.5,1.2-0.6,2.1c2.3-1.5,4.5-3.1,6.8-4.6
			c1,0.6,1.2,1.3-0.1,2.1c0.2,0.1,0.3,0.2,0.5,0.3c2.4-1.2,4.7-2.3,7.2-3.5c0.2,0.5,0.3,0.8,0.3,0.9c2.2-0.4,4.3-0.9,6.4-1.3
			c0.1,0.2,0.1,0.4,0.2,0.6c-0.5,0.4-1.1,0.9-1.7,1.3c1.8,0.4,3.6-2.7,5.6,0.3c-1.6,0.7-3.2,1.4-4.7,2.1c0.1,0.2,0.1,0.3,0.2,0.5
			c1-0.3,2-0.6,3-0.9c1.6-0.4,3.1-1,4.7,0.4c0.6,0.5,2,0.2,3.3,0.3c-0.6,0.4-1,0.6-1.6,1.1c1.9,0,3.6,0,5.4,0
			c-1.5,2.3-4,1.2-5.9,2.5c2.2,0.3,4.1,0.6,6,0.9c0,0.1,0,0.3,0,0.4c-1.1,0.1-2.3,0.2-3.4,0.4c0,0.2-0.1,0.3-0.1,0.5
			c2.5,0.9,5.1,1.8,7.6,2.7c-0.1,0.3-0.1,0.6-0.2,0.9c-0.8-0.1-1.7-0.1-2.5-0.3c-5.4-1.7-10.6-3.9-16.1-5.2
			c-12.3-3.1-22.8,1.3-32.2,8.9c-1.5,1.2-1.2,2.9,0.7,5.1c0.8-1.9,1.6-3.8,2.4-5.7c0.8,0.8,1.5,1.6,2.1,2.3c4-3.1,8-6.2,11.9-9.3
			c0.1,0.1,0.2,0.2,0.2,0.3c-0.2,0.2-0.5,0.5-0.6,0.7c-0.2,0.5-0.5,1.1-0.3,1.4c0.2,0.3,1,0.5,1.4,0.3c1.9-0.6,3.7-1.4,5.6-2
			c1.6-0.6,3.3-1.1,5-1.6c0.1,0.2,0.2,0.4,0.3,0.6c-2.4,1.5-4.7,2.9-7.1,4.4c4.6-1,8.7-4.4,14.1-2.6c-1.9,1.9-4.5,2.2-7.3,3.5
			c4.8-0.1,8.6-3.3,13-2.1c0.1,0.2,0.1,0.3,0.2,0.5c-1.3,0.6-2.5,1.2-4,2c2.7-0.3,5.1-0.5,7.6-0.8c0.1,0.2,0.1,0.4,0.2,0.6
			c-0.8,0.4-1.5,0.8-2.3,1.2c0.7,1.5,0.7,1.5,2.6,1.6c1.2,0.1,2.5,0.2,3.7,0.3c0,0.2,0.1,0.4,0.1,0.6c-0.7,0.3-1.4,0.6-2.2,0.9
			c2.5,0.2,4.9,0.5,7.3,0.7c0,0.2,0,0.5,0,0.7c-1.3,0.2-2.7,0.3-4,0.5c1.7,1.9,4.9,1.1,6.3,4c-1.6-0.2-2.9-0.3-4.1-0.4
			c0,0.1-0.1,0.2-0.1,0.3c2.3,0.7,4.6,1.4,7,2.1c0,0.2-0.1,0.4-0.1,0.5c-0.8-0.1-1.7-0.2-2.9-0.3c0.7,0.7,1.2,1.1,1.6,1.5
			c-0.1,0.2-0.1,0.3-0.2,0.5c-1.6-0.5-3.1-0.9-4.7-1.4c0,0.1-0.1,0.2-0.1,0.3c1,0.7,2,1.5,2.9,2.2c-0.1,0.2-0.2,0.4-0.2,0.6
			c-0.6-0.1-1.3-0.1-1.8-0.4c-2.7-1.6-5.4-3.3-7.9-5c-2.4-1.6-4.7-3-7.7-3.5c-1.3-0.2-2.4-0.9-3.8-1.2c1.2,0.8,2.4,1.7,3.6,2.5
			c-0.1,0.2-0.2,0.3-0.3,0.5c-3.2-1.6-6.4-3.2-9.8-4.9c0,0.8,0,1.2,0,1.9c-1.6-0.9-3.1-1.7-4.6-2.4c-0.1,0.2-0.2,0.4-0.4,0.6
			c0.8,0.7,1.5,1.4,2.3,2.1c-0.1,0.1-0.1,0.2-0.2,0.3c-2.5-1.3-5-2.6-7.5-3.9c-0.1,0.2-0.2,0.3-0.3,0.5c0.3,0.3,0.6,0.6,1,0.9
			c-0.2,0.2-0.3,0.3-0.5,0.3c-0.4,0.1-0.8,0.2-1.1,0.1c-2.8-1.5-5.2,0.3-7.7,1c-0.3,0.1-0.8,0.2-0.8,0.4c0.1,2.1-2.2,2-3.3,3.3
			c0.8-0.2,1.3-0.3,1.8-0.5c2.6-0.9,2.9-0.7,3.6,2.1c0.1,0.3,0.1,0.5,0.2,0.9c1.4-0.8,2.8-1.6,4.1-2.4c0.1,0.1,0.2,0.2,0.4,0.3
			c-0.5,0.6-1,1.2-1.5,1.7c-0.6,0.6-1.3,1-1.8,1.8c2.4-1,4.8-2.1,7.2-3.1c0.4-0.2,1-0.6,1.3-0.5c2,0.8,3.6-0.4,5.3-0.9
			c0.5-0.2,1.3-0.7,1.4,0.6c0,0.3,0.9,0.5,1.6,1c-0.7,0.6-1.3,1.2-1.9,1.7c3.4-0.3,6.7-0.6,10.3-0.9c-1.6,2.2-4,2-5.9,3.2
			c3.7-0.3,7.3-0.5,11-0.8c0.1,0.2,0.1,0.5,0.2,0.7c-3.8,1.1-7.6,2.3-11.5,3.4c5.2,0.6,10.5-0.6,15.6,1.2c0,0.2,0,0.4,0,0.5
			c-3.7,0.3-7.4,0.6-11.2,0.8c0,0.1,0,0.2,0,0.3c0.5,0.1,1.1,0.3,1.6,0.3c2.6,0.2,5.2,0.4,7.8,0.4c2,0,3.7,0.3,4.7,2.3
			c0.2,0.4,0.7,0.6,1.3,1.2c-3.1,0-5.9,0-8.6,0c0,0.2-0.1,0.4-0.1,0.6c3.7,1,7.4,1.9,11.2,2.9c-0.2,0.7-0.4,1.2-0.6,1.7
			c-1.3-0.1-2.4-0.2-3.6-0.3c0,0.2-0.1,0.4-0.1,0.6c1.3,0.5,2.6,0.9,4,1.3c1.4,0.4,2.4,1,2.4,2.9c-2.6-1-5.1-1.9-7.8-2.8
			c0.6,1.6,1.1,2.9,1.7,4.3c-1.9,0.4-3.5,0.8-5.1,1.1c0,0.1,0,0.3,0,0.4c3.2,0.2,6.4,0.4,9.6,0.6c0,0.2,0,0.4,0,0.5
			c-0.5,0.2-1,0.4-1.6,0.6c2.5,0.8,5,1.5,7.5,2.3c0,0.2,0,0.3,0,0.5c-2.1,0.3-4.3,0.7-6.8,1.1c1.8,0.8,3.4,1.5,5,2.2
			c0,0.1-0.1,0.3-0.1,0.4c-1.6-0.4-3.3-0.8-4.9-1.2c-0.1,0.2-0.1,0.3-0.2,0.5c3.6,1.4,7.1,2.8,10.7,4.2c0,0.1,0,0.2,0,0.4
			c-0.7,0.1-1.4,0.3-2.3,0.5c0.8,0.8,2.3,1.1,1.4,2.5c0,0.1,0.5,0.6,0.9,0.8c1.8,1.2,3.7,2.3,5.6,3.5c-0.5,0.3-0.9,0.6-1.2,0.8
			c-0.1,0.1-0.1,0.2-0.1,0.2c0.4,1,0.8,2.1,1.1,3.1c0.2,0.6,0.3,1.2,0.5,1.7c-0.7,0.1-1.4,0.3-2.3,0.5c-0.1,0.1-0.2,0.6-0.4,1
			c-0.2-0.1-0.4-0.1-0.5-0.2c-1.4-1.6-3.2-3.1-4.2-4.9c-2.7-4.7-6.2-8.6-10.5-11.8c-3.9-2.9-7.4-6.7-12.1-8.5
			c-3.4-1.3-6.8-2.4-10.3-3.4c-1.2-0.3-2.6-0.1-3.3-0.1c-0.7,1.6-1.3,2.8-1.9,4.1c1.6,0.4,3.4,0.8,5.5,1.3c0.3,1,0.6,2.2,0.9,3.3
			c2.2,0,4.3-0.1,6.4,0c0.6,0,1.8,0,1.3,1.3c0,0.1,0.7,0.5,1.1,0.6c0.8,0.2,1.6,0.3,2.4,0.8c-0.6,0.2-1.2,0.4-2.3,0.8
			c5.3,1.4,10.1,2.7,14.9,3.9c-2.2,1.3-5,0.2-7.4,0.7c3.6,2.3,7.3,4.7,10.9,7.1c0.7,0.4,1.4,0.8,1.9,1.3c0.4,0.4,0.6,1.1,0.9,1.7
			c-0.2,0.1-0.3,0.2-0.5,0.4c2.7,1.6,5.3,3.2,8,4.8c-0.1,0.2-0.2,0.5-0.3,0.7c-1.1-0.3-2.1-0.6-3.2-1c-1-0.4-2-0.9-3.1-1.3
			c-0.1,0.2-0.2,0.4-0.3,0.5c2.5,2.2,4.9,4.3,7.1,6.3c0.4,1,0.5,1.9,1,2.6c0.6,0.8,1.4,1.5,2.1,2.3c1,1,2.4,1.8,1.7,3.7
			c-0.2,0.5,0.6,1.5,1.1,2.1c0.4,0.5,1,0.9,1.7,1.5c-0.8,0-1.3,0-1.9,0c0,0.7,0,1.2,0,2.4c-1-0.9-1.8-1.4-2.4-2.1
			c-2.9-3.6-5.8-7.2-8.6-11c-5.7-7.7-12.1-14.6-19.9-20.1c-2.2-1.6-4.7-2.9-7.2-4.1c-1.1-0.5-2.4-0.3-3.7-0.5
			c-1.2-0.2-2.4-0.4-3.5-0.6c-1-0.2-2-0.5-3.1-0.7c-0.1,0.2-0.1,0.4-0.2,0.6c1.3,0.6,2.6,1.3,3.9,1.9c1,0.5,2.8,0.9,2.8,1.4
			c0.1,1.8,2,1.3,2.6,2.4c-0.4,0.5-2.2-0.2-1.3,1.6c-1.3-0.3-2.1-0.6-3-0.8c-0.1,0.1-0.1,0.2-0.2,0.4c1.5,0.9,3,1.8,4.8,2.9
			c-0.7,0.7-1.2,1.3-1.8,1.9c0.8,0.7,1.2,1.6,0.3,3c-0.3,0.5,0.2,1.7,0.6,2.5c0.3,0.6,0.8,1.2,1.2,1.8c-0.1,0.1-0.2,0.2-0.3,0.3
			c-1.7-1.6-3.5-3.3-5.2-4.9c-0.1,0-0.2,0.1-0.4,0.1c0.2,1.2,0.4,2.5,0.6,3.7c-2.1-0.1-2.7-0.9-3.3-3.8c-1.6-0.5-3.2-1-4.8-1.5
			c0.4,1.6,2.9,3,1.1,5.6c-1.7-2.2-3.4-4.4-5.1-6.5c-0.1,0-0.2,0.1-0.3,0.1c0.2,1.8,0.4,3.6,0.6,5.4c-0.1,0.1-0.3,0.3-0.4,0.4
			c-1.1-0.8-2.1-1.7-3.5-2.8c0-1.2,0-2.9-2.1-3.6c-0.4-0.1-0.5-1.1-0.7-1.7c-0.5,0-1.1,0.1-2,0.2c0.1-1.3,0.3-2.4,0.4-3.8
			c-0.6,0.4-1,0.6-1.6,1c-0.2-0.5-0.3-1-0.4-1.3c-1-0.2-2-0.4-3.1-0.6c0.7-2.5,1.5-5,2.3-7.6c-0.1-0.1-0.3-0.2-0.4-0.3
			c-1.9,1.3-2.4,3.8-3.9,5.5c-1.7-2.1,0.1-3.8,0.6-5.6c-0.1-0.1-0.3-0.2-0.4-0.2c-0.7,1-1.3,2-2.1,3.2c-0.5-1-1-1.8-1.4-2.7
			c-2.3,0.2-4.9-0.1-6.1,2.6c-1.2-0.8-2.2-1.5-3.2-2.2c-0.1,0.2-0.3,0.3-0.4,0.5c1.8,2,3.6,3.9,5.6,6.1c-0.7,0.8-1.3,1.5-2.2,2.5
			c0,0.1,0.3,0.5,0.8,1.5c-0.8-0.1-1.5,0-1.8-0.3c-1-1-1.8-2.1-2.8-3.4c0,2.4,0,4.6,0,6.7c0.5,0.3,1.2,0.7,2.4,1.3
			c-1.6,0.5-2.7,0.9-3.9,1.3c0,0.2,0.1,0.3,0.1,0.5c1.7-0.2,3.3-0.4,5.3-0.6c-1.8,2.9-5,1.5-7,3.3c2.8,0,5.6,0,8.4,0
			c0,0.2,0,0.4,0,0.6c-3,2.1-6.8,1-9.9,2.6c3.6-0.3,7.1-0.5,10.7-0.8c0.1,0.2,0.1,0.3,0.2,0.5c-0.8,0.5-1.7,1.1-2.5,1.6
			c3.9,0.5,6.1,2,5.2,3.8c0.4,0.2,0.8,0.4,1.1,0.6c0,0.2,0,0.4,0,0.6c-5.2,0.3-10.3,0.6-15.5,0.9c0,0.2,0,0.4-0.1,0.6
			c5.7,0.8,11.3,1.6,17,2.4c0,0.3,0,0.5,0,0.8c-1,0.2-1.9,0.3-2.9,0.5c0.6,0.1,1.2,0.2,1.8,0.3c0,0.1,0,0.2,0,0.4
			c-3.1,0-6.2,0-9.3,0c0,0.2,0,0.4,0,0.7c3.7,0.3,7.5,0.6,11.5,1c-0.2,1.2-0.3,2.2-0.5,3.5c-4.2-0.6-8.4-1.1-12.5-1.7
			c-0.1,0.3-0.1,0.5-0.2,0.8c4.7,1,9.4,2,14.4,3.1c-2.4,2.4-4.9,2.2-7.5,1.9c2.1,0.6,4.3,1.2,6.4,1.8c0,0.2-0.1,0.4-0.1,0.6
			c-2.6,1.1-5.2-0.5-8.2-0.4c3,1.7,6.5,1.3,9.2,4.2c-1.1-0.1-1.7-0.1-2.5-0.2c0.1,0.4,0.3,0.8,0.4,1.4c-0.7-0.1-1.3-0.2-1.9-0.3
			c0,0.1-0.1,0.1-0.1,0.2c1.3,0.6,2.7,1.3,4,2c-0.5,0.9-1.1,1.7-1.7,2.6c-0.6-0.2-1.5-0.4-2.3-0.6c-0.1,0.1-0.1,0.2-0.2,0.3
			c0.8,0.6,1.5,1.3,2.3,1.9c-0.1,0.1-0.2,0.3-0.3,0.4c-0.7-0.1-1.3-0.2-2-0.4c-0.1,0.1-0.1,0.2-0.2,0.3c1,0.9,2,1.8,3.1,2.7
			c-1.3,0.6-2.3,1-3.5,1.5c0.8,0.9,1.6,1.6,2.4,2.6c-0.6,0.1-1.1,0.2-1.6,0.3c0.3,0.7,0.5,1.3,0.8,2.1c-0.9-0.4-1.8-0.9-3.1-1.5
			c1,1.3,1.9,2.4-0.1,3c0.5,0.8,0.9,1.4,1.3,2.1c-0.1,0.1-0.1,0.1-0.2,0.2c-0.6-0.3-1.1-0.7-1.7-1c-0.1,0.1-0.1,0.1-0.2,0.2
			c0.5,0.7,0.9,1.3,1.2,1.6c-0.1,1.4-0.2,2.4-0.3,3.5c-0.1,0-0.3-0.1-0.5-0.1c-0.2,0-0.4,0-0.2,0c0.2,2.4,0.3,4.6,0.5,6.9
			c0.2,1.5,0.4,3,0.9,4.4c3.5,10.8,6.6,21.8,9.5,32.8c2.9,11.1,4,22.3,5.4,33.5c1.7,13.5,2.6,27.1,3.9,40.7c0.4,4.6,1,9.2,1.5,13.9
			c0.2,1.6,0.3,3.2,0.4,5.1c2.2,0.3,4.5,0.6,6.8,1c9,1.4,18,3,27,4.3c12.5,1.8,25.1,2,37.7,0.7c14.7-1.5,29.2-3.7,43.6-6.6
			c0.3-0.1,0.7-0.1,1.1,0.2c-0.5,0.2-0.9,0.4-1.4,0.5c-16.1,5.5-32.4,10.1-49.2,13.2c-16.5,3-32.7,2.5-48.9-2.3
			c-4.6-1.4-9.6-1.8-14.4-2.6c-0.6-0.1-1.2,0-1.9,0c1.3,24.2,4.2,48,7.8,71.8c-4.3,0.9-8.6-1.7-9.1-6.1c-1.6-12.4-3.1-24.8-4.5-37.2
			c-0.6-5.4-1-10.8-1.5-16.2c-0.4-4.1-0.8-8.2-1.2-12.5c-10.2,0.2-20.2,1.3-30.1,2.7c-10,1.4-19.9,3-29.9,4.4
			c19.5-6.2,38.9-12.5,59.4-15.6c-0.3-3.7-0.4-7.5-0.8-11.3c-1.3-14.1-2.7-28.2-4-42.3c-2-21-5.9-41.6-12.6-61.7
			c-1.1-3.2-1.9-6.5-2.8-9.7c-0.2-0.7-0.5-1.5-0.7-1.9c-0.9,0.3-1.6,0.6-2.3,0.9c-0.3-1-0.5-2-0.9-3.2c0,0-0.4,0.1-0.8,0.2
			c-0.3-1.2,0.5-2.7-1-3.6c-0.3-0.2,0.1-1.5,0.2-2.5c-0.5,0.5-0.9,0.8-1.5,1.4c-0.1-0.7-0.2-1.2-0.3-1.6c-0.4,0-0.8,0-1.2,0
			c0.6-1.6,1.2-3.1,1.8-4.7c-2.1,1.1-4.3,0-4.1-2.2c0.2-1.8,1.1-3.5,1.7-5.2c0.3-0.9,0.5-1.8,0.7-2.7c-0.2-0.1-0.5-0.2-0.7-0.3
			c-1.4,1.5-2.7,3.1-4.2,4.8c-0.4-1.3-0.7-2.3-0.9-3.3c-0.1,0-0.3,0.1-0.4,0.1c-0.2,1.3-0.5,2.5-0.7,3.9c-0.6-0.1-1.1-0.1-1.2-0.2
			c0,2.4,0,4.8,0,7.3c-0.6-0.7-1.1-1.2-1.6-1.8c-0.1,0.1-0.2,0.1-0.3,0.2c0.2,1.5,0.4,3,0.6,4.4c-0.2,0.1-0.4,0.1-0.7,0.2
			c-0.8-1.7-1.6-3.3-2.5-5.4c-0.7,2-1.2,3.6-1.9,5.6c-2.4-3.5-1.1-6.7-0.9-10c-0.9,1.1-1.8,2.3-2.8,3.5c-1.1-3.1,0.9-5.3,1.9-8
			c-1.2,0.8-2.2,1.5-3.2,2.1c-0.2-0.2-0.4-0.3-0.6-0.5c0.7-1.7,1.5-3.3,2.2-5c-0.1-0.1-0.2-0.2-0.3-0.2c-0.6,0.4-1.2,0.8-1.9,1.2
			c-0.5-0.6-0.2-2-1.6-1.6c-0.1,0-0.6-1.2-0.7-1.8c-0.1-1,0.1-2,0.2-3.1c-0.8,0.3-1.3,0.5-1.8,0.7c-0.2-0.1-0.4-0.3-0.5-0.4
			c0.4-1.3,0.9-2.6,1.2-3.7c-0.9-0.3-1.8-0.7-2.9-1.1c0.8-1.5,1.5-2.9,2.4-4.6c-1,0.4-1.7,0.6-2.8,1c0.4-0.9,0.6-1.3,0.8-1.9
			c-0.6,0.2-1,0.4-2.1,0.7c1.3-3.7,2.5-7,3.7-10.4c-1.3,1.1-2.6,2.3-4.2,3.7c-0.7-3.6,2.4-4.2,3.3-6.3c-1.5,1.2-3.1,2.4-4.6,3.7
			c-0.1-0.1-0.2-0.2-0.3-0.3c0.8-1.6,1.6-3.1,2.4-4.7c-0.1-0.1-0.1-0.3-0.2-0.4c-3.5,3.2-7.9,3-12.2,3.2c1.7,1.7,4.6,1,5.3,3.4
			c-1.8,0.1-3.6,0.3-5.8,0.4c1.4,1.1,2.5,1.9,3.4,2.6c-2,0.1-4,0.2-6,0.3c-0.1,0.2-0.1,0.3-0.2,0.5c1.4,1,2.9,2,4.3,3
			c-0.1,0.2-0.2,0.3-0.3,0.5c-0.7-0.2-1.4-0.4-2.5-0.6c0.9,1.1,1.6,2,2.3,2.9c-0.1,0.1-0.2,0.3-0.2,0.4c-1.7-0.5-3.3-0.9-5.5-1.5
			c0.9,1.1,1.4,1.8,2.2,2.9c-0.9-0.2-1.4-0.3-2.1-0.4c0.8,1.7,1.6,3.2,2.3,4.7c-0.1,0.1-0.2,0.2-0.3,0.3c-1.2-0.8-2.5-1.6-3.7-2.5
			c0.6,2.1,0.6,4.5,2.3,6.2c-0.1,0.1-0.3,0.2-0.4,0.2c-1.1-0.8-2.3-1.6-3.4-2.5c-0.1,0.1-0.2,0.1-0.3,0.2c0.8,2.1,1.6,4.2,2.5,6.6
			c-0.7,0-1,0-1.4,0c0.1,0.7,0.1,1.2,0.3,2.1c-0.7-0.6-1.1-0.9-1.8-1.4c0.4,1.5,0.7,2.7,1,3.9c-0.2,0.1-0.3,0.1-0.5,0.2
			c-0.8-1.2-1.6-2.4-2.7-4.1c0.4,1.7,0.6,2.8,0.9,4.2c-0.6-0.4-1-0.7-1.4-0.9c0.5,2.7,1.1,5.4,1.6,8.1c-0.2,0.1-0.5,0.2-0.7,0.2
			c-0.4-1-0.9-2-1.3-3.1c-1.3,1-1,2.2-0.7,3.4c0.3,1.2,0.4,2.3,0.6,3.5c-0.2,0.1-0.5,0.1-0.7,0.2c-0.6-1.9-1.1-3.8-1.7-5.7
			c-0.1,0-0.2,0-0.3,0c0.1,0.8,0.1,1.6,0.3,2.4c0.5,2,1.3,3.9,1.7,5.9c0.5,2,0.4,3.9-1.3,5.7c-0.2-0.8-0.4-1.4-0.7-2.5
			c-0.5,1-0.7,1.6-1.2,2.7c-0.6-1.4-1.1-2.5-1.5-3.5c-0.1,0-0.2,0-0.3,0c0,4.5,0,9,0,13.6c-0.2,0-0.3,0.1-0.5,0.1
			c-0.3-2.1-0.6-4.3-1-6.4c-0.1,0-0.2,0-0.2,0c0,0.6,0,1.2,0,1.8c0,2,0.2,3.9-1.1,5.7c-0.6,0.9-0.4,2.3-0.6,3.5
			c-1.5,16.4-2.9,32.8-4.3,49.2c-1.1,12.3-1.9,24.7-0.1,37c0.3,2.3,0.7,4.5,1.2,6.8c0.4,1.9,0,3.3-1.5,4.5c-1.6,1.3-3.3,2.3-5.4,0.9
			c-1.4-0.9-2.9-1.2-4.4,0.2c-7.6-10.1-15-20.2-21.1-31.5c1.2-0.6,2.3-1.2,3.4-1.8c-0.1-0.1-0.1-0.3-0.2-0.4c-1.3,0.3-2.6,0.7-4,1
			c-0.8-1-0.7-1.7,0.6-2.1c3.3-1.2,6.7-2.4,10-3.6c1.2-0.4,1.8,0.4,2.3,1.2c1.2,2.2,2.4,4.3,3.6,6.5c0.3,0.5,0.6,1,1.2,1.8
			c0.2-0.8,0.3-1.2,0.3-1.6c0-3.1-0.1-6.2,0-9.2c0-1.1,0.6-2.2,1-3.3c-0.2-0.8-0.8-1.8-0.7-2.7c1.1-10.2,2.3-20.4,3.6-30.6
			c0.8-6.4,1.8-12.8,2.6-19.2c0.4-2.7,1.5-5,3.1-7.2c1.8-2.5,3.2-5.4,4.6-8.2c0.3-0.5-0.3-1.4-0.5-2.2c-0.7,0.1-1.3,0.2-1.8,0.2
			c0.2-1.1,0.8-2.6,0.4-3.1c-1.9-2,0-3.9-0.4-6.4c-0.9,2.2-1.6,4-2.1,5.3c-0.1-0.8-0.2-1.7-0.2-2.7c-0.7,0.5-1.3,1.1-2,1.6
			c0.5-1,1-2,1.4-3c-0.7,0.1-1.2,0.2-1.8,0.3c0.1-0.9,0.1-1.8,0.2-2.7c-0.4,0.3-0.9,0.7-1.5,1.1c-1.5-1.7,1-2.6,0.6-4.1
			c-0.2,0-0.6,0-1.3,0c0.6-2,1.2-3.8,1.7-5.5c-0.7,0.1-1.5,0.2-2.3,0.3c0-0.1-0.1-0.3-0.1-0.4c1.7-1.4,3.4-2.9,5-4.3
			c-0.2-0.2-0.3-0.4-0.5-0.6c-0.4,0-0.8,0.1-1.3,0.1c0-0.3,0.1-0.6,0.1-0.9c-0.8,0.1-1.6,0.1-2.4,0.2c-0.1-0.2-0.2-0.4-0.2-0.6
			c3.1-2.9,6.2-5.7,9.4-8.7c-1.8,0.4-3.6,0.1-4.8,1.6c-0.2,0.2-0.9,0.2-1.3,0c-0.2-0.1-0.1-0.7-0.1-1.1c0-0.2,0.4-0.6,0.3-0.6
			c-1.4-1.3,0.2-2,0.8-3.4c-1.9,0.8-3.4,1.5-4.9,2.1c-0.1-0.1-0.2-0.3-0.2-0.4c0.4-0.3,0.9-0.5,1.3-0.9c0.4-0.3,0.8-0.8,0.9-1.2
			c0-0.3-0.7-0.6-1.3-1.1c2.3-1.4,4.6-2.9,6.9-4.3c0-0.1-0.1-0.2-0.1-0.3c-1.3,0.5-2.7,1-4,1.6c-0.1-0.1-0.1-0.3-0.2-0.4
			c2.9-1.7,5.7-3.5,8.6-5.2c0-0.1,0-0.2-0.1-0.2c-2.1,0.8-4.3,1.7-6.4,2.5c-0.1-0.1-0.2-0.3-0.2-0.4c0.5-0.4,0.9-0.7,1.6-1.3
			c-1,0.1-1.7,0.2-2.7,0.3c1.5-3.3,5.1-3.6,7.7-5.5c-0.5-0.2-0.8-0.2-1-0.4c-0.4-0.2-0.7-0.6-1-0.8c0.3-0.3,0.5-0.8,0.8-0.8
			c2.1-0.5,3.7-1.5,5.3-3c0.9-0.8,2.3-0.9,3.6-1.6c-1.4-0.1-2.8-0.3-4.5-0.5c1.1-0.5,2-1,3.1-1.5c-0.7-0.2-1.1-0.4-2-0.6
			c2.4-0.9,4.5-1.6,6.5-2.4c0-0.1,0-0.2,0-0.3c-0.9,0-1.9,0-3.2,0c2-2.7,5.1-2.4,7.4-3.7c-1.6,0-3.3,0-4.9,0c0-0.2-0.1-0.3-0.1-0.5
			c0.8-0.2,1.6-0.3,2.4-0.5c1-0.3,2.4,0.3,2.8-1.4c0.1-0.4,1.3-0.5,2-0.7c0.6-0.2,1.2-0.4,1.6-0.6c0-1.2,0-2.2,0-3.4
			c-3.4,0.3-6.4,1.3-8.5,4.2c-2.2-0.5-2.9-0.1-4.4,2c-0.5,0.8-1.6,1.2-2.5,1.6c-0.5,0.3-1.2,0.3-1.7,0.5c-0.5,0.1-1,0.3-2,0.6
			c0.7,0.4,1.2,0.6,1.6,0.8c0.5,0.2,0.9,0.5,1.8,1c-2.4,0.2-4.4,0.4-6.3,0.5c0,0.2,0,0.4,0,0.6c0.4,0.3,0.7,0.5,0.8,0.6
			c0.1,1.5,0.2,2.6,0.3,3.9c-1-0.5-1.9-0.9-2.8-1.3c-1.3,2.9-1.4,3.4-0.3,5.9c-1.3-0.7-2.3-1.3-3.6-2c0.1,1.6,0.3,3,0.4,4.5
			c-0.6-0.3-1.2-0.6-2.1-1.1c0.3,1.5,0.6,2.8,0.9,4.5c-0.7-0.4-1-0.6-1.5-0.9c-0.2,0.5-0.5,1-0.7,1.5c-0.9-0.4-1.7-0.9-2.6-1.3
			c-0.4,2.9-0.7,5.6-1,8.4c-0.2,0-0.4,0-0.6,0c-0.2-0.4-0.5-0.9-0.9-1.7c-0.2,2.4-0.4,4.3-0.6,6.3c-0.2,0-0.4,0-0.6,0
			c-0.3-0.7-0.6-1.3-0.9-2c-0.1,0-0.3,0-0.4,0c-0.2,3.2-0.5,6.3-0.7,9.8c-0.5-1.1-0.9-1.8-1.4-2.9c-1.5,2.8-0.3,5.3-1,7.7
			c-0.2-1.1-0.5-2.1-0.7-3.2c-1,3.2,0,7.2-3.7,9.7c-0.1-1.2-0.1-2.2-0.2-3.7c-1.1,1.6-1.9,2.9-2.9,4.5c-0.4-1.3,0.8-2.8-1.3-2.6
			c1.3-2.4,2.5-4.7,3.8-7.1c-1.4,0.6-2.5,1.1-3.6,1.6c-0.1-0.2-0.3-0.3-0.4-0.5c2.6-3.2,5.1-6.3,7.7-9.5c-0.1-0.1-0.2-0.2-0.3-0.3
			c-0.9,0.6-1.7,1.3-2.7,2c-0.3-0.5-0.4-0.9-0.6-1.3c-0.3,0.2-0.7,0.4-1,0.6c-1.2-1-1.1-2.2,0.4-3.5c1-0.9,2-1.8,3.3-2.9
			c-2.1,0.9-3.8,1.6-5.5,2.3c-0.1-0.3-0.3-0.5-0.4-0.8c2.5-1.7,5-3.4,7.5-5.2c-0.1-0.1-0.2-0.3-0.2-0.4c-1.6,0.6-3.2,1.1-5.2,1.8
			c1-2.8,3.2-3.6,5-5.2c-0.8-0.1-1.4-0.2-1.9-0.3c0-0.2-0.1-0.3-0.1-0.5c2.9-1.6,5.8-3.2,8.7-4.7c0-0.1-0.1-0.3-0.1-0.4
			c-2.6,0.5-5.2,1-7.8,1.6c-0.1-0.2-0.1-0.4-0.2-0.6c2.3-1,4.6-2,6.9-3.1c0-0.2-0.1-0.3-0.1-0.5c-0.9,0.1-1.8,0.3-2.6,0.4
			c-0.7,0.1-1.5,0.4-2.1,0.2c-1.9-0.7-2.5,0.6-3.4,1.7c-6.9,8-11.7,17.2-16.1,26.7c-0.9,1.9-1.3,4-2.1,6c-0.3,0.7-0.7,1.4-1.2,2.3
			c-0.5-0.7-0.8-1.1-1-1.4c-1.2,1.5-2.4,2.9-3.6,4.3c-0.2-0.1-0.3-0.2-0.5-0.3c0.6-1.4,1.2-2.7,1.9-4.3c-0.8,0.1-1.4,0.1-2.5,0.2
			c1.9-2.5,3.6-4.7,5.4-7.1c-0.8,0.1-1.3,0.2-1.9,0.3c-1.1-3,1.5-4,2.9-5.5c-1.2-0.8-1.3-1.4-0.1-2.4c1.7-1.3,3.2-2.8,4.6-4.3
			c0.4-0.4,0.6-1.1,0.8-1.7c-0.2-0.2-0.3-0.3-0.5-0.5c-0.9,0.8-1.8,1.6-2.8,2.4c-1.7-0.6-2.4-0.3-3.3,1.6c-1.2,2.6-2.2,5.4-3.4,8
			c-0.8,1.7-1.8,3.4-2.9,5c-0.3,0.4-1.2,0.6-1.7,0.6c-0.4-0.1-0.6-0.8-1-1.4c-0.1,0-0.5,0.2-0.9,0.3c0-0.2-0.2-0.4-0.1-0.5
			c0.6-1.6,1.2-3.1,1.8-4.7c0.2-0.7,1.1-1.5-0.4-1.9c-0.1,0-0.1-1.4,0.2-1.9c1.8-2.5,3.8-4.8,5.7-7.2c0.3-0.4,0.5-0.7,1.1-1.6
			c-1.9,0.3-3.3,0.5-5.1,0.7c2.6-2.1,4.9-4,7.1-5.8c-0.7-0.4-1.2-0.7-1.7-1c0.4-0.6,0.6-1.3,1.1-1.7c3-2,6.1-4,9.1-6
			c0.5-0.3,0.9-0.7,1.1-1.4c-1.9,0.8-3.9,1.6-5.8,2.4c-0.2-0.2-0.3-0.5-0.5-0.7c2.2-2.4,4.4-4.7,6.5-7.1c0.2,0.1,0.4,0.2,0.5,0.4
			c-1.3,0.1-2.5,0.2-3.8,0.3c0-0.1,0-0.2-0.1-0.4c1.4-0.5,2.8-1,4.4-1.6c-0.7-0.4-1.2-0.7-1.7-1c0.7-0.6,1.4-1.2,2.2-1.8
			c-0.1-0.1-0.2-0.3-0.2-0.4c-1,0.4-2,0.9-2.9,1.3c-0.1-0.1-0.2-0.2-0.3-0.3c1.5-1.6,3.1-3.2,4.5-4.9c0.6-0.8,2-1.2,1.4-2.7
			c-0.1-0.3,1-1.1,1.6-1.6c1.1-0.9,2.3-1.8,3.5-2.8c-0.1-0.2-0.2-0.3-0.3-0.5c-0.9,0.4-1.7,0.7-2.6,1.1c-0.1-0.1-0.2-0.2-0.3-0.3
			c0.7-0.9,1.4-1.8,2.2-2.8c-0.3-0.2-0.7-0.5-1.1-0.8c1-1.7,4.3-1.6,3.5-4.6c2.5-1,5-2.1,7.6-3.2c0-0.2-0.1-0.3-0.1-0.5
			c-1.4,0.2-2.8,0.4-4.1,0.6c-0.1-0.1-0.2-0.2-0.3-0.4c0.4-0.2,0.9-0.3,1.5-0.6c-3.1-1.4-8.3,1.2-12.6,5.3c-0.5,0.2-1.3,0.1-1.6,0.5
			c-1.8,2.2-3.5,4.4-5.1,6.8c-1.4,2.1-2.6,4.3-4.1,6.9c0-1.2,0-1.9,0-2.9c-0.7,0.5-1.1,0.8-1.6,1.1c-1.1,0.7-1.9,1.6-3.5,1.7
			c-1.4,0.2-2.8,1.6-3.8,2.9c-1.3,1.6-2.2,3.4-3.2,5.2c-1.9,3.5-4,5.9-7.4,7.3c0.8-1.4,1.5-2.8,2.3-4.2c-0.2-0.1-0.4-0.2-0.5-0.4
			c-0.7,0.4-1.5,0.7-2.2,1.1c-0.1-0.1-0.2-0.1-0.3-0.2c0.7-0.9,1.4-1.9,2.2-2.8c0.8-0.9,1.7-1.7,2.6-2.5c-1.6-1.1-1.6-1.5-0.1-2.6
			c2.2-1.7,4.4-3.3,6.5-5.2c0.8-0.7,1.1-2,1.6-3c-1.3-0.6-1.6-1.5-0.5-2.4c0.8-0.6,1.9-1,3.2-1.6c-1.1-0.2-1.7-0.2-2.6-0.4
			c1.4-3.3,4.6-2.2,6.9-3.2c-0.9-0.6-1.7-1.2-2.8-2c1.5-0.4,2.5-0.7,3.7-1c-0.4-0.3-0.6-0.4-1-0.7c1.9-0.4,3.6-0.8,5.3-1.1
			c0-0.2,0-0.4,0-0.5c-1.5-0.3-2.9-0.5-4.6-0.8c1.6-0.9,2.9-1.7,4.6-2.6c-0.7-0.5-1-0.7-1.6-1.2c1.1-1.2,3-2.4,3-3.7
			c0.1-3,3.7-3.2,4.1-6c0.2-1.3,2.6-2.3,4.1-3.5c-1-0.2-2.1-0.4-3.2-0.6c0-0.1-0.1-0.2-0.1-0.4c1.8-0.9,3.6-1.7,5.6-2.6
			c-0.3-0.3-0.7-0.6-1.1-1c1.1,0,2,0,2.9,0c0-0.1,0.1-0.3,0.1-0.4c-1.2-0.4-2.5-0.7-3.2-0.9c3.4-1.4,7.1-3,10.8-4.6
			c-0.1-0.1-0.1-0.3-0.2-0.4c-0.7,0.1-1.5,0.1-2.2,0.2c-0.7-1.8-0.1-2.8,1.5-3.5c1.3-0.6,2.5-1.4,3.9-2.2c-0.7-0.3-1.3-0.5-2.4-0.8
			c3.9-1.6,7.3-3.1,11-4.6c0.7,0.3,1,2.6,2.6,1.3c0.4-1.1,0.6-2,1-3.1c-2.1-0.5-4.4-1.1-6.9-1.8c0.6-0.3,1-0.5,1.8-0.9
			c-1.1-0.3-1.9-0.6-2.6-0.8c-1-0.3-2-0.5-3-0.7c-9.5-2.1-7.5-3.3-18.2,0.5c-0.8,0.3-1.6,0.4-2.5,0.3c0.6-0.3,1.2-0.7,1.9-1
			c-0.1-0.1-0.1-0.3-0.2-0.4c-1.2,0.5-2.4,0.9-3.6,1.5c-3.5,1.7-6.9,3.4-10.3,5.3c-2.5,1.3-5,2.2-8.1,1.6c0.9-0.5,1.6-0.9,2.8-1.6
			c-1.3-0.1-2.2-0.1-3.1-0.2c0-0.2,0-0.3-0.1-0.5c1.3-0.2,2.6-0.5,3.9-0.7c0-0.1,0-0.2,0-0.2c-0.5-0.1-1-0.2-1.8-0.4
			c1.5-0.9,2.9-1.7,4.5-2.6c-1.1-0.4-2-0.7-2.9-0.9c0-0.2,0.1-0.5,0.1-0.7c0.7-0.1,1.3-0.2,2-0.2c1.7-0.2,3.4,0.4,4.8-1.4
			c0.4-0.5,2-0.1,3.1,0c0.7,0,1.4,0.2,2.4,0.4c-0.8-0.6-1.2-1-1.8-1.5c1.1-0.3,2-0.5,3.4-0.8c-1.5-0.5-2.5-0.8-3.5-1.2
			c0-0.1,0-0.2,0-0.3c3-0.6,6-1.2,9-1.8c1-0.2,2.2,1,3.1-0.4c0.1-0.1,1.1,0.4,1.8,0.7c1.4,0.6,2.8,1.2,4.2,1.7
			c0.1-0.2,0.2-0.3,0.3-0.5c-0.3-0.4-0.5-0.8-0.9-1.4c4.5-0.8,8.1,2,12.2,2.5c-1.3-0.9-2.6-1.8-4.2-2.9c0.9-0.2,1.4-0.2,2.1-0.4
			c-2-2.7-5.6-0.9-7.5-3.2c0.3,0,0.6,0,0.9,0.1c-5.7-1.2-11.6-0.9-17.3-0.2c-5.8,0.7-11.5,2.5-17.4,3.5c0.9-0.8,1.7-1.5,2.7-2.3
			c-1.8-0.2-3.6-0.4-5.4-0.6c0-0.2,0-0.4,0-0.6c1.5-0.3,2.9-0.8,4.4-0.9c1.5-0.1,3,0.3,4.5,0.4c0-0.2,0-0.3,0.1-0.5
			c-2-0.5-3.9-1-6.1-1.6c1.7-1.5,3.5-1.2,5.2-0.9c2.5,0.5,4.9,1,7.4,1.6c0.1-0.2,0.1-0.3,0.2-0.5c-2.1-1.1-4.2-2.1-6.7-3.3
			c6-2,11,1.1,16.3,2.2c-2.5-1.4-4.9-2.8-7.4-4.3c4.2-1,7.6,0.7,11.1,2.5c-2-2-3.9-3.9-5.9-5.9c0.1-0.1,0.1-0.1,0.2-0.2
			c3.3,1.3,6.7,2.6,10.1,4c-0.4-0.6-0.9-1.3-1.3-1.9c0.1-0.1,0.2-0.3,0.3-0.4c3.4,2.3,6.9,4.7,10.3,7c0.1-0.1,0.2-0.1,0.3-0.2
			c-1.1-1.8-2.2-3.6-3.3-5.4c0.6-0.3,1.2-0.6,2-1c2.9,3.1,4.4,7.8,8.8,10.1c-1.3-2.5-2.6-5-4-7.5c4.9,2.3,6.8,7.1,9.9,10.6
			c-0.4-3.5-0.8-7.1-1.2-10.7c0.2,0,0.4-0.1,0.5-0.1c0.5,1.5,1,3,1.5,4.8c0.3-0.5,0.4-0.9,0.7-1.4c2.6,4.2,2.3,9.4,5.4,13.1
			c0.2,0,0.3-0.1,0.5-0.1c-0.7-2.5-1.4-4.9-2-7.4c0.1,0,0.2-0.1,0.4-0.1c0.4,0.7,0.8,1.4,1.2,2.1c0.1,0,0.3,0,0.4,0
			c0-1.8,0-3.7,0-5.5c0.2,0,0.4,0,0.6,0c0.3,2.1,0.5,4.2,0.8,6.3c0.1,0,0.2,0,0.3,0c0.1-0.7,0.1-1.4,0.2-2.4c1,1.6,1.8,3,2.6,4.4
			c0.2-0.1,0.4-0.2,0.6-0.2c0.2-1.1,0.4-2.2,0.7-3.7c1.1,2.8,2,5,2.8,7c1,0.1,2.2,0,2.7,0.5c0.7,0.7,0.8,2,1.3,3.3
			c0.3-1.1,0.6-2,0.8-2.9c0.1,0,0.3,0,0.4,0c0.1,0.7,0.3,1.4,0.3,2.1c0.1,3.9,0.1,3.9,3.9,4.1c0,0.6,0.1,1.3,0.1,2
			c0.4-0.1,0.8-0.2,1.2-0.3c0.1,0.9,0.2,1.7,0.3,2.8c0.6-0.6,0.9-1,1.5-1.6c0.2,0.7,0.4,1.2,0.5,1.7c0.3-0.2,0.6-0.4,0.9-0.6
			c0.2,0,0.3,0.1,0.5,0.1c-0.1,1-0.3,2.1-0.5,3.6c1.2-0.6,2.3-1.1,3-1.5c-1.3-1.7-2.5-3.3-4.1-5.4c1.4-0.1,2.2-0.2,3.4-0.3
			c-1-0.7-1.7-1.2-2.5-1.7c0.2-0.5,0.4-1.1,0.6-1.7c-0.8-0.6-1.5-1.2-2.5-2c0.6-0.5,1.2-1,2-1.6c-1.2-0.7-2.3-1.4-3.1-1.8
			c0.6-1.2,1.2-2.4,1.8-3.5c-0.9-0.6-1.8-1.2-2.9-1.9c0.9-0.1,1.5-0.2,1.8-0.3c-0.1-0.7-0.4-1.4-0.2-1.8c1-1.9,2.9-1.3,4.7-1.7
			c-0.9-0.4-1.8-0.8-2.7-1.2c-0.9-0.5-1.7-1.1-2.5-1.6c0.1-0.2,0.2-0.4,0.3-0.7c2.2,0.4,4.4,0.8,6.6,1.3c0.1-0.2,0.1-0.3,0.2-0.5
			c-1.8-0.9-3.6-1.7-5.3-2.5c0.8-2.1,1.5-4.1,2.3-6.2c1.4,0.6,2.5,1,3.9,1.6c0.1-1.3,0.1-2.4,0.2-3.9c0.7,0.8,1.1,1.3,1.4,1.5
			c1.5-1.8,3-3.7,4.5-5.5c0.1,0.1,0.2,0.1,0.4,0.2c0,0.5,0,1.1,0,1.5c1.3-0.4,2.4-0.7,4-1.1c-0.4,1.4-0.8,2.5-1.2,3.8
			c0.6-0.4,0.9-0.5,1.2-0.8c0.8-0.7,1.7-2.4,2.4,0.1c0.1,0.3,0.9,0.3,1.6,0.6c-0.2,0.6-0.4,1.3-0.7,2.1c1.1,0.1,1.5,0.6,0.8,1.6
			c0.8,0.2,1.4,0.3,2.4,0.5c-0.8,1.6-1.6,3.1-2.3,4.5c0.1,0.1,0.2,0.2,0.3,0.3c1-0.7,2-1.4,3-2.1c0.2,0.1,0.3,0.2,0.5,0.3
			c-0.6,1.9-1.3,3.9-2,6.1c1-0.5,1.9-0.9,2.9-1.3c-2.8,5.1-2.4,11.4-6.9,15.7c0.2,0.1,0.5,0.3,0.7,0.4c1.5-1.6,3.1-3.2,4.6-4.9
			c1.3-1.4,2-1.3,3.1,0.2c0.6,0.9,1.5,1.5,2.2,2.3c0.3-0.1,0.5-0.2,0.8-0.4c-0.4-2.9-0.8-5.8-1.1-8.8c0.6-0.2,0.6-0.2,3.7,2.2
			c-0.1-1.3-0.2-2.2-0.3-3.2c-0.1-0.8-0.4-1.7-0.2-2.5c0.5-1.8,0.7-3.5-1-5.1c0.2-0.1,0.4-0.2,0.6-0.4c0.6,0.5,1.2,1,1.8,1.6
			c0-0.1,0.1-0.2,0.1-0.3c1.1,0.4,2.3,0.9,3.6,1.4c-0.5-2.2-1-4.3-1.5-6.4c0.2-0.1,0.4-0.2,0.6-0.3c0.9,1.3,1.8,2.5,2.7,3.8
			c0.1,0,0.2-0.1,0.2-0.1c-0.7-2.4-1.4-4.8-2.1-7.2c0.2-0.1,0.4-0.2,0.7-0.3c0.8,1.3,1.7,2.6,2.7,4.1c0.4-1.2-0.3-2.7,1.4-2.8
			c0.1,0,0.1-0.2,0.2-0.3c0.8-3.2,3.3-5.5,4.2-8.7c0.2-0.6,0.6-1.1,0.9-1.7c0.1,0.1,0.3,0.1,0.4,0.2c-0.4,1.8-0.8,3.6-1.2,5.5
			C421.6,81.5,421.9,81.6,422.1,81.7z M476.5,144.8c0.1-0.3,0.3-0.6,0.4-0.8c-2.4-2.3-4.9-4.6-7.3-7c-1.3-1.3-2.5-2-4.3-0.4
			c-2.4-2.1-4.7-4.1-7-6c-0.5-0.4-0.9-0.8-1.5-1c-0.6-0.2-1.2,0-2.4,0c-0.9-1.1-2.6-1.9-4.7-1.6c0.2,0.8,0.3,1.5,0.5,2.4
			c-1.3-0.8-2.2-1.6-3.3-2.1c-0.9-0.4-2-0.8-2.9-0.7c-1.5,0.3-3,0.6-4.6,0.8c-2.8,0.3-5.6,1.4-8.2,2.7c-2.4,1.2-5.5,1.8-6.2,5.2
			c-0.1,0.4-0.8,0.6-1.3,1c0.4,0.5,0.7,0.9,0.7,0.9c-0.1,1-0.2,1.5-0.3,2.1c0.6,0,1.3,0.3,1.7,0c2-1,3.9-2.2,5.9-3.3
			c0.1,0.1,0.2,0.2,0.3,0.4c-0.5,0.6-1,1.1-1.4,1.6c1.1,0.4,2,0.7,3.2,1.2c0.4-0.2,1-0.7,1.7-0.8c0.8,0,2,0.2,2.3,0.7
			c0.6,1.1,1.3,1.1,2.1,0.6c3-1.8,6.2-0.4,9.2-0.6c0,0.4-0.1,0.8-0.1,1.1c0.1,0.1,0.2,0.1,0.4,0.2c0.7-0.8,1.3-1.6,1.8-2.3
			c0.6,0.2,1,0.4,1.4,0.4c0.5,0,1-0.3,1.6-0.4c0.1,0.1,0.1,0.3,0.2,0.4c-0.9,0.8-1.8,1.5-3,2.6c4.1-0.2,5.6-3.8,8.8-4.8
			c-1,1.4-2,2.9-3.3,4.7c2.7-0.5,5.1-1,7.4-1.4c-0.3,0.4-0.8,0.9-1.1,1.4c-0.3,0.7-0.5,1.4-0.7,2.1c0.7,0,1.5,0.2,2.2-0.1
			c2.9-0.9,5.8-1,8.6,0.3C474.3,144.8,475.5,144.7,476.5,144.8z M348.5,150.8c-9.7-0.2-21.3,8.4-26.7,20.5c2.3,0,4.4,0,6.6,0
			c0-0.1,0-0.2,0-0.3c-1.8-0.1-3.6-0.2-5.4-0.3c0-0.3,0-0.5,0-0.8c3.2-0.4,6.4-0.7,9.7-1.1c-0.2-0.8-0.4-1.3-0.6-2.2
			c1.7-0.2,3.3-0.4,5.2-0.6c-0.9-0.3-1.5-0.6-2.2-0.8c2.4-1,4.9,0.9,7.3-0.7c-1.3-1.1-2.3-1.9-3.4-2.8c0.6-0.3,0.9-0.1,1.2,0
			c2,0.7,4,1.4,6,2c0.3,0.1,1-0.2,1.1-0.5c0.1-0.3-0.1-0.9-0.4-1.2c-0.4-0.5-0.9-0.8-1.3-1.3c0.1-0.1,0.2-0.3,0.2-0.4
			c1.4,0.5,2.9,1.1,4.3,1.6c0.2-0.3,0.5-0.6,0.7-1c-1.1-0.7-2.1-1.3-2.8-1.8c1.8-1.1,3.3-2.1,4.9-3c-0.1-0.1-0.2-0.3-0.2-0.4
			c-1.2,0.5-2.3,1-3.5,1.5c-0.2-0.2-0.4-0.4-0.6-0.6c0.4-0.6,0.8-1.3,1.4-1.8c0.7-0.6,1.6-0.9,2.3-1.4c0.7-0.4,1.4-0.9,2.1-1.3
			c-1.1,0-2.1,0.3-3.1,0.6C348.9,153.5,348.8,153.4,348.5,150.8z M423.5,97.7c0.1,0.1,0.3,0.2,0.4,0.3c1.5-3.7,3-7.4,4.5-11.1
			c0.6,0.3,1.2,0.6,1.8,0.9c1.1-1.9,2.1-3.7,3.2-5.6c0.5,0.4,0.8,0.8,1.3,1.2c0.4-0.7,0.7-1.3,0.9-1.9c-2.3,0-4.5-0.1-6.7,0.1
			c-0.7,0.1-1.7,0.9-1.9,1.5c-0.4,1.4-1,1.9-2.3,2.1c-1.9,0.3-2.3,0.9-2.3,2.9c0,0.4-0.2,0.8-0.5,1.1c-0.8,0.9-1.6,1.6-2.4,2.5
			c-0.5,0.6-1.1,1.4-1,2c0.2,1.9,0.6,3.7,1,5.7c2.2-1.9,1.3-4.7,2.3-6.7c0.2,0,0.3,0,0.5,0C422.8,94.4,423.1,96,423.5,97.7z
			 M328.3,143.5c0-0.2,0-0.3,0.1-0.5c-0.7-0.3-1.4-0.7-2.5-1.2c2.1,0,3.7,0,5.2,0c0.7-2.8-2.3-3.2-3.3-5.3c-3.2,2.8-6.5,5.6-9.7,8.4
			c0.1,0.2,0.2,0.3,0.3,0.5C321.7,144.8,325,144.1,328.3,143.5z M330.8,136.6c0.8,3.4,3.6,3,5.8,3.9c-0.4-1.2-0.7-2.3-1-3.3
			c1.9,1,3,3.2,5.3,3c0.4-0.8,0.7-1.5,1-2.2c0.2,0,0.3,0,0.5,0c0.2,0.6,0.3,1.3,0.6,1.7c0.3,0.3,0.9,0.4,1.7,0.6
			c-0.7-1.8-1.1-3-1.6-4.3c-1.1,0-2.2,0-3.5,0c1.2-0.6,2.3-1.1,3.4-1.6c-0.1-0.2-0.2-0.5-0.3-0.7c-3.2,0.9-6.4,1.9-9.6,2.8
			c0-0.1-0.1-0.2-0.1-0.2c0.6-0.3,1.2-0.6,1.8-1c0-0.1-0.1-0.2-0.1-0.3C333.5,135.6,332.2,136.1,330.8,136.6z M329.1,175.4
			c-0.8,0.9-1.7,1.9-2.7,2.9c2.5-0.2,5,1.4,7.4-0.6C332.2,176.9,330.8,176.2,329.1,175.4z M334.4,181.6c2.9-1.2,5.9-2.3,8.9-3.5
			C339.9,176.5,337.6,177.3,334.4,181.6z M329.8,184.5c-2.8,0.1-4,1.2-4.9,4.4c2.7-1.2,5.3-2.4,7.9-3.5c0-0.1,0-0.1-0.1-0.2
			c-1.1,0.1-2.2,0.3-3.4,0.5C329.5,185.1,329.7,184.9,329.8,184.5z M406.7,165.5c0,0.1,0,0.2,0,0.4c1,0.1,2,0.4,3,0.4
			c1.3,0.1,2.6,0.2,3.9,0.1c1.4-0.2,1.9-1.1,1.1-2.6C412,164.3,409.4,164.9,406.7,165.5z M409.5,132.1c0.8-2.3,2.7-3.8,1.8-6.5
			c-1.6,1.8-3.1,3.3-4.8,5.1c0.9-0.3,1.4-0.5,2-0.7C408.8,130.7,409.1,131.2,409.5,132.1z M381.6,187.6c-0.1-0.1-0.1-0.2-0.2-0.2
			c-0.5,0.2-1,0.5-1.3,0.6c-0.3-0.4-0.5-1-0.8-1c-1.4-0.1-2.9-0.1-3.9,1.4c1.6,0.5,3.1,1,4.6,1.5
			C380.6,189.1,381.1,188.4,381.6,187.6z M402.6,114.8c0.1-0.2,0.2-0.5,0.4-0.7c-0.7-1.1-1.4-2.1-2.6-3.8c-0.8,0.8-1.4,1.5-2.1,2.1
			c0.1,0.3,0.2,0.5,0.3,0.8C400,113.7,401.3,114.2,402.6,114.8z M403.7,163.5c0,0.2,0.1,0.4,0.1,0.6c2.9-0.3,5.9-0.4,8.4-2.2
			c0-0.2-0.1-0.3-0.1-0.5C409.3,162.1,406.5,162.8,403.7,163.5z M316.4,187.4c2.1-1,3.9-1.8,5.9-2.8
			C319.1,183.3,317.9,183.9,316.4,187.4z M326.1,173.7c0-0.1,0-0.3-0.1-0.4c-1.6,0-3.2-0.2-4.8,0.1c-0.9,0.1-1.7,0.9-2.5,1.3
			c0.1,0.2,0.2,0.5,0.3,0.7C321.4,174.8,323.7,174.2,326.1,173.7z M426.5,120.5c0.9-1.3,1.7-2.7,2.6-4
			C425.8,117.8,425.4,118.3,426.5,120.5z M434.3,122.9c-0.3-0.1-0.5-0.2-0.8-0.2c-0.9,1-1.8,2-2.9,3.1c1.8,0.6,2.6-0.6,3.5-1.3
			C434.4,124.3,434.2,123.4,434.3,122.9z M394.9,118.2c0.1,0.1,0.2,0.2,0.3,0.3c1.2-1.3,2.4-2.6,3.7-3.9c-0.3-0.2-0.6-0.5-1-0.8
			C396.9,115.2,395.9,116.7,394.9,118.2z M319.7,188.6c-0.1-0.2-0.2-0.4-0.3-0.6c-1.6,0.6-3.2,1.2-4.8,1.8c0.1,0.3,0.2,0.5,0.3,0.8
			C316.6,189.9,318.2,189.2,319.7,188.6z M405.5,219.9c2.4-0.8,3.3-2,3.1-3.9C407.6,217.2,406.7,218.3,405.5,219.9z M328.8,183.7
			c3.1,0,3.6-0.4,2.9-2.1C330.9,182.2,330,182.8,328.8,183.7z M323.7,181.9c0,0.3,0.1,0.6,0.1,1c1-0.1,2.1-0.3,3.1-0.4
			c0-0.2,0-0.4-0.1-0.6C325.8,181.9,324.7,181.9,323.7,181.9z"/>
		<path d="M305.7,312.5c0.6,7.9,1,15.8,1.8,23.7c1.6,14.8,3.6,29.6,5.3,44.4c0.5,4.3-2,7.1-5,9.7c-0.7-0.5-1.4-1-2-1.4
			c0.9,2.3,0,3.7-1.8,5c-2.1,1.6-4,1.3-5.5-0.9c-0.3-0.4-0.5-0.8-0.7-1.3c-4.1-9.4-8.4-18.8-12.4-28.3
			c-6.5-15.4-13.1-30.7-19.2-46.3c-5.2-13.3-9.3-27-12.2-41c-0.7-3.4,0.4-5,3.8-5.1c1.9-0.1,3.7-0.3,5.6-0.2c2.3,0.1,3.3,1,3.7,3.2
			c4.2,21.3,12.4,41.2,22.4,60.3c0.9,1.8,1.8,3.6,2.7,5.3c0.3,0.5,0.6,1,1.3,1.4c0-0.8-0.1-1.6-0.1-2.4c-0.4-6.8-1.1-13.6-1.2-20.4
			c-0.3-12.3,0.4-24.6,3.2-36.7c0.3-1.5,0.7-2.9,1.1-4.4c0.9-3.2,3.7-4.1,6.3-1.9c0.5,0.4,1,0.9,1.6,1.4c0.3-0.2,0.5-0.3,0.7-0.5
			c3-2.4,5.3-1.6,6.2,2.1c0.6,2.5,0.8,5.1,1.3,7.7c2.3,10.2,5.9,20,10.7,29.3c0.8,1.6,0.5,2.5-1.1,3.1c-3,1.2-6.1,2.4-9.1,3.5
			c-1.3,0.5-2-0.2-2.5-1.3c-1-2.2-2.1-4.3-3.2-6.5c-0.3-0.6-0.7-1-1.1-1.6C306.1,312.3,305.9,312.4,305.7,312.5z M302.5,340.6
			c0-0.2-0.1-0.5-0.1-0.7c-0.4-0.2-1-0.8-1.1-0.7c-0.8,0.6-1.5,1.4-2.2,2.1c0.3,0.2,0.7,0.7,0.8,0.7
			C300.8,341.6,301.6,341.1,302.5,340.6z"/>
		<path d="M368.5,296.2c0.8,0,1.5,0,2.2,0c7.7,0,15.5,0,23.2,0c1.1,0,2.4-0.3,2.7,1.3c0,0.2,0.7,0.2,1.3,0c-0.3-0.4-0.6-0.7-0.9-1.1
			c0-0.2,0.1-0.3,0.1-0.5c1.4,0.4,3.4,0.4,4.2,1.3c2.1,2.6,0.9,5.9,1,8.9c0,1.1-0.7,2.4-1.5,3.1c-0.6,0.6-1.9,0.5-2.9,0.5
			c-9.1,0-18.2,0-27.4,0c-0.7,0-1.3,0-2.1,0c0,7.4,0,14.7,0,22.2c0.8,0,1.4,0,2,0c9.3,0,18.6,0,27.9,0c3.3,0,4,0.7,4,4.1
			c0,2.1,0,4.1,0,6.2c0,2.3-0.8,3.1-3.2,3.1c-2.9,0-5.8,0-8.7,0c-10.7,0-21.4,0-32.1,0c-3.2,0-4.1-0.8-4.1-4.1c0-25.4,0-50.9,0-76.3
			c0-3.1,0.9-4.1,4.1-4.1c13.3,0,26.7,0,40,0c3.2,0,3.9,0.7,3.9,4c0,2.1,0,4.1,0,6.2c-0.1,2.4-1,3.2-3.4,3.2c-9.4,0-18.8,0-28.3,0
			c-0.7,0-1.4,0-2.3,0C368.5,281.6,368.5,288.8,368.5,296.2z M359.7,341.4c0.3-0.7,0.6-1.3,0.8-1.9c0.1-0.4,0.2-0.8,0.2-1.3
			c-0.4,0.2-0.9,0.3-1.3,0.5c-0.7,0.3-1.4,0.5-2.1,0.8c-0.3,0.1-0.7,0.2-1.6,0.4c2.2,0.6,2.4,1.7,1.4,3.5c1.7,0,3.1,0.1,4.4-0.1
			c0.4-0.1,0.7-0.9,1.3-1.7C361.5,341.6,360.8,341.5,359.7,341.4z M374.4,336.3c-0.2-0.1-0.4-0.2-0.6-0.2c-0.5,0.7-1.1,1.5-1.9,2.7
			c1-0.2,1.8-0.1,2-0.4C374.2,337.7,374.3,336.9,374.4,336.3z"/>
		<path d="M405.6,284.3c-0.1,0-0.4,0-1.1,0c0.7-0.7,1.3-1.2,2-1.9c-0.5,0.1-0.9,0.2-1.5,0.3c0.9-0.9,1.9-1.8,0.5-3.1
			c1.9-1,3.5-1.8,5-2.6c-2-1.8-3.6,0.9-5.7,0.4c1.5-0.8,3-1.5,4.5-2.2c-1.9-1.3-3.3-1.1-4.7,0.6c0.1-3.1,9-10.5,13.4-11.1
			c0,0.7,0,1.4,0,2c-1.3,1.1-2.6,2.1-3.8,3.1c0.1,0.1,0.2,0.2,0.2,0.4c1.1-0.6,2.3-1.1,3.6-1.8c0,6.8,0,13.3,0,19.4
			c-1,0.7-1.7,1.3-2.5,1.9c0.8,0.2,1.5,0.5,2.6,0.8c0,0.4,0,1.1,0,1.9c0,16.1,0,32.1,0,48.2c0,3.9-0.9,4.8-4.8,4.8c-2.5,0-5,0-7.6,0
			c-0.7-5.5-2.2-10.6-0.3-15.6c-0.4-0.7-0.9-1.3-0.9-1.9c-0.1-7.4-0.1-14.8,0-22.3c0-6.4,0.1-12.8,0.2-19.2
			C404.7,285.7,405.3,285,405.6,284.3z"/>
		<path d="M580.4,252.1c1.2,0.4,1.7,2.6,3.2,1.2c1.6-1.5-1-1.6-1.1-2.7c2.1-0.6,4.3-0.4,6.3,0.4c1.8,0.8,2.5,2.4,2.1,4.2
			c-1,4.6-2.2,9.2-3.3,13.9c0,0.1-0.1,0.2-0.1,0.3c-1.4,3-4.4,2.8-8.4,2c-2.2-0.4-3-2.5-2.4-5.3c0.9-4,1.9-8,2.9-11.9
			C579.8,253.5,580.2,252.8,580.4,252.1z"/>
		<path d="M404.7,272.7c-0.7-3.9-0.4-6.4,1-8c0.1,0.5,0.2,0.9,0.3,1.4c0.1,0,0.2-0.1,0.3-0.1c0.7-1,1.5-2,2.4-3.3
			c0.6,2.2-2.5,3.4-1,5.4C406.6,269.6,405.7,271.1,404.7,272.7z"/>
		<path d="M409,263.3c0.2-0.7,0.2-1.5,0.5-2.2c0.1-0.1,0.9,0.1,1.4,0.1c-0.3,0.8-0.6,1.6-1,2.4C409.6,263.5,409.3,263.4,409,263.3z"
			/>
	</g>
</g>
<g id="Calque_2">
	<g>
		<path d="M498.9,343.5c-0.5-0.1-1.5,4.2-2,6.6l4,0.1c0.2,0,0.4,0,0.7,0c1.9,0,2.1-0.1,2.3-0.2c0.4-0.3,0.5-0.7,0.7-1.4
			c0.1-0.6,0.2-1,0.1-1.4c0-1.5,0-3,0-4.5c-0.1-1.2-0.1-2.1-0.2-2.7c0-0.6,0-1.1-0.3-1.7c-0.1-0.2-0.3-0.5-0.8-1
			c-0.3-0.3-0.6-0.6-0.9-0.8c-1.1,4.1-2.2,8.1-3.3,12.2C499.3,344.5,499.1,343.5,498.9,343.5z"/>
		<path d="M482.5,267.5c1.6-0.2,3.8-0.9,6.7-2.6c-2.1,0.5-4.2,1.1-6.4,1.6c2.5-1,5.1-1.9,7.6-2.9c-2.3,0-4.7,0-7,0
			c0.9-0.3,1.7-0.6,2.6-0.9c4.8-0.2,8.1-0.4,8.1-0.8c0-0.4-4.2-0.8-4.2-1.2c0-0.2,1.2-0.3,2.1-0.2c0.8,0,1.3,0.2,1.6,0.2
			c1.3,0.2,2.5,0.5,3.8,0.7c0-0.1,0-0.1,0.1-0.2c-0.4-0.5-0.8-0.9-1.3-1.4c-1.5-1.4-2.9-2.4-3.7-2.9c-2.8,0.6-5.5,1.4-8.1,2.3
			c-4.7,1.7-9.1,4.2-13.8,6.1c0.6-0.8,1.2-1.6,1.8-2.4c-1.5,0.2-3.1,0.3-4.6,0.5c0-0.2-0.1-0.3-0.1-0.5c1.2-0.5,2.3-1.2,3.5-1.5
			c1.2-0.3,2.6-0.3,3.8-0.5c0-0.1,0-0.3,0-0.4c-1.7-0.1-3.4-0.1-5.3-0.2c1.2-1.5,2.7-1.7,4.2-1.7c2.1,0,4.3,0,6.4-0.1
			c0-0.1,0-0.3,0-0.4c-2-0.5-3.9-1-6.2-1.5c2.5-0.3,5-0.6,7.7-0.8c2.1-0.2,4.2-0.3,6.2-0.4c-1.9-0.6-3.7-1.2-5.6-1.7
			c-1-0.1-2-0.2-2.9-0.2c-2-0.1-3.8-0.3-6.1,0.1c-4.2,0.6-6.9,2.3-7.5,2.7c-1.9,1.2-3.1,2.4-4.2,3.5c-0.7,0.8-3,3.2-5.2,7.4
			c-3.7,7.1-3.7,12.3-3.5,13.6c0.1,0.7,0.7,2.3,1.1,3c0,0.1,0.2,0.3,0.4,0.6c0.5,0.6,1,0.9,1.7,0.9l4.9,0.1c0.1,0,0.3,0,0.6-0.1
			c1.6-0.1,2.1,0.2,2.7-0.1c0.3-0.2,0.5-0.5,0.8-0.9c0.3-0.5,0.4-1,0.5-1.4c0.3-0.5,0.5-1.1,0.8-1.6c0.4-1.1,1.2-2.8,2.3-4.8
			c1.5-2.5,2.8-4.6,5.3-6.1c1.2-0.7,3-1.8,5.1-1.5c0.2,0,0.3,0.1,0.5,0.1c0.2-0.2,0.4-0.4,0.5-0.7
			C480.4,267,481.7,267.6,482.5,267.5z"/>
		<path d="M496,347.4c-0.2-0.1-1.1,1.2-2.1,2.7l1.4,0C495.9,348.6,496.2,347.5,496,347.4z"/>
		<path d="M480.6,269.1c0.5,0.3,1,0.6,1.5,0.9c2.5-1.4,5-2.8,7.5-4.1C486.5,267,483.5,268.1,480.6,269.1z"/>
		<path d="M495.3,344.8c-1.7,1.1-3.4,2.3-5.1,3.4c1.8-2.3,3.3-4.2,4.8-6.1c-0.7-0.2-1.1-0.4-1.6-0.6c0.2-0.5,0.2-1.2,0.6-1.6
			c1.4-1.5,2.9-3,4.4-4.5c-3.4-0.4-9-0.7-16.2-0.8c-0.4,1.1-1,2.3-1.6,3.5c-0.9,1.6-2.4,4-5.1,6.4c1.4-3.3,2.8-6.6,4.2-9.8
			c-0.1,0-0.2-0.1-0.2-0.1c-0.1,0-0.2,0-0.4,0c-0.8,1.1-1.6,2.2-2.4,3.3c-1,0.8-2.1,1.6-3.1,2.4c1.3-1.9,2.5-3.8,3.8-5.7
			c-1.5,0-3.1,0-4.7,0c4.7-6.6,8.8-11.9,12.3-16.3c-0.9,0.1-2.1,0.3-2.2,0.1c-0.1-0.2,0.6-0.8,3.6-2.4c-0.9,0.1-1.4,0.1-2.2,0.2
			c0.6-3,3.4-2.7,5.1-4c-0.8-0.3-1.6-0.7-2.7-1.1c1.2-0.6,1.9-1,2.9-1.5c-0.3-0.2-0.6-0.3-1-0.4c1.5-0.7,2.9-1.3,4.2-1.9
			c0-0.1-0.1-0.3-0.1-0.4c-1.3,0.1-2.5,0.1-3.9,0.2c1.1-1,2.1-1.9,3.4-3c-0.8-0.3-1.6-0.7-2.4-1c3.4-1.8,4.1-2.5,3.9-2.9
			c-0.2-0.5-2.1-0.2-2.3-0.7c-0.1-0.3,0.4-0.6,1.8-1.6c1.4-1,1.1-0.9,1.8-1.4c1.8-1.3,2.7-1.5,2.7-2.1c0-0.6-0.9-0.7-0.9-1.2
			c0-0.6,1.1-0.7,2.2-1.9c0.5-0.5,1.1-1.3,0.9-1.5c-0.1-0.2-0.7,0-1.2,0.2c-1.3,0.2-2.7,0.3-4,0.5c-0.1-0.1-0.1-0.2-0.2-0.3
			c1.4-1,2.7-2.1,4.2-3.2c-0.3-0.2-0.7-0.4-1.1-0.6c0.9-0.2,1.7-0.4,2.4-0.5c0-0.1,0-0.2,0-0.4c-1.1-0.1-2.2-0.2-2.8-0.2
			c2-1.5,4.2-3,6.5-4.6c0-0.4,0-0.7,0-1.1c-0.1,0-0.2,0.1-0.3,0.1c-0.8-1.2-0.6-2.1,0.2-2.9c-0.2-2.3-0.6-4.8-1.6-7.4
			c-0.4-1.2-1.2-3.2-2.7-5.4c-0.4,0-0.7,0-1.2,0.1c-2.7,0.6-5.4,2.3-6.1,3c-0.1,0.1-0.3,0.3-0.7,0.5c-0.6,0.3-1.2,0.4-1.6,0.4
			c0.5-0.6,1-1.3,1.5-1.9c0.5-0.5,0.9-1.1,1.4-1.6c-1.2,1-3.1,2.6-5.5,4.5c-0.8,0.7-1.3,1.1-1.8,1.5c-0.6,0.5-1.1,1-1.6,1.4
			c1.6,1.7,2.3,3.5,2.8,4.7c0.4,1.1,1.1,3,1.2,5.3c0,2.9-0.9,5-2.4,8.3c-0.5,1.2-1.6,3.4-3.1,5.7c-4.9,7.4-29.7,37.7-30.3,39.7
			c-0.2,0.7-0.3,1.3-0.3,1.3c0,0.1-0.1,0.5-0.1,1.1c-0.1,1.3,0,2.9,0,3.4c0.1,1.4,0.2,2.7,0.3,4.1c0,1,0.3,1.9,0.8,2.6
			c0.6,0.7,1.2,1.1,2,1.1l38,0.8c0.3-0.6,0.6-1.2,1-1.9C494.1,347.4,494.7,346.2,495.3,344.8z"/>
	</g>
	<g>
		<path d="M559.3,322.5c-0.2,0.1-0.9,0.3-2,0.7c-1,0.3-1.7,0.5-1.9,0.5c-1.8,0.5-4.6,1.6-5.8,2.1c-1.4,0.7-3.5,2-5.4,3.9
			c-1,1.8-2.1,3.3-3.2,4.5c-2.7,6,0,12.2-2,17.3c11.5-1.9,19.8-11.9,24.1-28.9C561.2,322.1,560,322.3,559.3,322.5z"/>
		<path d="M551.8,297.8C551.8,297.8,551.9,297.8,551.8,297.8C551.9,297.9,551.9,297.9,551.8,297.8
			C551.9,297.8,551.9,297.8,551.8,297.8z"/>
		<path d="M556.6,293.5c-0.1-0.1-1.4,0.3-4.9,1.8c0,0.4,0.1,0.8,0.1,1.2C555.3,294.5,556.6,293.7,556.6,293.5z"/>
		<path d="M552.5,322.6c-0.1-0.2-0.2-0.4-0.3-0.6c-1.5,0.2-3.1,0.5-4.6,0.7c-0.4,0.9-0.7,1.9-1.1,2.7
			C548.5,324.4,550.5,323.5,552.5,322.6z"/>
		<path d="M553.6,304.9c-0.6,0-1.2,0-1.8,0c0,0,0,0,0,0c-0.2,2.2-0.5,4.5-0.9,6.7c0.9,0.3,1.7,0.1,6.1,0.7c3.2,0.4,4.2,0.7,6,0.4
			c0.8-0.1,1.5-0.3,2.2-0.5c0.1-0.4,0.1-0.8,0.2-1.2c-1.1-0.5-2.2-1.1-3.4-1.7c1.5-0.2,2.7-0.5,3.7-0.7c0.1-0.6,0.1-1.3,0.2-1.9
			c-1.3-0.1-2.8-0.2-4.5-0.5C557.5,305.7,555.8,305,553.6,304.9z"/>
		<path d="M565.2,288.5c-4.4,3.2-8.9,6.3-13.3,9.5c0.1,1.4,0.1,2.8,0,4.1c0,0,0,0,0,0C556.3,297.6,560.8,293,565.2,288.5z"/>
		<path d="M549,281.8c0.7,2.2,1.3,4.5,1.8,7c0.1,0,0.2,0,0.3,0c1.6-0.3,2.7-1.2,4.1-2.4c1.6-1.3,2.6-2.1,3.9-2.9
			c0.5-0.4,1.8-1.2,3.5-2c0.9-0.5,1.7-0.8,2.4-1.1c-0.1-0.4-0.1-0.7-0.2-1.1c-2.8,0.2-7,0.8-10.1,1.3
			C553,280.7,551.1,281.2,549,281.8z"/>
		<path d="M566.2,290.5c-7.9,4.8-12.3,11-14.4,14.4c0.7-0.1,1.3-0.1,1.8,0c3.1-0.1,6.3-0.2,9.4-0.2c-1.7-0.7-3.3-1.5-5-2.2
			c2.5,0.1,5,0.3,7.4,0.4c-0.2-0.8-0.4-1.3-0.6-2.2c0.5-0.1,0.9-0.1,1.4-0.2C566.3,296.9,566.3,293.6,566.2,290.5z"/>
		<path d="M561.1,277.5c0-0.2,0-0.3,0.1-0.5c-0.7-0.3-1.4-0.7-2.5-1.2c2.1,0,3.7,0,5.2,0c0-0.2,0-0.5,0-0.7c-0.7-2.6-1.6-4.9-2.7-7
			c-4.5,3.4-8.9,6.7-13.4,10.1c0.2,0.6,0.5,1.2,0.7,1.8C552.6,279.2,556.8,278.3,561.1,277.5z"/>
		<path d="M559.7,319.3c-2.3,0.8-4.2,1.7-5.7,2.7c3.2-0.4,6.3-0.7,9.5-1.1c0.2-0.8,0.4-1.6,0.5-2.5c-0.5,0-1,0.1-1.5,0.1
			C561.7,318.7,560.7,319,559.7,319.3z"/>
		<path d="M550.8,312.7c4.5,1.7,8.9,3.4,13.4,5.1c0.2-1.2,0.5-2.5,0.7-3.8c0,0,0,0,0,0C560.2,313.6,555.5,313.1,550.8,312.7z"/>
		<path d="M551,290.2c0.3,1.6,0.5,3.2,0.6,4.9c3.3-2,6.7-4,10.2-5.9c1.4-0.7,2.7-1.5,4-2.2c0-0.2,0-0.4-0.1-0.6
			c-2.8,1-5.5,1.9-8.3,2.9c-0.1-0.1-0.2-0.2-0.3-0.4c2.7-2.2,5.3-4.4,8-6.6c0,0,0,0,0-0.1c-3.8,1.7-8,3.9-12.4,6.7
			C552.3,289.4,551.7,289.8,551,290.2z"/>
		<path d="M525.5,349.1c0.2-0.3,0.2-0.3,0.2-0.2c0.9-1,5.4-6.6,5.3-6.7c-0.4-0.5-5.4,3.5-5.7,3.1c-0.2-0.3,2.2-2.9,5.7-7.2
			c0.3-0.4,0.5-0.7,1.1-1.6c-1.9,0.3-3.3,0.5-5.1,0.7c1.2-1,2.3-1.9,3.4-2.8c-3.1-4-5.5-11.3-6.5-19.2c-0.1,0.3-0.3,0.5-0.4,0.8
			c-1.9,3.5-4,5.9-7.4,7.3c0.8-1.4,1.5-2.8,2.3-4.2c-0.2-0.1-0.4-0.2-0.5-0.4c-0.7,0.4-1.5,0.7-2.2,1.1c-0.1-0.1-0.2-0.1-0.3-0.2
			c0.7-0.9,1.4-1.9,2.2-2.8c0.8-0.9,1.7-1.7,2.6-2.5c-1.6-1.1-1.6-1.5-0.1-2.6c1.1-0.8,2.3-1.7,3.4-2.6c-0.1-2.2,0-4.4,0.1-6.5
			c0.2-2.6,0.6-5.4,1.2-8c-1.6,1.2-3.7,2.6-6.4,4.2c2.2-1.8,4.4-3.5,6.6-5c0.5-2.2,1.1-4.3,1.8-6.3c-3.4-1.7-5.9-4.7-5.5-5.3
			c0.4-0.7,3.7,0.9,6.7,2.1c0.5-1.3,1.1-2.5,1.6-3.6c-3.3-2.7-6.1-6.6-6-6.7c0.1-0.1,3.5,3.1,6.3,6.1c3.1-6.1,6.9-10.2,10.3-9.9
			c1.5,0.1,3,1.1,4.3,2.6c1.9,0,3.8,0,5.7,0c-1.2,1-3.1,1.8-3.8,2.8c0.1,0.2,0.3,0.5,0.4,0.7c0.3,0.2,0.7,0.5,1.1,0.7
			c0.4,0.2,0.7,0.4,1,0.6c2.5-2.4,5.1-4.8,7.6-7.2c-1.7-0.7-3.5-1.4-5.2-2.2c1.1,0,2,0,2.9,0c2-0.3,3.9-0.6,5.9-0.9
			c-3-0.2-6-0.3-9-0.5c2.3-1,4.8-2,7.3-3.1c-4.2-5.7-9.9-8.9-17.1-9.5c-17.3-1.3-30.9,15.2-33.3,47c-1.7,26.3,5.2,43.4,17.3,48.8
			c0.2-0.5,0.3-0.9,0.4-1C525.6,349,525.5,349.1,525.5,349.1z"/>
		<path d="M531.7,350.3c-0.1-0.1,0.9-1.3,3.1-3.6c1.6-2.4,2.6-4,2.3-4.2c-0.2-0.2-2.2,2-2.4,1.8c-0.3-0.3,3.6-4.2,4.7-8.6
			c-1,0.9-2.1,1.4-3.1,1.7c-0.3,0.9-0.6,1.8-1.2,2.7c-0.5,0.8-0.9,0.7-1.4,1.8c-1.2,2.7-3,8-3.4,8c-0.4-0.1-0.1-3.7-0.3-3.7
			c-0.2,0-0.8,2.3-1.7,4.8c1.4,0.4,2.8,0.6,4.3,0.7c1.2,0.1,2.4,0.1,3.6,0c0.4-1.9,0.8-3.8,1.1-5.8
			C533.7,349,531.9,350.4,531.7,350.3z"/>
		<path d="M553.9,320.6c0.7-0.2,6.2-1.7,6.1-2.2c0-0.1-0.2-0.1-0.7-0.2c-0.7-0.1-1-0.3-3.3-1.7c-1.2-0.7-1.4-0.8-1.9-1.1
			c-0.5-0.3-1-0.5-1.7-0.8c-1-0.4-1.5-0.6-2-0.6c-0.6,2.8-1.5,5.4-2.4,7.9C550.4,321.4,552.4,321,553.9,320.6z"/>
	</g>
</g>
</svg>
