<?xml version="1.0" encoding="utf-8"?>
<!-- Generator: Adobe Illustrator 21.1.0, SVG Export Plug-In . SVG Version: 6.00 Build 0)  -->
<svg version="1.1" id="Calque_1" xmlns="http://www.w3.org/2000/svg" xmlns:xlink="http://www.w3.org/1999/xlink" x="0px" y="0px"
	 viewBox="0 0 567 567" style="enable-background:new 0 0 567 567;" xml:space="preserve">
<style type="text/css">
	.st0{fill:#FFFFFF;}
</style>
<path class="st0" d="M421.3,284.6v1.7l0.8-0.4c-0.2-0.4-0.4-0.8-0.4-1.2L421.3,284.6z"/>
<path class="st0" d="M422.7,294.7l0.7-5.5v-2.1H423c-0.7,1.3-1.3,2.7-1.7,4.1C422,292.3,422.4,293.5,422.7,294.7z"/>
<path class="st0" d="M430.5,286.3v-0.4c-0.4-0.8-0.8-1.2-1.2-1.2v0.4l0.4,2.1c0.4,0.1,0.8-0.2,0.8-0.6
	C430.5,286.4,430.5,286.3,430.5,286.3z"/>
<path class="st0" d="M420.9,285c0-1.4-0.4-2.2-1.2-2.5v4.6h0.8L420.9,285z"/>
<path class="st0" d="M443.8,294.2c0.2,1.5,0.5,3.1,0.8,4.6h0.4v-0.8c-0.2-1.5-0.5-3.1-0.8-4.6h-0.4L443.8,294.2z"/>
<rect x="408.9" y="281.3" class="st0" width="0.4" height="2.1"/>
<rect x="412.6" y="281.7" class="st0" width="0.4" height="1.2"/>
<path class="st0" d="M413,284.6v1.2l0.8-0.4C413.8,284.9,413.6,284.7,413,284.6z"/>
<path class="st0" d="M420.5,289.9c0-0.1,0-0.2,0-0.3v-2.1H420l-0.3,1.5C420,289.3,420.2,289.6,420.5,289.9z"/>
<path class="st0" d="M439.6,291.7v0.4c2.2,8,3.5,13.2,3.7,15.4h0.4l0.4-2.1c0-2.8-1.4-7.3-4.2-13.7L439.6,291.7z"/>
<path class="st0" d="M394.7,270.1l1.2,1.7c8.8,1.6,17.4,3.9,25.8,7.1h0.4l-0.4-0.8c5.5,1.3,9.1,2.6,10.8,3.7l0.8-0.4v0.4
	c2.8,0.7,4.2,1.4,4.2,2.1h-0.4l-1.2-0.8H435c0,0.4,1.7,1.7,5,3.7h0.4l-0.4-0.8c1.2,0.6,2.4,1,3.7,1.2c0-1-0.8-3-2.5-6.2
	c-8.2-12.7-19.3-19.1-33.2-19.1v0.8h-0.8v-0.8h-0.8v2.1h-0.4v-2.1h-0.4l-0.4,1.7h-0.4v-1.7c-1.9,0-2.9,0.6-2.9,1.7h-0.4v-1.2
	c-0.5,0-0.8,0.3-0.8,0.8v2.5h-0.4c-0.4,1.4-0.8,2.1-1.2,2.1c0-0.3,0.1-1.7,0.4-4.2v-0.8c-0.6,0-0.8,0.7-0.8,2.1H398V263h-1.2l-1.2,5
	h-0.4v-0.4l0.4-2.5v-1.7h-0.8l-0.8,6.2C394.4,269.6,394.7,269.8,394.7,270.1z M405.5,264.2h0.4v0.8h-0.4V264.2z M400.9,265.1h0.4
	v1.7H401L400.9,265.1z"/>
<rect x="443.3" y="296.6" class="st0" width="0.4" height="1.2"/>
<rect x="442.9" y="295" class="st0" width="0.4" height="1.7"/>
<path class="st0" d="M431.3,293.7h0.4v-2.5h-0.4c-0.1,0.4-0.2,0.9-0.4,1.2C431.1,292.5,431.3,292.9,431.3,293.7z"/>
<path class="st0" d="M429.6,289.2v-0.8c0-0.5-0.3-0.8-0.8-0.8c0,1.4-0.2,2.8-0.4,4.2C429.2,291.5,429.6,290.6,429.6,289.2z"/>
<rect x="428" y="285.9" class="st0" width="0.8" height="1.2"/>
<path class="st0" d="M436.7,298.3v-0.4c0-2.1-0.4-3.2-1.2-3.3C435.7,297.1,436.1,298.3,436.7,298.3z"/>
<rect x="434.2" y="294.6" class="st0" width="0.4" height="1.2"/>
<polygon class="st0" points="413.8,279.2 413.4,279.2 413.4,280.9 414.2,280.9 "/>
<path class="st0" d="M393.1,266.7l0.4-2.1v-0.4h-0.4c-0.5,0-0.8,0.3-0.8,0.8v0.8c-0.1,0.4,0.2,0.8,0.6,0.8
	C392.9,266.7,393,266.7,393.1,266.7z"/>
<path class="st0" d="M386,268h-0.4v1.2c-0.2,0-0.4-0.1-0.4-0.3c0,0,0-0.1,0-0.1c-1.1,0-2.1,0.6-2.5,1.7h3.3V268z"/>
<path class="st0" d="M390.6,269.6c0.6,0,0.8-0.6,0.8-1.7h0.4c0,1.1,0.3,1.7,0.8,1.7l0.8-0.4c-1.4-2.1-2.1-3.4-2.1-3.7h-0.8
	c0,0.6,0.1,1.2,0.4,1.7v0.4l-1.7-1.7v0.8l-0.8-0.4c-0.5,0.4-1,0.7-1.7,0.8v1.2l-0.4,2.1h3.7C390.1,269.9,390.3,269.6,390.6,269.6z
	 M389.7,267.6h0.4v1.2h-0.4V267.6z"/>
<rect x="404.7" y="279.2" class="st0" width="0.4" height="2.1"/>
<rect x="398.9" y="280" class="st0" width="0.4" height="1.7"/>
<rect x="373.9" y="282.5" class="st0" width="0.4" height="1.2"/>
<path class="st0" d="M449.2,339.5c-2.4-7.7-7.4-14.3-14.2-18.7c5.1-5.3,7.7-9.1,7.9-11.6c-1.9-9.6-3.6-16.1-5-19.5h-0.4v0.4
	c0,1.2,0.8,7.6,2.5,19.1v1.2h-0.4c0-1.3-0.7-4.4-2.1-9.1H437v0.4c0.2,1.2,0.4,2.5,0.4,3.7v5.8H437c-0.3-3-0.7-6.4-1.2-10h-0.4v0.8
	c0.1,1.5,0.4,3.1,0.8,4.6l-0.8-0.4v4.6c0.1,0.4-0.2,0.8-0.6,0.8c-0.1,0-0.1,0-0.2,0v-10.4h-0.4v7.5h-0.4c0-9.4-0.4-14.1-1.2-14.1
	v3.7c0,2.4-0.1,5.8-0.4,10.4c-0.5,0-0.8-0.3-0.8-0.8v-9.6l-0.4-2.1c-0.6,0-1.2,3.2-2.1,9.6h-0.4v-0.4c0.6-4.5,1-8.8,1.2-12.9
	l-0.8,0.4c-0.6,6.1-1.1,9.1-1.7,9.1l0.4-2.1v-1.2H427l-1.2,8.3h-0.4v-8.7l-0.8,0.4c0-1.7,0.7-4.6,2.1-8.7v-1.2
	c0-0.5-0.3-0.8-0.8-0.8c0,1.8-0.7,4.8-2.1,9.1h-0.4v-0.4c0.7-2.2,1.3-4.4,1.7-6.6c-0.2-0.4-0.4-0.8-0.4-1.2h-0.4
	c-0.5,2.7-0.9,5.2-1.2,7.5c0.1,0.6,0.1,1.2,0.1,1.8c0,8-6.9,14.5-15.5,14.5c-5.3,0.1-10.2-2.5-13.2-6.9c0.4,5,0.7,8.4,0.7,10.1
	c0,1.1-0.1,3.6-0.4,7.5c-0.4,0.1-0.9,0.2-1.2,0.4v-2.1H393v2.1h-0.4v-3.7h-0.4c0,3-0.4,4.6-1.2,4.6c0.7-4.8,1.1-9.6,1.3-14.4v-5.8
	h-0.4c-0.3,3.5-0.4,5.3-0.4,5.4h-0.8v2.9l-2.5,1.7l0.4-2.1v-1.2c-0.1-3.1-0.4-6.1-0.8-9.1h-0.4c0,1.4-0.1,2.8-0.4,4.2h-0.4v-0.4
	c0-3.1,0.1-7.1,0.4-12v-5h-0.4v8.3H386v-1.2h-0.4c-0.2,1.9-0.4,3.9-0.4,5.8h-0.4c-0.3-8-0.4-13.6-0.4-17h-0.4v12l0.4,2.9l-0.8,0.4
	v-3.7c0-4.4-0.4-6.6-1.2-6.6l-2.5,12h-0.4v-2.9l-0.8,0.4c0-1.4-0.1-2.8-0.4-4.2c0.3-1.4,0.4-2.8,0.4-4.2v-0.8h-0.8
	c-0.3,1.7-0.7,2.5-1.2,2.5v-3.7H376l-0.8,5.8h-0.4v-0.8c0.1-2.2,0.4-4.5,0.8-6.6v-0.4h-0.4v0.8h-0.4v-0.4l0.8-4.2
	c-0.3,0-0.4-0.4-0.4-1.2h-0.4v3.3c-0.8,0-1.3,1-1.2,2.9l-0.8-0.4c-0.4,1.2-0.7,2.5-0.8,3.7h-0.4v-0.4c0.4-1.5,0.7-3,0.8-4.6V285
	c-1.5,0-2.6,4.2-3.3,12.5c0,8.6,3.3,16.3,10,23.3c-10.3,8-15.4,18.3-15.4,30.8c0.1,6.1,1.4,12.2,3.7,17.9
	c9,16.3,21.7,24.5,38.2,24.5c4.8,0,9.5-0.5,14.1-1.7c11.9-3.9,19.8-9.5,23.7-17c-0.2,0-0.4-0.1-0.4-0.3c0,0,0-0.1,0-0.1v-2.5
	c-0.1-3.8,0.3-7.6,1.2-11.2h-0.4l2.9-9.1h-0.4c1.3-3.8,2.2-7.7,2.9-11.6L449.2,339.5z M370.6,367.7h-1.2v-0.8h1.2V367.7z
	 M388.5,364.4c0.1,0.4-0.2,0.8-0.6,0.8c-0.1,0-0.1,0-0.2,0c-0.5,0-0.8-0.3-0.8-0.8v-0.8l1.7,0.4L388.5,364.4z M394.7,372.7
	c-0.4,0.1-0.9,0.2-1.2,0.4h-0.8c0-0.4,0.6-0.8,1.7-1.2h0.4L394.7,372.7z M400.5,379.4c-2.2-0.3-3.3-0.8-3.3-1.7v-1.2h2.5
	c0.4,0,0.8,0.6,1.2,1.7C400.9,378.5,400.8,379,400.5,379.4L400.5,379.4z M407.7,372.9c-11.6,0-21-8.8-21-19.6s9.4-19.6,21-19.6
	s21,8.8,21,19.6S419.3,372.9,407.7,372.9L407.7,372.9z"/>
<path class="st0" d="M396.8,280c1.1-0.7,1.8-2,1.7-3.3v-0.8c-0.8,0.1-1.3,1.2-1.7,3.3V280z"/>
<path class="st0" d="M386,277.5c1.5,0,2.8-0.8,4.2-2.5c-0.6,0-1.7,0.6-3.3,1.7h-0.4v-0.4c4.1-1.7,6.6-3.1,7.5-4.2l-5-0.4h-7.1v0.4
	C383.8,275.2,385.2,277.1,386,277.5z"/>
<path class="st0" d="M377.3,289.2h0.4c0.2-1.1,0.5-2.2,0.8-3.3v-1.7c0-0.5-0.3-0.8-0.8-0.8l-0.4,2.1V289.2z"/>
<path class="st0" d="M397.6,281.3c0.1,0.6-0.3,1.2-0.9,1.2c-0.1,0-0.2,0-0.3,0v0.8c-0.5,2.5-1.2,4.9-2,7.3c0.6-1,1.4-1.9,2.3-2.8
	l1.9-6.6L397.6,281.3z"/>
<path class="st0" d="M396.4,275h0.4c0.1-0.4,0.2-0.9,0.4-1.2v-0.4l-0.8,0.4L396.4,275z"/>
<path class="st0" d="M403.5,284.1l0.6-0.2l0.2-1v-1.2c0-0.5-0.3-0.8-0.8-0.8L403.5,284.1z"/>
<path class="st0" d="M393.5,290.8c1.9-6.7,2.9-10.6,2.9-11.6v-0.4c-0.6,0-1.2,1.5-1.7,4.6h-0.4v-0.4l0.4-2.5v-0.8
	c-0.6,0.1-1.1,0.8-1.7,2.1h-0.4l1.7-3.3h-0.4l-3.3,2.9v-0.8c3.6-3.1,5.4-5.2,5.4-6.2v-0.4c-0.6,0-2.5,1.2-5.8,3.7h-0.4l1.7-1.7
	c-1,0-2.4,0.7-4.2,2.1h-0.4l2.1,5h0.4l0.8-0.4l-0.4,2.1C391.8,288.8,393.1,290.8,393.5,290.8z"/>
<path class="st0" d="M392.2,270.9h2.1v-0.8h-1.2C392.6,270.1,392.3,270.3,392.2,270.9z"/>
<path class="st0" d="M400.5,282.5l-0.8,0.4c-0.4,1.2-0.7,2.3-1,3.3c0.3-0.2,0.6-0.4,1-0.6c0.3-0.8,0.6-1.7,0.9-2.7L400.5,282.5z"/>
<path class="st0" d="M403,283.4c0-0.5-0.3-0.8-0.8-0.8c-0.1,0.8-0.3,1.4-0.4,2c0.4-0.1,0.8-0.3,1.2-0.4L403,283.4z"/>
<g id="cul_8">
	<path class="st0" d="M444.5,329.9c0,4.7-0.3,9.2-2.9,13.4c-2.8,4.5-6.7,8.1-8.7,13.1c-4.4,10.8-4,22.8-8,33.7
		c15.8-6.3,26.9-20.8,26.9-37.7C451.8,344.4,449.2,336.5,444.5,329.9z"/>
</g>
<path class="st0" d="M320.6,263.9h1.2l-0.4,2.1c0,3,2.1,4.6,6.2,4.6l0.8-1.2v-2.5l-0.4-2.9h23.7c4.2,0,6.2,1.4,6.2,4.2v118.9
	c0,2.8-2.1,4.2-6.2,4.2H343c-4.4,0-6.6-1.8-6.6-5.4V282.6h-15.8c-3.6,0-5.4-1.8-5.4-5.4v-8.3C315.2,265.6,317,263.9,320.6,263.9z
	 M318.1,277.6v0.4c0.6,0,1.4,0.6,2.5,1.7h0.4c0.4,0.1,0.8-0.2,0.8-0.6c0-0.1,0-0.1,0-0.2v-0.8c0-0.4-0.6-1-1.7-1.7h-0.8
	C318.9,276.4,318.5,276.8,318.1,277.6L318.1,277.6z"/>
<path class="st0" d="M454.9,267.3c0,1.6,1.7,3,3.9,3"/>
<path class="st0" d="M458.5,263.3c-1-0.1-2.1,0.1-3.1,0.4l0.9,0.6c0.4,0.2,0.8,0.5,1.1,0.8c0.5,0.6-0.2,1.5-0.7,1.9
	s-1.4-0.1-1.9-0.5c-0.5-0.4-0.9-0.9-1.1-1.5c-0.6,1-1.1,2-1.3,3.2c-0.9,3.8-1.9,7.5-2.8,11.3c-0.3,1.5-0.9,3.3-0.4,4.6
	c1.2,3.5,4.7,2.9,7.3,3.1c2.4,0.2,4.6-1.4,5-3.8c1-4.1,2-8.2,3.1-12.3C466,265.8,464.2,263.5,458.5,263.3z M458,281
	c-0.1,0.1-0.3,0-0.3-0.1c-0.2-0.6-0.3-1.3-0.2-2c0-0.1,0.1-0.1,0.1-0.1c0.1-0.1,0.2-0.1,0.2,0l0,0c0.6,0.4,0.9,1.2,0.5,1.8
	C458.3,280.7,458.2,280.9,458,281z"/>
<g id="sol">
	<path class="st0" d="M240.2,424c0,0,55.2-18.4,72.1-17.9s31.6,6,60.1,7.6s78-8.9,78-8.9s-55.9,20.4-86.2,18.3s-23.5-7-49.1-7.8
		S240.2,424,240.2,424z"/>
</g>
<path class="st0" d="M380.1,206.2c0.4-0.8-0.3-0.9-0.6-1.2c-1.9-1.7-3.8-3.4-5-5.7l-1.4-0.9h-0.2l1.1-0.8c-2.9-2-5.5-4.4-7.8-7.2
	c2.9,0.3,4.9,2.7,8.2,2.6c-2.8-3.2-6.7-3.9-9.4-6.3c1.5-1.1,1.3-0.9,0.1-1.9c-2-1.8-4.6-2.5-6.7-4.2c-2.5-2.1-5-4.1-8.3-4.9
	c-0.3-0.1-0.3-0.3-0.2-0.6c1.6,0.1,3.2,0.1,4.8-0.1c1.5-0.2,3.1,0.6,4.8-1c-6.3,0.2-11.4-2.8-17.2-3.9c0.8-1.2,2-0.4,2.7-1.1
	c-1.4-1-3.3-0.2-4.6-1.3l0.7-0.9c-4.4-2.1-8.8-0.1-13.2-0.1l4.3-0.8c-1.4-1-0.2-1.5,0.2-2.2c-0.8-0.2-2.2,0-0.9-1.6h-5.2
	c0.9-0.8,1.8-0.4,2.4-0.7c-1.2-0.3-2.6,0.2-4-0.6l1.6-1.9l0,0c0.8-0.4,0.4-1.2,0.7-1.9l-1.6-0.4c2-0.7,4.1-0.8,6.1-0.3
	c6.4,1.9,13,3.6,18.3,8.2c2.1,1.9,4.6,3.5,6.8,5.4c4.3,3.5,8.1,7.3,10.8,12.2c1.4,2.5,3.3,4.7,5.5,6.4c0.7-0.6,0.3-1.3,0.5-1.9
	c1.1,0.7,2.2,1.3,3-0.2c-0.1-1.2-1.6-1.6-1.2-2.8c-0.2,0.1-0.5,0-0.6-0.2c0,0,0-0.1,0-0.1c0-0.6,0.5-0.3,0.8-0.4
	c0.2-1-1.5-0.9-1.2-1.8c0.4-0.6,1.3,0,1.4-0.9c-2.6-1.4-5.2-3-7.6-4.8c2.3-1.9-1.5-1.9-1.1-2.8c0.9-0.6,1.7,0.3,2.8-0.7
	c-4.4-2-9-2.9-13-5.5c2.4-0.3,4.4,1.4,7.4,1.2l-7.4-3.1c3.2,0.1,6.4-0.3,9.5-1.3c-3.4-0.4-6.4-2.4-10.1-2.5c0.9-1,2.2-0.1,2.9-1.2
	c-4.5-1.1-9-0.1-13.4-1.2c2.7,0.1,5.1-1.1,7.8-1.1c0.1-1.9-0.9-3.2-1.9-4.9c3.5,0.3,6.1,2.3,9.1,3l0,0c-0.1-2-1.1-2.8-3-3.1
	c-1.7-0.4-3.3-1.1-4.9-1.8c1.9-1.1,3.3-0.1,4.8,0c0.8-0.5-0.2-1.6,1.2-1.8c-5-1.8-10.2-2-14.8-4.3c4,1,7.9,0,11.9,0.2
	c-0.7-0.6-1.6-0.6-1.9-1.4c-1.2-2.8-3.9-2.3-6.1-2.5s-4.8-0.2-7.3-0.4c-1-0.1-2,0.1-2.9-0.9c4.6-0.3,9,0.1,13.8-1.1
	c-6.6-2.4-12.8-0.8-19.3-1c4.6-2.4,9.8-2.2,14.5-4.9c-4.9-0.5-9.2,0.9-14.2,0.5c3-1.1,5.9-1,8.1-3.5c-4.2,0.6-8.2,0.3-12.3,1.4
	c0.8-1.5,2.8-1,2.6-2.8c-0.8-0.1-1.5-0.3-2.2,0.4c-0.4-0.8,1-1,0.6-1.8c-0.9-0.1-1.7,0.1-2.5,0.5c-1.2,0.4-2.3,1.4-3.8,0.9l0,0
	c-1.2-0.9-2.1,0.1-3,0.5c-3,1.2-6,2.6-9,3.9c1.3-1.8,3.4-2.4,4.7-4.1L315,128l-4.5,2.7c0.5-1.9-0.5-3.1-1.2-4.6l-6,2
	c1-0.9,2.2-1.6,3.5-2.2c0.5-0.2,1.4-0.7,1.4-0.7c-0.9-2.1,1.2-1.9,1.9-2.1c2-0.7,4.1-2.5,6.3-1.3c1.2,0.7,2.1,0.1,3.2,0.2
	c-0.4-1.2-1.4-0.9-2.1-1.5c4-0.3,6.5,2.7,9.8,4.2c-0.2-1.9-2.5-1.7-2.8-3.2c1.2-0.3,2.4,0,3.4,0.7l0.5-0.6c0-1,0.5-0.4,0.9-0.2
	c3.6,1.4,7.3,2.8,10.5,5.1c0.5,0.4,1.1,1,1.9,0.3c-1.6-1.4-3.4-2.5-5.4-3.3c1.1-0.4,2,0.1,2.9,0.6c0.9,0.6,1.9,0.9,2.9,1.1
	c4,0.4,7,2.9,10.1,5.1c2.5,1.7,5.1,3.2,7.7,4.6c0.7,0.4,1-0.1,1.6-0.3c-1-1.6-2.8-2-4.2-3.2c2-0.3,3.4,1.1,5.1,1.2l0.8-0.6
	c-0.3-0.4-1.1-0.4-1-1c1.1-0.9,2.2,0.9,3.4-0.2c-2.8-1.4-5.8-1.6-8.6-2.6c1.8-1.2,3.4,1,5.4-0.3c-1.2-0.2-0.6-1.5-1.2-1.6
	c-2.9-0.3-5.1-2.2-7.9-2.7c5.8,0.1,6.1,0.1,6.7-0.9c-3.6-0.7-7.3-1-10.9-0.7l5-1.1v-0.9l-8.1-0.6c0.6-0.2,1.2-0.4,1.9-0.6
	c-0.8-0.7-1.7-0.2-2.5-0.6c1.7-0.4,3.2-1,4.7-1.9c-3.9-0.8-7.4,1-11.1,0.8c2.4-0.5,4.7-1.5,6.9-2.8c-2.8-0.9-2.7-0.8-5.9,0
	c-3.5,1-7,2.2-10.8,2.6c2.8-1.5,6.1-1.9,9.2-3.9c-1.5-0.9-2.4-1.3-3.8-1.1c-3.6,0.6-6.7,2.3-10,3.4c-0.5,0.2-1.1,1-1.8,0.2
	c3-1.8,6.3-3.1,8.8-5.7c-1.5,0.9-3.4,0.3-4.8,1.2c-2.3,1.4-4.8,1.9-7.2,2.9c-1,0.4-2.9,0.8-2.3-1.6l-0.2-0.4
	c-3.9,3.5-8.5,5.9-12.1,9.9c-0.3-1.5-1.9-1.6-2.2-3.3l-2.7,6.9c-1.9-1.7-2.5-4.6-1.2-5.7c5.6-4.8,12.1-8.2,19.1-10.2
	c4.2-1.1,8.6-1.4,12.8-0.8c3.9,0.5,7.8,1,11.1,3c3.7,2.2,7.9,2.2,11.7,3.8c0.3,0.1,1.9,1,2.7-0.3c-2.5-2.3-6.3-1.5-8.9-3.9
	c1.6-0.8,3,0,4.6-0.7c-2.5-1.1-5-0.6-7.4-1.3c2-1.7,5-0.2,6.9-2.6c-3.6-1.3-6.7,0.8-10,0.6c1.9-0.9,4.1-0.9,6.2-2.2H343
	c0.1-0.7,0-1-1.2-1.2c-2.8-0.5-5,1.4-7.7,1.5c1.1-2.3,4.5-1.2,5.4-3.2c-0.9-2-2.1-1.3-3.4-0.8s-2.5,1-3.7,1.5l-0.1-0.2l3.5-2.4
	c-3.4-0.4-6.1,0.7-8.8,2.1c0.8-0.3,1.1-1.2,0.9-1.9c0,0,0,0,0-0.1c-1,0.4-1.9,0.8-2.7,1.2c-1.6,0.7-2.8,2.2-4.7,2.3
	c-0.3,0.5-0.7,0.7-1.1,0.1s0.4-0.5,0.6-0.7c0.5-0.8,0.5-1.3-0.7-1.1l-0.3-0.3c-2.7,1.6-4.9,4-8,5c0.3-1.2,1.5-1.8,1.6-3
	c-0.4,0.4-0.8,0.5-1.2,0s0.2-0.5,0.4-0.7c0.2-1.4,1.5-2.4,1.4-4.6c-1.6,3.2-3.1,5.8-4.4,8.5c-0.8,1.9-2.2,3.5-4,4.6
	c-0.1,0.3-0.3,0.6-0.7,0.5l-0.4,0.2v-0.5l0.6-0.9c1.2-2.5,3.1-4.7,3.6-7.5l-3.8,5.7c-0.8-1.2-0.1-2.5-1-3.6
	c-0.8,4.3-4.3,6.6-6.1,10.6c-0.8-2-0.5-3.8-2.1-5.5c1,3.8-1,6-2.6,8.4c-0.7-0.7,0-1.9-1.2-2.1c-1.5,1.8-1.5,4.3-2.3,6.5
	c-0.9-1.1-2.5-0.2-3.1-1.4l-0.5,0.5c0.1,0.8,1.1,1.7-0.2,2.5l-0.9-3.3c-0.6,2-0.8,4-0.6,6.1c0,1.7,0.3,3.6-2.5,2.8
	c-0.2-0.1-0.6,0.6-1,0.8c-0.9-1-1.3-1.2-2.2-1v-0.1c-1.4,0.3-1.7,0.6-1.6,1.5c-0.9-1-1.5,1-2.4,0.2c1.3-2.1,3.4-3.4,4.8-5.2
	c-0.3-1-1.4-0.3-1.9-1.1l7.8-6.7c-1-0.6-1.5,1.1-2.4,0.2c-0.1-0.9,0.8-1.1,1.1-1.7c0.6-1.2,0.1-1.2-0.6-0.8c3.3-2.3,5.2-6,8.6-8.2
	c1.1-0.7-0.1-1.4-0.1-2c1.6-1.5,3.6-2.4,5-4.1l-0.3-0.4c-0.6,0-1,0.9-1.7,0.3c0.1-1.1,1.1-1.3,1.7-1.8s1.7-1.1-0.1-2
	c4-3.3,7.7-7,11.7-10c8.6-6.5,19.1-10.1,29.9-10.2c4-0.1,8-0.3,11.9-2.4c-2.9-0.8-6.1-0.2-7.5-3.1c-3.7-1.8-6.1,1-9,2.4
	c-0.2,0.1-0.5,0.1-0.7,0.2c-0.4,0.5-0.9,0.3-1.6,0.1l1.1-0.5c0.2-0.6,1.2-0.6,1.1-1.5c-1.8,0.5-3.5,1.3-5.2,1.3
	c-0.9-0.1-1.8,0.2-2.6,0.7c-1.2,1-2.7,1.5-4.3,1.2c-2.6-0.3-4.1,1.3-5.2,3.3c0,0,0,0.1,0,0.1l-0.1-0.1c-0.4-2.1,0.8-3.8,1.7-6
	c-1.6,0.5-1.8,2-2.7,2.5c-2.1,1.2-2.7,5-6.5,3.4c0.1,1.6-0.5,2.5-1.8,3.7l1.4-3.1l-2-0.2c3-0.8,4.1-3.6,6.3-5.7
	c-2.8,0.9-2.9-1.7-4-2.6c-0.9-0.4-2.1,1.4-2.5-0.4c-3.5,1.6-6.2,4.3-9.6,6.7c1.2-2.6,3.9-3.9,3.3-6.8c-1.1-0.5-1.7,0-2.2,0.9
	c-1,1.5-2,2.9-2.9,4.5c-0.6,1-1.2,0.3-1.9,0.2c0.3,3.2-2,4.7-4.2,6.8c0.2-2.7,1.6-4.7,1.4-7.5c-1.5,2.6-2.7,5.2-3.8,8
	c-0.4,0.8-0.6,1.5-1.6,0.7c0,1.4-0.3,2.8-0.8,4.2c-0.5-0.2-0.7-0.7-1.2-0.2l-0.1,3c-1.5-1.6-1.9-3.8-3.5-5.1
	c-0.3,3.3,1.7,5.9,2.2,9.2c-2.2-1.2-1.8-3.9-4.1-4.9c-0.4,2.9,1.7,5.2,1.5,8c-3.5-2.2-3.5-2.2-4-1c-1-0.5-0.8-2.6-2.7-2
	c0.8,1.2,1.9,2.4,1.5,3.8c-0.7,2.6-0.8,2.6-0.3,4.3c0.4,1.4,0.5,2.8,0.2,4.2c-3.4-3.2-3.4-3.2-4.7-2.7c2.4,2.9,1.4,6.5,1.8,9.8
	c0,0.1-0.2,0.2-0.3,0.4l-1.5-0.7l-0.6,0.6l0.7,1.1c-0.9,0.5-0.8-1.3-1.8-0.7c-0.7,0.9,0.4,1.2,0.6,1.7s0.9,0.9,0.8,1.6
	c-2.1,0.6-3.6-0.4-5.1-1.8c1-0.8,1.3-2.5,3.1-2c0.8-0.3-0.5-0.8,0.1-1.1l0.8-0.6c-0.5-1.4-1.3-2.5-2.8-2c-2,2.7-4.3,5.1-7,7.1
	c0.6-1.2,1.2-2.4,2-3.6c0.7-1.2,1.4-2.3,2.2-3.5c1.4-1.9,0.4-4.5,1.7-6.5c-0.3,0.1-0.5-0.1-0.5-0.3s0.3-0.4,0.6-0.3v-0.5h0.5
	c-0.7-1,0.5-1.2,0.8-1.8c0.4-0.7,1.2-1.3,0.7-2.3c-2.7,1.7-2.7,1.7-3.8,1.5c1.5-2.1,2.3-4.5,2.5-7c-1.7,0.1-2.2,2.3-4.1,2.4
	c0.1-2.3,2.5-3.5,2.4-5.7l-2.3-0.2c-0.8-0.5,1.8-1.9-0.5-1.8c-0.1,0.5-0.5,0.6-0.8,0.3s0.1-0.5,0.4-0.6l1-2.3
	c-0.7-0.3-1.5,0.2-2.1-0.3l0.1-1.3c-2-1.2-2.1,2.1-4,1.6c0.4-1.4,1.3-2.5,1.2-4c-1.4,0.7-3.2,0-3.9,1.8c-1-0.9,0.2-1.8-0.4-2.7
	c-1.6,2.4-4.8,3.5-4.8,7.3l-1.9-2.6c-0.8,1.5,0,2.9-0.3,4.4l-4.6-2c1.4,2.5-0.9,0.7-1.1,1.7c0.3,1.2,0.4,2.4-1.2,3
	c0.4,0.5,1.1,0.6,1.1,1.2c-0.3,0.5-1.2,0-1.3,1c2,1,4.4,1.5,6.2,3l-0.2,0.6l-7.5-1.5c0.1,1.9,1.5,2.1,2.7,2.6s2.4,0.6,3.3,1.8
	c-2.6,0-5.3-0.9-6.2,2.5c0.2,0.4,1.2,0,1.2,0.7c-0.7,0.9-1.7,0.1-2.7,0.6l3.6,2.2c-0.2,0.7-1.5,0.4-1.2,1c1.3,2.2-1,1.8-1.7,2.5
	c1.1,1.3,3.3,0.9,4,2.7c-0.4,0.9-2.2,0.2-2,1.9c1.2,0.4,2.1,1.6,3.1,2.3c-0.9-0.1-1,0.7-1.3,1.4l2.9,1.8c-1.1,1.2-2.5-0.6-3.5,0.8
	c0.7,0.4,0.5,2.2,2.2,0.9c-1.7,1.4-0.3,2.4,0.3,3c1,0.7,2,1.3,3.1,1.8c-2.1-0.9-3.2,2-5.3,1.3c0.1-1.3,1.5-2.5,0.4-3.8
	c-0.9,0.1-0.7,1.2-1.5,1.2c0-0.7,0.7-1.6-0.4-2.2c-0.8,0.2-0.3,1.6-1.6,1.4l-0.2-3.2c-0.7-0.2-0.7,0.9-1.5,0.6v-2.6
	c-0.5,0-0.9,0-1.4,0.1c-3.5,1-2.9-1.4-3-3.4c-0.1-1.2,0.2-2.5-0.6-3.7c-0.9,1-0.1,2.6-1.4,3.6c-0.6-1.4-0.2-2.9-1.1-4
	c-1-0.3-0.5,0.9-1.1,0.9c-0.4-0.5,0.1-1.3-0.5-1.7c-0.8,0-0.9,1.4-1.8,1c0.1-3.1-2.4-5.1-2.7-8.3c-1,1.6-0.3,3.1-1,4.2
	c-2.4-0.7-2.1-3.2-3.4-5c-0.3,2.5-0.2,4.2,0.4,5.1c-2.2-3-0.8-6.8-2.4-10v7.5c-1.6-0.7-1-2.5-2.5-3.2l2.6,8.8l-0.7,0.2
	c-3.5-4.3-3.3-10.2-6.1-14.9c-0.7,0.6,0,1.5-0.9,1.9c-0.7-1.9-0.6-4-2.1-6.3c0.6,5,0.3,9.6,2.2,13.9c-4.1-4.3-6.3-10.2-11.9-13.4
	c0.9,3.3,3.1,5.7,4.4,8.6c0.3,0.7,0.1,0.9-0.6,0.5c-1.8-1.3-3.4-2.9-4.6-4.8c-1.4-2.2-2.9-4.3-4.3-6.4c-0.6-0.9-0.7-0.9-1.1,0
	l0.2,1.1c-0.7,0.1-0.6-0.4-0.8-0.7c-0.4-0.1-0.7-0.4-1.1-0.1c1.1,2.3,3.4,3.8,3.9,7.2c-3.9-3.4-8.1-6.3-12.7-8.7l2.1,2.5l0.4,1
	l-0.3,0.1l-0.5-0.7c-1.4-0.8-2.8-2.3-4.2-2.2c-2.4,0.1-4-1.4-5.9-2.2l-0.4,0.4c1.3,1.9,3.3,3.2,4.9,4.9c0.6,0.3,1.2,0.7,0.9,1.6
	c-0.9,0.3-1-0.8-1.6-1c-2.7-1.2-5.3-2.8-8.4-2.8c0.2,0.1,0.6,0.1,0.4,0.4s-0.5,0-0.7-0.1c-0.7-0.4-1.5-0.4-2.2-0.1
	c2.6,2.1,5.7,3.2,8.4,5c0.3,0.1,0.6,0.1,0.6,0.5c-0.3,0.3-0.8,0.3-1.1,0c-1-0.2-2-0.5-3-0.9c-4.8-2.2-9.6-3.5-14.9-2l8.7,4.2
	c-2.6,0.2-4.5-0.5-6.5-0.8c-2.9-0.5-5.9-2.2-9,0.2l8.1,2c-2.1,0.5-4.4,0.4-6.5-0.1c-2-0.4-3.3,1.2-5.3,1.2c2.4,1.2,4.9,0.5,7.6,1.1
	c-1.8,0.8-3.4,1.1-4,3.1c7.2-1.2,13.7-4.6,21.1-4.7c6.3,0,12.6-1,18.9,0.2c-0.5,0.1-1,0.3-1.4,0.6c2.2,2.2,6,0,7.6,3.2
	c-0.6,0.7-1.6-0.4-2.1,0.5l5.5,3.6c-5-0.7-9.3-4.2-14.8-3.5c0.3,0.9,1.4,0.9,1.2,2c-1.5-0.1-3-0.5-4.3-1.3c-1.1-0.5-2-1.7-3.4-1.2
	c0.2,0.3,0.7,0.4,0.5,1.2c-2.5-1.2-5.1-0.8-7.6-0.1c-2.1,0.7-4.2,1.2-6.4,1.5l4.4,1.2c-1,1.1-2.4,0.7-3.6,1c0.5,1.5,1.9,0.9,2.5,1.3
	c-2.2,1.4-4.9-1.4-7.4,0.2c-0.1,0.5,0.4,0.6,0.5,0.7c-2.4,1.1-5.1,0.5-7.6,1c0.1,2.4,2.2,0.6,3.4,1.8l-5.6,3.1h2.6
	c0.1,0.7-0.1,0.9-0.9,0.8c-1.5-0.2-2.9,0.1-4.2,0.9c1.4,0.6,2.8-0.4,4.1,0.6l-3.1,1.4v0.7c1.8-0.9,3.6,0.2,5.4-0.6
	c4.6-2,8.9-4.5,13.4-6.7c2.1-1,4.1-2.5,6.6-2.2c-0.9,0.9-2.4,0.5-3.4,1.9c1.1-0.3,1.8-0.6,2.6-0.8c4.6-1.1,8.8-3.9,13.9-2.6
	c4.5,1.2,8.9,2.2,13.7,3.4c-0.8,1-1.6,0.7-2.4,1.1l8.6,2.1c-1.2,1.1-1.9,2-1,3.3l-2.2,0.5l-1.6-2.1c-0.9,0.4-1.8,0.8-1.6,1.7
	c-3.7,0.1-6.6,2.3-10,3.5c1.2,1.1,2.3,0.7,2.9,0.9c-2.5,1.2-4.9,2.6-7.1,4.2c-0.1,0.5,0.2,0.9,0.7,1c0,0,0,0,0,0c0,0,0.1,0,0.1,0
	c-0.2,0.3-0.5,0.6-0.7,0.9c0,0.1,0.1,0.3,0.2,0.4c1.1,0.3,2.2-0.6,3.3,0c-4.9,1.7-9,5.7-14.7,4.9l6.5,1.7c-1.7,0.9-3.2-0.2-4.6,0.4
	c0.4,0.5,1.5,0.2,1.6,1.1c-2.2,1-4.7,1.6-6.7,3.2c2.2,0.1,4.3,0.9,5.9,0.1c-1.1,0.6-2.7,1.3-4.3,2.2c-0.3,0.2-1,0.3-0.8,1
	c0,0.1,0.4,0.1,0.6,0.2l-0.1,0.1c-0.8,0.5-2.4,0.4-2.3,1c0.2,2.5-2,3-3.2,4s-0.1,2.4-1,2.9c-1.6,0.8-2.7,1.7-2.6,3.7
	c0,0.1-0.6,0.3-1.1,0.5l1.8,0.3c-0.9,2.4-3.1,2.6-5.1,3.4c1.9,0.9,3.9,0.3,5.8,1.2c-2,1.7-4.5,0.6-6.6,2l2.3,0.4l-4.9,1.2
	c0.8,1.2,2.1,1.9,3.5,2.1c-0.9,0.8-1.8,0.6-2.7,0.8c-1.7,0.4-3.6,0.3-5,1.8c-0.3,0.4-0.7,0.7-0.3,1.4c0.6,0.4,1.7-0.5,2.4,0.4
	c-0.6,0.8-1.6,0.9-2.5,1.2s-1.8,0.9-1.6,2c0.2,1.5,1.4,0.7,2.2,0.9c-1,0.6-2.2,1.2-2.1,2.6c0,0.6,0.1,0.7-0.4,1
	c-2.8,1.8-4.9,4.5-7.9,6.2c-0.6,0.2-1,0.9-0.9,1.5c0.2,1.1,1.2,0.1,1.7,0.8c-1.9,2.1-4.5,3.6-5.9,6.8l3-1.7c1.6,2.6-2.5,3.4-1.8,5.7
	c3.3-1.9,6-4.8,7.8-8.2c2-3.9,3.9-8,8.4-9.8h0.1c0.2,0.2,0.5,0.4,0.8,0.6l4.3-3.4c0.9,1,0,2,0.2,3c3.9-5.4,6-12,11.5-16.1
	c0.6,0.4-0.2,1,0.4,1.3c3.6-4.7,10.5-8.2,13.9-7.2c0,1-1.3,0.8-1.6,1.6c1.9,0.2,3.7-1.2,6-0.3l-9.7,4c2.1,1.2,0.3,2-0.2,2.5
	c-1,0.8-2.1,1.6-3.3,2.2c0.2,1,1.2,0.6,1.7,1c-2.6,2.8-2.9,3.1-2.8,3.6c1.3,0,2.1-1.4,3.7-1.4c-1.4,2.9-4.6,3.6-6.2,5.8
	c0.2,0.6,1.1,0.3,1.1,0.4l-7.6,8.3c1.7,0.5,2.5-1.8,4.2-1.2c-0.4,1.4-1.7,1.7-3.1,2.7c1-0.2,2,0.2,2.6,1l-5.5,1.9
	c2.1,0.7,3.7-0.6,5.9-0.2c-4.3,1.6-5.9,5.5-9.1,8.1c3,0.2,4.9-2.2,7.5-2.5c0,0.9-0.6,1.1-1.1,1.4c-3.4,2.2-6.9,4.4-10.3,6.8
	c-0.7,0.5-1.8,0.6-1.6,2c0.3,1.9,1.7-0.5,2.1,1c-2.4,2.3-5.4,4.3-8.1,6.6l5.1-1c0.2,0.8,0.3,1.4-0.3,1.8c-3,2.1-4.6,5.3-6.6,8.2
	c-0.4,0.5-0.6,1.1-0.5,1.7c0.2,1.4,1.4-0.3,1.4,0.6c-0.3,2.7-2.6,4.7-2.6,7.9c0.8-0.3,1.5-0.9,2-1.6c-0.1,0.8-1.2,1.9,0,2.6
	s2.1-0.4,2.7-1.4c1.1-1.5,1.9-3.2,2.6-4.9c1.2-3.1,2.6-6.2,3.9-9.2c0.9-1.9,2.6-2.4,3.7-1c0.8-1.5,1.6-3,3.6-3
	c-0.1,1.3-0.7,2.5-1.8,3.3c-1.6,1.3-2.8,3.1-4.7,4.1c-0.6,0.3-1.2,1-0.5,1.8c0.4,0.4,0.7,0.1,0.9-0.3c0.4,1.4-0.9,1.7-1.5,2.3
	c-1.4,1.3-2.7,2.5-1.8,4.6c0.8,0.6,1.4-0.8,2.3-0.1l-5.8,7.3c0.8,1.4,1.5-0.4,2.3,0.4c0.3,1.8-2.1,2.8-1.7,5.1
	c1.7-1.6,3.2-3.5,4.4-5.5c0.1,0.6,0.3,1.3,0.5,1.9c1.3-0.2,1.5-1.1,1.8-1.9c1.1-4.3,2.7-8.4,4.8-12.2c2.7-4.9,5-10,8.1-14.8
	c2.5-3.9,5.7-7.3,8.3-11.1c0.3-0.4,1-1.2,1.2-1.1c2.7,1.4,5.2-0.6,7.8-0.1c-2.4,1.9-5.5,2.2-8.6,4.2c3.8,0.7,6.6-1.9,10.3-1.3
	l-10.5,5.6c0.3,1.5,1.1,0.4,1.6,0.7c0.4-0.2,0.8-0.4,1.1,0s-0.2,0.5-0.5,0.6c-2.1,1.3-4.3,2.6-5.5,5c2.1,0.3,3.6-1.1,5.4-1.6
	c0.3-0.3,0.7-0.4,1-0.1s-0.2,0.5-0.4,0.6c-1.2,1.4-3,2-4.4,3.1c-1.3,1-3.1,1.4-3.7,3.2c0,0-0.1,0-0.1,0v0.1l3.3-0.6
	c0.1-0.8,1-0.7,1.5-1l0.6-0.4c0.3-0.3,0.7-0.6,1-0.2s-0.2,0.6-0.6,0.8l-0.4,0.3l-1.3,1c-1.1,1.4-3.9,2.2-1.6,5
	c0.4,0.1,0.6-1.2,1.4-0.8c0.3,0.3-0.4,1.2,0.6,1.2c1.3-0.6,2.1-1.8,3.2-2.7c0.2-0.2,0.4-0.5,0.7-0.1c0-0.5,0.2-0.6,0.4-0.6l0,0
	c0.4-0.3,0.4,0,0.4,0.2l0.1,0.1h-0.1c0,0,0,0,0.1,0.1l-0.9,0.3c0.1,0.3-0.1,0.5-0.4,0.6c-2.5,4-6.2,7.1-8.9,11.5
	c1.5,0,2.9-0.5,3.9-1.6c0.2-0.1,0.4-0.3,0.5-0.2c0.4,0.2,0.2,0.4,0,0.7l-4.1,7.7c3.2-0.3,0.6,1.6,1.3,2.5c2.1-0.8,1.8-3.5,3.6-4.6
	v4.1c4.6-2.7,2.9-7.9,4.1-12.3l1.1,5.5h0.2c0.3-2.9-0.9-5.9,0.4-8.6c2,0.1,0.9,2.1,2,2.8c0.3-3.9,0-7.8,1.1-12.1l0.9,3.3l0.7,0.1
	c1.1-2.1,0.1-4.7,0.9-7.1c0.9,0.8,0.6,2,1.1,2.3c1.3-3,1.7-6.4,1.2-9.6c1.6,0,2.4,0.9,3.3,1.6l0.8-2.1c0.6,0.1,0.6,1.1,1.4,1.2
	c0.2-1.6-0.7-3-0.9-4.4c-0.1-0.3-0.2-0.6,0.1-0.8c0,0,0.3,0.2,0.4,0.4c0.8,0.2,0.9,1.4,2.1,1.1c-0.9-1.5-0.4-3.2-0.9-4.8
	c1.9-0.3,2.4,1.9,4.3,1.9c-2.2-2.4-0.2-4.4-0.1-6.7c1.4,0.4,2.2,1.6,3.6,1.6c0.1-1.3-1.8-2.6,0.2-3.9l-1.9-0.9
	c1.9-2.4,4.8-0.4,7.1-1.4c-1-1.1-2.3-1.1-3.9-1.8c3-1.1,6.1-0.9,7.8-3.5l-0.6-0.8c1.8-0.4,3.2-2.4,5.2-0.8c0.4-2.4,6.2-5.3,9.9-4.9
	c-0.3,1.2-1.2,2.4,0.2,3.4c-1.6,1.3-3.7,0.8-5.2,2.1c0.4,0.2,0.7,0.1,0.7,0.7c-1.9,0.7-4.1,0.4-6.6,1.6h7.9c-2.8,1.7-6.9,1-9.5,3.7
	l0.2,0.7l5.2-0.6c-3,1.4-6.3,1.9-9.4,3.6l3,0.3c-1.3,1-2.9,0.8-4.4,2.2c2.5-0.4,4.4-0.4,5.9,0.7c-1.7,0.6-4.4,0.6-5.3,1.9
	c-1.4,2-3.3,2.1-5.1,2.8c-0.5,0.2-1.1,0.4-1.1,0.8s0.3,1.1,1.1,1c0.5-0.1,0.9,0,1.2,0.8c-2.9,1.8-6.7,2.3-8.5,5.7
	c0.8,0.5,1.6-0.3,2.4-0.3c0.4-0.3,0.9-0.2,1.2,0.1l-0.9,0.3l-2.2,1.4c4-0.2,6.6-3.2,10.3-3.2c-4.3,1.7-7.9,4.6-12.2,6.9
	c2.5,0.4,3.8-1.9,6.2-1.7c-3,2.1-6.2,3.3-8.7,5.6c0.6,0.5,1.8-0.2,1.8,0.8c0,1.8-2.3,1.4-2.9,2.9c2.2-0.2,3.7-2.2,5.8-2.2
	c0.4,1.4-3.4,2-0.4,3.5c-0.6,0.6-1.5,1.1-0.8,2s1.4-0.1,2-0.5s1.4-1,2-1.5l0.7-1.3c0.2,0.3,0.1,0.7-0.1,0.9l0.5,0.8l1.7-0.5
	c0.2,1.2-1,1.3-1.6,1.8c-3.3,2.4-5.7,5.7-8.8,8.1c1.1,2.1,2-0.1,3,0.3c0.5,0.6-0.7,0.8-0.3,1.4c0.5,0.1,0.9-0.6,1.4-0.3
	c0.1-1.4,1.2-2,2-2.7c0.2,0,0.5,0,0.6,0.2c0.2,0.4-0.1,0.5-0.4,0.7c-0.4,0.9-1.1,1.6-2,2.1l0.1,0.1c-1.1,2.3-3.4,3.7-5.3,5.5
	c1.9,0.9,2.6-0.7,3.9-1.3c-1.5,2.2-2.5,4.8-2.8,7.4l0.9-0.2c0.5-0.4,0.8-0.4,0.7,0.4c-0.3,0.8-0.7,1.6-1.2,2.3
	c-0.5,0.4-0.5,1.1-0.1,1.6c0,0,0,0,0,0c0.7,0.8,1-0.4,1.5-0.6l0.5-0.7c0.3,0.3,0.4,0.8,0.1,1.2c0,0-0.1,0.1-0.1,0.1
	c0,0.7-1.1,1.4-0.3,2.2c1.1,1.1,1.1-1.1,2.1-0.7c0.1,1.5-1.8,2.4-1.6,3.9c0.6,0.3,1.3,0.1,1.6-0.5c-0.3,0.9-0.3,0.9,0.1,2.2
	c1.6-2.2,1.8-4.9,3.1-7.1c0.5,2.4-0.8,4.3-0.7,6.5l1.3-0.2c-0.2,1.6,0.3,3.2-1,4.4c1,0.7,1.6-0.6,2.4-0.1c0.4,0.5,0,1.2,0.9,1.6
	l1.4-1.7c-0.5,0.8,0,1.9-0.3,2.7L204,269c-0.5,0.3-1.3,0.5-1.2,1c0.2,2.2-1.6,3.5-2.1,5.3l0.4,0.5c0.4,0,0.5-0.9,1.1-0.5
	c0.4,2.8-3.4,5.5-0.2,8.5c0.8-0.8,0.7-1.8,1.7-2.4c-0.2,1.9-1.3,3.6-0.4,5.4h2.1c0.6,0.7-0.3,2,1.2,2.5c0.2-2.2,0.4-4.4,0.7-6.5
	s0-4.7,1.2-6c1.4-1.6,0.9-2.9,0.9-4.4c-0.1-1.5,0-3.1,0.4-4.5c0.7,3.4-0.1,6.4,1.7,9c-1.1-5.9-0.3-11.7,0.1-17.6
	c0.2,2.4,1.1,5.1,1.9,5.4c0.7-0.6-0.1-2,1.3-2.3c0.7,0.7,0.1,2,0.8,2.4c3-3.7,0.9-7.4-0.1-11.2c-0.2-0.7-0.5-1.4-0.7-2.1
	c-0.4-1.3-0.3-1.8,0.4-3.8c0.4,2.9,0.7,5.7,2.2,8.1c0.6-1.6-0.1-3.1-0.4-4.6c-0.4-2.2-0.4-2.2,1-4.1c0.7,1.3,0.4,3.1,1.9,4.3
	c0.4-4.2-1.5-7.8-2.1-11.8c1,1,0.6,2.5,2.4,3.3l-1.8-7c1,2.5,2.3,4.8,4,6.9c0.8-1.8-1.2-3.1-0.9-5c1.1,0.1,0.9,1.5,1.8,1.5
	c0.8-0.8-0.8-1.4,0.1-2.4c0.2-0.5,0.6,0.9,1.1,0.3c0.1-2.8-2.3-4.9-2.6-8l-0.1,0.1c0,0-0.1-0.1-0.2-0.1l0.3-0.2l0.2,0.2h-0.1
	l4.6,3.5c-0.5-2.2-1.9-3.4-2.7-4.9c0.4-0.6,0.9,0.4,1.2-0.1c-0.3-1.6-2.1-2.5-2.2-4.3c1.2,2.3,3.5,3.1,5.7,4.9
	c-0.6-2.6-2.1-4.2-2.9-6.2c1.1-0.1,1.4,1,2.4,0.6c-0.2-1.3-1.5-1.7-2.4-2.8c2.6-0.7,4.3,1.7,6.6,1.1c-0.5-1.4-1.9-2.1-2.6-3.4
	c1.2-0.4,1.9,1,3.1,0.5c-1.2-2.1-4-2.3-5.3-4.2c2.5,0.4,5.2-2.4,7.7,0.6c-0.7-2.4-2.9-2.7-4.7-4c2.6,0.5,4.8-1.8,7.5,0.3
	c-1.2-3.7-4.7-2.5-6.7-4.2c1-0.8,2.4-1.1,3.6-0.7c2.5,0.8,4.8-1.1,7.3-0.8c0.1,0,0.2-0.2,0.2-0.3c-2.2,0.1-3.8-2-6.4-1.3
	c1.6-2.3,3.6-2.3,5.6-2.1c0.4,0,0.2,0.5,0.1,0.8l0.3,0.3c0.7,0.2,1-1.1,1.9-0.6l-0.8,1.2l0.5,0.7c0.7-0.1,1.1-1.3,2.2-0.8l-3.1,5.9
	c2.8-1.1,4-3.5,6.4-4.7c-1,2.9-5.3,3.4-4.5,7.1c2.9,0.3,2.6-4.2,5.7-3.4c-3,3.2-3.6,7.3-4.6,11.2c1,0.1,1.3-1,2.2-0.7
	c0.2,0.7-1.8,1.1-0.7,1.8c1.2,0.4,1.4-1.3,2.6-0.8c-0.3,1.4-1.3,2.4-1.9,3.6c-0.2,0.4-1.5,1.9,0.6,1.6l0.5-0.1l-0.2,0.5
	c0.5,2.1,1.2-1,1.8,0.1c0.6,1.4-1.3,1.6-1.3,2.7c0.2,0.1,0.5,0.1,0.4,0.5c0,0.1-0.2,0-0.4,0.1c0.8,0.3-0.9,1.4,0.7,1.7
	c1.2,0.3,0.7-1.4,1.5-1c0.8,1.9-1.1,4.1,0.6,5.8c0.9,0.1,1.1-0.7,1.7-1.3c-0.1,0.9-0.6,1.6,0,2.3l0.6,0.5c0.7-0.2,1-1.3,2-1.2
	c0.6,1-0.3,1.6-0.6,2.3c-0.5,1.2-1.7,2.1-1.5,3.6h-0.1c2.1,1.1,2.2-2,4.2-1.9c-0.8,1.6-1.4,3.1-2.2,4.4s-0.3,2.9-0.3,4.6
	c1.6-1.4,1.9-3.3,4-4.5c-1,3.9-2.5,7.5,0,11.3c1.7-1.8,1.3-4,2.2-6c1.6,2,1.7,4.4,3.1,6.2c1.3-2-0.5-3.7-0.4-5.7
	c1.1,0.4,1.9,1.4,2.1,2.6l0,0c0.4-1.7,0.1-3.5-0.7-5.1c0.4-0.4,1.1,0.1,1.4-0.7l-1.4-2.8c0.7-0.4,1.1,0.1,1.6,0.3l0.5-0.7
	c0.2-1.2,1.5-2.4,0-3.6l0.4-0.7l-0.4-0.5c0.1,0,0.2-0.1,0.3-0.1c0.5,0.1,0,0.7,0.4,0.9l0,0c1.9,0.6,1.1,2.4,1.6,3.8
	c2.1-1.4,3-3.9,5-5.4c0.5,1,1,1.8,0.4,2.8c-1.5,2.5-3.6,5-2,8.4c0.3-0.5,1-0.6,1.4-0.3s0.6,1,0.3,1.4l0,0c0.7,0.5,1.6-0.1,2.1-1
	c0.3-0.5,0.2-1.3,1.1-1.3v-0.1l0,0l-2.9,7.3c3.1-1.6,0.8,1.1,1.8,1.3c1.1,0,0.9-1.4,1.6-1.7c0.9,1.2-2,3.3,1.1,4.1l-0.3,3.3l2.1-1
	c-0.7,1.6-1.3,3.2,0,4.2s1.6-0.8,2.1-1.6c0.7,0.8,1.1,1.8,1.3,2.8c1.1,3.9,2.2,7.9,3.3,11.8c1,3.5,2.2,7,3.2,10.5
	c1.9,6.1,3.4,12.4,4.8,18.6c0.9,4.1,1.8,8.3,2.5,12.5c0.9,5.8,1.5,11.7,2.4,17.5c0.2,1.4,0.6,2.8,0.7,4.3c0.3,5.2,0.7,10.4,1.2,15.5
	c0.6,6.2,1.4,12.4,2.1,18.6c0.2,2.1,0,4.3,0.3,6.5c0.6,3.8,0.9,7.6,1.2,11.4c0.5,6.1,0.8,12.3,1.4,18.4c0.4,3.8-0.1,7.7,1.2,11.4
	c0.2,0.6,0.3,1.3,0.1,2c0,1.1,0,2.2,0,3.3c0.4,2.5,0.7,5,0.7,7.5c0.2,1.8,0.3,3.6,0.4,5.4c0.2,1.4,0.5,2.7,0.6,4.1
	c0.6,6.8,1.1,13.5,2,20.3c0.5,3.6,0.9,7.3,1.6,10.9c0.9,4.6,0.8,9.4,2,14.1c0.2,0.7,0.5,1.4,1.1,2c1.4,1.7,3.9,1.6,5.3,3.1h3.4
	c-0.5-2.9-1-5.8-1.4-8.7c-1-7.7-1.8-15.4-3.1-23c-0.7-3.8-0.4-7.5-1-11.3c-0.6-4-1-8.1-1.5-12.6c-0.2-1-0.3-2-0.3-3
	c0-1.6-0.3-3.2-0.3-4.9c0-0.1,0-0.1,0-0.2c-0.2-1.6-0.3-3.2-0.3-4.8c0-0.2,0-0.4,0-0.6l0,0c-0.5-5.5-0.6-10.5-1.4-15.5
	c-0.6-3.8,0.2-7.6-0.6-11.3s-0.6-7.4-1.2-11.1c-0.5-3.2-0.4-6.4-0.8-9.6c-0.8-7.1-0.8-14.2-2.2-21.2c-0.7-3.5,0.2-7.2-0.7-10.6
	s-0.7-6.8-1.3-10.2c-1.2-6.7-1.5-13.6-2.7-20.3c-0.4-2.6-0.5-5.3-1.4-7.8c-1.2-3.6-2.2-7.4-2.8-11.2c-1.2-5.8-2.9-11.6-5-17.1
	c-1.1-3.2-1.5-6.6-2.5-9.8c-1.2-3.9-3.6-7.5-3.1-11.8c0.3-2-0.1-4.1-1.1-5.9c-0.1-0.1,0.1-0.3,0.1-0.4c0.5-0.7,1.1,0.4,1.6,0.1
	c0.3-1.2-1.1-2.2,0-3.2l0.4-0.3l-2-2.6c0.7-0.3,1.1,0.3,1.6,0.4l0.2-0.6c-0.5-0.6-0.9-1.4,0.1-1.6c1.3-0.3,0.6-0.9,0.5-1.5l-1.3-1
	c0.8-0.3,1.4-0.4,1.8,0.2c0.6,0,0.9,1,1.6,0.6c-0.6-0.7-0.2-1.7-0.9-2.3l1.2,0.3l0.5-0.6l-2.6-2.5c1.5-0.1,2.5-1.7,4.3-1.1
	c-0.7-2.1-3-2.2-3.7-3.9c1.1-0.8,1.7,0.9,2.7,0.3c0-1.8-2.2-1.4-2.8-2.7c1.3-0.5,2.3,0.3,3.6,0.8c-0.3-1.6,0.8-2.1,1.7-3l-6.5-3
	c1.7-0.3,2.8,1,4.2,0.7c0.1-0.7-1.2-0.6-0.8-1.4c0.9-0.5,1.8,0.7,2.8-0.1c-3-3.1-7.5-2.5-10.8-4.6c3.3,0,6.5,1.6,9.9,0.9l0.1-0.9
	l-10.3-2.7c3-0.2,5.9,1.1,9.6,0.8c-2.4-1.4-4.6-0.9-6.4-1.8c2.5-0.8,5.1,2.2,8.3,0.1c-5.6-2.9-11.8-1.7-16.9-4.6
	c5.3-0.6,10.3,1.6,15.4,1.4c-0.7-1.2,0.8-2.3,0.1-3.5c-4.7-0.9-9.7-0.2-13.8-1.6c3.5-0.8,7.9,0.8,12.2-0.6l-5.8-0.5
	c2.1-0.5,4.5,0.4,6.6-0.7c-6.4-2.7-13.5-1.1-20.1-3.7c6.3-1.3,12.6,0.1,18.8-1.7c-0.8-0.7-1.7-0.3-2.1-0.9c0.4-0.5,1.1-0.3,1.1-0.8
	c-1.7-2.7-5-4-8.1-3c1.5-1.1,3.6-0.9,4.5-2.9l-13.6,1.1c3.8-2.2,8.5-0.5,12.7-3.1c-3.7-1.5-7.2-0.1-10.6-0.9
	c1.6-1.1,3.2-0.9,4.8-1.2c2.9-0.5,2.9-0.5,4-2.3c-2.3,0.1-4.4,1.2-6.9,0.6c1.5-1.3,3.7-0.8,4.8-1.9c-0.7-0.3-1.2-0.8-1.6-1.4
	c-0.1,0.2-0.3,0.3-0.4,0.4c-0.6,0-0.8-0.2-0.8-0.6c-0.1-0.4,0.2-0.8,0.6-0.9h0.1c-0.5-2,0.6-4.5-0.9-6.1l0.7-0.4l3.6,4.5l1.2-0.8
	c0-0.8-1.2-1-0.9-1.9c0.5-0.6,1.3,0.1,1.8-0.4c-0.5-0.9-0.1-1.4,1.1-1.7l-7-7.5c2.4-0.1,3.3,1.2,4.5,2.6c1.5-3.7,4.7-2.7,6.9-3.3
	c1.5,0.6-0.1,1.5,0.9,2v-0.1l0.8-0.3c0.3,0.6-0.7,1,0,1.5c1.4-0.9,1.1-3.4,3.4-3.8c-0.8,2.4-3,4.3-1.1,7c0.7-1.2,1.3-2.4,2.1-3.4
	s0.9-2.8,3-3.1l-2.9,9.2c1.2,0.6,0.9-0.9,1.6-0.8c0,0.7,0,1.5,0.9,1.3c0.4-0.1,0.8-0.3,1.1-0.6c-0.1,0.6,0,1.3,0.1,1.9
	c1.4,0.6,0.8-1.5,2.1-0.9c0.5,1.4-1.1,2.6-0.3,4.1c0.1,0,0.3,0.1,0.4,0.1c0.5-0.1,1-0.3,1.5-0.5c0.6,0.9,0.4,2.4,1.2,2.6
	c2.2,0.5,1.7,2.1,1.9,3.5c0.1,0.3,0.1,0.6,0.2,0.9l1.3-0.7c0.2,1.6,0.8,2.8,2.9,2.8l-0.8-6.9c2.8,2.5,4,5.5,6.3,7.7
	c2.3-2.9-1.5-4.5-1.6-7.1c1.8,2,3.7,2.2,5.9,2.3c-0.3,2.3,1.2,4.4,3.4,4.9c0.3-1.6-1-3.1-0.5-5.1c2.4,2.1,4.1,4.6,6.8,6.1
	c-1.2-2.2-4.2-4-1.4-6.7c-0.3-1.2-1.4-1.4-1.8-2.3c1.9-0.1,1.9-0.1,2.4-1.8l-5.8-3.4c1.5-0.6,2.7,0.5,3.9,0.7c0.7-0.5-0.1-1,0.2-1.4
	c0.5-0.5,1.3,0.6,2-0.4l-4.6-2.1c0.8,0.1,1.6,0.2,2.5,0.1c-2.8-1.9-6.3-2.4-9-4.7c1-0.2,2-0.2,2.9,0.1c1.8,0.4,3.7,1.5,5.3,1.1
	c2.3-0.5,3.9,0.5,5.8,1.3c4.6,2,8.1,5.4,12,8.4c5.6,4.3,10.1,9.7,14.4,15.2s7.9,11.4,12.9,16.3c0.5,0.5,0.8,0.9,1.5,0.6
	c0.4-0.7-0.8-1.3,0-2.1c0.6-0.2,1.3,0.5,2,0.1C381.3,210.3,378.8,209.2,380.1,206.2z M306.3,84.5c0.3,0.5-0.1,0.7-0.8,1.2
	C305.8,85,305.8,84.5,306.3,84.5z M287.8,91c0.2-0.2,0.4-0.6,0.7-0.2s-0.1,0.5-0.4,0.5c0,0.4-0.2,0.5-0.6,0.4
	C287.2,91.4,287.6,91.2,287.8,91z M287.5,91.8l-0.2,0.6c-0.1-0.1-0.1-0.3-0.2-0.4C287.1,91.7,287.4,91.8,287.5,91.8L287.5,91.8z
	 M287.2,92.4c-0.1,0.2-0.3,0.4-0.5,0.5C286.7,92.6,286.8,92.3,287.2,92.4L287.2,92.4z M286.2,92.7l0.4,0.2h-0.5L286.2,92.7z
	 M287.7,93.2c0.5-0.9,2.6-1.2,1.1-3.2c-0.3-0.4,1.2-2.3,2.8-2.4s2.6-0.5,2.7-2.3c0.2-1,1-1.7,1.9-1.8c2.6,0,5.2-0.1,7.9-0.3
	c-0.1,1-0.6,2-1.3,2.7l-1.1-1.6l-3.7,6.4l-1.9-1.1c-2.4,4.3-2.8,9.6-6.2,13.4c0.6-2.4,0.4-4.9-0.8-7.1c-1.5,2.4,0.1,5.8-2.9,8
	c-0.2-1.9-0.5-3.7-1-5.6C284.2,95.3,286.9,94.9,287.7,93.2L287.7,93.2z M283.6,100.6c0.3,1.3,1.4,2.6-0.7,3.5
	C283.4,103,281.7,101.6,283.6,100.6L283.6,100.6z M280.8,120.8c0.2,0.1,0.4,0.1,0.4,0.1c0.1,0.3-0.1,0.4-0.3,0.4s-0.3-0.1-0.4-0.1
	L280.8,120.8z M148.4,120.8c0.2-0.4,0.6-0.2,1.4,0H148.4z M169.8,115.5c-0.1-0.3,0.1-0.4,0.4-0.3L169.8,115.5z M148.4,181.4
	c0-0.4,0.3-0.4,0.9-0.3L148.4,181.4z M151,184.8l-0.1,0.1c0.4-2.3,2.5-2.8,4.2-3.7C153.9,182.6,152.5,183.8,151,184.8L151,184.8z
	 M146.1,230c-0.1,0.3-0.3,0.6-0.6,0.4s0-0.6,0.3-0.9s0.4-0.5,0.7-0.1S146.3,229.9,146.1,230L146.1,230z M147.3,228.6
	c-0.1,0-0.3-0.1-0.3-0.2c0-0.1,0-0.2,0.1-0.2c0.2-0.2,0.4-0.3,0.6-0.4l0.2,0.4C147.7,228.4,147.5,228.6,147.3,228.6L147.3,228.6z
	 M148.1,227.4v-0.2l0.1,0.1L148.1,227.4z M154.1,212.6c-0.2-1.1,0.3-1.1,1-1C155.1,212.5,154.7,212.6,154.1,212.6L154.1,212.6z
	 M154.8,229.1L154.8,229.1c0.4,0.1,0.7,0,0.5-0.5l0,0C155.6,229.2,155.4,229.4,154.8,229.1L154.8,229.1z M155.8,228.7
	c0.2-0.1,0.4-0.4,0.7-0.4C156.4,229,156.1,228.8,155.8,228.7L155.8,228.7z M157.8,227.2c0-0.7,0.4-0.5,0.8-0.5L157.8,227.2z
	 M161,220.2v-0.3l0.3,0.1L161,220.2z M162.4,212.1c-0.1-0.2-0.1-0.3-0.1-0.5c0.3-0.1,0.7-0.4,0.8,0.2
	C162.8,211.7,163,212.7,162.4,212.1L162.4,212.1z M163,211.7c-0.1-1.7,0.1-2,2.1-2.7C165.5,210.8,163.9,211,163,211.7L163,211.7z
	 M182.2,211.8c0.6-0.5,1.4-0.9,2.2-1.2L182.2,211.8z M193.8,143l-5,2.2c4.4-0.4,8.3-3.5,12.9-2.8c-1.1,0.4-2.1,1.1-3.1,1.8
	c0.9,0.4,1.9,0.5,2.9,0.3c-0.7,0.5-0.5,1.4,0.4,3s0.9,1.8-1.1,2c-0.7-0.8,0.1-2.2-1.2-2.7c-0.9,0.6-0.9,1.7-0.9,2.6
	c-2.9,0.1-4.4-2.2-6.1-4c-0.3,1.8,0.8,3,1.3,4.7c-1.4-0.8-3-1.4-4.6-1.5c-0.1,0.1-0.2,0.3-0.3,0.4c-0.6-1.2-1.4-2.4-2.2-3.5
	C188.8,144.2,191.2,143.3,193.8,143z M198.6,155.8c-0.9,0.3-1.3-0.3-1.8-1.4l2.2-0.1C199.2,155,199.3,155.6,198.6,155.8L198.6,155.8
	z M192.6,156.8c-1.2-0.4-2.5,0-3.4-1.3C190.6,155.1,192,154.1,192.6,156.8L192.6,156.8z M189.4,150.3c0.3,0.3,0.3,0.7,0.2,1.1
	C189.6,151,189.5,150.6,189.4,150.3L189.4,150.3z M170.8,149.8c-0.1,0-0.1,0-0.2,0c-0.1,0-0.1-0.1-0.2-0.1h0.4
	C170.9,149.7,170.8,149.8,170.8,149.8L170.8,149.8z M175.4,158.2c0.3-0.1,0.7-0.2,1-0.2C176.1,158.1,175.7,158.2,175.4,158.2
	L175.4,158.2z M174.7,156.4c0.4,0,0.8-0.1,1.1-0.1v0.1H174.7z M172.2,154.9c4.1-3.4,7.6-7.5,12.3-10.1l-0.5,1.7
	c1,0.5,2.3,0.4,2.8,1.6c0.4,1,0.6,2,1,3.2c-2.1-0.4-4.3-0.5-6.4-0.1l3,0.9l0.1,0.9C180.3,153.4,176.4,154.9,172.2,154.9L172.2,154.9
	z M188.4,159.6c-2.1-0.5-3.7-0.5-5-2.1C185.5,156.9,186.6,158,188.4,159.6L188.4,159.6z M182.5,163.7c2.6-1,5.1-2.6,8.1-2.3
	C188,162.7,185.3,163.5,182.5,163.7L182.5,163.7z M177.1,186.2c1.9,0.4,4.1-0.3,6.2-0.4c-3.1,1.6-6.4,2.1-10.1,2.8
	C174.1,186.6,174.9,185.7,177.1,186.2L177.1,186.2z M190.4,191.3c-2.6,2.5-5.6,0-8.8,1.3c0.9-1.7,2.3-3.2,3.9-4.4
	C186.5,190.2,188.9,189.4,190.4,191.3L190.4,191.3z M189.7,186.5c1-1,2.3-1.5,3.7-1.6C193,187.4,191.4,186.5,189.7,186.5
	L189.7,186.5z M188.8,197.1c-1.4,0.6-2.9,1-4.4,0.9l4.3-3.2C188.3,196,188.3,196.7,188.8,197.1L188.8,197.1z M166.7,209.4
	c0.7-1.8,2.5-1.7,3.9-2.2C169.5,208.3,168.2,209.1,166.7,209.4L166.7,209.4z M168.6,205.4c0.5-1.3,2.8-2.3,6.7-2.9
	C173.4,204.2,171,205.2,168.6,205.4L168.6,205.4z M170.4,202.2c2.5-4.6,3.1-4.9,7.6-3.5L170.4,202.2z M178.7,196.3
	c1-1.2,1-1.2,4.8-0.3C180.1,197.2,180.1,197.2,178.7,196.3L178.7,196.3z M186.8,203.6c-0.1,0-0.1,0-0.2,0c-0.2-0.1-0.2-0.1,0-0.2
	c0.1,0,0.1,0,0.2,0.1S186.7,203.6,186.8,203.6L186.8,203.6z M180,204c1.5-4.4,3.3-5.8,6.6-5.2l-1.6,1c2.1,0.6,3.8-1,5.8-0.6
	C187.2,200.6,183.6,202.1,180,204L180,204z M191.7,196.9c0.8-0.2,1.7-0.6,2.8-0.9C193.6,196.6,192.6,196.9,191.7,196.9L191.7,196.9z
	 M190.1,195.7c1.6-1.9,3.6-3.5,5.8-4.7c2.4-1.4,4.4,0.7,6.6,0.6C198.1,191.8,194.6,194.6,190.1,195.7L190.1,195.7z M210.4,171
	c-1,0.3-0.4-0.6-0.5-1.2c1.2,0.9,1.7-0.5,2.8-1C212,169.6,211.3,170.8,210.4,171z M207.4,166.3c-0.3,0.2,0,1,0,1.6
	c1.8,0.1,2.9-1.2,4.3-1.8c0.2,0,0.5-0.1,0.6,0c0.2,0.3-0.1,0.3-0.3,0.3c-0.4,1.3-2.5,1.2-2.4,2.9c-1-0.7-1.8,0.8-2.7,0.4l-0.5,0.4
	c0.8,1,2.3,1.4,2.8,3c-2.1,0.9-3.5-1.5-5.4-1.4c-0.3,1.8,3.6,1.5,1.4,3.8c-2.6,0-4.9-1.5-7.4-2.1l-0.4,0.6l2.7,2.1
	c0.1,0.6-1.7,0.9-1.1,1.5c-2.6-1.1-5.1-0.6-7.5-0.9c1.1,1.1,2.8,0.6,4.5,1.6c-2.7,0-5.1-0.3-7.2,0.5c-0.5,0.9,0.6,1.2,0.5,2.2
	c0,0.1,0,0.2,0,0.2l-10.8,1.1l0.1,0.7c2.3,0.7,4.8,0,7.3,0.4c-3.1,1.5-6.1,0.1-9.1,0.5c7.6-14.9,18.9-22.8,30.7-23.3
	c-0.6,1-0.4,2.4,0.6,3.1l6.8-2C212.4,163.8,209.5,164.5,207.4,166.3L207.4,166.3z M211,142.1c1.8-0.9,3.1-1,4.3-0.2L211,142.1z
	 M200.8,220.7c0.3-0.4,0.8-0.4,1.2-0.1c0,0,0,0,0,0l0,0L200.8,220.7z M202.1,226c0,0.6-0.2,0.5-0.6,0.2L202.1,226L202.1,226z
	 M202,220.6c-0.4-1,0.4-1.1,1-1.3C203.2,220,201.8,219.7,202,220.6L202,220.6z M199.9,235.6c0-0.1,0.1-0.2,0.1-0.3l0.2,0.2l-0.2,0.3
	C200,235.7,199.9,235.6,199.9,235.6L199.9,235.6z M200.3,241.6c0,0-0.1,0-0.1,0.1l0.2-0.3C200.4,241.4,200.4,241.5,200.3,241.6
	L200.3,241.6z M204.2,227.4c-0.1,0.1-0.3,0-0.5,0c0-0.3,0.1-0.4,0.4-0.5C204.2,227.1,204.5,227.2,204.2,227.4L204.2,227.4z
	 M204.2,227l0.4-0.7l0,0C204.8,226.7,204.8,227,204.2,227L204.2,227z M204.8,226.6l-0.2-0.3h0.4L204.8,226.6z M216.6,259.2
	c0.3,0.3,0.3,0.8,0,1.1C216.3,260,216.3,259.5,216.6,259.2L216.6,259.2z M221.7,237.7c-0.6,0.5-0.6-0.3-0.8-0.7s-0.5-0.8-0.2-1.3
	c0.6,0,0.5,0.5,0.7,0.8S222.1,237.4,221.7,237.7L221.7,237.7z M223.1,149.7l2.9-0.7C225.2,149.8,224,150.1,223.1,149.7L223.1,149.7z
	 M226.9,166.3c-1.1-0.2-1.7-1.2-2.3-2.2c-0.2,0-0.5,0-0.3-0.3c0-0.1,0.4,0,0.6,0l2.5,1.9L226.9,166.3z M227.4,213.9l-0.2-0.2h0.3
	L227.4,213.9z M229.4,183.6c1.4-1.3,2.6-3,5.1-3.8C232.9,181.8,231.8,183.6,229.4,183.6L229.4,183.6z M237.2,205h-2
	C235.7,204.8,236.3,204.3,237.2,205L237.2,205z M244,201.8c-0.1-0.1-0.1-0.3,0.1-0.4c0,0,0.1,0,0.2,0.1L244,201.8z M258.2,239.2
	c0-0.1-0.1-0.1-0.1-0.1c0-0.1,0.1-0.2,0.1-0.3l0.2,0.2L258.2,239.2z M259.8,244l-0.3-0.2c0,0,0.1-0.1,0.1-0.1c0.1,0,0.2,0.1,0.3,0.1
	L259.8,244z M257.9,125.5l4-5.9c0.7,0.2,1.3,0.6,1.6,1.3C261,121.4,260.7,124.5,257.9,125.5L257.9,125.5z M261.9,127.2l1.6-1.5
	c0.6,0.6,1,1.3,1.2,2.2C263.6,128.8,263,127.1,261.9,127.2L261.9,127.2z M295.8,233.2c-0.3,0.5-0.6,0.2-0.9,0
	C295.2,232.8,295.5,232.8,295.8,233.2L295.8,233.2z M296.7,224.7c0-0.2,0.2-0.3,0.4-0.3c0,0,0.1,0,0.1,0c0.3,0.1,0.6,0.2,0.6,0.6
	s-0.2,0.4-0.5,0.3S296.6,225.1,296.7,224.7L296.7,224.7z M296.2,224.3c-0.4,0.8-0.8,0-1.3,0.4C295.4,223.8,295.9,224.4,296.2,224.3
	L296.2,224.3z M294.2,225.3c-0.9,0.4-1.4-0.3-2.1-0.5C292.9,224.6,293.7,224.8,294.2,225.3L294.2,225.3z M291.1,239.6
	c0.4,0.4,0.7,0.7,1.2,1.3C291.6,240.5,291,240.3,291.1,239.6L291.1,239.6z M290.7,239.1c0.1,0.1,0.2,0.3,0.3,0.5
	C290.6,239.6,290.7,239.3,290.7,239.1L290.7,239.1z M290.6,239c-0.3,0.1-0.4,0-0.4-0.1C290.3,238.9,290.5,238.9,290.6,239L290.6,239
	z M289.7,238L289.7,238c-0.1,0.4,0.1,0.5,0.5,0.4c-0.2,0.1-0.2,0.4-0.5,0.1S289.8,238.1,289.7,238L289.7,238z M288.2,235.3l0.2,0.2
	c-0.1,0-0.2,0.1-0.4,0.1c0.1-0.1,0.1-0.1,0.2-0.2C288.2,235.5,288.2,235.4,288.2,235.3L288.2,235.3z M285.7,234.3
	c0.5,0.8,0.8,1.9,2.1,1.4c-0.8,0.8,0.8,1,0.4,1.8C287.4,236.4,285.7,236.2,285.7,234.3L285.7,234.3z M285.7,234.3
	c-0.1,0.2,0,0.6-0.5,0.4c-0.1,0-0.1-0.1-0.2-0.2L285.7,234.3z M291.8,210.7c-1.5,0.3-3.1,0.1-4.6-0.5L291.8,210.7z M290.6,199.6
	c-2.5,0.5-5.7,1.2-9.1,0.7C284.5,199.6,287.5,199.4,290.6,199.6L290.6,199.6z M277.9,131c1.3,0.5,0.7,1.6,0.8,2.5
	c0.1,0.9,0,1.8-0.2,2.6C278.5,134.4,277.6,132.8,277.9,131z M272.8,109.3l0.1,0.2l-0.1,0.1c0-0.1-0.1-0.1-0.1-0.2
	S272.7,109.3,272.8,109.3L272.8,109.3z M275.4,134.3c0.4-0.5,1.4-0.8,1.1-1.8c1.1,1,1.2,2.9,0.5,3.4c-1.5,0.8,0.2,1.3-0.2,1.9
	c-1,0.2-1,0.2-1.9,2.7l-1.1-2.6c-1.2-0.2-1.4,1.2-2.6,1C272.6,137.4,274,135.9,275.4,134.3L275.4,134.3z M275.4,168.4
	c-0.3,0.7-0.9,0.6-1.4,0.5C274.4,168.5,274.8,168.1,275.4,168.4L275.4,168.4z M271.2,140.9c0.9,0.9,1.6,1.5,1,2.9
	c-0.7-0.9-1.5-1.2-2.7,0.1C269.8,142.7,270.4,141.7,271.2,140.9L271.2,140.9z M267.3,175.9c3.5-1.6,7.2-2.6,11-3
	C278.2,174.4,272,176.1,267.3,175.9L267.3,175.9z M270.2,238.2l4-5.1C274.8,235.4,272.1,238.6,270.2,238.2L270.2,238.2z
	 M274.7,192.5c1.8-1.1,3.7-0.5,5.5-0.6C278.5,192.4,276.6,192.6,274.7,192.5L274.7,192.5z M276.7,187.5c1.3-0.8,2.8-1.1,4.3-0.9
	C279.7,187.5,278.2,187.8,276.7,187.5L276.7,187.5z M271.4,178l0.1-0.6l9.3-2c0.5,0.7,0.3,1.5,0.4,2.3
	C277.8,180,274.6,177.6,271.4,178z M332.5,131.2c-1.8,0.7-3.7,1.2-5.6,1.5C328.8,132.3,330.5,131.2,332.5,131.2L332.5,131.2z
	 M328.5,128.4h-1C328,128,328.2,128.3,328.5,128.4L328.5,128.4z M325,131.5c0.7-0.1,1.4-1.1,2.2-0.2L325,131.5z M326.9,128.7
	c-0.6,0.5-0.9,0.4-1.2,0H326.9z M325.6,128.7L325.6,128.7c0.3,1.5-1,1.1-1.9,1.8C324.2,129.2,325.4,129.7,325.6,128.7L325.6,128.7z
	 M323,128.2c0.1,0.2,0,0.3-0.2,0.3c-0.1,0-0.1-0.1-0.2-0.1L323,128.2z M308.3,127.3c0.4,1.6-0.8,2.2-1.9,3.2
	C306.2,128.7,306.8,127.8,308.3,127.3L308.3,127.3z M302.3,129.6c0.4,1,1,1.9-0.4,2.6c-1.2,0.6-2.1,2.3-3.7,0.8
	C299.8,132.1,300.2,129.8,302.3,129.6L302.3,129.6z M297.9,133.1c-0.4,0.7,0.3,1.8-0.5,2.4C296.8,134.1,296.7,134,297.9,133.1
	L297.9,133.1z M297,121.8c-0.9,2.1-1.6,4.3-3.8,5.6C292.2,125,292.8,124.2,297,121.8L297,121.8z M293.6,135.1
	c-0.1,2.1-0.9,2.9-2.7,1.9L293.6,135.1z M292,165l-0.5-0.6c1.1-2.3,3.5-3.2,5.8-4.3L292,165z M297,148.7l0.1-0.1l0.1,0.1
	c0,0-0.1,0.1-0.1,0.1S297,148.8,297,148.7L297,148.7z M297.6,163.1c0.2-0.4,0.3-1,1-1.2C298.5,162.7,298,162.9,297.6,163.1
	L297.6,163.1z M313,183.4l0.4-3.1C313.4,181.3,314,182.4,313,183.4z M322.3,148.9c-0.6-0.1,0.2-0.9-0.3-1.1c-1.3,0.5-1,3-3.1,2.7
	c-0.2-0.6,0.7-0.9,0.3-1.4c-1.1-0.4-1.9,0.8-3,0.5c0,0-0.1-0.1-0.1-0.1c0-0.1,0-0.1,0.1-0.2l0,0c-1.4-0.8-3.1-0.9-4.5-0.2
	c-1.4,0.7-2.9,1.1-4.5,1.2c-0.6-2.7-2.1-2.9-5.3-0.7c-0.8-1.4-2-1.5-3.4-1.3c-0.2,0.1-0.4,0.2-0.5,0.3c0,0-0.1-0.1-0.1-0.2l0.5-0.3
	c0.3-1,1.8-1,2-2.6c-2.4,1.4-4.7,2.7-6.9,4c-1.4,0.8-2.1,0.6-2.2-1.2l-2.6,0.2c1.2-0.2,2.5-0.1,3.6-0.9l-1.5-1.6
	c2.3-1.3,2.3-1.3,1.6-2.6c4.8-4,10.4-6.2,16.4-7.7c1.1-0.3,1.2,0.8,1.9,0.9c2.9-2.6,4.9-2.2,9.7,1.7c0.3-1.1-0.7-1.9-0.7-3.1
	c2.3,0.2,4.6,0.4,6.1,2.9l0.6-1.5c1.9,0.6,3.6,1.8,4.8,3.5c1.5,2.3,4.6,2.7,6.3,4.9c0.2,0.2,0.6,0,0.6-0.4l0,0
	c2.2-1.3,3.4,0.2,4.7,1.6c2.5,2.6,5,5.1,7.7,7.9c-1.1,0.6-2.5,0.7-3.7,0.3c-3.8-2.1-7.4-1.5-11.2-0.1c-0.4,0.1-0.9-0.1-1.4-0.2
	c-0.3-1.6,1-2.5,1.6-3.8l-0.2-0.3c-2.7,1-5.6,1.4-8.5,1.1c2.9-0.8,3.2-3.8,5-5.5c-3.8,1.3-5.5,6.2-10.7,6.1l4-3.1
	C323.8,147.6,323.2,148.8,322.3,148.9L322.3,148.9z M322.4,158.5l3.2-0.8c1.1-0.3,0.6,0.6,0.7,1c-0.8-0.5-1.1,0.4-1.6,0.6
	C323.7,159.7,322.9,159.9,322.4,158.5L322.4,158.5z M335.1,177.7c-0.4,0.7-0.8,0.2-1.2,0H335.1z"/>
<path class="st0" d="M330.9,174.6L330.9,174.6L330.9,174.6L330.9,174.6L330.9,174.6z"/>
<path class="st0" d="M336.4,123.4L336.4,123.4L336.4,123.4L336.4,123.4z"/>
<path class="st0" d="M332.9,106.3c-0.1,0-0.1,0-0.2,0H332.9z"/>
<path class="st0" d="M294.2,165.9L294.2,165.9L294.2,165.9L294.2,165.9z"/>
<path class="st0" d="M295.8,164.4L295.8,164.4z"/>
<path class="st0" d="M297.1,163.6L297.1,163.6L297.1,163.6L297.1,163.6z"/>
<path class="st0" d="M282.6,117.4L282.6,117.4L282.6,117.4L282.6,117.4z"/>
<path class="st0" d="M153.8,242.1L153.8,242.1L153.8,242.1L153.8,242.1z"/>
<path class="st0" d="M158.7,226.6L158.7,226.6L158.7,226.6L158.7,226.6z"/>
<path class="st0" d="M182.2,212L182.2,212L182.2,212z"/>
<path class="st0" d="M186.5,209.5L186.5,209.5L186.5,209.5L186.5,209.5L186.5,209.5z"/>
<path class="st0" d="M187.5,209L187.5,209L187.5,209z"/>
<path class="st0" d="M203,225.4h-0.1H203z"/>
<path class="st0" d="M205.2,265.1L205.2,265.1L205.2,265.1L205.2,265.1L205.2,265.1z"/>
<polygon class="st0" points="276.3,246.2 276.3,246.2 276.3,246.2 "/>
<path class="st0" d="M287.6,234.6C287.6,234.6,287.6,234.7,287.6,234.6L287.6,234.6L287.6,234.6z"/>
<path class="st0" d="M289.3,236.3L289.3,236.3L289.3,236.3z"/>
<path class="st0" d="M199.3,243.2L199.3,243.2z"/>
<polygon class="st0" points="201.2,240.2 201.3,240.2 201.3,240 "/>
<path class="st0" d="M333.6,126.2c-1.5-0.1-2.1-1.4-2.9-2.3C331.8,124.5,333.2,124.8,333.6,126.2L333.6,126.2z"/>
<path class="st0" d="M328.4,121.7c1.1,0.2,2.2,0.5,2,2.1c-1-0.1-1.9-0.7-2.5-1.6L328.4,121.7z"/>
<path class="st0" d="M374,197.6c0.7,0.4,2,0.7,0.4,1.7l-1.3-0.9c0,0.1-0.1,0.1-0.2,0L374,197.6z"/>
<path class="st0" d="M297.2,243.5c0.4-0.1,0.5,0.2,0.5,0.6C297.4,244,296.9,244.1,297.2,243.5L297.2,243.5z"/>
<path class="st0" d="M167.7,91.9c-0.4,0-0.7-0.4-0.6-0.8c0,0,0,0,0-0.1c0.5-0.2,0.7,0.2,1,0.4L167.7,91.9z"/>
<path class="st0" d="M201.1,275.8c-0.3,0.5-0.7,0.7-1,0.1s0.3-0.5,0.6-0.6L201.1,275.8z"/>
<path class="st0" d="M264.1,104.8c0.1,0.5-0.3,0.9-0.7,0.9c0,0-0.1,0-0.1,0l0.1,0.1v-0.5h-0.1C263.9,105.7,264,105.1,264.1,104.8
	L264.1,104.8z"/>
<path class="st0" d="M338.6,112.5l0.3,0.4c-0.3,0.2-0.5,0.3-0.8,0.4c0,0-0.3-0.2-0.3-0.4C337.9,112.7,338.2,112.4,338.6,112.5z"/>
<path class="st0" d="M243.3,204l-0.9,0.7h0.1c-0.7-0.6-0.1-0.9,0.3-1.2L243.3,204z"/>
<path class="st0" d="M266.9,115.1l0.9,0.8l-0.6,0.6l-0.8-0.7L266.9,115.1z"/>
<path class="st0" d="M294.9,247.3c0.3,0.1,0.5,0.5,0.4,0.8c0,0,0,0.1-0.1,0.1c-0.6,0.2-0.7-0.4-1-0.7L294.9,247.3z"/>
<path class="st0" d="M249.3,228.5c0-0.3-0.2-0.4-0.4-0.3c0,0,0,0.1,0,0.1c0.3,0.1,0.4,0,0.4-0.3l0,0c0,0.1-0.1,0.1-0.1,0.2
	C249.2,228.3,249.2,228.4,249.3,228.5L249.3,228.5z"/>
<path class="st0" d="M183,104.4c-0.2,0.1-0.4,0.3-0.5,0.3c-0.2-0.1-0.4-0.3-0.6-0.5c0.2-0.1,0.3-0.3,0.5-0.3
	C182.7,103.8,182.9,104,183,104.4z"/>
<path class="st0" d="M202,228c-0.5,0-1.2,0.8-1.2-0.5h-0.1l0.7-0.3L202,228z"/>
<polygon class="st0" points="298.4,70.9 298.4,71.1 298.5,70.9 "/>
<path class="st0" d="M203.4,268.5c0.3-0.5,0.5-1.7,1.3-0.3L204,269l0,0L203.4,268.5z"/>
<path class="st0" d="M375.3,182.9c0.4-0.2,0.6-0.1,0.8,0.3l-0.9,0.1l0.1,0.1L375.3,182.9L375.3,182.9z"/>
<path class="st0" d="M132.5,199.9l0.3,0.2c-0.1,0.1-0.3,0.1-0.4,0.1c0,0-0.1-0.1-0.2-0.1L132.5,199.9z"/>
<path class="st0" d="M363.2,132.2c0.4,0.1,0.9,0.3,0.5,0.8s-0.9,0.2-1.3-0.1L363.2,132.2z"/>
<path class="st0" d="M315,128c0.3-0.4,0.7-0.5,1-0.2s0,0.5-0.4,0.7L315,128z"/>
<path class="st0" d="M285.4,123c-0.3-0.3-0.6-0.6-0.4-1.2c0.6-0.2,0.7,0.3,1,0.6L285.4,123z"/>
<path class="st0" d="M267,252.2l0.3-0.5C267.6,252.1,267,252,267,252.2L267,252.2z"/>
<path class="st0" d="M254.3,236.4c-0.2,0.2-0.4,0.6-0.7,0.3s-0.1-0.5,0.2-0.8L254.3,236.4z"/>
<path class="st0" d="M294.3,247.5l-0.1-0.1l0.2-0.6l0.5,0.5L294.3,247.5z"/>
<path class="st0" d="M265.4,103.9c-0.4-0.1-0.6,0-0.6,0.4l0,0c0.2,0.1,0.4,0,0.5-0.2C265.3,104.1,265.3,104,265.4,103.9L265.4,103.9
	z"/>
<path class="st0" d="M294.6,249.6c0.1,0.2,0.5,0.4,0.1,0.6c-0.1,0-0.3-0.2-0.4-0.3L294.6,249.6z"/>
<path class="st0" d="M268.5,243.2c0.2,0.2,0.4,0.5,0.2,0.8s-0.5,0.1-0.7-0.1L268.5,243.2z"/>
<path class="st0" d="M298,240.8c0.2,0.2,0.5,0.4,0.2,0.7s-0.5,0.1-0.8-0.1L298,240.8z"/>
<polygon class="st0" points="254.1,241.3 254.2,241.1 254.2,241.2 "/>
<path class="st0" d="M318.9,102.3c0.2-0.2,0.3-0.7,0.7-0.3s0,0.5-0.4,0.6L318.9,102.3z"/>
<path class="st0" d="M203.9,269c-0.1,0.3-0.3,0.5-0.6,0.4c-0.5-0.3-0.2-0.6,0-0.9L203.9,269z"/>
<path class="st0" d="M296,102.6c0.2,0,0.5-0.1,0.6,0s0,0.3-0.2,0.4L296,102.6z"/>
<path class="st0" d="M265.3,104l-0.1-0.1L265.3,104L265.3,104z"/>
<path class="st0" d="M269.1,239.1c0,0.2,0.1,0.4,0,0.6c-0.2,0.3-0.5,0.1-0.7-0.1l0.4-0.7L269.1,239.1L269.1,239.1z"/>
<path class="st0" d="M318.2,111.8l-0.5,0.5l-0.4-0.4l0.6-0.4L318.2,111.8z"/>
<path class="st0" d="M317.7,112.2l-0.6,0.4l-0.2-0.4l0.4-0.3L317.7,112.2z"/>
<path class="st0" d="M266.7,114.8c0.1,0.1,0.2,0.2,0.3,0.3l-0.5,0.7l-0.6-0.4L266.7,114.8z"/>
<path class="st0" d="M243.7,203.7c-0.1,0.1-0.2,0.3-0.3,0.3l-0.5-0.4l0.4-0.6L243.7,203.7z"/>
<path class="st0" d="M333.6,126.2h0.4l-0.1,0.3L333.6,126.2L333.6,126.2z"/>
<path class="st0" d="M298.3,170.4l-0.4,0.2c0-0.1,0-0.2,0-0.2C298,170.2,298.2,170.2,298.3,170.4L298.3,170.4z"/>
<polygon class="st0" points="361.5,155.4 361.4,155.2 361.4,155.4 "/>
<path class="st0" d="M360.5,155.4c0.2,0.3,0.6,0.3,0.9,0.1c0,0,0,0,0.1-0.1l0,0C361.2,155.1,360.8,155.1,360.5,155.4L360.5,155.4z"
	/>
<path class="st0" d="M264.8,104.3c-0.3,0-0.6,0.2-0.6,0.5l0,0C264.5,104.9,264.8,104.8,264.8,104.3L264.8,104.3z"/>
<path class="st0" d="M263.3,105.8c0.1,0.4-0.1,0.6-0.5,0.5l0.1,0.1v-0.5v0.1h0.5L263.3,105.8z"/>
<path class="st0" d="M172.6,107.8l-0.1-0.5c0.1,0,0.2,0,0.2,0C172.8,107.6,172.7,107.7,172.6,107.8L172.6,107.8z"/>
<path class="st0" d="M317.9,111.5c0.2-0.2,0.4-0.6,0.6-0.3s-0.1,0.4-0.4,0.6L317.9,111.5z"/>
<path class="st0" d="M383,211.8L383,211.8C382.6,211.9,382.8,211.9,383,211.8z"/>
<path class="st0" d="M335.4,149.8l1-0.5c0,0.8-0.4,0.7-0.8,0.7L335.4,149.8z"/>
<path class="st0" d="M308,148.2c-0.3,0.2-0.6,0.3-0.9,0.4c-0.2-0.1-0.3-0.3-0.3-0.5c0.1-0.3,0.4-0.5,0.7-0.4c0,0,0,0,0.1,0
	C307.7,147.8,307.8,148,308,148.2z"/>
<path class="st0" d="M337.9,144.4l-0.2,0.6l-0.2-0.3L337.9,144.4L337.9,144.4z"/>
<path class="st0" d="M316,149.1L316,149.1C315.8,148.9,315.9,149,316,149.1z"/>
<path class="st0" d="M319.1,149c-0.2-0.1-0.2-0.2,0-0.3c0,0,0.1,0.1,0.2,0.1l-0.3,0.2L319.1,149z"/>
<path class="st0" d="M197.2,173.9c-0.5-0.2-1-0.3-1-1c0.7-0.6,1,0.2,1.5,0.5L197.2,173.9z"/>
<path class="st0" d="M195.9,172.4c-0.1,0.2-0.2,0.4-0.2,0.4c-0.2-0.1-0.4-0.2-0.6-0.3c0.1-0.1,0.2-0.3,0.2-0.3
	C195.5,172.3,195.7,172.3,195.9,172.4z"/>
<path class="st0" d="M206.3,170.1c-0.1-0.2-0.3-0.5-0.3-0.6c0.3-0.3,0.5-0.1,0.7,0.1L206.3,170.1z"/>
<path class="st0" d="M207.4,164l0.1,0.2c-0.1,0-0.1,0.1-0.2,0.1s-0.1-0.1-0.1-0.1L207.4,164z"/>
<path class="st0" d="M198.6,144c-0.6,0.9-1.2,0.7-1.7,0.6l-0.2-0.2C197.2,144,197.9,143.9,198.6,144z"/>
<path class="st0" d="M242.1,202.4c-0.2,0.1-0.4,0.4-0.4,0.3c-0.4-0.3,0-0.4,0.1-0.6L242.1,202.4z"/>
<path class="st0" d="M265.7,116.5h0.6v0.6C265.6,117.3,265.5,117,265.7,116.5z"/>
<path class="st0" d="M217.4,284h45.9c2.5,0,3.7,1,3.7,3.1v8.6c-0.3,2.1-1.3,3.1-3.1,3.1h-34.9v24.7H260c0,0.6,0.2,1.1,0.6,1.5
	c-0.2,0.3-0.3,0.6-0.3,0.9c0.5-0.4,1.2-0.7,1.9-0.6v-0.6c-0.2-0.6-0.8-0.9-1.9-0.9v-0.3h2.2c2.5,0,3.7,0.4,3.7,1.2h-0.6v0.6h0.6
	l0.6-0.3l0.3,2.2v8h-0.3l-0.6-0.3c0,2.3-0.4,3.4-1.2,3.4c-0.8,0.2-1.6,0.3-2.5,0.3h-33.3v25h34.2c2.5,0,3.7,1,3.7,3.1v8.6
	c0,2.1-1.2,3.1-3.7,3.1h-46c-2.7,0-4-1.3-4-4V288C213.4,285.4,214.8,284,217.4,284z M214,302.5v0.6h0.6c0.3,0,0.6-0.2,0.6-0.4
	c0-0.1,0-0.1,0-0.2H214z M219.9,370.1c-1.2,1-1.9,1.7-1.9,2.2l-0.6-0.3h-2.2v0.9c1.2,0.1,1.9,0.4,1.9,0.9v0.9l-0.6,0.9
	c0,0.6,1,1,3.1,1.2c1.1,0.1,2.2-0.5,2.8-1.5v-0.6c0-0.3-0.2-0.6-0.5-0.6c0,0-0.1,0-0.2,0h-2.1v-1.2c0.6-0.6,1.1-1.3,1.2-2.2
	L219.9,370.1z M218,299.8c0,0.7-0.5,1.2-1.5,1.5v0.6c1.3-0.5,2.1-1,2.2-1.5v-0.6H218z M220.8,363l0.6,0.3l0.3-0.6v-0.3h-0.3
	C221,362.4,220.8,362.6,220.8,363z M226.1,300.7l-0.6,0.9l0.6,0.3c0.3-0.2,0.6-0.3,0.9-0.3V301C226.7,301,226.4,300.9,226.1,300.7
	L226.1,300.7z M234.7,367.9c0,0.5-0.5,1.3-1.5,2.5v0.3l0.6,0.3h0.9c0.3,0,0.7-0.4,1.2-1.2v-1.2c0-0.3-0.2-0.6-0.5-0.6
	c0,0-0.1,0-0.2,0L234.7,367.9z M252,326h0.6c0.3,0,0.6-0.2,0.6-0.4c0-0.1,0-0.1,0-0.2h-0.6C252.2,325.4,252,325.6,252,326z
	 M252.3,326.6v0.6c0.1,0.4,0.3,0.6,0.6,0.6h0.9c0.3,0,0.6-0.2,0.6-0.4c0-0.1,0-0.1,0-0.2c-0.5-0.4-1.2-0.6-1.9-0.6H252.3z
	 M258.2,289.6l0.6,0.3l0.3-0.6V289h-0.3C258.3,289,258.1,289.2,258.2,289.6L258.2,289.6z M262.8,288.4l-0.3,0.6v0.3
	c0.3-0.2,0.6-0.3,0.9-0.3c0.1-0.3-0.1-0.6-0.4-0.6C262.9,288.3,262.8,288.3,262.8,288.4L262.8,288.4z M263.7,292.1
	c-0.1,0.8,0.4,1.6,1.2,1.9V293c0-0.3-0.3-0.6-0.9-0.9L263.7,292.1z"/>
<path class="st0" d="M273.6,286.2h0.3v0.3c-0.2,1.2-0.7,2.2-1.5,3.1c0,0.5-0.9,2.4-2.8,5.9h0.3c0.1-0.4,0.3-0.6,0.6-0.6v0.3
	c-0.5,1.3-1,2.1-1.5,2.2V293c0.6,0,1-0.6,1.2-1.9h-0.3c-0.4,0.4-0.6,1-0.6,1.5H269v-2.8c0.5-0.4,0.8-0.9,0.9-1.5h0.6l-0.3,2.2v0.3
	C270.5,290.8,271.6,289.3,273.6,286.2z M284.4,288.1v2.8c-1.1,0-2.7,1.1-4.6,3.4c-4.3,2.5-6.5,3.9-6.5,4.3s-0.6,0.6-1.9,0.6
	c0-0.1-0.1-0.3-0.2-0.3c0,0-0.1,0-0.1,0c-1.2,0.5-1.9,1.1-1.9,1.9H269v-0.9c4.3-5.2,7.8-8.4,10.5-9.6
	C280.9,289.1,282.6,288.4,284.4,288.1L284.4,288.1z M284.4,292.4v22.2c-1.1,0.1-2.1,0.3-3.1,0.6v0.9c0.2,0.6,0.8,0.9,1.9,0.9
	l1.2-0.6v57.4c0,3.1-1.3,4.6-4,4.6h-6.8c-1.2,0.1-2.3-0.2-3.4-0.6l0.3-0.6c-0.6-1.1-1.1-5.2-1.5-12.3c0.3,0,0.6-0.2,0.6-0.4
	c0-0.1,0-0.1,0-0.2c0-0.4-0.1-0.9-0.3-1.2c0.5-0.7,0.8-1.6,0.9-2.5v-0.3H269V359c0-0.8,0.1-1.2,0.3-1.2l-0.3-2.2V314
	c0-0.7,0.2-1.3,0.6-1.9H269v-0.3c0-0.3,0.9-1,2.8-2.2h-0.3l-2.2,0.6V310c0.9-0.6,1.7-1.3,2.5-2.2h-0.9l-0.9,0.6h-0.3
	c0-0.3,0.6-0.8,1.9-1.5l-0.9-1.9c1.9-1.4,3.9-2.4,6.2-3.1v-0.3h-0.9l-1.2,0.3c0.4-0.9,1.2-1.5,2.2-1.5v-0.6c-1.1,0.9-3.5,2-7.4,3.4
	c0.8-0.8,1.2-1.4,1.2-1.9c0.3,0.2,0.6,0.3,0.9,0.3c1-0.9,2.3-1.4,3.7-1.5c0-0.4-0.6-0.6-1.9-0.6
	C276.6,296.6,280.4,294.2,284.4,292.4L284.4,292.4z M269.6,287.1h1.2c0,0.3-0.3,0.6-0.9,0.9l-0.3-0.6V287.1z M270.9,284.4h1.2v0.3
	c0,0.6-0.6,1.2-1.9,1.9v-1.2c0.4-0.1,0.8-0.2,1.2-0.3v-0.3h-0.6L270.9,284.4z M271.5,295.8v0.3c0,0.3-0.3,0.6-0.9,0.9v-0.3
	C270.6,296.4,270.9,296.1,271.5,295.8L271.5,295.8z M272.4,291.8h0.3c-0.6,1.4-1.2,2.2-1.9,2.5v-0.3
	C271.4,292.6,271.9,291.9,272.4,291.8L272.4,291.8z M271.2,286.5h0.6v0.3h-0.6V286.5z M271.8,300.4h0.3c0,0.3-0.2,0.6-0.4,0.6
	c-0.1,0-0.1,0-0.2,0h-0.3C271.2,300.6,271.4,300.4,271.8,300.4L271.8,300.4z M273,293.9h0.3c0,0.3-0.2,0.6-0.4,0.6
	c-0.1,0-0.1,0-0.2,0h-0.3C272.4,294.1,272.6,293.9,273,293.9L273,293.9z M274.6,284.1h1.5c0.1,0.4,0.2,0.8,0.3,1.2
	c-0.8,0.4-1.2,0.9-1.2,1.5h-0.6l-0.6-1.9C274.3,285,274.5,284.7,274.6,284.1L274.6,284.1z M283.5,285l0.3,0.6v0.3
	c-0.5,0.1-0.9,0.3-1.2,0.6h-0.3C282.7,285.6,283.1,285.1,283.5,285L283.5,285z M283.8,291.2h0.6v0.3h-0.6V291.2z"/>
<path class="st0" d="M145.4,373.7c-0.5-6.1-1-12.2-1.5-18.4c-0.4-5.1,0-10.2-0.1-15.3c-0.1-5.3,0.1-10.6,0.7-15.8
	c0.8-7.6,2.2-15.1,4.1-22.4c1-3.3,4.5-4.2,7-1.6c0.5,0.5,1.1,1,1.8,1.4c0.6-0.6,1.3-1.1,2-1.6c1.4-1,3.3-0.7,4.4,0.6
	c0.1,0.2,0.2,0.4,0.3,0.6c1.3,2.2,1.2,4.8,1.6,7.2c1.3,7.9,3.8,15.3,6.6,22.8c2,5.2,4.2,10.2,6.8,15.1c-0.6,1.3-1.9,1.7-3,2.1
	c-2.9,1.2-5.9,2.1-8.9,3.4c-1.6,0.7-2.4,0.1-3-1.3c-1.2-2.7-2.5-5.3-3.9-7.9c-0.4-0.6-0.9-1.2-1.4-1.7c0.2,3.6,0.5,6.8,0.4,10
	c-0.2,8.9,1.4,17.5,2.5,26.2c0.9,7,1.7,13.9,2.7,20.8c0.9,6.5,1.5,13.1,2.2,19.7c0.5,4.9-2.3,8-5.6,10.8c-1.1-0.5-1.4-1.7-3-1.6
	c2.4,3.2-0.1,4.7-2.1,6.2s-4.6,0.2-5.9-2.5c-1.9-4.2-3.3-8.7-5.2-13c-2.3-5-4.7-9.8-7-14.8c-2-4.4-3.7-9-5.6-13.5
	c-1.3-3.2-2.8-6.3-4-9.5c-1.6-4.1-3.6-8-5.3-12c-3.3-8.1-6.9-16.1-9.7-24.4c-2.9-8.6-6-17.1-8.3-25.9c-1.5-5.7-2.9-11.5-4.2-17.2
	c-0.6-2.1,0.5-4.2,2.6-4.9c0.5-0.1,1-0.2,1.5-0.1c2.5,0.1,5-0.6,7.6,0c1.6,0.4,2.7,1.3,3,2.8c1.5,7.9,3.5,15.6,6,23.2
	c3.7,11.4,8.2,22.6,13.4,33.4c3,6.1,6.1,12.2,9.1,18.3C144.5,373.4,144.7,373.8,145.4,373.7z M155.1,372.6c0-0.9-0.3-1.4-1.1-1.3
	c-1.2,0.2-2.3,1.1-2.6,2.3c-0.1,0.4,0.1,0.9,0.5,1c0.2,0.1,0.4,0,0.6,0C153.6,374.3,155,374.1,155.1,372.6L155.1,372.6z"/>
<path class="st0" d="M191.7,391.6c-8.7-11.4-16.9-22.6-23.5-34.9c1-1.6,3-0.9,4.1-2.5c-2-0.3-3.4,0.6-5.1,1c-0.8-1.1-1-1.8,0.7-2.4
	c3.6-1.2,7.5-1.8,10.8-3.8c1.4-0.9,2.2,0,2.9,1.3c1.5,2.8,3.1,5.5,4.6,8.3c0.2,0.4,0.7,0.7,1.1,0.6c0-3.8,0-7.6,0-11.4
	c0-1.7-0.1-3.4,2.2-3.6c-0.4-1-1.6-0.5-1.9-1.6c0.4-10.6,2.3-21.2,3.6-31.9c0.9-7.5,1.8-15,3-22.4c0.6-3.8,0.9-7.9,4-10.8
	c0.3-0.4,0.6-0.7,0.7-1.2c3-5.8,6.6-11.2,9.4-17.4c0,4.4,0.1,8.4,0,12.5c-0.3,7-0.8,14-1.3,21c-0.6,8.2-1.3,16.4-2.2,24.6
	c-1.1,10.3-2.1,20.7-2.8,31c-0.5,5.5-0.6,11.1-0.4,16.6c0.5,7.1,0.8,14.2,2.6,21.1c0.5,1.8-0.2,3.7-1.8,4.6
	c-1.5,1.1-2.8,2.7-5.4,1.3C195.9,391,193.6,389.4,191.7,391.6z"/>
</svg>
