<?xml version="1.0" encoding="utf-8"?>
<!-- Generator: Adobe Illustrator 21.1.0, SVG Export Plug-In . SVG Version: 6.00 Build 0)  -->
<svg version="1.1" id="Calque_1" xmlns="http://www.w3.org/2000/svg" xmlns:xlink="http://www.w3.org/1999/xlink" x="0px" y="0px"
	 viewBox="0 0 567 567" style="enable-background:new 0 0 567 567;" xml:space="preserve">
<path d="M421.8,284.6v1.7l0.8-0.4c-0.2-0.4-0.4-0.8-0.4-1.2L421.8,284.6z"/>
<path d="M423.2,294.7l0.7-5.5v-2.1h-0.4c-0.7,1.3-1.3,2.7-1.7,4.1C422.4,292.3,422.9,293.5,423.2,294.7z"/>
<path d="M431,286.3v-0.4c-0.4-0.8-0.8-1.2-1.2-1.2v0.4l0.4,2.1c0.4,0.1,0.8-0.2,0.8-0.6C431,286.4,431,286.3,431,286.3z"/>
<path d="M421.4,285c0-1.4-0.4-2.2-1.2-2.5v4.6h0.9L421.4,285z"/>
<path d="M444.3,294.2c0.2,1.5,0.5,3.1,0.8,4.6h0.4v-0.8c-0.2-1.5-0.5-3.1-0.8-4.6h-0.4V294.2z"/>
<rect x="409.4" y="281.3" width="0.4" height="2.1"/>
<rect x="413.1" y="281.7" width="0.4" height="1.2"/>
<path d="M413.5,284.6v1.2l0.8-0.4C414.3,284.9,414.1,284.7,413.5,284.6z"/>
<path d="M421,289.9c0-0.1,0-0.2,0-0.3v-2.1h-0.4l-0.3,1.5C420.5,289.3,420.7,289.6,421,289.9z"/>
<path d="M440.1,291.7v0.4c2.2,8,3.5,13.2,3.7,15.4h0.4l0.4-2.1c0-2.8-1.4-7.3-4.2-13.7L440.1,291.7z"/>
<path d="M395.2,270.1l1.2,1.7c8.8,1.6,17.4,3.9,25.8,7.1h0.4l-0.4-0.8c5.5,1.3,9.1,2.6,10.8,3.7l0.8-0.4v0.4
	c2.8,0.7,4.2,1.4,4.2,2.1h-0.4l-1.2-0.8h-0.8c0,0.4,1.7,1.7,5,3.7h0.4l-0.4-0.8c1.2,0.6,2.4,1,3.7,1.2c0-1-0.8-3-2.5-6.2
	c-8.2-12.7-19.3-19.1-33.2-19.1v0.8h-0.8v-0.8h-0.8v2.1h-0.4v-2.1H406l-0.4,1.7h-0.4v-1.7c-1.9,0-2.9,0.6-2.9,1.7h-0.4v-1.2
	c-0.5,0-0.8,0.3-0.8,0.8v2.5h-0.4c-0.4,1.4-0.8,2.1-1.2,2.1c0-0.3,0.1-1.7,0.4-4.2v-0.8c-0.6,0-0.8,0.7-0.8,2.1h-0.4V263h-1.2
	l-1.3,5h-0.4v-0.4l0.4-2.5v-1.7h-0.8l-0.8,6.2C394.9,269.6,395.2,269.8,395.2,270.1z M406,264.2h0.4v0.8H406L406,264.2z
	 M401.4,265.1h0.4v1.7h-0.4V265.1z"/>
<rect x="443.8" y="296.6" width="0.4" height="1.2"/>
<rect x="443.4" y="295" width="0.4" height="1.7"/>
<path d="M431.8,293.7h0.4v-2.5h-0.4c-0.1,0.4-0.2,0.9-0.4,1.2C431.6,292.5,431.8,292.9,431.8,293.7z"/>
<path d="M430.1,289.2v-0.8c0-0.5-0.3-0.8-0.8-0.8c0,1.4-0.2,2.8-0.4,4.2C429.7,291.5,430.1,290.6,430.1,289.2z"/>
<rect x="428.5" y="285.9" width="0.8" height="1.2"/>
<path d="M437.2,298.3v-0.4c0-2.1-0.4-3.2-1.2-3.3C436.2,297.1,436.6,298.3,437.2,298.3z"/>
<rect x="434.7" y="294.6" width="0.4" height="1.2"/>
<polygon points="414.3,279.2 413.9,279.2 413.9,280.9 414.8,280.9 "/>
<path d="M393.6,266.7l0.4-2.1v-0.4h-0.4c-0.5,0-0.8,0.3-0.8,0.8v0.8c-0.1,0.4,0.2,0.8,0.6,0.8C393.4,266.7,393.5,266.7,393.6,266.7z
	"/>
<path d="M386.5,268h-0.4v1.2c-0.2,0-0.4-0.1-0.4-0.3c0,0,0-0.1,0-0.1c-1.1,0-2.1,0.6-2.5,1.7h3.3L386.5,268z"/>
<path d="M391.1,269.6c0.6,0,0.8-0.6,0.8-1.7h0.4c0,1.1,0.3,1.7,0.8,1.7l0.8-0.4c-1.4-2.1-2.1-3.4-2.1-3.7h-0.8
	c0,0.6,0.1,1.2,0.4,1.7v0.4l-1.7-1.7v0.8l-0.8-0.4c-0.5,0.4-1,0.7-1.7,0.8v1.2l-0.4,2.1h3.7C390.6,269.9,390.8,269.6,391.1,269.6z
	 M390.2,267.6h0.4v1.2h-0.4V267.6z"/>
<rect x="405.2" y="279.2" width="0.4" height="2.1"/>
<rect x="399.4" y="280" width="0.4" height="1.7"/>
<rect x="374.4" y="282.5" width="0.4" height="1.2"/>
<path d="M449.7,339.5c-2.4-7.7-7.4-14.3-14.1-18.7c5.1-5.3,7.7-9.1,7.9-11.6c-1.9-9.6-3.6-16.1-5-19.5H438v0.4
	c0,1.2,0.8,7.6,2.5,19.1v1.2h-0.4c0-1.3-0.7-4.4-2.1-9.1h-0.4v0.4c0.2,1.2,0.4,2.5,0.4,3.7v5.8h-0.4c-0.3-3-0.7-6.4-1.2-10h-0.4v0.8
	c0.1,1.5,0.4,3.1,0.8,4.6l-0.8-0.4v4.6c0.1,0.4-0.2,0.8-0.6,0.8c-0.1,0-0.1,0-0.2,0v-10.4h-0.4v7.5h-0.4c0-9.4-0.4-14.1-1.2-14.1
	v3.7c0,2.4-0.1,5.8-0.4,10.4c-0.5,0-0.8-0.3-0.8-0.8v-9.6l-0.4-2.1c-0.6,0-1.2,3.2-2.1,9.6h-0.4v-0.4c0.6-4.5,1-8.8,1.2-12.9
	l-0.8,0.4c-0.6,6.1-1.1,9.1-1.7,9.1l0.4-2.1v-1.2h-0.4l-1.2,8.2H426v-8.7l-0.8,0.4c0-1.7,0.7-4.6,2.1-8.7v-1.2
	c0-0.5-0.3-0.8-0.8-0.8c0,1.8-0.7,4.8-2.1,9.1h-0.4v-0.4c0.7-2.2,1.3-4.4,1.7-6.6c-0.2-0.4-0.4-0.8-0.4-1.2h-0.4
	c-0.5,2.7-0.9,5.2-1.2,7.5c0.1,0.6,0.1,1.2,0.1,1.8c0,8-6.9,14.5-15.5,14.5c-5.3,0.1-10.2-2.5-13.2-6.9c0.4,5,0.7,8.4,0.7,10.1
	c0,1.1-0.1,3.6-0.4,7.5c-0.4,0.1-0.9,0.2-1.2,0.4v-2.1h-0.4v2.1h-0.4v-3.7h-0.4c0,3-0.4,4.6-1.2,4.6c0.7-4.8,1.1-9.6,1.2-14.5v-5.8
	h-0.4c-0.3,3.5-0.4,5.3-0.4,5.4H391v2.9l-2.5,1.7l0.4-2.1v-1.2c-0.1-3.1-0.4-6.1-0.8-9.1h-0.4c0,1.4-0.1,2.8-0.4,4.2h-0.4v-0.4
	c0-3.1,0.1-7.1,0.4-12v-5h-0.4v8.3h-0.4v-1.2h-0.4c-0.2,1.9-0.4,3.9-0.4,5.8h-0.4c-0.3-8-0.4-13.6-0.4-17h-0.4v12l0.4,2.9l-0.8,0.4
	v-3.7c0-4.4-0.4-6.6-1.2-6.6l-2.5,12h-0.4v-2.9l-0.8,0.4c0-1.4-0.1-2.8-0.4-4.2c0.3-1.4,0.4-2.8,0.4-4.2v-0.8h-0.8
	c-0.3,1.7-0.7,2.5-1.2,2.5v-3.7h-0.4l-0.8,5.8h-0.4v-0.8c0.1-2.2,0.4-4.5,0.8-6.6v-0.4h-0.4v0.8h-0.4v-0.4l0.8-4.2
	c-0.3,0-0.4-0.4-0.4-1.2h-0.4v3.3c-0.8,0-1.2,1-1.2,2.9l-0.8-0.4c-0.4,1.2-0.7,2.5-0.8,3.7h-0.4v-0.4c0.4-1.5,0.7-3,0.8-4.6V285
	c-1.5,0-2.6,4.2-3.3,12.5c0,8.6,3.3,16.3,10,23.3c-10.3,8-15.4,18.3-15.3,30.8c0.1,6.1,1.4,12.2,3.7,17.9
	c9,16.3,21.7,24.5,38.2,24.5c4.8,0,9.5-0.5,14.1-1.7c11.9-3.9,19.8-9.5,23.7-17c-0.2,0-0.4-0.1-0.4-0.3c0,0,0-0.1,0-0.1v-2.5
	c-0.1-3.8,0.3-7.6,1.2-11.2h-0.4l2.9-9.1h-0.4c1.3-3.8,2.2-7.7,2.9-11.6L449.7,339.5z M371.1,367.7h-1.2v-0.8h1.2V367.7z M389,364.4
	c0.1,0.4-0.2,0.8-0.6,0.8c-0.1,0-0.1,0-0.2,0c-0.5,0-0.8-0.3-0.8-0.8v-0.8l1.7,0.4V364.4z M395.2,372.7c-0.4,0.1-0.9,0.2-1.2,0.4
	h-0.8c0-0.4,0.6-0.8,1.7-1.2h0.4L395.2,372.7z M401.1,379.4c-2.2-0.3-3.3-0.8-3.3-1.7v-1.2h2.5c0.4,0,0.8,0.6,1.2,1.7
	C401.4,378.5,401.2,379,401.1,379.4L401.1,379.4z M408.2,372.9c-11.6,0-21-8.8-21-19.6s9.4-19.6,21-19.6s21,8.8,21,19.6
	S419.8,372.9,408.2,372.9L408.2,372.9z"/>
<path d="M397.3,280c1.1-0.7,1.8-2,1.7-3.3v-0.8c-0.8,0.1-1.3,1.2-1.7,3.3V280z"/>
<path d="M386.5,277.5c1.5,0,2.8-0.8,4.2-2.5c-0.6,0-1.7,0.6-3.3,1.7h-0.4v-0.4c4.1-1.7,6.6-3.1,7.5-4.2l-5-0.4h-7.1v0.4
	C384.3,275.2,385.7,277.1,386.5,277.5z"/>
<path d="M377.8,289.2h0.4c0.2-1.1,0.5-2.2,0.8-3.3v-1.7c0-0.5-0.3-0.8-0.8-0.8l-0.4,2.1V289.2z"/>
<path d="M398.1,281.3c0.1,0.6-0.3,1.2-0.9,1.2c-0.1,0-0.2,0-0.3,0v0.8c-0.5,2.5-1.2,4.9-2,7.3c0.6-1,1.4-1.9,2.3-2.8l1.9-6.6
	L398.1,281.3z"/>
<path d="M396.9,275h0.4c0.1-0.4,0.2-0.9,0.4-1.2v-0.4l-0.8,0.4L396.9,275z"/>
<path d="M404,284.1l0.6-0.2l0.2-1v-1.2c0-0.5-0.3-0.8-0.8-0.8L404,284.1z"/>
<path d="M394,290.8c1.9-6.7,2.9-10.6,2.9-11.6v-0.4c-0.6,0-1.2,1.5-1.7,4.6h-0.4v-0.4l0.4-2.5v-0.8c-0.6,0.1-1.1,0.8-1.7,2.1h-0.4
	l1.7-3.3h-0.4l-3.3,2.9v-0.8c3.6-3.1,5.4-5.2,5.4-6.2v-0.4c-0.6,0-2.5,1.2-5.8,3.7h-0.4l1.7-1.7c-1,0-2.4,0.7-4.2,2.1h-0.4l2.1,5
	h0.4l0.8-0.4l-0.4,2.1C392.3,288.8,393.6,290.8,394,290.8z"/>
<path d="M392.7,270.9h2.1v-0.8h-1.2C393.1,270.1,392.8,270.3,392.7,270.9z"/>
<path d="M401,282.5l-0.8,0.4c-0.4,1.2-0.7,2.3-1,3.3c0.3-0.2,0.6-0.4,1-0.6c0.3-0.8,0.6-1.7,0.9-2.7L401,282.5z"/>
<path d="M403.5,283.4c0-0.5-0.3-0.8-0.8-0.8c-0.1,0.8-0.3,1.4-0.4,2c0.4-0.1,0.8-0.3,1.2-0.4L403.5,283.4z"/>
<g id="cul_8">
	<path d="M445,329.9c0,4.7-0.3,9.2-2.9,13.4c-2.8,4.5-6.7,8.1-8.7,13.1c-4.4,10.8-4,22.8-8,33.7c15.8-6.3,26.9-20.8,26.9-37.7
		C452.3,344.4,449.7,336.5,445,329.9z"/>
</g>
<path d="M321.1,263.9h1.2l-0.4,2.1c0,3,2.1,4.6,6.2,4.6l0.8-1.2v-2.5l-0.4-2.9h23.7c4.2,0,6.2,1.4,6.2,4.2v118.9
	c0,2.8-2.1,4.2-6.2,4.2h-8.7c-4.4,0-6.6-1.8-6.6-5.4V282.6h-15.8c-3.6,0-5.4-1.8-5.4-5.4v-8.3C315.7,265.6,317.5,263.9,321.1,263.9z
	 M318.6,277.6v0.4c0.6,0,1.4,0.6,2.5,1.7h0.4c0.4,0.1,0.8-0.2,0.8-0.6c0-0.1,0-0.1,0-0.2v-0.8c0-0.4-0.6-1-1.7-1.7h-0.8
	C319.4,276.4,319,276.8,318.6,277.6L318.6,277.6z"/>
<path d="M455.4,267.3c0,1.6,1.7,3,3.9,3"/>
<path d="M459,263.3c-1-0.1-2.1,0.1-3.1,0.4l0.9,0.6c0.4,0.2,0.8,0.5,1.1,0.8c0.5,0.6-0.2,1.5-0.7,1.9s-1.4-0.1-1.9-0.5
	c-0.5-0.4-0.9-0.9-1.1-1.5c-0.6,1-1.1,2-1.3,3.2c-0.9,3.8-1.9,7.5-2.8,11.3c-0.3,1.5-0.9,3.3-0.4,4.6c1.2,3.5,4.7,2.9,7.3,3.1
	c2.4,0.2,4.6-1.4,5-3.8c1-4.1,2-8.2,3.1-12.3C466.5,265.8,464.7,263.5,459,263.3z M458.5,281c-0.1,0.1-0.3,0-0.3-0.1
	c-0.2-0.6-0.3-1.3-0.2-2c0-0.1,0.1-0.1,0.1-0.1c0.1-0.1,0.2-0.1,0.2,0l0,0c0.6,0.4,0.9,1.2,0.5,1.8
	C458.8,280.7,458.6,280.9,458.5,281z"/>
<g id="sol">
	<path d="M240.7,424c0,0,55.2-18.4,72.1-17.9s31.6,6,60.1,7.6s78-8.9,78-8.9s-55.9,20.4-86.2,18.3s-23.5-7-49.1-7.8
		S240.7,424,240.7,424z"/>
</g>
<path d="M380.6,206.2c0.4-0.8-0.3-0.9-0.6-1.2c-1.9-1.7-3.8-3.4-5-5.7l-1.4-0.9h-0.2l1.1-0.8c-2.9-2-5.5-4.4-7.8-7.2
	c2.9,0.3,4.9,2.7,8.2,2.6c-2.8-3.2-6.7-3.9-9.4-6.3c1.5-1.1,1.3-0.9,0.1-1.9c-2-1.8-4.6-2.5-6.7-4.2c-2.5-2.1-5-4.1-8.3-4.9
	c-0.3-0.1-0.3-0.3-0.2-0.6c1.6,0.1,3.2,0.1,4.8-0.1c1.5-0.2,3.1,0.6,4.8-1c-6.3,0.2-11.4-2.8-17.2-3.9c0.8-1.2,2-0.4,2.7-1.1
	c-1.4-1-3.3-0.2-4.6-1.3l0.7-0.9c-4.4-2.1-8.8-0.1-13.2-0.1l4.3-0.8c-1.4-1-0.2-1.5,0.2-2.2c-0.8-0.2-2.2,0-0.9-1.6h-5.2
	c0.9-0.8,1.8-0.4,2.4-0.7c-1.2-0.3-2.6,0.2-4-0.6l1.6-1.9l0,0c0.8-0.4,0.4-1.2,0.7-1.9l-1.6-0.4c2-0.7,4.1-0.8,6.1-0.3
	c6.4,1.9,13,3.6,18.3,8.2c2.1,1.9,4.6,3.5,6.8,5.4c4.3,3.5,8.1,7.3,10.8,12.2c1.4,2.5,3.3,4.7,5.5,6.4c0.7-0.6,0.3-1.3,0.5-1.9
	c1.1,0.7,2.2,1.3,3-0.2c-0.1-1.2-1.6-1.6-1.2-2.8c-0.2,0.1-0.5,0-0.6-0.2c0,0,0-0.1,0-0.1c0-0.6,0.5-0.3,0.8-0.4
	c0.2-1-1.5-0.9-1.2-1.8c0.4-0.6,1.3,0,1.4-0.9c-2.6-1.4-5.2-3-7.6-4.8c2.3-1.9-1.5-1.9-1.1-2.8c0.9-0.6,1.7,0.3,2.8-0.7
	c-4.4-2-9-2.9-13-5.5c2.4-0.3,4.4,1.4,7.4,1.2l-7.4-3.1c3.2,0.1,6.4-0.3,9.5-1.3c-3.4-0.4-6.4-2.4-10.1-2.5c0.9-1,2.2-0.1,2.9-1.2
	c-4.5-1.1-9-0.1-13.4-1.2c2.7,0.1,5.1-1.1,7.8-1.1c0.1-1.9-0.9-3.2-1.9-4.9c3.5,0.3,6.1,2.3,9.1,3l0,0c-0.1-2-1.1-2.8-3-3.1
	c-1.7-0.4-3.3-1.1-4.9-1.8c1.9-1.1,3.3-0.1,4.8,0c0.8-0.5-0.2-1.6,1.2-1.8c-5-1.8-10.2-2-14.8-4.3c4,1,7.9,0,11.9,0.2
	c-0.7-0.6-1.6-0.6-1.9-1.4c-1.2-2.8-3.9-2.3-6.1-2.5s-4.8-0.2-7.3-0.4c-1-0.1-2,0.1-2.9-0.9c4.6-0.3,9,0.1,13.8-1.1
	c-6.6-2.4-12.8-0.8-19.3-1c4.6-2.4,9.8-2.2,14.5-4.9c-4.9-0.5-9.2,0.9-14.2,0.5c3-1.1,5.9-1,8.1-3.5c-4.2,0.6-8.2,0.3-12.3,1.4
	c0.8-1.5,2.8-1,2.6-2.8c-0.8-0.1-1.5-0.3-2.2,0.4c-0.4-0.8,1-1,0.6-1.8c-0.9-0.1-1.7,0.1-2.5,0.5c-1.2,0.4-2.3,1.4-3.8,0.9l0,0
	c-1.2-0.9-2.1,0.1-3,0.5c-3,1.2-6,2.6-9,3.9c1.3-1.8,3.4-2.4,4.7-4.1l-0.6-0.5l-4.5,2.7c0.5-1.9-0.5-3.1-1.2-4.6l-6,2
	c1-0.9,2.2-1.6,3.5-2.2c0.5-0.2,1.4-0.7,1.4-0.7c-0.9-2.1,1.2-1.9,1.9-2.1c2-0.7,4.1-2.5,6.3-1.3c1.2,0.7,2.1,0.1,3.2,0.2
	c-0.4-1.2-1.4-0.9-2.1-1.5c4-0.3,6.5,2.7,9.8,4.2c-0.2-1.9-2.5-1.7-2.8-3.2c1.2-0.3,2.4,0,3.4,0.7l0.5-0.6c0-1,0.5-0.4,0.9-0.2
	c3.6,1.4,7.3,2.8,10.5,5.1c0.5,0.4,1.1,1,1.9,0.3c-1.6-1.4-3.4-2.5-5.4-3.3c1.1-0.4,2,0.1,2.9,0.6c0.9,0.6,1.9,0.9,2.9,1.1
	c4,0.4,7,2.9,10.1,5.1c2.5,1.7,5.1,3.2,7.7,4.6c0.7,0.4,1-0.1,1.6-0.3c-1-1.6-2.8-2-4.2-3.2c2-0.3,3.4,1.1,5.1,1.2l0.8-0.6
	c-0.3-0.4-1.1-0.4-1-1c1.1-0.9,2.2,0.9,3.4-0.2c-2.8-1.4-5.8-1.6-8.6-2.6c1.8-1.2,3.4,1,5.4-0.3c-1.2-0.2-0.6-1.5-1.2-1.6
	c-2.9-0.3-5.1-2.2-7.9-2.7c5.8,0.1,6.1,0.1,6.7-0.9c-3.6-0.7-7.3-1-10.9-0.7l5-1.1v-0.9l-8.1-0.6c0.6-0.2,1.2-0.4,1.9-0.6
	c-0.8-0.7-1.7-0.2-2.5-0.6c1.7-0.4,3.2-1,4.7-1.9c-3.9-0.8-7.4,1-11.1,0.8c2.4-0.5,4.7-1.5,6.9-2.8c-2.8-0.9-2.7-0.8-5.9,0
	c-3.5,1-7,2.2-10.8,2.6c2.8-1.5,6.1-1.9,9.2-3.9c-1.5-0.9-2.4-1.3-3.8-1.1c-3.6,0.6-6.7,2.3-10,3.4c-0.5,0.2-1.1,1-1.8,0.2
	c3-1.8,6.3-3.1,8.8-5.7c-1.5,0.9-3.4,0.3-4.8,1.2c-2.3,1.4-4.8,1.9-7.2,2.9c-1,0.4-2.9,0.8-2.3-1.6l-0.2-0.4
	c-3.9,3.5-8.5,5.9-12.1,9.9c-0.3-1.5-1.9-1.6-2.2-3.3l-2.7,6.9c-1.9-1.7-2.5-4.6-1.2-5.7c5.6-4.8,12.1-8.2,19.1-10.2
	c4.2-1.1,8.6-1.4,12.8-0.8c3.9,0.5,7.8,1,11.1,3c3.7,2.2,7.9,2.2,11.7,3.8c0.3,0.1,1.9,1,2.7-0.3c-2.5-2.3-6.3-1.5-8.9-3.9
	c1.6-0.8,3,0,4.6-0.7c-2.5-1.1-5-0.6-7.4-1.3c2-1.7,5-0.2,6.9-2.6c-3.6-1.3-6.7,0.8-10,0.6c1.9-0.9,4.1-0.9,6.2-2.2h-4.4
	c0.1-0.7,0-1-1.2-1.2c-2.8-0.5-5,1.4-7.7,1.5c1.1-2.3,4.5-1.2,5.4-3.2c-0.9-2-2.1-1.3-3.4-0.8s-2.5,1-3.7,1.5l-0.1-0.2l3.5-2.4
	c-3.4-0.4-6.1,0.7-8.8,2.1c0.8-0.3,1.1-1.2,0.9-1.9c0,0,0,0,0-0.1c-1,0.4-1.9,0.8-2.7,1.2c-1.6,0.7-2.8,2.2-4.7,2.3
	c-0.3,0.5-0.7,0.7-1.1,0.1s0.4-0.5,0.6-0.7c0.5-0.8,0.5-1.3-0.7-1.1l-0.3-0.3c-2.7,1.6-4.9,4-8,5c0.3-1.2,1.5-1.8,1.6-3
	c-0.4,0.4-0.8,0.5-1.2,0s0.2-0.5,0.4-0.7c0.2-1.4,1.5-2.4,1.4-4.6c-1.6,3.2-3.1,5.8-4.4,8.5c-0.8,1.9-2.2,3.5-4,4.6
	c-0.1,0.3-0.3,0.6-0.7,0.5l-0.4,0.2v-0.5l0.6-0.9c1.2-2.5,3.1-4.7,3.6-7.5l-3.8,5.7c-0.8-1.2-0.1-2.5-1-3.6
	c-0.8,4.3-4.3,6.6-6.1,10.6c-0.8-2-0.5-3.8-2.1-5.5c1,3.8-1,6-2.6,8.4c-0.7-0.7,0-1.9-1.2-2.1c-1.5,1.8-1.5,4.3-2.3,6.5
	c-0.9-1.1-2.5-0.2-3.1-1.4l-0.5,0.5c0.1,0.8,1.1,1.7-0.2,2.5l-0.9-3.3c-0.6,2-0.8,4-0.6,6.1c0,1.7,0.3,3.6-2.5,2.8
	c-0.2-0.1-0.6,0.6-1,0.8c-0.9-1-1.3-1.2-2.2-1v-0.1c-1.4,0.3-1.7,0.6-1.6,1.5c-0.9-1-1.5,1-2.4,0.2c1.3-2.1,3.4-3.4,4.8-5.2
	c-0.3-1-1.4-0.3-1.9-1.1l7.8-6.7c-1-0.6-1.5,1.1-2.4,0.2c-0.1-0.9,0.8-1.1,1.1-1.7c0.6-1.2,0.1-1.2-0.6-0.8c3.3-2.3,5.2-6,8.6-8.2
	c1.1-0.7-0.1-1.4-0.1-2c1.6-1.5,3.6-2.4,5-4.1l-0.3-0.4c-0.6,0-1,0.9-1.7,0.3c0.1-1.1,1.1-1.3,1.7-1.8s1.7-1.1-0.1-2
	c4-3.3,7.7-7,11.7-10c8.6-6.5,19.1-10.1,29.9-10.2c4-0.1,8-0.3,11.9-2.4c-2.9-0.8-6.1-0.2-7.5-3.1c-3.7-1.8-6.1,1-9,2.4
	c-0.2,0.1-0.5,0.1-0.7,0.2c-0.4,0.5-0.9,0.3-1.6,0.1l1.1-0.5c0.2-0.6,1.2-0.6,1.1-1.5c-1.8,0.5-3.5,1.3-5.2,1.3
	c-0.9-0.1-1.8,0.2-2.6,0.7c-1.2,1-2.7,1.5-4.3,1.2c-2.6-0.3-4.1,1.3-5.2,3.3c0,0,0,0.1,0,0.1l-0.1-0.1c-0.4-2.1,0.8-3.8,1.7-6
	c-1.6,0.5-1.8,2-2.7,2.5c-2.1,1.2-2.7,5-6.5,3.4c0.1,1.6-0.5,2.5-1.8,3.7l1.4-3.1l-2-0.2c3-0.8,4.1-3.6,6.3-5.7
	c-2.8,0.9-2.9-1.7-4-2.6c-0.9-0.4-2.1,1.4-2.5-0.4c-3.5,1.6-6.2,4.3-9.6,6.7c1.2-2.6,3.9-3.9,3.3-6.8c-1.1-0.5-1.7,0-2.2,0.9
	c-1,1.5-2,2.9-2.9,4.5c-0.6,1-1.2,0.3-1.9,0.2c0.3,3.2-2,4.7-4.2,6.8c0.2-2.7,1.6-4.7,1.4-7.5c-1.5,2.6-2.7,5.2-3.8,8
	c-0.4,0.8-0.6,1.5-1.6,0.7c0,1.4-0.3,2.8-0.8,4.2c-0.5-0.2-0.7-0.7-1.2-0.2l-0.1,3c-1.5-1.6-1.9-3.8-3.5-5.1
	c-0.3,3.3,1.7,5.9,2.2,9.2c-2.2-1.2-1.8-3.9-4.1-4.9c-0.4,2.9,1.7,5.2,1.5,8c-3.5-2.2-3.5-2.2-4-1c-1-0.5-0.8-2.6-2.7-2
	c0.8,1.2,1.9,2.4,1.5,3.8c-0.7,2.6-0.8,2.6-0.3,4.3c0.4,1.4,0.5,2.8,0.2,4.2c-3.4-3.2-3.4-3.2-4.7-2.7c2.4,2.9,1.4,6.5,1.8,9.8
	c0,0.1-0.2,0.2-0.3,0.4l-1.5-0.7l-0.6,0.6l0.7,1.1c-0.9,0.5-0.8-1.3-1.8-0.7c-0.7,0.9,0.4,1.2,0.6,1.7s0.9,0.9,0.8,1.6
	c-2.1,0.6-3.6-0.4-5.1-1.8c1-0.8,1.3-2.5,3.1-2c0.8-0.3-0.5-0.8,0.1-1.1l0.8-0.6c-0.5-1.4-1.3-2.5-2.8-2c-2,2.7-4.3,5.1-7,7.1
	c0.6-1.2,1.2-2.4,2-3.6c0.7-1.2,1.4-2.3,2.2-3.5c1.4-1.9,0.4-4.5,1.7-6.5c-0.3,0.1-0.5-0.1-0.5-0.3s0.3-0.4,0.6-0.3v-0.5h0.5
	c-0.7-1,0.5-1.2,0.8-1.8c0.4-0.7,1.2-1.3,0.7-2.3c-2.7,1.7-2.7,1.7-3.8,1.5c1.5-2.1,2.3-4.5,2.5-7c-1.7,0.1-2.2,2.3-4.1,2.4
	c0.1-2.3,2.5-3.5,2.4-5.7l-2.3-0.3c-0.8-0.5,1.8-1.9-0.5-1.8c-0.1,0.5-0.5,0.6-0.8,0.3s0.1-0.5,0.4-0.6l1-2.3
	c-0.7-0.3-1.5,0.2-2.1-0.3l0.1-1.3c-2-1.2-2.1,2.1-4,1.6c0.4-1.4,1.3-2.5,1.2-4c-1.4,0.7-3.2,0-3.9,1.8c-1-0.9,0.2-1.8-0.4-2.7
	c-1.6,2.4-4.8,3.5-4.8,7.3l-1.9-2.6c-0.8,1.5,0,2.9-0.3,4.4l-4.6-2c1.4,2.5-0.9,0.7-1.1,1.7c0.3,1.2,0.4,2.4-1.2,3
	c0.4,0.5,1.1,0.6,1.1,1.2c-0.3,0.5-1.2,0-1.3,1c2,1,4.4,1.5,6.2,3l-0.2,0.6l-7.5-1.5c0.1,1.9,1.5,2.1,2.7,2.6s2.4,0.6,3.3,1.8
	c-2.6,0-5.3-0.9-6.2,2.5c0.2,0.4,1.2,0,1.2,0.7c-0.7,0.9-1.7,0.1-2.7,0.6l3.6,2.2c-0.2,0.7-1.5,0.4-1.2,1c1.3,2.2-1,1.8-1.7,2.5
	c1.1,1.3,3.3,0.9,4,2.7c-0.4,0.9-2.2,0.2-2,1.9c1.2,0.4,2.1,1.6,3.1,2.3c-0.9-0.1-1,0.7-1.3,1.4l2.9,1.8c-1.1,1.2-2.5-0.6-3.5,0.8
	c0.7,0.4,0.5,2.2,2.2,0.9c-1.7,1.4-0.3,2.4,0.3,3c1,0.7,2,1.3,3.1,1.8c-2.1-0.9-3.2,2-5.3,1.3c0.1-1.3,1.5-2.5,0.4-3.8
	c-0.9,0.1-0.7,1.2-1.5,1.2c0-0.7,0.7-1.6-0.4-2.2c-0.8,0.2-0.3,1.6-1.6,1.4l-0.2-3.2c-0.7-0.2-0.7,0.9-1.5,0.6v-2.6
	c-0.5,0-0.9,0-1.4,0.1c-3.5,1-2.9-1.4-3-3.4c-0.1-1.2,0.2-2.5-0.6-3.7c-0.9,1-0.1,2.6-1.4,3.6c-0.6-1.4-0.2-2.9-1.1-4
	c-1-0.3-0.5,0.9-1.1,0.9c-0.4-0.5,0.1-1.3-0.5-1.7c-0.8,0-0.9,1.4-1.8,1c0.1-3.1-2.4-5.1-2.7-8.3c-1,1.6-0.3,3.1-1,4.2
	c-2.4-0.7-2.1-3.2-3.4-5c-0.3,2.5-0.2,4.2,0.4,5.1c-2.2-3-0.8-6.8-2.4-10v7.5c-1.6-0.7-1-2.5-2.5-3.2l2.6,8.8l-0.7,0.2
	c-3.5-4.3-3.3-10.2-6.1-14.9c-0.7,0.6,0,1.5-0.9,1.9c-0.7-1.9-0.6-4-2.1-6.3c0.6,5,0.3,9.6,2.2,13.9c-4.1-4.3-6.3-10.2-11.9-13.4
	c0.9,3.3,3.1,5.7,4.4,8.6c0.3,0.7,0.1,0.9-0.6,0.5c-1.8-1.3-3.4-2.9-4.6-4.8c-1.4-2.2-2.9-4.3-4.3-6.4c-0.6-0.9-0.7-0.9-1.1,0
	l0.2,1.1c-0.7,0.1-0.6-0.4-0.8-0.7c-0.4-0.1-0.7-0.4-1.1-0.1c1.1,2.3,3.4,3.8,3.9,7.2c-3.9-3.4-8.1-6.3-12.7-8.7l2.1,2.5l0.4,1
	l-0.3,0.1l-0.5-0.7c-1.4-0.8-2.8-2.3-4.2-2.2c-2.4,0.1-4-1.4-5.9-2.2l-0.4,0.4c1.3,1.9,3.3,3.2,4.9,4.9c0.6,0.3,1.2,0.7,0.9,1.6
	c-0.9,0.3-1-0.8-1.6-1c-2.7-1.2-5.3-2.8-8.4-2.8c0.2,0.1,0.6,0.1,0.4,0.4s-0.5,0-0.7-0.1c-0.7-0.4-1.5-0.4-2.2-0.1
	c2.6,2.1,5.7,3.2,8.4,5c0.3,0.1,0.6,0.1,0.6,0.5c-0.3,0.3-0.8,0.3-1.1,0c-1-0.2-2-0.5-3-0.9c-4.8-2.2-9.6-3.5-14.9-2l8.7,4.2
	c-2.6,0.2-4.5-0.5-6.5-0.8c-2.9-0.5-5.9-2.2-9,0.2l8.1,2c-2.1,0.5-4.4,0.4-6.5-0.1c-2-0.4-3.3,1.2-5.3,1.2c2.4,1.2,4.9,0.5,7.6,1.1
	c-1.8,0.8-3.4,1.1-4,3.1c7.2-1.2,13.7-4.6,21.1-4.7c6.3,0,12.6-1,18.9,0.2c-0.5,0.1-1,0.3-1.4,0.6c2.2,2.2,6,0,7.6,3.2
	c-0.6,0.7-1.6-0.4-2.1,0.5l5.5,3.6c-5-0.7-9.3-4.2-14.8-3.5c0.3,0.9,1.4,0.9,1.2,2c-1.5,0-3-0.5-4.3-1.2c-1.1-0.5-2-1.7-3.4-1.2
	c0.2,0.3,0.7,0.4,0.5,1.2c-2.5-1.2-5.1-0.8-7.6-0.1c-2.1,0.7-4.2,1.2-6.4,1.5l4.4,1.2c-1,1.1-2.4,0.7-3.6,1c0.5,1.5,1.9,0.9,2.5,1.3
	c-2.2,1.4-4.9-1.4-7.4,0.2c-0.1,0.5,0.4,0.6,0.5,0.7c-2.4,1.1-5.1,0.5-7.6,1c0.1,2.4,2.2,0.6,3.4,1.8l-5.6,3.1h2.6
	c0.1,0.7-0.1,0.9-0.9,0.8c-1.5-0.2-2.9,0.1-4.2,0.9c1.4,0.6,2.8-0.4,4.1,0.6l-3.1,1.4v0.7c1.8-0.9,3.6,0.2,5.4-0.6
	c4.6-2,8.9-4.5,13.4-6.7c2.1-1,4.1-2.5,6.6-2.2c-0.9,0.9-2.4,0.5-3.4,1.9c1.1-0.3,1.8-0.6,2.6-0.8c4.6-1.1,8.8-3.9,13.9-2.6
	c4.5,1.2,8.9,2.2,13.7,3.4c-0.8,1-1.6,0.7-2.4,1.1l8.6,2.1c-1.2,1.1-1.9,2-1,3.3l-2.2,0.5l-1.6-2.1c-0.9,0.4-1.8,0.8-1.6,1.7
	c-3.7,0.1-6.6,2.3-10,3.5c1.2,1.1,2.3,0.7,2.9,0.9c-2.5,1.2-4.9,2.6-7.1,4.2c-0.1,0.5,0.2,0.9,0.7,1c0,0,0,0,0,0c0,0,0.1,0,0.1,0
	c-0.2,0.3-0.5,0.6-0.7,0.9c0,0.1,0.1,0.3,0.2,0.4c1.1,0.3,2.2-0.6,3.3,0c-4.9,1.7-9,5.7-14.7,4.9l6.5,1.7c-1.7,0.9-3.2-0.2-4.6,0.4
	c0.4,0.5,1.5,0.2,1.6,1.1c-2.2,1-4.7,1.6-6.7,3.2c2.2,0.1,4.3,0.9,5.9,0.1c-1.1,0.6-2.7,1.3-4.3,2.2c-0.3,0.2-1,0.3-0.8,1
	c0,0.1,0.4,0.1,0.6,0.2l-0.1,0.1c-0.8,0.5-2.4,0.4-2.3,1c0.2,2.5-2,3-3.2,4s-0.1,2.4-1,2.9c-1.6,0.8-2.7,1.7-2.6,3.7
	c0,0.1-0.6,0.3-1.1,0.5l1.8,0.3c-0.9,2.4-3.1,2.6-5.1,3.4c1.9,0.9,3.9,0.3,5.8,1.2c-2,1.7-4.5,0.6-6.6,2l2.3,0.4l-4.9,1.2
	c0.8,1.2,2.1,1.9,3.5,2.1c-0.9,0.8-1.8,0.6-2.7,0.8c-1.7,0.4-3.6,0.3-5,1.8c-0.3,0.4-0.7,0.7-0.3,1.4c0.6,0.4,1.7-0.5,2.4,0.4
	c-0.6,0.8-1.6,0.9-2.5,1.2s-1.8,0.9-1.6,2c0.2,1.5,1.4,0.7,2.2,0.9c-1,0.6-2.2,1.2-2.1,2.6c0,0.6,0.1,0.7-0.4,1
	c-2.8,1.8-4.9,4.5-7.9,6.2c-0.6,0.2-1,0.9-0.9,1.5c0.2,1.1,1.2,0.1,1.7,0.8c-1.9,2.1-4.5,3.6-5.9,6.8l3-1.7c1.6,2.6-2.5,3.4-1.8,5.7
	c3.3-1.9,6-4.8,7.8-8.2c2-3.9,3.9-8,8.4-9.8h0.1c0.2,0.2,0.5,0.4,0.8,0.6l4.3-3.4c0.9,1,0,2,0.2,3c3.9-5.4,6-12,11.5-16.1
	c0.6,0.4-0.2,1,0.4,1.3c3.6-4.7,10.5-8.2,13.9-7.2c0,1-1.3,0.8-1.6,1.6c1.9,0.2,3.7-1.2,6-0.3l-9.7,4c2.1,1.2,0.3,2-0.2,2.5
	c-1,0.8-2.1,1.6-3.3,2.2c0.2,1,1.2,0.6,1.7,1c-2.6,2.8-2.9,3.1-2.8,3.6c1.3,0,2.1-1.4,3.7-1.4c-1.4,2.9-4.6,3.6-6.2,5.8
	c0.2,0.6,1.1,0.3,1.1,0.4l-7.6,8.3c1.7,0.5,2.5-1.8,4.2-1.2c-0.4,1.4-1.7,1.7-3.1,2.7c1-0.2,2,0.2,2.6,1l-5.5,1.9
	c2.1,0.7,3.7-0.6,5.9-0.2c-4.3,1.6-5.9,5.5-9.1,8.1c3,0.2,4.9-2.2,7.5-2.5c0,0.9-0.6,1.1-1.1,1.4c-3.4,2.2-6.9,4.4-10.3,6.8
	c-0.7,0.5-1.8,0.6-1.6,2c0.3,1.9,1.7-0.5,2.1,1c-2.4,2.3-5.4,4.3-8.1,6.6l5.1-1c0.2,0.8,0.3,1.4-0.3,1.8c-3,2.1-4.6,5.3-6.6,8.2
	c-0.4,0.5-0.6,1.1-0.5,1.7c0.2,1.4,1.4-0.3,1.4,0.6c-0.3,2.7-2.6,4.7-2.6,7.9c0.8-0.3,1.5-0.9,2-1.6c-0.1,0.8-1.2,1.9,0,2.6
	s2.1-0.4,2.7-1.4c1.1-1.5,1.9-3.2,2.6-4.9c1.2-3.1,2.6-6.2,3.9-9.2c0.9-1.9,2.6-2.4,3.7-1c0.8-1.5,1.6-3,3.6-3
	c-0.1,1.3-0.7,2.5-1.8,3.3c-1.6,1.3-2.8,3.1-4.7,4.1c-0.6,0.3-1.2,1-0.5,1.8c0.4,0.4,0.7,0.1,0.9-0.3c0.4,1.4-0.9,1.7-1.5,2.3
	c-1.4,1.3-2.7,2.5-1.8,4.6c0.8,0.6,1.4-0.8,2.3-0.1l-5.8,7.3c0.8,1.4,1.5-0.4,2.3,0.4c0.3,1.8-2.1,2.8-1.7,5.1
	c1.7-1.6,3.2-3.5,4.4-5.5c0.1,0.6,0.3,1.3,0.5,1.9c1.3-0.2,1.5-1.1,1.8-1.9c1.1-4.3,2.7-8.4,4.8-12.2c2.7-4.9,5-10,8.1-14.8
	c2.5-3.9,5.7-7.3,8.3-11.1c0.3-0.4,1-1.2,1.2-1.1c2.7,1.4,5.2-0.6,7.8-0.1c-2.4,1.9-5.5,2.2-8.6,4.2c3.8,0.7,6.6-1.9,10.3-1.3
	l-10.5,5.6c0.3,1.5,1.1,0.4,1.6,0.7c0.4-0.2,0.8-0.4,1.1,0s-0.2,0.5-0.5,0.6c-2.1,1.3-4.3,2.6-5.5,5c2.1,0.3,3.6-1.1,5.4-1.6
	c0.3-0.3,0.7-0.4,1-0.1s-0.2,0.5-0.4,0.6c-1.2,1.4-3,2-4.4,3.1c-1.3,1-3.1,1.4-3.7,3.2c0,0-0.1,0-0.1,0v0.1l3.3-0.6
	c0.1-0.8,1-0.7,1.5-1l0.6-0.4c0.3-0.3,0.7-0.6,1-0.2s-0.2,0.6-0.6,0.8l-0.4,0.3l-1.3,1c-1.1,1.4-3.9,2.2-1.6,5
	c0.4,0.1,0.6-1.2,1.4-0.8c0.3,0.3-0.4,1.2,0.6,1.2c1.3-0.6,2.1-1.8,3.2-2.7c0.2-0.2,0.4-0.5,0.7-0.1c0-0.5,0.2-0.6,0.4-0.6l0,0
	c0.4-0.3,0.4,0,0.4,0.2l0.1,0.1h-0.1c0,0,0,0,0.1,0.1l-0.9,0.3c0.1,0.3-0.1,0.5-0.4,0.6c-2.5,4-6.2,7.1-8.9,11.5
	c1.4,0,2.8-0.5,3.8-1.6c0.2-0.1,0.4-0.3,0.5-0.2c0.4,0.2,0.2,0.4,0,0.7l-4.1,7.7c3.2-0.3,0.6,1.6,1.3,2.5c2.1-0.8,1.8-3.5,3.6-4.6v4
	c4.6-2.7,2.9-7.9,4.1-12.3l1.1,5.5h0.2c0.3-2.9-0.9-5.9,0.4-8.6c2,0.1,0.9,2.1,2,2.8c0.3-3.9,0-7.8,1.1-12.1l0.9,3.3l0.7,0.1
	c1.1-2.1,0.1-4.7,0.9-7.1c0.9,0.8,0.6,2,1.1,2.3c1.3-3,1.7-6.4,1.2-9.6c1.6,0,2.4,0.9,3.3,1.6l0.8-2.1c0.6,0.1,0.6,1.1,1.4,1.2
	c0.2-1.6-0.7-3-0.9-4.4c-0.1-0.3-0.2-0.6,0.1-0.8c0,0,0.3,0.2,0.4,0.4c0.8,0.2,0.9,1.4,2.1,1.1c-0.9-1.5-0.4-3.2-0.9-4.8
	c1.9-0.3,2.4,1.9,4.3,1.9c-2.2-2.4-0.2-4.4-0.1-6.7c1.4,0.4,2.2,1.6,3.6,1.6c0.1-1.3-1.8-2.6,0.2-3.9l-1.9-0.9
	c1.9-2.4,4.8-0.4,7.1-1.4c-1-1.1-2.3-1.1-3.9-1.8c3-1.1,6.1-0.9,7.8-3.5l-0.6-0.8c1.8-0.4,3.2-2.4,5.2-0.8c0.4-2.4,6.2-5.3,9.9-4.9
	c-0.3,1.2-1.2,2.4,0.2,3.4c-1.6,1.3-3.7,0.8-5.2,2.1c0.4,0.2,0.7,0.1,0.7,0.7c-1.9,0.7-4.1,0.4-6.6,1.6h7.9c-2.8,1.7-6.9,1-9.5,3.7
	l0.2,0.7l5.2-0.6c-3,1.4-6.3,1.9-9.4,3.6l3,0.3c-1.3,1-2.9,0.8-4.4,2.2c2.5-0.4,4.4-0.4,5.9,0.7c-1.7,0.6-4.4,0.6-5.3,1.9
	c-1.4,2-3.3,2.1-5.1,2.8c-0.5,0.2-1.1,0.4-1.1,0.8s0.3,1.1,1.1,1c0.5-0.1,0.9,0,1.2,0.8c-2.9,1.8-6.7,2.3-8.5,5.7
	c0.8,0.5,1.6-0.3,2.4-0.3c0.4-0.3,0.9-0.2,1.2,0.1l-0.9,0.3l-2.2,1.4c4-0.2,6.6-3.2,10.3-3.2c-4.3,1.7-7.9,4.6-12.2,6.9
	c2.5,0.4,3.8-1.9,6.2-1.7c-3,2.1-6.2,3.3-8.7,5.6c0.6,0.5,1.8-0.2,1.8,0.8c0,1.8-2.3,1.4-2.9,2.9c2.2-0.2,3.7-2.2,5.8-2.2
	c0.4,1.4-3.4,2-0.4,3.5c-0.6,0.6-1.5,1.1-0.8,2s1.4-0.1,2-0.5s1.4-1,2-1.5l0.7-1.3c0.2,0.3,0.1,0.7-0.1,0.9l0.5,0.8l1.7-0.5
	c0.2,1.2-1,1.3-1.6,1.8c-3.3,2.4-5.7,5.7-8.8,8.1c1.1,2.1,2-0.1,3,0.3c0.5,0.6-0.7,0.8-0.3,1.4c0.5,0.1,0.9-0.6,1.4-0.3
	c0.1-1.4,1.2-2,2-2.7c0.2,0,0.5,0,0.6,0.2c0.2,0.4-0.1,0.5-0.4,0.7c-0.4,0.9-1.1,1.6-2,2.1l0.1,0.1c-1.1,2.3-3.4,3.7-5.3,5.5
	c1.9,0.9,2.6-0.7,3.9-1.3c-1.5,2.2-2.5,4.8-2.8,7.4l0.9-0.2c0.5-0.4,0.8-0.4,0.7,0.4c-0.3,0.8-0.7,1.6-1.2,2.3
	c-0.5,0.4-0.5,1.1-0.1,1.6c0,0,0,0,0,0c0.7,0.8,1-0.4,1.5-0.6l0.5-0.7c0.3,0.3,0.4,0.8,0.1,1.2c0,0-0.1,0.1-0.1,0.1
	c0,0.7-1.1,1.4-0.3,2.2c1.1,1.1,1.1-1.1,2.1-0.7c0.1,1.5-1.8,2.4-1.6,3.9c0.6,0.3,1.3,0.1,1.6-0.5c-0.3,0.9-0.3,0.9,0.1,2.2
	c1.6-2.2,1.8-4.9,3.1-7.1c0.5,2.4-0.8,4.3-0.7,6.5l1.3-0.2c-0.2,1.6,0.3,3.2-1,4.4c1,0.7,1.6-0.6,2.4-0.1c0.4,0.5,0,1.2,0.9,1.6
	l1.4-1.7c-0.5,0.8,0,1.9-0.3,2.7l-0.7,0.8c-0.5,0.3-1.3,0.5-1.2,1c0.2,2.2-1.6,3.5-2.1,5.3l0.4,0.5c0.4,0,0.5-0.9,1.1-0.5
	c0.4,2.8-3.4,5.5-0.2,8.5c0.8-0.8,0.7-1.8,1.7-2.4c-0.2,1.9-1.3,3.6-0.4,5.4h2.1c0.6,0.7-0.3,2,1.2,2.5c0.2-2.2,0.4-4.4,0.7-6.5
	s0-4.7,1.2-6c1.4-1.6,0.9-2.9,0.9-4.4c-0.1-1.5,0-3.1,0.4-4.5c0.7,3.4-0.1,6.4,1.7,9c-1.1-5.9-0.3-11.7,0.1-17.6
	c0.2,2.4,1.1,5.1,1.9,5.4c0.7-0.6-0.1-2,1.3-2.3c0.7,0.7,0.1,2,0.8,2.4c3-3.7,0.9-7.4-0.1-11.2c-0.2-0.7-0.5-1.4-0.7-2.1
	c-0.4-1.3-0.3-1.8,0.4-3.8c0.4,2.9,0.7,5.7,2.2,8.1c0.6-1.6-0.1-3.1-0.4-4.6c-0.4-2.2-0.4-2.2,1-4.1c0.7,1.3,0.4,3.1,1.9,4.3
	c0.4-4.2-1.5-7.8-2.1-11.8c1,1,0.6,2.5,2.4,3.3L219,236c1,2.5,2.3,4.8,4,6.9c0.8-1.8-1.2-3.1-0.9-5c1.1,0.1,0.9,1.5,1.8,1.5
	c0.8-0.8-0.8-1.4,0.1-2.4c0.2-0.5,0.6,0.9,1.1,0.3c0.1-2.8-2.3-4.9-2.6-8l-0.1,0.1c0,0-0.1-0.1-0.2-0.1l0.3-0.2l0.2,0.2h-0.1
	l4.6,3.5c-0.5-2.2-1.9-3.4-2.7-4.9c0.4-0.6,0.9,0.4,1.2-0.1c-0.3-1.6-2.1-2.5-2.2-4.3c1.2,2.3,3.5,3.1,5.7,4.9
	c-0.6-2.6-2.1-4.2-2.9-6.2c1.1-0.1,1.4,1,2.4,0.6c-0.2-1.3-1.5-1.7-2.4-2.8c2.6-0.7,4.3,1.7,6.6,1.1c-0.5-1.4-1.9-2.1-2.6-3.4
	c1.2-0.4,1.9,1,3.1,0.5c-1.2-2.1-4-2.3-5.3-4.2c2.5,0.4,5.2-2.4,7.7,0.6c-0.7-2.4-2.9-2.7-4.7-4c2.6,0.5,4.8-1.8,7.5,0.3
	c-1.2-3.7-4.7-2.5-6.7-4.2c1-0.8,2.4-1.1,3.6-0.7c2.5,0.8,4.8-1.1,7.3-0.8c0.1,0,0.2-0.2,0.2-0.3c-2.2,0.1-3.8-2-6.4-1.3
	c1.6-2.3,3.6-2.3,5.6-2.1c0.4,0,0.2,0.5,0.1,0.8l0.3,0.3c0.7,0.2,1-1.1,1.9-0.6l-0.8,1.2l0.5,0.7c0.7-0.1,1.1-1.3,2.2-0.8l-3.1,5.9
	c2.8-1.1,4-3.5,6.4-4.7c-1,2.9-5.3,3.4-4.5,7.1c2.9,0.3,2.6-4.2,5.7-3.4c-3,3.2-3.6,7.3-4.6,11.2c1,0.1,1.3-1,2.2-0.7
	c0.2,0.7-1.8,1.1-0.7,1.8c1.2,0.4,1.4-1.3,2.6-0.8c-0.3,1.4-1.3,2.4-1.9,3.6c-0.2,0.4-1.5,1.9,0.6,1.6l0.5-0.1l-0.2,0.5
	c0.5,2.1,1.2-1,1.8,0.1c0.6,1.4-1.3,1.6-1.3,2.7c0.2,0.1,0.5,0.1,0.4,0.5c0,0.1-0.2,0-0.4,0.1c0.8,0.3-0.9,1.4,0.7,1.7
	c1.2,0.3,0.7-1.4,1.5-1c0.8,1.9-1.1,4.1,0.6,5.8c0.9,0.1,1.1-0.7,1.7-1.3c-0.1,0.9-0.6,1.6,0,2.3l0.6,0.5c0.7-0.2,1-1.3,2-1.2
	c0.6,1-0.3,1.6-0.6,2.3c-0.5,1.2-1.7,2.1-1.5,3.6h-0.1c2.1,1.1,2.2-2,4.2-1.9c-0.8,1.6-1.4,3.1-2.2,4.4s-0.3,2.9-0.3,4.6
	c1.6-1.4,1.9-3.3,4-4.5c-1,3.9-2.5,7.5,0,11.3c1.7-1.8,1.3-4,2.2-6c1.6,2,1.7,4.4,3.1,6.2c1.3-2-0.5-3.7-0.4-5.7
	c1.1,0.4,1.9,1.4,2.1,2.6l0,0c0.4-1.7,0.1-3.5-0.7-5.1c0.4-0.4,1.1,0.1,1.4-0.7l-1.4-2.8c0.7-0.4,1.1,0.1,1.6,0.3l0.5-0.7
	c0.2-1.2,1.5-2.4,0-3.6l0.4-0.7l-0.4-0.5c0.1,0,0.2-0.1,0.3-0.1c0.5,0.1,0,0.7,0.4,0.9l0,0c1.9,0.6,1.1,2.4,1.6,3.8
	c2.1-1.4,3-3.9,5-5.4c0.5,1,1,1.8,0.4,2.8c-1.5,2.5-3.6,5-2,8.4c0.3-0.5,1-0.6,1.4-0.3s0.6,1,0.3,1.4l0,0c0.7,0.5,1.6-0.1,2.1-1
	c0.3-0.5,0.2-1.3,1.1-1.3v-0.1l0,0l-2.9,7.3c3.1-1.6,0.8,1.1,1.8,1.3c1.1,0,0.9-1.4,1.6-1.7c0.9,1.2-2,3.3,1.1,4.1l-0.3,3.3l2.1-1
	c-0.7,1.6-1.3,3.2,0,4.2s1.6-0.8,2.1-1.6c0.7,0.8,1.1,1.8,1.3,2.8c1.1,3.9,2.2,7.9,3.3,11.8c1,3.5,2.2,7,3.2,10.5
	c1.9,6.1,3.4,12.4,4.8,18.6c0.9,4.1,1.8,8.3,2.5,12.5c0.9,5.8,1.5,11.7,2.4,17.5c0.2,1.4,0.6,2.8,0.7,4.3c0.3,5.2,0.7,10.4,1.2,15.5
	c0.6,6.2,1.4,12.4,2.1,18.6c0.2,2.1,0,4.3,0.3,6.5c0.6,3.8,0.9,7.6,1.2,11.4c0.5,6.1,0.8,12.3,1.4,18.4c0.4,3.8-0.1,7.7,1.2,11.4
	c0.2,0.6,0.3,1.3,0.1,2c0,1.1,0,2.2,0,3.3c0.4,2.5,0.7,5,0.7,7.5c0.2,1.8,0.3,3.6,0.4,5.4c0.2,1.4,0.5,2.7,0.6,4.1
	c0.6,6.8,1.1,13.5,2,20.3c0.5,3.6,0.9,7.3,1.6,10.9c0.9,4.6,0.8,9.4,2,14.1c0.2,0.7,0.5,1.4,1.1,2c1.4,1.7,3.9,1.6,5.3,3.1h3.4
	c-0.5-2.9-1-5.8-1.4-8.7c-1-7.7-1.8-15.4-3.1-23c-0.7-3.8-0.4-7.5-1-11.3c-0.6-4-1-8.1-1.5-12.6c-0.2-1-0.3-2-0.3-3
	c0-1.6-0.3-3.2-0.3-4.9c0-0.1,0-0.1,0-0.2c-0.2-1.6-0.3-3.2-0.3-4.8c0-0.2,0-0.4,0-0.6l0,0c-0.5-5.5-0.6-10.5-1.4-15.5
	c-0.6-3.8,0.2-7.6-0.6-11.3s-0.6-7.4-1.2-11.1c-0.5-3.2-0.4-6.4-0.8-9.6c-0.8-7.1-0.8-14.2-2.2-21.2c-0.7-3.5,0.2-7.2-0.7-10.6
	s-0.7-6.8-1.3-10.2c-1.2-6.7-1.5-13.6-2.7-20.3c-0.4-2.6-0.5-5.3-1.4-7.8c-1.2-3.6-2.2-7.4-2.8-11.2c-1.2-5.8-2.9-11.6-5-17.1
	c-1.1-3.2-1.5-6.6-2.5-9.8c-1.2-3.9-3.6-7.5-3.1-11.8c0.3-2-0.1-4.1-1.1-5.9c-0.1-0.1,0.1-0.3,0.1-0.4c0.5-0.7,1.1,0.4,1.6,0.1
	c0.3-1.2-1.1-2.2,0-3.2l0.4-0.3l-2-2.6c0.7-0.3,1.1,0.3,1.6,0.4l0.2-0.6c-0.5-0.6-0.9-1.4,0.1-1.6c1.3-0.3,0.6-0.9,0.5-1.5l-1.3-1
	c0.8-0.3,1.4-0.4,1.8,0.2c0.6,0,0.9,1,1.6,0.6c-0.6-0.7-0.2-1.7-0.9-2.3l1.2,0.3l0.5-0.6l-2.6-2.5c1.5-0.1,2.5-1.7,4.3-1.1
	c-0.7-2.1-3-2.2-3.7-3.9c1.1-0.8,1.7,0.9,2.7,0.3c0-1.8-2.2-1.4-2.8-2.7c1.3-0.5,2.3,0.3,3.6,0.8c-0.3-1.6,0.8-2.1,1.7-3l-6.5-3
	c1.7-0.3,2.8,1,4.2,0.7c0.1-0.7-1.2-0.6-0.8-1.4c0.9-0.5,1.8,0.7,2.8-0.1c-3-3.1-7.5-2.5-10.8-4.6c3.3,0,6.5,1.6,9.9,0.9l0.1-0.9
	l-10.3-2.7c3-0.2,5.9,1.1,9.6,0.8c-2.4-1.4-4.6-0.9-6.4-1.8c2.5-0.8,5.1,2.2,8.3,0.1c-5.6-2.9-11.8-1.7-16.9-4.6
	c5.3-0.6,10.3,1.6,15.4,1.4c-0.7-1.2,0.8-2.3,0.1-3.5c-4.7-0.9-9.7-0.2-13.8-1.6c3.5-0.8,7.9,0.8,12.2-0.6l-5.8-0.5
	c2.1-0.5,4.5,0.4,6.6-0.7c-6.4-2.7-13.5-1.1-20.1-3.7c6.3-1.3,12.6,0.1,18.8-1.7c-0.8-0.7-1.7-0.3-2.1-0.9c0.4-0.5,1.1-0.3,1.1-0.8
	c-1.7-2.7-5-4-8.1-3c1.5-1.1,3.6-0.9,4.5-2.9l-13.6,1.1c3.8-2.2,8.5-0.5,12.7-3.1c-3.7-1.5-7.2-0.1-10.6-0.9
	c1.6-1.1,3.2-0.9,4.8-1.2c2.9-0.5,2.9-0.5,4-2.3c-2.3,0.1-4.4,1.2-6.9,0.6c1.5-1.3,3.7-0.8,4.8-1.9c-0.7-0.3-1.2-0.8-1.6-1.4
	c-0.1,0.2-0.3,0.3-0.4,0.4c-0.6,0-0.8-0.2-0.8-0.6c-0.1-0.4,0.2-0.8,0.6-0.9h0.1c-0.5-2,0.6-4.5-0.9-6.1l0.7-0.4l3.6,4.5l1.2-0.8
	c0-0.8-1.2-1-0.9-1.9c0.5-0.6,1.3,0.1,1.8-0.4c-0.5-0.9-0.1-1.4,1.1-1.7l-6.9-7.5c2.4-0.1,3.3,1.2,4.5,2.6c1.5-3.7,4.7-2.7,6.9-3.3
	c1.5,0.6-0.1,1.5,0.9,2v-0.1l0.8-0.3c0.3,0.6-0.7,1,0,1.5c1.4-0.9,1.1-3.4,3.4-3.8c-0.8,2.4-3,4.3-1.1,7c0.7-1.2,1.3-2.4,2.1-3.4
	s0.9-2.8,3-3.1l-2.9,9c1.2,0.6,0.9-0.9,1.6-0.8c0,0.7,0,1.5,0.9,1.3c0.4-0.1,0.8-0.3,1.1-0.6c-0.1,0.6,0,1.3,0.1,1.9
	c1.4,0.6,0.8-1.5,2.1-0.9c0.5,1.4-1.1,2.6-0.3,4.1c0.1,0,0.3,0.1,0.4,0.1c0.5-0.1,1-0.3,1.5-0.5c0.6,0.9,0.4,2.4,1.2,2.6
	c2.2,0.5,1.7,2.1,1.9,3.5c0.1,0.3,0.1,0.6,0.2,0.9l1.3-0.7c0.2,1.6,0.8,2.8,2.9,2.8l-0.8-6.9c2.8,2.5,4,5.5,6.3,7.7
	c2.3-2.9-1.5-4.5-1.6-7.1c1.8,2,3.7,2.2,5.9,2.3c-0.3,2.3,1.2,4.4,3.4,4.9c0.3-1.6-1-3.1-0.5-5.1c2.4,2.1,4.1,4.6,6.8,6.1
	c-1.2-2.2-4.2-4-1.4-6.7c-0.3-1.2-1.4-1.4-1.8-2.3c1.9-0.1,1.9-0.1,2.4-1.8l-5.8-3.4c1.5-0.6,2.7,0.5,3.9,0.7c0.7-0.5-0.1-1,0.2-1.4
	c0.5-0.5,1.3,0.6,2-0.4l-4.6-2.1c0.8,0.1,1.6,0.2,2.5,0.1c-2.8-1.9-6.3-2.4-9-4.7c1-0.2,2-0.2,2.9,0.1c1.8,0.4,3.7,1.5,5.3,1.1
	c2.3-0.5,3.9,0.5,5.8,1.3c4.6,2,8.1,5.4,12,8.4c5.6,4.3,10.1,9.7,14.4,15.2s7.9,11.3,12.9,16.2c0.5,0.5,0.8,0.9,1.5,0.6
	c0.4-0.7-0.8-1.3,0-2.1c0.6-0.2,1.3,0.5,2,0.1C381.8,210.3,379.3,209.2,380.6,206.2z M306.8,84.5c0.3,0.5-0.1,0.7-0.8,1.2
	C306.3,85,306.3,84.5,306.8,84.5z M288.3,91c0.2-0.2,0.4-0.6,0.7-0.2s-0.1,0.5-0.4,0.5c0,0.4-0.2,0.5-0.6,0.4
	C287.7,91.4,288.1,91.2,288.3,91z M288,91.8l-0.2,0.6c-0.1-0.1-0.1-0.3-0.2-0.4C287.6,91.7,287.9,91.8,288,91.8L288,91.8z
	 M287.7,92.4c-0.1,0.2-0.3,0.4-0.5,0.5C287.2,92.6,287.3,92.3,287.7,92.4L287.7,92.4z M286.7,92.7l0.4,0.2h-0.5L286.7,92.7z
	 M288.2,93.2c0.5-0.9,2.6-1.2,1.1-3.2c-0.3-0.4,1.2-2.3,2.8-2.4s2.6-0.5,2.7-2.3c0.2-1,1-1.7,1.9-1.8c2.6,0,5.2-0.1,7.9-0.3
	c-0.1,1-0.6,2-1.3,2.7l-1.1-1.6l-3.7,6.4l-1.9-1.1c-2.4,4.3-2.8,9.6-6.2,13.4c0.6-2.4,0.4-4.9-0.8-7.1c-1.5,2.4,0.1,5.8-2.9,8
	c-0.2-1.9-0.5-3.7-1-5.6C284.7,95.3,287.4,94.9,288.2,93.2L288.2,93.2z M284.1,100.6c0.3,1.3,1.4,2.6-0.7,3.5
	C283.9,103,282.2,101.6,284.1,100.6L284.1,100.6z M281.3,120.8c0.2,0.1,0.4,0.1,0.4,0.1c0.1,0.3-0.1,0.4-0.3,0.4s-0.3-0.1-0.4-0.1
	L281.3,120.8z M148.9,120.8c0.2-0.4,0.6-0.2,1.4,0H148.9z M170.3,115.5c-0.1-0.3,0.1-0.4,0.4-0.3L170.3,115.5z M149,181.4
	c0-0.4,0.3-0.4,0.9-0.3L149,181.4z M151.5,184.8l-0.1,0.1c0.4-2.3,2.5-2.8,4.2-3.7C154.4,182.6,153,183.8,151.5,184.8L151.5,184.8z
	 M146.6,230c-0.1,0.3-0.3,0.6-0.6,0.4s0-0.6,0.3-0.9s0.4-0.5,0.7-0.1S146.8,229.9,146.6,230z M147.8,228.6c-0.1,0-0.3-0.1-0.3-0.2
	c0-0.1,0-0.2,0.1-0.2c0.2-0.2,0.4-0.3,0.6-0.4l0.2,0.4C148.2,228.4,148,228.6,147.8,228.6L147.8,228.6z M148.6,227.4v-0.2l0.1,0.1
	L148.6,227.4z M154.6,212.6c-0.2-1.1,0.3-1.1,1-1C155.6,212.5,155.2,212.6,154.6,212.6L154.6,212.6z M155.4,229.1L155.4,229.1
	c0.4,0.1,0.7,0,0.5-0.5l0,0C156.1,229.2,155.9,229.4,155.4,229.1L155.4,229.1z M156.3,228.7c0.2-0.1,0.4-0.4,0.7-0.4
	C156.9,229,156.6,228.8,156.3,228.7L156.3,228.7z M158.3,227.2c0-0.7,0.4-0.5,0.8-0.5L158.3,227.2z M161.5,220.2v-0.3l0.3,0.1
	L161.5,220.2z M162.9,212.1c-0.1-0.2-0.1-0.3-0.1-0.5c0.3-0.1,0.7-0.4,0.8,0.2C163.3,211.7,163.6,212.7,162.9,212.1L162.9,212.1z
	 M163.6,211.8c-0.1-1.7,0.1-2,2.1-2.7C166,210.8,164.4,211,163.6,211.8L163.6,211.8z M182.8,211.8c0.6-0.5,1.4-0.9,2.2-1.2
	L182.8,211.8z M194.3,143l-5,2.2c4.4-0.4,8.3-3.5,12.9-2.8c-1.1,0.4-2.1,1.1-3.1,1.8c0.9,0.4,1.9,0.5,2.9,0.3
	c-0.7,0.5-0.5,1.4,0.4,3s0.9,1.8-1.1,2c-0.7-0.8,0.1-2.2-1.2-2.7c-0.9,0.6-0.9,1.7-0.9,2.6c-2.9,0.1-4.4-2.2-6.1-4
	c-0.3,1.8,0.8,3,1.3,4.7c-1.4-0.8-3-1.4-4.6-1.5c-0.1,0.1-0.2,0.3-0.3,0.4c-0.6-1.2-1.4-2.4-2.2-3.5
	C189.3,144.2,191.7,143.3,194.3,143z M199.1,155.8c-0.9,0.3-1.3-0.3-1.8-1.4l2.2-0.1C199.7,155,199.8,155.6,199.1,155.8L199.1,155.8
	z M193.1,156.8c-1.2-0.4-2.5,0-3.4-1.3C191.1,155.1,192.5,154.1,193.1,156.8L193.1,156.8z M189.9,150.3c0.3,0.3,0.3,0.7,0.2,1.1
	C190.1,151,190,150.6,189.9,150.3L189.9,150.3z M171.3,149.8c-0.1,0-0.1,0-0.2,0c-0.1,0-0.1-0.1-0.2-0.1h0.4
	C171.4,149.7,171.3,149.8,171.3,149.8L171.3,149.8z M175.9,158.2c0.3-0.1,0.7-0.2,1-0.2C176.6,158.1,176.2,158.2,175.9,158.2
	L175.9,158.2z M175.2,156.4c0.4,0,0.8-0.1,1.1-0.1v0.1H175.2z M172.7,154.9c4.1-3.4,7.6-7.5,12.3-10.1l-0.5,1.7
	c1,0.5,2.3,0.4,2.8,1.6c0.4,1,0.6,2,1,3.2c-2.1-0.4-4.3-0.5-6.4-0.1l3,0.9l0.1,0.9C180.8,153.4,176.9,154.9,172.7,154.9L172.7,154.9
	z M188.9,159.6c-2.1-0.5-3.7-0.5-5-2.1C186,156.9,187.1,158,188.9,159.6L188.9,159.6z M183,163.7c2.6-1,5.1-2.6,8.1-2.3
	C188.5,162.7,185.8,163.5,183,163.7L183,163.7z M177.6,186.2c1.9,0.4,4.1-0.3,6.2-0.4c-3.1,1.6-6.4,2.1-10.1,2.8
	C174.6,186.6,175.4,185.7,177.6,186.2L177.6,186.2z M190.9,191.3c-2.6,2.5-5.6,0-8.8,1.3c0.9-1.7,2.3-3.2,3.9-4.4
	C187,190.2,189.4,189.4,190.9,191.3L190.9,191.3z M190.2,186.5c1-1,2.3-1.5,3.7-1.6C193.5,187.4,191.9,186.5,190.2,186.5
	L190.2,186.5z M189.3,197.1c-1.4,0.6-2.9,1-4.4,0.9l4.3-3.2C188.8,196,188.8,196.7,189.3,197.1L189.3,197.1z M167.2,209.4
	c0.7-1.8,2.5-1.7,3.9-2.2C170,208.3,168.7,209.1,167.2,209.4L167.2,209.4z M169.1,205.4c0.5-1.3,2.8-2.3,6.7-2.9
	C173.9,204.2,171.5,205.2,169.1,205.4L169.1,205.4z M170.9,202.2c2.5-4.6,3.1-4.9,7.6-3.5L170.9,202.2z M179.2,196.3
	c1-1.2,1-1.2,4.8-0.3C180.6,197.2,180.6,197.2,179.2,196.3L179.2,196.3z M187.3,203.6c-0.1,0-0.1,0-0.2,0c-0.2-0.1-0.2-0.1,0-0.2
	c0.1,0,0.1,0,0.2,0.1S187.2,203.6,187.3,203.6L187.3,203.6z M180.5,204c1.5-4.4,3.3-5.8,6.6-5.2l-1.6,1c2.1,0.6,3.8-1,5.8-0.6
	C187.7,200.6,184.1,202.1,180.5,204L180.5,204z M192.2,196.9c0.8-0.2,1.7-0.6,2.8-0.9C194.1,196.6,193.1,196.9,192.2,196.9
	L192.2,196.9z M190.6,195.7c1.6-1.9,3.6-3.5,5.8-4.7c2.4-1.4,4.4,0.7,6.6,0.6C198.6,191.8,195.1,194.6,190.6,195.7L190.6,195.7z
	 M210.9,171c-1,0.3-0.4-0.6-0.5-1.2c1.2,0.9,1.7-0.5,2.8-1C212.5,169.6,211.8,170.8,210.9,171z M207.9,166.3c-0.3,0.2,0,1,0,1.6
	c1.8,0.1,2.9-1.2,4.3-1.8c0.2,0,0.5-0.1,0.6,0c0.2,0.3-0.1,0.3-0.3,0.3c-0.4,1.3-2.5,1.2-2.4,2.9c-1-0.7-1.8,0.8-2.7,0.4l-0.5,0.4
	c0.8,1,2.3,1.4,2.8,3c-2.1,0.9-3.5-1.5-5.4-1.4c-0.3,1.8,3.6,1.5,1.4,3.8c-2.6,0-4.9-1.5-7.4-2.1l-0.4,0.6l2.7,2.1
	c0.1,0.6-1.7,0.9-1.1,1.5c-2.6-1.1-5.1-0.6-7.5-0.9c1.1,1.1,2.8,0.6,4.5,1.6c-2.7,0-5.1-0.3-7.2,0.5c-0.5,0.9,0.6,1.2,0.5,2.2
	c0,0.1,0,0.2,0,0.2l-10.8,1.1l0.1,0.7c2.3,0.7,4.8,0,7.3,0.4c-3.1,1.5-6.1,0.1-9.1,0.5c7.6-14.9,18.9-22.8,30.7-23.3
	c-0.6,1-0.4,2.4,0.6,3.1l6.8-2C212.9,163.8,210,164.5,207.9,166.3L207.9,166.3z M211.5,142.1c1.8-0.9,3.1-1,4.3-0.2L211.5,142.1z
	 M201.3,220.6c0.3-0.4,0.8-0.4,1.2-0.1c0,0,0,0,0,0l0,0L201.3,220.6z M202.6,226c0,0.6-0.2,0.5-0.6,0.2L202.6,226L202.6,226z
	 M202.5,220.5c-0.4-1,0.4-1.1,1-1.3C203.7,220,202.3,219.7,202.5,220.5L202.5,220.5z M200.4,235.6c0-0.1,0.1-0.2,0.1-0.3l0.2,0.2
	l-0.2,0.3C200.5,235.7,200.4,235.6,200.4,235.6L200.4,235.6z M200.8,241.6c0,0-0.1,0-0.1,0.1l0.2-0.3
	C200.9,241.4,200.9,241.5,200.8,241.6L200.8,241.6z M204.7,227.4c-0.1,0.1-0.3,0-0.5,0c0-0.3,0.1-0.4,0.4-0.5
	C204.7,227.1,205,227.2,204.7,227.4L204.7,227.4z M204.7,226.9l0.4-0.7l0,0C205.2,226.7,205.3,227,204.7,226.9L204.7,226.9z
	 M205.3,226.5l-0.2-0.3h0.4L205.3,226.5z M217.1,259.2c0.3,0.3,0.3,0.8,0,1.1C216.9,260,216.8,259.5,217.1,259.2L217.1,259.2z
	 M222.2,237.7c-0.6,0.5-0.6-0.3-0.8-0.7s-0.5-0.8-0.2-1.3c0.6,0,0.5,0.5,0.7,0.8S222.6,237.4,222.2,237.7L222.2,237.7z M223.6,149.7
	l2.9-0.7C225.7,149.8,224.6,150.1,223.6,149.7L223.6,149.7z M227.4,166.3c-1.1-0.2-1.7-1.2-2.3-2.2c-0.2,0-0.5,0-0.3-0.3
	c0-0.1,0.4,0,0.6,0l2.5,1.9L227.4,166.3z M228,213.9l-0.2-0.2h0.3L228,213.9z M230,183.6c1.4-1.3,2.6-3,5.1-3.8
	C233.4,181.8,232.3,183.6,230,183.6L230,183.6z M237.7,204.9h-2C236.2,204.8,236.8,204.3,237.7,204.9L237.7,204.9z M244.5,201.8
	c-0.1-0.1-0.1-0.3,0.1-0.4c0,0,0.1,0,0.2,0.1L244.5,201.8z M258.8,239.1c0-0.1-0.1-0.1-0.1-0.1c0-0.1,0.1-0.2,0.1-0.3l0.2,0.2
	L258.8,239.1z M260.3,243.9l-0.3-0.2c0,0,0.1-0.1,0.1-0.1c0.1,0,0.2,0.1,0.3,0.1L260.3,243.9z M258.4,125.4l4-5.9
	c0.7,0.2,1.3,0.6,1.6,1.3C261.5,121.4,261.2,124.5,258.4,125.4L258.4,125.4z M262.4,127.1l1.6-1.5c0.6,0.6,1,1.3,1.2,2.2
	C264.1,128.8,263.5,127.1,262.4,127.1L262.4,127.1z M296.3,233.1c-0.3,0.5-0.6,0.2-0.9,0C295.7,232.8,296,232.8,296.3,233.1
	L296.3,233.1z M297.2,224.7c0-0.2,0.2-0.3,0.4-0.3c0,0,0.1,0,0.1,0c0.3,0.1,0.6,0.2,0.6,0.6s-0.2,0.4-0.5,0.3
	S297.1,225.1,297.2,224.7L297.2,224.7z M296.8,224.3c-0.4,0.8-0.8,0-1.3,0.4C295.9,223.8,296.4,224.4,296.8,224.3L296.8,224.3z
	 M294.8,225.3c-0.9,0.4-1.4-0.3-2.1-0.5C293.4,224.5,294.2,224.7,294.8,225.3L294.8,225.3z M291.6,239.6c0.4,0.4,0.7,0.7,1.2,1.3
	C292.1,240.5,291.5,240.3,291.6,239.6L291.6,239.6z M291.2,239c0.1,0.1,0.2,0.3,0.3,0.5C291.1,239.6,291.2,239.3,291.2,239
	L291.2,239z M291.1,238.9c-0.3,0.1-0.4,0-0.4-0.1C290.9,238.8,291,238.9,291.1,238.9L291.1,238.9z M290.2,237.9L290.2,237.9
	c-0.1,0.4,0.1,0.5,0.5,0.4c-0.2,0.1-0.2,0.4-0.5,0.1S290.2,238.1,290.2,237.9L290.2,237.9z M288.7,235.3l0.2,0.2
	c-0.1,0-0.2,0.1-0.4,0.1c0.1-0.1,0.1-0.1,0.2-0.2C288.7,235.4,288.7,235.4,288.7,235.3L288.7,235.3z M286.2,234.3
	c0.5,0.8,0.8,1.9,2.1,1.4c-0.8,0.8,0.8,1,0.4,1.8C287.9,236.4,286.2,236.1,286.2,234.3L286.2,234.3z M286.2,234.3
	c-0.1,0.2,0,0.6-0.5,0.4c-0.1,0-0.1-0.1-0.2-0.2L286.2,234.3z M292.3,210.7c-1.5,0.3-3.1,0.1-4.6-0.5L292.3,210.7z M291.1,199.5
	c-2.5,0.5-5.7,1.2-9.1,0.7C285,199.6,288,199.4,291.1,199.5L291.1,199.5z M278.4,131c1.3,0.5,0.7,1.6,0.8,2.5c0.1,0.9,0,1.8-0.2,2.6
	C279,134.4,278.1,132.8,278.4,131z M273.3,109.3l0.1,0.2l-0.1,0.1c0-0.1-0.1-0.1-0.1-0.2S273.2,109.3,273.3,109.3L273.3,109.3z
	 M275.9,134.3c0.4-0.5,1.4-0.8,1.1-1.8c1.1,1,1.2,2.9,0.5,3.4c-1.5,0.8,0.2,1.3-0.2,1.9c-1,0.2-1,0.2-1.9,2.7l-1.1-2.6
	c-1.2-0.2-1.4,1.2-2.6,1C273.1,137.4,274.5,135.9,275.9,134.3L275.9,134.3z M275.9,168.4c-0.3,0.7-0.9,0.6-1.4,0.5
	C274.9,168.5,275.3,168.1,275.9,168.4L275.9,168.4z M271.7,140.9c0.9,0.9,1.6,1.5,1,2.9c-0.7-0.9-1.5-1.2-2.7,0.1
	C270.3,142.7,270.9,141.7,271.7,140.9L271.7,140.9z M267.8,175.9c3.5-1.6,7.2-2.6,11-3C278.8,174.4,272.5,176.1,267.8,175.9
	L267.8,175.9z M270.7,238.2l4-5.1C275.2,235.4,272.6,238.6,270.7,238.2L270.7,238.2z M275.2,192.5c1.8-1.1,3.7-0.5,5.5-0.6
	C279,192.4,277.1,192.6,275.2,192.5L275.2,192.5z M277.2,187.5c1.3-0.8,2.8-1.1,4.3-0.9C280.2,187.5,278.7,187.8,277.2,187.5
	L277.2,187.5z M271.9,178l0.1-0.6l9.3-2c0.5,0.7,0.3,1.5,0.4,2.3C278.3,180,275.1,177.6,271.9,178z M333,131.2
	c-1.8,0.7-3.7,1.2-5.6,1.5C329.3,132.3,331,131.2,333,131.2z M329,128.4h-1C328.5,128,328.7,128.3,329,128.4L329,128.4z
	 M325.4,131.5c0.7-0.1,1.4-1.1,2.2-0.2L325.4,131.5z M327.3,128.7c-0.6,0.5-0.9,0.4-1.2,0H327.3z M326,128.7L326,128.7
	c0.3,1.5-1,1.1-1.9,1.8C324.7,129.2,325.9,129.7,326,128.7L326,128.7z M323.4,128.2c0.1,0.2,0,0.3-0.2,0.3c-0.1,0-0.1-0.1-0.2-0.1
	L323.4,128.2z M308.7,127.3c0.4,1.6-0.8,2.2-1.9,3.2C306.7,128.7,307.3,127.8,308.7,127.3L308.7,127.3z M302.8,129.6
	c0.4,1,1,1.9-0.4,2.6c-1.2,0.6-2.1,2.3-3.7,0.8C300.3,132.1,300.7,129.8,302.8,129.6L302.8,129.6z M298.4,133.1
	c-0.4,0.7,0.3,1.8-0.5,2.4C297.3,134.1,297.2,134,298.4,133.1L298.4,133.1z M297.4,121.8c-0.9,2.1-1.6,4.3-3.8,5.6
	C292.8,125,293.3,124.2,297.4,121.8L297.4,121.8z M294,135.1c-0.1,2.1-0.9,2.9-2.7,1.9L294,135.1z M292.5,165l-0.5-0.6
	c1.1-2.3,3.5-3.2,5.8-4.3L292.5,165z M297.4,148.7l0.1-0.1l0.1,0.1c0,0-0.1,0.1-0.1,0.1S297.5,148.8,297.4,148.7L297.4,148.7z
	 M298.1,163.1c0.2-0.4,0.3-1,1-1.2C299,162.7,298.5,162.9,298.1,163.1L298.1,163.1z M313.5,183.4l0.4-3.1
	C313.9,181.3,314.4,182.4,313.5,183.4L313.5,183.4z M322.7,148.8c-0.6-0.1,0.2-0.9-0.3-1.1c-1.3,0.5-1,3-3.1,2.7
	c-0.2-0.6,0.7-0.9,0.3-1.4c-1.1-0.4-1.9,0.8-3,0.5c0,0-0.1-0.1-0.1-0.1c0-0.1,0-0.1,0.1-0.2l0,0c-1.4-0.8-3.1-0.9-4.5-0.2
	c-1.4,0.7-2.9,1.1-4.5,1.2c-0.6-2.7-2.1-2.9-5.3-0.7c-0.8-1.4-2-1.5-3.4-1.3c-0.2,0.1-0.4,0.2-0.5,0.3c0,0-0.1-0.1-0.1-0.2l0.5-0.3
	c0.3-1,1.8-1,2-2.6c-2.4,1.4-4.7,2.7-6.9,4c-1.4,0.8-2.1,0.6-2.2-1.2l-2.6,0.2c1.2-0.2,2.5-0.1,3.6-0.9l-1.5-1.6
	c2.3-1.3,2.3-1.3,1.6-2.6c4.8-4,10.4-6.2,16.4-7.7c1.1-0.3,1.2,0.8,1.9,0.9c2.9-2.6,4.9-2.2,9.7,1.7c0.3-1.1-0.7-1.9-0.7-3.1
	c2.3,0.2,4.6,0.4,6.1,2.9l0.6-1.5c1.9,0.6,3.6,1.8,4.8,3.5c1.5,2.3,4.6,2.7,6.3,4.9c0.2,0.2,0.6,0,0.6-0.4l0,0
	c2.2-1.3,3.4,0.2,4.7,1.6c2.5,2.6,5,5.1,7.7,7.9c-1.1,0.6-2.5,0.7-3.7,0.3c-3.8-2.1-7.4-1.5-11.2-0.1c-0.4,0.1-0.9-0.1-1.4-0.2
	c-0.3-1.6,1-2.5,1.6-3.8l-0.2-0.3c-2.7,1-5.6,1.4-8.5,1.1c2.9-0.8,3.2-3.8,5-5.5c-3.8,1.3-5.5,6.2-10.7,6.1l4-3.1
	C324.3,147.6,323.7,148.8,322.7,148.8L322.7,148.8z M322.9,158.5l3.2-0.8c1.1-0.3,0.6,0.6,0.7,1c-0.8-0.5-1.1,0.4-1.6,0.6
	C324.2,159.7,323.4,159.9,322.9,158.5L322.9,158.5z M335.6,177.7c-0.4,0.7-0.8,0.2-1.2,0H335.6z"/>
<path d="M331.4,174.6L331.4,174.6L331.4,174.6L331.4,174.6L331.4,174.6z"/>
<path d="M336.8,123.4L336.8,123.4L336.8,123.4L336.8,123.4z"/>
<path d="M333.4,106.3c-0.1,0-0.1,0-0.2,0H333.4z"/>
<path d="M294.7,165.9L294.7,165.9L294.7,165.9L294.7,165.9z"/>
<path d="M296.3,164.4L296.3,164.4z"/>
<path d="M297.6,163.6L297.6,163.6L297.6,163.6L297.6,163.6z"/>
<path d="M283.1,117.4L283.1,117.4L283.1,117.4L283.1,117.4z"/>
<path d="M154.3,242.1L154.3,242.1L154.3,242.1L154.3,242.1z"/>
<path d="M159.2,226.6L159.2,226.6L159.2,226.6L159.2,226.6z"/>
<path d="M182.7,212L182.7,212L182.7,212z"/>
<path d="M187,209.5L187,209.5L187,209.5L187,209.5L187,209.5z"/>
<path d="M188,209L188,209L188,209z"/>
<path d="M203.5,225.4h-0.1H203.5z"/>
<path d="M205.7,265.1L205.7,265.1L205.7,265.1L205.7,265.1L205.7,265.1z"/>
<polygon points="276.8,246.2 276.8,246.2 276.8,246.2 "/>
<path d="M288.1,234.6C288.1,234.6,288.1,234.7,288.1,234.6L288.1,234.6L288.1,234.6z"/>
<path d="M289.8,236.3L289.8,236.3L289.8,236.3z"/>
<path d="M199.8,243.2L199.8,243.2z"/>
<polygon points="201.7,240.2 201.8,240.2 201.8,240 "/>
<path d="M334.1,126.2c-1.5-0.1-2.1-1.4-2.9-2.3C332.3,124.5,333.7,124.8,334.1,126.2L334.1,126.2z"/>
<path d="M328.9,121.7c1.1,0.2,2.2,0.5,2,2.1c-1-0.1-1.9-0.7-2.5-1.6L328.9,121.7z"/>
<path d="M374.5,197.6c0.7,0.4,2,0.7,0.4,1.7l-1.3-0.9c0,0.1-0.1,0.1-0.2,0L374.5,197.6z"/>
<path d="M297.7,243.5c0.4-0.1,0.5,0.2,0.5,0.6C297.9,244,297.4,244.1,297.7,243.5L297.7,243.5z"/>
<path d="M168.2,91.9c-0.4,0-0.7-0.4-0.6-0.8c0,0,0,0,0-0.1c0.5-0.2,0.7,0.2,1,0.4L168.2,91.9z"/>
<path d="M201.6,275.8c-0.3,0.5-0.7,0.7-1,0.1s0.3-0.5,0.6-0.6L201.6,275.8z"/>
<path d="M264.6,104.8c0.1,0.5-0.3,0.9-0.7,0.9c0,0-0.1,0-0.1,0l0.1,0.1v-0.5h-0.1C264.4,105.7,264.5,105.1,264.6,104.8L264.6,104.8z
	"/>
<path d="M339.1,112.5l0.3,0.4c-0.3,0.2-0.5,0.3-0.8,0.4c0,0-0.3-0.2-0.3-0.4C338.4,112.7,338.7,112.4,339.1,112.5z"/>
<path d="M243.8,204l-0.9,0.7h0.1c-0.7-0.6-0.1-0.9,0.3-1.2L243.8,204z"/>
<path d="M267.4,115.1l0.9,0.8l-0.6,0.6l-0.8-0.7L267.4,115.1z"/>
<path d="M295.4,247.3c0.3,0.1,0.5,0.5,0.4,0.8c0,0,0,0.1-0.1,0.1c-0.6,0.2-0.7-0.4-1-0.7L295.4,247.3z"/>
<path d="M249.8,228.5c0-0.3-0.2-0.4-0.4-0.3c0,0,0,0.1,0,0.1c0.3,0.1,0.4,0,0.4-0.3l0,0c0,0.1-0.1,0.1-0.1,0.2
	C249.7,228.3,249.7,228.4,249.8,228.5L249.8,228.5z"/>
<path d="M183.5,104.4c-0.2,0.1-0.4,0.3-0.5,0.3c-0.2-0.1-0.4-0.3-0.6-0.5c0.2-0.1,0.3-0.3,0.5-0.3
	C183.2,103.8,183.4,104,183.5,104.4z"/>
<path d="M202.5,228c-0.5,0-1.2,0.8-1.2-0.5h-0.1l0.7-0.3L202.5,228z"/>
<polygon points="298.9,70.9 298.9,71.1 299,70.9 "/>
<path d="M203.9,268.5c0.3-0.5,0.5-1.7,1.3-0.3l-0.7,0.8l0,0L203.9,268.5z"/>
<path d="M375.8,182.9c0.4-0.2,0.6-0.1,0.8,0.3l-0.9,0.1l0.1,0.1L375.8,182.9L375.8,182.9z"/>
<path d="M133,199.9l0.3,0.2c-0.1,0.1-0.3,0.1-0.4,0.1c0,0-0.1-0.1-0.2-0.1L133,199.9z"/>
<path d="M363.7,132.2c0.4,0.1,0.9,0.3,0.5,0.8s-0.9,0.2-1.3-0.1L363.7,132.2z"/>
<path d="M315.5,128c0.3-0.4,0.7-0.5,1-0.2s0,0.5-0.4,0.7L315.5,128z"/>
<path d="M285.9,123c-0.3-0.3-0.6-0.6-0.4-1.2c0.6-0.2,0.7,0.3,1,0.6L285.9,123z"/>
<path d="M267.5,252.2l0.3-0.5C268.2,252.1,267.6,252,267.5,252.2L267.5,252.2z"/>
<path d="M254.8,236.4c-0.2,0.2-0.4,0.6-0.7,0.3s-0.1-0.5,0.2-0.8L254.8,236.4z"/>
<path d="M294.8,247.5l-0.1-0.1l0.2-0.6l0.5,0.5L294.8,247.5z"/>
<path d="M265.9,103.9c-0.4-0.1-0.6,0-0.6,0.4l0,0c0.2,0.1,0.4,0,0.5-0.2C265.8,104.1,265.8,104,265.9,103.9L265.9,103.9z"/>
<path d="M295.1,249.6c0.1,0.2,0.5,0.4,0.1,0.6c-0.1,0-0.3-0.2-0.4-0.3L295.1,249.6z"/>
<path d="M269,243.2c0.2,0.2,0.4,0.5,0.2,0.8s-0.5,0.1-0.7-0.1L269,243.2z"/>
<path d="M298.5,240.8c0.2,0.2,0.5,0.4,0.2,0.7s-0.5,0.1-0.8-0.1L298.5,240.8z"/>
<polygon points="254.6,241.3 254.7,241.1 254.8,241.2 "/>
<path d="M319.4,102.3c0.2-0.2,0.3-0.7,0.7-0.3s0,0.5-0.4,0.6L319.4,102.3z"/>
<path d="M204.4,269c-0.1,0.3-0.3,0.5-0.6,0.4c-0.5-0.3-0.2-0.6,0-0.9L204.4,269z"/>
<path d="M296.5,102.6c0.2,0,0.5-0.1,0.6,0s0,0.3-0.2,0.4L296.5,102.6z"/>
<path d="M265.8,104l-0.1-0.1L265.8,104L265.8,104z"/>
<path d="M269.6,239.1c0,0.2,0.1,0.4,0,0.6c-0.2,0.3-0.5,0.1-0.7-0.1l0.4-0.7L269.6,239.1L269.6,239.1z"/>
<path d="M318.7,111.8l-0.5,0.5l-0.4-0.4l0.6-0.4L318.7,111.8z"/>
<path d="M318.2,112.2l-0.6,0.4l-0.2-0.4l0.4-0.3L318.2,112.2z"/>
<path d="M267.2,114.8c0.1,0.1,0.2,0.2,0.3,0.3l-0.5,0.7l-0.6-0.4L267.2,114.8z"/>
<path d="M244.2,203.7c-0.1,0.1-0.2,0.3-0.3,0.3l-0.5-0.4l0.4-0.6L244.2,203.7z"/>
<path d="M334.1,126.2h0.4l-0.1,0.3L334.1,126.2L334.1,126.2z"/>
<path d="M298.8,170.4l-0.4,0.2c0-0.1,0-0.2,0-0.2C298.5,170.2,298.7,170.2,298.8,170.4L298.8,170.4z"/>
<polygon points="362,155.4 361.9,155.2 361.9,155.4 "/>
<path d="M361,155.4c0.2,0.3,0.6,0.3,0.9,0.1c0,0,0,0,0.1-0.1l0,0C361.7,155.1,361.3,155.1,361,155.4L361,155.4z"/>
<path d="M265.3,104.3c-0.3,0-0.6,0.2-0.6,0.5l0,0C265,104.9,265.3,104.8,265.3,104.3L265.3,104.3z"/>
<path d="M263.8,105.8c0.1,0.4-0.1,0.6-0.5,0.5l0.1,0.1v-0.5v0.1h0.5L263.8,105.8z"/>
<path d="M173.1,107.8l-0.1-0.5c0.1,0,0.2,0,0.2,0C173.3,107.6,173.2,107.7,173.1,107.8L173.1,107.8z"/>
<path d="M318.4,111.5c0.2-0.2,0.4-0.6,0.6-0.3s-0.1,0.4-0.4,0.6L318.4,111.5z"/>
<path d="M383.5,211.8L383.5,211.8C383.1,211.9,383.3,211.9,383.5,211.8z"/>
<path d="M335.9,149.8l1-0.5c0,0.8-0.4,0.7-0.8,0.7L335.9,149.8z"/>
<path d="M308.5,148.2c-0.3,0.2-0.6,0.3-0.9,0.4c-0.2-0.1-0.3-0.3-0.3-0.5c0.1-0.3,0.4-0.5,0.7-0.4c0,0,0,0,0.1,0
	C308.2,147.8,308.3,148,308.5,148.2z"/>
<path d="M338.3,144.4l-0.2,0.6l-0.2-0.3L338.3,144.4L338.3,144.4z"/>
<path d="M316.5,149.1L316.5,149.1C316.4,148.9,316.5,149,316.5,149.1z"/>
<path d="M319.6,149c-0.2-0.1-0.2-0.2,0-0.3c0,0,0.1,0.1,0.2,0.1l-0.3,0.2L319.6,149z"/>
<path d="M197.7,173.9c-0.5-0.2-1-0.3-1-1c0.7-0.6,1,0.2,1.5,0.5L197.7,173.9z"/>
<path d="M196.4,172.4c-0.1,0.2-0.2,0.4-0.2,0.4c-0.2-0.1-0.4-0.2-0.6-0.3c0.1-0.1,0.2-0.3,0.2-0.3
	C196,172.3,196.2,172.3,196.4,172.4z"/>
<path d="M206.8,170.1c-0.1-0.2-0.3-0.5-0.3-0.6c0.3-0.3,0.5-0.1,0.7,0.1L206.8,170.1z"/>
<path d="M207.9,164l0.1,0.2c-0.1,0-0.1,0.1-0.2,0.1s-0.1-0.1-0.1-0.1L207.9,164z"/>
<path d="M199.1,144c-0.6,0.9-1.2,0.7-1.7,0.6l-0.2-0.2C197.7,144,198.4,143.9,199.1,144z"/>
<path d="M242.6,202.4c-0.2,0.1-0.4,0.4-0.4,0.3c-0.4-0.3,0-0.4,0.1-0.6L242.6,202.4z"/>
<path d="M266.2,116.5h0.6v0.6C266.1,117.3,266,117,266.2,116.5z"/>
<path d="M217.9,284h45.9c2.5,0,3.7,1,3.7,3.1v8.6c-0.3,2.1-1.3,3.1-3.1,3.1h-34.9v24.7h30.8c0,0.6,0.2,1.1,0.6,1.5
	c-0.2,0.3-0.3,0.6-0.3,0.9c0.5-0.4,1.2-0.7,1.9-0.6v-0.6c-0.2-0.6-0.8-0.9-1.9-0.9v-0.3h2.2c2.5,0,3.7,0.4,3.7,1.2H266v0.6h0.6
	l0.6-0.3l0.3,2.2v8h-0.3l-0.6-0.3c0,2.3-0.4,3.4-1.2,3.4c-0.8,0.2-1.6,0.3-2.5,0.3h-33.3v25h34.2c2.5,0,3.7,1,3.7,3.1v8.6
	c0,2.1-1.2,3.1-3.7,3.1h-45.9c-2.7,0-4-1.3-4-4V288C213.9,285.4,215.3,284,217.9,284z M214.6,302.5v0.6h0.6c0.3,0,0.6-0.2,0.6-0.4
	c0-0.1,0-0.1,0-0.2H214.6z M220.4,370c-1.2,1-1.9,1.7-1.9,2.2l-0.6-0.3h-2.2v0.9c1.2,0.1,1.9,0.4,1.9,0.9v0.9l-0.6,0.9
	c0,0.6,1,1,3.1,1.2c1.1,0.1,2.2-0.5,2.8-1.5v-0.6c0-0.3-0.2-0.6-0.5-0.6c0,0-0.1,0-0.2,0h-2.2v-1.2c0.6-0.6,1.1-1.3,1.2-2.2
	L220.4,370z M218.6,299.7c0,0.7-0.5,1.2-1.5,1.5v0.6c1.3-0.5,2.1-1,2.2-1.5v-0.6H218.6z M221.3,363l0.6,0.3l0.3-0.6v-0.3h-0.3
	C221.5,362.4,221.3,362.6,221.3,363z M226.6,300.7l-0.6,0.9l0.6,0.3c0.3-0.2,0.6-0.3,0.9-0.3V301C227.2,301,226.9,300.9,226.6,300.7
	L226.6,300.7z M235.2,367.9c0,0.5-0.5,1.3-1.5,2.5v0.3l0.6,0.3h0.9c0.3,0,0.7-0.4,1.2-1.2v-1.2c0-0.3-0.2-0.6-0.5-0.6
	c0,0-0.1,0-0.2,0L235.2,367.9z M252.5,326h0.6c0.3,0,0.6-0.2,0.6-0.4c0-0.1,0-0.1,0-0.2h-0.6C252.7,325.4,252.5,325.6,252.5,326z
	 M252.8,326.6v0.6c0.1,0.4,0.3,0.6,0.6,0.6h0.9c0.3,0,0.6-0.2,0.6-0.4c0-0.1,0-0.1,0-0.2c-0.5-0.4-1.2-0.6-1.9-0.6H252.8z
	 M258.6,289.6l0.6,0.3l0.3-0.6V289h-0.3C258.8,289,258.6,289.2,258.6,289.6L258.6,289.6z M263.3,288.4L263,289v0.3
	c0.3-0.2,0.6-0.3,0.9-0.3c0.1-0.3-0.1-0.6-0.4-0.6C263.4,288.3,263.3,288.3,263.3,288.4L263.3,288.4z M264.2,292.1
	c-0.1,0.8,0.4,1.6,1.2,1.9V293c0-0.3-0.3-0.6-0.9-0.9L264.2,292.1z"/>
<path d="M274.1,286.2h0.3v0.3c-0.2,1.2-0.7,2.2-1.5,3.1c0,0.5-0.9,2.4-2.8,5.9h0.3c0.1-0.4,0.3-0.6,0.6-0.6v0.3
	c-0.5,1.3-1,2.1-1.5,2.2V293c0.6,0,1-0.6,1.2-1.9h-0.3c-0.4,0.4-0.6,1-0.6,1.5h-0.3v-2.8c0.5-0.4,0.8-0.9,0.9-1.5h0.6l-0.3,2.2v0.3
	C271,290.8,272.1,289.3,274.1,286.2z M284.9,288.1v2.8c-1.1,0-2.7,1.1-4.6,3.4c-4.3,2.5-6.5,3.9-6.5,4.3s-0.6,0.6-1.9,0.6
	c0-0.1-0.1-0.3-0.2-0.3c0,0-0.1,0-0.1,0c-1.2,0.5-1.9,1.1-1.9,1.9h-0.3v-0.9c4.3-5.2,7.8-8.4,10.5-9.6
	C281.5,289.1,283.1,288.4,284.9,288.1L284.9,288.1z M284.9,292.4v22.2c-1.1,0.1-2.1,0.3-3.1,0.6v0.9c0.2,0.6,0.8,0.9,1.9,0.9
	l1.2-0.6v57.4c0,3.1-1.3,4.6-4,4.6h-6.8c-1.2,0.1-2.3-0.2-3.4-0.6l0.3-0.6c-0.6-1.1-1.1-5.2-1.5-12.3c0.3,0,0.6-0.2,0.6-0.4
	c0-0.1,0-0.1,0-0.2c0-0.4-0.1-0.9-0.3-1.2c0.5-0.7,0.8-1.6,0.9-2.5v-0.3h-1.3V359c0-0.8,0.1-1.2,0.3-1.2l-0.3-2.2V314
	c0-0.7,0.2-1.3,0.6-1.9h-0.6v-0.3c0-0.3,0.9-1,2.8-2.2H272l-2.2,0.6V310c0.9-0.6,1.7-1.3,2.5-2.2h-0.9l-0.9,0.6h-0.3
	c0-0.3,0.6-0.8,1.9-1.5l-1-1.9c1.9-1.4,3.9-2.4,6.2-3.1v-0.3h-0.9l-1.2,0.3c0.4-0.9,1.2-1.5,2.2-1.5v-0.6c-1.1,0.9-3.5,2-7.4,3.4
	c0.8-0.8,1.2-1.4,1.2-1.8c0.3,0.2,0.6,0.3,0.9,0.3c1-0.9,2.3-1.4,3.7-1.5c0-0.4-0.6-0.6-1.9-0.6
	C277.1,296.5,280.9,294.2,284.9,292.4L284.9,292.4z M270.1,287.1h1.2c0,0.3-0.3,0.6-0.9,0.9l-0.3-0.6V287.1z M271.4,284.4h1.2v0.3
	c0,0.6-0.6,1.2-1.9,1.9v-1.2c0.4-0.1,0.9-0.2,1.3-0.3v-0.3h-0.6L271.4,284.4z M272,295.8v0.3c0,0.3-0.3,0.6-0.9,0.9v-0.3
	C271,296.4,271.3,296.1,272,295.8L272,295.8z M272.9,291.8h0.3c-0.6,1.4-1.2,2.2-1.9,2.5v-0.3C271.9,292.6,272.4,291.9,272.9,291.8
	L272.9,291.8z M271.7,286.5h0.6v0.3h-0.6V286.5z M272.3,300.4h0.3c0,0.3-0.2,0.6-0.4,0.6c-0.1,0-0.1,0-0.2,0h-0.3
	C271.7,300.6,271.9,300.4,272.3,300.4L272.3,300.4z M273.5,293.9h0.3c0,0.3-0.2,0.6-0.4,0.6c-0.1,0-0.1,0-0.2,0h-0.3
	C273,294.1,273.2,293.9,273.5,293.9L273.5,293.9z M275.1,284.1h1.5c0.1,0.4,0.2,0.8,0.3,1.2c-0.8,0.4-1.2,0.9-1.2,1.5h-0.6l-0.6-1.9
	C274.8,285,275,284.7,275.1,284.1L275.1,284.1z M284,285l0.3,0.6v0.3c-0.5,0.1-0.9,0.3-1.2,0.6h-0.3
	C283.2,285.6,283.6,285.1,284,285z M284.3,291.2h0.6v0.3h-0.6V291.2z"/>
<path d="M145.9,373.7c-0.5-6.1-1-12.2-1.5-18.4c-0.4-5.1,0-10.2-0.1-15.3c-0.1-5.3,0.1-10.6,0.7-15.8c0.8-7.6,2.2-15.1,4.1-22.4
	c1-3.3,4.5-4.2,7-1.6c0.5,0.5,1.1,1,1.8,1.4c0.6-0.6,1.3-1.1,2-1.6c1.4-1,3.3-0.7,4.4,0.6c0.1,0.2,0.2,0.4,0.3,0.6
	c1.3,2.2,1.2,4.8,1.6,7.2c1.3,7.9,3.8,15.3,6.6,22.8c2,5.2,4.2,10.2,6.8,15.1c-0.6,1.3-1.9,1.7-3,2.1c-2.9,1.2-5.9,2.1-8.9,3.4
	c-1.6,0.7-2.4,0.1-3-1.3c-1.2-2.7-2.5-5.3-3.9-7.9c-0.4-0.6-0.9-1.2-1.4-1.7c0.2,3.6,0.5,6.8,0.4,10c-0.2,8.9,1.4,17.5,2.5,26.2
	c0.9,7,1.7,13.9,2.7,20.8c0.9,6.5,1.5,13.1,2.2,19.7c0.5,4.9-2.3,8-5.6,10.8c-1.1-0.5-1.4-1.7-3-1.6c2.4,3.2-0.1,4.7-2.1,6.2
	s-4.6,0.2-5.9-2.5c-1.9-4.2-3.3-8.7-5.2-13c-2.3-5-4.7-9.8-7-14.8c-2-4.4-3.7-9-5.6-13.5c-1.3-3.2-2.8-6.3-4-9.5
	c-1.6-4.1-3.6-8-5.3-12c-3.3-8.1-6.9-16.1-9.7-24.4c-2.9-8.6-6-17.1-8.3-25.9c-1.5-5.7-2.9-11.5-4.2-17.2c-0.6-2.1,0.5-4.2,2.6-4.9
	c0.5-0.1,1-0.2,1.5-0.1c2.5,0.1,5-0.6,7.6,0c1.6,0.4,2.7,1.3,3,2.8c1.5,7.9,3.5,15.6,6,23.2c3.7,11.4,8.2,22.6,13.4,33.4
	c3,6.1,6.1,12.2,9.1,18.3C145,373.4,145.2,373.8,145.9,373.7z M155.6,372.6c0-0.9-0.3-1.4-1.1-1.3c-1.2,0.2-2.3,1.1-2.6,2.3
	c-0.1,0.4,0.1,0.9,0.5,1c0.2,0.1,0.4,0,0.6,0C154.1,374.3,155.5,374.1,155.6,372.6z"/>
<path d="M192.2,391.6c-8.6-11.4-16.9-22.7-23.5-34.9c1-1.6,3-0.9,4.1-2.5c-2-0.3-3.4,0.6-5.1,1c-0.8-1.1-1-1.8,0.7-2.4
	c3.6-1.2,7.5-1.8,10.8-3.8c1.4-0.9,2.2,0,2.9,1.3c1.5,2.8,3.1,5.5,4.6,8.3c0.2,0.4,0.7,0.7,1.1,0.6c0-3.8,0-7.6,0-11.4
	c0-1.7-0.1-3.4,2.2-3.6c-0.4-1-1.6-0.5-1.9-1.6c0.4-10.6,2.3-21.2,3.6-31.9c0.9-7.5,1.8-15,3-22.4c0.6-3.8,0.9-7.9,4-10.8
	c0.3-0.4,0.6-0.7,0.7-1.2c3-5.8,6.6-11.2,9.4-17.4c0,4.4,0.1,8.4,0,12.5c-0.3,7-0.8,14-1.3,21c-0.6,8.2-1.3,16.4-2.2,24.6
	c-1.1,10.3-2.1,20.7-2.8,31c-0.5,5.5-0.6,11.1-0.4,16.6c0.5,7.1,0.8,14.2,2.6,21.1c0.5,1.8-0.2,3.7-1.8,4.6
	c-1.5,1.1-2.8,2.7-5.4,1.3C196.4,391,194,389.4,192.2,391.6z"/>
</svg>
